<svg xmlns="http://www.w3.org/2000/svg" version="1.1" xmlns:xlink="http://www.w3.org/1999/xlink" width="512" height="512" x="0" y="0" viewBox="0 0 490.667 490.667" style="enable-background:new 0 0 512 512" xml:space="preserve"><g><path d="M245.333 0C109.839 0 0 109.839 0 245.333s109.839 245.333 245.333 245.333 245.333-109.839 245.333-245.333C490.514 109.903 380.764.153 245.333 0z" style="" fill="#fbb90d" data-original="#ffc107" opacity="1"></path><path d="M404.523 262.592a10.668 10.668 0 0 0-9.856-6.592H320V96.171c0-5.891-4.776-10.667-10.667-10.667h-128c-5.891 0-10.667 4.776-10.667 10.667V256H96a10.667 10.667 0 0 0-7.552 18.219l149.333 149.504c4.165 4.164 10.917 4.164 15.083 0l149.333-149.504a10.669 10.669 0 0 0 2.326-11.627z" style="" fill="#fafafa" data-original="#fafafa"></path></g></svg>