<svg xmlns="http://www.w3.org/2000/svg" version="1.1" xmlns:xlink="http://www.w3.org/1999/xlink" width="512" height="512" x="0" y="0" viewBox="0 0 490.667 490.667" style="enable-background:new 0 0 512 512" xml:space="preserve" class=""><g><path d="M245.333 0C109.839 0 0 109.839 0 245.333s109.839 245.333 245.333 245.333 245.333-109.839 245.333-245.333C490.514 109.903 380.764.153 245.333 0z" style="" fill="#d54837" data-original="#ffc107" opacity="1"></path><path d="M252.885 66.944a10.987 10.987 0 0 0-15.083 0L88.469 216.448A10.668 10.668 0 0 0 96 234.667h74.667v159.829c0 5.891 4.776 10.667 10.667 10.667h128c5.891 0 10.667-4.776 10.667-10.667V234.667h74.667a10.667 10.667 0 0 0 7.552-18.219L252.885 66.944z" style="" fill="#ffffff" data-original="#fafafa" class="" opacity="1"></path></g></svg>