<svg xmlns="http://www.w3.org/2000/svg" width="65.163" height="65.163" viewBox="0 0 65.163 65.163">
  <g id="_005-bell" data-name="005-bell" transform="translate(-0.683 -0.682)">
    <g id="Layer_2" data-name="Layer 2" transform="translate(0.683 0.682)">
      <path id="Path_4226" data-name="Path 4226" d="M55.346,1.462a313.177,313.177,0,0,0-44.164,0,10.538,10.538,0,0,0-9.719,9.719,312.869,312.869,0,0,0,0,44.165,10.538,10.538,0,0,0,9.719,9.719,312.458,312.458,0,0,0,44.165,0,10.538,10.538,0,0,0,9.719-9.719,312.871,312.871,0,0,0,0-44.164,10.538,10.538,0,0,0-9.719-9.719Z" transform="translate(-0.683 -0.682)" fill="#bce3ff"/>
    </g>
  </g>
</svg>
