<svg width="38" height="38" viewBox="0 0 38 38" fill="none" xmlns="http://www.w3.org/2000/svg">
<circle cx="19" cy="19" r="18.5" fill="white" stroke="#DBDBDB"/>
<circle cx="19" cy="19" r="16" fill="#FFF7DC"/>
<path d="M17.5489 10.9271C17.8483 10.0057 19.1517 10.0057 19.4511 10.9271L20.8574 15.2553C20.9913 15.6673 21.3752 15.9463 21.8085 15.9463H26.3595C27.3282 15.9463 27.731 17.1859 26.9473 17.7553L23.2654 20.4303C22.9149 20.685 22.7683 21.1364 22.9021 21.5484L24.3085 25.8766C24.6078 26.798 23.5533 27.5641 22.7696 26.9947L19.0878 24.3197C18.7373 24.065 18.2627 24.065 17.9122 24.3197L14.2304 26.9947C13.4467 27.5641 12.3922 26.798 12.6915 25.8766L14.0979 21.5484C14.2317 21.1364 14.0851 20.685 13.7346 20.4303L10.0527 17.7553C9.26904 17.1859 9.67181 15.9463 10.6405 15.9463H15.1915C15.6248 15.9463 16.0087 15.6673 16.1426 15.2553L17.5489 10.9271Z" fill="#F7B536"/>
</svg>
