<svg width="38" height="38" viewBox="0 0 38 38" fill="none" xmlns="http://www.w3.org/2000/svg">
<circle cx="19" cy="19" r="18.5" fill="white" stroke="#056F8E"/>
<circle cx="19" cy="19" r="16" fill="#DAF4FC"/>
<path d="M25.2652 17.4979V27.3881C25.2652 27.7328 24.9944 28.0037 24.6497 28.0037H12.3382C11.9935 28.0037 11.7227 27.7328 11.7227 27.3881V18.4581C11.7227 18.2365 11.8457 18.0396 12.0304 17.9288L13.6924 16.9685C13.791 16.9069 13.9018 16.8823 14.0002 16.8823H16.6472L18.4939 18.4581L20.3407 16.8823H24.6497C24.9944 16.8823 25.2652 17.1531 25.2652 17.4979Z" fill="#E63950"/>
<path d="M25.2654 17.4979V27.3881C25.2654 27.7328 24.9946 28.0037 24.6499 28.0037H18.4941V18.4581L20.3409 16.8823H24.6499C24.9946 16.8823 25.2654 17.1531 25.2654 17.4979Z" fill="#D0004F"/>
<path d="M18.9138 8.23148C18.803 8.03446 18.6552 7.84983 18.4952 7.71432C18.1997 7.40654 17.8304 7.19728 17.4241 7.08652C16.7838 6.91416 16.1191 7.00034 15.5527 7.33271C14.7648 7.78831 14.297 8.63772 14.3216 9.54881C14.3339 9.67192 14.3954 11.5022 14.3954 11.5022C14.26 11.4284 12.8565 10.5542 12.8565 10.5542C12.6964 10.4803 11.5885 9.64316 10.2219 10.4434C9.65552 10.7758 9.24924 11.3052 9.07684 11.9331C8.90452 12.5733 8.99074 13.2381 9.32307 13.8045C10.0002 14.9863 11.5145 15.3803 12.6841 14.7032L14.269 13.7881L12.0611 13.6409C11.8754 13.7468 11.6662 13.8026 11.4545 13.8026C11.0144 13.8026 10.6069 13.5688 10.391 13.1918C10.2191 12.8991 10.1782 12.5781 10.2654 12.2535C10.3514 11.9415 10.5575 11.674 10.8449 11.5056C11.0457 11.3878 11.2368 11.3307 11.4286 11.3307C11.7472 11.3307 12.0111 11.4864 12.1524 11.5699L12.2305 11.6144C12.4235 11.7347 13.6751 12.5113 13.8049 12.5823L13.8512 12.6075L13.8408 12.6135L13.8578 12.6143L15.3352 13.4761L15.6224 11.5883L15.6295 11.566L15.6258 11.46C15.6258 11.46 15.5591 9.55156 15.5459 9.4229C15.5393 9.05381 15.7761 8.62578 16.1687 8.39855C16.3605 8.28615 16.5624 8.23083 16.7752 8.23083C16.8846 8.23083 16.9952 8.24585 17.1046 8.27531C17.3024 8.3294 17.4737 8.42802 17.6072 8.56746L17.6998 8.65463C17.7347 8.68348 17.7917 8.74783 17.8398 8.83376C18.1344 9.33151 18.0436 9.99194 17.6385 10.3839C17.5717 10.4446 17.484 10.5107 17.404 10.5564L17.3428 10.5918L17.1784 12.1082L18.0149 11.6253C18.1873 11.5268 18.3474 11.4036 18.495 11.2683C19.2831 10.505 19.5047 9.22871 18.9138 8.23148Z" fill="#FED843"/>
<path d="M16.6504 16.8824V23.6948C16.6504 23.941 16.7981 24.1626 17.032 24.2611C17.2537 24.3596 17.5245 24.3103 17.6968 24.1256L18.4971 23.3377L19.2974 24.1256C19.4697 24.3103 19.7406 24.3596 19.9622 24.2611C20.1961 24.1626 20.3438 23.941 20.3438 23.6948V16.8824H16.6504Z" fill="#FED843"/>
<path d="M28.3845 14.42H27.7689V13.8044C27.7689 13.4642 27.4936 13.1888 27.1534 13.1888C26.8131 13.1888 26.5378 13.4642 26.5378 13.8044V14.42H25.9222C25.582 14.42 25.3066 14.6953 25.3066 15.0356C25.3066 15.3758 25.582 15.6511 25.9222 15.6511H26.5378V16.2667C26.5378 16.6069 26.8131 16.8823 27.1534 16.8823C27.4936 16.8823 27.7689 16.6069 27.7689 16.2667V15.6511H28.3845C28.7247 15.6511 29.0001 15.3758 29.0001 15.0356C29.0001 14.6953 28.7247 14.42 28.3845 14.42Z" fill="#FFB64C"/>
<path d="M25.8812 11.9578C26.2212 11.9578 26.4968 11.6822 26.4968 11.3423C26.4968 11.0023 26.2212 10.7267 25.8812 10.7267C25.5412 10.7267 25.2656 11.0023 25.2656 11.3423C25.2656 11.6822 25.5412 11.9578 25.8812 11.9578Z" fill="#FFB64C"/>
<path d="M23.4203 15.6513C23.7602 15.6513 24.0358 15.3757 24.0358 15.0357C24.0358 14.6958 23.7602 14.4202 23.4203 14.4202C23.0803 14.4202 22.8047 14.6958 22.8047 15.0357C22.8047 15.3757 23.0803 15.6513 23.4203 15.6513Z" fill="#FFB64C"/>
<path d="M18.4941 16.8823H20.3409V23.6947C20.3409 23.9409 20.1931 24.1625 19.9592 24.2609C19.7376 24.3595 19.4667 24.3102 19.2944 24.1255L18.4941 23.3376V16.8823Z" fill="#FFB64C"/>
<path d="M18.4941 11.2683V7.71436C18.6542 7.84982 18.8019 8.03445 18.9128 8.23148C19.5037 9.2287 19.2821 10.505 18.4941 11.2683Z" fill="#FFB64C"/>
<path d="M23.8256 11.8345L21.9788 8.63357C21.8065 8.33809 21.4248 8.2396 21.1294 8.41196L18.4947 9.93858L18.142 10.142L11.1417 14.1811L8.33777 15.7989C8.0423 15.9589 7.90277 16.3406 8.07513 16.636L9.96288 19.837C10.1352 20.1325 10.5046 20.231 10.8001 20.0586L18.4947 15.6142L23.5916 12.6717C23.8871 12.4994 23.9856 12.1301 23.8256 11.8345Z" fill="#FF641A"/>
<path d="M23.5911 12.6717L18.4941 15.6142V9.93858L21.1288 8.41196C21.4243 8.2396 21.8059 8.33809 21.9783 8.63357L23.825 11.8345C23.9851 12.1301 23.8866 12.4994 23.5911 12.6717Z" fill="#E63950"/>
</svg>
