<svg xmlns="http://www.w3.org/2000/svg" xmlns:xlink="http://www.w3.org/1999/xlink" width="286.372" height="312.576" viewBox="0 0 286.372 312.576"><defs><radialGradient id="a" cx="0.343" cy="0.03" r="1.43" gradientTransform="translate(0.286) scale(0.428 1)" gradientUnits="objectBoundingBox"><stop offset="0" stop-color="#ffc859"/><stop offset="1" stop-color="#e68a2e"/></radialGradient></defs><g transform="translate(-108.91 -93.712)"><circle cx="140.446" cy="140.446" r="140.446" transform="translate(108.91 93.712)" fill="#aee4ff" opacity="0.7"/><path d="M349.941,300.257l-2.042-3.2c20.618-13.138,31.4-26.319,32.047-39.177.637-12.659-9.155-20.534-9.255-20.612l2.353-2.983c.466.368,11.431,9.189,10.7,23.785C383.028,272.226,371.656,286.421,349.941,300.257Z"/><path d="M135.51,346.875c-.227-.959-5.463-23.632,2.778-36.145a17.22,17.22,0,0,1,11.848-7.709l.656,3.741a13.381,13.381,0,0,0-9.328,6.053c-7.342,11.139-2.309,32.968-2.258,33.187Z"/><rect width="3.729" height="45.89" transform="translate(222.948 348.095)"/><path d="M226.677,389.574V393.9a.522.522,0,0,1-.075.084c-1.752,1.846-5.5,2.518-9.864,2.592-6.1.093-11.057-1.007-11.122-5.034s4.82-7.385,10.917-7.487a15.7,15.7,0,0,1,5.632.923c.27.1.531.205.783.326a9.219,9.219,0,0,1,3.505,2.611C226.519,388.465,226.593,389.015,226.677,389.574Z"/><rect width="3.729" height="45.89" transform="translate(277.012 348.095)"/><path d="M277.012,389.574V393.9a.514.514,0,0,0,.074.084c1.753,1.846,5.5,2.518,9.864,2.592,6.1.093,11.058-1.007,11.123-5.034s-4.82-7.385-10.917-7.487a15.7,15.7,0,0,0-5.632.923c-.27.1-.531.205-.783.326a9.23,9.23,0,0,0-3.506,2.611C277.17,388.465,277.1,389.015,277.012,389.574Z"/><path d="M132.859,353.56c-.077,4.74,2.125,8.619,4.919,8.665s5.119-3.761,5.2-8.5-2.126-8.62-4.919-8.665S132.936,348.819,132.859,353.56Z"/><path d="M140.255,352.309c3.125,1.389,6.322,1.022,7.14-.819s-1.052-4.46-4.176-5.849-6.322-1.022-7.141.82S137.13,350.92,140.255,352.309Z"/><path d="M376.859,232.1c-1.214-4.084-4.148-6.814-6.554-6.1s-3.373,4.605-2.159,8.688,4.148,6.814,6.553,6.1S378.072,236.179,376.859,232.1Z"/><path d="M383.49,159.366l-2.852-.023c-3.707-.055-4.334.509-5.21,3.069l-1.513,4.421-2.869-.982.106-3.6a21.7,21.7,0,0,1,.695-5.827c.77-2.249,2.8-3.114,7.957-3l4.744.063c3.187.052,5.376-1.278,6.278-3.915,1.3-3.8-.421-8.9-2.619-12.853l6.569,8.4-13.471-7.47c-4.284-2.42-4.737-4.135-4.1-6,.8-2.326,2.59-3.012,5.622-2.754,6.225,2.824,15.136,13.239,11.685,23.321C392.867,157.03,389.27,159.439,383.49,159.366ZM363.255,177.22a5.165,5.165,0,1,1,9.772,3.345,5.164,5.164,0,1,1-9.772-3.345Z"/><path d="M360.761,146.766l-2.153.98c-2.806,1.254-3.081,1.9-2.845,4.129l.408,3.854-2.5.264-1.18-2.747a17.972,17.972,0,0,1-1.515-4.625c-.207-1.961,1.017-3.321,4.937-5.034l3.59-1.611c2.416-1.076,3.6-2.841,3.354-5.14-.351-3.313-3.427-6.543-6.464-8.751l7.878,4.021-12.744-.908c-4.068-.323-5.008-1.454-5.18-3.076-.214-2.028.895-3.171,3.266-4.038,5.668-.052,16.012,4.665,16.942,13.454C367,141.731,365.134,144.8,360.761,146.766Zm-8.976,20.5a4.284,4.284,0,1,1,8.519-.9,4.283,4.283,0,0,1-8.519.9Z"/><g style="mix-blend-mode:multiply;isolation:isolate"><path d="M355.23,395.767c0,5.811-45.888,10.521-102.493,10.521s-102.494-4.71-102.494-10.521,45.888-10.522,102.494-10.522S355.23,389.956,355.23,395.767Z" fill="#e6e6e6"/></g><g style="mix-blend-mode:multiply;isolation:isolate"><ellipse cx="65.29" cy="6.702" rx="65.29" ry="6.702" transform="translate(187.447 387.002)" fill="#999"/></g><path d="M218.22,141.754c-24.263-9.83-49.84-3.25-57.124,14.717s6.472,40.5,30.735,50.342,49.827,3.249,57.125-14.718S242.47,151.6,218.22,141.754Zm-13.174,53.753a30.366,30.366,0,0,1-8.665-5.294.014.014,0,0,1-.014-.014c-6.079-5.321-8.855-12.483-6.431-18.482,3.4-8.381,15.679-11.333,27.431-6.553,11.753,4.752,18.523,15.408,15.111,23.79A11.581,11.581,0,0,1,230.664,192C225.83,198,215.242,199.65,205.046,195.507Z" fill="#f2d525"/><g style="mix-blend-mode:multiply;isolation:isolate"><path d="M218.22,141.754c-24.263-9.83-49.84-3.25-57.124,14.717s6.472,40.5,30.735,50.342,49.827,3.249,57.125-14.718S242.47,151.6,218.22,141.754Zm28,45.223c-6.5,16.017-29.26,21.88-50.883,13.12s-33.877-28.84-27.391-44.844,29.273-21.88,50.9-13.12S252.706,170.973,246.221,186.977Z" fill="#ffed92"/></g><path d="M218.952,145.139c-17.44-7.068-35.8-2.329-41.04,10.574-4.847,11.983,3.317,26.782,18.455,34.486-6.079-5.321-8.855-12.483-6.431-18.482,3.4-8.381,15.679-11.333,27.431-6.553,11.753,4.752,18.523,15.408,15.111,23.79A11.581,11.581,0,0,1,230.664,192a20.792,20.792,0,0,0,10.358-10.71C246.248,168.386,236.364,152.206,218.952,145.139Z" fill="#999" style="mix-blend-mode:overlay;isolation:isolate"/><path d="M249.109,192.1c7.3,17.967,32.848,24.548,57.124,14.718s38.007-32.374,30.736-50.342-32.861-24.547-57.125-14.717S241.824,174.127,249.109,192.1ZM267.4,192a11.581,11.581,0,0,1-1.814-3.046c-3.412-8.382,3.358-19.038,15.11-23.79,11.753-4.78,24.034-1.828,27.432,6.553,2.424,6-.352,13.161-6.431,18.482a.014.014,0,0,1-.014.014,30.38,30.38,0,0,1-8.665,5.294C282.823,199.65,272.235,198,267.4,192Z" fill="#f2d525"/><g style="mix-blend-mode:multiply;isolation:isolate"><path d="M249.109,192.1c7.3,17.967,32.848,24.548,57.124,14.718s38.007-32.374,30.736-50.342-32.861-24.547-57.125-14.717S241.824,174.127,249.109,192.1Zm30.112-49.962c21.624-8.76,44.411-2.884,50.9,13.12s-5.768,36.07-27.391,44.844-44.384,2.9-50.883-13.12S257.612,150.907,279.221,142.133Z" fill="#ffed92"/></g><path d="M257.043,181.29A20.792,20.792,0,0,0,267.4,192a11.581,11.581,0,0,1-1.814-3.046c-3.412-8.382,3.358-19.038,15.11-23.79,11.753-4.78,24.034-1.828,27.432,6.553,2.424,6-.352,13.161-6.431,18.482,15.137-7.7,23.3-22.5,18.454-34.486-5.24-12.9-23.6-17.642-41.039-10.574C261.7,152.206,251.817,168.386,257.043,181.29Z" fill="#999" style="mix-blend-mode:overlay;isolation:isolate"/><path d="M354.689,224.685V358.107a14.045,14.045,0,0,1-14.041,14.041H158.063a14.036,14.036,0,0,1-14.041-14.041V224.685a14.047,14.047,0,0,1,14.041-14.054H340.648A14.056,14.056,0,0,1,354.689,224.685Z" fill="#e93729"/><path d="M309,241.059V341.717a10.693,10.693,0,0,1-10.786,10.592H157.955a10.686,10.686,0,0,1-10.786-10.592V241.059a10.7,10.7,0,0,1,10.786-10.6H298.216A10.7,10.7,0,0,1,309,241.059Z" fill="#999" style="mix-blend-mode:overlay;isolation:isolate"/><path d="M340.648,210.631H158.063a14.047,14.047,0,0,0-14.041,14.054V358.107a14.036,14.036,0,0,0,14.041,14.041H340.648a14.045,14.045,0,0,0,14.041-14.041V224.685A14.056,14.056,0,0,0,340.648,210.631Zm-6.486,140.476A12.577,12.577,0,0,1,321.6,363.686H158.158a12.569,12.569,0,0,1-12.565-12.579V231.685a12.58,12.58,0,0,1,12.565-12.592H321.6a12.588,12.588,0,0,1,12.565,12.592Z" fill="#f77766" style="mix-blend-mode:multiply;isolation:isolate"/><path d="M6.742,0H211.458A6.743,6.743,0,0,1,218.2,6.743V23.437a6.742,6.742,0,0,1-6.742,6.742H6.742A6.742,6.742,0,0,1,0,23.437V6.742A6.742,6.742,0,0,1,6.742,0Z" transform="translate(140.255 291.383)" fill="#f2d525"/><path d="M328.663,297.207v9.1c0,2.029-2.532,3.674-5.657,3.674H151.25c-3.125,0-5.657-1.645-5.657-3.674v-9.1c0-2.03,2.532-3.675,5.657-3.675H323.006C326.131,293.532,328.663,295.177,328.663,297.207Z" fill="#999" style="mix-blend-mode:overlay;isolation:isolate"/><path d="M351.71,291.383H147a6.743,6.743,0,0,0-6.743,6.743V314.82A6.743,6.743,0,0,0,147,321.563H351.71a6.744,6.744,0,0,0,6.743-6.743V298.126A6.744,6.744,0,0,0,351.71,291.383Zm-10.927,19.308c0,2.911-2.735,5.28-6.106,5.28H149.316c-3.372,0-6.106-2.369-6.106-5.28V297.6c0-2.924,2.734-5.294,6.106-5.294H334.677c3.371,0,6.106,2.37,6.106,5.294Z" fill="#ffed92" style="mix-blend-mode:multiply;isolation:isolate"/><path d="M264.446,230.453V368.208a6.744,6.744,0,0,1-6.743,6.743h-16.7a6.744,6.744,0,0,1-6.743-6.743V230.453Z" fill="#f2d525"/><path d="M262.293,230.453V339.5c0,3.128-1.639,5.66-3.67,5.66h-9.1c-2.031,0-3.683-2.532-3.683-5.66V230.453Z" fill="#999" style="mix-blend-mode:overlay;isolation:isolate"/><path d="M263.525,230.453V351.175c0,3.371-2.37,6.106-5.294,6.106H245.138c-2.911,0-5.281-2.735-5.281-6.106V230.453h-5.592V368.208a6.744,6.744,0,0,0,6.743,6.743h16.7a6.744,6.744,0,0,0,6.743-6.743V230.453Z" fill="#ffed92" style="mix-blend-mode:multiply;isolation:isolate"/><g style="mix-blend-mode:multiply;isolation:isolate"><path d="M354.689,224.685v35.583H144.022V224.685a14.047,14.047,0,0,1,14.041-14.054H340.648A14.056,14.056,0,0,1,354.689,224.685Z" fill="#fc5b3f"/></g><rect width="242.892" height="60.009" rx="12.43" transform="translate(127.909 190.863)" fill="#fc5b3f"/><path d="M330.316,201.212v23.117c0,4.515-4.537,8.175-10.133,8.175H142.438c-5.6,0-10.133-3.66-10.133-8.175V201.212c0-4.515,4.537-8.175,10.133-8.175H320.183C325.779,193.037,330.316,196.7,330.316,201.212Z" fill="#999" style="mix-blend-mode:overlay;isolation:isolate"/><path d="M358.372,190.863H140.339a12.429,12.429,0,0,0-12.43,12.429v35.15a12.431,12.431,0,0,0,12.43,12.43H358.372a12.43,12.43,0,0,0,12.429-12.43v-35.15A12.429,12.429,0,0,0,358.372,190.863Zm-3.142,41.066c0,5.809-5.158,10.507-11.522,10.507H141.463c-6.364,0-11.523-4.7-11.523-10.507V202.2c0-5.808,5.159-10.506,11.523-10.506H343.708c6.364,0,11.522,4.7,11.522,10.506Z" fill="#f77766" style="mix-blend-mode:multiply;isolation:isolate"/><rect width="29.124" height="60.009" transform="translate(228.159 190.863)" fill="#f2d525"/><rect width="16.368" height="46.513" transform="translate(230.199 193.037)" fill="#999" style="mix-blend-mode:overlay;isolation:isolate"/><g style="mix-blend-mode:multiply;isolation:isolate"><path d="M228.159,190.863v60.009h29.124V190.863Zm24.209,55.473H229.621V191.864h22.747Z" fill="#ffed92"/></g><g style="mix-blend-mode:screen;isolation:isolate"><path d="M156.8,268.3c0,5.85-2.086,10.592-4.66,10.592s-4.66-4.742-4.66-10.592,2.086-10.591,4.66-10.591S156.8,262.447,156.8,268.3Z" fill="#444"/><path d="M156.376,286.993a4.236,4.236,0,1,1-4.236-4.236A4.235,4.235,0,0,1,156.376,286.993Z" fill="#444"/></g><g style="mix-blend-mode:screen;isolation:isolate"><path d="M217.522,145.005c5.3,2.475,8.715,6.371,7.627,8.7s-6.268,2.217-11.569-.257-8.715-6.37-7.627-8.7S212.221,142.531,217.522,145.005Z" fill="#444"/><path d="M234.285,153.3a4.237,4.237,0,1,1-5.631,2.047A4.236,4.236,0,0,1,234.285,153.3Z" fill="#444"/></g><g style="mix-blend-mode:screen;isolation:isolate"><ellipse cx="4.66" cy="10.592" rx="4.66" ry="10.592" transform="matrix(0.423, -0.906, 0.906, 0.423, 296.853, 145.904)" fill="#444"/><path d="M327.155,150.23a4.236,4.236,0,1,1-5.63,2.047A4.237,4.237,0,0,1,327.155,150.23Z" fill="#444"/></g><g style="mix-blend-mode:multiply;isolation:isolate"><path d="M348.234,343.234c0,5.849-2.086,10.591-4.66,10.591s-4.66-4.742-4.66-10.591,2.086-10.592,4.66-10.592S348.234,337.384,348.234,343.234Z" fill="#dd3124"/><path d="M347.81,361.93a4.236,4.236,0,1,1-4.236-4.236A4.236,4.236,0,0,1,347.81,361.93Z" fill="#dd3124"/></g><g style="mix-blend-mode:multiply;isolation:isolate"><path d="M368.022,212.77c0,5.85-2.086,10.592-4.66,10.592s-4.66-4.742-4.66-10.592,2.086-10.591,4.66-10.591S368.022,206.921,368.022,212.77Z" fill="#ef6c6c"/><path d="M367.6,231.467a4.236,4.236,0,1,1-4.237-4.236A4.236,4.236,0,0,1,367.6,231.467Z" fill="#ef6c6c"/></g><g style="mix-blend-mode:screen;isolation:isolate"><path d="M156.109,192.044c7.225,0,13.081,2.577,13.081,5.756s-5.856,5.755-13.081,5.755-13.081-2.577-13.081-5.755S148.884,192.044,156.109,192.044Z" fill="#7c7c7c"/><path d="M179.2,192.567a5.232,5.232,0,1,1-5.232,5.233A5.233,5.233,0,0,1,179.2,192.567Z" fill="#7c7c7c"/></g><path d="M239.74,281.884a11.322,11.322,0,1,1-11.322-11.321A11.323,11.323,0,0,1,239.74,281.884Z" fill="#f9f9f9"/><path d="M281.8,281.884a11.322,11.322,0,1,1-11.322-11.321A11.323,11.323,0,0,1,281.8,281.884Z" fill="#f9f9f9"/><path d="M284.972,325.231a.091.091,0,0,1-.085-.046C284.992,325.208,285.023,325.224,284.972,325.231Z" fill="url(#a)"/><g opacity="0.5"><path d="M281.7,297.219c0,1.364-2.96,2.469-6.612,2.469s-6.611-1.1-6.611-2.469,2.96-2.468,6.611-2.468S281.7,295.856,281.7,297.219Z" fill="#f43b6c"/><path d="M234.867,297.219c0,1.364-2.96,2.469-6.612,2.469s-6.612-1.1-6.612-2.469,2.96-2.468,6.612-2.468S234.867,295.856,234.867,297.219Z" fill="#f43b6c"/></g><path d="M238.249,284.565a8.172,8.172,0,1,0-2.526,5.885A8.157,8.157,0,0,0,238.249,284.565Z" fill="#fff2d2" style="mix-blend-mode:multiply;isolation:isolate"/><path d="M235.576,283.228a6.815,6.815,0,1,1-6.815-6.815A6.815,6.815,0,0,1,235.576,283.228Z" fill="#282828"/><g style="mix-blend-mode:overlay;isolation:isolate"><path d="M230.25,282.5a3.687,3.687,0,1,1-3.687-3.687A3.687,3.687,0,0,1,230.25,282.5Z" fill="#c9c9c9"/></g><g style="mix-blend-mode:multiply;isolation:isolate"><path d="M228.76,276.41a6.815,6.815,0,1,0,6.819,6.819A6.814,6.814,0,0,0,228.76,276.41Zm-1.465,10.964a4.878,4.878,0,1,1,4.878-4.878A4.875,4.875,0,0,1,227.295,287.374Z"/></g><path d="M228.295,281.766a2,2,0,1,1-2-2A2,2,0,0,1,228.295,281.766Z" fill="#fff"/><path d="M232.5,287.266a1.183,1.183,0,1,1-1.182-1.183A1.182,1.182,0,0,1,232.5,287.266Z" fill="#fff"/><g opacity="0.3" style="mix-blend-mode:screen;isolation:isolate"><path d="M226.009,286.59c-1.133-.129-2.008-.6-1.957-1.053s1.011-.715,2.143-.587,2.008.6,1.957,1.053S227.141,286.719,226.009,286.59Z" fill="#bfbfbf"/></g><path d="M279.006,284.565a8.172,8.172,0,1,0-2.526,5.885A8.157,8.157,0,0,0,279.006,284.565Z" fill="#fff2d2" style="mix-blend-mode:multiply;isolation:isolate"/><path d="M276.333,283.228a6.815,6.815,0,1,1-6.815-6.815A6.815,6.815,0,0,1,276.333,283.228Z" fill="#282828"/><g style="mix-blend-mode:overlay;isolation:isolate"><path d="M271.007,282.5a3.687,3.687,0,1,1-3.687-3.687A3.687,3.687,0,0,1,271.007,282.5Z" fill="#c9c9c9"/></g><g style="mix-blend-mode:multiply;isolation:isolate"><path d="M269.517,276.41a6.815,6.815,0,1,0,6.819,6.819A6.814,6.814,0,0,0,269.517,276.41Zm-1.465,10.964a4.878,4.878,0,1,1,4.878-4.878A4.875,4.875,0,0,1,268.052,287.374Z"/></g><path d="M269.052,281.766a2,2,0,1,1-2-2A2,2,0,0,1,269.052,281.766Z" fill="#fff"/><path d="M273.261,287.266a1.182,1.182,0,1,1-1.183-1.183A1.183,1.183,0,0,1,273.261,287.266Z" fill="#fff"/><g opacity="0.3" style="mix-blend-mode:screen;isolation:isolate"><path d="M266.766,286.59c-1.133-.129-2.008-.6-1.957-1.053s1.011-.715,2.143-.587,2.008.6,1.957,1.053S267.9,286.719,266.766,286.59Z" fill="#bfbfbf"/></g><path d="M284.286,268.172a2.814,2.814,0,0,1-3.692,1.463l-17.36-7.509c-.072-.031-.142-.067-.212-.1a2.808,2.808,0,0,1,2.441-5.053l17.361,7.509A2.807,2.807,0,0,1,284.286,268.172Z" fill="#c9b3a9" style="mix-blend-mode:multiply;isolation:isolate"/><path d="M283.567,266.356a2.812,2.812,0,0,1-3.692,1.462l-17.36-7.508c-.072-.031-.142-.067-.212-.1a2.808,2.808,0,0,1,2.441-5.053l17.361,7.509A2.808,2.808,0,0,1,283.567,266.356Z" fill="#282828"/><path d="M283.673,266.064a2.5,2.5,0,0,0,.084-.38,1.558,1.558,0,0,0,.028-.2l0-.041c.005-.088.006-.177,0-.268a2.9,2.9,0,0,0-.127-.779l-.063-.183c-.024-.063-.051-.122-.078-.18s-.05-.1-.076-.152a2.878,2.878,0,0,0-.248-.377c-.055-.07-.115-.139-.177-.2a1.907,1.907,0,0,0-.2-.191c-.056-.047-.112-.091-.173-.136-.033-.024-.065-.047-.1-.067a.936.936,0,0,0-.127-.078,1.09,1.09,0,0,0-.109-.066c-.07-.035-.135-.068-.207-.1l-17.361-7.509a2.774,2.774,0,0,0-.514-.166,1.225,1.225,0,0,0-.171-.031,2.831,2.831,0,0,0-.608-.027,1.559,1.559,0,0,0-.215.026.326.326,0,0,0-.06.007,1.449,1.449,0,0,0-.23.052,2.325,2.325,0,0,0-.245.074.928.928,0,0,0-.105.035,2.778,2.778,0,0,0-1.545,1.493,2.076,2.076,0,0,0-.109.307,1.275,1.275,0,0,0-.047.174,1.013,1.013,0,0,0-.036.193.608.608,0,0,0-.02.123,2.259,2.259,0,0,0-.015.3.8.8,0,0,0,0,.176,1.783,1.783,0,0,0,.018.188c.005.044.009.089.018.135a2.513,2.513,0,0,0,.1.382c.016.049.036.1.056.153a2.771,2.771,0,0,0,.286.554c.038.053.076.108.116.158s.079.1.121.147l.006.007a.054.054,0,0,0,.021.019,1.339,1.339,0,0,0,.134.138.207.207,0,0,0,.057.053,1.111,1.111,0,0,0,.135.115,2.469,2.469,0,0,0,.41.267c.074.037.143.072.215.1l17.36,7.509c.072.031.146.058.215.083l.117.037.157.039a2.418,2.418,0,0,0,.313.055l0,0a.012.012,0,0,1,.013,0c.09.01.18.011.27.012a2.311,2.311,0,0,0,.277-.007c.085-.011.166-.023.247-.035a2.893,2.893,0,0,0,.534-.152,2.8,2.8,0,0,0,1.541-1.5A2.7,2.7,0,0,0,283.673,266.064Zm-4.425-1.318a1.226,1.226,0,0,1-.938-.018l-13.985-6.049a1.231,1.231,0,0,1-.64-1.616.875.875,0,0,1,.075-.142.68.68,0,0,1,.1-.134,1.258,1.258,0,0,1,.5-.38,1.241,1.241,0,0,1,.944.017l13.985,6.048a1.236,1.236,0,0,1,.641,1.616A1.25,1.25,0,0,1,279.248,264.746Z"/><g opacity="0.6" style="mix-blend-mode:screen;isolation:isolate"><path d="M270.52,258.1c1.058.458,1.744,1.224,1.534,1.712s-1.24.511-2.3.054-1.745-1.224-1.534-1.712S269.461,257.639,270.52,258.1Z" fill="#edeeef"/><path d="M273.709,259.464a.973.973,0,1,1-1.279.507A.974.974,0,0,1,273.709,259.464Z" fill="#edeeef"/></g><path d="M213.986,269.166a3.3,3.3,0,0,0,4.328,1.715l20.35-8.8c.084-.036.166-.078.248-.119a3.292,3.292,0,0,0-2.862-5.923l-20.35,8.8A3.291,3.291,0,0,0,213.986,269.166Z" fill="#c9b3a9" style="mix-blend-mode:multiply;isolation:isolate"/><path d="M214.829,267.038a3.3,3.3,0,0,0,4.328,1.714l20.35-8.8c.084-.035.166-.077.248-.118a3.292,3.292,0,0,0-2.862-5.923l-20.349,8.8A3.291,3.291,0,0,0,214.829,267.038Z" fill="#282828"/><path d="M214.832,267.04a3.271,3.271,0,0,0,1.806,1.752,3.323,3.323,0,0,0,.626.178c.095.015.19.029.289.041a2.509,2.509,0,0,0,.326.009,3.045,3.045,0,0,0,.316-.014.017.017,0,0,1,.016,0l0,0a3.043,3.043,0,0,0,.366-.064l.185-.047.137-.043c.081-.029.167-.061.252-.1l20.349-8.8c.084-.036.166-.078.253-.121a2.972,2.972,0,0,0,.48-.312,1.524,1.524,0,0,0,.158-.136.221.221,0,0,0,.067-.062,1.414,1.414,0,0,0,.157-.162.06.06,0,0,0,.024-.021s0-.007.008-.009c.048-.054.1-.113.141-.172s.091-.123.136-.186a3.152,3.152,0,0,0,.335-.65c.024-.06.047-.12.067-.178a3.29,3.29,0,0,0,.111-.448c.01-.053.015-.106.02-.158a1.7,1.7,0,0,0,.021-.22.846.846,0,0,0,.005-.207,2.38,2.38,0,0,0-.017-.348.77.77,0,0,0-.024-.145,1.178,1.178,0,0,0-.042-.225,1.53,1.53,0,0,0-.054-.2,2.61,2.61,0,0,0-.129-.36,3.258,3.258,0,0,0-1.811-1.751c-.04-.016-.085-.03-.123-.041a2.817,2.817,0,0,0-.287-.087,1.827,1.827,0,0,0-.27-.06.448.448,0,0,0-.07-.009,2.14,2.14,0,0,0-.252-.03,3.287,3.287,0,0,0-.712.032,1.44,1.44,0,0,0-.2.036,3.245,3.245,0,0,0-.6.195l-20.35,8.8c-.084.036-.161.075-.243.116a1.4,1.4,0,0,0-.128.077.949.949,0,0,0-.148.092c-.04.023-.078.051-.116.078-.072.053-.138.1-.2.16a2.17,2.17,0,0,0-.236.224,3.137,3.137,0,0,0-.207.239,3.368,3.368,0,0,0-.291.442c-.031.057-.061.115-.09.177s-.062.138-.091.212-.049.143-.073.214a3.372,3.372,0,0,0-.149.913q-.006.16,0,.315l0,.048a1.9,1.9,0,0,0,.033.23,2.828,2.828,0,0,0,.1.445A3.037,3.037,0,0,0,214.832,267.04Zm4.266-2.661a1.45,1.45,0,0,1,.75-1.894l16.394-7.09a1.413,1.413,0,0,1,1.693.427.791.791,0,0,1,.112.156,1.278,1.278,0,0,1,.089.167,1.443,1.443,0,0,1-.75,1.894l-16.394,7.09a1.434,1.434,0,0,1-1.1.021A1.46,1.46,0,0,1,219.1,264.379Z"/><g opacity="0.6" style="mix-blend-mode:screen;isolation:isolate"><path d="M230.124,257.357c-1.241.536-2.046,1.435-1.8,2.006s1.454.6,2.694.063,2.045-1.434,1.8-2.006S231.364,256.82,230.124,257.357Z" fill="#edeeef"/><path d="M226.385,258.96a1.141,1.141,0,1,0,1.5.594A1.14,1.14,0,0,0,226.385,258.96Z" fill="#edeeef"/></g><path d="M257.062,318.5a1.977,1.977,0,0,1-1.926-1.544,6.633,6.633,0,0,0-12.937,0,1.977,1.977,0,0,1-3.857-.867,10.586,10.586,0,0,1,20.651,0,1.98,1.98,0,0,1-1.931,2.411Z" fill="#333"/><g style="mix-blend-mode:multiply;isolation:isolate"><path d="M258.714,319.441a2.151,2.151,0,0,1-2.1-1.68,7.217,7.217,0,0,0-14.075,0,2.15,2.15,0,1,1-4.2-.942,11.517,11.517,0,0,1,22.467,0,2.149,2.149,0,0,1-1.626,2.569A2.207,2.207,0,0,1,258.714,319.441Z" fill="#fff2d2"/></g><path d="M257.062,318.5a1.977,1.977,0,0,1-1.926-1.544,6.633,6.633,0,0,0-12.937,0,1.977,1.977,0,0,1-3.857-.867,10.586,10.586,0,0,1,20.651,0,1.98,1.98,0,0,1-1.931,2.411Z"/><path d="M370.858,235.163c-3.053-.347-5.693.83-5.9,2.629s2.105,3.538,5.157,3.885,5.694-.829,5.9-2.629S373.91,235.51,370.858,235.163Z"/></g></svg>