<svg xmlns="http://www.w3.org/2000/svg" xmlns:xlink="http://www.w3.org/1999/xlink" width="1854.048" height="1830" viewBox="0 0 1854.048 1830"><defs><linearGradient id="a" x1="1.09" y1="-0.599" x2="0.899" y2="-0.292" gradientUnits="objectBoundingBox"><stop offset="0" stop-color="#fff"/><stop offset="1" stop-color="#efeff4"/></linearGradient><linearGradient id="b" x1="0.54" y1="-0.766" x2="0.522" y2="-0.377" xlink:href="#a"/><linearGradient id="c" x1="-247.489" y1="-3.524" x2="-253.227" y2="3.756" gradientUnits="objectBoundingBox"><stop offset="0" stop-color="#b9bcc5"/><stop offset="1" stop-color="#b9bcc5"/></linearGradient><linearGradient id="d" x1="2.584" y1="-0.273" x2="3.341" y2="-0.568" xlink:href="#a"/><linearGradient id="e" x1="-0.099" y1="1.909" x2="1.053" y2="-0.458" xlink:href="#a"/><linearGradient id="f" x1="-0.316" y1="0.261" x2="-3.307" y2="-0.791" xlink:href="#a"/><linearGradient id="g" x1="-0.126" y1="-0.725" x2="-1.698" y2="-3.578" xlink:href="#a"/><linearGradient id="h" x1="-2.012" y1="-3.167" x2="-8.446" y2="-12.477" xlink:href="#a"/><linearGradient id="i" x1="2.341" y1="-0.048" x2="3.603" y2="-0.464" xlink:href="#a"/></defs><g transform="translate(3182.717 -9905)"><g transform="translate(-3505.693 9570)"><path d="M1955.444,1908.056c-37.776,39.3-73.519,64.652-101.759,84.678-331.958,235.4-724.751,166.784-808.231,150.026-123.274-24.745-361.559-72.577-533.834-272.8-260.639-302.927-220.054-780.18-17.885-1095.222,36.98-57.626,232.319-377.466,629.343-428.758,240.275-31.042,520.358,31.565,723.187,199.511C2272.021,898.021,2241.711,1610.2,1955.444,1908.056Z" fill="#efeff4"/><g opacity="0.75"><path d="M2108.823,1014.886c-126.85,102.843-430.571,419.69-428.678,1094.812,0,0,542.992-428.126,490.727-1068.141C2168.37,1010.918,2132.7,995.526,2108.823,1014.886Z" fill="#b2ded6"/><path d="M2074.4,1194.221c-3.04,17.909-6.574,35.406-10.3,52.99q-5.586,26.329-11.928,52.463-12.621,52.283-27.714,103.893a2147.4,2147.4,0,0,1-70.248,203.078c-6.61,16.649-13.738,33.085-20.776,49.551l-11,24.509c-1.857,4.074-3.638,8.182-5.559,12.227l-5.772,12.129c-3.9,8.062-7.58,16.226-11.659,24.2l-12.075,23.994c-4.032,7.994-8.373,15.83-12.544,23.752l-6.316,11.85c-2.147,3.927-4.392,7.8-6.582,11.706l-13.254,23.358-13.838,23.016c-4.519,7.729-9.443,15.21-14.258,22.755l-7.243,11.3-3.621,5.652-3.782,5.546-15.163,22.157c-2.475,3.728-5.175,7.3-7.812,10.915l-7.936,10.827-7.934,10.823c-2.638,3.614-5.5,7.059-8.24,10.595l-16.6,21.084a1.2,1.2,0,0,1-1.894-1.466l.027-.036,16.245-21.283c2.678-3.569,5.479-7.044,8.057-10.687l7.749-10.914,7.747-10.914c2.575-3.643,5.212-7.242,7.623-11l14.78-22.315,3.685-5.583,3.524-5.688,7.046-11.375c4.685-7.591,9.477-15.115,13.863-22.886l13.439-23.138,12.85-23.468c2.123-3.921,4.3-7.813,6.379-11.757l6.113-11.9c4.034-7.954,8.239-15.818,12.134-23.841l11.662-24.076c3.941-8,7.484-16.189,11.245-24.272l5.564-12.162c1.85-4.055,3.562-8.174,5.351-12.257l10.583-24.564c6.761-16.5,13.608-32.967,19.935-49.639a2136.431,2136.431,0,0,0,66.841-203.124q14.227-51.543,25.99-103.7,5.891-26.062,11.053-52.265c3.419-17.432,6.69-35.032,9.369-52.406l.019-.119a7.69,7.69,0,1,1,15.2,2.343C2074.411,1194.131,2074.4,1194.2,2074.4,1194.221Z" fill="#fff" opacity="0.54"/></g><g opacity="0.87"><path d="M2176,626.06c4.316-8.622-5.817-16.231-14.634-11.046-89.526,52.642-314.547,216.5-358.639,553.289-55.32,422.549-188.927,560.352-329.759,635.838,0,0,171.3-20.322,312.555-159.332C2132.337,1303.509,2099.252,779.349,2176,626.06Z" fill="#c1e2dd"/><path d="M2085.368,748.063c-6.249,7.786-11.894,16.3-17.482,24.711-5.454,8.538-10.849,17.108-15.85,25.929-5.233,8.673-9.83,17.726-14.689,26.611-4.714,8.968-9.064,18.133-13.61,27.182-17.614,36.516-32.487,74.309-45.632,112.631-13.411,38.255-24.1,77.4-34.165,116.643l-6.66,29.664-3.315,14.833-1.656,7.415c-.511,2.482-.938,4.981-1.412,7.469l-5.55,29.893c-1.856,9.965-3.653,19.887-5.688,30a1155.533,1155.533,0,0,1-70.646,235.21c-15.83,37.8-33.1,75-52.336,111.191L1781.92,1574.4c-5.113,8.882-10.182,17.788-15.417,26.6-10.526,17.648-21.345,34.905-33.257,51.992a7.689,7.689,0,0,1-12.691-8.682l.124-.185c5.511-8.191,11.021-16.76,16.267-25.358,5.361-8.555,10.483-17.276,15.63-25.978,5.083-8.741,10.008-17.582,14.974-26.392l14.329-26.759c18.88-35.8,35.956-72.554,51.525-109.9l5.786-14.028c1.928-4.676,3.9-9.334,5.614-14.094l10.738-28.379c.885-2.368,1.825-4.718,2.667-7.1l2.44-7.18,4.884-14.361c3.191-9.593,6.71-19.088,9.422-28.83l8.654-29.069c.7-2.429,1.5-4.832,2.111-7.282l1.855-7.35,3.712-14.7,3.713-14.7,1.857-7.351c.552-2.464,1.024-4.946,1.539-7.418l6.07-29.7,12.162-60.027c.517-2.5.989-5.017,1.544-7.514l1.791-7.462,3.584-14.924,7.2-29.832,8.244-29.569,4.122-14.78c1.355-4.931,3.048-9.768,4.555-14.656l9.308-29.249c3.272-9.693,6.927-19.261,10.371-28.893,14.229-38.361,30.176-76.125,48.872-112.544,4.9-8.991,9.586-18.083,14.643-26.978,5.205-8.815,10.138-17.774,15.715-26.367,10.815-17.391,22.294-34.3,35.678-50.051a2.061,2.061,0,0,1,3.179,2.623Z" fill="#fff" opacity="0.47"/></g><path d="M1348.9,1717.994s-287.175-109.08-361.37-450.773C915.414,935.1,897.6,465.73,488.724,350.007c-13.771-3.9-26.31,9.54-20.212,21.666C504.566,443.367,590.277,631,613.212,835.384,642.487,1096.282,853.383,1706.454,1348.9,1717.994Z" fill="#b2ded6"/><path d="M596.465,461.506l1.511.836,1.25.749c.824.493,1.625.987,2.382,1.484,1.56.984,3.069,1.995,4.556,3.017,2.984,2.045,5.912,4.125,8.76,6.29,5.756,4.269,11.252,8.809,16.647,13.46a399.2,399.2,0,0,1,30.577,29.687,424.934,424.934,0,0,1,27.275,32.647c8.632,11.259,16.388,23.136,23.983,35.093a507.774,507.774,0,0,1,38.044,75.822,535.585,535.585,0,0,1,25,80.912A642.908,642.908,0,0,1,789.493,825l1.63,21.053.849,21.084c.314,7.088.464,13.87.7,20.813l.323,10.36c.118,3.452.37,6.9.548,10.35,1.3,27.618,4,55.168,7.406,82.622,3.331,27.474,8,54.777,13.315,81.947a1192.262,1192.262,0,0,0,43.572,160.248c9.012,26.21,19.227,51.99,30.1,77.488,10.942,25.476,23.1,50.413,36.006,74.957,26.109,48.915,56.235,95.8,91.159,138.979l6.574,8.075,3.287,4.039,3.428,3.917,13.726,15.669,14.293,15.158c2.347,2.565,4.824,5,7.315,7.418l7.438,7.3a607.431,607.431,0,0,0,63.654,53.834,608.213,608.213,0,0,1-65-52.411l-7.633-7.146c-2.556-2.37-5.1-4.755-7.514-7.27l-14.7-14.878-14.152-15.41-3.537-3.857-3.4-3.977-6.8-7.959c-36.227-42.5-67.3-89.244-94.519-138.011-13.448-24.481-26.16-49.39-37.658-74.866-2.986-6.318-5.621-12.791-8.448-19.181l-4.175-9.617-3.955-9.706c-2.6-6.486-5.29-12.938-7.812-19.455l-7.37-19.63a1203.7,1203.7,0,0,1-46.207-161.171c-5.746-27.378-10.846-54.918-14.6-82.666-3.829-27.729-6.942-55.587-8.648-83.561-.229-3.495-.532-6.987-.7-10.487l-.473-10.5-.956-20.9-.982-20.624-1.745-20.562a626.633,626.633,0,0,0-13.3-81.271c-12.546-53.4-32.858-104.964-61.374-151.638a456.942,456.942,0,0,0-49.063-65.463,383.4,383.4,0,0,0-29.039-28.719c-5.11-4.474-10.305-8.856-15.654-12.98-2.655-2.089-5.372-4.084-8.1-6.017-1.365-.971-2.732-1.919-4.1-2.814-.69-.469-1.362-.9-2.026-1.309l-.976-.611-.762-.448-.584-.344a7.679,7.679,0,0,1,7.608-13.339Z" fill="#fff" opacity="0.47"/><path d="M327.826,582.778c-4.949-10.933,8.308-21.287,19.148-15.028,110.068,63.558,384.865,264.114,420.778,697.512,45.059,543.763,205.837,715.243,379.414,805.753,0,0-215.337-17.613-385.712-190.267C343.142,1456.843,415.815,777.171,327.826,582.778Z" fill="#b2ded6"/><path d="M438.84,732.854c16.18,20.188,29.791,41.916,42.458,64.226l4.8,8.335c1.549,2.806,3.015,5.655,4.527,8.481l9.008,16.993c5.767,11.448,11.25,23.037,16.862,34.57,21.445,46.6,39.12,94.843,54.569,143.718,15.946,48.777,27.458,98.8,38.666,148.823l7.148,37.777,3.574,18.892,1.787,9.447,1.451,9.5,5.764,38.012c1.91,12.664,3.892,25.39,5.625,37.9l2.714,18.841,3.137,18.777,1.569,9.389,1.768,9.354,3.571,18.7c5.134,24.86,10.629,49.655,17.1,74.211,12.6,49.2,28.141,97.618,45.414,145.384q26.268,71.528,59.033,140.459,16.328,34.425,34.3,68.025,9,16.782,18.489,33.27c6.288,10.964,12.8,21.98,19.486,32.448l.1.148a7.689,7.689,0,0,1-12.917,8.344c-14.255-21.806-26.994-43.937-39.368-66.505-12.342-22.524-24.006-45.4-35.176-68.515-22.25-46.273-42.061-93.69-59.822-141.862a1463.721,1463.721,0,0,1-45.378-147.15c-6.4-24.872-11.814-49.99-16.859-75.172l-3.5-18.944L627,1359.26l-1.532-9.511-3.064-19.022-2.636-19.087-10.47-75.732-1.321-9.45-1.656-9.393-3.309-18.789-6.618-37.584-7.991-37.307c-2.685-12.431-5.167-24.916-8.488-37.194l-9.37-36.985c-1.457-6.2-3.368-12.26-5.1-18.377l-5.3-18.324c-14.364-48.775-30.96-96.983-51.31-143.619-5.261-11.57-10.4-23.212-15.815-34.716l-8.486-17.082c-1.425-2.842-2.806-5.71-4.268-8.533l-4.542-8.382c-3.072-5.563-5.958-11.242-9.185-16.714l-9.681-16.427c-6.747-10.722-13.509-21.613-21.19-31.542l-.066-.086a2.061,2.061,0,0,1,3.239-2.55Z" fill="#fff" opacity="0.47"/><rect width="707.075" height="1739.412" rx="22.795" transform="translate(1472.618 2074.413) rotate(180)" fill="#03566e"/><path d="M36.123,0H670.951a36.124,36.124,0,0,1,36.124,36.124V1703.289a36.123,36.123,0,0,1-36.123,36.123H36.124A36.124,36.124,0,0,1,0,1703.289V36.123A36.123,36.123,0,0,1,36.123,0Z" transform="translate(1701.805 2074.413) rotate(180)" fill="#263238"/><path d="M1042.026,556.394V454.486c0-20.014,12.277-36.3,27.367-36.3h540.489c15.09,0,27.367,16.282,27.367,36.3V556.394c0,20.013-12.277,36.3-27.367,36.3H1069.393C1054.3,592.69,1042.026,576.407,1042.026,556.394Zm27.367-129.13c-11.319,0-20.525,12.211-20.525,27.222V556.394c0,15.011,9.206,27.222,20.525,27.222h540.489c11.318,0,20.525-12.211,20.525-27.222V454.486c0-15.011-9.207-27.222-20.525-27.222Z" fill="#d7d9e0"/><path d="M1042.026,835.6V733.688c0-20.014,12.277-36.3,27.367-36.3h540.489c15.09,0,27.367,16.283,27.367,36.3V835.6c0,20.013-12.277,36.3-27.367,36.3H1069.393C1054.3,871.892,1042.026,855.609,1042.026,835.6Zm27.367-129.13c-11.319,0-20.525,12.21-20.525,27.222V835.6c0,15.011,9.206,27.222,20.525,27.222h540.489c11.318,0,20.525-12.211,20.525-27.222V733.688c0-15.012-9.207-27.222-20.525-27.222Z" fill="#d7d9e0"/><path d="M1042.026,1131.928V1030.02c0-20.013,12.277-36.3,27.367-36.3h540.489c15.09,0,27.367,16.283,27.367,36.3v101.908c0,20.014-12.277,36.3-27.367,36.3H1069.393C1054.3,1168.224,1042.026,1151.942,1042.026,1131.928Zm27.367-129.13c-11.319,0-20.525,12.211-20.525,27.222v101.908c0,15.011,9.206,27.222,20.525,27.222h540.489c11.318,0,20.525-12.211,20.525-27.222V1030.02c0-15.011-9.207-27.222-20.525-27.222Z" fill="#d7d9e0"/><path d="M1042.026,1411.13V1309.222c0-20.013,12.277-36.3,27.367-36.3h540.489c15.09,0,27.367,16.283,27.367,36.3V1411.13c0,20.013-12.277,36.3-27.367,36.3H1069.393C1054.3,1447.426,1042.026,1431.143,1042.026,1411.13ZM1069.393,1282c-11.319,0-20.525,12.211-20.525,27.222V1411.13c0,15.011,9.206,27.222,20.525,27.222h540.489c11.318,0,20.525-12.211,20.525-27.222V1309.222c0-15.011-9.207-27.222-20.525-27.222Z" fill="#d7d9e0"/><path d="M1045.447,1697.5V1595.6c0-20.013,12.277-36.3,27.366-36.3H1613.3c15.089,0,27.366,16.283,27.366,36.3V1697.5c0,20.014-12.277,36.3-27.366,36.3h-540.49C1057.724,1733.8,1045.447,1717.518,1045.447,1697.5Zm27.366-129.13c-11.318,0-20.525,12.211-20.525,27.222V1697.5c0,15.011,9.207,27.222,20.525,27.222H1613.3c11.318,0,20.525-12.211,20.525-27.222V1595.6c0-15.011-9.207-27.222-20.525-27.222Z" fill="#d7d9e0"/><path d="M1042.026,1983.445V1881.537c0-20.013,12.277-36.3,27.367-36.3h540.489c15.09,0,27.367,16.283,27.367,36.3v101.908c0,20.014-12.277,36.3-27.367,36.3H1069.393C1054.3,2019.741,1042.026,2003.459,1042.026,1983.445Zm27.367-129.13c-11.319,0-20.525,12.211-20.525,27.222v101.908c0,15.011,9.206,27.222,20.525,27.222h540.489c11.318,0,20.525-12.211,20.525-27.222V1881.537c0-15.011-9.207-27.222-20.525-27.222Z" fill="#d7d9e0"/><ellipse cx="13.113" cy="12.467" rx="13.113" ry="12.467" transform="translate(1580.235 489.48)" fill="#d7d9e0"/><ellipse cx="13.113" cy="12.467" rx="13.113" ry="12.467" transform="translate(1580.235 772.174)" fill="#d7d9e0"/><ellipse cx="13.113" cy="12.468" rx="13.113" ry="12.468" transform="translate(1580.235 1063.302)" fill="#d7d9e0"/><ellipse cx="13.113" cy="12.468" rx="13.113" ry="12.468" transform="translate(1580.235 1347.708)" fill="#d7d9e0"/><ellipse cx="13.113" cy="12.468" rx="13.113" ry="12.468" transform="translate(1580.235 1634.083)" fill="#d7d9e0"/><ellipse cx="13.113" cy="12.467" rx="13.113" ry="12.467" transform="translate(1585.936 1920.024)" fill="#d7d9e0"/><rect width="21.546" height="77.388" transform="translate(1533.625 2007.011) rotate(180)" fill="#d7d9e0"/><rect width="21.546" height="50.791" transform="translate(1497.623 2007.011) rotate(180)" fill="#d7d9e0"/><rect width="21.546" height="116.523" transform="translate(1461.621 2007.011) rotate(180)" fill="#d7d9e0"/><rect width="21.546" height="27.993" transform="translate(1425.619 2007.011) rotate(180)" fill="#d7d9e0"/><rect width="21.546" height="100.945" transform="translate(1389.617 2007.011) rotate(180)" fill="#d7d9e0"/><rect width="21.546" height="83.467" transform="translate(1353.615 2007.011) rotate(180)" fill="#d7d9e0"/><rect width="21.546" height="64.469" transform="translate(1317.613 2007.011) rotate(180)" fill="#d7d9e0"/><rect width="21.546" height="140.08" transform="translate(1281.611 2007.011) rotate(180)" fill="#d7d9e0"/><rect width="21.546" height="125.262" transform="translate(1245.609 2007.011) rotate(180)" fill="#d7d9e0"/><rect width="21.546" height="102.845" transform="translate(1209.607 2007.011) rotate(180)" fill="#d7d9e0"/><rect width="21.546" height="25.395" transform="translate(1173.605 2007.011) rotate(180)" fill="#d7d9e0"/><rect width="21.546" height="74.728" transform="translate(1137.603 2007.011) rotate(180)" fill="#d7d9e0"/><rect width="21.546" height="77.388" transform="translate(1533.045 1716.591) rotate(180)" fill="#d7d9e0"/><rect width="21.546" height="50.791" transform="translate(1497.043 1716.59) rotate(180)" fill="#d7d9e0"/><rect width="21.546" height="116.523" transform="translate(1461.041 1716.591) rotate(180)" fill="#d7d9e0"/><rect width="21.546" height="27.993" transform="translate(1425.039 1716.591) rotate(180)" fill="#d7d9e0"/><rect width="21.546" height="100.945" transform="translate(1389.037 1716.59) rotate(180)" fill="#d7d9e0"/><rect width="21.546" height="83.467" transform="translate(1353.035 1716.59) rotate(180)" fill="#d7d9e0"/><rect width="21.546" height="64.469" transform="translate(1317.033 1716.591) rotate(180)" fill="#d7d9e0"/><rect width="21.546" height="140.08" transform="translate(1281.031 1716.59) rotate(180)" fill="#d7d9e0"/><rect width="21.546" height="125.262" transform="translate(1245.029 1716.59) rotate(180)" fill="#d7d9e0"/><rect width="21.546" height="102.845" transform="translate(1209.027 1716.59) rotate(180)" fill="#d7d9e0"/><rect width="21.546" height="25.395" transform="translate(1173.026 1716.59) rotate(180)" fill="#d7d9e0"/><rect width="21.546" height="74.728" transform="translate(1137.024 1716.59) rotate(180)" fill="#d7d9e0"/><rect width="21.546" height="77.388" transform="translate(1540.563 1431.375) rotate(180)" fill="#d7d9e0"/><rect width="21.546" height="50.791" transform="translate(1504.561 1431.375) rotate(180)" fill="#d7d9e0"/><rect width="21.546" height="116.523" transform="translate(1468.559 1431.375) rotate(180)" fill="#d7d9e0"/><rect width="21.546" height="27.993" transform="translate(1432.557 1431.375) rotate(180)" fill="#d7d9e0"/><rect width="21.546" height="100.945" transform="translate(1396.555 1431.375) rotate(180)" fill="#d7d9e0"/><rect width="21.546" height="83.467" transform="translate(1360.553 1431.375) rotate(180)" fill="#d7d9e0"/><rect width="21.546" height="64.469" transform="translate(1324.551 1431.375) rotate(180)" fill="#d7d9e0"/><rect width="21.546" height="140.08" transform="translate(1288.549 1431.375) rotate(180)" fill="#d7d9e0"/><rect width="21.546" height="125.262" transform="translate(1252.547 1431.375) rotate(180)" fill="#d7d9e0"/><rect width="21.546" height="102.845" transform="translate(1216.545 1431.375) rotate(180)" fill="#d7d9e0"/><rect width="21.546" height="25.395" transform="translate(1180.543 1431.375) rotate(180)" fill="#d7d9e0"/><rect width="21.546" height="74.728" transform="translate(1144.541 1431.375) rotate(180)" fill="#d7d9e0"/><rect width="21.546" height="77.388" transform="translate(1539.983 1151.364) rotate(180)" fill="#d7d9e0"/><rect width="21.546" height="50.791" transform="translate(1503.981 1151.364) rotate(180)" fill="#d7d9e0"/><rect width="21.546" height="116.523" transform="translate(1467.979 1151.364) rotate(180)" fill="#d7d9e0"/><rect width="21.546" height="27.993" transform="translate(1431.977 1151.364) rotate(180)" fill="#d7d9e0"/><rect width="21.546" height="100.945" transform="translate(1395.975 1151.364) rotate(180)" fill="#d7d9e0"/><rect width="21.546" height="83.467" transform="translate(1359.973 1151.364) rotate(180)" fill="#d7d9e0"/><rect width="21.546" height="64.469" transform="translate(1323.971 1151.364) rotate(180)" fill="#d7d9e0"/><rect width="21.546" height="140.08" transform="translate(1287.969 1151.364) rotate(180)" fill="#d7d9e0"/><rect width="21.546" height="125.262" transform="translate(1251.967 1151.364) rotate(180)" fill="#d7d9e0"/><rect width="21.546" height="102.845" transform="translate(1215.965 1151.364) rotate(180)" fill="#d7d9e0"/><rect width="21.546" height="25.395" transform="translate(1179.964 1151.364) rotate(180)" fill="#d7d9e0"/><rect width="21.546" height="74.728" transform="translate(1143.962 1151.364) rotate(180)" fill="#d7d9e0"/><rect width="21.546" height="77.388" transform="translate(1540.563 856.434) rotate(180)" fill="#d7d9e0"/><rect width="21.546" height="50.791" transform="translate(1504.561 856.434) rotate(180)" fill="#d7d9e0"/><rect width="21.546" height="116.523" transform="translate(1468.559 856.434) rotate(180)" fill="#d7d9e0"/><rect width="21.546" height="27.993" transform="translate(1432.557 856.434) rotate(180)" fill="#d7d9e0"/><rect width="21.546" height="100.945" transform="translate(1396.555 856.434) rotate(180)" fill="#d7d9e0"/><rect width="21.546" height="83.467" transform="translate(1360.553 856.434) rotate(180)" fill="#d7d9e0"/><rect width="21.546" height="64.469" transform="translate(1324.551 856.434) rotate(180)" fill="#d7d9e0"/><rect width="21.546" height="140.08" transform="translate(1288.549 856.434) rotate(180)" fill="#d7d9e0"/><rect width="21.546" height="125.262" transform="translate(1252.547 856.434) rotate(180)" fill="#d7d9e0"/><rect width="21.546" height="102.845" transform="translate(1216.545 856.434) rotate(180)" fill="#d7d9e0"/><rect width="21.546" height="25.395" transform="translate(1180.543 856.434) rotate(180)" fill="#d7d9e0"/><rect width="21.546" height="74.728" transform="translate(1144.541 856.434) rotate(180)" fill="#d7d9e0"/><rect width="21.546" height="77.388" transform="translate(1539.983 576.423) rotate(180)" fill="#d7d9e0"/><rect width="21.546" height="50.791" transform="translate(1503.981 576.423) rotate(180)" fill="#d7d9e0"/><rect width="21.546" height="116.523" transform="translate(1467.979 576.423) rotate(180)" fill="#d7d9e0"/><rect width="21.546" height="27.993" transform="translate(1431.977 576.423) rotate(180)" fill="#d7d9e0"/><rect width="21.546" height="100.945" transform="translate(1395.975 576.423) rotate(180)" fill="#d7d9e0"/><rect width="21.546" height="83.467" transform="translate(1359.973 576.423) rotate(180)" fill="#d7d9e0"/><rect width="21.546" height="64.469" transform="translate(1323.971 576.423) rotate(180)" fill="#d7d9e0"/><rect width="21.546" height="140.08" transform="translate(1287.969 576.423) rotate(180)" fill="#d7d9e0"/><rect width="21.546" height="125.262" transform="translate(1251.967 576.423) rotate(180)" fill="#d7d9e0"/><rect width="21.546" height="102.845" transform="translate(1215.965 576.423) rotate(180)" fill="#d7d9e0"/><rect width="21.546" height="25.395" transform="translate(1179.964 576.423) rotate(180)" fill="#d7d9e0"/><rect width="21.546" height="74.728" transform="translate(1143.962 576.423) rotate(180)" fill="#d7d9e0"/><path d="M993.65,917.811l751.59-.667a77.864,77.864,0,0,1,77.83,73.836L1879.514,2080.6a57.419,57.419,0,0,1-56.248,60.38l-861.4,16.42a54.5,54.5,0,0,1-55.542-54.445l-.973-1096.682A88.38,88.38,0,0,1,993.65,917.811Z" fill="#263238"/><path d="M1087.742,2138.926h-.026l-96.388-1.163a59.609,59.609,0,0,1-58.666-59.323l-.128-145.528a2.221,2.221,0,0,1,2.22-2.223h0a2.221,2.221,0,0,1,2.221,2.219l.128,145.528a55.149,55.149,0,0,0,54.275,54.884l96.388,1.162a2.222,2.222,0,0,1-.026,4.444Z" fill="#5c5e61"/><path d="M934.715,1890.054a2.223,2.223,0,0,1-2.222-2.219l-.022-23.568a2.223,2.223,0,0,1,2.22-2.224h0a2.222,2.222,0,0,1,2.221,2.22l.022,23.567a2.222,2.222,0,0,1-2.219,2.224Z" fill="#5c5e61"/><path d="M995.953,908.976c102.649,13.827,455.627,56.561,747.414,33.9a23.738,23.738,0,0,1,25.584,22.366l59.143,1094.472a27.318,27.318,0,0,1-25.639,28.751c-122.722,7.372-628.131,35.9-808.429,17.174a21.642,21.642,0,0,1-19.384-21.4L966.859,934.606A25.671,25.671,0,0,1,995.953,908.976Z" fill="#a8abb2"/><path d="M1006.972,937.358c98.784,13.307,438.47,54.432,719.269,32.626a22.845,22.845,0,0,1,24.621,21.524l56.916,1053.258a26.289,26.289,0,0,1-24.674,27.669c-118.1,7.095-604.478,34.545-777.986,16.527a20.826,20.826,0,0,1-18.655-20.595L978.972,962.024A24.706,24.706,0,0,1,1006.972,937.358Z" fill="#03566e" opacity="0.29"/><path d="M1070.48,1043.151l10.69,225.81a14.355,14.355,0,0,0,13.944,13.682c41.823,1.142,172.145,4.205,245.724.3a16.032,16.032,0,0,0,15.17-15.512c1.366-42.35,4.327-165.614-5.369-217.133a18.094,18.094,0,0,0-17.189-14.7l-247.2-8.425A15.264,15.264,0,0,0,1070.48,1043.151Z" fill="#fff"/><circle cx="48.544" cy="48.544" r="48.544" transform="translate(1144.141 1123.76) rotate(-45)" fill="#03566e"/><path d="M1139.184,1266.349l154.655-.137a11.974,11.974,0,0,0,10.04-18.468c-13.154-20.544-40.666-50.717-88.264-49.312-45.876,1.354-73.043,28.655-86.695,48.23A12.513,12.513,0,0,0,1139.184,1266.349Z" fill="#03566e"/><g opacity="0.8"><path d="M1688.864,1062.26c4.888-.005,8.784-3.417,8.659-7.584s-4.227-7.643-9.113-7.725l-270.914-4.588c-4.887-.082-7.553,3.621-5.926,8.229l1.247,3.531a13.478,13.478,0,0,0,11.846,8.371Z" fill="#fff"/></g><path d="M1417.533,1084.461c-4.887-.083-7.553,3.62-5.925,8.229l1.247,3.531a13.476,13.476,0,0,0,11.845,8.371l264.2-.234c4.887-.005,8.783-3.417,8.658-7.584s-4.226-7.643-9.113-7.725Z" fill="#fff"/><g opacity="0.8"><path d="M1417.571,1127.171c-4.887-.083-7.553,3.62-5.925,8.229l1.247,3.531a13.476,13.476,0,0,0,11.845,8.371l264.2-.235c4.887,0,8.783-3.416,8.658-7.583s-4.226-7.643-9.113-7.726Z" fill="#fff"/></g><g opacity="0.8"><path d="M1715.452,1353.013c4.887,0,8.658-3.417,8.379-7.583s-4.506-7.6-9.393-7.637l-634.888-4.441c-4.888-.034-6.393,3.064-3.345,6.884l5.1,6.388a20.923,20.923,0,0,0,14.427,6.939Z" fill="#fff"/></g><g opacity="0.8"><path d="M1079.587,1375.45c-4.887-.034-6.392,3.064-3.344,6.885l5.095,6.387a20.925,20.925,0,0,0,14.428,6.939l619.723-.55c4.888,0,8.658-3.417,8.379-7.583s-4.505-7.6-9.393-7.637Z" fill="#fff"/></g><path d="M1162.638,1538.131h-.135l-53.6-.466c-7.741-.07-14.137-5.4-14.874-12.388l-4.752-44.965a9.93,9.93,0,0,1,2.337-7.474,11.92,11.92,0,0,1,8.311-4.113h0c4.519-.313,10.885-.859,17.625-1.439,14.909-1.284,31.805-2.738,41.733-2.87l.236,0c7.114,0,13.238,4.334,14.939,10.607,2.808,10.339,2.582,29.893,2.07,50.725C1176.362,1532.6,1170.142,1538.131,1162.638,1538.131Zm-62.4-64.972a7.451,7.451,0,0,0-5.215,2.534,5.53,5.53,0,0,0-1.324,4.15l4.752,44.965c.5,4.749,5.013,8.366,10.5,8.414l53.6.466h.1c5.111,0,9.341-3.595,9.45-8.051.5-20.491.738-39.691-1.914-49.454-1.158-4.265-5.625-7.326-10.661-7.326l-.167,0c-9.769.13-27.314,1.64-41.411,2.853-6.76.581-13.145,1.13-17.7,1.447Z" fill="#fff"/><path d="M1214.146,1491.307c-4.888-.011-7.863,3.847-6.613,8.571l2.54,9.6a12.038,12.038,0,0,0,11.16,8.49l485.92-5.515a8.792,8.792,0,0,0,8.684-8.985l-.051-2.226a9.183,9.183,0,0,0-9.088-8.9Z" fill="#fff"/><path d="M1108.283,1484.682h0a8.226,8.226,0,0,1,11.35,3.077l10.589,18.941a2.641,2.641,0,0,0,4.716-.209l26.168-58.4a2.928,2.928,0,0,1,5.6,1.26c-.251,17.855-4.959,51.8-33.464,80.236,0,0-15.728-6.1-28.414-33.889A8.629,8.629,0,0,1,1108.283,1484.682Z" fill="#74767b"/><path d="M1162.735,1653h-.13l-53.6-.469c-7.741-.067-14.137-5.391-14.874-12.386l-4.754-44.964a9.944,9.944,0,0,1,2.341-7.479,11.93,11.93,0,0,1,8.309-4.109h0c4.517-.312,10.735-.848,17.577-1.436,14.187-1.221,31.842-2.742,41.781-2.874l.236,0c7.114,0,13.238,4.337,14.939,10.609,2.81,10.344,2.582,29.9,2.068,50.725C1176.464,1647.472,1170.242,1653,1162.735,1653Zm-3.122-69.277-.165,0c-9.78.13-27.346,1.642-41.461,2.857-6.868.592-13.114,1.13-17.649,1.445h0a7.451,7.451,0,0,0-5.211,2.532,5.54,5.54,0,0,0-1.328,4.154l4.754,44.963c.5,4.749,5.013,8.363,10.5,8.411l53.6.469h.093c5.112,0,9.342-3.6,9.451-8.051.505-20.487.739-39.685-1.912-49.454C1169.118,1586.789,1164.651,1583.727,1159.613,1583.727Z" fill="#fff"/><path d="M1106.1,1592.5c11.259-.779,35.728-3.286,47.334-3.441,4.918-.065,9.234,2.9,10.392,7.166,2.247,8.28,1.965,24.79,1.59,40.027-.113,4.563-4.3,8.21-9.418,8.166l-42.832-.374c-5.267-.046-9.643-3.633-10.137-8.31l-3.8-35.933C1098.836,1596.087,1101.924,1592.792,1106.1,1592.5Z" fill="#fff" opacity="0.8"/><path d="M1214.247,1606.178c-4.887-.01-7.863,3.847-6.612,8.572l2.54,9.6a12.039,12.039,0,0,0,11.16,8.49l485.92-5.516a8.79,8.79,0,0,0,8.684-8.984l-.051-2.226a9.185,9.185,0,0,0-9.088-8.9Z" fill="#fff"/><path d="M1162.841,1767.874h-.134l-53.6-.466c-7.741-.07-14.137-5.4-14.875-12.388l-4.751-44.965a9.93,9.93,0,0,1,2.337-7.474,11.927,11.927,0,0,1,8.311-4.113h0c4.519-.313,10.885-.859,17.625-1.439,14.909-1.284,31.805-2.738,41.733-2.87l.236,0c7.114,0,13.238,4.335,14.939,10.607,2.807,10.34,2.582,29.893,2.07,50.725C1176.566,1762.344,1170.346,1767.874,1162.841,1767.874Zm-62.4-64.972a7.456,7.456,0,0,0-5.215,2.534,5.53,5.53,0,0,0-1.324,4.15l4.752,44.965c.5,4.749,5.013,8.366,10.5,8.414l53.6.466h.095c5.112,0,9.342-3.595,9.451-8.051.5-20.491.737-39.691-1.914-49.454-1.158-4.265-5.625-7.326-10.661-7.326l-.167,0c-9.769.131-27.314,1.64-41.411,2.853-6.76.582-13.145,1.131-17.7,1.447Z" fill="#fff"/><path d="M1106.2,1707.375c11.259-.78,35.728-3.286,47.334-3.441,4.919-.065,9.234,2.9,10.391,7.165,2.248,8.281,1.966,24.79,1.59,40.028-.112,4.563-4.3,8.21-9.418,8.165l-42.831-.373c-5.267-.046-9.643-3.634-10.137-8.311l-3.8-35.933C1098.937,1710.959,1102.026,1707.664,1106.2,1707.375Z" fill="#fff" opacity="0.8"/><path d="M1214.349,1721.05c-4.887-.01-7.863,3.847-6.612,8.572l2.54,9.6a12.036,12.036,0,0,0,11.16,8.489l485.92-5.515a8.791,8.791,0,0,0,8.684-8.985l-.051-2.226a9.183,9.183,0,0,0-9.088-8.9Z" fill="#fff"/><path d="M1162.939,1882.747h-.13l-53.6-.469c-7.741-.067-14.137-5.391-14.875-12.385l-4.753-44.965a9.941,9.941,0,0,1,2.341-7.478,11.923,11.923,0,0,1,8.309-4.109h0c4.517-.313,10.735-.849,17.577-1.437,14.187-1.221,31.842-2.742,41.781-2.874l.236,0c7.114,0,13.238,4.336,14.939,10.608,2.81,10.344,2.582,29.9,2.068,50.725C1176.668,1877.215,1170.446,1882.747,1162.939,1882.747Zm-3.122-69.276-.165,0c-9.78.13-27.346,1.642-41.461,2.857-6.869.592-13.115,1.13-17.649,1.445h0a7.45,7.45,0,0,0-5.211,2.532,5.54,5.54,0,0,0-1.328,4.154l4.754,44.963c.5,4.749,5.013,8.364,10.5,8.411l53.6.469h.093c5.112,0,9.342-3.595,9.451-8.051.505-20.487.739-39.685-1.912-49.454C1169.322,1816.532,1164.855,1813.471,1159.817,1813.471Z" fill="#fff"/><path d="M1106.3,1822.247c11.259-.78,35.728-3.286,47.334-3.441,4.918-.066,9.234,2.9,10.391,7.165,2.248,8.28,1.966,24.79,1.59,40.027-.112,4.564-4.3,8.21-9.418,8.166l-42.831-.374c-5.267-.046-9.643-3.633-10.137-8.31l-3.8-35.933C1099.039,1825.83,1102.127,1822.536,1106.3,1822.247Z" fill="#fff" opacity="0.8"/><path d="M1214.451,1835.922c-4.887-.011-7.863,3.847-6.612,8.572l2.54,9.6a12.037,12.037,0,0,0,11.159,8.489l485.921-5.515a8.791,8.791,0,0,0,8.684-8.985l-.051-2.226a9.185,9.185,0,0,0-9.089-8.9Z" fill="#fff"/><path d="M1415.927,768.865c-27.165-18.862-50.77-18.467-67.384-13.549a33.146,33.146,0,0,0-23.511,34.868l7.236,78.215,85.284,7.492S1469.2,805.858,1415.927,768.865ZM1378.482,832a21.264,21.264,0,1,1,21.245-21.283A21.264,21.264,0,0,1,1378.482,832Z" fill="#333435"/><path d="M1340.755,835.65a2.222,2.222,0,0,1-2.21-2.017l-1.152-12.456a2.222,2.222,0,1,1,4.425-.407l1.152,12.455a2.222,2.222,0,0,1-2.008,2.416A2.069,2.069,0,0,1,1340.755,835.65Zm-2.258-24.409a2.223,2.223,0,0,1-2.211-2.017l-.874-9.457a31.8,31.8,0,0,1,22.519-33.389,63.993,63.993,0,0,1,31.245-1.31,2.221,2.221,0,1,1-.889,4.352,59.565,59.565,0,0,0-29.093,1.219,27.348,27.348,0,0,0-19.356,28.72l.874,9.457a2.223,2.223,0,0,1-2.009,2.417C1338.634,811.239,1338.564,811.241,1338.5,811.241Z" fill="#5c5e61"/><path d="M1215.925,919.052l-.035-39.327a24,24,0,0,1,24.8-24.006l271.151,9.05a23.338,23.338,0,0,1,22.518,21.908l2.3,37.786Z" fill="#333435"/><path d="M1305.321,870.644a2.221,2.221,0,0,1,0-4.443l11.661-.011h0a2.221,2.221,0,0,1,0,4.443l-11.661.011Z" fill="#5c5e61"/><path d="M1230.588,906.853a2.221,2.221,0,0,1-2.221-2.219l-.013-15.907a22.481,22.481,0,0,1,22.435-22.478l42.869-.037h0a2.222,2.222,0,0,1,0,4.443l-42.869.037a18.035,18.035,0,0,0-18,18.031l.013,15.906a2.222,2.222,0,0,1-2.219,2.224Z" fill="#5c5e61"/><path d="M1130.953,904.735,1605.1,904.3a35.044,35.044,0,0,1,34.558,29.037l.4,2.317a30.1,30.1,0,0,1-29.624,35.257l-486.444.432a19.569,19.569,0,0,1-19.564-20.49l1.027-21.773A25.55,25.55,0,0,1,1130.953,904.735Z" fill="#48494b"/><path d="M594.276,2150.045c29.623,1.363,58.3.507,77.442-.477-17.432-12.407-57.589-39.4-91.194-50.149l-23.068-1.379s-7.816,11.887-10.606,39.092C550.674,2141.9,561.849,2148.553,594.276,2150.045Z" fill="#333435"/><path d="M671.956,2149.737c-.076-.055-.161-.114-.238-.169-19.145.984-47.819,1.84-77.442.477-32.427-1.492-43.6-8.144-47.426-12.913-.128,1.253-.26,2.5-.365,3.816a10.8,10.8,0,0,0,9.924,11.663c24.26,1.835,84.413,5.989,113.422,4.467A4.047,4.047,0,0,0,671.956,2149.737Z" fill="#333435"/><path d="M382.4,2142.117c-2.169-13.906-5.648-34.012-8.336-39.151-4.216-8.064-18.651,0-18.651,0s-10.133,4.725-14.8,12.6c-2.972,5.02-11.194,19.305-16.765,29a6.5,6.5,0,0,0-.874,3.452l57.8,2.023A11.538,11.538,0,0,0,382.4,2142.117Z" fill="#333435"/><path d="M322.979,2148.022a6.584,6.584,0,0,0,6.4,6.4l41.177,1.133a11.621,11.621,0,0,0,10.216-5.508Z" fill="#333435"/><path d="M386.818,2056.744c-.5,1.668-7.967,37.874-11.237,53.764a9.077,9.077,0,0,1-9.338,7.251c-2.446-.122-5.291-.343-8.275-.728a10.954,10.954,0,0,1-9.529-10.441c-.53-13.919-.791-40.644,4.32-51C359.81,2041.305,386.818,2056.744,386.818,2056.744Z" fill="url(#a)"/><path d="M552.92,2067.11c3.2-.1-1.278,16.539,3.568,32.895,1.093,3.689,3.852,6.585,7.7,6.633,2.494.032,5.448-.015,8.448-.256a9.288,9.288,0,0,0,8.556-8.369l3.942-42.423Z" fill="url(#b)"/><path d="M642.519,1616.148c-1.43,6.96-51.895,301.308-54.957,453.619a5.183,5.183,0,0,1-4.46,5.048c-6.407.893-18.882,2.041-30.98-.2a3.651,3.651,0,0,1-3.009-3.352c-1.764-28.384-15.948-268.366,1.423-381.338,0,0-143.487,301.989-165.237,385.258a4.378,4.378,0,0,1-4.48,3.278c-6.146-.324-18.925-1.43-29.072-5.165a7.6,7.6,0,0,1-4.791-8.927c12.152-49.833,97.315-393.171,155.137-468.817Z" fill="#03566e"/><path d="M550.536,1691.807a1.884,1.884,0,0,1-1.347-3.2l19.214-19.647a1.884,1.884,0,1,1,2.693,2.634l-19.214,19.647A1.878,1.878,0,0,1,550.536,1691.807Z" fill="url(#c)"/><path d="M816,1248.571c-29.988,7.676-61.486,6.91-91.429-.936-42.047-11.016-124.673-29.163-180.96-19.027L420.949,1742.466a24.237,24.237,0,0,0,14.01,27.927c57.608,24.561,114.612,41.995,169.71,36.957a23.48,23.48,0,0,0,21.126-21.278l19.492-210.513,88.062-216.618s117.144-16.906,180.506-93.929c-15.423-16.81-27.818-35.474-35.4-47.967C862.65,1230.542,842.288,1241.843,816,1248.571Z" fill="#979aa0"/><path d="M947.879,1102.119l-14.86-6.525s.738,74.216-54.565,121.451c7.583,12.493,19.978,31.157,35.4,47.967C945.088,1227.046,963.256,1174.477,947.879,1102.119Z" fill="url(#d)"/><path d="M635.887,1146.655S624.7,1213.4,623.2,1234.374c0,0,54.021,14.921,68.124,6.921l-1.767-80.737Z" fill="url(#e)"/><path d="M848.919,1325.571a9.913,9.913,0,0,1,10.434,11.45l-43.909,275.827a9.911,9.911,0,0,1-9.375,8.345l-439.336,18.363a9.913,9.913,0,0,1-10.318-9.492l-10.916-262a9.912,9.912,0,0,1,9.259-10.3Z" fill="#fff"/><path d="M813.842,1306.621a10.376,10.376,0,0,1,11.293,10.645l-8.941,299.123a10.377,10.377,0,0,1-9.938,10.057l-438.012,18.307a10.376,10.376,0,0,1-10.746-9.227l-30.4-274.841a10.376,10.376,0,0,1,9.391-11.475Z" fill="#e8e8ef"/><path d="M770.062,1291.377a12.825,12.825,0,0,1,14.96,11.416l29.6,309.781a12.824,12.824,0,0,1-12.23,14.033l-431.376,18.03a12.825,12.825,0,0,1-13.328-11.909l-18.018-254.921a12.826,12.826,0,0,1,10.6-13.54Z" fill="#f7e057"/><path d="M590.905,1308.192l-47.29-79.584s-98.875,84.7-128.778,202.506l52.443,32.95C488.8,1425.628,526.291,1374.458,590.905,1308.192Z" fill="#979aa0"/><path d="M487.476,1638.858a12.833,12.833,0,0,1-11.4-7.466c-5.364-11.647-15.894-33.857-21.4-41.028,0,0,6.065-2.976,16.814-.465s19.852-1.883,20.166-7.848l-50.26-21.539c-1.81-5.132-9.113-33.925,25.887-96.448l-52.443-32.95c-11.2,44.1-12.743,92.834,4.212,143.512,0,0,9.889,57.565,29.912,69.2s50.465-4.722,50.465-4.722Z" fill="url(#f)"/><path d="M696.587,1085.136s17.957,41.251,19.163,62.9,5.871,35.7-19.163,40.06-46.124-8.111-57.549-29.678c0,0-17.9-33.233-13.885-46.843S696.587,1085.136,696.587,1085.136Z" fill="url(#g)"/><path d="M647.593,1142.913h3.165s-13.04-26.747-1.583-31.446,56.843-13.954,66.635-30.058c9.44-15.525,1.021-35.579-11.575-41.191a1.685,1.685,0,0,0-2.144.791l-1.043,1.974a1.7,1.7,0,0,1-3.137-.321h0a1.693,1.693,0,0,0-3.048-.467c-3,4.816-11.114,12.647-32.883,16.665-30.889,5.7-51.309,18.2-51.812,39.55a1.7,1.7,0,0,1-2.632,1.394c-2.281-1.39-5.93-2.042-10.806,2.059-8.482,7.131-5.012,25.632,13.581,40.849a1.69,1.69,0,0,1-.08,2.726c-3.371,2.2-8.4,7.416,4.625,14.375,13.319,7.119,21.2,6.343,24.175,5.582a1.7,1.7,0,0,0,1.287-1.759l-1.168-18.918a1.7,1.7,0,0,1,1.7-1.805Z" fill="#333435"/><path d="M648.37,1146.871s-6.85-26.35-18.664-18.962,6.13,29.524,15.628,30.511Z" fill="url(#h)"/><path d="M931.115,1108.773,908.5,1064.961l29.06-76.349s20.045,10.02,11.612,27.809,1.025,37.867,2.071,45.359S961.786,1108.048,931.115,1108.773Z" fill="url(#i)"/><ellipse cx="187.365" cy="181.676" rx="187.365" ry="181.676" transform="translate(1389.435 374.774) rotate(-1.094)" fill="#ecc538"/><ellipse cx="181.135" cy="175.635" rx="181.135" ry="175.635" transform="translate(1395.777 380.697) rotate(-1.095)" fill="#f7e057"/><path d="M1413.316,564.845a2.222,2.222,0,0,1-2.215-2.083,160.282,160.282,0,0,1,.061-20.792,2.222,2.222,0,1,1,4.434.3,155.586,155.586,0,0,0-.06,20.211,2.222,2.222,0,0,1-2.079,2.356C1413.41,564.843,1413.362,564.845,1413.316,564.845Z" fill="#f7eba6"/><path d="M1423.383,498.968a2.221,2.221,0,0,1-2.074-3.015c22.393-58.575,76.019-99.35,139.947-106.412a176.763,176.763,0,0,1,30.664-.707,2.222,2.222,0,0,1-.286,4.434,171.725,171.725,0,0,0-29.891.69c-62.265,6.877-114.487,46.568-136.286,103.583A2.217,2.217,0,0,1,1423.383,498.968Z" fill="#f7eba6"/><ellipse cx="153.309" cy="148.654" rx="153.309" ry="148.654" transform="translate(1428.48 410.509) rotate(-1.094)" fill="#fff"/><ellipse cx="174.978" cy="185.3" rx="174.978" ry="185.3" transform="translate(1721.428 1288.882) rotate(-6.467)" fill="#ecc538"/><ellipse cx="169.16" cy="179.139" rx="169.16" ry="179.139" transform="translate(1727.904 1294.348) rotate(-6.467)" fill="#f7e057"/><path d="M1760.228,1464.362a2.221,2.221,0,0,1-2.215-2.081,178.321,178.321,0,0,1-.085-21.159,2.22,2.22,0,0,1,4.434.247,174.262,174.262,0,0,0,.085,20.63,2.222,2.222,0,0,1-2.076,2.358C1760.323,1464.36,1760.275,1464.362,1760.228,1464.362Z" fill="#f7eba6"/><path d="M1769.181,1397.287a2.221,2.221,0,0,1-2.1-2.946c20.532-59.572,70.424-100.79,130.207-107.566a151.131,151.131,0,0,1,28.715-.514,2.223,2.223,0,0,1,2.044,2.387,2.266,2.266,0,0,1-2.387,2.043,147.086,147.086,0,0,0-27.873.5c-58.062,6.582-106.536,46.664-126.506,104.6A2.221,2.221,0,0,1,1769.181,1397.287Z" fill="#f7eba6"/><ellipse cx="143.173" cy="151.619" rx="143.173" ry="151.619" transform="translate(1760.925 1322.231) rotate(-6.468)" fill="#fff"/><path d="M1941.463,1374.78l-.083-49.267h-44.85l.083,46.3a115.668,115.668,0,0,1-22.769,68.911l-59.078,79.643a24.151,24.151,0,0,0-4.752,14.386v.035a24.146,24.146,0,0,0,24.145,24.146h170.235a24.147,24.147,0,0,0,24.146-24.146h0a24.152,24.152,0,0,0-4.791-14.437l-61.213-82.068A106.209,106.209,0,0,1,1941.463,1374.78Z" fill="#c1e2dd"/><path d="M1834.159,1552.893a18.135,18.135,0,0,1-14.544-28.933l59.078-79.643a122.526,122.526,0,0,0,23.957-72.508l-.073-40.259h32.777l.073,43.24a112.967,112.967,0,0,0,22.27,67.1l61.213,82.068a18.11,18.11,0,0,1-14.516,28.937Z" fill="#fff" opacity="0.85"/><path d="M1942.719,1334.367h-47.453a6.942,6.942,0,0,1-6.942-6.942h0a6.942,6.942,0,0,1,6.569-6.932l47.453-2.551a6.941,6.941,0,0,1,7.315,6.932v2.551A6.942,6.942,0,0,1,1942.719,1334.367Z" fill="#c1e2dd"/><path d="M1819.615,1523.96a18.135,18.135,0,0,0,14.544,28.933h170.235a18.109,18.109,0,0,0,14.516-28.936l-27.337-36.651H1846.8Z" fill="#03566e"/><ellipse cx="208.788" cy="221.105" rx="208.788" ry="221.105" transform="translate(1654.036 725.863) rotate(-6.467)" fill="#ecc538"/><ellipse cx="201.846" cy="213.753" rx="201.846" ry="213.753" transform="matrix(0.994, -0.113, 0.113, 0.994, 1661.764, 732.384)" fill="#f7e057"/><path d="M1700.334,934.82a2.223,2.223,0,0,1-2.215-2.081,212.1,212.1,0,0,1-.1-25.2,2.221,2.221,0,0,1,4.435.247,207.438,207.438,0,0,0,.1,24.67,2.222,2.222,0,0,1-2.076,2.358C1700.43,934.818,1700.382,934.82,1700.334,934.82Z" fill="#f7eba6"/><path d="M1711.019,854.783a2.221,2.221,0,0,1-2.1-2.946c24.444-70.925,83.838-120,155.006-128.063a179.887,179.887,0,0,1,34.185-.612,2.222,2.222,0,1,1-.347,4.43,175.719,175.719,0,0,0-33.339.594c-69.448,7.874-127.423,55.808-151.3,125.1A2.221,2.221,0,0,1,1711.019,854.783Z" fill="#f7eba6"/><ellipse cx="170.838" cy="180.916" rx="170.838" ry="180.916" transform="translate(1701.166 765.654) rotate(-6.467)" fill="#fff"/><path d="M1999.348,852.189h-52.394V799.8a24.692,24.692,0,0,0-24.691-24.692h-73.472A24.692,24.692,0,0,0,1824.1,799.8v52.393h-52.394a24.692,24.692,0,0,0-24.691,24.692v73.471a24.691,24.691,0,0,0,24.691,24.691H1824.1v52.394a24.691,24.691,0,0,0,24.691,24.691h73.472a24.691,24.691,0,0,0,24.691-24.691V975.043h52.394a24.691,24.691,0,0,0,24.691-24.691V876.881A24.692,24.692,0,0,0,1999.348,852.189Z" fill="#c1e2dd"/><path d="M1848.792,1037.548a10.123,10.123,0,0,1-10.112-10.112V960.464h-66.974a10.123,10.123,0,0,1-10.111-10.112V876.881a10.122,10.122,0,0,1,10.111-10.112h66.974V799.8a10.123,10.123,0,0,1,10.112-10.112h73.471a10.123,10.123,0,0,1,10.111,10.112v66.972h66.974a10.122,10.122,0,0,1,10.111,10.112v73.471a10.123,10.123,0,0,1-10.111,10.112h-66.974v66.972a10.123,10.123,0,0,1-10.111,10.112Z" fill="#03566e"/></g><path d="M4561.764,1988.46c-25.932-59.841-59.842-37.9-67.82-35.905s-25.932,15.96-29.92-3.99c0,0-5.98-25.931,0-33.91a105.06,105.06,0,0,0-13.086-2.068c-2.574,34.764,5.6,54.956,14.832,62.823,16.426,14,21.9,18.008,32.852,28.006s9.064,25.939,7.209,33.9c-1.207,5.164-4.338,13.386-7.465,13.373-2.3,0-4.16-1.049-4.15-3.555a175.393,175.393,0,0,0,6.152-17.808c5.564-21.9-29.141-35.968-45.572-55.949-13.234-16.116-10.93-49.032-9.549-61.158a63.457,63.457,0,0,0-11.137.448,119.466,119.466,0,0,0,17.934,85.77c15.957,29.926,13.961,67.822-29.918,71.812-23.936-7.98-53.857,0-57.832,25.931v41.89h27.924V2114.13s2-27.926,25.932-7.976,55.852,31.915,89.762,13.96,79.8-71.806,53.855-131.646m-117.686,113.7c-4.406,0-7.975-1.793-7.975-3.99s3.586-3.989,7.975-3.989,7.979,1.793,7.979,3.989-3.586,3.99-7.979,3.99m1.994-19.945c-4.406,0-7.979-1.793-7.979-3.99s3.586-3.989,7.979-3.989,7.979,1.793,7.979,3.989-3.586,3.99-7.979,3.99m17.932,27.926c-4.4,0-7.975-1.794-7.975-3.99s3.586-3.99,7.975-3.99,7.98,1.794,7.98,3.99-3.586,3.99-7.98,3.99m0-17.955c-4.4,0-7.975-1.793-7.975-3.99s3.586-3.985,7.975-3.985,7.98,1.793,7.98,3.985-3.586,3.99-7.98,3.99m17.934,9.975c-4.406,0-7.979-1.793-7.979-3.99s3.584-3.989,7.979-3.989,7.979,1.793,7.979,3.989-3.586,3.99-7.979,3.99m3.99-13.965c-4.406,0-7.979-1.793-7.979-3.985s3.586-3.99,7.979-3.99,7.975,1.793,7.975,3.99-3.586,3.985-7.975,3.985m-12.016-27.729s12.691-10.212,17.855-13.472a4.58,4.58,0,0,0-.445,1.928,5.235,5.235,0,0,0,5.439,4.991,5.838,5.838,0,0,0,3.139-.9l-3.277,21.9Zm31.959,39.7c-4.406,0-7.979-1.793-7.979-3.99s3.586-3.99,7.979-3.99,7.98,1.794,7.98,3.99-3.586,3.99-7.98,3.99" transform="translate(-6372.031 8085.853)" fill="#31576d"/></g></svg>