<svg xmlns="http://www.w3.org/2000/svg" width="554.738" height="493.788" viewBox="0 0 554.738 493.788"><g transform="translate(-992.51 -257.076)"><path d="M1542.083,483.59c-16.164,77.391-68.335,151.1-127.445,195.641q-6.049,4.566-12.486,8.948c-56.73,38.726-133.534,65.862-205.424,62.385-40.719-1.962-79.848-13.753-112.887-38.819-35.868-27.213-59.264-68.567-73.482-112.47a384.023,384.023,0,0,1-15.7-72.832,300.314,300.314,0,0,1-2.025-44.074c1.391-48.462,15.454-97.852,52-130.474,50.719-45.263,116.968-29.469,178.642-29.114,42.76.262,82.708-12.888,121.82-28.913,34.956-14.31,70.082-26.735,107.757-14.465,28.389,9.256,50.085,28.4,65.353,52.295a163.11,163.11,0,0,1,13.151,25.266C1549.006,397.467,1550.969,441.092,1542.083,483.59Z" fill="#88b9fe"/><path d="M1372.283,486.226c-6.309,0-11.423,16.348-11.423,27.218s5.114,12.149,11.423,12.149,11.423-1.278,11.423-12.149S1378.592,486.226,1372.283,486.226Z" fill="#ffdc35"/><path d="M1326.1,468.8c-5.463-3.154-18.066,8.446-23.5,17.86s-1.645,13.078,3.819,16.232,10.531,4.6,15.967-4.809S1331.565,471.952,1326.1,468.8Z" fill="#ffdc35"/><path d="M1265.534,434.334c-9.414,5.436-7.963,10.5-4.809,15.967s6.818,9.254,16.232,3.818,21.014-18.038,17.86-23.5S1274.949,428.9,1265.534,434.334Z" fill="#ffdc35"/><path d="M1286.817,381.91c0-6.309-16.348-11.423-27.218-11.423s-12.148,5.114-12.148,11.423,1.277,11.423,12.148,11.423S1286.817,388.219,1286.817,381.91Z" fill="#ffdc35"/><path d="M1304.242,335.726c3.154-5.464-8.445-18.067-17.86-23.5s-13.077-1.645-16.232,3.818-4.6,10.532,4.809,15.967S1301.088,341.189,1304.242,335.726Z" fill="#ffdc35"/><path d="M1342.424,304.444c5.464-3.154,1.719-19.869-3.716-29.283s-10.5-7.964-15.967-4.809-9.254,6.818-3.818,16.232S1336.961,307.6,1342.424,304.444Z" fill="#ffdc35"/><path d="M1391.132,296.443c6.309,0,11.423-16.348,11.423-27.218s-5.114-12.149-11.423-12.149-11.422,1.278-11.422,12.149S1384.824,296.443,1391.132,296.443Z" fill="#ffdc35"/><path d="M1437.316,313.869c5.464,3.154,18.066-8.446,23.5-17.861s1.645-13.077-3.818-16.232-10.532-4.605-15.967,4.81S1431.853,310.714,1437.316,313.869Z" fill="#ffdc35"/><path d="M1497.881,348.333c9.414-5.435,7.963-10.5,4.809-15.966s-6.817-9.254-16.232-3.819-21.015,18.039-17.86,23.5S1488.467,353.769,1497.881,348.333Z" fill="#ffdc35"/><path d="M1503.818,389.335c-10.871,0-27.218,5.115-27.218,11.423s16.347,11.423,27.218,11.423,12.148-5.114,12.148-11.423S1514.688,389.335,1503.818,389.335Z" fill="#ffdc35"/><path d="M1488.459,450.659c-9.414-5.436-26.129-9.18-29.283-3.717s8.446,18.066,17.86,23.5,13.078,1.645,16.232-3.819S1497.873,456.094,1488.459,450.659Z" fill="#ffdc35"/><path d="M1420.991,478.225c-5.464,3.154-1.719,19.868,3.716,29.283s10.5,7.963,15.967,4.809,9.254-6.818,3.818-16.232S1426.454,475.07,1420.991,478.225Z" fill="#ffdc35"/><path d="M1381.707,312.935a78.4,78.4,0,1,0,78.4,78.4A78.487,78.487,0,0,0,1381.707,312.935Z" fill="#ffdc35"/><path d="M1200.916,589.152a45.645,45.645,0,0,1-12.548,6.769c-21.156,7.634-45.588,6.011-67.733,6.769-29.624,1-59.264-.016-88.857-1.329a195.615,195.615,0,0,1-21.419-2.086,384.023,384.023,0,0,1-15.7-72.832,300.314,300.314,0,0,1-2.025-44.074c9.427-1.545,19.039.093,26.688,7.031,27.786-72.786,139.932-34.863,120.723,38.665,1.994-7.634,25.158-11.049,31.649-11.127C1212.6,516.428,1230.015,566.683,1200.916,589.152Z" fill="#e3edff"/><path d="M1402.152,688.179c-56.73,38.726-133.534,65.862-205.424,62.385a25.558,25.558,0,0,1-2.318-12.934c.789-12.9,12.641-24.154,25.576-24.262-6.274-33.411,18.513-69.495,51.939-75.614s69.4,18.853,75.367,52.31C1363.7,679.942,1385.848,677.948,1402.152,688.179Z" fill="#e3edff"/><circle cx="4.015" cy="4.015" r="4.015" transform="translate(1116.208 663.753)" fill="#fff"/><path d="M1215.371,366.472a4.015,4.015,0,1,1-4.015-4.015A4.014,4.014,0,0,1,1215.371,366.472Z" fill="#fff"/><path d="M1385.723,650.038a2.008,2.008,0,1,1-2.007-2.008A2.008,2.008,0,0,1,1385.723,650.038Z" fill="#fff"/><path d="M1482.038,544.03a2.008,2.008,0,1,1-2.007-2.007A2.007,2.007,0,0,1,1482.038,544.03Z" fill="#fff"/><path d="M1163.35,444.267a2.008,2.008,0,1,1-2.007-2.008A2.007,2.007,0,0,1,1163.35,444.267Z" fill="#fff"/><path d="M1050.078,395.349a4.015,4.015,0,1,1-4.015-4.015A4.015,4.015,0,0,1,1050.078,395.349Z" fill="#fff"/><circle cx="4.015" cy="4.015" r="4.015" transform="translate(1282.802 564.195)" fill="#fff"/></g></svg>