<svg xmlns="http://www.w3.org/2000/svg" width="931.695" height="684.214" viewBox="0 0 931.695 684.214"><g transform="translate(3116.468 -65.377)"><g transform="translate(-298.865 -289.829)"><g transform="translate(-1429 218)"><g transform="translate(39 5)"><g transform="translate(-1474 -5)"><g transform="translate(0 0)"><g transform="translate(172.262 137.206)"><path d="M792.035,256.693c-48.951,2.22-97.9,3.039-146.851,3.453-24.476.15-48.952.338-73.427-.079s-48.95-1.076-73.426-1.634c-24.474-.675-48.95-.853-73.425-.8-12.239.011-24.476.138-36.713.284l-36.713.684c-24.474.486-48.95,1.126-73.427,1.463s-48.95.469-73.425.689l-2.946.026-1.209-2.772L191.3,236.983c-3.05-7.012-6.138-14.008-9.121-21.049l-9.018-21.093q-4.538-10.534-8.933-21.129l-.8-1.927.8-1.836c6.116-14.017,12.134-28.076,18.332-42.06s12.315-28,18.588-41.95l1.054-2.345,2.426.046,30.809.58,30.81.724q15.4.38,30.81.916c10.27.34,20.539.655,30.809,1.109a.456.456,0,0,1,0,.91c-10.269.452-20.539.769-30.809,1.109q-15.407.542-30.81.916l-30.81.724-30.809.579,3.48-2.3c-5.724,14.185-11.589,28.31-17.4,42.457s-11.776,28.229-17.656,42.348V169.95q4.595,10.511,9.062,21.075l8.975,21.111c3.015,7.027,5.923,14.1,8.872,21.155l8.822,21.176-4.155-2.746c24.475.219,48.951.358,73.425.689s48.952.977,73.427,1.461l36.713.686c12.237.146,24.474.272,36.713.282,24.474.056,48.95-.121,73.425-.8,24.476-.56,48.951-1.209,73.426-1.634s48.951-.229,73.427-.079c48.95.414,97.9,1.233,146.851,3.453a.456.456,0,0,1,0,.91Z" transform="translate(-163.427 -83.594)" fill="#00556e"/><path d="M484.419,198.3q36.712-1.443,73.425-2.115,36.714-.762,73.426-1.1,18.356-.232,36.713-.278c12.237-.038,24.475-.173,36.713-.13q36.712-.014,73.425.789l2.242.048.787,1.952,17.169,42.556,8.576,21.281c2.831,7.1,5.8,14.152,8.7,21.229l.27.658-.27.608q-4.658,10.482-9.16,21.032c-3.012,7.029-6.091,14.028-9.047,21.079l-8.933,21.129-8.815,21.181-.411.985-1.108.017L704.7,370.406c-24.476.457-48.95.916-73.427,1.12l-73.426.554c-24.474.159-48.951.4-73.425.354-48.951.045-97.9-.4-146.852-1.073-24.476-.3-48.952-.857-73.427-1.343l-18.356-.373-18.357-.505c-12.237-.338-24.474-.655-36.713-1.109a.455.455,0,0,1,0-.91c12.239-.454,24.476-.769,36.713-1.109l18.357-.505,18.356-.372c24.474-.487,48.95-1.048,73.427-1.344,48.951-.674,97.9-1.118,146.852-1.071,24.474-.046,48.951.193,73.425.352l73.426.555c24.476.2,48.951.661,73.427,1.12l73.425,1.18-1.517,1,9.179-21.025,9.062-21.074c3.042-7.015,5.959-14.084,8.945-21.123s5.941-14.093,8.834-21.172V283.8c-3.1-6.989-6.129-14.011-9.3-20.973L793.911,241.9l-18.817-41.852,3.028,2q-36.712.8-73.425.787c-12.239.044-24.476-.093-36.713-.129s-24.476-.124-36.713-.279q-36.712-.341-73.426-1.1-36.712-.728-73.425-2.116a.456.456,0,0,1,0-.91Z" transform="translate(-149.542 -26.152)" fill="#00556e"/><path d="M791.88,479.548c-48.95,1.884-97.9,2.7-146.852,3.218q-18.358.23-36.713.278c-12.239.037-24.476.173-36.713.129q-36.714.016-73.426-.787l-73.425-1.446c-24.476-.35-48.951-.549-73.427-.437-24.474.015-48.95.372-73.426.787l-73.425,1.288-2.245.039-.962-2.157q-9.339-20.957-18.5-41.987l-18.3-42.072-.731-1.682.731-1.751,17.7-42.328,8.866-21.158L200,308.372l1.252-2.94,3.218-.012c24.474-.093,48.951.147,73.425.264l36.713.352,36.713.456c24.476.3,48.951.856,73.427,1.343l18.356.372,18.356.505c12.239.34,24.476.657,36.713,1.111a.455.455,0,0,1,.438.472.46.46,0,0,1-.438.439c-12.237.452-24.475.769-36.713,1.107l-18.356.507-18.356.372c-24.476.487-48.951,1.047-73.427,1.343l-36.713.457-36.713.352c-24.474.117-48.951.357-73.425.264l4.468-2.952-9.015,21.094L190.8,354.322,172.511,396.4v-3.433L190.2,435.3q8.809,21.182,17.482,42.421l-3.206-2.118,73.425,1.288c24.476.416,48.952.772,73.426.788,24.476.112,48.951-.087,73.427-.437l73.425-1.446q36.714-.8,73.426-.787c12.237-.044,24.475.093,36.713.129s24.474.124,36.713.278c48.951.516,97.9,1.333,146.852,3.218a.456.456,0,0,1,0,.912Z" transform="translate(-163.272 31.11)" fill="#00556e"/><path d="M384.3,421.034c24.474-1.335,48.951-2.074,73.425-2.626,24.476-.581,48.952-.827,73.426-.965s48.951.184,73.427.924c24.474.672,48.95,1.525,73.425,1.674l.966.006.367.875c2.961,7.05,5.894,14.112,8.951,21.122,3.024,7.023,6.047,14.046,9.157,21.032,3.062,7.007,6.207,13.98,9.374,20.943l9.464,20.9.414.915-.414,1.041c-5.662,14.211-11.228,28.463-16.969,42.641-5.7,14.193-11.549,28.327-17.414,42.451l-1.058,2.548-2.84.027-36.713.352c-12.237.1-24.475.294-36.712.259-24.476.1-48.95-.137-73.427-.4-48.951-.68-97.9-1.705-146.851-3.99a.456.456,0,0,1,0-.911c48.951-2.283,97.9-3.309,146.851-3.989,24.476-.269,48.951-.508,73.427-.4,12.237-.035,24.474.162,36.712.257l36.713.354-3.9,2.575c6.131-14.011,12.281-28.014,18.574-41.956,6.255-13.958,12.685-27.841,19.019-41.767v1.954l-8.529-21.3c-2.831-7.1-5.685-14.2-8.621-21.261-2.887-7.082-5.861-14.126-8.836-21.172-2.94-7.059-6.006-14.064-9.042-21.082l1.332.881c-24.474.149-48.951,1-73.425,1.672q-36.714,1.113-73.427.924c-24.474-.137-48.951-.382-73.426-.964-24.474-.552-48.951-1.291-73.425-2.628a.455.455,0,0,1-.431-.479A.46.46,0,0,1,384.3,421.034Z" transform="translate(-49.427 89.035)" fill="#00556e"/></g><g transform="translate(229.488 190.081)"><path d="M219.072,201.446a17.214,17.214,0,0,1-9.957-2.8,15.518,15.518,0,0,1-5.99-7.44,28.029,28.029,0,0,1-1.978-11V149.588c0-6.58,1.476-11.761,4.492-15.5,2.974-3.828,7.466-5.7,13.433-5.7,5.926,0,10.394,1.952,13.392,5.7q4.5,5.664,4.492,15.5V180.21c0,6.428-1.534,11.621-4.573,15.444C229.32,199.518,224.871,201.446,219.072,201.446Zm0-8.426q7.649,0,7.654-12.809V149.588c0-1.428-.065-2.734-.147-3.84a16.915,16.915,0,0,0-.665-3.433,9.981,9.981,0,0,0-1.329-2.925,6.274,6.274,0,0,0-2.218-1.881,7.244,7.244,0,0,0-3.3-.693,7.506,7.506,0,0,0-3.353.693,6.082,6.082,0,0,0-2.165,1.881,10.375,10.375,0,0,0-1.376,2.925,23.052,23.052,0,0,0-.631,3.433c-.1,1.106-.185,2.412-.185,3.84V180.21a28.914,28.914,0,0,0,.361,4.693,17,17,0,0,0,1.171,4.008,6.8,6.8,0,0,0,2.352,3.024A6.553,6.553,0,0,0,219.072,193.02Z" transform="translate(-201.147 -128.388)" fill="#566775"/><g transform="translate(42.22 0.74)"><path d="M236.616,200.424V144.232h-7.64v-7.669c5.174-1.842,8.549-4.416,10.207-7.687h7.693v71.548Z" transform="translate(-228.976 -128.876)" fill="#566775"/></g></g><g transform="translate(720.281 362.166)"><g transform="translate(0 0)"><path d="M541.989,306.954a17.293,17.293,0,0,1-9.625-2.669,16.1,16.1,0,0,1-5.847-7.219,27.9,27.9,0,0,1-1.871-10.594V256.822c0-6.308,1.478-11.326,4.34-14.948,2.863-3.641,7.222-5.453,13-5.453,5.724,0,10.058,1.812,12.933,5.453,2.911,3.672,4.357,8.64,4.357,14.948v29.651c0,6.2-1.458,11.151-4.427,14.848C551.935,305.069,547.594,306.954,541.989,306.954Zm0-8.138c4.891,0,7.332-4.131,7.332-12.343V256.822c0-1.314,0-2.635-.062-3.7a16.6,16.6,0,0,0-.659-3.312,8.2,8.2,0,0,0-1.267-2.772,5.642,5.642,0,0,0-2.178-1.825,6.536,6.536,0,0,0-3.166-.7,6.648,6.648,0,0,0-3.223.7,5.348,5.348,0,0,0-2.136,1.825,7.906,7.906,0,0,0-1.279,2.772,14.686,14.686,0,0,0-.627,3.312,31.989,31.989,0,0,0-.156,3.7v29.651a37.088,37.088,0,0,0,.317,4.477A16.1,16.1,0,0,0,536,294.858a7.541,7.541,0,0,0,2.327,2.94A6.244,6.244,0,0,0,541.989,298.816Z" transform="translate(-524.646 -236.421)" fill="#566775"/><g transform="translate(41.108)"><path d="M551.742,306.235v-9.9l17.31-24.664c.155-.285.641-.918,1.349-1.872.669-.969,1.154-1.625,1.384-2.01.2-.323.64-.931,1.211-1.824a21.338,21.338,0,0,0,1.192-2.034c.212-.478.516-1.142.863-2.041a14.173,14.173,0,0,0,.8-2.333c.13-.669.311-1.47.416-2.406a19.6,19.6,0,0,0,.175-2.76,12.467,12.467,0,0,0-1.887-7,6.216,6.216,0,0,0-5.5-2.877,6.657,6.657,0,0,0-3.63,1.029,7.228,7.228,0,0,0-2.3,2.88,16.817,16.817,0,0,0-1.148,3.938,28.167,28.167,0,0,0-.354,4.459v2.524h-9.86v-2.524c0-6.427,1.335-11.444,4.148-15.055,2.787-3.585,7.146-5.346,13.149-5.346,5.651,0,9.88,1.544,12.867,4.727,2.942,3.119,4.419,7.554,4.419,13.243a29.864,29.864,0,0,1-.558,5.929,22.5,22.5,0,0,1-1.745,5.34,37.783,37.783,0,0,1-2.272,4.212c-.671,1.117-1.634,2.532-2.831,4.207l-17.317,22.256h24.723v9.9Z" transform="translate(-551.742 -236.421)" fill="#566775"/></g></g></g><g transform="translate(230.907 534.251)"><path d="M218.328,419.206a15.611,15.611,0,0,1-9.031-2.532,15.05,15.05,0,0,1-5.489-6.721A26.715,26.715,0,0,1,202.082,400V372.2c0-5.947,1.359-10.583,4-13.988,2.77-3.426,6.811-5.14,12.243-5.14,5.352,0,9.409,1.714,12.1,5.14,2.758,3.4,4.134,8.139,4.134,13.988V400c0,5.794-1.415,10.474-4.184,13.933Q226.226,419.205,218.328,419.206Zm0-7.584c4.611,0,6.936-3.873,6.936-11.62V372.2c0-1.309-.067-2.421-.126-3.426a19.494,19.494,0,0,0-.613-3.154,8.888,8.888,0,0,0-1.233-2.608,5.539,5.539,0,0,0-1.971-1.723,6.616,6.616,0,0,0-2.993-.611,6.713,6.713,0,0,0-3.036.611,5.545,5.545,0,0,0-2,1.723,8.288,8.288,0,0,0-1.191,2.608,15.426,15.426,0,0,0-.628,3.154c-.088,1-.1,2.116-.1,3.426V400a25.126,25.126,0,0,0,.284,4.212,16.671,16.671,0,0,0,1.03,3.6,5.838,5.838,0,0,0,2.2,2.783A5.684,5.684,0,0,0,218.328,411.621Z" transform="translate(-202.082 -353.072)" fill="#566775"/><g transform="translate(38.74)"><path d="M243.85,419.206c-5.28,0-9.261-1.484-12.089-4.474-2.764-2.924-4.145-7.049-4.145-12.427V400H236.9c0,1.44.017,2.7.126,3.732a19.721,19.721,0,0,0,.54,3.109,7.281,7.281,0,0,0,1.1,2.564,5.776,5.776,0,0,0,2.037,1.55,6.821,6.821,0,0,0,3.139.665,6.53,6.53,0,0,0,3.092-.665,5.714,5.714,0,0,0,2.059-1.55,7.562,7.562,0,0,0,1.135-2.564,19.71,19.71,0,0,0,.535-3.109c.1-1.036.13-2.293.13-3.732,0-3.644-.748-6.557-2.151-8.576-1.435-1.975-3.832-2.968-7.12-2.968v-9.274c3.364,0,5.756-.676,7.17-2.084,1.409-1.375,2.1-3.8,2.1-7.2,0-3.034-.517-5.359-1.544-6.886-.994-1.581-2.817-2.335-5.407-2.335a7.275,7.275,0,0,0-3.139.611,5.756,5.756,0,0,0-2.037,1.55,7.642,7.642,0,0,0-1.1,2.608,18.277,18.277,0,0,0-.54,3.077,36.3,36.3,0,0,0-.126,3.676h-9.288v-2.3c0-5.283,1.381-9.362,4.2-12.384q4.153-4.451,12.029-4.442c5.271,0,9.279,1.475,12.064,4.421q4.135,4.417,4.128,12.406a15.456,15.456,0,0,1-2.441,9.022,12.339,12.339,0,0,1-6.8,4.932,12.219,12.219,0,0,1,6.926,5.641A21.391,21.391,0,0,1,260.043,400c0,6.11-1.267,10.791-3.861,14.152C253.528,417.569,249.436,419.206,243.85,419.206Z" transform="translate(-227.617 -353.072)" fill="#566775"/></g></g><g transform="translate(716.493 694.385)"><path d="M539.622,531.991a17.111,17.111,0,0,1-9.676-2.608,15.929,15.929,0,0,1-5.882-7.277,26.761,26.761,0,0,1-1.914-10.691V481.5c0-6.424,1.476-11.471,4.392-15.115q4.335-5.487,13.081-5.474c5.757,0,10.127,1.816,13.043,5.522,2.928,3.668,4.406,8.714,4.406,15.067v29.913c0,6.241-1.477,11.265-4.478,15.007C549.626,530.151,545.282,531.991,539.622,531.991Zm0-8.143c4.978,0,7.478-4.169,7.478-12.434V481.5a32.826,32.826,0,0,0-.17-3.682,15.588,15.588,0,0,0-.636-3.388,9.388,9.388,0,0,0-1.281-2.816,5.968,5.968,0,0,0-2.122-1.816,8.233,8.233,0,0,0-6.516,0,5.368,5.368,0,0,0-2.136,1.816,8.615,8.615,0,0,0-1.329,2.816,14.23,14.23,0,0,0-.561,3.388,25.406,25.406,0,0,0-.219,3.682v29.913a26.02,26.02,0,0,0,.366,4.536,15.309,15.309,0,0,0,1.073,3.9,7.043,7.043,0,0,0,2.344,2.914A6.17,6.17,0,0,0,539.622,523.849Z" transform="translate(-522.149 -460.912)" fill="#566775"/><g transform="translate(41.9 0.646)"><path d="M569.716,531.125V513.2H549.767V502.138l17.424-40.8h12.445v42.447h7.724V513.2h-7.724v17.93Zm-10.005-27.34h10.005v-30Z" transform="translate(-549.767 -461.338)" fill="#566775"/></g></g><text transform="translate(336.335 212.521)" fill="#566775" font-size="28" font-family="UTM-Neo-Sans-Intel, UTM Neo Sans Intel"><tspan x="0" y="0">Hiệu quả điều trị</tspan><tspan x="0" y="38">Bệnh lý Tiêu hoá - Gan - Mật trên 95%</tspan></text><text transform="translate(683.559 383.437)" fill="#566775" font-size="28" font-family="UTM-Neo-Sans-Intel, UTM Neo Sans Intel"><tspan x="-369.469" y="0">Hiệu quả tầm soát ung thư sớm</tspan><tspan x="-289.27" y="38">Ống tiêu hoá 95% - 98%</tspan></text><text transform="translate(680.425 700.978)" fill="#566775" font-size="28" font-family="UTM-Neo-Sans-Intel, UTM Neo Sans Intel"><tspan x="-253.244" y="0">Kết quả Cận lâm sàng</tspan><tspan x="-525.93" y="38">(Xét nghiệm, Siêu âm, X-Quang, Điện tâm đồ)</tspan><tspan x="-249.348" y="76">chính xác 95% - 98%</tspan></text><text transform="translate(336.335 551.91)" fill="#566775" font-size="28" font-family="UTM-Neo-Sans-Intel, UTM Neo Sans Intel"><tspan x="0" y="0">Chẩn đoán chính xác tổn thương qua</tspan><tspan x="0" y="38">Nội soi trên 98%</tspan></text></g><path d="M79.936,0H38.007A37.094,37.094,0,0,0,1.11,37.206V81.144c0,10.553,14.674,13.169,18.215,3a16.839,16.839,0,0,0,12.562,5.668h1.769A10.219,10.219,0,0,0,43.863,79.608V63.247a19.368,19.368,0,0,0,9.668-5.008A25.751,25.751,0,0,0,59.975,51.3a7.6,7.6,0,0,1,1.781,4.895V86.977a2.838,2.838,0,1,0,5.676,0V56.19a13.282,13.282,0,0,0-4.586-10.041c3.543-7.323,5.739-15.461,10.1-18.418,3.258-2.212,7.772-4.162,11.718-5.983C95.727,16.639,92.053,0,79.936,0ZM38.188,79.607a4.537,4.537,0,0,1-4.532,4.532H31.888a11.131,11.131,0,0,1-8.9-4.475l-1.43-1.925C26.544,64.023,29.2,64.445,38.188,63.924ZM82.279,16.6c-4.211,1.943-8.852,3.946-12.527,6.44-6.016,4.083-8.212,12.676-11.89,20.382a13.268,13.268,0,0,0-3.744-.54,7.681,7.681,0,0,1-6.867-4.3L45.66,35.308a11.084,11.084,0,0,0,2.7-3.994c1.91-4.872,4.911-8.15,9.175-10.021a2.838,2.838,0,0,0-2.28-5.2c-5.63,2.47-9.727,6.893-12.179,13.147a5.344,5.344,0,0,1-2.3,2.691c-4.455,2.328-3.336-2.169-18.808,3.05a2.838,2.838,0,0,0,.907,5.528c1.6,0,8.136-3.222,13.316-2.342a11.189,11.189,0,0,0,4.481-.155l1.483,3.05a13.391,13.391,0,0,0,11.971,7.49,7.7,7.7,0,0,1,.836.047,20.541,20.541,0,0,1-5.218,5.413c-8.258,8.024-19.72.342-27.5,9.869-3.822,4.682-6.121,12.214-8.309,18.5a3.667,3.667,0,0,1-7.145-1.238V37.206A31.412,31.412,0,0,1,38.007,5.676H79.936c6.115,0,7.825,8.389,2.343,10.92Z" transform="translate(45.286 178.054)" fill="#00556e"/><path d="M54.49,94.141H37.163a2.9,2.9,0,0,1-2.9-2.9V63.266c0-15.2,21.23-17.067,30.138-6.444a8.1,8.1,0,0,1,4.868-.53,8.426,8.426,0,0,1,1.7-4.536,12,12,0,0,1-1-13.28,11.323,11.323,0,0,1-1.649-6.226,10.785,10.785,0,0,1-1.252.113c-2.463,2.5-5.75,3.371-9.8,2.607-5.285,3.807-10.516,3.772-15.175.292-4.594,2.226-8.994,1.771-12.7-1.308a11.154,11.154,0,0,1-3.314.755,7.518,7.518,0,0,1-.689,4.109,7.68,7.68,0,0,1,1.446,10.028c5.074,5.917,3.387,13.013-2.737,17.535a82.542,82.542,0,0,1,.867,14.154,9.35,9.35,0,0,1-18.7.083,80.347,80.347,0,0,0-.9-13.38c-6.3-3.08-6.451-11.672-3.109-17.779C-.03,46.511-.538,41.469,1.872,38.346c-2.427-4.184-2.7-10.814.392-14.752C-1.186,17.186.671,8.894,9.941,4.022q.073-.039.148-.073C20.926-.982,30.648,3.6,34.224,13.169a9.435,9.435,0,0,1,9.307,2.519,11.486,11.486,0,0,1,10.387-.2A7.585,7.585,0,0,1,62.953,12.6,8.7,8.7,0,0,1,72.01,7.21C74.132,2.794,80.408.939,85.191,2a8.383,8.383,0,0,1,5.9,4.24c3.313,7.6,2.331,14.8-2.23,18.7a10.324,10.324,0,0,1,.218,6.982c1.736,2.13,2.743,5.379.82,10.191,2.15,3.21,2.648,7.559,1.481,12.968.752,5.263.961,11.458-2.78,15.429.328,5.4-6.4,9.29-12.214,7.33a12.284,12.284,0,0,1-13.264.825,8.183,8.183,0,0,1-5.733,1.169v11.4A2.9,2.9,0,0,1,54.49,94.141Zm-14.426-5.8H51.589V75.872a2.9,2.9,0,0,1,4.188-2.6c3.441,1.705,4.432.481,4.965-.176a2.9,2.9,0,0,1,4.346-.184c2.138,2.225,6.544,1.936,8.559-.4a2.9,2.9,0,0,1,3.728-.57c2.672,1.661,5.778-.386,5.382-1.248a2.9,2.9,0,0,1,.946-3.567c2.266-1.625,2.84-5.238,1.86-11.715a2.9,2.9,0,0,1,.043-1.093c1.07-4.583.679-7.863-1.161-9.748a2.9,2.9,0,0,1-.51-3.34c2.271-4.47.744-5.672.01-6.25a2.9,2.9,0,0,1-.886-3.388c1.307-3.158.567-4.588-.33-5.57a2.9,2.9,0,0,1,.952-4.6c4.523-2.036,4.114-8.1,2.168-12.682-1.641-2.406-8.874-1-8.757,1.733a2.9,2.9,0,0,1-3.761,2.893c-3.277-1.021-4.918-.236-5.857,3.915A2.9,2.9,0,0,1,63.1,19.093c-1.487-.94-2.7-1.332-3.405-1.1-.728.235-1.5,1.276-2.164,2.931a2.9,2.9,0,0,1-4.927.761c-1.633-1.979-5.392-2.2-7.9.235a2.9,2.9,0,0,1-4.783-1.2c-.613-1.916-3.276-2.944-5.954-1.15a2.9,2.9,0,0,1-4.456-1.832C25.576-1.6-.759,11.181,8.3,22.227a2.9,2.9,0,0,1-.82,4.367c-2.5,1.409-2.034,8.194.292,9.9a2.9,2.9,0,0,1-.888,5.12c-.17.051-.622.185-.764,1.251A4.135,4.135,0,0,0,7,46.076a2.9,2.9,0,0,1,1.394,4.6c-2.756,3.4-3.962,10.46.209,11.609a2.9,2.9,0,0,1,2.015,1.987c.916,3.15,1.389,8.483,1.447,16.3a3.55,3.55,0,0,0,7.1-.031c0-2.75-.017-11.12-1.13-14.574a2.9,2.9,0,0,1,1.312-3.4c2.747-1.583,4.491-3.782,4.666-5.881.154-1.852-.9-3.723-3.13-5.561a2.9,2.9,0,0,1,.3-4.694c1.752-1.1,1.386-3.332-.979-3.92a2.9,2.9,0,0,1-.967-5.189,2.224,2.224,0,0,0,1.082-1.6,4.575,4.575,0,0,0-1.708-3.2,2.9,2.9,0,0,1,3.486-4.579,5.623,5.623,0,0,0,6.326.032,2.9,2.9,0,0,1,3.66.532c2.61,2.886,5.156,3.116,8.788.8a2.9,2.9,0,0,1,3.562.344c3.376,3.217,6.361,3.2,10.3-.051a2.9,2.9,0,0,1,2.6-.563c3.529.956,5,.15,6.119-1.352a2.9,2.9,0,0,1,2.626-1.151,5.2,5.2,0,0,0,4.088-1.326A2.9,2.9,0,0,1,74.8,28.291c-.544,1.76-1.553,6.053.831,7.9a2.9,2.9,0,0,1-.121,4.672c-1.8,1.257-2.058,6.248,1.476,8.709a2.9,2.9,0,0,1-.45,5.018c-.709.324-2.368,1.084-.945,5.86a2.9,2.9,0,0,1-4.617,3.072c-2.943-2.41-4.295-1.62-5.427-.6a2.9,2.9,0,0,1-4.477-.755c-4.481-8.109-21-8.933-21,1.1V88.34Z" transform="translate(885.041 349.098)" fill="#00556e"/><g transform="translate(46.397 514.707)"><path d="M50.633,109.022a3.171,3.171,0,0,1-3.172-3.172c0-4.167,0-9.874,5.04-13.89a3.173,3.173,0,0,1,4.727.9c2.727,4.745,13.64,7.43,25.377,6.238,34.159-3.45,48.894-29.119,48.445-46.244-.365-13.945-7.76-21.028-14.56-23.009a14.058,14.058,0,0,0-16.044,5.738A3.571,3.571,0,0,1,95.96,37c-4.677-2.078-4-18.768-3.1-22.44a3.171,3.171,0,1,1,6.158,1.519c-.723,2.932-.615,8.1-.215,11.829a20.478,20.478,0,0,1,19.457-4.155c8.541,2.485,18.673,11.556,19.129,28.935.6,22.846-18.18,49.089-54.152,52.723-10.384,1.05-22.361-.519-28.668-5.987a17.507,17.507,0,0,0-.768,6.43A3.171,3.171,0,0,1,50.633,109.022Zm0,0" transform="translate(-38.271 -9.888)" fill="#00556e"/><path d="M3.172,250.692A3.171,3.171,0,0,1,0,247.522c0-8.2,2.4-16.4,5.881-20.613-1.374-8.633,3.286-16,12.489-19.483C30.1,202.992,34.443,194.6,35.987,189.995A3.172,3.172,0,1,1,42,192.012c-1.9,5.672-7.209,15.987-21.389,21.347-3.2,1.213-10.413,4.983-8.214,13.783a3.172,3.172,0,0,1-1.048,3.208c-2.417,2.009-5.005,9.387-5.005,17.17A3.176,3.176,0,0,1,3.172,250.692Zm0,0" transform="translate(0 -151.559)" fill="#00556e"/><path d="M248.226,65.418a3.17,3.17,0,0,1-2.677-1.467c-8.777-13.749-12.36-30.2-10.651-48.9a3.173,3.173,0,1,1,6.32.578c-1.6,17.508,1.564,32.2,9.678,44.912a3.174,3.174,0,0,1-2.671,4.88Zm0,0" transform="translate(-189.083 -9.907)" fill="#00556e"/><path d="M358.18,134.732a3.176,3.176,0,0,1-3.1-3.851c.574-2.622-1.165-4.683-2.984-5.732-1.638-.947-4.15-1.507-5.839.031a3.173,3.173,0,1,1-4.269-4.695c3.475-3.158,8.69-3.487,13.285-.827,4.723,2.73,7.081,7.669,6.007,12.58A3.178,3.178,0,0,1,358.18,134.732Zm0,0" transform="translate(-274.932 -95.143)" fill="#00556e"/><path d="M314.131,295.555a4.29,4.29,0,0,1-3.041-7.321,4.456,4.456,0,0,1,6.083,0,4.337,4.337,0,0,1,1.252,3.025,4.385,4.385,0,0,1-1.252,3.041A4.306,4.306,0,0,1,314.131,295.555Zm0,0" transform="translate(-249.845 -231.555)" fill="#00556e"/><path d="M349.446,340.337a3.174,3.174,0,0,1-2.56-1.3l-3.729-5.076a3.173,3.173,0,1,1,5.116-3.754L352,335.287a3.173,3.173,0,0,1-2.556,5.05Zm0,0" transform="translate(-276.217 -265.326)" fill="#00556e"/><path d="M372.538,307.978a3.16,3.16,0,0,1-1.335-.3l-4.494-2.089a3.172,3.172,0,0,1,2.674-5.753l4.493,2.09a3.174,3.174,0,0,1-1.339,6.051Zm0,0" transform="translate(-294.226 -241.641)" fill="#00556e"/><path d="M311.655,352.711a3.175,3.175,0,0,1-3.142-2.756l-.649-4.912a3.172,3.172,0,1,1,6.289-.832l.65,4.912a3.172,3.172,0,0,1-2.729,3.561A3.6,3.6,0,0,1,311.655,352.711Zm0,0" transform="translate(-248.232 -275.438)" fill="#00556e"/><path d="M24.952,6.843H3.172A3.171,3.171,0,1,1,3.172.5h21.78a3.171,3.171,0,1,1,0,6.343Zm0,0" transform="translate(0 -0.5)" fill="#00556e"/><path d="M24.952,53.57H3.172a3.172,3.172,0,1,1,0-6.343h21.78a3.172,3.172,0,1,1,0,6.343Zm0,0" transform="translate(0 -38.179)" fill="#00556e"/><path d="M16.791,100.321H3.172a3.172,3.172,0,0,1,0-6.344H16.794a3.172,3.172,0,1,1,0,6.344Zm0,0" transform="translate(0 -75.877)" fill="#00556e"/><path d="M135.165,43.657a3.162,3.162,0,0,1-1.574-.417L119.16,34.995a3.173,3.173,0,1,1,3.148-5.509l9.214,5.263c-.5-5.87-1.029-13.764.035-19.967a3.172,3.172,0,1,1,6.253,1.071c-1.044,6.112-.3,14.642.2,20.287.153,1.746.28,3.2.323,4.208a3.173,3.173,0,0,1-3.17,3.31Zm0,0" transform="translate(-94.799 -9.888)" fill="#00556e"/></g><g transform="translate(885.04 679.936)"><path d="M2.977,16.382A2.977,2.977,0,0,1,0,13.406V8.192A8.2,8.2,0,0,1,8.193,0h5.216a2.977,2.977,0,1,1,0,5.953H8.193A2.241,2.241,0,0,0,5.955,8.192V13.4A2.977,2.977,0,0,1,2.977,16.382Zm0,0" fill="#00556e"/><path d="M13.409,438.226H8.193A8.2,8.2,0,0,1,0,430.034v-5.213a2.977,2.977,0,1,1,5.955,0v5.213a2.241,2.241,0,0,0,2.238,2.238h5.216a2.977,2.977,0,1,1,0,5.953Zm0,0" transform="translate(0 -345.178)" fill="#00556e"/><path d="M435.234,16.382a2.976,2.976,0,0,1-2.977-2.977V8.192a2.242,2.242,0,0,0-2.239-2.238H424.8A2.977,2.977,0,1,1,424.8,0h5.214a8.2,8.2,0,0,1,8.194,8.192V13.4A2.978,2.978,0,0,1,435.234,16.382Zm0,0" transform="translate(-345.162)" fill="#00556e"/><path d="M430.017,438.226H424.8a2.977,2.977,0,1,1,0-5.953h5.214a2.242,2.242,0,0,0,2.239-2.238v-5.213a2.978,2.978,0,0,1,5.956,0v5.213A8.2,8.2,0,0,1,430.017,438.226Zm0,0" transform="translate(-345.162 -345.178)" fill="#00556e"/><path d="M172.7,485.18H132.786a2.977,2.977,0,1,1,0-5.953H172.7a2.977,2.977,0,1,1,0,5.953Zm0,0" transform="translate(-106.217 -392.132)" fill="#00556e"/><path d="M482.2,175.674a2.976,2.976,0,0,1-2.977-2.977v-39.91a2.978,2.978,0,0,1,5.956,0V172.7A2.98,2.98,0,0,1,482.2,175.674Zm0,0" transform="translate(-392.132 -106.217)" fill="#00556e"/><path d="M2.977,175.674A2.977,2.977,0,0,1,0,172.7V132.786a2.977,2.977,0,0,1,5.955,0V172.7A2.976,2.976,0,0,1,2.977,175.674Zm0,0" transform="translate(0 -106.217)" fill="#00556e"/><path d="M81.213,320.086c-5.6,0-10.766-4.64-13.561-12.221a2.977,2.977,0,1,1,5.587-2.059c2.171,5.885,5.635,8.4,8.14,8.322,6.182-.243,10.706-8.832,14.341-15.732,1.215-2.308,2.363-4.485,3.515-6.256a2.978,2.978,0,0,1,4.994,0c1.15,1.771,2.3,3.948,3.513,6.256,3.635,6.9,8.159,15.488,14.341,15.732,2.616.081,6.223-2.622,8.366-8.953a2.977,2.977,0,1,1,5.639,1.91c-2.75,8.129-8.361,13.2-14.238,12.994-9.614-.379-15.026-10.651-19.374-18.907-.251-.474-.5-.946-.743-1.4-.244.459-.491.931-.742,1.4-4.348,8.254-9.759,18.527-19.374,18.907C81.481,320.083,81.347,320.086,81.213,320.086Zm0,0" transform="translate(-55.206 -237.938)" fill="#00556e"/><path d="M110.7,85.115h-.023c-9.463-.069-15.106-2.027-17.253-5.987-1.563-2.882-1.074-6.345,1.455-10.292A2.978,2.978,0,1,1,99.9,72.049c-1.216,1.9-1.666,3.445-1.235,4.24.253.466,2.023,2.8,12.062,2.87a2.977,2.977,0,0,1-.021,5.955Zm0,0" transform="translate(-75.718 -55.204)" fill="#00556e"/><path d="M82.006,152.891c-9.754,0-14.208-2.823-16.238-5.42a9.047,9.047,0,0,1-1.292-8.841A2.978,2.978,0,0,1,70.1,140.6a3.076,3.076,0,0,0,.359,3.207c.76.973,4.213,4.053,16.727,2.874a2.978,2.978,0,1,1,.558,5.929C85.653,152.8,83.744,152.891,82.006,152.891Zm0,0" transform="translate(-52.266 -111.8)" fill="#00556e"/><path d="M68.458,224.454c-4.771,0-9.216-.9-12.2-3.474a10.1,10.1,0,0,1-3.373-8.927,2.978,2.978,0,1,1,5.936.493c-.194,2.321.666,3.351,1.329,3.924,2.958,2.556,10.59,2.708,20.414.408a2.978,2.978,0,0,1,1.357,5.8A61.19,61.19,0,0,1,68.458,224.454Zm0,0" transform="translate(-43.236 -171.281)" fill="#00556e"/><path d="M67.527,300.056c-3.784,0-6.75-.8-8.954-2.412a9.791,9.791,0,0,1-3.945-7.981,2.977,2.977,0,1,1,5.951-.163,3.824,3.824,0,0,0,1.5,3.334c1.545,1.124,5.85,2.517,17.338-.821a2.977,2.977,0,1,1,1.661,5.717A49.99,49.99,0,0,1,67.527,300.056Zm0,0" transform="translate(-44.699 -234.518)" fill="#00556e"/><path d="M165.6,35.981a2.978,2.978,0,0,1-.833-5.837c4.857-1.416,7.084-3.123,7.4-3.924.01-.029.041-.106-.139-.4-.793-.366-4.541.653-6.782,1.259a37.1,37.1,0,0,1-9.34,1.7,37.111,37.111,0,0,1-9.34-1.7c-2.238-.6-5.983-1.612-6.895-1.155a.4.4,0,0,0-.024.3c.312.8,2.539,2.508,7.394,3.924a2.978,2.978,0,0,1-1.668,5.717c-4.3-1.256-9.753-3.574-11.274-7.478a6.2,6.2,0,0,1,.589-5.645c2.616-4.328,8.114-2.845,13.434-1.408a33.123,33.123,0,0,0,7.786,1.5,33.135,33.135,0,0,0,7.787-1.5c5.319-1.435,10.818-2.921,13.432,1.408a6.2,6.2,0,0,1,.589,5.645c-1.521,3.9-6.971,6.221-11.274,7.479A3.088,3.088,0,0,1,165.6,35.981Zm0,0" transform="translate(-109.375 -16.26)" fill="#00556e"/><path d="M306.079,85.117a2.976,2.976,0,0,1-.021-5.953c10.04-.075,11.808-2.405,12.063-2.871.432-.8-.018-2.342-1.235-4.24A2.978,2.978,0,0,1,321.9,68.84c2.527,3.947,3.018,7.409,1.453,10.292-2.145,3.96-7.789,5.918-17.251,5.987A.086.086,0,0,0,306.079,85.117Zm0,0" transform="translate(-248.015 -55.206)" fill="#00556e"/><path d="M310.373,152.885c-1.737,0-3.645-.09-5.735-.287a2.978,2.978,0,1,1,.558-5.929c12.512,1.178,15.964-1.9,16.725-2.874a3.074,3.074,0,0,0,.362-3.207,2.977,2.977,0,1,1,5.62-1.966,9.044,9.044,0,0,1-1.291,8.841C324.581,150.062,320.128,152.885,310.373,152.885Zm0,0" transform="translate(-247.064 -111.794)" fill="#00556e"/><path d="M302.244,224.45a61.084,61.084,0,0,1-13.464-1.778,2.978,2.978,0,0,1,1.355-5.8c9.825,2.3,17.456,2.149,20.414-.407.663-.572,1.523-1.6,1.329-3.924a2.978,2.978,0,1,1,5.936-.493,10.106,10.106,0,0,1-3.373,8.927C311.46,223.546,307.013,224.45,302.244,224.45Zm0,0" transform="translate(-234.415 -171.276)" fill="#00556e"/><path d="M315.684,300.053a49.948,49.948,0,0,1-13.554-2.326,2.977,2.977,0,1,1,1.661-5.717c11.489,3.335,15.794,1.943,17.338.821a3.825,3.825,0,0,0,1.5-3.334,2.977,2.977,0,1,1,5.952.163,9.794,9.794,0,0,1-3.945,7.981C322.434,299.251,319.467,300.053,315.684,300.053Zm0,0" transform="translate(-245.463 -234.515)" fill="#00556e"/><path d="M221.051,122.771c-5.416,0-7.762-16.376-7.762-24.73,0-2.515,0-10.166,7.762-10.166s7.76,7.652,7.76,10.166C228.81,104.644,226.973,122.771,221.051,122.771Zm0-28.941c-1.048,0-1.805,0-1.805,4.211a57.454,57.454,0,0,0,1.805,14.683,57.431,57.431,0,0,0,1.8-14.683C222.855,93.83,222.1,93.83,221.051,93.83Zm0,0" transform="translate(-174.526 -71.905)" fill="#00556e"/></g></g></g></g></g></g></svg>