<svg xmlns="http://www.w3.org/2000/svg" width="3466.658" height="2666.66" viewBox="0 0 3466.658 2666.66"><g transform="translate(0 2666.66)"><path d="M3466.658,0H0V-2666.66H3466.658V0" fill="none"/><path d="M185.8-456.892s-19.405,68.56,70.516,86.973c123,25.187,818.409,92.76,643.018,143.04-99.008,28.387,77.094,65.533,559.332,79.733s1309.743-41.427,1031.464-123.706,858.531-14.893,789.465-186.04H185.8" fill="#cfddf9"/><path d="M731.8-462.719S382.211-1450.57,644.332-1660.742c175.2-140.48,346.254,213.2,567.905,49.373C1409.57-1757.222,1282-2100.008,1475.37-2262.3c278.052-233.346,631.025,801.2,908.331,645.558,436.2-244.813,702.865,141.386,399.959,1155.824L731.8-462.719" fill="#d4e8ff"/><path d="M1654.463-2487.18a180.525,180.525,0,0,0-53.946-19.107l2.627-14.747a195.387,195.387,0,0,1,58.413,20.68Zm-163.4.013-8.053-12.613a149.084,149.084,0,0,1,58.013-21.947l2.28,14.813a134.023,134.023,0,0,0-52.24,19.747Zm250.666,77.093a366.012,366.012,0,0,0-40.08-43.187l10.027-11.107a380.8,380.8,0,0,1,41.746,44.947Zm-323.093,11.44-13.413-6.626a298.769,298.769,0,0,1,32.373-52.36l11.747,9.267c-11.013,14-21.347,30.733-30.707,49.72Zm387.239,88.88c-9.84-18.546-19.88-35.96-29.867-51.746l12.64-8.013c10.187,16.12,20.427,33.853,30.44,52.746Zm-426.426,23.32-14.52-3.626c5.227-20.92,10.973-40.613,17.093-58.546l14.16,4.84c-5.987,17.547-11.627,36.827-16.733,57.333Zm477.066,85.467c-8.04-19.347-16.133-37.867-24.08-55.04l13.573-6.293c8.027,17.347,16.2,36.053,24.32,55.587Zm-499.546,32.44-14.8-2.147c3.027-20.96,6.347-41.133,9.88-59.933l14.693,2.773C1363.25-2209.248,1359.956-2189.288,1356.97-2168.528Zm542.585,79.92c-7.227-20.2-14.04-38.653-20.827-56.44l13.973-5.347c6.813,17.88,13.667,36.44,20.92,56.733Zm-556.2,39.76-14.891-1.333c1.863-21.013,3.891-41.306,6.024-60.306l14.867,1.667C1347.236-2089.928,1345.21-2069.755,1343.357-2048.848Zm1339.77,25.253a188.254,188.254,0,0,0-55.72-14.387l1.387-14.907a203.623,203.623,0,0,1,60.146,15.493Zm-163.186,18.347-8.56-12.267c18.386-12.893,36.96-22.427,55.213-28.36l4.613,14.24C2554.38-2026.155,2537.127-2017.275,2519.94-2005.248Zm-581.2,30.773c-7.44-22.28-13.573-40.44-19.293-57.173l14.147-4.853c5.733,16.76,11.88,34.96,19.333,57.28Zm839.238,18.653a351.843,351.843,0,0,0-44.307-38.747l8.813-12.107a367.656,367.656,0,0,1,46.2,40.4Zm-2042.3,24.213c-18.661-9.307-37.017-15.24-54.557-17.64l2.031-14.84c19.155,2.627,39.069,9.04,59.189,19.067Zm598.981,3.133-14.933-.893c1.295-21.773,2.581-41.533,3.931-60.426l14.923,1.067C1337.237-1969.9,1335.957-1950.182,1334.663-1928.475Zm1100.931,5.88-11.613-9.427a589.5,589.5,0,0,1,40.626-45.587l10.587,10.587A570.057,570.057,0,0,0,2435.594-1922.6Zm-1861.235,4.587-9.069-11.907c17.859-13.64,36.447-23.48,55.247-29.24l4.376,14.32c-17.1,5.24-34.107,14.267-50.553,26.827Zm2275.488,56.453c-10.707-17.507-21.947-34.067-33.387-49.227l11.92-9.027c11.733,15.533,23.253,32.507,34.227,50.427Zm-2020.049.64a513.56,513.56,0,0,0-44.672-39.12l9.12-11.88a532.715,532.715,0,0,1,45.984,40.266Zm1147.289,1.053c-6.867-20.133-13.587-40.267-19.267-57.307l14.187-4.747c5.667,17.027,12.387,37.133,19.227,57.213ZM497.584-1829.4l-12.605-8.067a464.16,464.16,0,0,1,36.015-49.467l11.425,9.667a446.65,446.65,0,0,0-34.835,47.867Zm1868.076,4.227-12.48-8.267c12.493-18.92,23.667-35.307,34.16-50.053l12.187,8.68c-10.4,14.613-21.48,30.853-33.866,49.64Zm-1037.427,17.36-14.937-.76c1.008-20,2.008-40.013,3.076-60.387l14.935.787C1330.239-1847.822,1329.238-1827.809,1328.232-1807.809Zm-418.7,36.16c-13.571-16.867-26.2-31.88-38.617-45.906l11.189-9.933c12.572,14.2,25.355,29.387,39.075,46.44Zm1994.635,16.333c-8.04-18.747-16.546-36.96-25.28-54.147l13.333-6.787c8.88,17.467,17.52,35.973,25.693,55.027Zm-885.718,9.347c-6.773-17.013-13.773-35.573-21.4-56.747l14.067-5.08c7.573,21.013,14.52,39.427,21.226,56.28Zm281.613,22.146-12.493-8.227c10.627-16.187,21.6-33.32,32.72-50.64l12.573,8.093C2321.73-1757.236,2310.743-1740.076,2300.063-1723.822Zm-1857.969,0-13.681-6.04q12.314-27.94,26.255-54.787l13.261,6.933q-13.722,26.38-25.835,53.893Zm879.5,36.867-14.924-.96c1.133-17.547,2.287-37.267,3.525-60.293l14.935.8c-1.243,23.08-2.4,42.853-3.536,60.453Zm-339.239,11.133c-13.683-18.733-25.087-34.093-35.887-48.387l11.923-9.04c10.851,14.347,22.3,29.787,36.033,48.587Zm1962.928,32.933c-6.026-19.4-12.453-38.507-19.107-56.773l14.053-5.133c6.733,18.494,13.24,37.827,19.333,57.453Zm-873.424,6.627c-9.68-14.947-19.267-32.56-29.32-53.827l13.52-6.4c9.76,20.653,19.04,37.693,28.346,52.08Zm155.667,10.293-10.987-10.147c11.333-12.307,23.493-27.467,37.16-46.387l12.12,8.787C2251.789-1654.316,2239.269-1638.7,2227.522-1625.969ZM400.58-1611.689l-14.3-4.373c5.941-19.467,12.461-38.813,19.377-57.52l14.024,5.2C412.864-1649.943,406.439-1630.876,400.58-1611.689Zm1747.769,32.266c-11.653,0-23.08-3.48-33.973-10.36l7.973-12.667c16.36,10.347,32.453,10.36,49.84,2.12l6.427,13.52c-10.28,4.906-20.453,7.387-30.266,7.387Zm-1094.923,1.24c-12.156-16.44-24.765-33.827-35.629-48.827l12.105-8.787c10.844,14.973,23.427,32.307,35.544,48.693Zm257.309,12.16-14.833-1.907c2.3-17.88,4.356-37.453,6.293-59.84l14.9,1.293C1315.139-1603.876,1313.059-1584.1,1310.735-1566.023Zm1665.258,39.04c-4.427-19.787-9.2-39.387-14.2-58.28l14.467-3.84c5.04,19.08,9.867,38.88,14.333,58.84ZM371.8-1495.476l-14.683-2.853c3.875-19.987,8.259-39.92,13.031-59.24l14.517,3.587c-4.712,19.08-9.04,38.76-12.865,58.507Zm757.173,12.28c-11.915-13.293-24.646-28.573-38.924-46.746l11.753-9.267c14.075,17.92,26.6,32.96,38.3,46Zm152.413,36.427-13.319-6.813c6.845-13.413,12.9-32.053,17.988-55.36l14.611,3.2c-5.439,24.906-11.747,44.2-19.28,58.973Zm-51.888,35.627c-20.78-3.28-35.812-12.747-56.633-29.107l9.452-11.6c18.241,14.293,31.416,22.866,48.775,25.827Zm1768.729,2.12c-3.107-19.987-6.52-39.893-10.146-59.173l14.693-2.773c3.653,19.427,7.107,39.493,10.24,59.64Zm-2643.7,32.133-14.881-1.493c2.032-20.253,4.508-40.493,7.361-60.16l14.8,2.146c-2.821,19.453-5.271,39.467-7.28,59.507Zm2658.813,87.04c-2-20.107-4.266-40.2-6.733-59.693l14.84-1.88c2.48,19.627,4.76,39.853,6.773,60.093ZM347.426-1257.17l-14.953-.307c.417-20.333,1.22-40.693,2.388-60.52l14.929.88c-1.157,19.64-1.953,39.813-2.364,59.946Zm2674.847,87.186c-1.026-20.12-2.293-40.307-3.746-59.987l14.906-1.12c1.48,19.813,2.747,40.106,3.773,60.333Zm-2687.991,33.56c-.993-20.267-1.651-40.627-1.956-60.493l14.953-.227c.3,19.693.956,39.88,1.939,59.987ZM3025.819-1049.8c-.187-20.147-.56-40.373-1.146-60.12l14.96-.44c.573,19.853.96,40.187,1.133,60.427Zm-2681.848,34.04c-2.231-20.16-4.171-40.427-5.768-60.253l14.907-1.213c1.587,19.68,3.512,39.8,5.725,59.813Zm2695.54,86.68-14.96-.44c.586-20.12.987-40.36,1.2-60.133l14.96.16C3040.5-969.624,3040.085-949.291,3039.511-929.078ZM360.627-895.9c-3.325-19.96-6.405-40.08-9.151-59.813l14.811-2.067c2.729,19.6,5.788,39.587,9.091,59.413Zm2673.287,87.533-14.934-.947c1.267-20.04,2.387-40.253,3.307-60.08l14.933.693C3036.3-848.8,3035.181-828.5,3033.914-808.371ZM383.56-777.118c-4.32-19.72-8.429-39.653-12.216-59.253l14.684-2.84c3.763,19.48,7.847,39.293,12.14,58.88Zm2640.832,89.173-14.893-1.413c1.893-20.04,3.653-40.213,5.213-59.947l14.907,1.187c-1.573,19.8-3.333,40.053-5.227,60.173ZM412.315-659.625C407.08-678.972,402-698.678,397.226-718.2l14.525-3.56c4.751,19.4,9.8,38.987,15,58.227Zm2598.971,91.76-14.84-1.84c2.467-19.973,4.8-40.08,6.96-59.786l14.866,1.64c-2.16,19.76-4.507,39.947-6.987,59.987ZM446.806-543.639c-6.115-18.76-12.164-38.2-17.98-57.787l14.335-4.267c5.779,19.453,11.789,38.773,17.863,57.4l-14.217,4.653" fill="#dce6ff"/><path d="M3115.086-987.158c-124.106-23-112.88,322.559-289.773,322.559-161.746,0-248.293-772.038-425.786-615.012-713.545,631.265-158.359-442.959-638.158-463.945-216.959-9.493-361.519,279.653-414.826,791.611-77.28,462.825-256.5-353.013-440.927-277.159C788.4-1180.891,801.825-664.6,640.082-664.6c-176.9,0-165.249-290.573-289.354-267.573C217.109-907.424,185.8-456.892,185.8-456.892H3279.592S3248.7-962.4,3115.086-987.158" fill="#eef7ff"/><path d="M2996.166-596.052c-114.173-8.147-95.546,65.507-258.292,65.507-148.8,0-144.707-165.066-244.28-200.159-183.373-64.6-334.546,262.386-405.639,98.28-135.026-435.452-528.839-653.825-710.518,0C1306.349-468.319,1140.1-761.145,971.8-730.7,868.21-711.958,876.317-530.545,727.518-530.545c-162.746,0-144.116-73.653-258.29-65.507-122.926,8.787-159.642,139.16-159.642,139.16h2846.22s-36.72-130.373-159.64-139.16" fill="#dce6ff"/><path d="M1843.262-463.146H1477.53V-794.4h365.733v331.252" fill="#255084"/><path d="M1843.262-612.585H1477.53V-988.811h365.733v376.226" fill="#1d3f70"/><path d="M2220.781-398.266H1100.015A40.727,40.727,0,0,1,1059.28-439h0a40.736,40.736,0,0,1,40.734-40.733H2220.781A40.737,40.737,0,0,1,2261.514-439h0a40.729,40.729,0,0,1-40.733,40.733" fill="#1d3f70"/><path d="M630.437-749.371v-1201.3a82.675,82.675,0,0,1,82.676-82.68H2611.087a82.683,82.683,0,0,1,82.68,82.68v1201.3a82.684,82.684,0,0,1-82.68,82.68H713.112a82.675,82.675,0,0,1-82.674-82.68" fill="#255084"/><path d="M2611.26-1953.982V-843.3H709.534V-1953.982H2611.26" fill="#b0c7f5"/><path d="M1703.636-744.438a43.241,43.241,0,0,1-43.24,43.24,43.241,43.241,0,0,1-43.24-43.24,43.241,43.241,0,0,1,43.24-43.24,43.241,43.241,0,0,1,43.24,43.24" fill="#1d3f70"/><path d="M2025.382-802.745s15.293-101.986,73.853-175.026c0,0,3.293,32.893,8.56,51.32,0,0,27.627-19.08,50.653-25.653,0,0-23.027,86.186-93.427,159.226l-39.64-9.867" fill="#ce3932"/><path d="M2051.155-799.411s-13-125.853-45.907-212.053c0,0-13.16,34.213-17.76,48.693l-45.4-32.906s30.92,100.013,64.48,202.666l44.587-6.4" fill="#ce3932"/><path d="M2188.568-842.811s42.32,10.947,44.787,45c1.893,26.133-68.106,17.48-68.106,17.48s53.306,13.32,81.426,1.373,32.573-22.307,22.213-45.013-30.107-61.187-56.253-52.306-24.067,33.466-24.067,33.466" fill="#ce3932"/><path d="M2286.514-730.7v382.959H1786.4V-730.7h500.119" fill="#9358e0"/><path d="M2286.5-730.7V-672H1786.4V-730.7H2286.5" fill="#7640cc"/><path d="M2302.941-697.772H1769.969V-762.9h532.972v65.133" fill="#9358e0"/><path d="M2091.235-762.9h-109.56a39.832,39.832,0,0,1,39.827-39.84H2051.4a39.844,39.844,0,0,1,39.84,39.84h0" fill="#eb5648"/><path d="M2255.048-792.4c-26.467,15.84-95.88,15.813-158.386,1.493,0,0,78.6-64.853,136.2-57.24C2259.021-844.691,2272.341-802.745,2255.048-792.4Zm-88.32-111.68c-82.906,15.133-130.28,101.333-130.28,101.333l47.373,39.84c128.813,0,173.719,0,193.546-26.027,19.933-26.147-27.733-130.28-110.64-115.146" fill="#eb5648"/><path d="M1886.155-842.811s-42.32,10.947-44.786,45c-1.893,26.133,68.106,17.48,68.106,17.48s-53.307,13.32-81.427,1.373-32.573-22.307-22.213-45.013,30.106-61.187,56.253-52.306,24.066,33.466,24.066,33.466" fill="#ce3932"/><path d="M1841.862-848.145c57.587-7.613,136.2,57.24,136.2,57.24-62.507,14.32-131.92,14.347-158.4-1.493C1802.382-802.745,1815.7-844.691,1841.862-848.145Zm-44.507,59.213c19.827,26.027,64.733,26.027,193.533,26.027l47.387-39.84s-47.387-86.2-130.293-101.333-130.56,89-110.626,115.146" fill="#eb5648"/><path d="M1839.316-549.959a49.344,49.344,0,0,1-49.347,49.333c-1.2,0-2.387-.04-3.573-.133v-98.413c1.187-.08,2.373-.12,3.573-.12a49.335,49.335,0,0,1,49.347,49.333" fill="#7640cc"/><path d="M1965.942-613.558a49.332,49.332,0,0,1-49.333,49.333,49.335,49.335,0,0,1-49.346-49.333,49.335,49.335,0,0,1,49.346-49.333,49.332,49.332,0,0,1,49.333,49.333" fill="#7640cc"/><path d="M1965.942-459.359a49.344,49.344,0,0,1-49.333,49.347,49.347,49.347,0,0,1-49.346-49.347,49.344,49.344,0,0,1,49.346-49.333,49.341,49.341,0,0,1,49.333,49.333" fill="#7640cc"/><path d="M1835.862-361.559a49.2,49.2,0,0,1-1.96,13.813H1786.4v-63.16h.12a49.347,49.347,0,0,1,49.347,49.347" fill="#7640cc"/><path d="M2057.435-347.746h-98.666a49.324,49.324,0,0,1,49.333-49.333,49.324,49.324,0,0,1,49.333,49.333" fill="#7640cc"/><path d="M2122.021-524.559a49.335,49.335,0,0,1-49.346,49.333,49.332,49.332,0,0,1-49.333-49.333,49.332,49.332,0,0,1,49.333-49.333,49.335,49.335,0,0,1,49.346,49.333" fill="#7640cc"/><path d="M2232.915-611.092a49.344,49.344,0,0,1-49.346,49.333,49.341,49.341,0,0,1-49.333-49.333,49.344,49.344,0,0,1,49.333-49.347,49.347,49.347,0,0,1,49.346,49.347" fill="#7640cc"/><path d="M2220.7-410.012a49.344,49.344,0,0,1-49.347,49.333,49.341,49.341,0,0,1-49.333-49.333,49.344,49.344,0,0,1,49.333-49.347,49.347,49.347,0,0,1,49.347,49.347" fill="#7640cc"/><path d="M2286.514-550.732v97.08a50.3,50.3,0,0,1-8.907.8,49.341,49.341,0,0,1-49.333-49.333,49.344,49.344,0,0,1,49.333-49.347,49.07,49.07,0,0,1,8.907.8" fill="#7640cc"/><path d="M2083.822-347.746h-94.746V-771.158h94.746v423.412" fill="#eb5648"/><path d="M1067.783-1776.889c.009,0,149.34-67,163,182.386,11.879,216.92,40.032,461.039-106.556,578.132-118.425,94.586-351.411,113.36-394.243-62.373-25.041-102.733,38.551-208.733,68.6-328.839,29.416-117.6,23.5-388.439,269.2-369.306" fill="#662948"/><path d="M1432.063-1075.864c-46.507,15.76-100.165,22.947-161.346,18.613-41.109-2.933-85.592-11.067-133.613-25.24l-2.349-45.347-9.925-190.92-2.488-48.053s7.381-.853,19.213-1.107c25.6-.6,72.018,1.573,108.9,21.213,51.918,27.64,107.237,50.253,155.531,38.693a101.64,101.64,0,0,0,33.653-14.76c20.173-13.52,33.746-38.16,53.6-69.053,41.333-64.32,72.467-166.093,72.467-166.093l87.493-19.067c52.973,174.133-3.507,427.359-221.133,501.119" fill="#3a72aa"/><path d="M1128.025-1415.063l-6.509,48.733c-17.409,56.627-92.71,12.267-105.176-10.187l11.373-70.547,100.312,32" fill="#f99370"/><path d="M1189-1306.957s59.076,73.506,92.957,124.333,37.067,87.493,37.067,87.493l-97.771,8.507L1189-1306.957" fill="#23659b"/><path d="M1027.065-1531.116c.04,1.813.141,3.667.349,5.48,2.585-1.307.685,63.533-4.879,110.693,41.917,25.427,93.246,23.387,102.512,22.6,8.092-59.613,9.095-114.68,4.395-149.893-11.071-59.96-104.416-49.72-102.377,11.12" fill="#e57d61"/><path d="M959.24-1567.143c8.163,46.373,24.615,98.546,61.782,128.76h.06c15.013,12.107,33.209,19.693,52.423,23.187,107.9,29.507,234.825-100.253,148.261-189.786-31.221-28.027-38.481-78.346-63.448-106.306-36.468-51.307-114.8-47.48-156.517-4.613-37.7,38.76-50.02,91.6-42.561,148.76" fill="#f99370"/><path d="M1136.286-1598.383c4.139-8.133-8.745-14.44-12.643-6.187-4.139,8.133,8.745,14.453,12.643,6.187" fill="#c16256"/><path d="M1195.32-1609.183c4.139-8.133-8.745-14.44-12.643-6.187-4.139,8.147,8.745,14.453,12.643,6.187" fill="#c16256"/><path d="M1177.9-1547.969c-4.333.107-13.847,1.867-13.68-4.013a2.667,2.667,0,0,1,3.325-1.773c8.975,2.733,21.556-1.933,23.223-6,.585-1.427-1.351-2.8-3.079-3.707-15.039-7.293-34.984-49-21.2-39.427.1.28,10.279,27.707,23.667,34.706,15.128,10.12-.371,18.347-12.256,20.213" fill="#c16256"/><path d="M959.24-1567.143c8.163,46.373,24.615,98.546,61.782,128.76h.06c-20.719-24.973-34.227-81.306-34.227-81.306l9.259-25.28c160.7-54.427,144.421-184.839,144.421-184.839-104.094-72.387-204.05,56.506-181.3,162.666" fill="#e57d61"/><path d="M1123.791-1740.116s14.829,127.64-128.906,182.2l-52.269-27.867c-52.008-98.506,37.511-245.439,181.176-154.333" fill="#662948"/><path d="M954.584-1777.049c35.249,121.24,176.478,82.493,144.882-39.76-35.248-121.24-176.477-82.48-144.882,39.76" fill="#662948"/><path d="M930.044-1543.236c11.257,52.427,77.277,37.48,64.84-14.68-11.256-52.427-77.276-37.48-64.84,14.68" fill="#f99370"/><path d="M947.286-1532.583c-11.1-11.32-7.119-34.467-1.448-38.52,10.415-8.507,29.272-4.253,27.949,1.08-3.276,5.333-14.105-5.76-24.279,2.787-10.432,7.933,4,30.146-2.223,34.653" fill="#c16256"/><path d="M972.1-1536.663c-5.449-.213-7.729-19.987-28.684-21.8a2.66,2.66,0,0,1-2.521-2.8c14.529-11.253,41.168,25.56,31.205,24.6" fill="#c16256"/><path d="M959.511-1519.29c0,7.76,12.185,7.587,11.959-.173,0-7.747-12.185-7.573-11.959.173" fill="#f4d4be"/><path d="M1275.674-1091.357a246.841,246.841,0,0,1-4.955,34.106c-3.3,12.24-6.837,24.107-10.448,35.707-3.484,11.227-7.056,22.173-10.577,32.96q-2.152,6.56-4.239,13.027-1.824,5.62-3.6,11.2a.047.047,0,0,1-.013.027c-4.3,13.52-8.373,26.893-11.921,40.267-2.329,8.72-4.429,17.467-6.235,26.253a341.69,341.69,0,0,0-6.783,56.827H708.842v-56.027c9.451-23.88,19.183-48.787,26.2-70.947,5.276-17.093,11.243-35.973,17.888-56,15.84-47.773,35.483-102.053,58.479-154,46.813-105.733,107.533-201.826,178.354-213.879a88.556,88.556,0,0,1,29.656-.027c22.895,26.573,78.364,69.786,100.452,30.187a51.706,51.706,0,0,0,2.471-5.12,85.821,85.821,0,0,1,22.639,11.44c18,12.48,33.536,31.613,47.261,52.467.013.013.013.027.027.04,15.468,23.533,28.631,49.24,40.411,70.107,4.609,8.187,9.015,15.627,13.265,21.893a188.476,188.476,0,0,1,25.712,61.333c.231,1,.448,2.027.653,3.04s.409,2,.588,3a190.979,190.979,0,0,1,3.048,25.613,210.582,210.582,0,0,1-.269,26.506" fill="#3a72aa"/><path d="M1250.458-988.718l-.023.04c-236.692,28.04-331.961-133.08-331.961-133.08l346.855,40.8c2.94,33.733-4.781,62.667-14.872,92.24" fill="#d1a68f"/><path d="M1167.425-1522.69c-.909,1.787-2.906,2.933-5.633,3.267a17.663,17.663,0,0,1-9.924-2.067,17.632,17.632,0,0,1-7.44-6.88c-1.305-2.413-1.524-4.72-.615-6.493s2.92-2.933,5.647-3.253a12.793,12.793,0,0,1,1.6-.107,18.525,18.525,0,0,1,8.323,2.173,17.631,17.631,0,0,1,7.44,6.88c1.305,2.413,1.523,4.72.6,6.48Zm3.892-8.92a22.66,22.66,0,0,0-9.589-8.987,22.567,22.567,0,0,0-12.883-2.6c-4.456.533-7.861,2.667-9.577,5.987s-1.485,7.347.665,11.28a22.667,22.667,0,0,0,9.592,8.987,23.449,23.449,0,0,0,10.679,2.733,17.094,17.094,0,0,0,2.2-.134c4.456-.533,7.863-2.653,9.579-5.987s1.472-7.333-.667-11.28" fill="#c16256"/><path d="M1108-1608.169a2.518,2.518,0,0,1-.972-.2,2.549,2.549,0,0,1-1.395-3.333,43.878,43.878,0,0,1,30.951-24.467,2.556,2.556,0,0,1,3.02,2,2.575,2.575,0,0,1-2,3.027c-19.893,4.04-27.164,21.213-27.236,21.387a2.565,2.565,0,0,1-2.369,1.587" fill="#c16256"/><path d="M1196.421-1629.356a2.561,2.561,0,0,1-1.513-.493c-12.749-9.36-28.921-5.707-29.084-5.667a2.569,2.569,0,0,1-3.077-1.92,2.55,2.55,0,0,1,1.909-3.067c.753-.187,18.652-4.213,33.284,6.52a2.568,2.568,0,0,1,.548,3.587,2.561,2.561,0,0,1-2.067,1.04" fill="#c16256"/><path d="M1058.9-1241.21c4.737,381.412,316.852,83.24,368.386-107.093,6.213-19.933,27.12-28.96,47.493-24.307,63.12,14.467-19.813,214.479-41.787,256.533-68.013,141.653-240.839,270.426-393.968,167.933-99.705-69.213-121.937-200.88-109.128-312.946,10.684-100.053,129,19.88,129,19.88" fill="#f99370"/><path d="M1853.7-1576.729a27.021,27.021,0,0,1-30.027,35.133h0l-161.52-26.36-168.333,55.467,35.72,108.373-36.293,12.28L1457.436-1500.5l-52.906,17.453-21.013,6.92-44.92-136.253,21.533-7.107,257.119-84.72L1731.1-1821.1l.347-.347a27.032,27.032,0,0,1,45.04,10.4l77.213,234.319" fill="#eb5648"/><path d="M1534.543-1396.957c1.733-.307,2.12-.44,3-.653.76-.2,1.467-.413,2.16-.64,1.387-.44,2.707-.947,4.013-1.507a37.429,37.429,0,0,0,7.427-4.32,30.128,30.128,0,0,0,6.16-6.053,28.664,28.664,0,0,0,4.013-7.173c2.88-7.266-1.747-15.107-10.347-17.52a18.694,18.694,0,0,0-16.76,3.28l-6.48,5.4c-.133.107.133-.146.08-.107a1.2,1.2,0,0,1-.293.173l-.28.107a.211.211,0,0,1-.053.013l.733-.133c-9.547,1.56-15.8,9.347-13.973,17.387s11.04,13.307,20.6,11.747" fill="#f99370"/><path d="M1529.023-1420.09c1.333-.587,1.707-.787,2.453-1.147l1.827-1c1.187-.667,2.32-1.373,3.427-2.12a44.071,44.071,0,0,0,6.373-5.267,32.631,32.631,0,0,0,5.373-7.107,26.673,26.673,0,0,0,3.013-8.906c1.12-8.16-5.787-15.413-15.44-16.2s-18.387,5.187-19.507,13.36c-.013-.387.28-.493-.293.107a8.909,8.909,0,0,1-1.253,1.027c-.28.187-.587.387-.88.547l-.4.213c-.027.027-.427.2.12-.04-8.76,3.693-12.467,12.613-8.28,19.947s14.707,10.267,23.467,6.587" fill="#f99370"/><path d="M1527.609-1449l11.56-11.867c6.347-6.52,5.56-15.893-1.76-20.933s-18.387-3.854-24.733,2.667l-11.56,11.866c-6.333,6.52-5.56,15.893,1.76,20.933s18.387,3.853,24.733-2.667" fill="#f99370"/><path d="M1515.036-1472.076l11.56-11.867c6.347-6.507,5.56-15.893-1.76-20.933s-18.387-3.84-24.733,2.667l-11.547,11.867c-6.347,6.52-5.56,15.893,1.747,20.933s18.387,3.853,24.733-2.667" fill="#f99370"/><path d="M1497.73-1318.61s43.066-59.333,53.413-85.466c0,0-27.867-113.04-47.213-101.107s-90.866,70.827-77.04,159.466c0,0,44.427-14.693,70.84,27.107" fill="#f99370"/><path d="M1823.676-1541.6h0L1731.1-1821.1l.347-.347a27.032,27.032,0,0,1,45.04,10.4l77.213,234.319a27.021,27.021,0,0,1-30.027,35.133" fill="#d64343"/><path d="M1404.53-1483.05l-21.013,6.92-44.92-136.253,21.533-7.107,44.4,136.44" fill="#d64343"/><path d="M1425.13-1564.849A12.123,12.123,0,0,1,1413-1552.73a12.12,12.12,0,0,1-12.12-12.12,12.123,12.123,0,0,1,12.12-12.133,12.126,12.126,0,0,1,12.133,12.133" fill="#d64343"/><path d="M1460.756-1576.983a12.132,12.132,0,0,1-12.12,12.133,12.135,12.135,0,0,1-12.133-12.133,12.123,12.123,0,0,1,12.133-12.12,12.12,12.12,0,0,1,12.12,12.12" fill="#d64343"/><path d="M1496.4-1589.1a12.132,12.132,0,0,1-12.133,12.12,12.12,12.12,0,0,1-12.12-12.12,12.123,12.123,0,0,1,12.12-12.133A12.135,12.135,0,0,1,1496.4-1589.1" fill="#d64343"/><path d="M1245.808-975.451c-10.423,29.387-21.979,60.213-26.816,97.653-319.063,48.893-399.928-160.08-420.414-269.119q9.786-24.08,19.215-45.107l260.038,173.173s93.913,18.52,167.977,43.4" fill="#23659b"/><path d="M1497.97-1312.6c-14.027,140.44-77.2,346.226-239.223,403.746-199.227,75.2-436.878-54.587-447.31-268.719-14.435-172.453,120.146-215.746,178.7-214.253,17.233,7.547,30.132,26.12,43.847,50.867,43.712,72.88,38.08,153.053,100.765,213.12,115.1,79.146,241.314-137.693,287.861-206.813,18.053,21.853,74.36,25.693,75.36,22.053" fill="#3a72aa"/><path d="M1183.226-1107.664c-23.305,0-42.717-10.12-59.145-30.413-24.356-30.08-47.837-89.026-48.825-91.52a2.779,2.779,0,0,1,1.553-3.6,2.774,2.774,0,0,1,3.588,1.56c.239.6,24.16,60.667,47.983,90.08,19.807,24.467,51.828,47.147,124.241,5.053,67.515-39.24,151.456-169.413,152.3-170.72a2.751,2.751,0,0,1,3.813-.84,2.764,2.764,0,0,1,.84,3.827c-3.453,5.387-85.5,132.6-154.172,172.52-27.572,16.027-51.416,24.053-72.172,24.053" fill="#23659b"/><path d="M1435.423-1078.744a2.813,2.813,0,0,1-1.293-.32,2.786,2.786,0,0,1-1.146-3.747c51.773-97.24,55.467-197.719,55.493-198.719a2.687,2.687,0,0,1,2.853-2.68,2.779,2.779,0,0,1,2.68,2.853c-.04,1.013-3.733,102.72-56.146,201.146a2.76,2.76,0,0,1-2.44,1.467" fill="#23659b"/><path d="M1497.97-1312.6c-.893,9.4-2.24,20.88-4.173,33.893-.053.44-.146.893-.2,1.333-19.494,3.146-56.28,3.653-90.48-26.213.493-.747.933-1.44,1.413-2.16,11.44-17.547,18.08-28.906,18.08-28.906,34.187,30.133,75.36,22.053,75.36,22.053" fill="#23659b"/><path d="M1124.829-1318.757a75.238,75.238,0,0,1-21.011,5.56c-25.573,3.333-50.122-10.68-69.834-27.76-22.228-19.24-38.263-42.387-42.631-49.013-.8-1.2-1.216-1.853-1.216-1.853s11.817-4.4,29.277-.027c23.8,27.613,82.828,73.226,102.926,25.04,0,0,7.381-.853,19.213-1.107a49.681,49.681,0,0,1,3.345,11.973c1.741,11.387.139,28.04-20.071,37.187" fill="#23659b"/><path d="M1484.636-337.039c-12.733-.08-739.433-5.933-722-5.787-49.957-.52-49.293-96.493.779-96.2,9.2.147,691.77,5.493,722,5.787l-.053,6.693-.72,89.506" fill="#fcb4b4"/><path d="M799.347-342.532c-6.037.04-30.208-.307-36.708-.293-35.9,1.04-49.929-59.693-25.061-83.946h.009c12.644-17.733,44.433-11.067,62.531-11.96l-.771,96.2" fill="#eb5648"/><path d="M821.4-403.279c2.684-6.627,664.593-1.28,667.193,5.32-2.707,6.627-664.565,1.28-667.193-5.32" fill="#f49f9f"/><path d="M1484.636-337.039c.12-16.2.627-78.893.773-96.2,30.32,11.853,95.733,37.44,125.533,49.093-29.813,11.12-95.986,35.8-126.306,47.107" fill="#ffe7d7"/><path d="M1559.729-365.039a59.805,59.805,0,0,1,.32-39.013l50.893,19.907-51.213,19.107" fill="#eb5648"/><path d="M1485.356-426.546l-660.342-2.947.041-9.04,660.354,5.293-.053,6.693" fill="#f9c0c0"/><path d="M790.1-342.613l-27.464-.213c-35.9,1.04-49.927-59.68-25.061-83.946h.009s-1.553,62.6,52.695,62.84l-.179,21.32" fill="#ce3932"/><path d="M798.594-332.919a8.561,8.561,0,0,1-8.5-8.627l.185-22.693.605-75.626c-.073-11.133,17.4-10.933,17.121.133,0,0-.789,98.32-.789,98.32a8.547,8.547,0,0,1-8.627,8.493" fill="#93abe5"/><path d="M815.717-332.786a8.577,8.577,0,0,1-8.5-8.627l.185-22.707.605-75.613c-.067-11.107,17.395-10.947,17.131.147,0-.013-.789,98.306-.789,98.306a8.57,8.57,0,0,1-8.636,8.493" fill="#93abe5"/><path d="M798.7-356.786a8.557,8.557,0,0,1-8.417-7.453l.605-75.626a8.558,8.558,0,0,1,8.627-8.493,8.545,8.545,0,0,1,8.417,7.44l-.605,75.64a8.556,8.556,0,0,1-8.627,8.493" fill="#bbceea"/><path d="M815.823-356.652a8.564,8.564,0,0,1-8.417-7.467l.605-75.613a8.569,8.569,0,0,1,8.636-8.493,8.564,8.564,0,0,1,8.417,7.467l-.605,75.613a8.57,8.57,0,0,1-8.636,8.493" fill="#bbceea"/><path d="M1484.636-337.039,824.6-342.332l-.188-21.987,660.333,2.947-.107,24.333" fill="#f49f9f"/><path d="M1484.636-337.039l.107-24.333c.013-.013,126.173-22.76,126.2-22.773-29.813,11.12-95.986,35.8-126.306,47.107" fill="#edd5c5"/><path d="M1559.729-365.039a58.193,58.193,0,0,1-2.36-9.44l53.573-9.667-51.213,19.107" fill="#ce3932"/><path d="M2063.382-2094.315l-21.213-16.146,26.773-35.16,21.213,16.16Zm-56.533,74.267-21.213-16.16,28.266-37.133,21.213,16.16ZM1950.3-1945.8l-21.213-16.16,28.266-37.12,21.213,16.147Zm-56.533,74.253-21.227-16.146,28.28-37.133,21.213,16.16Zm-56.547,74.267-21.213-16.16,28.267-37.133,21.213,16.16-28.267,37.133" fill="#fff"/><path d="M1916.275-1642.436l-46.027-7.747,4.427-26.293,46.026,7.747Zm92.04,15.48-46.027-7.747,4.427-26.293,46.027,7.747Zm92.04,15.48-46.027-7.747,4.427-26.293,46.027,7.747Zm92.04,15.48-46.013-7.747,4.413-26.293,46.027,7.747Zm92.04,15.48-46.013-7.733,4.413-26.307,46.026,7.747Zm92.04,15.48-46.013-7.747,4.413-26.293,46.026,7.747Zm92.04,15.48L2422.5-1557.3l4.413-26.293,46.027,7.747Zm92.04,15.48-46.013-7.746,4.413-26.293,46.027,7.747Zm92.04,15.48-46.013-7.747,4.413-26.293,46.026,7.747-4.427,26.293" fill="#fff"/><path d="M1918.715-1543.343l-37.027-28.413,16.227-21.147,37.027,28.4Zm74.053,56.8-37.027-28.4,16.227-21.16L2009-1507.7Zm74.066,56.8-37.04-28.4,16.24-21.16,37.027,28.4Zm74.053,56.813-37.027-28.413,16.227-21.147,37.027,28.4-16.227,21.16" fill="#fff"/><path d="M2399.994-1868.929l-6.8-25.786,45.12-11.893,6.8,25.773Zm-90.253,23.787-6.8-25.773,45.12-11.907,6.8,25.787Zm-90.253,23.8-6.8-25.787,45.133-11.893,6.8,25.786Zm-90.24,23.8-6.8-25.787,45.12-11.907,6.8,25.787Zm-90.253,23.787-6.8-25.787,45.12-11.893,6.8,25.786Zm-90.253,23.8-6.8-25.786,45.133-11.893,6.8,25.786Zm-90.24,23.787-6.8-25.773,45.12-11.907,6.8,25.787-45.12,11.893" fill="#fff"/><path d="M2461.527-1998.528c-.08,133.053,140.266,228.959,262.946,184.426A198.762,198.762,0,0,0,2858.9-2005.875c-9.28-261.026-397.772-253.919-397.373,7.347" fill="#8a9edd"/><path d="M2629.567-1872.675l55.467-1.027-1.213-65.493-55.466,1.027,1.213,65.493" fill="#ea876c"/><path d="M2700.607-1885.089c5.293,17.573,16.187,49.56,23.853,70.987a198.668,198.668,0,0,0,68.853-40.533c-28.987-17.987-60.506-29.027-92.706-30.453" fill="#eb5648"/><path d="M2531.061-1851.169a198.716,198.716,0,0,0,64.013,36.773c6.613-20.987,15.8-51.746,20.36-69.12-29.934,4.427-58.36,15.787-84.374,32.346" fill="#eb5648"/><path d="M2724.46-1814.1c4.96-1.68,9.827-3.573,14.573-5.613-12.267-22.04-24.707-43.12-38.426-65.373,0,0,1.626-15.68-16.227-23.707,0,0-25.026,6.96-55.467.84,0,0-17.307,7.84-13.6,24.16-11.8,21.827-22.733,42.733-33.453,64.267,43.507,19.187,97.546,21.24,142.6,5.427" fill="#eb5648"/><path d="M2563.5-2019.995c7.307,30.973,45.133,22.253,38.12-8.8-7.307-30.973-45.133-22.24-38.12,8.8" fill="#f99370"/><path d="M2749.073-2023.422c-6.16,31.227-44.28,23.893-38.427-7.387,6.16-31.227,44.28-23.893,38.427,7.387" fill="#f99370"/><path d="M2578.847-1986.662c6.253,104.066,173,85.706,154.586-18.573-2.667-20.707-10.346-34.36-14.44-67.36-9.48-76.373-118.306-78.44-126.6,1.773-3.253,31.64-14.333,55.133-13.547,84.16" fill="#f99370"/><path d="M2635.1-2034.6c2.413-4.8-5.187-8.493-7.453-3.613-2.427,4.8,5.173,8.48,7.453,3.613" fill="#c16256"/><path d="M2684.753-2035.422c2.427-4.8-5.173-8.48-7.453-3.613-2.413,4.8,5.187,8.493,7.453,3.613" fill="#c16256"/><path d="M2660.273-2002.488c7.587-.227,19.28-5.56,9.573-12.12-7.92-4.107-13.96-20.213-14.026-20.373a1.563,1.563,0,0,0-2.933,1.08c.267.72,6.533,17.427,15.507,22.067,6.213,3.653-6.52,7.533-11.826,5.773a1.551,1.551,0,0,0-1.947,1.04c-.4,2.827,3.693,2.36,5.653,2.533" fill="#c16256"/><path d="M2706.433-2077.208c-37.253,18.134-81.413-37.88-103.933-11.4l-3.12-15.867,43.44-21.36,70.36,23.04-6.747,25.586" fill="#e57d61"/><path d="M2588.234-2046.622s12.64-25.373,14.267-41.987,23.826-19.92,42.36-7.28,41.467,18.12,65.293,8.827,38.68-45.96,13.88-66.96c-24.56-20.8-49.387-3.773-70.973,4.854-27.853,11.146-98.733-8.973-64.826,102.546" fill="#8c4225"/><path d="M2722.58-2050.3s-20.027-21.867-21.747-51.347l20.853-8.653s9.08,28.547.893,60" fill="#8c4225"/><path d="M2571.567-2013.942a1.533,1.533,0,0,0,1.427-2c-5.64-15.173-.227-23.093,11.92-18.693,10.8-3.654-27.413-13.32-14.826,19.64a1.516,1.516,0,0,0,1.48,1.053" fill="#c16256"/><path d="M2583.26-2016.808c4.76-.467-2.027-14.507-13.653-15.08a1.536,1.536,0,0,0-.147,3.067c11.893,1,10.987,11.667,13.8,12.013" fill="#c16256"/><path d="M2740.273-2017.062c10.253-16.6-2.52-29.813-15.28-23.013a1.528,1.528,0,0,0,1.16,2.827c10.84-4.68,18.093,1.973,12.613,18.24a1.532,1.532,0,0,0,1.507,1.947" fill="#c16256"/><path d="M2725.94-2018.928c2.773-.427,4.093-11.653,15.893-13.08a1.524,1.524,0,0,0,1.387-1.653c-5.293-6.747-24.133,13.947-17.28,14.733" fill="#c16256"/><path d="M2694.727-1942.422c-28.973,12.933-28.067-18.72-37.427-18.786-11.627-.08-8.747,20.973-24.16,20.8-19.773-.32-36.453-25.453-15.027-38.933,22.827-13.867,57.307-11.933,78.907,3.267,12.76,8.267,11.613,27.573-2.293,33.653Zm38.707-62.813c-8.587-32.827-7.173-41.08-15.973-57.813,4.48,18.72,7.52,45.307,8.813,59.533,3.427,18.933-9.52,23.027-23.307,17.56-26.907-12.147-58.987-18.64-88.493-2.267-46.627,24.8-23.533-49.6-20.987-70.066.547-2.96.947-5.587,1.16-7.693-7.84,21.88-12.933,41.16-16.08,64.613-12.867,118.853,184.386,109.066,154.866-3.867" fill="#8c4225"/><path d="M2665.207-1973.315a33.072,33.072,0,0,0,7.453-.893,1.571,1.571,0,0,0-.84-3.027c-.134.04-13.68,3.573-29.867-5.12a1.566,1.566,0,0,0-2.12.64c1.907,7.053,23.32,8.56,25.374,8.4" fill="#c16256"/><path d="M2532.607-1849.849c70.387,61.36,184.76,61.426,255.226-.027-84.573,7.787-170.386,7.48-255.226.027" fill="#ce3932"/><path d="M2615.327-1883.782a1.576,1.576,0,0,0-.12.2c43.04,10.32,85.493-1.533,85.4-1.507,0,0,1.626-15.68-16.227-23.707,0,0-25.027,6.96-55.467.84,0,0-17.307,7.827-13.587,24.173" fill="#ce3932"/><path d="M2663.647-1815.742c246.04-12.067,239.853-369.586-6.893-372.906-246.346,12.333-239.426,369.959,6.893,372.906Zm-7.347-397.373c279.04,3.667,286.186,408.2,7.813,421.839-278.613-3.36-286.586-407.772-7.813-421.839" fill="#fff"/><path d="M2616.914-2046.475a1.669,1.669,0,0,1-1.347-1.84,1.674,1.674,0,0,1,1.854-1.453c.146.027,15.24,1.68,25.173-9.84a1.683,1.683,0,0,1,2.36-.173,1.667,1.667,0,0,1,.174,2.347c-11.133,12.906-27.427,11.067-28.107,10.987-.04-.013-.08-.013-.107-.027" fill="#c16256"/><path d="M2691.634-2043.568a1.664,1.664,0,0,1-1.133-.787c-5.627-9.507-19.12-10.853-19.253-10.867a1.662,1.662,0,0,1-1.507-1.813,1.65,1.65,0,0,1,1.8-1.507c.626.053,15.333,1.493,21.826,12.48a1.671,1.671,0,0,1-.573,2.293,1.713,1.713,0,0,1-1.16.2" fill="#c16256"/><path d="M2532.327-1213.1c5,157.226-172.973,258.813-304.333,172.479v-.013a200.647,200.647,0,0,1-21.76-15.747s-.027,0-.013-.013c-272-276.8,277.133-539.2,326.106-156.706" fill="#8a9edd"/><path d="M2327.541-1009.5v.4c-1.84-.067-3.68-.16-5.507-.307a186.3,186.3,0,0,1-19.853-2.4c-.147-.027-.28-.04-.44-.067.027-.187.067-.373.093-.533,2.413-10.52,16.48-12.427,22.72-5.24a12.715,12.715,0,0,1,2.987,8.147" fill="#7640cc"/><path d="M2480.74-1074.624c-44.72,49.933-115.853,75.547-181.946,62.187q.34,1.14.76,2.28c-4.307-3.44-9.747-4.187-15-5.56-11.213-40.987-20.573-83.146-25.346-125.586-6.133-57.213-5.28-118.68,22.533-168,.134.04,2.827-15.787,5.36-19.547,40.427-94.92,178.386-21.72,159.786,79.866-17.08,77.12,16.987,111.533,33.853,174.36" fill="#662948"/><path d="M2452.381-1048.784a199.316,199.316,0,0,1-38.013,22.453c-2.773-15.893-5.467-31.08-8.227-46.347a197.158,197.158,0,0,1,46.24,23.893" fill="#f4d4be"/><path d="M2231.594-1066.984c-.626,4.613-1.52,11.12-2.626,19.173-.293,2.267-.64,4.667-.974,7.173-1.346-.827-2.68-1.693-4.013-2.587-1.16,1.08-2.307,2.16-3.44,3.253.533-1.493,1.053-2.987,1.613-4.467a199,199,0,0,1-15.92-11.947,107.681,107.681,0,0,1,25.36-10.6" fill="#f4d4be"/><path d="M2346.021-1136.677l.987,61.96-52.48.84-.987-61.96,52.48-.84" fill="#f99370"/><path d="M2346.154-1127.931l.267,16.44c-31.053,10.28-52.453,2.52-52.453,2.52l-.427-26.453,52.613,7.493" fill="#e57d61"/><path d="M2382.968-1172.864c-1.413,18.867-11.626,35.12-26.64,45.653h-.026c-41.12,31.773-113.24-.293-110.226-52.84.667-23.467,7.147-33.92,13.12-55.16,3.026-79.653,105.36-97.653,116.053-12.413,1.293,28.013,9.867,49.346,7.72,74.76" fill="#f99370"/><path d="M2328.554-1214.144c-2.227-4.187,4.4-7.587,6.507-3.333,2.213,4.187-4.413,7.573-6.507,3.333" fill="#c16256"/><path d="M2284.754-1213.917c-2.213-4.187,4.413-7.587,6.507-3.333,2.227,4.187-4.4,7.587-6.507,3.333" fill="#c16256"/><path d="M2300.661-1180.557c-6.72.04-17.373-4.48-8.88-10.507,8.76-4.733,10.467-19.6,13.72-19.08,2.907.92-4.693,16.747-12.387,21.507-5.4,3.333,5.893,6.52,10.533,4.853a1.391,1.391,0,0,1,1.747.893c.427,2.413-3.053,2.133-4.733,2.333" fill="#c16256"/><path d="M2406.141-1072.677c-20,60.72-48.28,71.64-107.346,60.24.227.76-54.053-4.333-67.2-54.547,20.067-10.867,45.44-17.8,62.146-18.64l.347-16.08s15.693,8.547,52.48-.84l.96,16.053c-1.24-1.293,38.08,3.067,58.613,13.813" fill="#103663"/><path d="M2382.968-1172.864c-1.413,18.867-11.626,35.12-26.64,45.653,30.72-34.093,20.107-65.067,15.467-89.24-41.587-27.4-32.787-63.973-32.787-63.973-18.013,20.613-60.44,29.587-74.32,53.96l-5.493-8.747c3.027-79.68,105.373-97.64,116.053-12.413,1.293,28.013,9.867,49.347,7.72,74.76" fill="#e57d61"/><path d="M2344.808-1297.53s-5.787,59.96,33.107,73.813c0,0,27.92-89.493-33.107-73.813" fill="#662948"/><path d="M2346.048-1299.184c-15.987,26.667-94.72,53.28-89.613,105.48,1.507,28.853,19.8,50.24,10.067,76.253s-41,22.6-41,22.6,30.107-20.84,6-63.36c-49.546-80.546,40.96-220.359,114.546-140.973" fill="#662948"/><path d="M2281.821-1319.823s63.346-25.893,106.666,22.853c0,0-24.027-57.773-101.386-31.88,0,0-11.226,3.627-5.28,9.027" fill="#ce3932"/><path d="M2288.141-1014.784c-1.2-.293-2.386-.6-3.587-.933a1.559,1.559,0,0,1-.24-.053c-.174-.04-.333-.08-.507-.133a210.953,210.953,0,0,1-34.613-13c-4.293-2.053-8.52-4.253-12.64-6.587-.44-.24-.84-.493-1.28-.747-2.453-1.413-4.893-2.88-7.28-4.387v-.013c-1.347-.827-2.68-1.693-4.013-2.587-1.16,1.08-2.307,2.16-3.44,3.253.533-1.493,1.053-2.987,1.613-4.467,2.827-7.72,5.974-15.266,9.44-22.547,1.147,1.8,4.2,5.187,8.573,9.52a406.633,406.633,0,0,0,42.667,36.093c.067.067.16.12.24.187,3.84,2.787,7.68,5.453,11.413,7.867-2.12-.44-4.24-.933-6.347-1.467" fill="#f4d4be"/><path d="M2427.354-1032.744c-.453.24-.907.493-1.373.733-.24.133-.507.267-.76.387q-5.32,2.82-10.853,5.293-3.16,1.42-6.387,2.733a194.214,194.214,0,0,1-20.32,7.013,180.3,180.3,0,0,1-25.707,5.667q-8.18,1.2-16.427,1.653-5.12.3-10.24.293c3.707-2.613,7.974-5.72,12.547-9.147,17.707-13.32,39.893-31.6,51.667-45.347a51.626,51.626,0,0,0,6.64-9.213c4.92,8.16,9.907,17.053,14.733,26.56,1.173,2.307,2.333,4.64,3.493,7.027v.013a5.012,5.012,0,0,1,.213.467c.933,1.933,1.867,3.88,2.773,5.867" fill="#f4d4be"/><path d="M2288.141-1014.784a208.48,208.48,0,0,1-60.146-25.84v-.013c-1.346-.827-16.667-11.507-21.76-15.747-.16.093-.32.173-.467.267,14.293-8.8,26.307-11.093,25.826-10.867,14.573,17.493,39.907,38.187,62.893,53.667-2.12-.44-4.24-.933-6.347-1.467" fill="#d1a68f"/><path d="M2439.794-1056.877c-23.08,38.92-61.546,47.387-104.506,47.907,24.493-18.24,55.533-40.373,70.853-63.706,0,0,21.213,6.947,33.653,15.8" fill="#d1a68f"/><path d="M2300.808-1166.5a23.08,23.08,0,0,1-4.667-.32,1.38,1.38,0,0,1,.533-2.707,28.352,28.352,0,0,0,21.773-6.32,1.378,1.378,0,0,1,1.947.173c-.773,7-17.36,9.32-19.587,9.173" fill="#c16256"/><path d="M2332.048-1200.33c-20.267.227-20.707-26.373-.427-26.813C2351.888-1227.357,2352.314-1200.757,2332.048-1200.33Zm-.467-29.413c-11.507.24-17.307,7.907-17.48,15.653a15.509,15.509,0,0,0,.174,2.733c1.066,7.2,7.04,13.747,17.826,13.627,11.374-.24,17.16-7.72,17.467-15.387a16.28,16.28,0,0,0-.067-2.28c-.773-7.467-6.773-14.467-17.92-14.347" fill="#c16256"/><path d="M2280.048-1200.69c-20.28.227-20.707-26.373-.44-26.813C2299.887-1227.717,2300.314-1201.117,2280.048-1200.69Zm-.467-29.4c-23.653.493-23.16,32.253.507,32,10.68-.227,16.427-6.827,17.346-13.973a15.725,15.725,0,0,0,.107-2.96c-.427-7.733-6.453-15.187-17.96-15.067" fill="#c16256"/><path d="M2315.088-1210.824c-11.787-7.88-16.76.24-19.387-1.227-1.52-2.347,8.387-8.827,20.08-1.013a1.241,1.241,0,0,1-.693,2.24" fill="#c16256"/><path d="M2348.634-1212.77a1.239,1.239,0,0,1-.333-2.427c.747.44,32.28-10.067,31.693-7.147,1.84,2.32-30.68,8.813-31.36,9.573" fill="#c16256"/><path d="M2402.714-1201.517c-7.973,26.906-40.84,17.333-33.12-9.64,7.973-26.906,40.84-17.333,33.12,9.64" fill="#f99370"/><path d="M2395.474-1197.744a1.349,1.349,0,0,1-1.32-1.72c4.866-14.32-1.547-20.213-11.093-16.107a1.346,1.346,0,0,1-1.013-2.493c11.173-4.773,20.52,2.187,14.693,19.347a1.32,1.32,0,0,1-1.267.973" fill="#c16256"/><path d="M2382.834-1199.424c-4.107-.507,3.467-13.173,13.813-14.187a1.339,1.339,0,0,1,1.453,1.24,1.344,1.344,0,0,1-1.227,1.453c-10.427,1.24-11.573,11.107-14.04,11.493" fill="#c16256"/><path d="M2390.167-1192.117c.147,4.906-7.56,5.027-7.56.12-.16-4.907,7.56-5.027,7.56-.12" fill="#f4d4be"/><path d="M2338.381-1021.651c245.946-13.733,237.333-371.2-9.427-372.852C2082.688-1380.5,2092.035-1022.931,2338.381-1021.651Zm-10.04-397.319c279.053,1.773,288.933,406.252,10.653,421.772-278.626-1.467-289.319-405.826-10.653-421.772" fill="#fff"/><path d="M2347.688-1230.17a1.677,1.677,0,0,1-1.427-.52c-9.933-10.8-23.56-9.587-23.693-9.573a1.664,1.664,0,0,1-1.826-1.493,1.646,1.646,0,0,1,1.453-1.813c0-.013.013-.013.027-.013a33.585,33.585,0,0,1,26.493,10.627,1.68,1.68,0,0,1-.093,2.36,1.714,1.714,0,0,1-.933.427" fill="#c16256"/><path d="M2275.314-1234.464a1.671,1.671,0,0,1-1.533-.653,1.662,1.662,0,0,1,.32-2.333c.387-.28,9.387-6.973,20.733-4.507a1.672,1.672,0,0,1,1.267,1.987,1.661,1.661,0,0,1-1.973,1.28c-9.88-2.16-17.933,3.84-18.013,3.907a1.811,1.811,0,0,1-.8.32" fill="#c16256"/><path d="M2298.248-2146.248a208.862,208.862,0,0,1-100.96,67.586c-61.533,19.213-131.453,3.533-180.613-37.547-43.973-36.44-71.48-89.733-72.546-149.2,17.613-361.119,559.545-174.386,354.119,119.16" fill="#8a9edd"/><path d="M2258.448-2277.035c55.147,67.92-26.6,136.467-82.8,68.6-55.133-67.907,26.613-136.453,82.8-68.6" fill="#662948"/><path d="M2112.461-2072.822a201.5,201.5,0,0,1-95.786-43.373c36.32-38.826,80.227-40.866,80.227-40.866,21.533,21.64,21.973,55.453,15.56,84.24" fill="#23659b"/><path d="M2106.328-2187.048l-.36,26.333c8.04,30.92,48.013,19.746,65.467.92,0,0-2.187-19.64-2.053-28.747l-63.053,1.493" fill="#f99370"/><path d="M2157.235-2398.794c-87.28-35.867-135.8,90.8-94.187,153.479l94.187-153.479" fill="#662948"/><path d="M2174.421-2252.821c-.147,1.08-.32,2.187-.56,3.253-1.493-.947-4.92,38.4-4.427,66.92-27.227,12.546-57.64,7.96-63.266,6.906,1.106-45.706-8.84-90.04,24.427-109.44,20.92-9.146,47.12,9.12,43.827,32.36" fill="#e57d61"/><path d="M2217.061-2279.635c-4.08,28.093-13.267,59.707-35.4,78.333h-.04c-60.08,55.187-188.719-27.76-126.733-96.707a81.793,81.793,0,0,0,18.933-30.347c31.733-108.626,161.133-48.133,143.24,48.72" fill="#f99370"/><path d="M2080.062-2245.541l37.16-19.173c4.187,22.546-20.88,36.36-37.16,19.173" fill="#f9f8f3"/><path d="M2107.582-2295.461c-2.707-4.893,5.147-8.773,7.653-3.92,2.693,4.893-5.16,8.773-7.653,3.92" fill="#c16256"/><path d="M2071.062-2300.968c-2.707-4.893,5.16-8.773,7.653-3.92,2.707,4.893-5.16,8.773-7.653,3.92" fill="#c16256"/><path d="M2079.888-2243.928a1.63,1.63,0,0,1-.573-3.053c1.013.374,39.4-22.467,39.346-18.48,2.133,2.813-37.8,20.746-38.773,21.533" fill="#c16256"/><path d="M2082.968-2264.461c-7.307-.92-16.973-5.654-7.88-11.987,10.346-5.626,11.973-22.68,15.906-22.24,4.253,3.12-8.387,20.947-16.173,27.28,1.053,2.427,9.08,5,14.453,3.24a1.634,1.634,0,0,1,2.053,1.04c.146,3.6-5.707,2.613-8.36,2.667" fill="#c16256"/><path d="M2057.021-2090.3c-1.013-.493-2.027-.987-3.027-1.52,14.547-22.107,29.013-45.653,42.907-65.24l9.053-3.64c15.747,24.52,35.973,22.04,65.48.92,34.453,5.12,66.267,24.133,86.76,51.08-57.226,42.253-137.333,50.56-201.173,18.4" fill="#f99370"/><path d="M2217.061-2279.635c-4.08,28.093-13.267,59.707-35.4,78.333h-.04c12.24-15.333,19.413-49.387,19.413-49.387l-6.2-15.026c-99.906-30.013-92.84-107.987-92.84-107.987,60.253-44.787,128.04,29.333,115.066,94.066" fill="#e57d61"/><path d="M2112.422-2380.768s-6.56,76.88,82.906,107.266l32.52,18.92c60.866-89.387-34.307-205.84-115.426-126.187" fill="#662948"/><path d="M2235.5-2265.768c-5.827,31.6-46.746,23.867-40.173-7.733,5.827-31.6,46.747-23.867,40.173,7.733" fill="#f99370"/><path d="M2225.1-2259.061a1.623,1.623,0,0,1-1.387-2.067c2.747-9.36,2.547-15.8-.56-18.627-4.72-4.773-12.093,1.347-15.08-1.373,9.24-12.467,30.413,4.52,17.027,22.067" fill="#c16256"/><path d="M2209.768-2261.1c-5.787.373,8.933-21.48,18.68-15.307a1.615,1.615,0,0,1-1.493,1.733c-12.853,1.467-13.866,13.307-17.187,13.573" fill="#c16256"/><path d="M2217.861-2250.9c.146,4.68-7.347,4.747-7.36.093-.147-4.667,7.346-4.733,7.36-.093" fill="#f4d4be"/><path d="M2258.954-2109.248c-58.866,43.96-142.16,51.493-207.066,16.36,0,0,28.12-61.133,45.013-64.173-3.56,40.653,8.533,69.973,47.467,34.84,13.533-12.813,26.773-29.707,44.813-33.56,28.72,6.267,53.066,23.813,69.773,46.533" fill="#3a72aa"/><path d="M2270.074-2117.835c-33.253,27.546-75.453,45.106-118.826,47.133-4.573-14.947-2.933-30.56,7.987-50.72,26.573-49.306,83.947-32.333,110.84,3.587" fill="#23659b"/><path d="M2122.728-2303.808a1.469,1.469,0,0,1-1.12-.693c-.08-.093-7.04-10.48-18.027-9.907a1.548,1.548,0,0,1-1.626-1.454,1.538,1.538,0,0,1,1.453-1.626c12.773-.733,20.453,10.813,20.773,11.307a1.545,1.545,0,0,1-.44,2.133,1.534,1.534,0,0,1-1.013.24" fill="#c16256"/><path d="M2069.195-2310.914a1.535,1.535,0,0,1-.653-.227,1.548,1.548,0,0,1-.507-2.12,16.139,16.139,0,0,1,19.027-7.48,1.537,1.537,0,0,1,.92,1.973,1.543,1.543,0,0,1-1.973.92c-.387-.133-9.533-3.307-15.333,6.2a1.569,1.569,0,0,1-1.48.733" fill="#c16256"/><path d="M2138.848-2456.074c-246.413,13.12-238.386,370.6,7.933,372.879C2392.794-2095.915,2385.5-2453.527,2138.848-2456.074Zm8.453,397.345c-278.706-2.573-287.639-407.066-8.96-421.812,279.106,2.973,287.213,407.4,8.96,421.812" fill="#fff"/><path d="M3077.633-1360.21c-32.28,39.613-79.653,67-130.44,74.013-62.8,9-128.813-16.36-171.28-63.08-32.213-35.107-51.52-80.36-52.387-130.093,17.573-361.119,559.532-174.373,354.106,119.16" fill="#8a9edd"/><path d="M2890.246-1593.369s-15.587-8.627-24.947,5.213,1.173,23.253-10.467,35.44-18.84,14.4-15.52,26.027,12.253,12.906,8.347,27.493c0,0,43.787-41.893,49.587-67.92s-7-26.253-7-26.253" fill="#8c4225"/><path d="M2893.18-1377.463c-.533-3.987-.867-8.307-1.04-12.813-1.04-26.053,3.026-58.347,5.133-70.427.587-3.267,1-5.053,1.16-4.827.187-.773.413-1.52.667-2.253,2.8-8.76,8.733-14.067,15.613-16.427h.013a29.582,29.582,0,0,1,29.907,7.16c.16.16.307.333.44.48,4.733,5.107,7.4,12.173,6.133,20.8-.066.387-.12.8-.2,1.187-.093.547-.2,1.08-.32,1.613-1.254-.827-4.76,33.12-4.8,57.76,0,8.12.373,15.24,1.333,19.76,50.587,15.16-101.56,65.013-54.04-2.013" fill="#f99370"/><path d="M2951.206-1455.77c-.066.387-.12.8-.2,1.187-.093.547-.2,1.08-.32,1.613-1.254-.827-4.76,33.12-4.8,57.76-23.174,10.533-49.013,5.907-53.746,4.933-1.04-26.053,3.026-58.347,5.133-70.427.627-2.827,1.08-4.48,1.16-4.827.187-.773.413-1.52.667-2.253a26.753,26.753,0,0,1,15.613-16.427h.013a26.9,26.9,0,0,1,16.16-1.107,26.722,26.722,0,0,1,13.747,8.267c.16.16.307.333.44.48a26.867,26.867,0,0,1,6.133,20.8" fill="#e57d61"/><path d="M2893.18-1377.45c-18.053,24.413-35.04,47.44-54.773,74.133a201.963,201.963,0,0,1-73.707-59.227c59.653-13.373,89.186-14.84,128.479-14.907" fill="#fcb4b4"/><path d="M2836.406-1304.263q-6.26-3.02-12.267-6.48a447.077,447.077,0,0,1,53.813-54.24v-.027c5.04-4.293,10.093-8.4,15.213-12.44h.013c-3.387,24.627,10.347,29.04,54.053,2h.013c-.013,0,0,0,0,.013h.026c8.507,5.96,22.613,21.4,22.36,31.933-.333,9.333,4.773,26.72,12.733,49.08-47.48,16.28-100.96,12.2-145.96-9.84" fill="#fcb4b4"/><path d="M2852.979-1419c20.147,20.507,51.293,26.36,76.187,21a62.606,62.606,0,0,0,28.12-12.92h.026c94.413-93.826-32.72-252.266-92.546-115.32-19.866,37.293-54.133,60.706-11.787,107.24" fill="#f99370"/><path d="M2868.9-1451.8l32.92-16.8s1.947,17.933-11.08,22.8c-12.44,4.653-21.84-6-21.84-6" fill="#f9f8f3"/><path d="M3027.233-1315.7a209.463,209.463,0,0,1-44.867,21.28c-.467.16-.947.32-1.427.48-1.426.467-2.84.907-4.266,1.32a192.444,192.444,0,0,1-29.48,6.427c-4.546-19.853-6.227-41.933-3.346-67.453.146-1.4.307-2.787.493-4.2q1.1-8.5,2.906-17.587h.053a155.132,155.132,0,0,1,17.92,3.253c27.733,6.693,56.4,21.24,82.093,42.133a207.258,207.258,0,0,1-18.84,13.547c-.427.28-.827.547-1.24.8" fill="#f99370"/><path d="M2893.86-1496.3a3.8,3.8,0,0,1,1.667-5.107,3.8,3.8,0,0,1,5.107,1.667,3.782,3.782,0,0,1-1.667,5.107,3.8,3.8,0,0,1-5.107-1.667" fill="#c16256"/><path d="M3027.233-1315.7c-26.853,16.906-58.053,27.987-89.84,30.587-3.6-31.373-1.6-61.933,9.854-90.32,38.906,2.747,77.146,17.693,106.026,40.386a212.123,212.123,0,0,1-26.04,19.347" fill="#fcb4b4"/><path d="M2861.913-1501.676a3.789,3.789,0,0,1,1.667-5.093,3.788,3.788,0,0,1,5.107,1.653,3.8,3.8,0,0,1-1.667,5.107,3.782,3.782,0,0,1-5.107-1.667" fill="#c16256"/><path d="M2868.9-1450.356a1.448,1.448,0,0,1-1.28-.787,1.438,1.438,0,0,1,.627-1.933l32.92-16.8a1.415,1.415,0,0,1,1.92.627,1.426,1.426,0,0,1-.626,1.933l-32.907,16.8a1.474,1.474,0,0,1-.653.16" fill="#c16256"/><path d="M2876.1-1547.609s13.8,9.16,28.333,4.587c14.56-4.573,20.373,0,19.96,11.627s20.773,8.2,23.28,13.653-.4,15.827,4.374,22.88,28.667,15.746,28.667,15.746l-4.32,25.386s-8.187,35.107-24.267,46.613a52.932,52.932,0,0,0,5.16-3.8h.027a71.134,71.134,0,0,0,17.28-21.653c1.387-2.6,2.707-5.36,3.933-8.213a139.859,139.859,0,0,0,5.013-13.68c.44-1.347,1.987-6.64,2.346-7.907.48-1.907-13.8-91.893-19.413-97.48-.333-.293-82.52-.867-85.386,2.813-1.174,1.507-4.387,8.467-4.987,9.427" fill="#e57d61"/><path d="M2873.993-1468.65c-5.067,0-10.587-2.213-11.88-5.266-.44-1-1-3.573,2.907-5.693,7.173-3.867,12.453-18.747,12.506-18.893a1.433,1.433,0,0,1,1.827-.88,1.442,1.442,0,0,1,.88,1.84c-.227.653-5.693,16.053-13.84,20.467-.933.507-1.96,1.267-1.64,2.027.92,2.173,7.76,4.587,12.587,3.053a1.416,1.416,0,0,1,1.8.933,1.434,1.434,0,0,1-.92,1.813,14.392,14.392,0,0,1-4.227.6" fill="#c16256"/><path d="M2879.06-1557.356s-10.2-14.746,2.733-25.813,12.146-27.68,30.013-24.92,24.507,4.933,43.906-.307,35.84,13.4,35.107,25.68,25.307,12.28,29.187,28.893,0,21.587,0,28.787,22.72,16.613,18.293,33.773-18.854,14.533-21.627,25.547,5.72,29.88-7,36.067c-18.854,9.2-35.08-2.92-35.08-2.92s23.587-45.147,1.48-54.573c-10.747-4.587-21.333-10.76-17.52-26.813s-19.947-11.08-25.533-19.387-1.547-18.267-11.88-20.48-19.16,9.867-42.08-3.533" fill="#8c4225"/><path d="M3005.619-1468.17c-2.546,12.04-12.48,20.147-22.173,18.093s-15.493-13.467-12.947-25.507,12.48-20.133,22.173-18.093,15.493,13.467,12.947,25.507" fill="#f99370"/><path d="M2996.552-1462.276a1.484,1.484,0,0,1-.413-.067,1.433,1.433,0,0,1-.96-1.787c2.587-8.453,2.493-14.28-.254-16.827-3.667-3.4-11.187-.533-11.267-.493a1.448,1.448,0,0,1-1.866-.827,1.438,1.438,0,0,1,.813-1.853c.387-.147,9.293-3.56,14.267,1.053,3.68,3.413,4.027,10.053,1.053,19.787a1.44,1.44,0,0,1-1.373,1.013" fill="#c16256"/><path d="M2983.139-1464.29a1.414,1.414,0,0,1-.573-.107,1.449,1.449,0,0,1-.76-1.893c.213-.493,5.293-12.133,16.28-12.867a1.47,1.47,0,0,1,1.533,1.347,1.437,1.437,0,0,1-1.347,1.533c-9.213.613-13.773,11.013-13.813,11.12a1.447,1.447,0,0,1-1.32.867" fill="#c16256"/><path d="M2995.059-1470.5a6.569,6.569,0,0,1-8,4.72,6.553,6.553,0,0,1-4.733-7.987,6.567,6.567,0,0,1,8-4.733,6.566,6.566,0,0,1,4.733,8" fill="#fdffde"/><path d="M2972.753-1454.836a4.031,4.031,0,0,1-3.133-1.467,4.05,4.05,0,0,1,.533-5.72l15.947-13.253a4.074,4.074,0,0,1,5.72.533,4.065,4.065,0,0,1-.533,5.733l-15.947,13.24a3.987,3.987,0,0,1-2.587.933" fill="#fdffde"/><path d="M2915.393-1505.8a1.288,1.288,0,0,1-.387-.053c-15.253-4.36-19.866-15.08-20.053-15.533a1.383,1.383,0,0,1,.76-1.813,1.388,1.388,0,0,1,1.813.747h0c.04.094,4.347,9.947,18.253,13.92a1.392,1.392,0,0,1,.947,1.72,1.392,1.392,0,0,1-1.333,1.013" fill="#c16256"/><path d="M2863.833-1516.356a1.415,1.415,0,0,1-.987-.4,1.388,1.388,0,0,1-.013-1.96c.307-.333,7.88-7.88,22.72-5.707a1.377,1.377,0,0,1,1.174,1.573,1.387,1.387,0,0,1-1.573,1.173c-13.36-1.947-20.053,4.627-20.333,4.907a1.454,1.454,0,0,1-.987.413" fill="#c16256"/><path d="M2966.459-1373.37a70.032,70.032,0,0,1-8.893,7.133,173.287,173.287,0,0,1-16.96,10.493c-16.24,8.827-36.013,16.333-48.64,12.373-8.44-2.64-12.107-8.307-13.413-14.293a28.653,28.653,0,0,1-.6-7.333,43.767,43.767,0,0,1,2.373-12.467l-.027-.067c8.28-.133,12.88.067,12.88.067-.4,1.56-5.187,40.413,54.04,2l.013.027h.013c.32-.013,7.293-.2,19.213,2.067" fill="#f49f9f"/><path d="M2918.233-1670.036c-246.413,13.12-238.4,370.6,7.92,372.879,246.026-12.72,238.733-370.333-7.92-372.879Zm8.44,397.346c-278.693-2.573-287.626-407.066-8.96-421.812,279.106,2.973,287.213,407.4,8.96,421.812" fill="#fff"/></g></svg>