<svg xmlns="http://www.w3.org/2000/svg" width="3024.264" height="1372.617" viewBox="0 0 3024.264 1372.617"><g transform="translate(-87.868 -289.535)"><path d="M3111.76,1113.955c-3.289,111.285-28.2,268.026-77.711,386.009q-2.429,5.78-4.933,11.439a478.967,478.967,0,0,1-31.893,60.749q-4.825,7.707-9.891,14.921c-15.988,22.783-33.61,41.592-52.9,55.084a137.628,137.628,0,0,1-20.107,11.8.976.976,0,0,1-.227.108c-.157.083-.313.156-.468.228-.24.12-.492.228-.733.336q-5.007,2.341-10.119,4.178l-186.5,1-263.968,1.4-58.938.312-649.665-1.884-936.021-2.677-3.769-.013-512.658-1.464s-129.325-82.716-181.72-231.379c-1.345-3.83-2.653-7.706-3.89-11.62a374.932,374.932,0,0,1-17.693-122.519c3.229-148.388,46.3-461.631,497.605-534.852,423.267-68.672,310.723-505.54,934.844-462.615,246.264,16.937,355.532,185.07,545.86,140.273,509.259-119.843,766.855-6,902.686,190.615v.012l.948,1.357q6.771,9.9,13.168,20.057a680.246,680.246,0,0,1,46.647,88.479q14.259,32.409,25.795,66.295,1.692,4.952,3.337,9.927l.072.216a.071.071,0,0,1,.012.048c10.107,30.585,18.749,61.878,26.215,93.495q1.909,8.085,3.709,16.193v.012q2.666,11.937,5.114,23.9v.013q1.782,8.66,3.457,17.309,1.764,9.128,3.422,18.257,3.634,20.112,6.817,40.2a358.867,358.867,0,0,1,3.661,37.344C3112.229,1073.66,3112.372,1093,3111.76,1113.955Z" fill="#ebf3fa"/><path d="M2369.25,732.2s22.594-50.581,76.621-44.961c0,0,78.439-84.3,162.083-11.24,0,0,88.913-18.1,154.761,15.675,43.9,22.521,58.4,46.146,58.4,46.146Z" fill="#f8fcff"/><path d="M1324.274,561.181s26.094-50.994,88.492-45.328c0,0,90.59-84.993,187.193-11.332,0,0,102.688-18.251,178.737,15.8,50.7,22.705,67.451,46.523,67.451,46.523Z" fill="#f8fcff"/><path d="M1708.726,694.519s17.251-33.712,58.5-29.967c0,0,59.889-56.189,123.755-7.492,0,0,67.888-12.066,118.165,10.448,33.521,15.011,44.592,30.757,44.592,30.757Z" fill="#f8fcff"/><path d="M761.965,1656.947l-481.3-1.467s-121.417-82.718-170.6-231.384c177.36,50.274,239.672,182.89,301.732,161.478C477.812,1562.8,756.109,1562.778,761.965,1656.947Z" fill="#a8d29f"/><path d="M3097.428,960.7c-2.461,27.248-5.894,59.957-9.975,96.123-2.041,18.114-4.249,37.091-6.59,56.681-13.864,116.3-32.181,254.354-46.814,361.81-1.692,12.471-3.348,24.535-4.933,36.094-12.448,28.088-26.36,53.716-41.784,75.67-15.988,22.783-33.61,41.592-52.9,55.084a137.628,137.628,0,0,1-20.107,11.8h-324.3l-126.864-.012H2042.1s-19.721-75.995,105.271-79.631c220.192-6.411,97.06-109.6,230.924-112.954a377.555,377.555,0,0,1,41.111,1.513,180.483,180.483,0,0,0,43.753-1.584q4.7-.738,9.316-1.729c2.688-.576,5.353-1.2,7.994-1.909.324-.072.66-.156.984-.252,4.645-1.224,9.242-2.64,13.756-4.225.924-.323,1.86-.648,2.772-.984a201.585,201.585,0,0,0,19.447-8.319q8.334-4.068,16.324-8.87,3.961-2.377,7.838-4.909c.984-.637,1.957-1.285,2.929-1.945q1.422-.954,2.844-1.945a262.916,262.916,0,0,0,20.826-16.12c.529-.444,1.045-.9,1.561-1.356.517-.433,1.032-.889,1.537-1.333q2.16-1.909,4.285-3.853c2.328-2.137,4.621-4.3,6.865-6.506q7.707-7.526,14.849-15.545,5.636-6.283,10.9-12.819a375.056,375.056,0,0,0,29.7-42.589c35.9-59.945,51.1-122.424,39.7-148.351-.06-.144-.133-.3-.192-.444,0-.013-.013-.013-.013-.024-3.433-7.454-9.146-11.764-17.284-11.944a341.821,341.821,0,0,1-51.9-4.657c-61.831-10.947-123.8-46.393-103.218-159.562C2531.559,855,2646.709,886.405,2684.58,823.615s89.953-138.689,225.905-124.3c49.719,5.258,89.294,15.905,119.232,33.971q14.259,32.409,25.795,66.295,1.692,4.952,3.337,9.927l.072.216a.071.071,0,0,1,.012.048c10.107,30.585,18.749,61.878,26.215,93.495q1.909,8.085,3.709,16.193v.012q2.666,11.937,5.114,23.9v.013Q3095.753,952.046,3097.428,960.7Z" fill="#a8d29f"/><path d="M2608.19,1057.527v597.1H2912.9c.241-.108.493-.216.733-.336.155-.072.311-.145.468-.228h20.334v-.108h-20.107a137.628,137.628,0,0,0,20.107-11.8c19.289-13.492,36.911-32.3,52.9-55.084,15.424-21.954,29.336-47.582,41.784-75.67q2.5-5.653,4.933-11.439V1057.527Z" fill="#f9ddbf"/><path d="M3111.76,1113.955c-3.289,111.285-28.2,268.026-77.711,386.009V1057.527l4.515-.049,48.889-.66,23.875-.323C3112.229,1073.66,3112.372,1093,3111.76,1113.955Z" fill="#fff3e9"/><path d="M3085.148,903.27q1.909,8.085,3.709,16.193v.012l-3.156,6.494-63.9,131.558-14.548,29.949-4.5,9.254v.012H2578.865l29.325-37.991.948-1.224,189.595-248.064,1.128,1.056,127.778-.384,72.189-.228,59.093-.18a.071.071,0,0,1,.012.048C3069.04,840.36,3077.682,871.653,3085.148,903.27Z" fill="#ed9f4a"/><path d="M3093.971,943.373v.013l-55.407,114.092-.037.049-4.478,9.231v.012l-14.56,29.96h-423.9l12.592-16.312.012-.013,17.668-22.878,182.07-235.8,8.666-11.223,111.1-.336,72.178-.216,59.057-.18c10.107,30.585,18.749,61.878,26.215,93.495q1.909,8.085,3.709,16.193v.012Q3091.523,931.412,3093.971,943.373Z" fill="#f9ddbf"/><path d="M3111.328,1056.495a358.867,358.867,0,0,0-3.661-37.344q-3.187-20.093-6.817-40.2-1.659-9.129-3.422-18.257-1.674-8.661-3.457-17.309v-.013q-2.45-11.971-5.114-23.9v-.012q-1.8-8.1-3.709-16.193c-7.466-31.617-16.108-62.91-26.215-93.495a.071.071,0,0,0-.012-.048l-.072-.216-132.075-.013-128.041-.035.949,1.284,8.246,10.983,176.859,235.8,22.471,29.949,6.937,9.254,11.968,15.941,7.886.12,46.814.708,30.9.456C3112.372,1093,3112.229,1073.66,3111.328,1056.495Z" fill="#ed9f4a"/><path d="M37.589,0H43.7A36.368,36.368,0,0,1,80.068,36.368v96.741a0,0,0,0,1,0,0H0a0,0,0,0,1,0,0V37.589A37.589,37.589,0,0,1,37.589,0Z" transform="translate(2696.558 990.977)" fill="#efcdaf"/><path d="M2740.264,988.651h-6.11a39.966,39.966,0,0,0-39.924,39.912v97.852h84.733v-99.064A38.739,38.739,0,0,0,2740.264,988.651Zm34.03,133.095h-35.53v-87.278h35.53Zm-75.406-87.278h33.885v87.278h-33.885Zm75.406-5.869h-75.406v-.036a35.3,35.3,0,0,1,35.266-35.255h6.11a34.075,34.075,0,0,1,34.03,34.043Z" fill="#fff3e9"/><path d="M37.588,0H43.7A36.368,36.368,0,0,1,80.068,36.368v96.741a0,0,0,0,1,0,0H0a0,0,0,0,1,0,0V37.588A37.588,37.588,0,0,1,37.588,0Z" transform="translate(2820.826 990.977)" fill="#efcdaf"/><path d="M2864.524,988.651h-6.11a39.966,39.966,0,0,0-39.924,39.912v97.852h84.745v-99.064A38.749,38.749,0,0,0,2864.524,988.651Zm34.042,133.095h-35.53v-87.278h35.53Zm-75.406-87.278h33.874v87.278H2823.16Zm75.406-5.869H2823.16v-.036a35.294,35.294,0,0,1,35.254-35.255h6.11a34.077,34.077,0,0,1,34.042,34.043Z" fill="#fff3e9"/><path d="M2770.385,1176.969l-99.339,204.52h-301.8l157.342-203.773Z" fill="#ed9f4a"/><path d="M2779.427,1176.969l-99.339,204.52h-301.8l157.343-203.773Z" fill="#f9ddbf"/><path d="M2679.43,1381.486v272.582l-301.133.591V1381.486Z" fill="#f9ddbf"/><path d="M2934.433,1381.489v260.668a137.628,137.628,0,0,1-20.107,11.8h20.107v.108h-255V1381.489Z" fill="#fff3e9"/><path d="M2962.453,1393.581H2688.515L2526.588,1177.71l81.6.014,187.63.041Z" fill="#ed9f4a"/><path d="M2590.029,1426.892v227.767H2463.161V1428.985a64.487,64.487,0,0,1,64.481-64.48,62.4,62.4,0,0,1,62.387,62.387Z" fill="#efcdaf"/><path d="M2962.453,1393.581h-17.868l-248.027-215.857,99.262.041Z" fill="#e58638"/><path d="M54.8,0h.028a53.02,53.02,0,0,1,53.02,53.02V273.177a0,0,0,0,1,0,0H0a0,0,0,0,1,0,0V54.8A54.8,54.8,0,0,1,54.8,0Z" transform="translate(2472.482 1372.486)" fill="#fff3e9"/><path d="M2573.219,1426.24v1.9h-93.248v-.36a47.389,47.389,0,0,1,47.386-47.387h.02A45.841,45.841,0,0,1,2573.219,1426.24Z" fill="#f9ddbf"/><path d="M2571.291,1407.393a48.058,48.058,0,0,0-27.188-25.9,47.273,47.273,0,0,0-16.746-3.037,48.854,48.854,0,0,0-17.02,3.037,49.4,49.4,0,0,0-32.3,46.3v2.305h97.133v-3.854A47.469,47.469,0,0,0,2571.291,1407.393Zm-89.354,18.809a45.353,45.353,0,0,1,14.548-31.737c.949-.876,1.932-1.716,2.953-2.508a45.228,45.228,0,0,1,27.944-9.615,43.739,43.739,0,0,1,26.12,8.63c1.044.78,2.052,1.609,3.013,2.461h.011v.012a43.814,43.814,0,0,1,14.753,32.757Zm87.3-18.689a.736.736,0,0,1-.06-.144c-.312-.672-.636-1.333-.972-1.993-.276-.54-.553-1.067-.852-1.584-.1-.181-.216-.372-.325-.564s-.215-.373-.324-.552c-.035-.061-.06-.109-.1-.168-.011-.012-.011-.025-.024-.036q-.233-.4-.5-.792c-.252-.408-.516-.817-.792-1.213s-.553-.792-.84-1.189c-.18-.252-.373-.5-.564-.756-.265-.36-.541-.707-.828-1.056-.252-.324-.529-.649-.8-.972s-.563-.66-.852-.972-.552-.6-.84-.9c-.205-.216-.4-.42-.6-.624-.312-.312-.636-.636-.96-.937-.265-.251-.528-.5-.8-.744-.168-.156-.337-.312-.505-.456l-1.164,1.573v.012a43.972,43.972,0,0,1,11.667,16.637c.529-.444,1.045-.9,1.561-1.356C2569.586,1408.317,2569.418,1407.909,2569.238,1407.513Z" fill="#efcdaf"/><path d="M2558.337,1541.416a3.328,3.328,0,1,1,3.327,3.328A3.327,3.327,0,0,1,2558.337,1541.416Z" fill="#efcdaf"/><path d="M2557.765,1391.768l-1.243,1.671-24.5,32.763-2.9,3.884h-1.864l-3.351-3.884-27.422-31.733-1.3-1.5,2.933-2.535,1.32,1.524,28.6,33.093,25.471-34.063,1.155-1.544Z" fill="#efcdaf"/><rect width="119.437" height="8.872" transform="translate(2469.427 1434.995)" fill="#efcdaf"/><path d="M2480.473,1452.19V1637.3h92.27V1452.19Zm91.286,184.133h-90.3V1453.174h90.3Z" fill="#efcdaf"/><path d="M2997.223,1572.152q-4.825,7.707-9.891,14.921c-15.988,22.783-33.61,41.592-52.9,55.084a137.628,137.628,0,0,1-20.107,11.8.976.976,0,0,1-.227.108c-.157.083-.313.156-.468.228-.24.12-.492.228-.733.336q-5.007,2.341-10.119,4.178l-186.5,1c6.961-32.1,25.219-54.5,50.847-69.609.012,0,.012-.012.024-.012a143.218,143.218,0,0,1,15.077-7.706h.011c1.609-.72,3.229-1.416,4.9-2.077,2.833-1.152,5.7-2.232,8.654-3.252h.013q3.726-1.3,7.574-2.45c5.713-1.728,11.631-3.252,17.7-4.573,24.464-5.329,51.628-7.514,79.907-7.514,16.793,0,33.971.768,51.207,2.1A271.588,271.588,0,0,1,2997.223,1572.152Z" fill="#82b378"/><path d="M2803.449,1602.525s-31.652-115.867-55.829-109.761S2803.449,1602.525,2803.449,1602.525Z" fill="#82b378"/><path d="M2813.5,1613.61s-81.74-88.007-100.336-71.393S2813.5,1613.61,2813.5,1613.61Z" fill="#82b378"/><path d="M2821.753,1633.117s5.23-120-19.656-121.565S2821.753,1633.117,2821.753,1633.117Z" fill="#82b378"/><path d="M1062.216,850.951s75.411,131.784,60.285,177.233-65.728,48.351-65.728,48.351Z" fill="#f9ddbf"/><path d="M1101.321,1661.957H996.039c-7.544-5.115,2.034-55.129,2.034-55.129s28.735-10.9,33.7,11.27c4.978,22.155,36.6,29.2,53.335,31.9C1096.557,1651.864,1100.176,1658.155,1101.321,1661.957Z" fill="#263238"/><path d="M945.177,1661.957H839.894c-7.542-5.115,2.036-55.129,2.036-55.129s28.734-10.9,33.7,11.27c4.978,22.155,36.6,29.2,53.335,31.9C940.413,1651.864,944.032,1658.155,945.177,1661.957Z" fill="#263238"/><path d="M1072.995,1151.74s-4.732,59.04-10.294,130.011c-7.56,96.407-27.949,335.435-27.949,335.435s-13.368,11.406-42.976,5.166c0,0-25.2-82.46-32.738-176.577-.117-1.543-.234-3.1-.351-4.65-7.01-95.811-17.912-297.565-17.912-297.565Z" fill="#03566e"/><path d="M1074.61,1131.339s-6.347,79.441-11.909,150.412L959.038,1445.775c-.117-1.543-.234-3.1-.351-4.65-7.01-95.811-17.912-297.565-17.912-297.565Z" fill="#263238"/><path d="M1044.4,1131.339s-75.183,187.146-99.218,258.086c-17.12,50.532-65.4,227.8-65.4,227.8s-21,6.389-38.642-5.962c0,0-17.963-181.109,18.322-232.176,19.251-27.094,4.783-281.64,82.837-283.819S1044.4,1131.339,1044.4,1131.339Z" fill="#03566e"/><path d="M1010.813,855.453a46.929,46.929,0,0,1-32.39,4.36,67.19,67.19,0,0,1-21.944-9.262,64.776,64.776,0,0,1-8.853-6.668s.388-.561,1.041-1.664c3.391-5.8,13.673-26.651,9.1-60.154-.061-.439,3.257.183,8.271,1.368,14.919,3.533,44.909,12.039,46.236,12.417h.051s.368,7.046,1.6,19.677c.1,1.113.215,2.277.338,3.482.152,1.48.306,3.053.489,4.666C1016.143,836.807,1010.813,855.453,1010.813,855.453Z" fill="#ffb27d"/><path d="M1013.927,815.527c-22.27,5.105-55.508-27.775-55.508-27.775a35.084,35.084,0,0,1,7.618-4.319c14.919,3.533,44.909,12.039,46.236,12.417h.051S1012.692,802.9,1013.927,815.527Z" fill="#ed975d"/><path d="M1084.751,1099.818c-1.62,21.455-6.155,36.811-16.091,36.811,0,0-44.167,15.552-96.958,15.971-10.318.074-24.938-1.938-37.053-3.967-12.376-2.1-22.182-4.209-22.182-4.209-10.615-2.449-22.33-9.005-20.756-21.11.829-6.445,1.433-14.714,1.844-24.3.027-.615.055-1.23.083-1.854,1.164-28.039.978-66.665,1.118-103.644.1-22.712.325-44.791,1.089-63.415,0,0-10.42-73.157,1.146-85.16,13.558-14.043,53.358-18.354,55.854-17.814.745-.158,1.5-.345,2.263-.475,0,0,34.613,18.891,59.8,4.755,0,0,36.737,8.366,47.306,19.54,3.65,3.846,18.205,27.462,18.606,53.4.549,36.159-.866,77.235-.866,77.244.381,5.876,1.015,13.447,1.7,22.089.735,9.21,1.555,19.611,2.244,30.46.344,5.466.661,11.044.922,16.622C1085.608,1067.98,1085.85,1085.3,1084.751,1099.818Z" fill="#f9ddbf"/><path d="M953.013,827.167s37.511,38.691,64.331,30.765c0,0,3.573-5.225-8.506-6.9S983.722,850.042,953.013,827.167Z" fill="#f2ccaa"/><path d="M1021.494,794.069a113.281,113.281,0,0,1-20.833,4.857c-17.074,2.3-39.524.946-46.577-19.712-11.88-34.77-27.054-55.617,7.9-69.816,18.714-7.6,30.686-8,38.818-5.1,7.065,2.5,11.23,7.505,14.383,12.452C1021.978,727.39,1035.634,787.983,1021.494,794.069Z" fill="#ffb27d"/><path d="M1017.837,695.749c7.9,1.918,11.449,14.357,3.932,19.529-13.474,9.272-29.943,5.634-36.01,8.332-8.694,3.863-10.256,18.447-10.412,23.075s-.766,8.547-12.574,5.773a5.739,5.739,0,0,0-4.287.256c-4.9,2.906,1.361,16.991,3.249,20.039,0,0,2.717,10.09-3.312,15-.73.587-12.573,5.764-41.114-37.914-4.486-6.856-8.769-22.3-1.841-37.172s28.321-33.286,54-33.289C989.792,679.377,1001.127,691.689,1017.837,695.749Z" fill="#03566e"/><path d="M1021.759,771.622s.732,4.5-9.734,8.093c0,0-8.786,3.017-10.39-1.6C1001.635,778.116,1008.614,771.47,1021.759,771.622Z" fill="#fff"/><path d="M983.89,1074.209s28.215,18.616,39.11,19.809c7.408.811,36.68-.385,36.841-4.084.227-5.226-17.882-10.744-22.571-12.844s-8.36-4.52-8.327-6.543,18.14,4.677,16.187.26-18.684-12.106-22.726-12.846-17.079,3.684-22.145,1.342S983.89,1074.209,983.89,1074.209Z" fill="#ed975d"/><path d="M996.273,1057.877c3.753,7.041-12.383,16.332-12.383,16.332s-44.607,21.208-90.335,24.809c.027-.615.055-1.23.083-1.854,1.164-28.039.978-66.665,1.118-103.644C894.756,993.52,990.087,1046.269,996.273,1057.877Z" fill="#f2ccaa"/><path d="M906.768,838.145s-19.322,8.161-42.292,51.08-44.7,133.8-35.386,148.578,87.734,48.608,156.1,39.591c0,0,16.957-15.445,13.538-21.4,0,0-114.624-46.729-114.7-52.316s40.892-53.744,43.22-77.718S906.768,838.145,906.768,838.145Z" fill="#f9ddbf"/><path d="M1020.181,946.708s-1.361,14.7,0,18.515,40.4,4.667,41.385,1.089,2.45-14.43,0-16.336S1020.181,946.708,1020.181,946.708Z" fill="#ffb27d"/><path d="M1045.945,1083.227h-8.774a39.626,39.626,0,0,1-39.509-39.51V1005.86c0-21.73.472-41.038,23.834-48.212l41.071,3.1c35.48,9.794,22.887,23.382,22.887,45.112v37.857A39.626,39.626,0,0,1,1045.945,1083.227Z" fill="#ffb27d"/><path d="M1061.607,960.214s9.682,2.482,16.6-1.337c9.977-5.507,21.917-8.591,24-11.108,3.535-4.262,20.759-21.808,20.759-21.808l8.276,5.526s-7.972,32.411-14.427,38.2-18.014,26.341-37.5,29.251C1069.2,1000.449,1061.607,960.214,1061.607,960.214Z" fill="#ffb27d"/><path d="M1122.971,925.961s-3.023-8.151-.528-9.219,3.951,4.865,3.951,4.865,6.5-13.484,13.1-7.662-8.252,17.542-8.252,17.542Z" fill="#ffb27d"/><path d="M1020.008,958.089s-9.682,2.482-16.6-1.337c-9.978-5.507-21.918-8.591-24.005-11.108-3.534-4.262-20.758-21.808-20.758-21.808l-8.276,5.526s7.972,32.411,14.426,38.2,18.015,26.341,37.5,29.251C1012.413,998.324,1020.008,958.089,1020.008,958.089Z" fill="#ffb27d"/><path d="M958.644,923.836s3.023-8.151.528-9.219-3.952,4.865-3.952,4.865-6.5-13.484-13.1-7.662,8.253,17.542,8.253,17.542Z" fill="#ffb27d"/><path d="M1078.53,1028.184s22.979,10.078,35.1,13.641c11.307,3.323,25.284,11.256,25.575,12.54s.438,12.5-5.29,14.7-67.916,11.091-77.146,7.467C1056.773,1076.535,1063.406,1031.953,1078.53,1028.184Z" fill="#ffb27d"/><path d="M1138.349,1031.014s-10.958.769-17.4,8.815a6.624,6.624,0,0,1-7.311,2s-17.248,11.013-6.258,31.808c0,0,23.237-1.451,26.543-4.565S1138.349,1031.014,1138.349,1031.014Z" fill="#fff"/><path d="M1133.919,1069.068s11.6-2.745,13.7-14.359-.064-22.6-7.71-23.57-12.47,3.167-14.567,8.707S1117.091,1069.623,1133.919,1069.068Z" fill="#afcdfb"/><path d="M1044.685,868.3s23.175-1.04,32.008,20.989,10.567,59.909-9.921,65.881c-13.974,4.073-29.02,1.2-42.507-3.965-7.121-2.727-9.544-8.73-13.613-13.477C984.515,907.23,992.955,871.019,1044.685,868.3Z" fill="#ffb27d"/><path d="M997.662,1022.707s45.544,9.766,87.743,0c0,0,4.823,8.226,5.447,10.682,1.325,5.215-1.063,13.775-10.449,24.671-13.8,16.029-60.968,27.991-77.51,17.739C988.394,1066.814,985.127,1036.225,997.662,1022.707Z" fill="#fff"/><path d="M1048.633,1042.1c8.466,2.95,20.735,9.8,31.77,15.955,10.292,5.744,22.168,16.572,22.168,17.888s-2.339,12.291-8.412,13.169-68.686-4.211-76.887-9.787a15.933,15.933,0,0,1-10.7-13.537C1004.786,1050.052,1012.516,1029.526,1048.633,1042.1Z" fill="#ffb27d"/><path d="M1106.9,1052.985s-10.858-1.674-18.923,4.746a6.626,6.626,0,0,1-7.573.329s-19.256,6.924-13.139,29.635c0,0,22.982,3.727,26.9,1.422S1106.9,1052.985,1106.9,1052.985Z" fill="#fff"/><path d="M1094.159,1089.117s11.924-.109,16.533-10.973,4.938-22.058-2.305-24.692-12.862.329-16.132,5.268S1077.625,1085.935,1094.159,1089.117Z" fill="#afcdfb"/><path d="M1053.952,934.625s4.675,5.51,10.819,3.507,7.093-8.679,7.093-8.679A39.673,39.673,0,0,0,1053.952,934.625Z" fill="#fff"/><path d="M1024.538,920.576s-8.985-7.88-11.844-2.163,3.676,14.089,8.985,14.192S1028.071,923.094,1024.538,920.576Z" fill="#ed975d"/><path d="M1025.871,920.268s-6.861-6.017-9.044-1.651,2.807,10.756,6.86,10.835S1028.568,922.19,1025.871,920.268Z" fill="#ffb27d"/><path d="M1017.792,879.856s11.121,15.121,34.5,14.564c0,0,9.185-1.329,13.082-7.274,0,0-7.376,2.96-11.272,1.708,0,0,22.037-3.366,21.759-9.259s-11.844-12.5-20.284-13.508c-6.718-.8-27.028-.671-33.177,2.7S1016.067,877.889,1017.792,879.856Z" fill="#ff9843"/><path d="M1027.708,867.1s-25.508,4.143-30.046,24.477c-1.826,8.18,2.034,20.114,2.034,20.114s-.514-24.205,19.88-25.219c14.842-.738,24.565-2.246,24.565-2.246Z" fill="#ff9843"/><path d="M1031.378,988.978a1.532,1.532,0,1,1-1.531-1.532A1.531,1.531,0,0,1,1031.378,988.978Z" fill="#ed975d"/><path d="M1069.734,988.978a1.531,1.531,0,1,1-1.532-1.532A1.531,1.531,0,0,1,1069.734,988.978Z" fill="#ed975d"/><path d="M1101.9,1017.964a15.833,15.833,0,0,0-8.7-10.31c-5.454-2.526-13.185-5.914-16.707-6.553-5.744-1.044-17.487-7.95-18.445-4.362s8.288,7.745,8.334,11.7-25.966,13.631-25.274,17.733,8.108,13.279,18.187,10.829,35.116-8.319,40.894-9.941C1103.252,1026.2,1102.945,1021.945,1101.9,1017.964Z" fill="#ed975d"/><path d="M1387.669,1593.9s-4.158,7.41-.97,15.6a21.489,21.489,0,0,1,.528,15.154,5.039,5.039,0,0,1-8.926,1.063l-24.092-36.309a6.264,6.264,0,0,1,2.3-9.007c2.869-1.514,6.189-3.31,8.673-4.781,5.422-3.211,13.128-.76,13.128-.76Z" fill="#263238"/><path d="M1454.713,1520.573c-6.384,20.038-64.742,83.047-64.742,83.047s-24.965-18.331-24.364-31.595c0,0,30.742-57.23,31.06-64.253.076-1.667-3.417-8.528-8.745-18.116q-1.08-1.952-2.266-4.042v-.005c-9.213-16.358-22.469-38.793-32.859-57.5-.248-.449-.5-.893-.738-1.337-9.3-16.832-16.082-30.378-15.146-33.285,2.725-8.469,82.749-19.881,82.749-19.881S1461.087,1500.535,1454.713,1520.573Z" fill="#03566e"/><path d="M1385.657,1485.609c-9.213-16.358-22.469-38.793-32.859-57.5-.248-.449-.5-.893-.738-1.337l.036-20,27.733-4.242Z" fill="#263238"/><path d="M1284.764,1613.5s-4.371,18.153.065,25.737a21.483,21.483,0,0,1,2.9,14.882,5.039,5.039,0,0,1-8.648,2.453l-29.5-32.07a6.265,6.265,0,0,1,.852-9.257c2.595-1.946,5.592-4.241,7.814-6.084,4.85-4.023,12.845-2.814,12.845-2.814Z" fill="#263238"/><path d="M1380.6,1385.412s-31.05,108.008-42.612,135.171c-8.048,18.907-46.894,106.291-46.894,106.291s-38.771-11.823-36.153-23.779c0,0,24.749-89.606,29.182-99.736,5.752-13.142,2.142-102.613,24.005-118.727S1380.6,1385.412,1380.6,1385.412Z" fill="#03566e"/><path d="M1380.415,1236.326s49.063-51.636,51.76-58.4,12.923-66.049,12.923-66.049l12.752.5s3.35,69.8-.847,83.8S1395.179,1273,1395.179,1273Z" fill="#ffb27d"/><path d="M1371.246,1221.124a28.94,28.94,0,0,1-3.51-7.526,54.155,54.155,0,0,1-2-17.3,61.852,61.852,0,0,1,.677-7.527l-33.79-13.918a105.44,105.44,0,0,1,1.056,22.79c-1,15.837-5.277,25.808-5.277,25.808l.58,1.526q-5.649,1.066-12.007,2.483l43.71,23.093,25.274-26.27S1382.4,1221.8,1371.246,1221.124Z" fill="#ffb27d"/><path d="M1367.736,1213.6c-18.474,1.033-34.053-15.955-34.053-15.955l32.057-1.345A54.155,54.155,0,0,0,1367.736,1213.6Z" fill="#ea9c68"/><path d="M1306.208,1238.258s-40.653-44.509-59.745-57.786c0,0-29.43-58.25-31.744-62.057s-14.4,4.524-14.4,4.524,13.825,57.846,24.729,74.431,45.087,72.446,65.99,72.9S1306.208,1238.258,1306.208,1238.258Z" fill="#ffb27d"/><path d="M1375.828,1202.588s-35.967,12.75-51.07-15.44c-16.3-30.423-3.184-54.656,9.175-57.24,24.644-5.152,39.893,3.147,45.1,12.82S1395.689,1195.734,1375.828,1202.588Z" fill="#ffb27d"/><path d="M1358.118,1187.209s4.217,5.257,13.74,2.325c0,0,8.69-2.323,6.125-8.137A30.068,30.068,0,0,0,1358.118,1187.209Z" fill="#fff"/><path d="M1332.169,1196.835s-5.361-12.3-5.4-19.1c0,0-10.608-11.442-5.268-14.932s8.957,3.5,10.12,1.971,1.175-25.734,8.028-25.537,32.615,5.905,42.842-4.5-19.559-45.3-63.648-27.224S1288.159,1175.165,1332.169,1196.835Z" fill="#03566e"/><path d="M1298.137,1129.1s-2.557-5.948-.717-10.5c0,0,.606,6.009,3.191,8.492S1298.137,1129.1,1298.137,1129.1Z" fill="#03566e"/><path d="M1298.726,1124.747s-5.653-.172-7.941,4.355a7.224,7.224,0,0,1,7.947-.5Z" fill="#03566e"/><path d="M1416.917,1400.086c-43.361,14.5-100.314,13.1-114.366,12.485-2.1-.088-3.24-.164-3.24-.164-4.981-.657-8.638-4.334-9-8.726a8.969,8.969,0,0,1,.033-1.732l7.68-66.809-7.135-32.634-4.06-18.607-9.273-42.485c18.23-10.263,35.081-16.341,50.708-19.691,6.508,5.09,19.129,12.323,32.354,9.648,9.94-2.017,11.829-6.914,11.227-12.061,21.248,1.381,32.657,5.85,32.657,5.85l26.421,153.335C1432.516,1387.709,1426.667,1396.823,1416.917,1400.086Z" fill="#f99746"/><path d="M1255.359,1249.193s27.3,15.6,30.323,29.454c0,0,37.828-30.238,42.581-56.924a56.053,56.053,0,0,0-18.044,3.859,29.594,29.594,0,0,0-10.349-1.568l-20.957-14.3S1256.4,1217.607,1255.359,1249.193Z" fill="#f99746"/><path d="M1371.844,1219.31s11.006-1.882,15.057-1.245c0,0,1.86-1.686,6.472-2.319l22.719-17.383s17.358,15.018,15.044,38.06c0,0-18.917,13.79-18.891,16.794s.542,20.03.542,20.03Z" fill="#f99746"/><path d="M1445.1,1111.879a28.818,28.818,0,0,0-2.351-9.949c-2.149-4.457-2.1-16.5.216-16.012s1.659,4.864,4.143,4.149,5.376-14.94,8.765-13.949,6.163,5.467,5.989,15.654-4.01,20.606-4.01,20.606Z" fill="#ffb27d"/><path d="M1214.431,1118.341a32.419,32.419,0,0,1-1.2-11.437c.623-5.531-3.911-18.294-6.187-16.917s.048,5.781-2.855,5.947-11.266-13.862-14.494-11.549-4.509,8.1-.534,18.846,11.923,20.383,11.923,20.383Z" fill="#ffb27d"/><path d="M1653.2,1184.854s-17.984,1.222-25.317,5.762-13.968,6.285-12.658,8.381,14.142-2.357,14.4,0-11.332,9.429-14.571,9.952-10.572,1.572-9.262,5.762,13.726,5.5,23.624,5.762,33.994-15.714,33.994-15.714Z" fill="#ffb27d"/><path d="M1666.293,1207.378c18.208-.009,78.278-40.146,98.467-56.357a59.872,59.872,0,0,0,4.992-4.366c7.526-7.668,33.484-45.509,51.908-79.211,10.606-19.411,18.716-37.446,19.359-47.55,2.295-36.079-16.683-86.53-16.683-86.53-56.139,19.538-62.043,64.361-62.043,64.361L1733.522,1104.8a28.559,28.559,0,0,1-9.322,14.548l-76.065,63.237C1645.567,1193.414,1660.222,1207.381,1666.293,1207.378Z" fill="#f9ddbf"/><path d="M1764.76,1151.021a59.872,59.872,0,0,0,4.992-4.366c7.526-7.668,33.484-45.509,51.908-79.211,2.385-20.367.748-39.471-7.646-52.828C1814.014,1014.616,1766.291,1098.589,1764.76,1151.021Z" fill="#f2ccaa"/><path d="M1797.1,1484.732l9.544,39.8,5.905,24.634,19.662,81.992s16.83,5.187,34.321,0a299,299,0,0,0,6.663-60.973c.1-17.7-1.523-37.242-6.694-55.692a127.954,127.954,0,0,0-8.2-21.777C1830.569,1436.056,1797.1,1484.732,1797.1,1484.732Z" fill="#ffb27d"/><path d="M1780.809,1655.109h92.4s1.461-13.98-2.609-27.354a47.008,47.008,0,0,0-2.2-5.873s-20.628,4.676-38.415,0c0,0-16.725,14.244-26.836,18.608S1781.877,1642.485,1780.809,1655.109Z" fill="#03566e"/><path d="M1806.646,1524.528l5.905,24.634a142.4,142.4,0,0,0,60.646,21.019c.1-17.7-1.523-37.242-6.694-55.692-8.5-4.309-17.149-6.567-24.515-5.282C1823.65,1512.406,1812.75,1519.109,1806.646,1524.528Z" fill="#e8945b"/><path d="M1828.8,1655.109h44.407s1.461-13.98-2.609-27.354C1859.449,1631.227,1836.763,1639.932,1828.8,1655.109Z" fill="#263238"/><path d="M1870.757,1484.732l9.544,39.8,5.9,24.634,19.663,81.992s16.829,5.187,34.322,0a299.044,299.044,0,0,0,6.662-60.973c.1-17.7-1.524-37.242-6.7-55.692a127.881,127.881,0,0,0-8.195-21.777C1904.224,1436.056,1870.757,1484.732,1870.757,1484.732Z" fill="#ffb27d"/><path d="M1942.059,1621.879s-20.627,4.681-38.417,0c0,0-16.726,14.248-26.834,18.615s-21.28,1.993-22.343,14.618h92.4S1948.789,1636.668,1942.059,1621.879Z" fill="#03566e"/><path d="M1880.3,1524.528l5.9,24.634a142.4,142.4,0,0,0,60.647,21.019c.1-17.7-1.524-37.242-6.7-55.692-8.5-4.309-17.149-6.567-24.513-5.282C1897.306,1512.406,1886.405,1519.109,1880.3,1524.528Z" fill="#e8945b"/><path d="M1783.781,1530.167c34.513,21.915,178.286,6.243,179.462-14.968,0,0-7.11-53.138-9.536-75.393-1.006-9.248-1.469-16.646-.886-20.508,14.954-98.95,27.506-215.5,25.983-237.782-.216-3.137-.368-4.757-.368-4.757s-10.789-.909-27.2-1.548c-47.711-1.883-142.951-1.556-158.774,29.645-16.12,31.784-16.517,216.43-16.517,216.43C1775.942,1472.072,1783.781,1530.167,1783.781,1530.167Z" fill="#f99746"/><path d="M1953.707,1439.806c-1.006-9.248-1.469-16.646-.886-20.508,14.954-98.95,27.506-215.5,25.983-237.782-.216-3.137-.368-4.757-.368-4.757s-10.789-.909-27.2-1.548c-24.681,14.539-40.745,39.309-40.745,39.309S1915.46,1399.691,1953.707,1439.806Z" fill="#ed7d2b"/><path d="M1887.7,790c0-12.871-7.4-22.161-21.672-23.048-10.466-.65-24.941,5.7-24.941,18.57S1851.522,813.3,1864.4,813.3A23.306,23.306,0,0,0,1887.7,790Z" fill="#bbd2ef"/><path d="M1867.82,883.035s56.025-50.456,12.918-89.225a32.36,32.36,0,0,0-14.75-7.553c-15.082-3.289-48.591-7.911-65.541,10.816-18.252,20.167-25.468,35.507-10.251,53.894S1867.82,883.035,1867.82,883.035Z" fill="#d5e5fb"/><path d="M1940.976,1217.206a70.076,70.076,0,0,0-1.478,21.251c1.442,16.237,4.41,25.143,14.938,30.418,0,0,12.166,8.321,14.03-2.492s-1.827-11.192,1.108-26.355.721-26.7-8-33.524Z" fill="#ffb27d"/><path d="M1817.315,882.519s.758,8.315,2.171,19.55c.686,5.491,1.524,11.683,2.514,17.939.7,4.493,1.484,9.025,2.338,13.358l19.088,64.468,44.822-72.535s-10.533-8.714-24.808-55.946c-.136-.5-.233-.775-.233-.775Z" fill="#ffb27d"/><path d="M1791.2,1200.571c-.582,7.245,1.253,8.562,1.253,8.562s27.563,9.991,96.875,6.536q11.252-.562,21.163-1.149c44.671-2.633,68.563-5.387,68.563-5.387s36.588-84.45-32.151-188.5a333.323,333.323,0,0,0-27.562-35.949c-11.132-12.7-13.59-29.685-17.8-45.829-1.205-4.627,2.282-5.649.542-10.014,0,0-12.536-3.543-13.829-3.543-7.118,6.272-16.51,18.465-39.819,20.875-15.76,1.644-21.929-7.238-24.171-12.56-6.009,2.17-12.233,5.921-17.332,8.371-42.237,20.277-46.116,59.6-46.116,59.6s38.814,127.629,41.224,143.565C1803.111,1152.237,1794.206,1163.258,1791.2,1200.571Z" fill="#f9ddbf"/><path d="M1819.486,902.069c.686,5.491,1.524,11.683,2.514,17.939,48.96-19.055,42.731-45.732,41.44-50.655-.136-.5-.233-.775-.233-.775S1838.095,886.405,1819.486,902.069Z" fill="#e8945b"/><path d="M1809.313,908.448s54.819,1.759,55.389-32.4,8.029-56.932-26.948-59.5-42,10.353-44.959,21.707S1795.066,907.11,1809.313,908.448Z" fill="#ffb27d"/><path d="M1804.524,811.435s3.441,65.081,70.272,58.963C1874.8,870.4,1873.374,783.368,1804.524,811.435Z" fill="#d5e5fb"/><path d="M1817.315,817.1s-19.809,12.088-25.963,31.469C1791.352,848.573,1769.261,817.785,1817.315,817.1Z" fill="#d5e5fb"/><path d="M1910.488,1214.52c44.671-2.633,68.563-5.387,68.563-5.387s36.588-84.45-32.151-188.5C1932.983,1053.072,1900.162,1139.765,1910.488,1214.52Z" fill="#f2ccaa"/><path d="M1888.248,925.3s53.035,10.882,76.661,38.241c18.1,20.964,37.909,123.462,37.909,140.4,0,16.182-18.6,102.23-30.216,118.727a3.842,3.842,0,0,1-3.546,1.632l-29.867-3.167a4.39,4.39,0,0,1-3.876-5.035l16.782-108.772-58.9-104.472S1858.458,961.686,1888.248,925.3Z" fill="#f9ddbf"/><path d="M1940.766,1224.32s-7.857,22.605-5.762,24.7,7.6-7.071,7.6-7.071Z" fill="#ffb27d"/><path d="M1802.506,885.414s1.625,5.587,4.244,6.11,6.81,1.4,10.477,0a8.076,8.076,0,0,0,4.713-4.364A44.4,44.4,0,0,0,1802.506,885.414Z" fill="#fff"/><path d="M810.318,1223.979l-14.455,2.675s-39.556-60.982-40.692-79.575c-1.1-17.757-36.742-95.466,4.989-143.983a77.558,77.558,0,0,1,6.146-6.4,2.4,2.4,0,0,1,.237-.227s.073.113.207.341c.847,1.415,4.163,7.406,8.047,20.648,6.084,20.7,13.6,59.126,15.381,125.493C790.178,1142.947,799.886,1199.768,810.318,1223.979Z" fill="#f4a671"/><path d="M810.318,1223.979s13.166,14.652,13.569,20c.533,7.081-4.948,18.745-8.522,17.612s-4.014-6.874-5.047-11.263-5.725-9.1-5.453-7.117,3.024,9.793,2.173,11.042-1.883,1.018-3.912-2.723c-2.436-4.49-7.7-10.756-7.011-15.382.739-4.977.839-6.047-1.039-12.046s-5.024-13.2-5.024-13.2l11.165-2.381Z" fill="#f4a671"/><path d="M500.4,1633.575l-17.261,8.947a289.938,289.938,0,0,1-19.55-29.7c-6.454-11.378-12.384-24.134-13.835-34.586-3.525-25.381-30.392-67.089-27.6-74.193s56.076-19.39,56.076-19.39,10.416,71.309,17.342,117.405C497.6,1615.513,499.318,1626.818,500.4,1633.575Z" fill="#ffb27d"/><path d="M500.4,1633.575l-17.261,8.947a289.938,289.938,0,0,1-19.55-29.7,68.425,68.425,0,0,0,31.986-10.764C497.6,1615.513,499.318,1626.818,500.4,1633.575Z" fill="#fff"/><path d="M461.18,1500.947s-21.811,30.776-35.022,74.024c-3.107,10.193-13.7,22.879-24.41,34.149-10.39,10.941-20.886,20.547-24.767,25.275l-17.582-8.457a234.716,234.716,0,0,1,15.321-33.812,95.5,95.5,0,0,1,11.235-16.265c5.6-6.267,3.756-85.419,9.33-90.635S461.18,1500.947,461.18,1500.947Z" fill="#ffb27d"/><path d="M411.694,1359.787l.087.05C411.706,1359.874,411.694,1359.787,411.694,1359.787Z" fill="#ffb27d"/><path d="M456.772,1386.986l-44.991-27.149c.249-.1,1.159-1.458,4.523-11.189a54.318,54.318,0,0,0,2.567-10.6c.037-.286.074-.561.1-.835a29.006,29.006,0,0,0,.125-6.541l9.855,3.563,18.229,6.6c-.212,4.622.436,7.874,1.42,10.1,2.379,5.42,6.815,5.457,6.94,5.457Z" fill="#ffb27d"/><path d="M448.6,1350.94a33.8,33.8,0,0,1-29.728-12.895c-.325-.424-.486-.66-.486-.66l.585-.175c1.433-.424,5.32-1.595,9.98-2.978l18.229,6.6C446.967,1345.458,447.615,1348.71,448.6,1350.94Z" fill="#ed985f"/><path d="M449.481,1344.613s-39.14,4.3-39.941-22.167-6.588-38.576,20.494-40.934,33.477,7.4,35.073,16.35C470.092,1325.835,460.508,1343.426,449.481,1344.613Z" fill="#ffb27d"/><path d="M376.481,1254.768c-.546-1.223-.935-2.02-.935-2.02A6.528,6.528,0,0,1,376.481,1254.768Z" fill="#d35c2b"/><path d="M462.063,1359.048s37.531-28.836,41.537-38.384,21.235-44.492,25.687-48.053c0,0,9.33-1.2,10.665,5.257s-8.885,44.791-16.007,56.364-41.248,50.809-52.454,56.5Z" fill="#ffb27d"/><path d="M553.271,1254.947c-.619,3.342-1.98,6.931-3.589,8.787-2.1,2.476-5.445,7.426-7.549,10.644-1.361,1.98-2.228,3.466-2.228,3.466l-10.643-5.2s-.247-18.069,6.807-21.906c.248-.124.371-.248.618-.248a44.356,44.356,0,0,1,8.292-3.465c3.342-.866,5.941-.99,7.426-.123C553.766,1247.647,554.014,1251.235,553.271,1254.947Z" fill="#ffb27d"/><path d="M432.137,1294.44c-13.849-3.506-8.554,21.032-12.053,19.352-3.916-1.88-10.644-1.851-9.583,2.876s2.6,6.419,3.394,9.37-.006,8.8-3.226,7.619-33.172-35.379-12.024-62.019,84.21-10.23,64.353,17.636C459.505,1294.175,442,1296.936,432.137,1294.44Z" fill="#03566e"/><path d="M498.043,1552.128s-38.506,8.072-56.858,5.588c-24.715-3.347-46.625-3.912-69.756-16.392,0,0,12.291-61.057,13.048-64.021,1.086-4.274,8.947-37.079,16.211-67.437,6.642-27.758,12.784-53.468,12.784-53.468s18.33,13.025,29.013,8.431,9.312-9.793,9.312-9.793,6.988-2.821,10.264-1.78,12.58-4.237,12.58-4.237,10.273,7.94,10.665,24.989a46.672,46.672,0,0,1-.535,8.181l-7.415,8.546S494.1,1492.97,498.043,1552.128Z" fill="#f99746"/><path d="M528.99,1654.772H477.449a65.291,65.291,0,0,1,.2-15.552,4.392,4.392,0,0,1,1.273-2.351,18.6,18.6,0,0,0,12.383-.026,25.483,25.483,0,0,0,9.116-5.671c.534.517,11.181,10.665,16.1,10.665C521.574,1641.837,529.284,1644.268,528.99,1654.772Z" fill="#aa443e"/><path d="M401.748,1609.12c-10.39,10.941-20.886,20.547-24.767,25.275l-17.582-8.457a234.716,234.716,0,0,1,15.321-33.812A37.6,37.6,0,0,0,401.748,1609.12Z" fill="#fff"/><path d="M380.79,1629.849s-.643,11.189,3.087,12.673,10.683,5.152,10.683,12.252H368.744s-17.806-8.757-20.18-12.477,11.862-19.6,11.862-19.6S369.173,1632.367,380.79,1629.849Z" fill="#aa443e"/><path d="M423.505,1448s11.3-2.11,15.726.783,5.729,7.424,2.545,9.275c-9.977,5.8-20.091-.613-20.091-.613Z" fill="#ffb27d"/><path d="M413.928,1359.938s-34.818,7.371-48.55,61.5a16.413,16.413,0,0,0,3.706,15.007c6.313,7,20.233,17.231,52.6,21,3.534.412,4.009-8.555,4.009-8.555-.352.715-21.988-13.979-31.2-21.876-1.666-1.428-1.6-4.426-.393-6.261,3.112-4.749,8.332-12.959,10.087-17.172C406.752,1397.432,423.659,1362.728,413.928,1359.938Z" fill="#ffb27d"/><path d="M413.476,1356.4s-20.471,1.456-37.163,23.712c0,0,5.648,20.473,32.165,25.938C408.478,1406.047,424.822,1369.185,413.476,1356.4Z" fill="#f99746"/><path d="M408.478,1263.508s-19.692-5.361-32.932,9.015,6.042,40.731-12.473,55.161-11.2,25.2-3.674,28.713c16.914,7.9,42.758-1.933,37.5-15.269a48.307,48.307,0,0,1,4.849-45.158Z" fill="#03566e"/><path d="M676.029,1488.792c.018.171.036.333.054.495.036.3.072.566.081.8a357.517,357.517,0,0,0,11.312,57.115,472.071,472.071,0,0,0,32.1,83.658l15.708-1.457s-8.587-36.533-9.333-86.148c-.513-34.7,2.8-75.781,15.573-115.246,7.473-23.09,13.389-45.075,18.056-65.675,15.222-67.212,17.183-119.57,16.814-146.833-.18-13.451-.926-20.8-.926-20.8l-88.3,12.463-4.118.584c.593,40.679.863,95.923.98,139.119.027,10.412.045,20.132.063,28.773.018,11.986.027,21.913.027,28.773v10.412c-5.036,11.555-7.778,24.512-8.812,38.206A205.167,205.167,0,0,0,676.029,1488.792Z" fill="#f99746"/><path d="M709.92,1614.159c-.386-2.056-.929-4.666-1.549-7.522a484.369,484.369,0,0,1-20.889-59.433c22.241,1.857,33.2-1.136,38.473-3.952a481.488,481.488,0,0,0,3.447,50.489c2.321,8.694,6.586,22.577,11.471,28.4,7.776,9.26,16.343,17.223,26.68,22.461,1.157.583-25.875,10.091-39.7,8.64s-25.237-3.9-23.974-12.456a35.144,35.144,0,0,1,2.414-8.846C708.516,1626.905,711.069,1620.276,709.92,1614.159Z" fill="#ffb27d"/><path d="M676.029,1488.792c-1.4-16.185,26.229-72.076,26.229-72.076l-18.136-12.3v10.412c-5.036,11.555-7.778,24.512-8.812,38.206A205.167,205.167,0,0,0,676.029,1488.792Z" fill="#e07d32"/><path d="M728.939,1655.663c13.879-.729,10,2.527,29.271,4.013s26.327-4.471,27.434-7.168c.988-2.394-8.174-5.038-17.961-8.086l-.13.175a54.184,54.184,0,0,1-28.629,3.283c-12.866-2.114-25.738-8.354-34.61-9.886a33.87,33.87,0,0,0-1.478,8.9C702.925,1655.533,715.061,1656.393,728.939,1655.663Z" fill="rgba(3,86,110,0.78)"/><path d="M683.052,1207.75c.593,40.679.863,95.923.98,139.119.027,10.412,18.21,61.2,18.228,69.844,14.7-20.95,27.425-165.8,47.782-202.45-.179-13.452,25.426-19.56,25.426-19.56l-88.3,12.463Z" fill="#e07d32"/><path d="M669.1,828.344c-.523-1.83-7.171-22.465-39.358-15.616,0,0,16.117-2.03,20.535,4.178,0,0-12.775-5.85-20.774-.955s-9.312,21.37-8.118,26.384,10.029,19.938,15.879,19.938a17.326,17.326,0,0,0,6.674-1.652,76.943,76.943,0,0,0-2.376,8.7c-6.213,29.235,13.228,51.456,23.28,45.964,6.447-3.522,11.327,7.761,11.327,7.761l53.5-70.917S692.383,807.328,669.1,828.344Z" fill="#03566e"/><path d="M753.147,1173c-24.276-77.6,2.328-94.469-.2-133.3s-32.593-80.584-32.593-80.584-1.531-.155-4.127-.39c-2.018-1.062-2.555-9.506-2.531-18.414.025-10.69.845-22.037.845-22.037l-36.057-7.14-2.144-.422c.09,25.1-6.518,41.573-11.3,45.409-4.506.516-23.713,2.934-35.549,7.882-4.463,1.863-7.867,4.086-9.057,6.694-9.9,21.772-19.786,76.718-26.735,115.913-3.872,21.846-6.825,38.8-8.367,42.4-4.3,10.024-17.432,65.183-28.655,92.4l10.176,12.5s51.432-86.643,55.73-107.053c1.4-6.645,4.84-19.943,8.852-34.84.606-2.254,1.226-4.546,1.853-6.857,7.084,19.211,10.7,28.1,10.5,36.4-.279,11.811-8.288,22.427-25.028,59.97C609.509,1202.273,777.932,1252.251,753.147,1173Z" fill="#ffb27d"/><path d="M714.54,923.986s-.82,11.347-.845,22.037c-20.176-.569-30.842-18.975-35.212-29.177Z" fill="#e8945b"/><path d="M674.759,912.921s-10.573-16.707-13.111-30.993c-1.812-10.2,3.383-48,41.373-42.559a51.613,51.613,0,0,1,21.406,8.092c8.248,5.571,20.152,17.6,6.842,50.587l-3.458,11.144Z" fill="#263238"/><path d="M721.278,934.108s-47.738.788-47.771-28.949-6.216-49.661,24.262-51.421,36.413,9.58,38.837,19.5S733.7,933.137,721.278,934.108Z" fill="#ffb27d"/><path d="M697.4,1429.336c-3.032,5.686-33.073,41.8-63.246,81.789-2.585,3.417-5.266,7.106-8.01,10.98-17.78,25.045-38.252,57.7-50.485,73.595-11.121,14.451-21.112-3.645-15.5-16.553,8.851-20.367,16.352-55.973,24.923-82.175a169.463,169.463,0,0,1,6.134-16.37c9.228-20.638,24.79-49.524,46.655-71.906,3.794-3.881-29.294-90.288-26.928-161.754.929-28.323,4.872-53.229,13.9-68.407l89.816,4.452S726.941,1373.872,697.4,1429.336Z" fill="#f99746"/><path d="M735.187,856.707c-7.367-8.929-12.937-6.988-16.064-4.306-25.6-14.2-42.922,6.878-42.922,6.878a56.8,56.8,0,0,1-18.579,33.558s8.7,5.375,28.76.217c6.121-1.574,11.589-5.918,16.236-11.193a111.416,111.416,0,0,1-19.155,23.392c23.96-11.076,33.581-44.4,34.54-47.925,2.914,2.617,8.659,8.3,10.41,13.875,2.379,7.572,3.45,23.16,7.993,22.63C736.406,893.833,746.254,870.121,735.187,856.707Z" fill="#03566e"/><path d="M557.85,1218.845s-4.358,10.267-8.895,13.133a14.067,14.067,0,0,0-6.177,14.335c1.194,5.492-1.225,15.034,4.506,15.034s19.1-25.311,20.773-30.086,3.1-5.731,3.1-5.731Z" fill="#ffb27d"/><path d="M607.5,1213.92a22.2,22.2,0,0,0,.559,7.33c1.911,6.142,8.474,8.94,24.338,7.264,9.7-1.031,14.02-17.627,15.948-31.786q8.736,30.387,24.52,34.014c15.381,3.494,98.49,9.369,103.569-28.3,5.586-41.428-16.663-111.027-17.582-150.579a199.784,199.784,0,0,0,2.814-36.653c-.648-28.176-8.745-43.968-14.971-50.327-1.763-1.382-3.528-2.245-10.607-3.485-3.618-.629-8.63-1.357-15.734-2.312a29.744,29.744,0,0,0-2.989-.292c1.312,2.4,15.434,23.63,14.064,30.618-1.435,7.314-55.731,6.259-60.029,2.237s-15.516-34.356-15.516-34.356-22.067,2.463-32.863,10.48l.115.143a9.223,9.223,0,0,0-2.838,3.05c-11.518,22.394-23.019,78.911-31.107,119.226,19.606,11.034,36.734,7.749,42.05,6.292C624.293,1142.916,608.534,1192.766,607.5,1213.92Z" fill="#fff"/><path d="M707.561,916.551s.909,3.66,10.034,2.986c0,0,7.662-.564,7.38-4.6C724.975,914.941,717.506,912.159,707.561,916.551Z" fill="#fff"/><path d="M626.144,1522.1c-17.78,25.045-38.252,57.7-50.485,73.595-11.121,14.451-21.112-3.645-15.5-16.553,8.851-20.367,16.352-55.973,24.923-82.175C590.837,1505.727,602.6,1517.031,626.144,1522.1Z" fill="#ffb27d"/><path d="M565.952,1229.064s2.622,11.363.716,14.933-.625,8.214-4.457,6.9S565.952,1229.064,565.952,1229.064Z" fill="#ffb27d"/><path d="M538.226,1585.171c-7.243,4.721-1.447,15.417,6.626,26.729s3.24,9.789,12.345,26.842,17.917,19.8,20.787,19.285c2.549-.454-.144-9.6-2.833-19.494-.341-1.242-.672-2.495-1-3.749-2.926-11.212.84-21.783,2.623-33.742,1.689-11.327,18.047-33.761,18.047-33.761L583.1,1543.586s-14.373,20.633-20.868,28.987c-3.82,4.914-10.477,7.4-15.715,9.065A33.828,33.828,0,0,0,538.226,1585.171Z" fill="#ffb27d"/><path d="M544.852,1611.9c8.073,11.314,3.24,9.789,12.345,26.842s17.917,19.8,20.787,19.285c2.549-.454-.144-9.6-2.833-19.494l-.217-.015a54.167,54.167,0,0,1-18.152-22.379c-5.131-11.988-6.786-26.2-10.261-34.5a33.828,33.828,0,0,0-8.295,3.533C530.983,1589.892,536.779,1600.588,544.852,1611.9Z" fill="rgba(3,86,110,0.79)"/><path d="M740.443,962.264s14.382-.066,24.429,19.266,25.18,82.181,25.18,82.181S772.4,1083.4,751.723,1078.9,740.443,962.264,740.443,962.264Z" fill="#fff"/><path d="M2068.371,1653.894l-1.5-442.8s-3.381-31.911-31.2-32.076c-29.686-.177-31.579,31.7-31.579,31.7a3.373,3.373,0,0,0,3.456,2.776,3.593,3.593,0,0,0,3.733-2.734s1.46-24.577,24.347-24.442c21.447.128,24.054,24.73,24.054,24.73l-2.631,442.776Z" fill="#233862"/><path d="M2053.232,1653.8l18.463.11-1.53-19.316s.174-2.681-3.556-2.856c-3.465-.161-10.307-.7-10.97,1.4C2055.056,1634.977,2053.232,1653.8,2053.232,1653.8Z" fill="#233862"/><path d="M2035.581,1155.551l-1.3,6.325s-31.3-.3-38.823,33.2c0,0-2.069,13.948,8.014,11.028s8.558-10.052,22.833-13.871,23.578-6.752,25.8-17.113l2.4-11.53Z" fill="#ffb27d"/><path d="M2147.908,881.675s-8.474,32.531-15.795,62.276c-2.947,11.982-5.7,23.507-7.652,32.273-1.988,9.006-3.124,15.1-2.706,15.785,6.15,10.116-5.56,71.513-14.665,93.78-.8,1.975-1.907,4.287-3.233,6.854-12.695,24.526-46.39,72.611-46.39,72.611s-9.431.93-15.582-1.433c-5.13-1.98-8.609-8.287-8.609-8.287,3.018-4.792,15.445-61.525,31.187-93.283,6.735-13.585,17.288-139.941,30.276-156.885C2105.573,891.232,2147.908,881.675,2147.908,881.675Z" fill="#f99746"/><path d="M2121.755,992.009c6.15,10.116-5.56,71.513-14.665,93.78-.8,1.975-1.907,4.287-3.233,6.854-11.676-53.12,8.644-128.152,8.644-128.152,4.948,1.995,8.884,6.106,11.96,11.733C2122.473,985.23,2121.337,991.329,2121.755,992.009Z" fill="#ed7d2b"/><path d="M2205,1605.932s2.9,48.03-6.166,48.648c-1.207.082-45.986-.183-45.986-.183l-57.761-.346s1.057-14.1,17.782-16.91,44.764-14.389,55.017-36.413C2178.672,1577.559,2205,1605.932,2205,1605.932Z" fill="#0f2949"/><path d="M2291.875,1606.448s2.9,48.03-6.166,48.648c-1.207.083-45.986-.184-45.986-.184l-57.761-.346s1.057-14.1,17.783-16.909,44.763-14.389,55.016-36.413C2265.548,1578.074,2291.875,1606.448,2291.875,1606.448Z" fill="#263238"/><path d="M2208.423,1490.226c1.3,20.311,4.042,46.434,2.871,69.959-1.641,32.9-2.847,60.639-2.847,60.639-21.739,7.248-61.49-1.937-61.49-1.937s-13.626-83.239-24.861-149.688c-5.04-29.773-9.216-55.529-10.762-67.688-5-39.3,7.045-248.045,7.045-248.045s58.925-37.276,83.064-17.733,38.947,38.581-1.392,250.82C2196.988,1402.652,2205.509,1444.731,2208.423,1490.226Z" fill="#03566e"/><path d="M2208.423,1490.226c1.3,20.311,3.726,52.817,2.556,76.343-20.281-21.718-60.228-67.524-88.883-97.37-5.04-29.773-9.216-55.529-10.762-67.688-5-39.3,7.045-248.045,7.045-248.045s58.925-37.276,83.064-17.733,38.947,38.581-1.392,250.82C2196.988,1402.652,2205.509,1444.731,2208.423,1490.226Z" fill="#263238"/><path d="M2171.4,1158.027s4.031,209.053,12.037,247.856,49.944,216.466,49.944,216.466,40.277,3.91,61.393-4.987c0,0-.853-82.171-7.711-130.486-6.409-45.136-18.135-86.44-16.322-102.727,23.913-214.708,7.677-232.555-17.889-250.184S2171.4,1158.027,2171.4,1158.027Z" fill="#03566e"/><path d="M2250.959,1176.8s-14.13,27.936,12.584,49.508c0,0,11.591,8.03,13.436-2.3s-.235-6.743,2.661-21.232-.61-29.513-8.916-36.093Z" fill="#ffb27d"/><path d="M2135.289,834.236s15.77,25.589,12.419,48.431l23.71,56.606,42.29-65.023s-21.453-25.377-29.738-59.155Z" fill="#ffb27d"/><path d="M2128.1,855.1s58.674,2.889,59.95-32.337,17.276-58.569-26.6-61.926c-36.083-2.761-48.173,12.221-51.459,23.875S2106.356,853.078,2128.1,855.1Z" fill="#ffb27d"/><path d="M2269.918,1168.685c-12.616,1.1-29.983,2.449-51.055,3.648q-6.313.357-13.057.7c-63.616,3.183-88.833-7.265-88.833-7.265s-1.678-1.373-1.1-8.837c2.991-38.444,11.226-49.754,10.283-57.07-2.115-16.438-41.171-150.723-41.171-150.723s-.515-42.348,46.7-61.942a111.551,111.551,0,0,1,16.157-5.263c2.03,5.492,7.629,14.679,22.1,13.079,21.393-2.364,36.689-14.875,43.254-21.3,1.182.007,1.649.047,1.649.047a129.167,129.167,0,0,1,3.861,13.995c3.763,16.667,5.917,34.191,16.055,47.342a358.55,358.55,0,0,1,25.842,38.29,317.8,317.8,0,0,1,15.695,30.575C2317.435,1096.344,2284.764,1167.38,2269.918,1168.685Z" fill="#f99746"/><path d="M2269.918,1168.685c-12.616,1.1-29.983,2.449-51.055,3.648-5.527-103.551,37.242-202.72,37.242-202.72a37.3,37.3,0,0,1,4.5,3.768c7.3,7.18,12.361,17.8,15.695,30.575C2288.58,1050.967,2277.61,1127.16,2269.918,1168.685Z" fill="#ed7d2b"/><path d="M2109.378,821.378s-11.694,45.26,7.657,51.758,70.854,1.69,71.163-53.881c0,0-27.107,15.95-40.008,15.465s-21.184-7.978-33.143-2.233C2115.047,832.487,2110.685,832.171,2109.378,821.378Z" fill="#d5e5fb"/><path d="M2214.837,873.749s41.018,1.167,62.526,29.5c16.481,21.709,33.349,137.77,33.244,155.229s-19.374,113.7-29.906,124.111a39.452,39.452,0,0,1-15.817-.094,32,32,0,0,1-15.207-7.5s5.847-107.246,5.907-117.308c.087-14.569-44.93-104.014-44.93-104.014S2187.285,911.1,2214.837,873.749Z" fill="#f99746"/><path d="M2185.59,771.934c-.965-3.6-5.385-5.518-5.385-5.518-32.97-14.594-57.212,1.016-57.212,1.016,20.421-27.076,69.282-21.076,79.436,3.515,16.578,40.151-14.231,48.308-14.231,48.308s-30.638-13.089-12.755-29.163c5.925-5.326,8.8-10.076,9.773-14.218h0A14.2,14.2,0,0,0,2185.59,771.934Z" fill="#d5e5fb"/><path d="M2118.971,839.781s3.871,6.112,10.632,5.894a12.442,12.442,0,0,0,9.939-5.894S2128.134,837.6,2118.971,839.781Z" fill="#fff"/><path d="M3.255,0H2962.706a3.254,3.254,0,0,1,3.254,3.254v.869a3.254,3.254,0,0,1-3.254,3.254H3.255A3.255,3.255,0,0,1,0,4.123V3.255A3.255,3.255,0,0,1,3.255,0Z" transform="translate(121.998 1654.774)" fill="#2e3552"/></g></svg>