<svg xmlns="http://www.w3.org/2000/svg" width="566.107" height="460.371" viewBox="0 0 566.107 460.371"><g transform="translate(-1794.234 -262.874)"><path d="M2358.814,479.131a233.817,233.817,0,0,1-7.151,36.353,249.843,249.843,0,0,1-28.661,64.5c-49.8,79.943-142.749,134.9-237.749,142.379-48.975,3.875-98.519-4.886-142.949-29.344-38.5-21.2-75.385-51.867-102.721-88.69-14.387-19.387-26.139-40.484-34.06-62.806-9.173-25.827-13.233-53.276-10.4-81.61,8.576-85.669,75.285-149.957,160.528-157.393,30.854-2.692,63.632-1.866,98.29-5.185,33.518-3.219,62.265-28.177,96.994-32.792a191.954,191.954,0,0,1,103.59,14.957,174.619,174.619,0,0,1,72.721,60.841,183.353,183.353,0,0,1,19.615,37.222,198.146,198.146,0,0,1,12.522,53.874A232.419,232.419,0,0,1,2358.814,479.131Z" fill="#bd9fd9"/><path d="M2213.09,491.314a88.655,88.655,0,1,0-88.653-88.656A88.757,88.757,0,0,0,2213.09,491.314Z" fill="#ffdc35"/><path d="M2141.72,598.49c-6.724,4.031-15,4.2-22.849,4.245-3.291.014-6.581.042-9.886.057l-264.231,1.538q-2.563.021-5.171,0c-14.387-19.387-26.139-40.484-34.06-62.806a32.671,32.671,0,0,1,22.678-3.675c-13.119-52.023,20.485-117.607,74.886-129.431,26.51-5.769,56.154,2.607,78.476,17.052,7.408,4.786,57.422,50.213,46.012,61.268,19.131-18.533,53.547-17.693,71.752,1.766s16.723,53.86-3.049,71.709a184.1,184.1,0,0,1,41.71,11.211c3.945,1.581,8.062,3.49,10.384,7.051C2152.646,585.071,2148.458,594.444,2141.72,598.49Z" fill="#fcf3e3"/><path d="M2358.814,479.131a233.817,233.817,0,0,1-7.151,36.353c-54.2-.484-127.735-2.863-155.37-3.689-9.416-.286-20.5-1.667-25-9.93-5.656-10.369,4.8-31.224,14.7-37.677,15.969-10.428,32.792-12.636,53.889-5.8-2.877-2.878-2.735-7.521-2.251-11.581,2.294-19.616,10.827-37.393,30.941-43.462,13.775-4.159,29.7-3.291,42.25,4.145,2.935,1.738,8.818,4.274,9.146,8.291-1.325-16.4,8.718-29.886,23.262-36.652,1.182-.542,2.393-1.069,3.632-1.567a198.146,198.146,0,0,1,12.522,53.874A232.419,232.419,0,0,1,2358.814,479.131Z" fill="#fcf3e3"/><path d="M2323,579.985c-49.8,79.943-142.749,134.9-237.749,142.379,7.763-25.342,29.8-45.626,56.624-53.02,2.649-.726,40.783-6.7,40.2-.626,4.1-42.137,30.47-70.77,70.513-87.864C2276.093,570.826,2301.549,570.185,2323,579.985Z" fill="#fcf3e3"/><path d="M2053.836,414.887a6.185,6.185,0,1,1-6.185-6.186A6.185,6.185,0,0,1,2053.836,414.887Z" fill="#fff"/><circle cx="7.247" cy="7.247" r="7.247" transform="translate(1988.713 667.698) rotate(-80.783)" fill="#fff"/><path d="M2204.127,554.031a3.624,3.624,0,1,1-3.623-3.623A3.624,3.624,0,0,1,2204.127,554.031Z" fill="#fff"/><path d="M1878.112,368.659a3.624,3.624,0,1,1-3.623-3.623A3.623,3.623,0,0,1,1878.112,368.659Z" fill="#fff"/><path d="M2301.746,526.071a3.623,3.623,0,1,1-3.623-3.623A3.623,3.623,0,0,1,2301.746,526.071Z" fill="#fff"/><path d="M2121.795,296.32a3.623,3.623,0,1,1-3.623-3.624A3.623,3.623,0,0,1,2121.795,296.32Z" fill="#fff"/></g></svg>