<svg xmlns="http://www.w3.org/2000/svg" xmlns:xlink="http://www.w3.org/1999/xlink" width="414.699" height="414.699" viewBox="0 0 414.699 414.699"><defs><clipPath id="a"><circle cx="146.618" cy="146.618" r="146.618" transform="translate(0 207.35) rotate(-45)" fill="#fcd9d9"/></clipPath></defs><g transform="translate(-28.363 -27.116)"><g transform="translate(28.363 27.116)"><circle cx="146.618" cy="146.618" r="146.618" transform="translate(0 207.35) rotate(-45)" fill="rgba(3,86,110,0.26)"/><g clip-path="url(#a)"><rect width="131.192" height="252.977" rx="2.411" transform="translate(138.521 121.191)" fill="rgba(38,50,56,0.5)"/><g transform="translate(303.15 162.758)"><rect width="71.213" height="56.823" rx="2.411" transform="translate(1.879 1.88)" fill="rgba(38,50,56,0.5)"/><path d="M386.4,245.1H331.647A10.117,10.117,0,0,1,321.541,235V194.629a10.118,10.118,0,0,1,10.106-10.109H386.4a10.119,10.119,0,0,1,10.108,10.109V235A10.118,10.118,0,0,1,386.4,245.1ZM331.647,188.28a6.357,6.357,0,0,0-6.348,6.35V235a6.357,6.357,0,0,0,6.348,6.35H386.4a6.358,6.358,0,0,0,6.35-6.35V194.629a6.358,6.358,0,0,0-6.35-6.35Z" transform="translate(-321.541 -184.521)" fill="rgba(38,50,56,0.5)"/></g><g transform="translate(59.109 191.683)"><rect width="71.072" height="129.922" rx="2.752" transform="translate(1.879 1.88)" fill="rgba(38,50,56,0.5)"/><path d="M149.089,346.176H96.8a11.281,11.281,0,0,1-11.268-11.269V223.764A11.282,11.282,0,0,1,96.8,212.494h52.293a11.282,11.282,0,0,1,11.269,11.27V334.908A11.282,11.282,0,0,1,149.089,346.176ZM96.8,216.253a7.518,7.518,0,0,0-7.509,7.511V334.908a7.519,7.519,0,0,0,7.509,7.51h52.293a7.519,7.519,0,0,0,7.509-7.51V223.764a7.518,7.518,0,0,0-7.509-7.511Z" transform="translate(-85.528 -212.494)" fill="#03566e"/></g><path d="M355.91,351.531c2.406,6.58,1.279,12.785-2.557,15.041-3.835,2.218-8.121.526-8.121.526s-.376,6.241-3.948,9.024c-5.979,4.662-13.874.79-13.874.79s-.151,2.256-7.145,3.76c-10.3,2.218-16.206-3.233-16.206-3.233s-1.917,5.114-9.587,5.451a10.623,10.623,0,0,1-3.534-.789c-4.588-1.654-11.92-5.641-19.7-10.416-.037,0-.075-.037-.113-.075-6.618-4.061-13.575-8.723-19.439-12.972-6.28-4.587-11.318-8.724-13.386-11.28-8.723-10.716-21.883-59.409-29.591-68.809a21.273,21.273,0,0,0-1.73-1.88,16.351,16.351,0,0,0-10.528-4.812,23.886,23.886,0,0,0-5.979.3c3.423-14.777,11.168-26.847,21.169-33.352a33.168,33.168,0,0,1,9.175-4.21c.037-.038.075-.038.15-.038,1.73-.225,4.4-.6,7.559-1.053a.051.051,0,0,0,.074,0c10.679-1.391,27.449-3.271,38.354-1.654,15.04,2.219,31.02,8.611,40.646,13.762,9.588,5.114,27.523,20.793,34.216,23.35,6.73,2.557,15.379,4.174,15.679,8.949a12.2,12.2,0,0,1-.864,5.189,13.974,13.974,0,0,1-11.28,9.212c-8.949,1.279-19.515-2.857-24.327-4.775-4.776-1.955-9.927-6.091-11.506-4.173-1.616,1.917,7.52,24.854,15.191,34.066C331.771,325.888,352.226,341.417,355.91,351.531Z" transform="translate(-22.85 -20.174)" fill="rgba(3,86,110,0.47)"/></g></g><path d="M363.1,164.809l-9.384,11.533a1.216,1.216,0,0,1-1.228.444,1.312,1.312,0,0,1-.99-.887l-7.336-25.524-12.762,49a1.28,1.28,0,0,1-1.228.955H330.1a1.277,1.277,0,0,1-1.194-1.126L314.954,86.6l-13.069,76.912-.034.239c0,.034,0,.034-.034.068a.606.606,0,0,1-.137.341.681.681,0,0,1-.273.341,1.162,1.162,0,0,1-.819.307H252.612l-9.384,11.533a1.193,1.193,0,0,1-1.228.444,1.312,1.312,0,0,1-.99-.887l-7.336-25.524-12.762,49a1.28,1.28,0,0,1-1.228.955h-.068a1.277,1.277,0,0,1-1.194-1.126L204.534,86.566,191.4,163.512l-.034.239a.454.454,0,0,1-.1.273c0,.068-.068.136-.1.2,0,.068-.068.1-.136.171a1.175,1.175,0,0,1-.853.375H189.9l-47.737.034-9.384,11.533a1.272,1.272,0,0,1-1.263.444,1.215,1.215,0,0,1-.955-.887l-7.37-25.524-12.728,49a1.352,1.352,0,0,1-1.263.955h-.068a1.306,1.306,0,0,1-1.194-1.126l-4.538-34.7,2.116-3.822,4.129,31.666,12.25-47.123a1.28,1.28,0,0,1,1.228-.955,1.408,1.408,0,0,1,1.228.921l7.985,27.639,8.223-10.1a1.261,1.261,0,0,1,.99-.478l47.464-.034,14.468-84.658a1.21,1.21,0,0,1,1.3-1.058A1.252,1.252,0,0,1,206,77.626l14.127,114.617,12.25-47.021a1.28,1.28,0,0,1,1.228-.955,1.369,1.369,0,0,1,1.228.921l7.951,27.639,8.223-10.1a1.329,1.329,0,0,1,1.024-.478H299.5l14.366-84.692a1.21,1.21,0,0,1,1.3-1.058,1.285,1.285,0,0,1,1.263,1.126l14.195,114.617,12.25-47.021a1.271,1.271,0,0,1,1.194-.955,1.309,1.309,0,0,1,1.262.921l7.951,27.639,8.223-10.1a1.336,1.336,0,0,1,.341-.273Z" transform="translate(2.552 1.679)" fill="#03566e"/><g transform="translate(155.898 130.936)"><rect width="131.192" height="252.977" rx="2.411" transform="translate(0 3.656)" fill="#03566e"/><rect width="116.022" height="223.725" rx="2.132" transform="translate(7.585 15.628)" fill="#fcf9f9"/><circle cx="11.05" cy="11.05" r="11.05" transform="translate(49.968 15.628) rotate(-45)" fill="#0d84a7"/><path d="M218.471,142.741a3.224,3.224,0,1,1-3.224-3.224A3.224,3.224,0,0,1,218.471,142.741Z" transform="translate(-149.651 -127.113)" fill="#03566e"/><rect width="116.022" height="15.334" transform="translate(7.585 48.974)" fill="#263238"/></g><g transform="translate(171.279 341.039)"><rect width="62.915" height="7.428" transform="translate(31.135 12.75)" fill="#939aa0"/><path d="M192.185,342.446a7.431,7.431,0,0,1-2.955,3.4l-.522.3-8.389,4.8-8.4-4.8-.533-.3a7.5,7.5,0,0,1,.944-13.278,7.486,7.486,0,0,1,7.977,1.277,7.509,7.509,0,0,1,11.878,8.6Z" transform="translate(-166.536 -330.671)" fill="#dd4231"/><path d="M180.35,352.272a1.3,1.3,0,0,1-.485-.1,1.347,1.347,0,0,1-.213-.114L170.8,347a8.786,8.786,0,1,1,9.551-14.741,8.824,8.824,0,0,1,8.484-.827,8.781,8.781,0,0,1,1.1,15.546l-8.918,5.1A1.3,1.3,0,0,1,180.35,352.272Zm-4.99-19A6.221,6.221,0,0,0,172.1,344.8l8.258,4.72,8.28-4.739a6.222,6.222,0,0,0-.815-10.995,6.247,6.247,0,0,0-6.62,1.06,1.279,1.279,0,0,1-1.7,0A6.215,6.215,0,0,0,175.36,333.273Zm16.868,9.215h0Z" transform="translate(-166.578 -330.713)" fill="#dd4231"/></g><g transform="translate(173.008 162.193)"><path d="M255.46,158.988H177.916a8.429,8.429,0,0,0-8.428,8.429v32.4a8.429,8.429,0,0,0,8.428,8.429h2.853s5.925.284,9.19,2.634A17,17,0,0,1,194.9,217.2l.038-8.956H255.46a8.43,8.43,0,0,0,8.429-8.429v-32.4A8.43,8.43,0,0,0,255.46,158.988Z" transform="translate(-168.208 -157.708)" fill="#fcf9f9"/><g transform="translate(0 0)"><path d="M194.94,218.526a1.281,1.281,0,0,1-1.176-.777,15.838,15.838,0,0,0-4.509-5.786c-2.926-2.1-8.451-2.391-8.506-2.395l-2.791,0a9.719,9.719,0,0,1-9.708-9.708v-32.4a9.72,9.72,0,0,1,9.708-9.709H255.5a9.72,9.72,0,0,1,9.708,9.709v32.4a9.719,9.719,0,0,1-9.708,9.708h-2.244a1.28,1.28,0,1,1,0-2.559H255.5a7.157,7.157,0,0,0,7.149-7.149v-32.4a7.157,7.157,0,0,0-7.149-7.15H177.958a7.158,7.158,0,0,0-7.149,7.15v32.4a7.158,7.158,0,0,0,7.149,7.149h2.853c.318.013,6.4.333,9.939,2.876a14.865,14.865,0,0,1,2.93,2.861l.02-4.462a1.28,1.28,0,0,1,1.28-1.275h24.007a1.28,1.28,0,1,1,0,2.559H196.254l-.034,7.681A1.281,1.281,0,0,1,195.2,218.5,1.213,1.213,0,0,1,194.94,218.526Z" transform="translate(-168.25 -157.75)" fill="#263238"/></g><g transform="translate(65.702 49.261)"><path d="M242.418,207.95h-9.346a1.28,1.28,0,1,1,0-2.559h9.346a1.28,1.28,0,1,1,0,2.559Z" transform="translate(-231.791 -205.391)" fill="#939aa0"/></g><g transform="translate(7.912 12.199)"><g transform="translate(0 0.414)"><path d="M181.774,173.94H181.7l-4.249,2.293-.64-2.52,5.339-2.857h2.821v24.436h-3.2Z" transform="translate(-175.871 -169.917)" fill="#03566e"/><path d="M185,196.264h-3.2a.94.94,0,0,1-.94-.94V175.506l-2.937,1.587a.958.958,0,0,1-.825.033.945.945,0,0,1-.533-.63l-.64-2.52a.936.936,0,0,1,.468-1.059l5.338-2.858a.935.935,0,0,1,.444-.112H185a.938.938,0,0,1,.939.94v24.436A.938.938,0,0,1,185,196.264Zm-2.256-1.88h1.316V171.828h-1.646l-4.48,2.4.161.638,3.188-1.721a1.03,1.03,0,0,1,1.461.827Z" transform="translate(-175.902 -169.948)" fill="#03566e"/></g><g transform="translate(17.072)"><path d="M193.321,195.306v-2.03l2.594-2.519c6.239-5.94,9.06-9.1,9.1-12.781,0-2.481-1.2-4.775-4.848-4.775a8.324,8.324,0,0,0-5.188,2.068l-1.054-2.331a10.731,10.731,0,0,1,6.919-2.482c5.263,0,7.481,3.61,7.481,7.107,0,4.509-3.271,8.157-8.421,13.118l-1.954,1.8v.076h10.976v2.744Z" transform="translate(-192.381 -169.517)" fill="#03566e"/><path d="M208.953,196.277h-15.6a.939.939,0,0,1-.94-.94v-2.03a.938.938,0,0,1,.285-.674l2.593-2.52c6.19-5.892,8.779-8.875,8.813-12.116,0-2.534-1.315-3.826-3.91-3.826a7.5,7.5,0,0,0-4.587,1.85.963.963,0,0,1-.811.194.939.939,0,0,1-.646-.529l-1.054-2.331a.939.939,0,0,1,.25-1.105,11.668,11.668,0,0,1,7.525-2.7c5.816,0,8.42,4.041,8.42,8.047,0,5.018-3.609,8.883-8.708,13.795l-.283.264h8.654a.939.939,0,0,1,.94.94v2.744A.939.939,0,0,1,208.953,196.277Zm-14.661-1.88h13.721v-.864H197.977a.939.939,0,0,1-.94-.94,1.118,1.118,0,0,1,.3-.766l1.954-1.805c5.5-5.294,8.119-8.51,8.119-12.427,0-2.845-1.713-6.167-6.541-6.167a9.836,9.836,0,0,0-5.756,1.828l.266.591a8.709,8.709,0,0,1,4.813-1.555c3.624,0,5.788,2.136,5.788,5.715-.039,4.117-3.037,7.416-9.388,13.463l-2.3,2.236Zm3.685-1.88h0Z" transform="translate(-192.412 -169.548)" fill="#03566e"/></g><g transform="translate(36.624 7.293)"><path d="M212.23,179.88a2.24,2.24,0,1,1,4.473,0,2.238,2.238,0,1,1-4.473,0Zm0,13.268a2.24,2.24,0,1,1,4.473,0,2.239,2.239,0,1,1-4.473,0Z" transform="translate(-211.29 -176.57)" fill="#03566e"/><path d="M214.479,196.45a3.291,3.291,0,1,1,3.2-3.3A3.145,3.145,0,0,1,214.479,196.45Zm.037-4.7a1.289,1.289,0,0,0-1.316,1.428,1.3,1.3,0,1,0,2.594,0A1.318,1.318,0,0,0,214.516,191.751Zm-.037-8.57a3.292,3.292,0,1,1,3.2-3.3A3.145,3.145,0,0,1,214.479,183.181Zm.037-4.7a1.29,1.29,0,0,0-1.316,1.43,1.3,1.3,0,1,0,2.594,0A1.319,1.319,0,0,0,214.516,178.481Z" transform="translate(-211.321 -176.601)" fill="#03566e"/></g><g transform="translate(44.031)"><path d="M220.295,191.509a11.071,11.071,0,0,0,5.413,1.541c4.25,0,5.564-2.706,5.527-4.737-.038-3.421-3.121-4.887-6.316-4.887h-1.842v-2.481h1.842c2.406,0,5.451-1.24,5.451-4.136,0-1.954-1.241-3.683-4.285-3.683a8.973,8.973,0,0,0-4.887,1.616l-.865-2.406a11.615,11.615,0,0,1,6.39-1.88c4.812,0,6.993,2.858,6.993,5.827,0,2.519-1.5,4.662-4.512,5.751v.078a6.363,6.363,0,0,1,5.451,6.277c0,3.909-3.045,7.33-8.908,7.33a12.412,12.412,0,0,1-6.353-1.655Z" transform="translate(-218.454 -169.517)" fill="#03566e"/><path d="M225.778,196.69a13.326,13.326,0,0,1-6.87-1.807.944.944,0,0,1-.37-1.1l.9-2.555a.942.942,0,0,1,.582-.577.955.955,0,0,1,.811.1,10.074,10.074,0,0,0,4.906,1.393,4.863,4.863,0,0,0,3.6-1.224,3.606,3.606,0,0,0,.983-2.556c-.034-2.924-2.8-3.963-5.377-3.963h-1.842a.939.939,0,0,1-.94-.94v-2.481a.939.939,0,0,1,.94-.94h1.842c1.813,0,4.511-.851,4.511-3.2,0-1.769-1.188-2.743-3.345-2.743a8.039,8.039,0,0,0-4.341,1.44.939.939,0,0,1-1.431-.446l-.864-2.406a.942.942,0,0,1,.328-1.076,12.594,12.594,0,0,1,6.946-2.062c5.48,0,7.932,3.4,7.932,6.767a6.575,6.575,0,0,1-3.105,5.63,7.041,7.041,0,0,1,4.045,6.476C235.626,192.4,232.543,196.69,225.778,196.69Zm-5.205-3.022a12.255,12.255,0,0,0,5.205,1.144c5.5,0,7.969-3.21,7.969-6.39a5.476,5.476,0,0,0-4.7-5.356.94.94,0,0,1-.754-.921,1.042,1.042,0,0,1,.619-.96c2.51-.91,3.892-2.64,3.892-4.869,0-2.254-1.586-4.887-6.053-4.887a11.28,11.28,0,0,0-5.252,1.327l.221.616a9.711,9.711,0,0,1,4.392-1.153c3.857,0,5.225,2.491,5.225,4.623,0,3.333-3.216,5.076-6.391,5.076h-.9v.6h.9c4.369,0,7.215,2.283,7.256,5.816a5.449,5.449,0,0,1-1.521,3.9,6.631,6.631,0,0,1-4.946,1.787,12.023,12.023,0,0,1-4.891-1.134Z" transform="translate(-218.484 -169.548)" fill="#03566e"/></g><g transform="translate(63.093)"><path d="M254.407,182.825c0,8.309-3.082,12.9-8.5,12.9-4.773,0-8.007-4.474-8.082-12.556,0-8.195,3.533-12.707,8.5-12.707C251.475,170.457,254.407,175.045,254.407,182.825Zm-13.269.376c0,6.353,1.954,9.963,4.961,9.963,3.384,0,5-3.948,5-10.189,0-6.015-1.541-9.962-4.962-9.962C243.242,173.013,241.138,176.547,241.138,183.2Z" transform="translate(-236.889 -169.517)" fill="#03566e"/><path d="M245.942,196.69c-5.488,0-8.945-5.168-9.022-13.488,0-8.425,3.616-13.654,9.435-13.654,5.65,0,9.022,4.976,9.022,13.308C255.377,191.648,251.939,196.69,245.942,196.69Zm.414-25.262c-4.66,0-7.556,4.508-7.556,11.767.068,7.27,2.737,11.616,7.142,11.616,6.575,0,7.557-7.49,7.557-11.955C253.5,175.593,250.894,171.428,246.355,171.428Zm-.225,22.706c-3.695,0-5.9-4.075-5.9-10.9,0-8.2,3.068-11.128,5.939-11.128,2.2,0,5.9,1.417,5.9,10.9C252.07,192.688,248.348,194.134,246.13,194.134Zm.038-20.15c-2.465,0-4.06,3.63-4.06,9.248,0,5.565,1.541,9.023,4.021,9.023,3.665,0,4.061-6.468,4.061-9.249C250.191,179.637,249.667,173.984,246.168,173.984Z" transform="translate(-236.92 -169.548)" fill="#03566e"/></g></g></g><g transform="translate(318.343 181.947)"><rect width="71.213" height="56.823" rx="2.411" transform="translate(0 1.28)" fill="#fcf9f9"/><g transform="translate(31.472 39.275)"><path d="M347.168,219.419a3.345,3.345,0,1,1-3.345-3.345A3.345,3.345,0,0,1,347.168,219.419Z" transform="translate(-339.199 -214.795)" fill="#03566e"/><path d="M343.864,224.085a4.624,4.624,0,1,1,4.626-4.623A4.629,4.629,0,0,1,343.864,224.085Zm0-6.689a2.065,2.065,0,1,0,2.067,2.066A2.067,2.067,0,0,0,343.864,217.4Z" transform="translate(-339.241 -214.837)" fill="#263238"/></g><g transform="translate(31.472 10.858)"><circle cx="3.345" cy="3.345" r="3.345" transform="translate(1.279 1.279)" fill="#bce4ed"/><path d="M343.864,196.6a4.625,4.625,0,1,1,4.626-4.625A4.629,4.629,0,0,1,343.864,196.6Zm0-6.69a2.065,2.065,0,1,0,2.067,2.065A2.067,2.067,0,0,0,343.864,189.914Z" transform="translate(-339.241 -187.355)" fill="#03566e"/></g><g transform="translate(19.228 13.132)"><path d="M344.226,190.792s-5.336-.075-7.794,3.278c-3.31,4.516-.923,11.129-2.358,14.025s-5.437,3.37-5.437,3.37v7.15h15.589Z" transform="translate(-327.358 -189.512)" fill="#03566e"/><path d="M344.267,219.937H328.679a1.28,1.28,0,0,1-1.279-1.28v-7.151a1.281,1.281,0,0,1,1.126-1.27c.033-.005,3.34-.439,4.443-2.668.433-.873.4-2.524.363-4.271-.061-3.063-.138-6.876,2.108-9.942,2.816-3.838,8.612-3.807,8.845-3.8l-.033,2.559c-.134-.02-4.723,0-6.748,2.755-1.733,2.367-1.67,5.559-1.613,8.377.043,2.159.082,4.025-.63,5.46a8.045,8.045,0,0,1-5.3,3.844v4.829h14.308Z" transform="translate(-327.4 -189.554)" fill="#263238"/></g><g transform="translate(36.077 13.132)"><path d="M343.713,190.792s5.335-.075,7.794,3.278c3.31,4.516.922,11.129,2.358,14.025s5.436,3.37,5.436,3.37v7.15H343.713Z" transform="translate(-343.694 -189.512)" fill="#03566e"/><path d="M359.3,219.937H343.713v-2.559h14.31v-4.829a8.047,8.047,0,0,1-5.3-3.844c-.711-1.434-.673-3.3-.63-5.458.056-2.818.121-6.012-1.613-8.379-2.021-2.758-6.573-2.768-6.748-2.755l-.033-2.559c.267-.01,6.031-.038,8.844,3.8,2.247,3.066,2.17,6.879,2.109,9.944-.035,1.745-.068,3.4.363,4.269,1.1,2.228,4.41,2.663,4.443,2.668a1.282,1.282,0,0,1,1.127,1.27v7.151A1.281,1.281,0,0,1,359.3,219.937Z" transform="translate(-343.695 -189.554)" fill="#263238"/></g><g transform="translate(9.954 24.574)"><path d="M324.676,203.179H319.71a1.28,1.28,0,0,1,0-2.559h4.966a1.28,1.28,0,1,1,0,2.559Z" transform="translate(-318.431 -200.62)" fill="#939aa0"/></g><g transform="translate(11.613 15.885)"><path d="M325.346,196.79a1.267,1.267,0,0,1-.57-.135l-4.033-2.015a1.28,1.28,0,0,1,1.144-2.29l4.032,2.017a1.279,1.279,0,0,1-.573,2.424Z" transform="translate(-320.035 -192.216)" fill="#939aa0"/></g><g transform="translate(54.711 24.574)"><path d="M367.962,203.179H363a1.28,1.28,0,0,1,0-2.559h4.967a1.28,1.28,0,0,1,0,2.559Z" transform="translate(-361.716 -200.62)" fill="#939aa0"/></g><g transform="translate(53.987 15.883)"><path d="M362.3,196.791a1.279,1.279,0,0,1-.575-2.424l4.03-2.017a1.281,1.281,0,1,1,1.147,2.29l-4.031,2.015A1.278,1.278,0,0,1,362.3,196.791Z" transform="translate(-361.016 -192.215)" fill="#939aa0"/></g><g transform="translate(44.921)"><path d="M370.312,236.235h-9.819a1.28,1.28,0,1,1,0-2.559h9.819a6.957,6.957,0,0,0,6.95-6.948V186.361a6.957,6.957,0,0,0-6.95-6.948H353.527a1.28,1.28,0,0,1,0-2.559h16.785a9.519,9.519,0,0,1,9.509,9.507v40.368A9.519,9.519,0,0,1,370.312,236.235Z" transform="translate(-352.248 -176.854)" fill="#939aa0"/></g><g transform="translate(24.519)"><path d="M343.017,179.413H333.8a1.28,1.28,0,0,1,0-2.559h9.221a1.28,1.28,0,0,1,0,2.559Z" transform="translate(-332.517 -176.854)" fill="#939aa0"/></g></g><g transform="translate(94.586 211.111)"><rect width="71.071" height="129.922" rx="2.752" transform="translate(1.28 1.279)" fill="#fcf9f9"/><g transform="translate(15.995 11.681)"><path d="M148.228,229.529v15.037H136.19v12.141H121.165V244.566h-12.05V229.529h12.05V217.594H136.19v11.935Z" transform="translate(-107.835 -216.314)" fill="#03566e"/><path d="M136.232,258.03H121.207a1.28,1.28,0,0,1-1.279-1.28V245.888H109.156a1.28,1.28,0,0,1-1.279-1.28V229.571a1.28,1.28,0,0,1,1.279-1.28h10.772V217.635a1.279,1.279,0,0,1,1.279-1.279h15.024a1.279,1.279,0,0,1,1.279,1.279v10.655h10.758a1.28,1.28,0,0,1,1.28,1.28v15.038a1.281,1.281,0,0,1-1.28,1.28H137.511V256.75A1.28,1.28,0,0,1,136.232,258.03Zm-13.744-2.56h12.464V244.608a1.28,1.28,0,0,1,1.28-1.279H146.99V230.85H136.232a1.28,1.28,0,0,1-1.28-1.279V218.915H122.488v10.656a1.28,1.28,0,0,1-1.28,1.279H110.436v12.479h10.771a1.28,1.28,0,0,1,1.28,1.279Z" transform="translate(-107.877 -216.356)" fill="#263238"/></g><g transform="translate(20.64 85.183)"><path d="M112.369,288.677h0Z" transform="translate(-112.369 -287.398)" fill="#fcf9f9"/><rect width="31.36" height="2.559" transform="translate(0)" fill="#939aa0"/></g><g transform="translate(12.306 106.204)"><path d="M104.31,309.007h0Z" transform="translate(-104.309 -307.728)" fill="#fcf9f9"/><rect width="49.049" height="2.559" fill="#939aa0"/></g><g transform="translate(12.306 95.693)"><path d="M104.31,298.842h0Z" transform="translate(-104.309 -297.562)" fill="#fcf9f9"/><rect width="49.049" height="2.559" fill="#939aa0"/></g><g transform="translate(12.306 116.649)"><path d="M104.31,319.109h0Z" transform="translate(-104.309 -317.829)" fill="#fcf9f9"/><rect width="49.049" height="2.559" fill="#939aa0"/></g><rect width="49.05" height="7.428" transform="translate(12.307 70.815)" fill="#939aa0"/><g transform="translate(0 99.142)"><path d="M93.688,309.637a1.281,1.281,0,0,1-1.28-1.28v-6.138a1.28,1.28,0,0,1,2.559,0v6.138A1.28,1.28,0,0,1,93.688,309.637Z" transform="translate(-92.408 -300.94)" fill="#939aa0"/></g><g transform="translate(0 48.69)"><path d="M155.369,335.938H103.078a10.682,10.682,0,0,1-10.67-10.668v-6.611a1.28,1.28,0,0,1,2.559,0v6.611a8.118,8.118,0,0,0,8.111,8.109h52.291a8.119,8.119,0,0,0,8.112-8.109V253.426a1.28,1.28,0,0,1,2.559,0V325.27A10.682,10.682,0,0,1,155.369,335.938Z" transform="translate(-92.408 -252.147)" fill="#939aa0"/></g><g transform="translate(0 0)"><path d="M93.688,288.082a1.28,1.28,0,0,1-1.28-1.279V215.728a10.682,10.682,0,0,1,10.67-10.669h52.291a10.682,10.682,0,0,1,10.671,10.669v19.393a1.28,1.28,0,1,1-2.559,0V215.728a8.12,8.12,0,0,0-8.112-8.11H103.078a8.119,8.119,0,0,0-8.111,8.11V286.8A1.279,1.279,0,0,1,93.688,288.082Z" transform="translate(-92.408 -205.059)" fill="#939aa0"/></g></g><g transform="translate(176.457 226.169)"><ellipse cx="45.036" cy="58.072" rx="45.036" ry="58.072" transform="translate(0 0)" fill="#939aa0"/><path d="M265.432,277.407c0,28.012-15,51.174-34.555,54.972a28.487,28.487,0,0,1-5.678.565c-22.185,0-40.2-24.855-40.2-55.537a76.981,76.981,0,0,1,1.88-16.921c4.4-19.025,15.981-33.576,30.344-37.563.037-.037.074-.037.15-.037a29.77,29.77,0,0,1,7.558-1.053.053.053,0,0,0,.075,0h.188C247.422,221.834,265.432,246.688,265.432,277.407Z" transform="translate(-171.129 -219.546)" fill="#263238"/><path d="M352.266,339.937c2.406,6.579,1.278,12.783-2.557,15.04-3.835,2.218-8.121.526-8.121.526s-.376,6.242-3.948,9.024c-5.979,4.663-13.875.79-13.875.79s-.15,2.256-7.144,3.761c-10.3,2.218-16.206-3.234-16.206-3.234s-1.917,5.114-9.587,5.452a10.662,10.662,0,0,1-3.535-.79c-4.587-1.654-11.919-5.64-19.7-10.415-.038,0-.076-.038-.113-.075-6.619-4.062-13.575-8.724-19.439-12.973-6.28-4.587-11.318-8.723-13.386-11.28-8.724-10.716-21.884-59.409-29.591-68.809a21.732,21.732,0,0,0-1.73-1.88,16.351,16.351,0,0,0-10.528-4.812,23.935,23.935,0,0,0-5.979.3c3.422-14.777,11.167-26.846,21.169-33.351A33.188,33.188,0,0,1,217.167,223c.037-.037.074-.037.15-.037,1.73-.225,4.4-.6,7.558-1.053a.053.053,0,0,0,.075,0c10.678-1.392,27.449-3.272,38.353-1.654,15.041,2.218,31.02,8.61,40.646,13.762,9.588,5.113,27.524,20.793,34.216,23.35,6.731,2.556,15.379,4.173,15.68,8.948a12.223,12.223,0,0,1-.864,5.19,13.979,13.979,0,0,1-11.28,9.212c-8.949,1.278-19.515-2.858-24.328-4.776-4.775-1.955-9.927-6.091-11.505-4.173-1.617,1.918,7.52,24.854,15.191,34.067C328.126,314.294,348.581,329.823,352.266,339.937Z" transform="translate(-171.068 -219.621)" fill="#f9aa8f"/><g transform="translate(133.354 92.304)"><path d="M337.444,352.406a1.28,1.28,0,0,1-1.254-1.037c-.007-.033-.651-3.352-1.744-7.206-1.395-4.92-8.621-9.935-14.425-13.966-1.97-1.367-3.812-2.648-5.3-3.823-6.147-4.854-13.6-15.02-13.919-15.45a1.279,1.279,0,1,1,2.065-1.51c.076.1,7.568,10.315,13.439,14.951,1.454,1.146,3.253,2.4,5.175,3.731,6.462,4.484,13.784,9.569,15.428,15.372,1.123,3.963,1.768,7.277,1.8,7.416a1.28,1.28,0,0,1-1.013,1.5A1.238,1.238,0,0,1,337.444,352.406Z" transform="translate(-300.553 -308.889)" fill="#cc6148"/></g><g transform="translate(118.154 96.943)"><path d="M320.4,361.832h0a1.28,1.28,0,0,1-1.276-1.283,47.759,47.759,0,0,0-1.455-11.206c-1.241-4.368-5.108-7.066-12.131-11.967l-2.5-1.755c-8.77-6.174-16.67-19.752-17-20.327a1.28,1.28,0,0,1,2.216-1.28c.079.135,7.954,13.667,16.26,19.514l2.5,1.749c7.258,5.065,11.638,8.122,13.129,13.366a49.513,49.513,0,0,1,1.551,11.913A1.28,1.28,0,0,1,320.4,361.832Z" transform="translate(-285.853 -313.375)" fill="#cc6148"/></g><g transform="translate(100.552 101.593)"><path d="M297.73,362.584h-.023a1.28,1.28,0,0,1-1.256-1.3c0-.068.091-6.818-2.5-11.856-1.975-3.836-6.468-7.663-10.432-11.039a59.106,59.106,0,0,1-5.566-5.114c-3.729-4.214-8.746-13.117-8.959-13.494a1.28,1.28,0,1,1,2.232-1.253c.05.09,5.095,9.041,8.642,13.05a58.513,58.513,0,0,0,5.308,4.864c4.146,3.529,8.844,7.53,11.05,11.816,2.892,5.622,2.788,12.773,2.783,13.075A1.279,1.279,0,0,1,297.73,362.584Z" transform="translate(-268.831 -317.873)" fill="#cc6148"/></g><g transform="translate(66.764 27.502)"><path d="M254.583,262.858a1.274,1.274,0,0,1-1.067-.572,36.615,36.615,0,0,0-16.5-13.579,1.28,1.28,0,0,1,.834-2.42,38.531,38.531,0,0,1,17.8,14.583,1.279,1.279,0,0,1-1.065,1.987Z" transform="translate(-236.154 -246.218)" fill="#cc6148"/></g><path d="M207.992,226.961s-11.13,11.919-13.612,22.486a77.626,77.626,0,0,0-1.579,10.566,23.935,23.935,0,0,0-5.979.3C190.245,245.535,197.99,233.466,207.992,226.961Z" transform="translate(-171.068 -219.371)" fill="#cc6148"/></g><g transform="translate(247.959 289.32)"><path d="M244.9,297.159a8.706,8.706,0,1,1,11.552-13.027l30.517,27.06a8.706,8.706,0,0,1-11.553,13.028L254.867,306Z" transform="translate(-240.694 -280.653)" fill="#fcf9f9"/><path d="M281.228,327.728a9.95,9.95,0,0,1-6.62-2.51L254.059,307a1.281,1.281,0,0,1,1.7-1.916l20.548,18.22a7.458,7.458,0,0,0,5.371,1.858,7.427,7.427,0,0,0,4.481-12.97l-30.517-27.059a7.424,7.424,0,1,0-9.851,11.11,1.281,1.281,0,0,1-1.7,1.917,9.985,9.985,0,0,1,6.026-17.44,9.775,9.775,0,0,1,7.225,2.5l30.517,27.059a9.982,9.982,0,0,1-6.631,17.453Z" transform="translate(-240.736 -280.695)" fill="#939aa0"/><g transform="translate(18.183 15.729)"><path d="M271.111,297.144l15.912,14.111c3.237,2.87,3.269,8.111.084,11.7s-8.4,4.2-11.635,1.325L259.559,310.17l4.056-4.557Z" transform="translate(-258.279 -295.864)" fill="#3ba5c4"/><path d="M280.415,327.414a8.593,8.593,0,0,1-5.75-2.133l-15.913-14.11a1.282,1.282,0,0,1-.106-1.81L262.7,304.8a1.281,1.281,0,1,1,1.913,1.7l-3.2,3.6,14.956,13.259c2.7,2.4,7.106,1.859,9.82-1.208a7.889,7.889,0,0,0,2.052-5.272,6.134,6.134,0,0,0-2.019-4.629L270.3,298.145a1.28,1.28,0,0,1,1.7-1.916l15.913,14.111a8.664,8.664,0,0,1,2.881,6.529,10.638,10.638,0,0,1-10.382,10.546Z" transform="translate(-258.321 -295.906)" fill="#263238"/></g></g><g transform="translate(279.315 276.446)"><path d="M290.188,326.677a8.7,8.7,0,0,1-10.169-6.939l-7.568-40.078a8.706,8.706,0,1,1,17.109-3.23l7.569,40.077A8.707,8.707,0,0,1,290.188,326.677Z" transform="translate(-271.018 -268.207)" fill="#fcf9f9"/><path d="M288.594,328.148a9.995,9.995,0,0,1-9.79-8.138l-7.569-40.075a10,10,0,0,1,7.96-11.667,1.28,1.28,0,1,1,.474,2.516,7.434,7.434,0,0,0-5.918,8.676l7.569,40.075a7.425,7.425,0,1,0,14.593-2.756l-6.106-32.337a1.28,1.28,0,1,1,2.516-.477l6.107,32.338a10,10,0,0,1-7.961,11.667A10.108,10.108,0,0,1,288.594,328.148Z" transform="translate(-271.061 -268.245)" fill="#939aa0"/><g transform="translate(3.937 26.98)"><path d="M293.214,295.576l3.947,20.9c.8,4.251-2.38,8.415-7.1,9.305s-9.208-1.823-10.011-6.075l-3.946-20.9Z" transform="translate(-274.826 -294.295)" fill="#03566e"/><path d="M288.291,327.272a10.242,10.242,0,0,1-5.328-1.465,8.673,8.673,0,0,1-4.127-5.823l-3.946-20.9a1.283,1.283,0,0,1,1.021-1.5l17.108-3.23a1.274,1.274,0,0,1,1.5,1.02l3.947,20.9c.93,4.934-2.712,9.78-8.119,10.8A11.163,11.163,0,0,1,288.291,327.272Zm-10.648-27.4,3.709,19.642a6.14,6.14,0,0,0,2.939,4.11,7.868,7.868,0,0,0,5.569.945c4.029-.76,6.755-4.262,6.086-7.811l-3.709-19.642Z" transform="translate(-274.868 -294.337)" fill="#263238"/></g></g><g transform="translate(272.616 324.688)"><circle cx="8.93" cy="8.93" r="8.93" transform="translate(1.624 1.624)" fill="#fcf9f9"/><path d="M275.135,336.008a10.554,10.554,0,1,1,10.555-10.555A10.565,10.565,0,0,1,275.135,336.008Zm0-17.859a7.305,7.305,0,1,0,7.306,7.3A7.313,7.313,0,0,0,275.135,318.149Z" transform="translate(-264.582 -314.9)" fill="#939aa0"/></g><g transform="translate(296.058 311.666)"><path d="M288.49,316.87A13.328,13.328,0,1,1,301.818,330.2,13.328,13.328,0,0,1,288.49,316.87Z" transform="translate(-287.211 -302.264)" fill="#fcf9f9"/><path d="M301.86,331.52a14.607,14.607,0,1,1,14.606-14.607A14.624,14.624,0,0,1,301.86,331.52Zm0-26.655a12.048,12.048,0,1,0,12.047,12.047A12.062,12.062,0,0,0,301.86,304.865Z" transform="translate(-287.253 -302.306)" fill="#939aa0"/><g transform="translate(15.183 13.327)"><path d="M303.175,316.432h0Z" transform="translate(-301.895 -315.153)" fill="#fcf9f9"/><path d="M314.688,317.754H303.217a1.28,1.28,0,1,1,0-2.559h11.471a1.28,1.28,0,0,1,0,2.559Z" transform="translate(-301.937 -315.195)" fill="#939aa0"/></g><g transform="translate(1.275 13.327)"><path d="M289.724,316.432h0Z" transform="translate(-288.444 -315.153)" fill="#fcf9f9"/><path d="M296.012,317.754h-6.246a1.28,1.28,0,0,1,0-2.559h6.246a1.28,1.28,0,1,1,0,2.559Z" transform="translate(-288.486 -315.195)" fill="#939aa0"/></g></g><g transform="translate(318.502 325.033)"><path d="M310.195,323.991a7.52,7.52,0,1,1,7.52,7.519A7.52,7.52,0,0,1,310.195,323.991Z" transform="translate(-308.916 -315.192)" fill="#3ba5c4"/><path d="M317.756,332.833a8.8,8.8,0,1,1,8.8-8.8A8.81,8.81,0,0,1,317.756,332.833Zm0-15.04A6.24,6.24,0,1,0,324,324.032,6.246,6.246,0,0,0,317.756,317.793Z" transform="translate(-308.958 -315.234)" fill="#263238"/></g><g transform="translate(72.54 75.891)"><path d="M136.026,359.58a3.519,3.519,0,1,1-3.519-3.52A3.519,3.519,0,0,1,136.026,359.58Z" transform="translate(-69.117 -64.703)" fill="#fcd9d9"/><path d="M80.935,264.089a3.448,3.448,0,1,1-4.047-2.721A3.448,3.448,0,0,1,80.935,264.089Z" transform="translate(-70.984 -67.926)" fill="#fcd9d9"/><path d="M75.761,248.979a2.359,2.359,0,1,1-2.769-1.861A2.359,2.359,0,0,1,75.761,248.979Z" transform="translate(-71.087 -68.41)" fill="#fcd9d9"/><path d="M363.132,308.829a3.494,3.494,0,1,1-3.495-3.494A3.494,3.494,0,0,1,363.132,308.829Z" transform="translate(-61.391 -66.429)" fill="#fcd9d9"/><path d="M367.879,288.233a1.838,1.838,0,1,1-1.838-1.837A1.838,1.838,0,0,1,367.879,288.233Z" transform="translate(-61.117 -67.073)" fill="#fcd9d9"/><path d="M249.247,76.07a1.782,1.782,0,1,1-1.782-1.783A1.783,1.783,0,0,1,249.247,76.07Z" transform="translate(-65.148 -74.287)" fill="#fcd9d9"/><path d="M107.35,135.748a1.823,1.823,0,1,1-1.823-1.823A1.824,1.824,0,0,1,107.35,135.748Z" transform="translate(-69.977 -72.259)" fill="#fcd9d9"/><path d="M87.3,181.784a3.031,3.031,0,1,1-3.031-3.032A3.031,3.031,0,0,1,87.3,181.784Z" transform="translate(-70.742 -70.734)" fill="#fcd9d9"/><path d="M272.931,113.88a3.475,3.475,0,1,1-3.474-3.475A3.475,3.475,0,0,1,272.931,113.88Z" transform="translate(-64.458 -73.059)" fill="#fcf9f9"/><path d="M77.523,165.21a1.29,1.29,0,1,1-1.29-1.29A1.29,1.29,0,0,1,77.523,165.21Z" transform="translate(-70.956 -71.238)" fill="#fcd9d9"/><path d="M145.582,353.022a1.442,1.442,0,1,1-1.442-1.441A1.443,1.443,0,0,1,145.582,353.022Z" transform="translate(-68.651 -64.856)" fill="#fcd9d9"/><circle cx="1.409" cy="1.409" r="1.409" transform="translate(39.868 277.898)" fill="#fcd9d9"/><path d="M344.455,294.905a1.988,1.988,0,1,1-1.988-1.989A1.989,1.989,0,0,1,344.455,294.905Z" transform="translate(-61.924 -66.851)" fill="#fcf9f9"/><circle cx="2.64" cy="2.64" r="2.64" transform="translate(108.989 44.297)" fill="#fcf9f9"/><path d="M260.435,121.1a1.421,1.421,0,1,1-1.421-1.421A1.421,1.421,0,0,1,260.435,121.1Z" transform="translate(-64.743 -72.743)" fill="#fcf9f9"/></g></g></svg>