<svg xmlns="http://www.w3.org/2000/svg" xmlns:xlink="http://www.w3.org/1999/xlink" width="643.138" height="351.272" viewBox="0 0 643.138 351.272"><defs><clipPath id="a"><path d="M695.665,417.845H54.335L52.528,66.573H693.858Z" fill="none"/></clipPath></defs><g transform="translate(-52.527 -66.573)"><g clip-path="url(#a)"><path d="M0,0H667.411V378.1H0Z" transform="translate(40.493 54.646)" fill="rgba(255,255,255,0)"/><path d="M715.781,110.208c-21.849-15.045-52.229-5.685-74.3,9.028s-41.647,34.629-67.182,41.816c-40.183,11.31-82.428-12.06-124-8.318-41.7,3.754-78.752,37.976-85.8,79.251-5.072,29.712,3.684,62.2-9.742,89.191-14.246,28.639-47.908,40.575-77.793,51.979s-62.69,29.214-68.849,60.6c-1.671,8.515-1.01,17.777,3.471,25.209,5.048,8.374,14.132,13.358,23,17.478,19.931,9.26,40.921,16.137,60.648,25.822,35.93,17.641,66.882,44.2,102.7,62.071,72.379,36.124,160.689,33.252,235.2,1.771a337.673,337.673,0,0,0,84.652-51.589c14.4-12,27.921-25.371,37.782-41.31,30.82-49.817,20.746-113.268,18.417-171.8-1.263-31.761.053-63.9-6.591-94.984-6.948-32.511-22.316-62.511-37.526-92.073" fill="#03566e"/><path d="M540.61,156.9c10.332,1.126,21.881-2.521,27.172-11.466,1.768-2.99,2.672-7.006.624-9.812-1.6-2.2-4.477-2.959-7.124-3.577l-18.333-4.275c-6.788-1.583-13.847-3.17-20.658-1.691-8.066,1.751-16.469,11.218-10.2,19.16C517.582,152.189,532.487,156.013,540.61,156.9Z" fill="#03566e"/><path d="M494.593,124.192c1.722,1.857,4.251,2.733,6.728,3.262a7.546,7.546,0,0,0,2.934.19,5.963,5.963,0,0,0,2.424-1.151,7.354,7.354,0,0,0,3.151-6.794,7.715,7.715,0,0,0-1-2.588,10.409,10.409,0,0,0-8.129-5.273C494.146,111.48,489.895,119.122,494.593,124.192Z" fill="#03566e"/><path d="M365.7,159.209c-1.332,5-1.129,11.494,3.43,13.943,3.182,1.709,7.248.563,10.115-1.634s4.892-5.281,7.234-8.032a42.715,42.715,0,0,1,22.669-13.8c3.44-.8,7.038-1.188,10.189-2.783s5.83-4.832,5.414-8.339c-.548-4.623-5.814-7.027-10.417-7.726-9.3-1.412-18.841.5-27.684,3.719C374.538,138.958,368.949,147.012,365.7,159.209Z" fill="#03566e"/><path d="M179.038,372.338c-1.96,5.28-2.135,11.421.528,16.383s8.5,8.343,14.014,7.221c5.093-1.036,8.758-5.317,12.89-8.468,6.85-5.225,15.514-7.574,22.541-12.557,2.327-1.651,4.549-3.721,5.389-6.448,1.486-4.824-1.869-9.888-5.929-12.889a29.727,29.727,0,0,0-19.213-5.477A33.618,33.618,0,0,0,179.038,372.338Z" fill="#03566e"/></g><rect width="79.712" height="59.634" rx="9.986" transform="translate(582.216 138.832)" fill="#482b61" opacity="0.3" style="mix-blend-mode:multiply;isolation:isolate"/><rect width="79.712" height="59.634" rx="9.986" transform="translate(582.216 133.475)" fill="#263238"/><rect width="54.425" height="57.257" rx="9.986" transform="translate(626.494 257.837)" fill="#482b61" opacity="0.3" style="mix-blend-mode:multiply;isolation:isolate"/><rect width="54.425" height="57.257" rx="9.986" transform="translate(626.494 253.698)" fill="#263238"/><path d="M652.4,163.589H591.743a2.77,2.77,0,0,1-2.77-2.77h0a2.77,2.77,0,0,1,2.77-2.769H652.4a2.769,2.769,0,0,1,2.769,2.769h0A2.77,2.77,0,0,1,652.4,163.589Z" fill="#fa8c5e"/><path d="M640.838,174.189h-49.1a2.77,2.77,0,0,1-2.77-2.77h0a2.77,2.77,0,0,1,2.77-2.77h49.1a2.77,2.77,0,0,1,2.77,2.77h0A2.771,2.771,0,0,1,640.838,174.189Z" fill="#fa8c5e"/><path d="M645.936,185.484H591.743a2.77,2.77,0,0,1-2.77-2.77h0a2.77,2.77,0,0,1,2.77-2.77h54.193a2.77,2.77,0,0,1,2.77,2.77h0A2.77,2.77,0,0,1,645.936,185.484Z" fill="#fa8c5e"/><path d="M463.863,178.934a14.29,14.29,0,1,0-25.707,8.566h-.021l11.439,14.673L460.535,188.1h0A14.225,14.225,0,0,0,463.863,178.934Zm-14.289-6.317a6.316,6.316,0,1,1-6.317,6.317A6.317,6.317,0,0,1,449.574,172.617Z" fill="#482b61" opacity="0.3" style="mix-blend-mode:multiply;isolation:isolate"/><path d="M463.863,175.076a14.29,14.29,0,1,0-25.707,8.566h-.021l11.439,14.673,10.961-14.073h0A14.228,14.228,0,0,0,463.863,175.076Zm-14.289-6.317a6.317,6.317,0,1,1-6.317,6.317A6.317,6.317,0,0,1,449.574,168.759Z" fill="#263238"/><circle cx="56.194" cy="56.194" r="56.194" transform="translate(331.673 292.415)" fill="#482b61" opacity="0.3" style="mix-blend-mode:multiply;isolation:isolate"/><circle cx="56.194" cy="56.194" r="56.194" transform="translate(331.673 284.596)" fill="#263238"/><path d="M431.47,340.788q0,1.986-.174,3.914a43.6,43.6,0,0,1-86.856,0q-.174-1.928-.174-3.914a43.6,43.6,0,0,1,87.2,0Z" fill="#fa8c5e"/><path d="M396.242,340.792c0,.255-.011.505-.033.752a8.375,8.375,0,0,1-16.682,0c-.022-.247-.033-.5-.033-.752a8.374,8.374,0,0,1,16.748,0Z" fill="#fff"/><path d="M351.107,340.793c0,.067,0,.134-.008.2a2.22,2.22,0,0,1-4.423,0c-.006-.065-.009-.132-.009-.2a2.22,2.22,0,1,1,4.44,0Z" fill="#fff"/><path d="M428.569,340.793c0,.067,0,.134-.009.2a2.22,2.22,0,0,1-4.422,0c-.006-.065-.009-.132-.009-.2a2.22,2.22,0,0,1,4.44,0Z" fill="#fff"/><path d="M387.959,341.436l-19.446-21.864a1.5,1.5,0,0,1,2.243-1.994l17.02,19.14,17.924-23.6a1.5,1.5,0,0,1,2.389,1.814Z" fill="#fff"/><path d="M387.618,304.282c-.067,0-.134,0-.2-.008a2.22,2.22,0,0,1,0-4.423c.065-.006.132-.009.2-.009a2.22,2.22,0,0,1,0,4.44Z" fill="#fff"/><path d="M387.618,381.744c-.067,0-.134,0-.2-.009a2.22,2.22,0,0,1,0-4.422c.065-.006.132-.009.2-.009a2.22,2.22,0,1,1,0,4.44Z" fill="#fff"/><path d="M431.47,340.788q0,1.986-.174,3.914a43.6,43.6,0,0,0-86.856,0q-.174-1.928-.174-3.914a43.6,43.6,0,0,1,87.2,0Z" fill="#482b61" opacity="0.3" style="mix-blend-mode:multiply;isolation:isolate"/><path d="M615.617,238.007v122.36a9.5,9.5,0,0,1-9.5,9.5H427.837a9.5,9.5,0,0,1-9.5-9.5V238.007a9.5,9.5,0,0,1,9.5-9.5h178.28A9.5,9.5,0,0,1,615.617,238.007Z" fill="#482b61" opacity="0.3" style="mix-blend-mode:multiply;isolation:isolate"/><path d="M615.617,230.519v122.36a9.5,9.5,0,0,1-9.5,9.5H427.837a9.5,9.5,0,0,1-9.5-9.5V230.519a9.5,9.5,0,0,1,9.5-9.5h178.28A9.5,9.5,0,0,1,615.617,230.519Z" fill="#fff"/><path d="M615.617,230.519v19.11H418.337v-19.11a9.5,9.5,0,0,1,9.5-9.5h178.28A9.5,9.5,0,0,1,615.617,230.519Z" fill="#263238"/><rect width="15.182" height="15.182" rx="3.861" transform="translate(481.538 259.233)" fill="#9ed3f6"/><rect width="15.182" height="15.182" rx="3.861" transform="translate(508.311 259.233)" fill="#9ed3f6"/><rect width="15.182" height="15.182" rx="3.861" transform="translate(535.084 259.233)" fill="#9ed3f6"/><rect width="15.182" height="15.182" rx="3.861" transform="translate(561.857 259.233)" fill="#03566e"/><rect width="15.182" height="15.182" rx="3.861" transform="translate(588.631 259.233)" fill="#03566e"/><rect width="15.182" height="15.182" rx="3.908" transform="translate(427.991 284.596)" fill="#9ed3f6"/><rect width="15.182" height="15.182" rx="3.908" transform="translate(454.764 284.596)" fill="#9ed3f6"/><rect width="15.182" height="15.182" rx="3.908" transform="translate(481.538 284.596)" fill="#9ed3f6"/><rect width="27.52" height="27.52" rx="4.477" transform="translate(502.142 278.427)" fill="#fa8c5e"/><rect width="15.182" height="15.182" rx="3.908" transform="translate(535.084 284.596)" fill="#9ed3f6"/><rect width="15.182" height="15.182" rx="3.908" transform="translate(561.857 284.596)" fill="#03566e"/><rect width="15.182" height="15.182" rx="3.908" transform="translate(588.631 284.596)" fill="#03566e"/><rect width="15.182" height="15.182" rx="3.503" transform="translate(427.991 309.958)" fill="#9ed3f6"/><rect width="15.182" height="15.182" rx="3.503" transform="translate(454.764 309.958)" fill="#fa8c5e"/><rect width="15.182" height="15.182" rx="3.503" transform="translate(481.538 309.958)" fill="#9ed3f6"/><rect width="15.182" height="15.182" rx="3.503" transform="translate(508.311 309.958)" fill="#9ed3f6"/><rect width="15.182" height="15.182" rx="3.503" transform="translate(535.084 309.958)" fill="#9ed3f6"/><rect width="15.182" height="15.182" rx="3.503" transform="translate(561.857 309.958)" fill="#03566e"/><rect width="15.182" height="15.182" rx="3.503" transform="translate(588.631 309.958)" fill="#03566e"/><rect width="15.182" height="15.182" rx="3.204" transform="translate(427.991 335.321)" fill="#9ed3f6"/><rect width="15.182" height="15.182" rx="3.204" transform="translate(454.764 335.321)" fill="#9ed3f6"/><rect width="15.182" height="15.182" rx="3.204" transform="translate(481.538 335.321)" fill="#9ed3f6"/><path d="M3.2,0h8.773a3.2,3.2,0,0,1,3.2,3.2v8.773a3.2,3.2,0,0,1-3.2,3.2H3.2a3.2,3.2,0,0,1-3.2-3.2V3.2A3.2,3.2,0,0,1,3.2,0Z" transform="translate(508.311 335.321)" fill="#9ed3f6"/><rect width="15.182" height="15.182" rx="3.204" transform="translate(535.084 335.321)" fill="#9ed3f6"/><rect width="15.182" height="15.182" rx="3.204" transform="translate(561.857 335.321)" fill="#03566e"/><rect width="15.182" height="15.182" rx="3.204" transform="translate(588.631 335.321)" fill="#03566e"/><path d="M515.9,319.05a26.863,26.863,0,1,1,26.863-26.864A26.894,26.894,0,0,1,515.9,319.05Zm0-50.726a23.863,23.863,0,1,0,23.863,23.862A23.889,23.889,0,0,0,515.9,268.324Z" fill="#03566e"/><circle cx="5.879" cy="5.879" r="5.879" transform="translate(427.156 224.541)" fill="#fff"/><circle cx="5.879" cy="5.879" r="5.879" transform="translate(461.181 224.541)" fill="#fff"/><circle cx="5.879" cy="5.879" r="5.879" transform="translate(495.206 224.541)" fill="#fff"/><path d="M540.99,230.42a5.879,5.879,0,1,0-5.879,5.879A5.879,5.879,0,0,0,540.99,230.42Z" fill="#fff"/><circle cx="5.879" cy="5.879" r="5.879" transform="translate(563.257 224.541)" fill="#fff"/><circle cx="5.879" cy="5.879" r="5.879" transform="translate(597.282 224.541)" fill="#fff"/><path d="M433.035,233.69h0a3.654,3.654,0,0,1-3.654-3.654V214.1a3.654,3.654,0,0,1,3.654-3.654h0a3.654,3.654,0,0,1,3.654,3.654v15.941A3.654,3.654,0,0,1,433.035,233.69Z" fill="#fa8c5e"/><path d="M467.06,233.69h0a3.653,3.653,0,0,1-3.653-3.654V214.1a3.653,3.653,0,0,1,3.653-3.654h0a3.654,3.654,0,0,1,3.654,3.654v15.941A3.654,3.654,0,0,1,467.06,233.69Z" fill="#fa8c5e"/><path d="M501.086,233.69h0a3.654,3.654,0,0,1-3.654-3.654V214.1a3.654,3.654,0,0,1,3.654-3.654h0a3.653,3.653,0,0,1,3.653,3.654v15.941A3.653,3.653,0,0,1,501.086,233.69Z" fill="#fa8c5e"/><path d="M535.111,233.69h0a3.654,3.654,0,0,1-3.654-3.654V214.1a3.654,3.654,0,0,1,3.654-3.654h0a3.654,3.654,0,0,1,3.654,3.654v15.941A3.654,3.654,0,0,1,535.111,233.69Z" fill="#fa8c5e"/><path d="M569.136,233.69h0a3.654,3.654,0,0,1-3.654-3.654V214.1a3.654,3.654,0,0,1,3.654-3.654h0a3.654,3.654,0,0,1,3.654,3.654v15.941A3.654,3.654,0,0,1,569.136,233.69Z" fill="#fa8c5e"/><path d="M603.161,233.69h0a3.654,3.654,0,0,1-3.653-3.654V214.1a3.654,3.654,0,0,1,3.653-3.654h0a3.654,3.654,0,0,1,3.654,3.654v15.941A3.654,3.654,0,0,1,603.161,233.69Z" fill="#fa8c5e"/><rect width="197.28" height="5.827" transform="translate(418.336 243.802)" fill="#fa8c5e"/><path d="M664.925,291.05H642.488V273.7a11.219,11.219,0,0,1,11.219-11.218h0A11.219,11.219,0,0,1,664.925,273.7Z" fill="#fa8c5e"/><path d="M659.788,296.087a6.082,6.082,0,1,0-6.081,6.081A6.082,6.082,0,0,0,659.788,296.087Z" fill="#fff"/><path d="M669.565,290.666c0,4.1-7.1,5.421-15.858,5.421s-15.859-1.323-15.859-5.421,7.1-13.822,15.859-13.822S669.565,286.568,669.565,290.666Z" fill="#fa8c5e"/><path d="M648,280.923a1.5,1.5,0,0,1-1.5-1.5V272.06a4.91,4.91,0,0,1,4.9-4.906,1.5,1.5,0,0,1,0,3,1.907,1.907,0,0,0-1.9,1.906v7.363A1.5,1.5,0,0,1,648,280.923Z" fill="#fff"/><ellipse cx="0.818" cy="8.646" rx="0.818" ry="8.646" transform="translate(646.807 345.743)" fill="#fff"/><ellipse cx="8.646" cy="0.818" rx="8.646" ry="0.818" transform="translate(638.979 353.571)" fill="#fff"/><ellipse cx="0.818" cy="8.646" rx="0.818" ry="8.646" transform="translate(506.147 170.288)" fill="#fff"/><ellipse cx="8.646" cy="0.818" rx="8.646" ry="0.818" transform="translate(498.319 178.116)" fill="#fff"/><ellipse cx="1.238" cy="13.084" rx="1.238" ry="13.084" transform="translate(610.037 382.761)" fill="#fff"/><path d="M611.275,397.083c-7.226,0-13.084-.554-13.084-1.238s5.858-1.238,13.084-1.238,13.084.555,13.084,1.238S618.5,397.083,611.275,397.083Z" fill="#fff"/><path d="M662.583,226.082c0,3.828-.293,6.931-.655,6.931s-.656-3.1-.656-6.931.294-6.931.656-6.931S662.583,222.254,662.583,226.082Z" fill="#fff"/><path d="M661.928,226.738c-3.828,0-6.931-.294-6.931-.656s3.1-.656,6.931-.656,6.93.294,6.93.656S665.755,226.738,661.928,226.738Z" fill="#fff"/><path d="M388.274,246.716c0,3.827-.294,6.93-.656,6.93s-.656-3.1-.656-6.93.294-6.931.656-6.931S388.274,242.888,388.274,246.716Z" fill="#fff"/><path d="M387.618,247.371c-3.828,0-6.931-.293-6.931-.655s3.1-.656,6.931-.656,6.931.294,6.931.656S391.446,247.371,387.618,247.371Z" fill="#fff"/></g></svg>