<svg xmlns="http://www.w3.org/2000/svg" width="573.735" height="466.574" viewBox="0 0 573.735 466.574"><g transform="translate(-915.693 -1038.804)"><path d="M1487.879,1257.975a236.879,236.879,0,0,1-7.247,36.843,253.255,253.255,0,0,1-29.047,65.371c-30.245,48.551-76.2,88.022-128.893,113.46-35.226,17.035-73.47,27.8-112.06,30.837-49.634,3.927-99.846-4.952-144.875-29.74q-3.334-1.84-6.64-3.768c-9.384-5.457-18.653-11.463-27.676-17.974-26.174-18.869-50.356-41.968-69.789-68.143a247.771,247.771,0,0,1-32.194-57.415c-.808-2.065-1.588-4.144-2.324-6.237-9.3-26.174-13.412-53.994-10.539-82.709,8.691-86.824,76.3-151.978,162.69-159.514,31.27-2.729,64.49-1.892,99.615-5.255,33.97-3.263,63.1-28.557,98.3-33.234a194.526,194.526,0,0,1,104.985,15.159,176.969,176.969,0,0,1,73.7,61.66,185.819,185.819,0,0,1,19.88,37.724,200.8,200.8,0,0,1,12.69,54.6A235.474,235.474,0,0,1,1487.879,1257.975Z" fill="#475984"/><path d="M1251.42,1206a95.037,95.037,0,0,0,25.575,22.83c44.2,27.02,102.675,13.185,130.133-30.747a95.11,95.11,0,0,0-60.047-143.178,5.917,5.917,0,0,0-6.67,8.211A95.059,95.059,0,0,1,1256,1196.47,5.916,5.916,0,0,0,1251.42,1206Z" fill="#ffe150"/><path d="M1434.326,1312.728c-88.693,0-137.483-1.594-227.021-1.424-16.778.032-56.313.6-61.567-20.655-4.86-19.664,22.509-28.368,31.406-24.5-3.963-36.123,16.455-69.771,49.016-85.107,30.252-14.249,73.764-11.509,96.568,15.716,2.174,2.6,14.8,21.886,9.917,24.083,8.545-3.841,13.6-11.843,22.714-15.118a49.379,49.379,0,0,1,29.826-.872c22.416,6.323,41.241,27.47,41.352,51.234.02,4.36-1.848,24.434-7.905,25.479-.694.12-.071-.037-.075-.034,9.858-1.34,34.643-4.01,37.236,9.735C1458.618,1306.232,1447.319,1312.729,1434.326,1312.728Z" fill="#f3ffff"/><path d="M1218.268,1124.869c-9.825-3.073-12.071-6.257-15.018-18.079a.71.71,0,0,0-1.376,0c-2.947,11.822-5.193,15.006-15.018,18.079a.708.708,0,0,0,0,1.349c9.825,3.073,12.071,6.257,15.018,18.079a.71.71,0,0,0,1.376,0c2.947-11.822,5.193-15.006,15.018-18.079A.708.708,0,0,0,1218.268,1124.869Z" fill="#fff"/><path d="M1103.095,1312.247c-7-2.19-8.6-4.459-10.7-12.886a.506.506,0,0,0-.981,0c-2.1,8.427-3.7,10.7-10.7,12.886a.5.5,0,0,0,0,.962c7,2.19,8.6,4.46,10.7,12.887a.506.506,0,0,0,.981,0c2.1-8.427,3.7-10.7,10.7-12.887A.505.505,0,0,0,1103.095,1312.247Z" fill="#fff"/><path d="M1334.986,1412.806c-7-2.19-8.6-4.46-10.7-12.886a.506.506,0,0,0-.981,0c-2.1,8.426-3.7,10.7-10.705,12.886a.505.505,0,0,0,0,.962c7,2.19,8.6,4.46,10.705,12.887a.506.506,0,0,0,.981,0c2.1-8.427,3.7-10.7,10.7-12.887A.505.505,0,0,0,1334.986,1412.806Z" fill="#fff"/><path d="M989.545,1161.967c-7-2.189-8.6-4.459-10.7-12.886a.505.505,0,0,0-.98,0c-2.1,8.427-3.7,10.7-10.7,12.886a.505.505,0,0,0,0,.963c7,2.189,8.6,4.459,10.7,12.886a.505.505,0,0,0,.98,0c2.1-8.427,3.7-10.7,10.7-12.886A.505.505,0,0,0,989.545,1161.967Z" fill="#fff"/><path d="M1154.227,1441.31q-61.394,5.847-122.786,11.694c-26.174-18.869-50.356-41.968-69.789-68.143a247.771,247.771,0,0,1-32.194-57.415,60.784,60.784,0,0,1,21.887-7.406c34.244-4.519,69.716,23.315,72.343,57.733,24.918-22.334,62.743-29.119,93.869-16.819,10.467,4.129,20.5,10.568,26.218,20.255s6.15,23.027-1.126,31.6c4.677,1.155,9.456,2.4,14.162,3.841C1170.007,1420.694,1167.971,1440,1154.227,1441.31Z" fill="#f3ffff"/><circle cx="5.868" cy="5.868" r="5.868" transform="translate(1071.276 1214.157)" fill="#f3ffff"/><path d="M1277.413,1118.4a2.934,2.934,0,1,1-2.934-2.933A2.934,2.934,0,0,1,1277.413,1118.4Z" fill="#f3ffff"/><path d="M949.083,1298.979a2.934,2.934,0,1,1-2.934-2.934A2.935,2.935,0,0,1,949.083,1298.979Z" fill="#f3ffff"/><path d="M1389.615,1349.26a2.934,2.934,0,1,1-2.934-2.934A2.934,2.934,0,0,1,1389.615,1349.26Z" fill="#f3ffff"/><path d="M1175.994,1473.936a2.934,2.934,0,1,1-2.934-2.934A2.933,2.933,0,0,1,1175.994,1473.936Z" fill="#f3ffff"/></g></svg>