<svg xmlns="http://www.w3.org/2000/svg" width="1980.451" height="3176" viewBox="0 0 1980.451 3176"><g transform="translate(14963.451 -12052)"><g transform="translate(87 -181)"><path d="M3455,4079.534H1474.549c29.83-11.732,60.257-24.971,90.435-39.353,29.807-14.2,60.163-29.9,90.225-46.651,29.716-16.559,59.947-34.595,89.851-53.607,29.565-18.8,59.614-39.058,89.313-60.22,29.375-20.932,59.188-43.3,88.612-66.489,29.118-22.944,58.641-47.308,87.748-72.413,28.815-24.853,57.992-51.094,86.719-78,28.439-26.63,57.215-54.633,85.528-83.233,28.045-28.33,56.364-57.981,84.171-88.129,27.573-29.892,55.381-61.074,82.653-92.68,53.927-62.494,107.79-128.989,160.094-197.64,102.955-135.134,202.125-281.416,294.754-434.783,378.748-627.1,620.965-1323.476,647.929-1862.807H3455v3176Z" transform="translate(-16525 11329.467)" fill="#03566e"/><g transform="translate(-14882.721 13480.326)"><g transform="translate(571.771 691.921)"><path d="M807.582,1127.58c0,18.566,113.829,33.619,254.242,33.619s254.242-15.053,254.242-33.619-113.825-33.615-254.242-33.615S807.582,1109.013,807.582,1127.58Z" transform="translate(-379.128 -363.477)" fill="#231f20" opacity="0.3" style="mix-blend-mode:multiply;isolation:isolate"/><g transform="translate(406.099)"><path d="M919.438,1054.078c-71.031,0-105.493-57.439-120.143-90.385-7.993-18-4.361-41.462,13.632-49.462s24.472,21.031,40.2,38.575c7.673,8.552,30.583,29.958,66.311,29.958,38.277,0,72.763-18.545,73.1-18.738a35.66,35.66,0,0,1,34.507,62.415C1025.02,1027.567,976.644,1054.078,919.438,1054.078Z" transform="translate(-795.278 -511.424)" fill="#fff"/><g transform="translate(90.768)"><path d="M1060.06,1333.343l-119.284-22.933s-36.49-59.908-22.735-131.444c17.715-92.129-82.451-150.677-57.7-279.435C886.024,765.97,1009.574,687.1,1125.7,709.2h0c.065.013.136.022.193.036.073.013.142.027.205.042h0c116.037,22.534,201.524,141.6,175.838,275.166-24.756,128.748-145.587,140.927-163.308,233.058C1124.866,1289.047,1060.06,1333.343,1060.06,1333.343Z" transform="translate(-836.124 -680.82)" fill="#fff"/><path d="M983.73,1225.391c43.739,0,59.2-204.2,59.2-204.2a40.845,40.845,0,1,0-81.19-9.028S940,1225.391,983.73,1225.391Z" transform="translate(-754.471 -459.991)" fill="#fff"/><path d="M952.724,1226.038c51.041,0,19.111-216.352,19.111-216.352a40.848,40.848,0,1,0-81.279,8.247S905.744,1226.038,952.724,1226.038Z" transform="translate(-808.383 -462.334)" fill="#fff"/><path d="M1038.181,734.443s26.213-.1,39.171-14.57c13.32-14.891-19.7-19.414-33.106-8.247a44.191,44.191,0,0,0-8.71,9.453s-.649-22.463-11.114-27.708-18.511,4.76-14,13.427l4.506,8.674A45.74,45.74,0,0,0,993.37,700.1c-11.16-3.539-21.1-3.572-17.006,5.961,2.754,6.421,27.347,23.293,27.347,23.293Z" transform="translate(-738.878 -691.921)" fill="#fff"/><path d="M886.89,766.674c5.057,3.578,10.306,6.848,15.573,10.022,5.287,3.151,10.709,6.052,16.2,8.754,4.088,2.053,8.3,3.963,12.477,5.7,3.071-5.338,6.154-10.665,9.312-15.936l.236-.36a5.8,5.8,0,0,1,8.105-1.4l.331.233q8.168,5.751,16.609,11.052c5.656,3.5,11.27,7.048,17.041,10.333q8.634,4.971,17.488,9.461c1.419.7,2.869,1.417,4.313,2.122l-2.044-12.186A8.082,8.082,0,0,1,1016,787.211l.094.089a246.844,246.844,0,0,0,41.319,30.474c14.761,9.136,30.348,17.085,46.148,24.7,7.905,3.819,15.925,7.411,24.009,10.911q12.066,5.377,24.381,10.291c16.351,6.75,32.932,12.975,49.659,19.143-17.679-2.5-35.056-6.675-52.322-11.316q-12.891-3.671-25.677-7.818-12.722-4.3-25.261-9.236a396.352,396.352,0,0,1-48.894-23.173,292.274,292.274,0,0,1-27.665-18.084l.879,5.774.029.2a7.828,7.828,0,0,1-10.916,8.331c-6.657-2.967-12.662-6.04-18.723-9.468q-9.04-5.069-17.764-10.611c-5.8-3.714-11.57-7.473-17.1-11.574-3.883-2.84-7.689-5.772-11.461-8.747-3.052,4.388-6.1,8.785-9.226,13.118l-.344.474a4.671,4.671,0,0,1-5.854,1.455,183.725,183.725,0,0,1-16.729-9.526c-5.324-3.456-10.484-7.153-15.473-11.021a175.975,175.975,0,0,1-14.294-12.4,153.511,153.511,0,0,1-12.74-13.865C876.826,759.4,881.859,763.08,886.89,766.674Z" transform="translate(-823.306 -640.118)" fill="#231f20"/><g transform="translate(0 179.567)"><path d="M917.847,851.459A23.349,23.349,0,1,1,903.8,821.571,23.355,23.355,0,0,1,917.847,851.459Z" transform="translate(-822.941 -766.711)" fill="#231f20"/><g transform="translate(61.894 36.093)"><path d="M879.3,814.1c7.953,1.964,14.635,3.547,20.548,6.5a42.092,42.092,0,0,1,8.325,5.411,105.652,105.652,0,0,1,8.127,7.793c.545-8.291-4.911-16.75-12.839-20.52a26.331,26.331,0,0,0-12.391-2.66A22.487,22.487,0,0,0,879.3,814.1Z" transform="translate(-879.3 -810.616)" fill="#231f20"/></g><path d="M985.168,875.733a23.355,23.355,0,1,0,29.9-14.052A23.346,23.346,0,0,0,985.168,875.733Z" transform="translate(-732.054 -733.943)" fill="#231f20"/><g transform="translate(266.299 111.344)"><path d="M1032.852,868.759A22.375,22.375,0,0,0,1026,858.567a26.223,26.223,0,0,0-11.229-5.849c-8.511-2.157-18.111.874-22.975,7.611a106.316,106.316,0,0,1,11.229-.819,42.065,42.065,0,0,1,9.853,1.145C1019.325,862.157,1025.479,865.2,1032.852,868.759Z" transform="translate(-991.8 -852.032)" fill="#231f20"/></g><path d="M958.079,880.038a76.017,76.017,0,1,1,45.727,97.292A76.105,76.105,0,0,1,958.079,880.038Zm15.371,5.544a59.677,59.677,0,1,0,76.369-35.9A59.737,59.737,0,0,0,973.45,885.582Z" transform="translate(-756.731 -758.845)" fill="#231f20"/><path d="M849.743,840.98a76.019,76.019,0,1,1,45.734,97.3A76.106,76.106,0,0,1,849.743,840.98Zm15.373,5.54a59.678,59.678,0,1,0,76.382-35.9A59.745,59.745,0,0,0,865.116,846.52Z" transform="translate(-845.235 -790.751)" fill="#231f20"/><path d="M987.876,873.475l13.687-8.928a70.393,70.393,0,0,0-79.435-28.815l4.777,15.625a54.022,54.022,0,0,1,60.971,22.118Z" transform="translate(-782.417 -756.531)" fill="#231f20"/></g><g transform="translate(117.652 316.664)"><path d="M990.068,890.155l-33.463-11.87-.6-.218-33.464-11.861a329.32,329.32,0,0,0-11.452,42.011c-4.126,20.626,3.687,38.49,18.605,44.07v.013c.058.022.1.056.16.073a.474.474,0,0,0,.14.033.868.868,0,0,0,.12.065c.064.02.12.02.18.042l.005-.007c15.1,5.062,32.421-3.9,42.207-22.512A328.891,328.891,0,0,0,990.068,890.155Z" transform="translate(-909.988 -866.206)" fill="#231f20"/><path d="M972.492,910.482c2.044-3.89,3.926-7.7,5.658-11.35-6.1-5.087-26.843-17.63-68.15.214-.042,15.918,7.4,28.837,19.679,33.43v.013c.058.022.1.056.16.073a.48.48,0,0,0,.14.033.874.874,0,0,0,.12.065c.064.02.12.02.18.042l.005-.007C945.388,938.056,962.706,929.1,972.492,910.482Z" transform="translate(-909.978 -846.695)" fill="#e23d3a"/></g><path d="M1041.572,972.411c-20.942-18.507-52.284-7.835-60.709,18.751-5.892,18.584,16.042,31.528,26.277,43.8,13.83,16.574,25.826,36.282,26.711,58.425.854,21.427-5.8,51.578,12.847,57.924,17.027,5.8,27.385-12.495,33.423-24.9,8.6-17.669,12.241-35.863,10.368-55.585-1.4-14.777-6.1-28.873-12.388-42.258C1071.239,1013.953,1058.266,987.166,1041.572,972.411Z" transform="translate(-735.243 -470.361)" fill="#fff"/><g transform="translate(112.612 461.907)"><path d="M939.371,981.838l-.234-.057-9.2-2.479-3.295-24.023,14.393-9.135,7.184,1.938.22.057,7.191,1.939,7.846,15.128-14.91,19.11Z" transform="translate(-891.341 -946.144)" fill="#231f20"/><path d="M925.165,1075.117l-17.951-31.7,37.433-75.923,8.865,2.392h0l.119.028.115.028h0l8.872,2.392-5.763,84.459-31.463,18.382-.057.241-.09-.151-.142.087Z" transform="translate(-907.214 -928.705)" fill="#231f20"/></g></g></g><g transform="translate(0 66.667)"><path d="M854.277,873.12c-10.971-2.1-24.758,6.583-30.659,19.292l-36.726,79.095c-5.905,12.7-.431,25.164,12.153,27.686s27.247-6.01,32.583-18.958l32.861-79.76C869.834,887.522,865.228,875.209,854.277,873.12Z" transform="translate(-397.973 -610.817)" fill="#231f20"/><path d="M882.392,868.981l-30.717-8.89-15.046,52,30.71,8.887a20.376,20.376,0,0,0,25.239-13.907l3.719-12.851A20.378,20.378,0,0,0,882.392,868.981Z" transform="translate(-355.398 -621.205)" fill="#e23d3a"/><g transform="translate(164.43 0.593)"><path d="M929.229,915.937c-46.812-33.562-88.432-77.765-102.642-115.326-23.313-61.605-58.118-71.671-58.118-71.671L662.269,1095.9s33.884,13.238,86.492-26.385c31.566-23.784,88.979-38.83,145.582-42.522C919.9,986.647,927.344,943.562,929.229,915.937Z" transform="translate(-662.269 -728.94)" fill="#e23d3a"/><path d="M879.594,861.631a214.773,214.773,0,0,1-24.505-8.892c-4.962,36.993-13.562,61.007-21.378,76.182a215.29,215.29,0,0,1,24.819,5.467s11.427-3.294,20.341-34.111S879.594,861.631,879.594,861.631Z" transform="translate(-522.212 -627.804)" fill="#e23d3a"/><path d="M890.8,869.8c-21.629-9.25-44.317-22.45-65.917-37.938C823,859.484,815.558,902.569,790,942.919c27.723-1.811,55.229-.887,79.425,3.06C877.239,930.8,885.838,906.789,890.8,869.8Z" transform="translate(-557.923 -644.862)" fill="#b22e2a"/></g><path d="M775.1,927.333c-29.331,101.343-75.768,176.929-103.72,168.839s-26.842-96.794,2.486-198.131,75.759-176.922,103.714-168.833S804.425,826,775.1,927.333Z" transform="translate(-506.948 -728.613)" fill="#b22e2a"/><path d="M691.568,833.339l-5.678,19.61a32.6,32.6,0,0,0,22.257,40.385l26.664,7.715c4.571-12.769,8.921-26.147,12.937-40.031,4.168-14.406,7.746-28.54,10.774-42.244l-26.573-7.693A32.6,32.6,0,0,0,691.568,833.339Z" transform="translate(-479.598 -662.299)" fill="#231f20"/><g transform="translate(0 3.022)"><path d="M610.358,962.939c-9.417-17.606-13.945-37.792-15.068-57.962a193.428,193.428,0,0,1,6.735-60.235c5.185-19.379,13.513-38.524,25.088-55.175a185.46,185.46,0,0,1,41.82-42.778c-10.9,16.65-22,32.6-30.655,49.533A258.632,258.632,0,0,0,618,849.2a297.634,297.634,0,0,0-9.71,55.885A264.406,264.406,0,0,0,610.358,962.939Z" transform="translate(-552.749 -716.788)" fill="#e23d3a"/><path d="M593.671,990.589c-7.495-9.71-11.8-21.582-15.224-33.352a189.352,189.352,0,0,1-6.074-36.437,221.233,221.233,0,0,1,7.041-73.715,217.278,217.278,0,0,1,31.348-67.014A199.6,199.6,0,0,1,634.367,751.7c8.867-8.422,18.371-16.721,29.725-21.427-9.272,7.787-16.643,17.134-23.542,26.736a302.788,302.788,0,0,0-45.147,94.5,305.912,305.912,0,0,0-10.135,69.005,273.2,273.2,0,0,0,1.143,35.227C587.561,967.494,589.466,979.219,593.671,990.589Z" transform="translate(-571.771 -730.277)" fill="#e23d3a"/><path d="M629.143,916.448c-4.938-12.421-6.941-25.784-7.166-39.133a146.29,146.29,0,0,1,20.8-76.56c6.953-11.39,15.464-21.9,26.033-30.087-5.033,12.342-9.973,23.989-14.288,35.792-4.366,11.8-8.14,23.455-11.449,35.579-3.207,11.783-5.936,24-8.134,36.312C632.672,890.711,631.04,903.25,629.143,916.448Z" transform="translate(-530.763 -697.28)" fill="#e23d3a"/></g></g></g></g></g></g></svg>