<svg xmlns="http://www.w3.org/2000/svg" width="547.897" height="468.909" viewBox="0 0 547.897 468.909"><g transform="translate(-204.066 -256.357)"><path d="M751.671,464.981c-2.978,51.168-30.713,91.581-67.821,124.473-19.516,17.307-41.61,32.521-64.06,46.139-23.376,14.174-47.122,26.581-68.732,37.792C454.121,723.656,324.491,757,232.483,678.457c-31.667-27.052-31.567-69.944-24.772-107.85a252.677,252.677,0,0,0,3.746-43.148c.214-29.373-3.447-57.763-3.6-89.116a185.246,185.246,0,0,1,5.356-44.929c11.182-45.584,39.33-86.752,79.7-111.652,25.214-15.556,53.048-25.7,82.991-25.4,24.758.242,49.117,5.8,73.248,11.31,6.14,1.41,12.607,2.792,19.345,4.174C579.078,294.653,760.218,318.485,751.671,464.981Z" fill="#8ddcfa"/><circle cx="92.025" cy="92.025" r="92.025" transform="translate(349.435 398.784) rotate(-45)" fill="#ffe150"/><path d="M306.614,331.745a3.7,3.7,0,1,1-3.7-3.7A3.7,3.7,0,0,1,306.614,331.745Z" fill="#fff"/><path d="M694.7,545.292a3.7,3.7,0,1,1-3.7-3.7A3.7,3.7,0,0,1,694.7,545.292Z" fill="#fff"/><path d="M328.577,590.12a3.7,3.7,0,1,1-3.7-3.7A3.7,3.7,0,0,1,328.577,590.12Z" fill="#fff"/><path d="M425.639,676.249a1.851,1.851,0,1,1-1.85-1.85A1.85,1.85,0,0,1,425.639,676.249Z" fill="#fff"/><path d="M626.9,386.394a1.85,1.85,0,1,1-1.85-1.85A1.851,1.851,0,0,1,626.9,386.394Z" fill="#fff"/><path d="M241.173,652.079a1.851,1.851,0,1,1-1.85-1.85A1.85,1.85,0,0,1,241.173,652.079Z" fill="#fff"/><path d="M683.85,589.454c-19.516,17.307-41.61,32.521-64.06,46.139-2.507.242-4.9.47-7.179.741a721.451,721.451,0,0,1-95.57,4.644,73.121,73.121,0,0,1-18.419-2.579c-12.521-3.575-23.233-11.381-22.308-26.553.727-11.894,11.653-22.264,23.576-22.364-5.784-30.8,17.066-64.06,47.877-69.7S611.742,537.16,617.24,568c15.257-9.4,35.869-11.2,50.941-1.51A37.13,37.13,0,0,1,683.85,589.454Z" fill="#fff8e1"/><path d="M388.722,522.659c-3.148,4.017-8.462,5.527-13.462,6.524-29,5.855-59.23,3.234-88.575,2.322-25.1-.77-50.228-1.709-75.228-4.046.214-29.373-3.447-57.763-3.6-89.116a185.246,185.246,0,0,1,5.356-44.929,42.27,42.27,0,0,1,6.994,1.154c14.089,3.547,25.741,14.059,32.992,26.638s10.484,27.108,11.966,41.552c9.4-23.9,40.983-36.04,63.974-24.572,22.992,11.453,32.322,43.974,18.9,65.883,9.5-3.846,19.886-7.764,29.758-5.014S395.075,514.61,388.722,522.659Z" fill="#fff8e1"/></g></svg>