<svg xmlns="http://www.w3.org/2000/svg" width="377.53" height="177.66" viewBox="0 0 377.53 177.66"><g transform="translate(-61.689 -63.523)"><path d="M80.816,241.184H361.94l.336-.605a12.434,12.434,0,0,1,22.057.605h35.76a19.126,19.126,0,0,0,19.126-19.126V82.649a19.126,19.126,0,0,0-19.126-19.126H385.667a13.215,13.215,0,0,1-23.694.066l-.033-.066H80.816A19.126,19.126,0,0,0,61.689,82.649V222.058A19.126,19.126,0,0,0,80.816,241.184Z" fill="#fff"/><path d="M420.114,241.184H384.333l-.351-.632a12.41,12.41,0,0,0-10.1-6.35h0V70.914h0a13.663,13.663,0,0,0,11.441-6.808l.339-.583h34.447a19.1,19.1,0,0,1,19.1,19.1V222.079A19.1,19.1,0,0,1,420.114,241.184Z" fill="#f9bf6b"/></g></svg>