<svg xmlns="http://www.w3.org/2000/svg" xmlns:xlink="http://www.w3.org/1999/xlink" width="330.041" height="416.86" viewBox="0 0 330.041 416.86"><defs><clipPath id="a"><circle cx="16.63" cy="16.63" r="16.63" transform="translate(0 23.295) rotate(-44.456)" fill="none"/></clipPath><clipPath id="b"><path d="M330.676,334.371q-6.215,7.082-12.429,14.168c-4.857,5.537-1.254,13.56-.565,19.823.554,5.019.674,10.554-5.742,11.12a6.269,6.269,0,0,1-5.681-3.016c-3.157-4.568-4.782-10-6.1-15.4q-1.779-7.292-2.923-14.72a8.683,8.683,0,0,1,2.395-7.442l18.038-18.2Z" transform="translate(-297.136 -320.706)" fill="none"/></clipPath><clipPath id="c"><circle cx="15.552" cy="15.552" r="15.552" transform="translate(0 29.297) rotate(-70.376)" fill="none"/></clipPath><clipPath id="d"><path d="M160.454,334.371q6.215,7.082,12.429,14.168c4.858,5.537,1.254,13.56.564,19.823-.552,5.019-.674,10.554,5.742,11.12a6.267,6.267,0,0,0,5.681-3.016c3.157-4.568,4.782-10,6.1-15.4q1.779-7.292,2.923-14.72A8.674,8.674,0,0,0,191.5,338.9l-18.038-18.2Z" transform="translate(-160.454 -320.706)" fill="none"/></clipPath></defs><g transform="translate(560.953 -100.176)"><g transform="translate(-560.953 100.176)"><path d="M281.691,341.934a68.321,68.321,0,0,1-74.6,8.795" transform="translate(-91.424 -37.536)" fill="none" stroke="#217838" stroke-miterlimit="10" stroke-width="0.5"/><g transform="translate(173.276 42.389)"><path d="M336.622,204.1q-5.089-8.753-10.177-17.506c-2.815-4.84-7.049-10.393-12.566-9.445-4.882.839-7.319,6.295-11.234,9.33-3.049,2.363-7.479,3.175-10.845,1.29s-4.915-6.772-2.654-9.9c2.44-3.372,8.275-2.967,10.688.426s1.345,8.539-1.854,11.2a9.948,9.948,0,0,1-11.863.383c-3.657-2.666-4.953-7.412-6.727-11.576s-5.091-8.52-9.614-8.38c-3.621.111-6.454,3.1-8.508,6.082s-3.945,6.35-7.173,7.993-8.227.285-8.628-3.315" transform="translate(-245.465 -166.152)" fill="none" stroke="#153033" stroke-miterlimit="10" stroke-width="0.5"/><circle cx="3.922" cy="3.922" r="3.922" transform="translate(69.794 3.922)" fill="#ff3d21"/><circle cx="3.522" cy="3.522" r="3.522" transform="translate(38.315 24.932)" fill="#ff3d21"/><path d="M265.23,171.031a3.62,3.62,0,1,0,3.62-3.62A3.62,3.62,0,0,0,265.23,171.031Z" transform="translate(-235.557 -167.411)" fill="#ff3d21"/><path d="M274.674,175.653a3.62,3.62,0,1,0,3.62-3.62A3.619,3.619,0,0,0,274.674,175.653Z" transform="translate(-230.823 -165.094)" fill="#ff3d21"/><path d="M284.118,181.279a3.62,3.62,0,1,0,3.62-3.62A3.619,3.619,0,0,0,284.118,181.279Z" transform="translate(-226.089 -162.274)" fill="#00c0eb"/><path d="M264.9,178.832a3.123,3.123,0,1,0,3.123-3.124A3.122,3.122,0,0,0,264.9,178.832Z" transform="translate(-235.72 -163.252)" fill="#00c0eb"/><path d="M293.014,173.415a2.331,2.331,0,1,0,2.331-2.332A2.331,2.331,0,0,0,293.014,173.415Z" transform="translate(-221.629 -165.57)" fill="#ff9b70"/><path d="M272.043,187.01a1.935,1.935,0,1,0,1.935-1.934A1.935,1.935,0,0,0,272.043,187.01Z" transform="translate(-232.142 -158.556)" fill="#ff9b70"/><circle cx="1.773" cy="1.773" r="1.773" transform="translate(31.519 1.847)" fill="#ff9b70"/><path d="M276.155,174.91a1.4,1.4,0,1,0,1.4-1.4A1.4,1.4,0,0,0,276.155,174.91Z" transform="translate(-230.081 -164.352)" fill="#ff9b70"/></g><g transform="translate(68.446 42.389)"><path d="M175.638,204.1l10.179-17.506c2.813-4.84,7.047-10.393,12.564-9.445,4.882.839,7.319,6.295,11.236,9.33,3.048,2.363,7.479,3.175,10.844,1.29s4.915-6.772,2.654-9.9c-2.44-3.372-8.275-2.967-10.688.426s-1.344,8.539,1.854,11.2a9.948,9.948,0,0,0,11.863.383c3.659-2.666,4.953-7.412,6.727-11.576s5.091-8.52,9.616-8.38c3.62.111,6.454,3.1,8.508,6.082s3.944,6.35,7.172,7.993,8.229.285,8.629-3.315" transform="translate(-175.638 -166.152)" fill="none" stroke="#153033" stroke-miterlimit="10" stroke-width="0.5"/><circle cx="3.922" cy="3.922" r="3.922" transform="translate(13.52 3.922)" fill="#ff3d21"/><circle cx="3.522" cy="3.522" r="3.522" transform="translate(45.798 24.932)" fill="#ff3d21"/><path d="M219.011,171.031a3.62,3.62,0,1,1-3.62-3.62A3.621,3.621,0,0,1,219.011,171.031Z" transform="translate(-157.526 -167.411)" fill="#ff3d21"/><path d="M209.567,175.653a3.62,3.62,0,1,1-3.621-3.62A3.62,3.62,0,0,1,209.567,175.653Z" transform="translate(-162.26 -165.094)" fill="#ff3d21"/><path d="M200.123,181.279a3.62,3.62,0,1,1-3.621-3.62A3.62,3.62,0,0,1,200.123,181.279Z" transform="translate(-166.994 -162.274)" fill="#00c0eb"/><path d="M219,178.832a3.123,3.123,0,1,1-3.123-3.124A3.122,3.122,0,0,1,219,178.832Z" transform="translate(-157.031 -163.252)" fill="#00c0eb"/><path d="M190.364,173.415a2.331,2.331,0,1,1-2.33-2.332A2.33,2.33,0,0,1,190.364,173.415Z" transform="translate(-170.593 -165.57)" fill="#ff9b70"/><path d="M211.071,187.01a1.935,1.935,0,1,1-1.935-1.934A1.935,1.935,0,0,1,211.071,187.01Z" transform="translate(-159.816 -158.556)" fill="#ff9b70"/><circle cx="1.773" cy="1.773" r="1.773" transform="translate(56.091 1.847)" fill="#ff9b70"/><circle cx="1.396" cy="1.396" r="1.396" transform="translate(42.29 9.162)" fill="#ff9b70"/></g><g transform="translate(127.774)"><g transform="translate(45.203)"><path d="M280.1,139.35c-1.224-1.384-2.461,5.89-2.722,6.823a80.334,80.334,0,0,1-3.391,9.649,44.431,44.431,0,0,1-1.965,4.038c-.032-.014-.054-.033-.089-.045-1.528-.539-2.162-5.884-2.561-7.542-.639-2.65-1.228-5.313-1.749-8a.929.929,0,1,0-1.833.3c.378,3.543.845,7.052,1.536,10.529.56,2.824.884,5.972,2.228,8.439.039.071.081.116.122.18a57.444,57.444,0,0,1-3.588,4.776,65,65,0,0,1-7.972,7.679c-.134-.188-.252-.389-.393-.568a15.912,15.912,0,0,1-.183-2.1c-.162-2.982-.077-5.927-.4-8.9-.162-1.476-2.123-2.193-2.407-.392a66.391,66.391,0,0,0-.764,14.495c.162,2.4-3.819,5.2-5.636,6.58a11.051,11.051,0,0,0-2.36,2.1,3.039,3.039,0,0,0-.5,2.983,5.6,5.6,0,0,0,2.437,2.238c.537.212,3.432-.065,3.214-1.06l.023.1a16.178,16.178,0,0,0,2.09-3.181,27.343,27.343,0,0,1,1.958-2.6l.183-.234c1.261-1.01,2.51-2.087,3.735-3.222a23.946,23.946,0,0,1,7.073-1.506,15.452,15.452,0,0,0,6.786-1.227c3.663-1.785,6.412-5.45,7.937-9.767.614-1.735-1.431-3.3-2.166-1.521-2.854,6.888-7.535,7.894-13.283,7.482,1.865-2.121,3.6-4.271,5.128-6.34a53.255,53.255,0,0,0,7.559-14.553c1.311-3.858,4.223-11.377,2.153-15.343A1.433,1.433,0,0,0,280.1,139.35Z" transform="translate(-245.266 -139.176)" fill="#005569"/></g><g transform="translate(0 3.781)"><path d="M249.142,186.812c-1.212-.838-2.629-1.422-3.84-2.279a9.034,9.034,0,0,1-2.846-3.171c-.653-1.3-.126-3.34-.128-4.807a69.883,69.883,0,0,0-.884-10.764c-.284-1.8-2.244-1.084-2.407.392-.326,2.971-.24,5.915-.4,8.9a15.906,15.906,0,0,1-.182,2.1c-.143.179-.261.38-.395.567a65.005,65.005,0,0,1-7.972-7.679A57.426,57.426,0,0,1,226.5,165.3c.041-.065.083-.11.122-.18,1.344-2.467,1.668-5.615,2.229-8.439.689-3.477,1.158-6.985,1.534-10.529a.929.929,0,1,0-1.833-.3c-.521,2.687-1.109,5.351-1.747,8-.4,1.659-1.034,7-2.563,7.542-.033.012-.056.032-.089.045a44.423,44.423,0,0,1-1.965-4.038,45.6,45.6,0,0,1-2.767-9.679c-.263-1.452.053-4.98-1.5-5.808-2.967-1.582-1.857,5.893-1.7,7.044a49.389,49.389,0,0,0,8.889,21.491c.159.224.321.447.485.668,1.533,2.069,3.264,4.219,5.128,6.34-5.748.411-10.429-.595-13.283-7.482-.736-1.775-2.78-.216-2.166,1.521,1.527,4.318,4.276,7.982,7.937,9.767a15.452,15.452,0,0,0,6.786,1.227,16.428,16.428,0,0,1,8.734,2.491c2.572,1.835,4.6,4.294,6.937,6.4a4.168,4.168,0,0,0,2.348,1.288,3.214,3.214,0,0,0,2.3-.938,2.811,2.811,0,0,0,.923-1.366,2.875,2.875,0,0,0-.889-2.528A7.255,7.255,0,0,0,249.142,186.812Z" transform="translate(-215.156 -141.694)" fill="#005569"/></g><g transform="translate(9.42 49.599)"><g transform="translate(4.423 16.547)"><path d="M232.505,183.477c-1.09,1.188-2.211,2.336-3.343,3.477a3.074,3.074,0,0,0-4.388,1c-1.416,2.645,1.191,6.109,4.142,5.142a3.268,3.268,0,0,0,1.859-4.346c.992-1.437,2-2.861,3.051-4.258C234.4,183.732,233.143,182.782,232.505,183.477Z" transform="translate(-224.377 -183.235)" fill="#005a6e"/></g><path d="M252.778,178.407a7.921,7.921,0,0,0-6.822-6.068,10.056,10.056,0,0,0-6.014.859c-1.985.989-3.351,2.662-5.016,4.077a33.483,33.483,0,0,1-11.6,6.6c-.71.221-2.144.667-1.856,1.6.2.631,2.2,1.561,2.755,1.949a59.774,59.774,0,0,1,11.467,10.535c.836,1,1.642,2.021,2.407,3.073.63.869.83,1.641,1.66.721,1.012-1.121,1.24-2.926,2.021-4.2a34.256,34.256,0,0,1,3.273-4.49c1.62-1.878,3.442-3.581,4.966-5.535C252.041,184.927,253.494,181.752,252.778,178.407Z" transform="translate(-221.431 -172.213)" fill="#fb0"/></g><g transform="translate(41.559 48.241)"><g transform="translate(15.656 19.797)"><path d="M253.414,185.7c.889,1.1,1.741,2.217,2.585,3.345a2.7,2.7,0,0,0,.308,3.935c2.112,1.567,5.45-.249,4.99-2.932a2.864,2.864,0,0,0-3.531-2.169c-1.118-1.046-2.225-2.1-3.3-3.192C253.877,184.086,252.893,185.053,253.414,185.7Z" transform="translate(-253.267 -184.496)" fill="#005a6e"/></g><path d="M269.253,185.86l-3.963-2.617a10.461,10.461,0,0,1-2.767-3.007c-1.674-2.282-3.159-5.188-5.447-6.928-2.931-2.228-6.589-2.761-9.781-.739a10.174,10.174,0,0,0-4.4,9.748c.338,3.666,2.531,6.681,4.469,9.674a24.162,24.162,0,0,1,2.509,4.654,6.327,6.327,0,0,1,.715,3.028,2.523,2.523,0,0,0,.065,1.326c.857,2.042,9.76-4.373,11.079-5.325q2.518-1.815,4.854-3.864c1.291-1.133,3-2.384,3.816-3.93a1.155,1.155,0,0,0,.028-1.118,1.7,1.7,0,0,0-.548-.489Z" transform="translate(-242.838 -171.309)" fill="#fb0"/></g><g transform="translate(24.375 24.176)"><path d="M267.284,188.309c-2.027-3.987-4.732-8.593-9.026-10.47-3.617-1.581-7.594-.962-11.216.275l-.044-.05a.951.951,0,0,0-.272-.2,24.9,24.9,0,0,0,2.434-11.773c-.078-3.731-1.889-7.325-3.117-10.809-5.331,6.8-4.785,14.729-2.07,22.383a17.442,17.442,0,0,0-12.548,17.852c-.019-.32,4.273-2.588,4.764-2.918,1.626-1.093,3.21-2.255,4.732-3.489a16.4,16.4,0,0,0,5.271-8.476c4.768,6.573,12.342,10.483,20.592,8.91A.847.847,0,0,0,267.284,188.309Z" transform="translate(-231.393 -155.279)" fill="#2a9674"/></g><g transform="translate(33.487 42.506)"><path d="M245.462,173.537a4,4,0,1,1-4-4A4,4,0,0,1,245.462,173.537Z" transform="translate(-237.462 -166.462)" fill="#ff533a"/><circle cx="2.773" cy="2.773" r="2.773" transform="translate(5.655)" fill="#ff533a"/><path d="M248.557,173.9a2.773,2.773,0,1,1-2.773-2.773A2.773,2.773,0,0,1,248.557,173.9Z" transform="translate(-234.68 -165.667)" fill="#ff533a"/></g></g><g transform="translate(241.048 39.01)"><g transform="translate(26.936)"><g transform="translate(3.265)"><path d="M311.654,179.324l-.929-.456c1.8-4.42,3.854-7.4,6.663-9.658a20.128,20.128,0,0,1,6.229-3.394c1.323-.444,4.615-1.312,6.621.189h0a3.542,3.542,0,0,1,1.129,1.447,3.809,3.809,0,0,1-1.222,4.5c-1.567,1.144-3.279.974-4.933.808-.312-.032-.625-.063-.934-.084a13.481,13.481,0,0,0-12.623,6.649ZM327.272,166.2a11.277,11.277,0,0,0-3.324.6,19.043,19.043,0,0,0-5.909,3.22,18.425,18.425,0,0,0-4.469,5.327,14.482,14.482,0,0,1,10.779-3.71c.321.024.643.056.965.089,1.53.153,2.971.3,4.217-.614a2.784,2.784,0,0,0,.88-3.247,2.443,2.443,0,0,0-.8-1.027h0A3.882,3.882,0,0,0,327.272,166.2Z" transform="translate(-310.725 -165.16)" fill="#005a6e"/></g><g transform="translate(0 12.101)"><path d="M314,179.024c.008-.018.018-.035.026-.053.976-2.4,1.516-4.444-.959-5.451-2.59-1.054-3.517.835-4.493,3.232-.007.018-.01.038-.018.056Z" transform="translate(-308.55 -173.221)" fill="#005a6e"/></g></g><g transform="translate(0 7.443)"><g transform="translate(0 0)"><circle cx="16.63" cy="16.63" r="16.63" transform="translate(0 23.295) rotate(-44.456)" fill="#fb0"/></g><g transform="translate(0 0)"><g clip-path="url(#a)"><g transform="translate(6.284 13.175)"><path d="M323.529,196.639l-1.321-8.392-7.015,4.968-2.9-8.845-7.167,4.406-2.537-8.38-7.313,3.817-.481-.921,8.425-4.4,2.511,8.291,7.139-4.39,2.873,8.758,7.232-5.123,1.351,8.583,6.979-3.847.5.91Z" transform="translate(-294.793 -178.894)" fill="#005a6e"/></g><g transform="translate(3.09 19.184)"><path d="M321.4,200.642l-1.321-8.393-7.015,4.968-2.9-8.845L303,192.779l-2.537-8.38-7.313,3.817-.481-.921,8.425-4.4,2.511,8.291,7.139-4.39,2.873,8.757,7.232-5.123,1.351,8.583,6.979-3.848.5.91Z" transform="translate(-292.666 -182.897)" fill="#005a6e"/></g><g transform="translate(18.852 -8.8)"><path d="M327.956,181.088c-2.452,6.023-9.809,8.721-16.435,6.025s-10.009-9.764-7.557-15.786,9.808-8.721,16.433-6.025S330.406,175.065,327.956,181.088Z" transform="translate(-303.165 -164.256)" fill="#ff533a"/></g><g transform="translate(-1.811 28.421)"><ellipse cx="11.774" cy="12.951" rx="11.774" ry="12.951" transform="matrix(0.377, -0.926, 0.926, 0.377, 0, 21.811)" fill="#ff533a"/></g></g></g></g></g><g transform="translate(266.642 76.21)"><path d="M329.4,211.967c-1.521-5.714-3.908-11.581-5.43-17.295" transform="translate(-299.48 -187.566)" fill="none" stroke="#217838" stroke-miterlimit="10" stroke-width="0.5"/><path d="M342.508,209.206q.009-.523-.026-1.049a5.77,5.77,0,0,0-2.732-4.8,5.209,5.209,0,0,0-5.372.607,8.567,8.567,0,0,0-2.984,4.729,47.24,47.24,0,0,0-1.477,12.935,59.423,59.423,0,0,0,.632,7.6c.191,1.276,1.866,5.628,1.4,6.652l6.6-14.528C340.3,217.524,342.445,213.523,342.508,209.206Z" transform="translate(-296.501 -183.458)" fill="#2a9674"/><path d="M327.5,211.911c-5.1-4.791-12.7-11.285-18.266-4.657-2.407,2.863-1.85,7.355.266,10.44,4.214,6.143,10.586,5.938,17.013,8.179a59.667,59.667,0,0,1,9.128,4.073c1.74.958,7.265,3.366,7.972,5.277a57.617,57.617,0,0,0-14.486-21.773C328.62,212.972,328.075,212.453,327.5,211.911Z" transform="translate(-307.656 -182.674)" fill="#2a9674"/><path d="M351.424,220.221c2.588.877,4.016,3.481,2.019,8.032-1.82,4.153-6.031,6.085-9.053,9.126-3.552,3.576-6.259,7.982-9.171,12.153-.182-8.434.749-18.164,5.711-25.277C343.455,220.634,348.291,219.16,351.424,220.221Z" transform="translate(-293.849 -174.927)" fill="#2a9674"/><path d="M316.6,194.806c11.261,10.257,14.842,18.783,19.053,33.722s6.7,30.563,13.8,44.361" transform="translate(-303.173 -187.499)" fill="none" stroke="#217838" stroke-miterlimit="10" stroke-width="0.5"/><path d="M344.632,245.016c-5.537-7.687-11.093-15.094-20.895-17.476a8.4,8.4,0,0,0-4.794-.065c-5.951,2.139-.095,6.477,2.41,8.178,3.866,2.627,7.795,3.171,12.04,4.678A112.028,112.028,0,0,1,344.632,245.016Z" transform="translate(-303.292 -171.286)" fill="#2a9674"/><path d="M341.668,222.311q-2.428,7.013-4.854,14.028c-4.04-2.755-7.84-5.654-11.881-8.409" transform="translate(-298.995 -173.711)" fill="none" stroke="#217838" stroke-miterlimit="10" stroke-width="0.5"/><path d="M333.628,192.528c-1.326,5.188-2.366,23.857-2.178,29.207a27.127,27.127,0,0,0-11.512-6.841" transform="translate(-301.499 -188.641)" fill="none" stroke="#217838" stroke-miterlimit="10" stroke-width="0.5"/><path d="M326.856,193.063a2.98,2.98,0,1,0,2.831-3.121A2.98,2.98,0,0,0,326.856,193.063Z" transform="translate(-298.033 -189.939)" fill="#c92c2c"/><path d="M318.427,207.724a2.158,2.158,0,1,0,2.051-2.261A2.157,2.157,0,0,0,318.427,207.724Z" transform="translate(-302.258 -182.158)" fill="#c92c2c"/><path d="M334.646,222.725a2.055,2.055,0,1,0,1.953-2.153A2.055,2.055,0,0,0,334.646,222.725Z" transform="translate(-294.127 -174.584)" fill="#c92c2c"/><circle cx="2.363" cy="2.363" r="2.363" transform="matrix(0.969, -0.247, 0.247, 0.969, 22.63, 52.823)" fill="#c92c2c"/><path d="M318.35,192.682c-3.639-.452-6.232,2.383-4.217,5.9,1.681,2.935,5.589,4.193,8.239,6.02a44.071,44.071,0,0,1,4.64,3.614c.536.486,2.867,3.484,3.43,3.091a30.291,30.291,0,0,0-6.582-15.4,9.455,9.455,0,0,0-4.908-3.114Q318.647,192.718,318.35,192.682Z" transform="translate(-304.762 -188.587)" fill="#2a9674"/><path d="M322.227,195.094a2.158,2.158,0,1,0,2.049-2.259A2.16,2.16,0,0,0,322.227,195.094Z" transform="translate(-300.353 -188.488)" fill="#c92c2c"/></g><g transform="translate(287.534 140.321)"><g transform="translate(18.223)"><path d="M342.149,232.649c-2.129-.119-3.945,1.6-4.941,3.486a29.055,29.055,0,0,0-3.5,11.375c.019-.293,3.322-1.413,3.723-1.624,1.177-.626,2.407-1.1,3.581-1.7a11.8,11.8,0,0,0,2.129-1.351,7.4,7.4,0,0,0,2.959-5.657C346.055,234.974,344.35,232.771,342.149,232.649Zm-1.854,8.436a1.022,1.022,0,0,1-.042.105,3.3,3.3,0,0,1-.73.953,25.656,25.656,0,0,1-4.891,3.834c.557-.278,1.353-2.861,1.781-3.549a15.182,15.182,0,0,1,1.087-1.549c.405-.5,1.078-1.359,1.787-1.4C340.184,239.423,340.572,240.307,340.295,241.085Z" transform="translate(-333.71 -232.643)" fill="#005569"/></g><g transform="translate(8.199 2.945)"><path d="M337.3,241.4a8.424,8.424,0,0,0-.422-.974c-.893-1.758-1.8-4.043-3.509-5.17a4.093,4.093,0,0,0-6.124,4.755,5.51,5.51,0,0,0,2.413,2.777c3.058,1.875,6.769,2.89,10.065,4.312C337.832,246.285,337.905,243.1,337.3,241.4Zm-1.905.524c.086.2.161.393.236.591l.793,2.087c-.426-1.124-1.789-1.51-2.771-1.983a3.449,3.449,0,0,1-.863-.527,1.151,1.151,0,0,1-.407-.892,1.08,1.08,0,0,1,1.078-.91C334.409,240.28,335.051,241.143,335.393,241.925Z" transform="translate(-327.033 -234.605)" fill="#005569"/></g><g transform="translate(1.796 14.008)"><path d="M357.17,284.256v-40.79a1.492,1.492,0,0,0-1.491-1.492h-31.42a1.492,1.492,0,0,0-1.491,1.492v40.79Z" transform="translate(-322.768 -241.974)" fill="#fb0"/></g><g transform="translate(0 13.011)"><rect width="37.993" height="6.35" rx="0.995" fill="#00c0eb"/></g><g transform="translate(17.437 12.74)"><path d="M333.238,284.68h3.1c.054-14.864.039-29.476-.05-43.551l-3.1.021C333.277,255.217,333.292,269.822,333.238,284.68Z" transform="translate(-333.187 -241.129)" fill="#005569"/></g><g transform="translate(1.796 35.605)"><rect width="34.402" height="3.116" fill="#005569"/></g></g><g transform="translate(263.635 199.061)"><path d="M323.656,289.854a34.387,34.387,0,0,1-.224-16.241c.009-.042,4.381,3.036,4.765,3.4a22.443,22.443,0,0,1,3.935,4.93c2.171,3.678,2.624,7.356,3.049,11.485.317,3.082.869,7.266-.838,10.008A20.817,20.817,0,0,1,323.656,289.854Z" transform="translate(-297.172 -270.845)" fill="#1f7046"/><path d="M343.394,290.06a22.771,22.771,0,0,1,16.549.059c.564.233-7.721,7.829-8.617,8.376-5.96,3.635-14.765,6.58-21.558,3.809A24.354,24.354,0,0,1,343.394,290.06Z" transform="translate(-293.564 -263.366)" fill="#1f7046"/><path d="M317.242,285c6.483,5.061,10.8,13.336,12.293,21.329,1.4,7.538-.174,14.123-1.737,21.425a35.7,35.7,0,0,1-12.285-18.991c-2.159-8.5.114-15.709,1.683-23.8Z" transform="translate(-301.154 -265.157)" fill="#1f7046"/><path d="M338.858,303.037A31.69,31.69,0,0,1,358.84,300.5c-6.931,12.267-21.282,19.58-35.261,18.316C328.515,312.751,331.186,306.767,338.858,303.037Z" transform="translate(-296.666 -257.676)" fill="#1f7046"/><path d="M315.074,354.642c14.414-24.249,25.851-50,29.793-79.106" transform="translate(-300.93 -269.881)" fill="none" stroke="#153033" stroke-miterlimit="10" stroke-width="0.5"/><path d="M340.944,274.806a4.907,4.907,0,1,1-6.407-2.665A4.906,4.906,0,0,1,340.944,274.806Z" transform="translate(-292.695 -271.769)" fill="#c92c2c"/><path d="M331.757,295.433q8.262-6.868,16.523-13.738" transform="translate(-292.567 -266.794)" fill="none" stroke="#153033" stroke-miterlimit="10" stroke-width="0.5"/><path d="M348.018,282a4.449,4.449,0,1,1-5.81-2.416A4.45,4.45,0,0,1,348.018,282Z" transform="translate(-288.708 -268.019)" fill="#c92c2c"/><path d="M308.742,304.639c4.695,9.415,11.911,12.863,16.606,22.276,10-2.524,22.991-4.711,31.462-8.858" transform="translate(-304.104 -255.292)" fill="none" stroke="#153033" stroke-miterlimit="10" stroke-width="0.5"/><path d="M314.236,304.214a4.46,4.46,0,1,1-5.823-2.422A4.459,4.459,0,0,1,314.236,304.214Z" transform="translate(-305.652 -256.889)" fill="#c92c2c"/><path d="M346.382,316.39a4.373,4.373,0,1,1-2.755-5.537A4.374,4.374,0,0,1,346.382,316.39Z" transform="translate(-289.506 -252.292)" fill="#c92c2c"/><path d="M323.622,315.682l15.851-8.629" transform="translate(-296.645 -254.082)" fill="none" stroke="#153033" stroke-miterlimit="10" stroke-width="0.5"/><path d="M329.682,300.141l15.613-7.472" transform="translate(-293.607 -261.293)" fill="none" stroke="#153033" stroke-miterlimit="10" stroke-width="0.5"/><path d="M325.4,319.184q-2.943-9.039-5.888-18.075" transform="translate(-298.705 -257.062)" fill="none" stroke="#153033" stroke-miterlimit="10" stroke-width="0.5"/><path d="M333.247,298.83q-3.337-8.433-6.672-16.868" transform="translate(-295.164 -266.66)" fill="none" stroke="#153033" stroke-miterlimit="10" stroke-width="0.5"/></g><g transform="translate(153.971 283.89)"><path d="M232.606,352.927c25.713,13.417,59.49,6.428,79.046-14.445" transform="translate(-232.606 -323.156)" fill="none" stroke="#217838" stroke-miterlimit="10" stroke-width="0.5"/><path d="M286.5,353.245q7.037-5.247,14.076-10.5c2.892-2.156,6.089-4.927,5.884-8.529-.167-2.911-2.774-5.309-5.645-5.82a10.807,10.807,0,0,0-8.178,2.327,28.865,28.865,0,0,0-5.822,6.48c-4.813,6.694-8.012,15.408-14.8,20.072-.329.227-.7.534-.656.932.069.655,1.022.655,1.65.459C277.772,357.2,282.485,356.234,286.5,353.245Z" transform="translate(-213.181 -328.273)" fill="#2a9674"/><path d="M277.451,365.007a28.171,28.171,0,0,0,4.664,1.2,11.394,11.394,0,0,0,6.151-.341,5.214,5.214,0,0,0,3.426-4.746c-.164-3.475-5.813-4.728-8.392-5.115-7.412-1.114-14.612-2.983-21.928-4.5A29.615,29.615,0,0,0,277.451,365.007Z" transform="translate(-218.186 -316.63)" fill="#2a9674"/><path d="M279.406,338.447c.7-2.525.85-5.735-1.291-7.247-1.974-1.395-4.9-.384-6.392,1.519s-1.919,4.4-2.3,6.792q-.863,5.427-1.727,10.853a54.514,54.514,0,0,1-3.112,11.042,7.652,7.652,0,0,0,4.141-3.12C272.548,351.882,277.406,345.731,279.406,338.447Z" transform="translate(-216.575 -327.132)" fill="#2a9674"/><path d="M257.629,371.651a4.51,4.51,0,0,0,4.532,1.335c2.115-.76,2.893-3.537,2.219-5.682-2.315-7.35-11.06-9.114-15.125-14.944.539,4,2.459,7.413,3.9,11.06C254.248,366.2,255.469,369.478,257.629,371.651Z" transform="translate(-224.26 -316.2)" fill="#2a9674"/><path d="M263.436,345.384c1.125-1.608,1.5-3.219.162-4.492-1.829-1.732-5.568-.573-7.383.6a21.976,21.976,0,0,0-4.1,3.758c-3.049,3.313-5.975,6.511-9.279,9.556C250.434,354.476,258.911,351.841,263.436,345.384Z" transform="translate(-227.476 -322.39)" fill="#2a9674"/><path d="M266.491,343.128a41.568,41.568,0,0,1-10.94,14.144c3.821,3.965,7.25,8.218,11.07,12.183" transform="translate(-221.104 -320.827)" fill="none" stroke="#217838" stroke-miterlimit="10" stroke-width="0.5"/><path d="M268.521,349.739a134.355,134.355,0,0,1,23.325,3.653" transform="translate(-214.602 -317.513)" fill="none" stroke="#217838" stroke-miterlimit="10" stroke-width="0.5"/><path d="M241.241,351.2c3.653,5.7,4.133,10.595,7.784,16.292" transform="translate(-228.277 -316.78)" fill="none" stroke="#217838" stroke-miterlimit="10" stroke-width="0.5"/><path d="M282.3,356.876a5.18,5.18,0,1,1,7.281.8A5.181,5.181,0,0,1,282.3,356.876Z" transform="translate(-208.265 -318.156)" fill="#c92c2c"/><path d="M261.971,364.778a3.493,3.493,0,1,1,4.912.542A3.494,3.494,0,0,1,261.971,364.778Z" transform="translate(-218.27 -312.821)" fill="#c92c2c"/><path d="M244.155,365.983a4.56,4.56,0,1,1,6.41.707A4.558,4.558,0,0,1,244.155,365.983Z" transform="translate(-227.319 -313.086)" fill="#c92c2c"/><path d="M261.27,346.264a3.493,3.493,0,1,1,4.911.542A3.493,3.493,0,0,1,261.27,346.264Z" transform="translate(-218.622 -322.101)" fill="#c92c2c"/></g><g transform="translate(250.848 270.031)"><g transform="translate(0 2.498)"><g clip-path="url(#b)"><path d="M330.676,334.371q-6.215,7.082-12.429,14.168c-4.857,5.537-1.254,13.56-.565,19.823.554,5.019.674,10.554-5.742,11.12a6.269,6.269,0,0,1-5.681-3.016c-3.157-4.568-4.782-10-6.1-15.4q-1.779-7.292-2.923-14.72a8.683,8.683,0,0,1,2.395-7.442l18.038-18.2Z" transform="translate(-297.136 -320.706)" fill="#ff533a"/><path d="M307.573,354.853A7.441,7.441,0,0,0,303,357.987a4.346,4.346,0,0,0-.812,2.349A4.674,4.674,0,0,0,303.3,363.1a7.108,7.108,0,0,0,3.833,2.671,9.351,9.351,0,0,0,4.873-.422c2.749-.829,8.141-3.638,6.176-7.367C316.69,355.143,310.361,354.245,307.573,354.853Z" transform="translate(-294.603 -303.679)" fill="#00c0eb"/><path d="M300.231,330.279a7.685,7.685,0,0,1-4.535,13.542" transform="translate(-297.857 -315.907)" fill="#00c0eb"/><path d="M322.3,355.981a7.348,7.348,0,0,0-5.22-5.394,4.432,4.432,0,0,0-3.9.608,2.544,2.544,0,0,0-.392,3.609c.977.955,3.058.225,2.956-1.136a2.461,2.461,0,0,0-.47-1.147,5.2,5.2,0,0,0-4.866-2.48c-1.9.294-3.447,2.434-2.714,4.211.279.68,1.025,1.273,1.711,1.012.854-.327.814-1.585.372-2.387a4.058,4.058,0,0,0-3.83-2.144,3.155,3.155,0,0,0-2.8,3.142c.074,1.076,1.171,2.157,2.16,1.722a2.646,2.646,0,0,0-1.829-3.132,3.525,3.525,0,0,0-3.594,1.263,5.372,5.372,0,0,0-1.039,3.8" transform="translate(-296.288 -306.024)" fill="none" stroke="#420e0e" stroke-miterlimit="10" stroke-width="0.5"/><path d="M330.858,346.672a8.606,8.606,0,0,1-7.586.288,6.066,6.066,0,0,1-3.339-6.489c.321-1.377,2.018-2.7,3.025-1.711a1.75,1.75,0,0,1,.459,1.028c.278,2.087-2.039,3.894-4.115,3.549a5.316,5.316,0,0,1-4-4.375,4.654,4.654,0,0,1,.608-3.546,2.789,2.789,0,0,1,3.247-1.057c1.012,2.1-1.423,4.637-3.728,4.31s-3.923-2.6-4.318-4.894a3.768,3.768,0,0,1,.9-3.552c.979-.824,2.894-.339,2.94.94a1.957,1.957,0,0,1-.386,1.139c-1.44,2.124-5.151,1.722-6.428-.5s-.152-5.336,2.075-6.615c1.522,1.729-.08,4.81-2.361,5.14s-4.457-1.4-5.408-3.5a16.178,16.178,0,0,1-.949-6.792" transform="translate(-294.949 -321.044)" fill="none" stroke="#420e0e" stroke-miterlimit="10" stroke-width="0.5"/></g></g><path d="M309.3,326.364a10.986,10.986,0,0,0,.97,1.168c3.429,3.695,6.948,7.211,10.435,10.872a3.094,3.094,0,0,0,4.375.108l2.725-2.594a3.629,3.629,0,0,0,.664-3.893,7.34,7.34,0,0,0-1.51-1.943l-7.526-7.72c-1.758-1.8-3.992-3.762-6.456-3.232a5.733,5.733,0,0,0-2.62,1.533,4.857,4.857,0,0,0-1.845,3.756A4.05,4.05,0,0,0,309.3,326.364Z" transform="translate(-291.441 -319.042)" fill="#f1cdb2"/></g><g transform="translate(245.77 95.918)"><path d="M301.722,209.491a3.984,3.984,0,1,1-3.984-3.984A3.984,3.984,0,0,1,301.722,209.491Z" transform="translate(-293.753 -201.843)" fill="#ff533a"/><circle cx="2.762" cy="2.762" r="2.762" transform="translate(7.836)" fill="#ff533a"/><circle cx="2.762" cy="2.762" r="2.762" transform="translate(8.899 7.437)" fill="#ff533a"/></g><g transform="translate(299.42 273.26)"><path d="M339.106,328.857a4.847,4.847,0,1,1-3.9-5.634A4.847,4.847,0,0,1,339.106,328.857Z" transform="translate(-329.489 -320.215)" fill="#ff533a"/><path d="M343.126,325.153a3.36,3.36,0,1,1-2.707-3.906A3.36,3.36,0,0,1,343.126,325.153Z" transform="translate(-325.995 -321.193)" fill="#ff533a"/><path d="M342.9,331.237a3.36,3.36,0,1,1-2.708-3.9A3.36,3.36,0,0,1,342.9,331.237Z" transform="translate(-326.108 -318.143)" fill="#ff533a"/></g><g transform="translate(82.685 283.89)"><path d="M213.354,352.459a67.643,67.643,0,0,1-18.747-13.977" transform="translate(-180.368 -323.156)" fill="none" stroke="#217838" stroke-miterlimit="10" stroke-width="0.5"/><path d="M256.783,341.934" transform="translate(-149.2 -321.426)" fill="none" stroke="#217838" stroke-miterlimit="10" stroke-width="0.5"/><path d="M205.092,353.245q-7.039-5.247-14.076-10.5c-2.893-2.156-6.089-4.927-5.884-8.529.167-2.911,2.774-5.309,5.643-5.82a10.8,10.8,0,0,1,8.178,2.327,28.829,28.829,0,0,1,5.822,6.48c4.815,6.694,8.012,15.408,14.8,20.072.33.227.7.534.658.932-.069.655-1.022.655-1.651.459C213.814,357.2,209.1,356.234,205.092,353.245Z" transform="translate(-185.123 -328.273)" fill="#2a9674"/><path d="M212.54,365.007a28.227,28.227,0,0,1-4.666,1.2,11.388,11.388,0,0,1-6.149-.341,5.216,5.216,0,0,1-3.427-4.746c.164-3.475,5.814-4.728,8.392-5.115,7.412-1.114,14.613-2.983,21.929-4.5A29.626,29.626,0,0,1,212.54,365.007Z" transform="translate(-178.521 -316.63)" fill="#2a9674"/><path d="M205.429,338.447c-.7-2.525-.85-5.735,1.291-7.247,1.974-1.395,4.9-.384,6.391,1.519s1.92,4.4,2.3,6.792q.862,5.427,1.726,10.853a54.412,54.412,0,0,0,3.111,11.042,7.82,7.82,0,0,1-4.141-3.12C212.285,351.882,207.427,345.731,205.429,338.447Z" transform="translate(-175.176 -327.132)" fill="#2a9674"/><path d="M227.365,371.651a4.513,4.513,0,0,1-4.534,1.335c-2.115-.76-2.891-3.537-2.217-5.682,2.313-7.35,11.06-9.114,15.124-14.944-.537,4-2.459,7.413-3.9,11.06C230.745,366.2,229.526,369.478,227.365,371.651Z" transform="translate(-167.45 -316.2)" fill="#2a9674"/><path d="M225,344.739a2.465,2.465,0,0,1,1.291-2.719,4.152,4.152,0,0,1,3.8.074,12.235,12.235,0,0,1,3.1,2.432l10.68,10.435a16.465,16.465,0,0,1-3.318-1.007l-5.7-1.531a21.514,21.514,0,0,1-5.894-2.219C227.559,349.34,225.328,346.872,225,344.739Z" transform="translate(-165.155 -321.597)" fill="#2a9674"/><path d="M217.069,343.128a41.586,41.586,0,0,0,10.94,14.144c-3.821,3.965-7.248,8.218-11.069,12.183" transform="translate(-169.173 -320.827)" fill="none" stroke="#217838" stroke-miterlimit="10" stroke-width="0.5"/><path d="M219.131,349.739a134.315,134.315,0,0,0-23.324,3.653" transform="translate(-179.767 -317.513)" fill="none" stroke="#217838" stroke-miterlimit="10" stroke-width="0.5"/><path d="M241.432,351.2c-3.651,5.7-4.343,10.595-7.994,16.292" transform="translate(-160.903 -316.78)" fill="none" stroke="#217838" stroke-miterlimit="10" stroke-width="0.5"/><path d="M201.022,356.876a5.18,5.18,0,1,0-7.281.8A5.179,5.179,0,0,0,201.022,356.876Z" transform="translate(-181.775 -318.156)" fill="#c92c2c"/><path d="M220.226,364.778a3.493,3.493,0,1,0-4.911.542A3.493,3.493,0,0,0,220.226,364.778Z" transform="translate(-170.644 -312.821)" fill="#c92c2c"/><path d="M238.757,365.983a4.561,4.561,0,1,0-6.41.707A4.561,4.561,0,0,0,238.757,365.983Z" transform="translate(-162.308 -313.086)" fill="#c92c2c"/><path d="M220.928,346.264a3.494,3.494,0,1,0-4.912.542A3.494,3.494,0,0,0,220.928,346.264Z" transform="translate(-170.292 -322.101)" fill="#c92c2c"/></g><g transform="translate(155.25 295.656)"><path d="M242.38,343.3a4.461,4.461,0,1,1-4.462-4.46A4.461,4.461,0,0,1,242.38,343.3Z" transform="translate(-233.458 -334.741)" fill="#ff533a"/><path d="M245.486,339.2a3.092,3.092,0,1,1-3.093-3.093A3.092,3.092,0,0,1,245.486,339.2Z" transform="translate(-230.528 -336.111)" fill="#ff533a"/><path d="M246.278,344.749a3.092,3.092,0,1,1-3.091-3.091A3.092,3.092,0,0,1,246.278,344.749Z" transform="translate(-230.131 -333.33)" fill="#ff533a"/></g><g transform="translate(39.359 40.363)"><path d="M174.976,179.356a12.569,12.569,0,0,0-11.772-6.2c-.291.021-.583.05-.874.08-1.551.155-3.159.317-4.636-.763a3.6,3.6,0,0,1-1.154-4.249,3.372,3.372,0,0,1,1.067-1.366c1.886-1.411,4.977-.6,6.22-.182a18.831,18.831,0,0,1,5.837,3.18c2.633,2.118,4.558,4.908,6.241,9.045Zm-10.886-7.272a13.541,13.541,0,0,1,8.988,3.372,17.106,17.106,0,0,0-4.065-4.791,17.8,17.8,0,0,0-5.514-3.006c-.848-.284-3.732-1.12-5.268.029h0a2.294,2.294,0,0,0-.737.949,2.57,2.57,0,0,0,.814,3c1.156.845,2.5.71,3.921.567.3-.03.6-.06.9-.081Q163.611,172.085,164.091,172.084Z" transform="translate(-156.263 -166.061)" fill="#005a6e"/><g transform="translate(16.783 11.349)"><path d="M168.232,179.047c-.008-.017-.017-.032-.024-.05-.911-2.241-1.417-4.156.9-5.1,2.422-.986,3.289.781,4.2,3.022.008.018.01.035.016.053Z" transform="translate(-167.442 -173.621)" fill="#005a6e"/></g><g transform="translate(5.99 9.114)"><g transform="translate(0 0)"><circle cx="15.552" cy="15.552" r="15.552" transform="translate(0 29.297) rotate(-70.376)" fill="#fb0"/></g><g transform="translate(0 0)"><g clip-path="url(#c)"><g transform="translate(1.361 10.151)"><path d="M168.941,195.588l-7.781-4.29.5-.91,6.484,3.575,1.263-8.033,6.772,4.8,2.685-8.187,6.675,4.1,2.347-7.751,7.915,4.131-.481.921-6.8-3.551-2.374,7.84-6.7-4.121-2.714,8.274-6.552-4.641Z" transform="translate(-161.16 -178.893)" fill="#005a6e"/></g><g transform="translate(4.347 15.77)"><path d="M170.93,199.332l-7.781-4.29.5-.91,6.484,3.575,1.263-8.033,6.772,4.8,2.685-8.187,6.675,4.1,2.348-7.751,7.914,4.131-.481.921-6.8-3.551-2.374,7.84-6.7-4.121-2.714,8.274-6.553-4.641Z" transform="translate(-163.149 -182.637)" fill="#005a6e"/></g><g transform="translate(0.306 -10.35)"><path d="M161.2,180.978c2.292,5.633,9.173,8.155,15.367,5.634s9.36-9.131,7.07-14.764-9.173-8.153-15.369-5.633S158.912,175.346,161.2,180.978Z" transform="translate(-160.457 -165.238)" fill="#ff533a"/></g><g transform="translate(16.226 28.044)"><path d="M171.807,206.552c2.292,5.633,9.173,8.155,15.369,5.634s9.359-9.131,7.068-14.762-9.173-8.155-15.369-5.634S169.516,200.92,171.807,206.552Z" transform="translate(-171.061 -190.812)" fill="#ff533a"/></g></g></g></g></g><g transform="translate(2.865 76.21)"><path d="M152.348,211.967c1.522-5.714,3.908-11.581,5.43-17.295" transform="translate(-121.732 -187.566)" fill="none" stroke="#217838" stroke-miterlimit="10" stroke-width="0.5"/><path d="M141.631,209.206q-.009-.523.027-1.049a5.769,5.769,0,0,1,2.731-4.8,5.209,5.209,0,0,1,5.372.607,8.562,8.562,0,0,1,2.986,4.729,47.241,47.241,0,0,1,1.476,12.935,59.16,59.16,0,0,1-.632,7.6c-.189,1.276-1.866,5.628-1.4,6.652q-3.3-7.265-6.6-14.528C143.845,217.524,141.694,213.523,141.631,209.206Z" transform="translate(-127.105 -183.458)" fill="#2a9674"/><path d="M164.438,211.911c5.1-4.791,12.7-11.285,18.268-4.657,2.405,2.863,1.848,7.355-.267,10.44-4.214,6.143-10.586,5.938-17.013,8.179a59.667,59.667,0,0,0-9.128,4.073c-1.738.958-7.263,3.366-7.972,5.277a57.634,57.634,0,0,1,14.486-21.773C163.318,212.972,163.861,212.453,164.438,211.911Z" transform="translate(-123.748 -182.674)" fill="#2a9674"/><path d="M134.913,220.221c-2.588.877-4.014,3.481-2.019,8.032,1.821,4.153,6.032,6.085,9.054,9.126,3.551,3.576,6.257,7.982,9.17,12.153.182-8.434-.748-18.164-5.709-25.277C142.882,220.634,138.046,219.16,134.913,220.221Z" transform="translate(-131.955 -174.927)" fill="#2a9674"/><path d="M174.3,194.806c-11.263,10.257-14.843,18.783-19.054,33.722s-6.7,30.563-13.8,44.361" transform="translate(-127.196 -187.499)" fill="none" stroke="#217838" stroke-miterlimit="10" stroke-width="0.5"/><path d="M144.739,245.016c5.537-7.687,11.094-15.094,20.895-17.476a8.4,8.4,0,0,1,4.794-.065c5.951,2.139.095,6.477-2.408,8.178-3.867,2.627-7.8,3.171-12.042,4.678A112.024,112.024,0,0,0,144.739,245.016Z" transform="translate(-125.546 -171.286)" fill="#2a9674"/><path d="M143.851,222.311q2.428,7.013,4.854,14.028c4.041-2.755,7.841-5.654,11.881-8.409" transform="translate(-125.991 -173.711)" fill="none" stroke="#217838" stroke-miterlimit="10" stroke-width="0.5"/><path d="M150.874,192.528c1.326,5.188,2.368,23.857,2.178,29.207a27.127,27.127,0,0,1,11.512-6.841" transform="translate(-122.471 -188.641)" fill="none" stroke="#217838" stroke-miterlimit="10" stroke-width="0.5"/><path d="M155.064,193.063a2.979,2.979,0,1,1-2.83-3.121A2.98,2.98,0,0,1,155.064,193.063Z" transform="translate(-123.355 -189.939)" fill="#c92c2c"/><circle cx="2.158" cy="2.158" r="2.158" transform="translate(39.739 23.669) rotate(-9.039)" fill="#c92c2c"/><path d="M146.657,222.725a2.055,2.055,0,1,1-1.952-2.153A2.054,2.054,0,0,1,146.657,222.725Z" transform="translate(-126.643 -174.584)" fill="#c92c2c"/><path d="M158.437,227.166a2.363,2.363,0,1,1-2.244-2.476A2.361,2.361,0,0,1,158.437,227.166Z" transform="translate(-121.047 -172.52)" fill="#c92c2c"/><path d="M167.262,192.682c3.641-.452,6.232,2.383,4.219,5.9-1.683,2.935-5.589,4.193-8.241,6.02a44.234,44.234,0,0,0-4.64,3.614c-.536.486-2.867,3.484-3.43,3.091a30.316,30.316,0,0,1,6.582-15.4,9.455,9.455,0,0,1,4.908-3.114Q166.965,192.718,167.262,192.682Z" transform="translate(-120.318 -188.587)" fill="#2a9674"/><path d="M159.145,195.094a2.158,2.158,0,1,1-2.049-2.259A2.157,2.157,0,0,1,159.145,195.094Z" transform="translate(-120.486 -188.488)" fill="#c92c2c"/></g><g transform="translate(4.513 141.314)"><g transform="translate(7.519)"><path d="M138.062,237.839a7.4,7.4,0,0,0,2.959,5.658,11.788,11.788,0,0,0,2.129,1.35c1.172.6,2.4,1.073,3.581,1.7.4.213,3.7,1.333,3.723,1.624a29.048,29.048,0,0,0-3.5-11.374c-1-1.884-2.813-3.606-4.941-3.487C139.814,233.433,138.109,235.637,138.062,237.839Zm6.816,2.3c.709.042,1.381.9,1.787,1.4a15.334,15.334,0,0,1,1.085,1.549c.429.688,1.225,3.271,1.782,3.551a25.679,25.679,0,0,1-4.891-3.836,3.313,3.313,0,0,1-.731-.953c-.015-.035-.029-.069-.041-.105C143.592,240.968,143.98,240.085,144.878,240.139Z" transform="translate(-138.061 -233.304)" fill="#005569"/></g><g transform="translate(17.106 1.953)"><path d="M144.447,247.1c3.3-1.422,7-2.437,10.063-4.312a5.513,5.513,0,0,0,2.414-2.777,4.094,4.094,0,0,0-6.125-4.755c-1.705,1.127-2.615,3.412-3.508,5.17a8.41,8.41,0,0,0-.422.974C146.262,243.1,146.336,246.285,144.447,247.1Zm6.262-6.808a1.082,1.082,0,0,1,1.079.91,1.158,1.158,0,0,1-.408.892,3.441,3.441,0,0,1-.862.527c-.983.473-2.345.859-2.773,1.983l.793-2.087c.075-.2.152-.4.236-.591C149.117,241.143,149.759,240.28,150.709,240.292Z" transform="translate(-144.447 -234.605)" fill="#005569"/></g><g transform="translate(1.795 13.016)"><path d="M168.65,282.554V243.466a1.491,1.491,0,0,0-1.491-1.492H135.74a1.492,1.492,0,0,0-1.492,1.492v39.087Z" transform="translate(-134.248 -241.974)" fill="#fb0"/></g><g transform="translate(0 12.018)"><rect width="37.993" height="6.35" rx="0.995" transform="translate(37.993 6.35) rotate(180)" fill="#00c0eb"/></g><g transform="translate(17.781 12.031)"><path d="M147.415,282.883c-.036-14.175-.021-28.1.048-41.544l-2.5-.021c-.068,13.449-.083,27.382-.047,41.565Z" transform="translate(-144.896 -241.318)" fill="#005569"/></g><g transform="translate(1.796 34.613)"><rect width="34.402" height="3.116" fill="#005569"/></g></g><g transform="translate(0 198.464)"><path d="M160.6,289.854a34.387,34.387,0,0,0,.224-16.241c-.009-.042-4.379,3.036-4.765,3.4a22.443,22.443,0,0,0-3.935,4.93c-2.169,3.678-2.624,7.356-3.048,11.485-.317,3.082-.869,7.266.838,10.008A20.82,20.82,0,0,0,160.6,289.854Z" transform="translate(-120.68 -270.249)" fill="#1f7046"/><path d="M146.621,290.06a22.767,22.767,0,0,0-16.547.059c-.566.233,7.72,7.829,8.616,8.376,5.96,3.635,14.765,6.58,21.56,3.809A24.362,24.362,0,0,0,146.621,290.06Z" transform="translate(-130.047 -262.77)" fill="#1f7046"/><path d="M167.848,285c-6.483,5.061-10.8,13.336-12.293,21.329-1.4,7.538.174,14.123,1.737,21.425a35.7,35.7,0,0,0,12.285-18.991c2.16-8.5-.114-15.709-1.683-23.8Z" transform="translate(-117.532 -264.561)" fill="#1f7046"/><path d="M152.849,303.037a31.7,31.7,0,0,0-19.984-2.537c6.931,12.267,21.282,19.58,35.261,18.316C163.191,312.751,160.519,306.767,152.849,303.037Z" transform="translate(-128.634 -257.079)" fill="#1f7046"/><path d="M174.8,354.642c-14.412-24.249-25.849-50-29.792-79.106" transform="translate(-122.544 -269.285)" fill="none" stroke="#153033" stroke-miterlimit="10" stroke-width="0.5"/><path d="M141.913,274.777a5.5,5.5,0,1,0,7.187-2.988A5.5,5.5,0,0,0,141.913,274.777Z" transform="translate(-124.308 -271.372)" fill="#c92c2c"/><path d="M153.691,295.433,137.168,281.7" transform="translate(-126.477 -266.197)" fill="none" stroke="#153033" stroke-miterlimit="10" stroke-width="0.5"/><path d="M134.856,282a4.5,4.5,0,1,0,5.874-2.443A4.5,4.5,0,0,0,134.856,282Z" transform="translate(-127.807 -267.439)" fill="#c92c2c"/><path d="M187.24,304.639c-4.7,9.415-11.911,12.863-16.607,22.276-10-2.524-22.991-4.711-31.461-8.858" transform="translate(-125.472 -254.696)" fill="none" stroke="#153033" stroke-miterlimit="10" stroke-width="0.5"/><circle cx="4.46" cy="4.46" r="4.46" transform="translate(56.012 51.765) rotate(-64.86)" fill="#c92c2c"/><path d="M136.471,316.39a4.372,4.372,0,1,0,2.753-5.537A4.374,4.374,0,0,0,136.471,316.39Z" transform="translate(-126.941 -251.695)" fill="#c92c2c"/><path d="M161.6,315.682l-15.851-8.629" transform="translate(-122.174 -253.486)" fill="none" stroke="#153033" stroke-miterlimit="10" stroke-width="0.5"/><path d="M155.464,300.141l-15.615-7.472" transform="translate(-125.133 -260.696)" fill="none" stroke="#153033" stroke-miterlimit="10" stroke-width="0.5"/><path d="M156.5,319.184l5.887-18.075" transform="translate(-116.786 -256.465)" fill="none" stroke="#153033" stroke-miterlimit="10" stroke-width="0.5"/><path d="M148.912,298.83q3.337-8.433,6.673-16.868" transform="translate(-120.59 -266.063)" fill="none" stroke="#153033" stroke-miterlimit="10" stroke-width="0.5"/></g><g transform="translate(41.875 270.031)"><g transform="translate(3.775 2.498)"><g clip-path="url(#d)"><path d="M160.454,334.371q6.215,7.082,12.429,14.168c4.858,5.537,1.254,13.56.564,19.823-.552,5.019-.674,10.554,5.742,11.12a6.267,6.267,0,0,0,5.681-3.016c3.157-4.568,4.782-10,6.1-15.4q1.779-7.292,2.923-14.72A8.674,8.674,0,0,0,191.5,338.9l-18.038-18.2Z" transform="translate(-160.454 -320.706)" fill="#ff533a"/><path d="M177.84,354.853a7.444,7.444,0,0,1,4.574,3.133,4.357,4.357,0,0,1,.811,2.349,4.674,4.674,0,0,1-1.114,2.761,7.1,7.1,0,0,1-3.831,2.671,9.356,9.356,0,0,1-4.875-.422c-2.749-.829-8.141-3.638-6.176-7.367C168.723,355.143,175.052,354.245,177.84,354.853Z" transform="translate(-157.269 -303.679)" fill="#00c0eb"/><path d="M182.115,330.279a7.685,7.685,0,0,0,4.535,13.542" transform="translate(-150.949 -315.907)" fill="#00c0eb"/><path d="M165.466,355.981a7.348,7.348,0,0,1,5.22-5.394,4.432,4.432,0,0,1,3.9.608,2.544,2.544,0,0,1,.392,3.609c-.976.955-3.058.225-2.956-1.136a2.448,2.448,0,0,1,.471-1.147,5.2,5.2,0,0,1,4.864-2.48c1.9.294,3.447,2.434,2.716,4.211-.281.68-1.027,1.273-1.713,1.012-.854-.327-.812-1.585-.372-2.387a4.059,4.059,0,0,1,3.83-2.144,3.155,3.155,0,0,1,2.8,3.142c-.074,1.076-1.171,2.157-2.159,1.722a2.645,2.645,0,0,1,1.827-3.132,3.524,3.524,0,0,1,3.594,1.263,5.365,5.365,0,0,1,1.039,3.8" transform="translate(-157.942 -306.024)" fill="none" stroke="#420e0e" stroke-miterlimit="10" stroke-width="0.5"/><path d="M158.877,346.672a8.606,8.606,0,0,0,7.586.288,6.065,6.065,0,0,0,3.339-6.489c-.321-1.377-2.018-2.7-3.025-1.711a1.74,1.74,0,0,0-.458,1.028c-.279,2.087,2.037,3.894,4.114,3.549a5.313,5.313,0,0,0,4-4.375,4.647,4.647,0,0,0-.608-3.546,2.788,2.788,0,0,0-3.246-1.057c-1.012,2.1,1.422,4.637,3.726,4.31s3.923-2.6,4.318-4.894a3.768,3.768,0,0,0-.9-3.552c-.979-.824-2.895-.339-2.94.94a1.968,1.968,0,0,0,.386,1.139c1.44,2.124,5.152,1.722,6.428-.5s.152-5.336-2.073-6.615c-1.524,1.729.078,4.81,2.36,5.14s4.457-1.4,5.408-3.5a16.155,16.155,0,0,0,.949-6.792" transform="translate(-161.245 -321.044)" fill="none" stroke="#420e0e" stroke-miterlimit="10" stroke-width="0.5"/></g></g><path d="M177.4,326.364a11.165,11.165,0,0,1-.968,1.168C173,331.226,169.484,334.742,166,338.4a3.093,3.093,0,0,1-4.375.108l-2.725-2.594a3.629,3.629,0,0,1-.664-3.893,7.371,7.371,0,0,1,1.51-1.943l7.526-7.72c1.758-1.8,3.993-3.762,6.456-3.232a5.745,5.745,0,0,1,2.621,1.533,4.855,4.855,0,0,1,1.844,3.756A4.05,4.05,0,0,1,177.4,326.364Z" transform="translate(-157.939 -319.042)" fill="#f1cdb2"/></g><g transform="translate(13.434 273.26)"><path d="M144.062,328.857a4.847,4.847,0,1,0,3.906-5.634A4.847,4.847,0,0,0,144.062,328.857Z" transform="translate(-136.494 -320.215)" fill="#ff533a"/><path d="M139.049,325.153a3.36,3.36,0,1,0,2.708-3.906A3.361,3.361,0,0,0,139.049,325.153Z" transform="translate(-138.995 -321.193)" fill="#ff533a"/><path d="M139.276,331.237a3.36,3.36,0,1,0,2.708-3.9A3.361,3.361,0,0,0,139.276,331.237Z" transform="translate(-138.881 -318.143)" fill="#ff533a"/></g></g><g transform="translate(-430.08 413.634)"><path d="M606.046,386.872l6.352-19.114a3.563,3.563,0,0,1,6.709-.149l6.95,18.187a3.561,3.561,0,0,0,3.129,2.285l16.9.946a3.562,3.562,0,0,1,2.352,6.043l-10.892,11.177a3.562,3.562,0,0,0-.7,3.942l7.586,16.944a3.562,3.562,0,0,1-4.893,4.618l-20.9-10.856a3.566,3.566,0,0,0-3.19-.048l-22.13,10.677a3.562,3.562,0,0,1-4.837-4.577c3.078-7.382,6.988-16.918,6.988-17.691,0-.79-7.493-8.093-13.2-13.546a3.562,3.562,0,0,1,2.411-6.136l18.038-.261A3.565,3.565,0,0,0,606.046,386.872Z" transform="translate(-581.159 -328.763)" fill="#ffad00"/><g transform="translate(30.493 31.039)"><path d="M609.833,370.451c.018-.132.033-.266.04-.4h.012v-5.175a3.23,3.23,0,0,0-3.231-3.231h-1.944a3.231,3.231,0,0,0-3.231,3.231v4.789a4.46,4.46,0,0,0,0,.584c0,.069.018.135.026.2Z" transform="translate(-601.471 -361.644)" fill="#420e0e"/></g><path d="M612.129,373.225c.431-1.03,1.191-2.243,2.294-2.079,1.075.158,1.47,1.48,1.632,2.555.611,4.056.686,8.74,1.964,12.638,1.294,3.948,4.741,3.663,8.2,3.642l7.865-.05c1.423-.008,3.759-.077,4.519,1.432a2.321,2.321,0,0,1-.227,2.214,6.57,6.57,0,0,1-1.641,1.632,39.456,39.456,0,0,1-6.763,4.366c-1.636.809-4.1,1.635-4.49,3.686a5.211,5.211,0,0,0,.946,3.366q3.157,5.715,6.314,11.428c.961,1.74-1.507,2.124-2.819,1.886a10.219,10.219,0,0,1-3.156-1.354q-3.713-2.112-7.422-4.229c-1.739-.991-3.809-3.106-5.921-2.782a9.119,9.119,0,0,0-3.474,1.62,123.181,123.181,0,0,1-12.675,7.706c-.863.425-2.584,1.212-2.982-.231a3.032,3.032,0,0,1,.344-1.943,72.156,72.156,0,0,1,4.333-7.759c1.7-2.958,2.68-4.592-.171-7.113a79.8,79.8,0,0,0-11.078-8.206c-.913-.56-1.943-1.264-2.025-2.331a2.291,2.291,0,0,1,1.5-2.12,6.708,6.708,0,0,1,2.729-.345l12.438.149a7.2,7.2,0,0,0,2.447-.252c2.626-.907,3.277-5.555,4-7.835C609.835,379.658,610.807,376.378,612.129,373.225Z" transform="translate(-578.89 -325.849)" fill="none" stroke="#420e0e" stroke-miterlimit="10" stroke-width="0.5"/><path d="M616.892,397.735a12.527,12.527,0,0,1,2.744-2.4,44.777,44.777,0,0,0,3.6-3.3,1.241,1.241,0,0,0,.461-.841.839.839,0,0,0-.507-.677,2.486,2.486,0,0,0-.865-.18c-1.146-.1-2.279-.225-3.424-.245-.542-.011-6.336.291-6.336.29q-1.137-4.171-2.276-8.338a1.464,1.464,0,0,0-.586-.98c-.673-.354-1.354.452-1.672,1.142a31.568,31.568,0,0,0-2.405,7.75,1.207,1.207,0,0,1-.318.754,1.14,1.14,0,0,1-.6.2c-3.22.44-6.531-.093-9.724.518-.6.116-1.329.414-1.366,1.03-.027.461.362.827.722,1.115a46.457,46.457,0,0,0,3.9,2.809c.914.588,2.888,1.243,2.846,2.573a2.718,2.718,0,0,1-.315,1.022q-1.052,2.281-2.015,4.6a8.359,8.359,0,0,0-.754,2.6.9.9,0,0,0,.291.854.848.848,0,0,0,.626.047,9.162,9.162,0,0,0,3.144-1.787l3.462-2.575a11.267,11.267,0,0,1,2.432-1.506,3.8,3.8,0,0,1,2.8-.126,22.222,22.222,0,0,1,3.8,2.561,27.888,27.888,0,0,0,4.315,2.464c1.5.646,2.383-.6,1.492-1.929-.787-1.177-1.576-2.357-2.267-3.594-.5-.887-1.56-2.141-1.44-3.229A1.565,1.565,0,0,1,616.892,397.735Z" transform="translate(-574.915 -320.912)" fill="#d72426"/><path d="M623.311,407.466a1.656,1.656,0,0,0-.069-.51l0-.027-.216-.51-.335-.432-.432-.335-.513-.216h0l-.57-.077h-.007l-.575.078-.009,0c-.173.074-.345.146-.518.218l-.438.339a1.628,1.628,0,0,0-.447.7,2.144,2.144,0,0,0,.279,2.147,1.633,1.633,0,0,0,.607.559l.518.218c.192.026.384.051.575.078l.576-.078.516-.218.438-.339a1.632,1.632,0,0,0,.449-.7,1.078,1.078,0,0,0,.147-.546,1.273,1.273,0,0,0,.013-.152l.021-.155V407.5Z" transform="translate(-562.197 -308.692)" fill="#d72426"/><path d="M624.294,382.973a1.4,1.4,0,0,0,0,2.8A1.4,1.4,0,0,0,624.294,382.973Z" transform="translate(-560.214 -319.913)" fill="#d72426"/><path d="M606.207,368.84a1.425,1.425,0,0,0-1.231-.706,3.008,3.008,0,0,0-.417.056.26.26,0,0,0-.045.014,2.245,2.245,0,0,0-.362.155,2.279,2.279,0,0,0-.3.233,1.307,1.307,0,0,0-.336.575.991.991,0,0,0-.022.521.957.957,0,0,0,.155.485,1.26,1.26,0,0,0,.249.3,1.45,1.45,0,0,0,.362.32,1.409,1.409,0,0,0,.719.194,1.425,1.425,0,0,0,1.231-2.144Z" transform="translate(-569.977 -327.352)" fill="#d72426"/><path d="M591.831,406.532a1.93,1.93,0,0,0-1.708-1.15,1.876,1.876,0,0,0-.944.255l-.081.057a2.077,2.077,0,0,0-.854,1.11c-.021.164-.044.329-.066.494a1.394,1.394,0,0,0,.161.715.915.915,0,0,0,.239.41,1.393,1.393,0,0,0,.521.479l.443.186a1.87,1.87,0,0,0,.988,0l.092-.031a1.864,1.864,0,0,0,.824-.48l.293-.378a1.865,1.865,0,0,0,.255-.944A1.4,1.4,0,0,0,591.831,406.532Z" transform="translate(-577.642 -308.68)" fill="#d72426"/><path d="M585.722,383.666l-.036-.06a1.748,1.748,0,0,0-1.51-.866l-.057.008a1.392,1.392,0,0,0-.715.159.944.944,0,0,0-.41.239,1.414,1.414,0,0,0-.479.521l-.186.444-.066.492a1.392,1.392,0,0,0,.159.716.913.913,0,0,0,.239.41,1.4,1.4,0,0,0,.521.477l.443.188.494.066a1.417,1.417,0,0,0,.716-.159.946.946,0,0,0,.408-.239,1.415,1.415,0,0,0,.479-.521l.188-.444.066-.494A1.852,1.852,0,0,0,585.722,383.666Z" transform="translate(-580.607 -320.03)" fill="#d72426"/><path d="M604.819,375.252a104.985,104.985,0,0,1-.875-15.292c.066-4.175-.113-9.2.685-13.271a7.325,7.325,0,0,1,3.493-5.2c1.916-1,4.615-.569,5.75,1.269,1.108,1.793.461,4.136-.468,6.026-1.881,3.824-4.767,7.068-6.81,10.809s-3.519,12.612-1.62,16.429" transform="translate(-569.745 -340.969)" fill="none" stroke="#420e0e" stroke-miterlimit="10" stroke-width="0.5"/></g></g></svg>