<svg xmlns="http://www.w3.org/2000/svg" xmlns:xlink="http://www.w3.org/1999/xlink" width="512" height="512" viewBox="0 0 512 512"><defs><clipPath id="a"><rect width="512" height="512"/></clipPath></defs><g clip-path="url(#a)"><circle cx="127" cy="127" r="127" transform="translate(129 24)" fill="#463929"/><circle cx="60" cy="60" r="60" transform="translate(80 341)" fill="#263238"/><rect width="68" height="111" transform="translate(80 401)" fill="#263238"/><circle cx="60" cy="60" r="60" transform="translate(313 341)" fill="#263238"/><rect width="70" height="111" transform="translate(363 401)" fill="#263238"/><rect width="233" height="171" transform="translate(140 341)" fill="#03566e"/><rect width="54" height="147" rx="27" transform="translate(229 245)" fill="#f4ab90"/><rect width="33" height="76" rx="16.5" transform="translate(140 164)" fill="#f4ab90"/><rect width="33" height="76" rx="16.5" transform="translate(340 166)" fill="#f4ab90"/><rect width="200" height="258" rx="100" transform="translate(156 61)" fill="#ffc8b4"/><rect width="33" height="91" rx="16.5" transform="translate(240 151)" fill="#f4ab90"/><path d="M34,9.867c17.25,0,35-2.48,35,6.633S53.054,39.464,34,39.464,0,25.613,0,16.5,16.75,9.867,34,9.867Z" transform="translate(222 249)" fill="#fff"/><circle cx="18.861" cy="18.861" r="18.861" transform="translate(185 151)" fill="#b2745d"/><path d="M12.825,0c3.372,0,1.6,5.93,4.232,8.385,2.18,2.014,8.593.728,8.593,4.44A12.825,12.825,0,1,1,12.825,0Z" transform="translate(191.036 157.035)" fill="#553326"/><g transform="translate(-2)"><path d="M18.861,0A18.861,18.861,0,1,1,0,18.861,18.861,18.861,0,0,1,18.861,0Z" transform="translate(291.79 151)" fill="#b2745d"/><path d="M12.825,0c3.372,0,1.6,5.93,4.232,8.385,2.18,2.014,8.593.728,8.593,4.44A12.825,12.825,0,1,1,12.825,0Z" transform="translate(297.826 157.035)" fill="#553326"/></g><path d="M127,0c70.14,0,80.132,38.832,114.544,26.924,16.931-5.859,9.579,37.916-22.785,64.843-15.046,12.519-33.287,24.806-80.366,38.466C81.814,146.649,0,165.367,0,127A127,127,0,0,1,127,0Z" transform="translate(141.941 -10.667) rotate(4.992)" fill="#463929"/></g></svg>