<svg height="67.176" viewBox="0 0 56.746 67.176" width="56.746" xmlns="http://www.w3.org/2000/svg"><g fill="#00556e" transform="translate(-227.61 -1199.166)"><path d="m243.346 1256.745a3.647 3.647 0 0 0 .434-1.715 3.583 3.583 0 0 0 -5.879-2.753l-3.494 2.948 3.04 3.055a5.9 5.9 0 0 1 3.947-1.535z"/><path d="m253.327 1259.145h-4.773v7.2h4.773a3.6 3.6 0 0 0 0-7.2"/><path d="m232.573 1256.773-3.819 3.219a3.611 3.611 0 0 0 -.3 4.951 3.569 3.569 0 0 0 4.9.553l2.161-1.827a5.477 5.477 0 0 1 .477-3.451z"/><path d="m250.029 1211.161h30.465a1.479 1.479 0 0 0 1.475-1.482v-6.349a4.159 4.159 0 0 0 -4.143-4.164h-25.126a4.159 4.159 0 0 0 -4.144 4.164v6.349a1.479 1.479 0 0 0 1.475 1.482m25.973-7.2a1.194 1.194 0 1 1 2.387 0v3.6a1.194 1.194 0 1 1 -2.387 0zm-4.774 0a1.194 1.194 0 1 1 2.387 0v3.6a1.194 1.194 0 1 1 -2.387 0zm-4.773 0a1.194 1.194 0 1 1 2.387 0v3.6a1.194 1.194 0 1 1 -2.387 0zm-4.774 0a1.194 1.194 0 1 1 2.387 0v3.6a1.194 1.194 0 1 1 -2.387 0zm-4.774 0a1.194 1.194 0 1 1 2.387 0v3.6a1.194 1.194 0 1 1 -2.387 0zm-4.773 0a1.194 1.194 0 1 1 2.387 0v3.6a1.194 1.194 0 1 1 -2.387 0z"/><path d="m237.813 1262.743a3.59 3.59 0 0 0 3.581 3.6h4.773v-7.2h-4.773a3.589 3.589 0 0 0 -3.581 3.6"/><path d="m278.389 1231.554h-26.255a1.2 1.2 0 0 0 -1.194 1.2v14.4a1.2 1.2 0 0 0 1.194 1.2h26.255a1.2 1.2 0 0 0 1.193-1.2v-14.4a1.2 1.2 0 0 0 -1.193-1.2m-23.868 2.4h2.386a1.2 1.2 0 0 1 0 2.4h-2.386a1.2 1.2 0 0 1 0-2.4m0 4.8h14.321a1.2 1.2 0 0 1 0 2.4h-14.321a1.2 1.2 0 0 1 0-2.4m2.386 7.2h-2.386a1.2 1.2 0 0 1 0-2.4h2.386a1.2 1.2 0 0 1 0 2.4m19.1 0h-14.326a1.2 1.2 0 0 1 0-2.4h14.319a1.2 1.2 0 0 1 0 2.4m0-4.8h-2.387a1.2 1.2 0 0 1 0-2.4h2.387a1.2 1.2 0 0 1 0 2.4m0-4.8h-14.319a1.2 1.2 0 0 1 0-2.4h14.319a1.2 1.2 0 0 1 0 2.4"/><path d="m283.3 1219.405a3.584 3.584 0 0 0 -2.528-1.046 5.985 5.985 0 0 1 -5.848-4.8h-19.324a5.962 5.962 0 0 1 -5.848 4.8 3.589 3.589 0 0 0 -3.58 3.6v33.072a6 6 0 0 1 -.265 1.715h7.425a5.974 5.974 0 0 1 4.743 9.6h22.706a3.589 3.589 0 0 0 3.58-3.6v-40.786a3.633 3.633 0 0 0 -1.052-2.553m-1.335 27.744a3.589 3.589 0 0 1 -3.58 3.6h-26.26a3.589 3.589 0 0 1 -3.58-3.6v-14.4a3.589 3.589 0 0 1 3.58-3.6h26.255a3.589 3.589 0 0 1 3.58 3.6z"/></g></svg>