<svg xmlns="http://www.w3.org/2000/svg" width="512.001" height="470.818" viewBox="0 0 512.001 470.818"><g transform="translate(0 -20.592)"><path d="M493.073,169.538c-1.105-1.044-2.279-2.94-3.3-3a3528.861,3528.861,0,0,0-389.345-.419c-2.733.158-4.89.462-4.366,4.343q1.876,24.348,4.547,48.836c.1,3.485-1.913,7.807,3.447,9.235.435.118.745,1.054.8,1.656,7.42,84.5,21.039,169.963,37.879,256.157.161.715,1.478,1.6,2.373,1.862q152.885,6.522,305.762-.231c4.094-.118,5.869-1.232,6.11-5.462,14.344-85.412,24.891-170.239,29.411-254.321.65.03,1.3.063,1.952.1-.025-.143-.047-.286-.059-.434q.668-2.988,1.322-5.961,1.145-12.154,2.1-24.273c.015-.542.029-1.089.044-1.631q.939-12.836,1.667-25.64C493.3,170.08,493.188,169.809,493.073,169.538Z" fill="#a089e4" fill-rule="evenodd"/><path d="M264.449,491.167q32.58.451,65.164.03V215.639H264.449Z" fill="#ffa4ac" fill-rule="evenodd"/><path d="M254.526,160.92c.187-3.6-3.213-2.752-5.148-2.511-14.32,1.789-26.247-4.616-38.174-10.948-18.173-9.651-35.3-20.707-48.647-36.784-8.566-10.319-14.29-22.007-14.85-35.424-.832-20.058,8.156-35.542,24.928-46.054,22.351-14.006,49.954-10.562,71.123,7.735C256.512,47.963,264.3,62.087,268.944,77.78c6.563,22.165,12.036,44.646,17.949,66.894.775-1.749,1.986-4.2,2.963-6.736,10.4-26.98,22.75-52.888,41.171-75.49,10.524-12.91,21.88-24.9,37.812-31.162,17.168-6.741,37.588-1.52,49.818,12.363,18.682,21.2,19.541,50.848,2.134,75.949-11.973,17.263-28.918,27.464-48.225,34.795-14.594,5.534-29.523,4.333-44.478,4.277m-24.449-11.511c2.494-.354,4.25-.5,5.961-.865q8.652-1.855,17.278-3.851c17.842-4.139,34.91-10.191,49.833-21.142,13.29-9.757,23.482-21.766,27.137-38.427,3.058-13.944-6.024-27.213-18.372-25.5A42.583,42.583,0,0,0,368.7,63.8c-29.794,19.325-50.593,46.119-63.865,78.909A43.722,43.722,0,0,0,303.639,147.159Zm-36.772,3.217a36.589,36.589,0,0,0-.938-4c-8.264-20.13-16.174-40.422-24.991-60.311-4.619-10.419-11.578-19.546-21.333-26.031-8.693-5.775-18.459-5.381-26.612.921-6.686,5.161-8.446,13.58-5.41,23.51,2.932,9.6,8.727,17.26,15.807,23.981,16.494,15.658,35.808,27.281,55.635,38.114C261.2,147.746,263.491,148.74,266.867,150.376Z" fill="#ffa4ac" fill-rule="evenodd"/><path d="M220.642,252.616c-4.808,0-4.808,7.454,0,7.454S225.45,252.616,220.642,252.616Z" fill="#fff" fill-rule="evenodd"/><path d="M366.074,456.463c-4.808,0-4.808,7.459,0,7.459S370.885,456.463,366.074,456.463Z" fill="#fff" fill-rule="evenodd"/><path d="M430.269,383.52c-4.806,0-4.806,7.451,0,7.451S435.08,383.52,430.269,383.52Z" fill="#fff" fill-rule="evenodd"/><path d="M231.09,462.065c-4.808,0-4.808,7.459,0,7.459S235.9,462.065,231.09,462.065Z" fill="#fff" fill-rule="evenodd"/><path d="M127.343,325.783c2.444,24.634,6.1,49.132,11.986,73.194,1.295,5.286,9.709,3.981,8.4-1.36-5.89-24.062-9.542-48.56-11.986-73.2C135.205,318.964,126.8,320.339,127.343,325.783Z" fill="#fff"/><path d="M124.709,308.467c-.626,5.722,8.249,6.686,8.872.966S125.331,302.742,124.709,308.467Z" fill="#fff" fill-rule="evenodd"/><path d="M143.984,415.79c-.625,5.725,8.251,6.691,8.875.969S144.607,410.068,143.984,415.79Z" fill="#fff" fill-rule="evenodd"/><path d="M465.01,372.975c4.31-24.38,7.421-48.954,8.256-73.706.184-5.439-8.269-6.463-8.453-.969-.838,24.759-3.946,49.333-8.258,73.713C455.6,377.411,464.056,378.362,465.01,372.975Z" fill="#7befe5"/><path d="M473.332,281.821c2.149-5.341-6.133-8.67-8.281-3.332S471.185,287.16,473.332,281.821Z" fill="#7befe5" fill-rule="evenodd"/><path d="M433.906,264.97c-4.808,0-4.808,7.454,0,7.454S438.715,264.97,433.906,264.97Z" fill="#fff" fill-rule="evenodd"/><path d="M1.488,84.716q20.977-28.1,39.851-57.22c2.2-3.4,3.616-3.663,7.3-1.561,11.1,6.312,22.492,12.313,34.252,17.842a537.847,537.847,0,0,0,93.15,33.661,10.69,10.69,0,0,1,6.671,4.28q6.4,7.857,13.205,15.582a4.169,4.169,0,0,1,1.1,4.574q-5.169,16.145-10.965,32.18h0a42.925,42.925,0,0,1-1.568,4.538,6.243,6.243,0,0,1-3.075,3.266c-8.217,3.327-16.706,6.325-25.4,9.019a10.378,10.378,0,0,1-5.22-.065,633.086,633.086,0,0,1-90.178-31.864,625.663,625.663,0,0,1-57.287-28.6C-.707,88.045-.755,87.719,1.488,84.716Z" fill="#f9d555"/><path d="M146.337,104.931a14.64,14.64,0,1,0,20.078-5.062A14.642,14.642,0,0,0,146.337,104.931Z" fill="#fd6085"/><path d="M153.414,109.156a6.4,6.4,0,1,0,8.772-2.21A6.4,6.4,0,0,0,153.414,109.156Z" fill="#074780"/><path d="M505.522,224.6c-.489,3.811-4.451,6.558-8.852,6.154a2202.048,2202.048,0,0,0-403.944,0c-4.4.4-8.364-2.338-8.852-6.154q-3.216-25.278-6.428-50.545c-.488-3.816,2.829-7.266,7.407-7.685a2288.483,2288.483,0,0,1,419.689,0c4.582.419,7.9,3.869,7.411,7.685Q508.737,199.322,505.522,224.6Z" fill="#074785" fill-rule="evenodd"/><path d="M188.6,443.819c-.778-.758-2.341-11.32-3.757-11.239s-2.66,10.57-3.323,11.259c-1.332,1.382-11.075,2.363-11,3.7s9.647,1.975,11,3.284c.754.733,2.341,11.322,3.759,11.239s2.634-10.527,3.325-11.244c1.286-1.34,11.1-2.368,11.021-3.718S189.9,445.083,188.6,443.819Z" fill="#074785"/><path d="M379.96,252.837c-.778-.753-2.341-11.32-3.758-11.234s-2.659,10.564-3.322,11.255c-1.333,1.382-11.075,2.363-11,3.708s9.647,1.969,11,3.279c.754.733,2.34,11.327,3.759,11.239s2.634-10.527,3.325-11.244c1.286-1.34,11.1-2.368,11.024-3.718S381.259,254.1,379.96,252.837Z" fill="#074785"/><path d="M162.028,265.19c-.778-.753-2.343-11.315-3.757-11.234s-2.661,10.564-3.323,11.255c-1.332,1.387-11.075,2.363-11,3.708s9.648,1.975,11,3.284c.755.728,2.341,11.322,3.759,11.239s2.634-10.532,3.325-11.249c1.287-1.335,11.1-2.368,11.021-3.713S163.328,266.455,162.028,265.19Z" fill="#fff"/><path d="M419.24,441.947c-.778-.758-2.343-11.322-3.757-11.239s-2.66,10.569-3.323,11.259c-1.332,1.38-11.075,2.363-10.995,3.7s9.648,1.975,11,3.284c.755.728,2.341,11.32,3.759,11.239s2.636-10.529,3.326-11.244c1.287-1.34,11.1-2.368,11.021-3.718S420.54,443.209,419.24,441.947Z" fill="#fff"/><path d="M155.913,109.126c8.739,1.638,17.643,2.281,26.482,3.3,4.407.512,8.793,1.157,13.126,2.052,3.865.8,7.771,1.611,10.856,4.363a6.761,6.761,0,0,1,1.631,7.72c-1.539,3.417-5.245,4.456-8.176,4.987a51.33,51.33,0,0,1-24.093-1.131c-2.911-.911-1.5-6.249,1.421-5.339,6.472,2.019,13.406,2.167,20.23,1.37a21.59,21.59,0,0,0,4.4-.858,4.252,4.252,0,0,0,2.028-1.322c-.057.058-.014-.173.01-.02a1.261,1.261,0,0,0-.31-.665,6.508,6.508,0,0,0-2.765-2c-3.361-1.442-7.24-1.934-10.824-2.556-3.956-.687-7.952-1.161-11.952-1.593-7.853-.853-15.733-1.523-23.487-2.971C151.483,113.9,152.925,108.564,155.913,109.126Z" fill="#074785"/><path d="M293.252,335.474a53.738,53.738,0,1,1-48.677-58.359A53.733,53.733,0,0,1,293.252,335.474Z" fill="#fff"/><path d="M283.554,334.6a39.734,39.734,0,1,1-35.99-43.159A39.743,39.743,0,0,1,283.554,334.6Z" fill="#074785"/><path d="M226.333,396.661c-.484,6.648-8.549,11.483-18.017,10.793s-16.747-6.641-16.264-13.284,8.551-11.485,18.014-10.8S226.814,390.015,226.333,396.661Z" fill="#7befe5"/><path d="M401.514,400.163c-.468,6.425-8.294,11.1-17.493,10.437s-16.266-6.425-15.8-12.86,8.3-11.1,17.491-10.432S401.981,393.733,401.514,400.163Z" fill="#7befe5"/><path d="M277.2,317.03c-4.062-6.588-9.177-12.113-16.319-15.341-3.213-1.448-5.1,3.673-1.918,5.111,5.734,2.594,10.029,7.253,13.293,12.544C274.082,322.3,279.049,320.028,277.2,317.03Z" fill="#fff"/><path d="M252.49,297.647c-.835-.246-1.657-.527-2.489-.778a2.779,2.779,0,0,0-3.516,1.6,2.735,2.735,0,0,0,1.593,3.507c.834.256,1.654.532,2.486.778a2.78,2.78,0,0,0,3.52-1.6A2.742,2.742,0,0,0,252.49,297.647Z" fill="#fff"/><path d="M280.333,326.8a2.734,2.734,0,0,0-3.626-1.31,2.779,2.779,0,0,0-1.315,3.618.479.479,0,0,1,.007-.093,2.725,2.725,0,1,0,5.428.492A6.751,6.751,0,0,0,280.333,326.8Z" fill="#fff"/><path d="M275.372,329.1c.007.04.013.088.017.133,0-.035,0-.083.005-.118C275.126,328.379,275.322,328.924,275.372,329.1Z" fill="#fff"/><path d="M275.389,329.235c-.005.4.018.211,0,0Z" fill="#fff"/><path d="M275.392,329.127v-.015l0,.005S275.394,329.117,275.392,329.127Z" fill="#fff"/><path d="M410.145,335.118a53.738,53.738,0,1,1-48.674-58.367A53.736,53.736,0,0,1,410.145,335.118Z" fill="#fff"/><path d="M392.666,334.533a39.734,39.734,0,1,1-35.99-43.152A39.73,39.73,0,0,1,392.666,334.533Z" fill="#074785"/><path d="M386.318,316.969c-4.055-6.585-9.173-12.115-16.315-15.336-3.212-1.448-5.105,3.673-1.923,5.111,5.744,2.586,10.038,7.248,13.3,12.541C383.2,322.248,388.168,319.965,386.318,316.969Z" fill="#fff"/><path d="M361.6,297.591c-.832-.251-1.654-.527-2.486-.773a2.727,2.727,0,1,0-1.92,5.105c.83.246,1.66.522,2.486.773a2.781,2.781,0,0,0,3.516-1.6A2.743,2.743,0,0,0,361.6,297.591Z" fill="#fff"/><path d="M389.449,326.743a2.741,2.741,0,0,0-3.629-1.309,2.783,2.783,0,0,0-1.31,3.623c0-.038,0-.058,0-.093a2.761,2.761,0,0,0,2.471,2.955,2.733,2.733,0,0,0,2.962-2.464A6.934,6.934,0,0,0,389.449,326.743Z" fill="#fff"/><path d="M384.487,329.047c.007.04.013.08.023.133a.632.632,0,0,1,0-.123C384.242,328.319,384.444,328.861,384.487,329.047Z" fill="#fff"/><path d="M384.51,329.18c-.013.4.013.2,0,0Z" fill="#fff"/><path d="M384.51,329.067v-.01h0Z" fill="#fff"/><path d="M269.389,427.424a29.391,29.391,0,0,1-10.576-20.452c-.433-6.583-.622-14.593,3.465-20.168,4.1-5.592,10.772-8.753,17.656-7.5a24.823,24.823,0,0,1,10.983,4.631c4.407,3.432,7.139.888,10.808-2.14,3.476-2.862,6.957-5.692,11.607-6.2,8.221-.9,16.574,5.8,19.833,12.727,3.6,7.684,2.578,16.051.3,23.961-1.258,4.353-4.443,8.159-6.747,12.2C307.187,417.256,288.042,417.664,269.389,427.424Z" fill="#074785" fill-rule="evenodd"/><path d="M269.389,427.424c19.517-17.331,35.5-18.154,57.33-2.935C309.989,443.608,288.522,444.714,269.389,427.424Z" fill="#fd6085" fill-rule="evenodd"/><path d="M200.909,170.709c-31.09.7-62.13,2.938-92.833,8.016-6.742,1.116-5.918,11.776.9,10.65,30.7-5.073,61.741-7.308,92.833-8.016C208.7,181.206,207.78,170.556,200.909,170.709Z" fill="#29aefd"/><path d="M223.491,170.03c-5.939-1.109-7.659,8.1-1.721,9.207S229.431,171.146,223.491,170.03Z" fill="#29aefd" fill-rule="evenodd"/><path d="M455.288,204.287c-28.677-3.367-57.5-5.309-86.388-4.6-6.346.158-6.959,10.073-.549,9.915,28.889-.712,57.713,1.237,86.393,4.6C461.1,214.942,461.627,205.03,455.288,204.287Z" fill="#29aefd"/><path d="M476.141,206.573c-5.318-1.784-8.087,6.463-2.77,8.246S481.458,208.364,476.141,206.573Z" fill="#29aefd" fill-rule="evenodd"/><path d="M402.995,129.081c17.863-17.5,28.3-44.794,20.261-69.343-1.309-4-7.659-2.388-6.345,1.631,7.327,22.386-2.173,47.037-18.465,63C395.423,127.327,399.982,132.034,402.995,129.081Z" fill="#fff" fill-rule="evenodd"/><path d="M392.221,138.943c2.151-3.63-3.486-6.967-5.634-3.334S390.073,142.581,392.221,138.943Z" fill="#fff" fill-rule="evenodd"/><path d="M185.592,135.408l3.779-11.079L170.12,121.66l-1.58,11.831" fill="#f9d555"/><text transform="translate(25.372 81.69) rotate(20)" fill="#fff" font-size="47" font-family="ComicSansMS-Bold, Comic Sans MS" font-weight="700"><tspan x="0" y="0">GIFT</tspan></text></g></svg>