<?xml version="1.0" encoding="UTF-8"?>
<!-- Generator: Adobe Illustrator 26.0.1, SVG Export Plug-In . SVG Version: 6.00 Build 0)  -->
<svg xmlns="http://www.w3.org/2000/svg" xmlns:xlink="http://www.w3.org/1999/xlink" version="1.1" id="Capa_1" x="0px" y="0px" viewBox="0 0 512 512" style="enable-background:new 0 0 512 512;" xml:space="preserve" width="512" height="512">
<g>
	<path style="fill-rule:evenodd;clip-rule:evenodd;fill:#074785;" d="M500.306,194.382c-0.98-10.231-10.283-18.995-20.504-19.435   c-147.417-6.155-294.834-5.884-442.258,0.816C14.637,186.459,8.063,199.81,8.063,199.81l27.134-0.333   c-8.33,91.792-7.553,183.592,2.347,275.387c142.723,6.485,285.436,6.888,428.152,1.322l-3.013,18.677l28.542-23.345   c0.751-0.548,1.475-1.131,2.156-1.765l0.062-0.049h-0.003c3.767-3.533,6.374-8.311,6.867-13.462   C508.55,368.957,508.55,281.666,500.306,194.382z"/>
	<g>
		<path style="fill-rule:evenodd;clip-rule:evenodd;fill:#FFA4AC;" d="M458.398,279.864c0.789,3.913-1.737,7.72-5.65,8.509    l-149.777,30.35c-3.906,0.785-7.72-1.741-8.508-5.644L247.016,78.901c-0.789-3.909,1.738-7.72,5.644-8.505l149.783-30.353    c3.906-0.789,7.72,1.734,8.509,5.647"/>
		<g>
			<path style="fill-rule:evenodd;clip-rule:evenodd;fill:#FD6085;" d="M410.951,45.689c-0.789-3.913-4.602-6.435-8.509-5.647     L290.84,62.654c14.546,2.083,31.194,5.194,40.885,11.875c22.358,15.924,11.484,45.737,38.303,55.909     c10.345,4.189,19.013,0.859,26.813,10.166c8.441,11.216,7.369,23.813,20.098,30.864c7.393,4.097,14.374,6.01,20.751,6.192     L410.951,45.689z"/>
		</g>
		<path style="fill-rule:evenodd;clip-rule:evenodd;fill:#7BDCD2;" d="M333.494,248.714c-10.277,2.073-20.288-4.565-22.371-14.836    c-2.083-10.283,4.559-20.298,14.836-22.377c10.271-2.082,20.289,4.56,22.371,14.836    C350.412,236.613,343.771,246.625,333.494,248.714z"/>
		<path style="fill-rule:evenodd;clip-rule:evenodd;fill:#E0BC55;" d="M339.39,277.807c-10.277,2.082-20.295-4.562-22.377-14.833    c-2.083-10.277,4.559-20.295,14.842-22.374c10.277-2.086,20.288,4.562,22.371,14.836    C356.302,265.706,349.667,275.724,339.39,277.807z"/>
		<path style="fill-rule:evenodd;clip-rule:evenodd;fill:#FFFFFF;" d="M432.244,184.302c-3.352-16.515-7.073-32.953-10.431-49.462    c-0.77-3.801-6.666-2.603-5.896,1.195c3.352,16.509,7.073,32.946,10.431,49.455C427.118,189.296,433.014,188.101,432.244,184.302z    "/>
		<path style="fill-rule:evenodd;clip-rule:evenodd;fill:#FFFFFF;" d="M318.529,142.518c-3.358-16.506-7.073-32.944-10.431-49.456    c-0.77-3.798-6.666-2.603-5.896,1.196c3.358,16.515,7.079,32.943,10.431,49.458C313.409,147.517,319.299,146.325,318.529,142.518z    "/>
		<path style="fill-rule:evenodd;clip-rule:evenodd;fill:#074785;" d="M403.028,110.24c-2.255-11.944-4.874-23.803-7.129-35.744    c-0.518-2.754-6.426-1.639-5.908,1.106c2.249,11.94,4.867,23.809,7.122,35.75C397.631,114.096,403.546,112.99,403.028,110.24z"/>
		<path style="fill-rule:evenodd;clip-rule:evenodd;fill:#FFFFFF;" d="M303.514,164.094c-4.491-22.124-9.346-44.163-13.838-66.29    c-1.035-5.089-6.931-3.9-5.896,1.198c4.492,22.122,9.346,44.163,13.838,66.287C298.653,170.378,304.549,169.186,303.514,164.094z"/>
		<path style="fill-rule:evenodd;clip-rule:evenodd;fill:#FFFFFF;" d="M419.811,120.926l-0.357-1.772    c-0.327-1.608-1.935-2.674-3.543-2.35c-1.608,0.326-2.674,1.935-2.354,3.546l0.357,1.768c0.327,1.608,1.941,2.68,3.549,2.35    C419.072,124.142,420.138,122.531,419.811,120.926z"/>
		<path style="fill-rule:evenodd;clip-rule:evenodd;fill:#FFFFFF;" d="M390.102,288.397l-25.556,5.182    c-3.801,0.77-2.606,6.669,1.195,5.899l25.556-5.185C395.099,293.53,393.91,287.63,390.102,288.397z"/>
		<path style="fill-rule:evenodd;clip-rule:evenodd;fill:#FFFFFF;" d="M355.988,298.788c-0.77-3.801-6.666-2.609-5.896,1.195    C350.856,303.785,356.758,302.593,355.988,298.788z"/>
	</g>
	<g>
		<path style="fill-rule:evenodd;clip-rule:evenodd;fill:#7BEFE5;" d="M366.191,234.885c1.454,3.709-0.376,7.896-4.091,9.356    l-142.279,55.78c-3.709,1.457-7.899-0.37-9.359-4.085l-87.21-222.444c-1.454-3.715,0.376-7.901,4.085-9.362L269.622,8.35    c3.709-1.457,7.899,0.373,9.352,4.085"/>
		<g>
			<path style="fill-rule:evenodd;clip-rule:evenodd;fill:#A089E4;" d="M278.974,12.435c-1.454-3.712-5.644-5.542-9.352-4.085     L163.607,49.913c14.682-0.468,31.619-0.283,42.321,4.627c24.774,11.814,19.217,43.066,47.392,48.445     c10.911,2.338,18.878-2.443,28.169,5.376c10.252,9.59,11.373,22.18,25.131,26.927c7.991,2.757,15.199,3.435,21.508,2.514     L278.974,12.435z"/>
		</g>
		<path style="fill-rule:evenodd;clip-rule:evenodd;fill:#EB6080;" d="M237.781,225.794c-9.759,3.823-20.775-0.986-24.601-10.745    c-3.826-9.759,0.986-20.775,10.745-24.601c9.759-3.826,20.775,0.98,24.602,10.745C252.352,210.952,247.54,221.962,237.781,225.794    z"/>
		<path style="fill-rule:evenodd;clip-rule:evenodd;fill:#E0BC55;" d="M248.618,253.43c-9.766,3.826-20.775-0.979-24.602-10.745    c-3.826-9.756,0.986-20.772,10.745-24.595c9.765-3.829,20.775,0.98,24.601,10.742C263.189,238.588,258.377,249.604,248.618,253.43    z"/>
		<path style="fill-rule:evenodd;clip-rule:evenodd;fill:#FFFFFF;" d="M323.907,145.281c-6.155-15.68-12.661-31.228-18.822-46.914    c-1.417-3.61-7.017-1.411-5.6,2.202c6.155,15.683,12.661,31.222,18.822,46.902C319.724,151.085,325.324,148.891,323.907,145.281z"/>
		<path style="fill-rule:evenodd;clip-rule:evenodd;fill:#FFFFFF;" d="M204.683,123.788c-6.155-15.686-12.661-31.225-18.822-46.908    c-1.417-3.604-7.017-1.414-5.6,2.196c6.155,15.68,12.661,31.224,18.822,46.908C200.5,129.601,206.1,127.398,204.683,123.788z"/>
		<path style="fill-rule:evenodd;clip-rule:evenodd;fill:#074785;" d="M282.326,77.385c-4.282-11.37-8.909-22.608-13.191-33.979    c-0.986-2.615-6.623-0.502-5.631,2.12c4.282,11.37,8.909,22.602,13.191,33.972C277.68,82.123,283.312,80.004,282.326,77.385z"/>
		<path style="fill-rule:evenodd;clip-rule:evenodd;fill:#FFFFFF;" d="M193.63,147.631c-8.256-21.013-16.844-41.886-25.094-62.896    c-1.897-4.836-7.498-2.643-5.607,2.196c8.25,21.012,16.844,41.883,25.094,62.896C189.921,154.667,195.522,152.471,193.63,147.631z    "/>
		<path style="fill-rule:evenodd;clip-rule:evenodd;fill:#FFFFFF;" d="M330.284,160.443l-0.585-1.497    c-0.598-1.525-2.372-2.295-3.9-1.701c-1.528,0.601-2.298,2.372-1.7,3.9l0.585,1.494c0.598,1.528,2.372,2.298,3.9,1.703    C330.105,163.739,330.882,161.968,330.284,160.443z"/>
		<path style="fill-rule:evenodd;clip-rule:evenodd;fill:#FFFFFF;" d="M300.71,85.01l-0.659-1.682    c-0.597-1.528-2.372-2.307-3.9-1.703c-1.528,0.597-2.298,2.372-1.701,3.897l0.659,1.682c0.598,1.528,2.366,2.308,3.9,1.704    C300.532,88.303,301.308,86.534,300.71,85.01z"/>
		<path style="fill-rule:evenodd;clip-rule:evenodd;fill:#FFFFFF;" d="M300.403,255.097l-24.275,9.519    c-3.617,1.414-1.417,7.021,2.193,5.604l24.268-9.522C306.206,259.286,304.013,253.689,300.403,255.097z"/>
		<path style="fill-rule:evenodd;clip-rule:evenodd;fill:#FFFFFF;" d="M268.593,271.229c-1.417-3.613-7.017-1.414-5.6,2.196    C264.409,277.043,270.01,274.84,268.593,271.229z"/>
	</g>
	<g>
		<path style="fill-rule:evenodd;clip-rule:evenodd;fill:#FD6085;" d="M285.936,202.185c2.465,3.133,1.916,7.668-1.214,10.138    l-120.167,94.416c-3.136,2.464-7.67,1.922-10.141-1.211L6.794,117.654c-2.465-3.142-1.922-7.676,1.214-10.135l30.92-24.298    l88.788-42.729c3.136-2.458,7.677-1.916,10.141,1.223l83.558,78.356L285.936,202.185z"/>
		<g>
			<path style="fill-rule:evenodd;clip-rule:evenodd;fill:#F9D555;" d="M138.316,14.311c-2.465-3.139-7.005-3.681-10.141-1.223     L38.641,83.445c13.924-4.683,30.196-9.387,41.859-7.766c27.127,4.174,30.812,35.698,59.338,32.731     c11.127-0.9,17.38-7.776,28.532-2.97c12.581,6.232,17.282,17.963,31.822,18.536c8.441,0.342,15.544-1.085,21.317-3.783     L138.316,14.311z"/>
		</g>
		<path style="fill-rule:evenodd;clip-rule:evenodd;fill:#7BDCD2;" d="M160.354,230.483c-8.237,6.482-20.171,5.049-26.647-3.195    c-6.482-8.24-5.052-20.175,3.198-26.656c8.244-6.475,20.178-5.049,26.653,3.195C170.033,212.074,168.604,224.008,160.354,230.483z    "/>
		<path style="fill-rule:evenodd;clip-rule:evenodd;fill:#E0BC55;" d="M178.702,253.824c-8.244,6.478-20.178,5.046-26.659-3.195    c-6.475-8.24-5.04-20.175,3.204-26.653c8.244-6.482,20.178-5.049,26.653,3.195C188.375,235.415,186.946,247.349,178.702,253.824z"/>
		<path style="fill-rule:evenodd;clip-rule:evenodd;fill:#FFFFFF;" d="M219.624,128.566c-10.418-13.243-21.126-26.252-31.545-39.493    c-2.396-3.047-7.122,0.665-4.725,3.718c10.412,13.24,21.127,26.253,31.539,39.49C217.295,135.331,222.027,131.615,219.624,128.566    z"/>
		<path style="fill-rule:evenodd;clip-rule:evenodd;fill:#FFFFFF;" d="M99.266,142.345c-10.418-13.237-21.12-26.246-31.545-39.493    c-2.396-3.047-7.128,0.672-4.725,3.721c10.412,13.244,21.12,26.249,31.539,39.496C96.938,149.119,101.663,145.395,99.266,142.345z    "/>
		<path style="fill-rule:evenodd;clip-rule:evenodd;fill:#074785;" d="M160.243,75.537c-7.381-9.655-15.052-19.078-22.433-28.732    c-1.694-2.221-6.475,1.429-4.781,3.65c7.381,9.651,15.052,19.075,22.426,28.736C157.156,81.408,161.937,77.761,160.243,75.537z"/>
		<path style="fill-rule:evenodd;clip-rule:evenodd;fill:#FFFFFF;" d="M95.551,168.363c-13.955-17.741-28.199-35.251-42.154-52.992    c-3.216-4.088-7.941-0.373-4.732,3.715c13.955,17.747,28.2,35.254,42.148,52.998C94.03,176.169,98.761,172.454,95.551,168.363z"/>
		<path style="fill-rule:evenodd;clip-rule:evenodd;fill:#FFFFFF;" d="M230.098,141.248l-0.986-1.266    c-1.017-1.285-2.933-1.516-4.227-0.502c-1.288,1.014-1.516,2.933-0.505,4.224l0.992,1.26c1.01,1.294,2.933,1.522,4.22,0.505    C230.887,144.455,231.114,142.536,230.098,141.248z"/>
		<path style="fill-rule:evenodd;clip-rule:evenodd;fill:#FFFFFF;" d="M180.039,77.539l-1.115-1.423    c-1.01-1.288-2.933-1.519-4.22-0.505c-1.294,1.01-1.522,2.93-0.505,4.227l1.115,1.414c1.01,1.291,2.926,1.525,4.22,0.508    C180.821,80.746,181.049,78.83,180.039,77.539z"/>
		<path style="fill-rule:evenodd;clip-rule:evenodd;fill:#FFFFFF;" d="M228.767,240.501l-20.504,16.108    c-3.05,2.4,0.665,7.129,3.715,4.732l20.504-16.111C235.532,242.836,231.817,238.101,228.767,240.501z"/>
		<path style="fill-rule:evenodd;clip-rule:evenodd;fill:#FFFFFF;" d="M202.958,265.112c-2.396-3.05-7.128,0.668-4.732,3.721    C200.623,271.882,205.355,268.164,202.958,265.112z"/>
		<path style="fill-rule:evenodd;clip-rule:evenodd;fill:#074785;" d="M138.854,165.722c-2.234,1.755-5.467,1.367-7.222-0.867    L77.469,95.933c-1.75-2.237-1.368-5.465,0.875-7.224l0,0c2.231-1.753,5.465-1.368,7.221,0.862l54.157,68.927    C141.477,160.733,141.088,163.967,138.854,165.722L138.854,165.722z"/>
	</g>
	<path style="fill-rule:evenodd;clip-rule:evenodd;fill:#A089E4;" d="M450.315,199.003c-147.417-6.158-294.834-5.887-442.251,0.807   c-10.751,99.699-10.751,199.402,0,299.107c147.417,6.697,294.834,6.968,442.251,0.81c10.228-0.441,19.525-9.202,20.511-19.432   c8.237-87.288,8.237-174.572,0-261.86C469.84,208.201,460.542,199.44,450.315,199.003z"/>
	<path style="fill-rule:evenodd;clip-rule:evenodd;fill:#074785;" d="M379.277,315.771l-7.6,63.552   c-0.915,7.664,2.917,14.42,8.564,15.095l95.59,11.429c1.254-30.839,1.491-61.676,0.69-92.512l-85.365-10.206   C385.509,302.454,380.192,308.116,379.277,315.771z"/>
	<path style="fill:#FFFFFF;" d="M94.578,242.614c-1.171-1.133-3.53-17.06-5.662-16.931c-2.144,0.126-4.011,15.92-5.009,16.962   c-2.008,2.089-16.69,3.564-16.573,5.585c0.123,2.021,14.54,2.976,16.58,4.948c1.133,1.103,3.524,17.072,5.668,16.946   c2.138-0.123,3.968-15.871,5.009-16.952c1.941-2.015,16.734-3.57,16.617-5.604C111.083,245.541,96.543,244.521,94.578,242.614z"/>
	<path style="fill:#FFFFFF;" d="M101.931,423.613c-1.177-1.143-3.531-17.063-5.668-16.937c-2.144,0.129-4.011,15.924-5.009,16.965   c-2.008,2.089-16.69,3.564-16.567,5.588c0.117,2.018,14.534,2.976,16.573,4.948c1.14,1.096,3.53,17.069,5.668,16.94   c2.138-0.12,3.968-15.874,5.009-16.949c1.941-2.015,16.74-3.571,16.617-5.6C118.437,426.533,103.891,425.513,101.931,423.613z"/>
	<path style="fill:#074785;" d="M359.913,449.754c-1.171-1.137-3.524-17.066-5.662-16.94c-2.144,0.13-4.011,15.927-5.009,16.971   c-2.008,2.083-16.69,3.558-16.573,5.585c0.123,2.024,14.546,2.979,16.579,4.948c1.14,1.1,3.531,17.069,5.668,16.943   c2.138-0.126,3.968-15.874,5.009-16.955c1.941-2.012,16.74-3.567,16.617-5.6C376.425,452.674,361.872,451.661,359.913,449.754z"/>
	<path style="fill:#074785;" d="M42.825,348.749c-1.177-1.14-3.531-17.069-5.668-16.94c-2.138,0.132-4.005,15.926-5.009,16.965   c-2.008,2.086-16.69,3.561-16.567,5.591c0.117,2.018,14.54,2.973,16.573,4.944c1.14,1.1,3.53,17.069,5.668,16.943   c2.144-0.123,3.974-15.871,5.015-16.955c1.935-2.015,16.734-3.564,16.617-5.6C59.33,351.669,44.784,350.652,42.825,348.749z"/>
	<path style="fill:#074785;" d="M397.351,242.62c-1.171-1.14-3.524-17.066-5.662-16.94c-2.144,0.132-4.011,15.923-5.009,16.965   c-2.009,2.092-16.691,3.567-16.567,5.591c0.117,2.018,14.534,2.972,16.573,4.947c1.14,1.097,3.53,17.063,5.668,16.943   c2.138-0.126,3.968-15.877,5.009-16.952c1.941-2.015,16.74-3.573,16.616-5.6C413.856,245.538,399.316,244.524,397.351,242.62z"/>
	<path style="fill-rule:evenodd;clip-rule:evenodd;fill:#FFFFFF;" d="M277.575,459.211c-5.385,0-5.385,8.345,0,8.345   C282.954,467.557,282.954,459.211,277.575,459.211z"/>
	<path style="fill-rule:evenodd;clip-rule:evenodd;fill:#FFFFFF;" d="M428.905,428.896c-5.379,0-5.379,8.339,0,8.339   C434.284,437.235,434.284,428.896,428.905,428.896z"/>
	<path style="fill-rule:evenodd;clip-rule:evenodd;fill:#FFFFFF;" d="M448.738,271.547c-5.379,0-5.379,8.342,0,8.342   S454.116,271.547,448.738,271.547z"/>
	<path style="fill-rule:evenodd;clip-rule:evenodd;fill:#FFFFFF;" d="M33.478,455.037c-5.379,0-5.379,8.348,0,8.348   C38.863,463.386,38.863,455.037,33.478,455.037z"/>
	<path style="fill-rule:evenodd;clip-rule:evenodd;fill:#FFFFFF;" d="M29.446,280.234c-5.385,0-5.385,8.342,0,8.342   C34.824,288.576,34.824,280.234,29.446,280.234z"/>
	<g>
		<path style="fill:#FFFFFF;" d="M217.375,316.933c-1.426,29.441-26.441,52.163-55.888,50.737    c-29.438-1.417-52.16-26.434-50.737-55.875c1.417-29.447,26.434-52.16,55.881-50.74    C196.076,262.465,218.792,287.489,217.375,316.933z"/>
		<path style="fill:#074785;" d="M207.712,316.467c-1.054,21.764-19.549,38.562-41.326,37.518    c-21.77-1.057-38.562-19.552-37.515-41.323c1.047-21.767,19.552-38.566,41.323-37.518    C191.961,276.195,208.753,294.697,207.712,316.467z"/>
		<path style="fill:#074785;" d="M200.808,365.347c0,0,31.283,2.708,52.058-0.333c0,0,7.165,65.548-28.07,63.848    C192.564,427.303,200.808,365.347,200.808,365.347z"/>
		<path style="fill:#7BEFE5;" d="M153.524,380.441c-0.206,6.623-8.006,11.756-17.43,11.463c-9.421-0.283-16.9-5.881-16.694-12.495    c0.203-6.626,7.997-11.756,17.427-11.469C146.245,368.233,153.721,373.827,153.524,380.441z"/>
		<path style="fill:#7BEFE5;" d="M327.505,376.6c-0.194,6.405-7.766,11.364-16.922,11.09c-9.155-0.284-16.416-5.693-16.216-12.101    c0.197-6.398,7.772-11.361,16.921-11.084C320.445,364.789,327.703,370.202,327.505,376.6z"/>
		<g>
			<path style="fill:#FFA4AC;" d="M237.152,402.542c-13.73,0.856-23.634,8.308-27.078,19.238c3.583,4.085,8.348,6.774,14.722,7.082     c15.018,0.724,22.325-10.782,25.772-24.204C246.89,403.077,242.417,402.261,237.152,402.542z"/>
		</g>
		<path style="fill:#FFFFFF;" d="M200.672,299.297c-4.3-6.365-9.614-11.632-16.832-14.537c-3.247-1.306-4.91,3.863-1.691,5.154    c5.807,2.329,10.258,6.777,13.714,11.891C197.795,304.663,202.632,302.198,200.672,299.297z"/>
		<path style="fill:#FFFFFF;" d="M175.341,281.096c-0.841-0.206-1.67-0.447-2.505-0.662c-1.432-0.364-2.939,0.253-3.419,1.728    c-0.431,1.337,0.296,3.059,1.725,3.413c0.838,0.225,1.667,0.459,2.502,0.672c1.438,0.363,2.945-0.256,3.422-1.731    C177.498,283.188,176.774,281.46,175.341,281.096z"/>
		<g>
			<path style="fill:#FFFFFF;" d="M204.193,308.871c-0.57-1.368-2.44-1.787-3.656-1.152c-1.392,0.733-1.713,2.286-1.152,3.647     c-0.006-0.034-0.006-0.055,0-0.092c0.006,1.475,1.035,2.76,2.575,2.834c1.411,0.074,2.84-1.094,2.834-2.572     C204.788,310.556,204.563,309.764,204.193,308.871z"/>
			<path style="fill:#FFFFFF;" d="M199.357,311.36c0.015,0.037,0.022,0.083,0.028,0.129c0-0.037,0-0.08,0-0.12     C199.089,310.651,199.311,311.178,199.357,311.36z"/>
			<path style="fill:#FFFFFF;" d="M199.385,311.489C199.391,311.887,199.406,311.69,199.385,311.489L199.385,311.489z"/>
			<path style="fill:#FFFFFF;" d="M199.385,311.381c0-0.012,0-0.012,0-0.015c-0.006,0.003,0,0.003,0,0.003     S199.385,311.369,199.385,311.381z"/>
		</g>
		<path style="fill:#FFFFFF;" d="M333.352,311.69c-1.423,29.444-26.441,52.163-55.878,50.746    c-29.441-1.42-52.163-26.447-50.746-55.888c1.426-29.441,26.44-52.154,55.888-50.74    C312.056,257.234,334.769,282.249,333.352,311.69z"/>
		<path style="fill:#074785;" d="M315.987,311.85c-1.05,21.767-19.552,38.566-41.323,37.512    c-21.77-1.044-38.569-19.546-37.512-41.317c1.047-21.77,19.543-38.568,41.313-37.518    C300.242,271.581,317.041,290.079,315.987,311.85z"/>
		<path style="fill:#FFFFFF;" d="M308.954,294.682c-4.301-6.371-9.614-11.632-16.832-14.534c-3.253-1.306-4.911,3.851-1.694,5.144    c5.801,2.332,10.258,6.777,13.718,11.891C306.077,300.042,310.91,297.574,308.954,294.682z"/>
		<path style="fill:#FFFFFF;" d="M283.617,276.479c-0.838-0.209-1.667-0.444-2.502-0.659c-1.429-0.361-2.936,0.253-3.416,1.725    c-0.438,1.334,0.296,3.056,1.725,3.422c0.835,0.209,1.673,0.447,2.501,0.662c1.43,0.363,2.936-0.256,3.423-1.728    C285.779,278.571,285.046,276.839,283.617,276.479z"/>
		<g>
			<path style="fill:#FFFFFF;" d="M312.466,304.256c-0.561-1.368-2.431-1.793-3.657-1.149c-1.389,0.724-1.713,2.277-1.152,3.644     c0-0.034,0-0.059,0-0.096c0.015,1.476,1.035,2.766,2.575,2.834c1.411,0.068,2.849-1.096,2.837-2.575     C313.061,305.938,312.836,305.149,312.466,304.256z"/>
			<path style="fill:#FFFFFF;" d="M307.639,306.745c0.012,0.034,0.019,0.077,0.028,0.126c-0.009-0.037-0.009-0.077,0-0.12     C307.365,306.03,307.589,306.56,307.639,306.745z"/>
			<path style="fill:#FFFFFF;" d="M307.666,306.871C307.673,307.269,307.685,307.072,307.666,306.871L307.666,306.871z"/>
			<path style="fill:#FFFFFF;" d="M307.666,306.761c0-0.003,0-0.009-0.009-0.009h0.009     C307.666,306.752,307.666,306.758,307.666,306.761z"/>
		</g>
	</g>
	<path style="fill-rule:evenodd;clip-rule:evenodd;fill:#FFFFFF;" d="M309.33,210.046h-89.281c-7.11,0-7.11,11.022,0,11.022h89.281   C316.44,221.069,316.44,210.046,309.33,210.046z"/>
	<path style="fill-rule:evenodd;clip-rule:evenodd;fill:#FFFFFF;" d="M332.483,208.944c-7.116,0-7.116,11.022,0,11.022   C339.587,219.966,339.587,208.944,332.483,208.944z"/>
	<path style="fill-rule:evenodd;clip-rule:evenodd;fill:#FFFFFF;" d="M199.107,211.149c-7.104,0-7.104,11.022,0,11.022   C206.217,222.172,206.217,211.149,199.107,211.149z"/>
	<path style="fill-rule:evenodd;clip-rule:evenodd;fill:#7BEFE5;" d="M201.972,484.127h-80.347c-6.401,0-6.401,9.92,0,9.92h80.347   C208.368,494.046,208.368,484.127,201.972,484.127z"/>
	<path style="fill-rule:evenodd;clip-rule:evenodd;fill:#7BEFE5;" d="M222.803,483.132c-6.395,0-6.395,9.913,0,9.913   C229.205,493.045,229.205,483.132,222.803,483.132z"/>
	<path style="fill-rule:evenodd;clip-rule:evenodd;fill:#7BEFE5;" d="M102.772,485.113c-6.395,0-6.395,9.92,0,9.92   C109.174,495.032,109.174,485.113,102.772,485.113z"/>
	<path style="fill-rule:evenodd;clip-rule:evenodd;fill:#7BEFE5;" d="M512,379.037c0,7.72-4.608,13.97-10.289,13.97H374.73   c-5.687,0-10.295-6.25-10.295-13.97v-64.005c0-7.711,4.608-13.964,10.295-13.964h126.981c5.681,0,10.289,6.253,10.289,13.964   V379.037z"/>
	<path style="fill-rule:evenodd;clip-rule:evenodd;fill:#A089E4;" d="M448.738,346.867c0,14.512-11.762,26.268-26.265,26.268   c-14.503,0-26.265-11.756-26.265-26.268c0-14.503,11.762-26.262,26.265-26.262C436.976,320.605,448.738,332.363,448.738,346.867z"/>
	<path style="fill-rule:evenodd;clip-rule:evenodd;fill:#FFFFFF;" d="M442.694,339.06c-0.875-2.529-4.904-1.442-4.023,1.109   c3.228,9.282-0.438,18.816-8.774,23.924c-2.292,1.402-0.197,5.009,2.107,3.604C441.837,361.668,446.532,350.101,442.694,339.06z"/>
	<path style="fill-rule:evenodd;clip-rule:evenodd;fill:#FFFFFF;" d="M437.204,331.547c-2.686,0-2.686,4.171,0,4.171   C439.896,335.718,439.896,331.547,437.204,331.547z"/>
</g>















</svg>
