<?xml version="1.0" encoding="UTF-8"?><svg id="Layer_2" xmlns="http://www.w3.org/2000/svg" viewBox="0 0 90.4 90.41"><defs><style>.cls-1{fill:#f9b632;}.cls-2{fill:#03566e;}</style></defs><g id="Layer_1-2"><path class="cls-1" d="M54.88,65.64c-11.27,5.38-24.78,.6-30.16-10.67-5.38-11.27-.6-24.78,10.67-30.16,6.16-2.94,13.32-2.94,19.48,0,1.71,.78,3.73,.41,5.06-.92l10-10c1.76-1.76,1.76-4.62,0-6.38h0c-.24-.24-.5-.46-.79-.64C47.97-6.36,20.09,.09,6.87,21.27-6.36,42.44,.09,70.32,21.27,83.55c14.65,9.15,33.23,9.15,47.88,0,2.1-1.34,2.71-4.13,1.38-6.23-.18-.29-.4-.55-.64-.79l-10-10c-1.33-1.34-3.36-1.71-5.08-.91"/><path class="cls-2" d="M69.35,27.27l-4.11,4.16c-.64,.72-.77,1.76-.34,2.62,3.93,6.92,3.93,15.4,0,22.32-.44,.88-.29,1.95,.38,2.67l4.12,4.11c.78,.91,2.15,1.01,3.06,.22,.02-.02,.05-.04,.07-.06,.17-.15,.31-.33,.43-.52,6.79-10.71,6.79-24.38,0-35.09-.61-1.05-1.95-1.4-2.99-.79h0c-.19,.12-.37,.26-.52,.42"/><path class="cls-2" d="M78.3,18.32l-4,4c-.76,.79-.89,1.99-.3,2.92,8.29,12,8.29,27.87,0,39.87-.64,.94-.51,2.2,.3,3l4,4c.83,.89,2.22,.94,3.11,.11h0c.13-.12,.24-.25,.33-.4,11.55-15.86,11.55-37.36,0-53.22-.67-.98-2-1.25-3-.62-.14,.1-.27,.21-.39,.34"/><path class="cls-1" d="M56.53,45.21c.01,6.25-5.04,11.32-11.29,11.33-6.25,.01-11.32-5.04-11.33-11.29-.01-6.24,5.04-11.31,11.28-11.33h0c6.24-.03,11.31,5,11.34,11.24v.05h0"/></g></svg>