
<svg xmlns="http://www.w3.org/2000/svg" version="1.1" xmlns:xlink="http://www.w3.org/1999/xlink" width="512" height="512" x="0" y="0" viewBox="0 0 512 512" style="enable-background:new 0 0 512 512" xml:space="preserve" class=""><g><path d="M31.64 148.61c0-2.75 2.25-5 5-5h20.55c2.75 0 5 2.25 5 5v214.78c0 2.75-2.25 5-5 5H36.64c-2.75 0-5-2.25-5-5z" fill="#000000" opacity="1" data-original="#000000" class=""></path><path d="M31.64 148.61c0-2.75 2.25-5 5-5h20.55c2.75 0 5 2.25 5 5v214.78c0 2.75-2.25 5-5 5H36.64c-2.75 0-5-2.25-5-5zM79.5 148.61c0-2.75 2.25-5 5-5h8.029c2.75 0 5 2.25 5 5v214.78c0 2.75-2.25 5-5 5H84.5c-2.75 0-5-2.25-5-5z" fill="#000000" opacity="1" data-original="#000000" class=""></path><path d="M79.5 148.61c0-2.75 2.25-5 5-5h8.029c2.75 0 5 2.25 5 5v214.78c0 2.75-2.25 5-5 5H84.5c-2.75 0-5-2.25-5-5zM114.84 148.61c0-2.75 2.25-5 5-5h27.85c2.75 0 5 2.25 5 5v214.78c0 2.75-2.25 5-5 5h-27.85c-2.75 0-5-2.25-5-5z" fill="#000000" opacity="1" data-original="#000000" class=""></path><path d="M114.84 148.61c0-2.75 2.25-5 5-5h27.85c2.75 0 5 2.25 5 5v214.78c0 2.75-2.25 5-5 5h-27.85c-2.75 0-5-2.25-5-5zM170 148.61c0-2.75 2.25-5 5-5h11.689c2.75 0 5 2.25 5 5v214.78c0 2.75-2.25 5-5 5H175c-2.75 0-5-2.25-5-5z" fill="#000000" opacity="1" data-original="#000000" class=""></path><path d="M170 148.61c0-2.75 2.25-5 5-5h11.689c2.75 0 5 2.25 5 5v214.78c0 2.75-2.25 5-5 5H175c-2.75 0-5-2.25-5-5zM209 148.61c0-2.75 2.25-5 5-5h5.689c2.75 0 5 2.25 5 5v214.78c0 2.75-2.25 5-5 5H214c-2.75 0-5-2.25-5-5z" fill="#000000" opacity="1" data-original="#000000" class=""></path><path d="M209 148.61c0-2.75 2.25-5 5-5h5.689c2.75 0 5 2.25 5 5v214.78c0 2.75-2.25 5-5 5H214c-2.75 0-5-2.25-5-5zM242 148.61c0-2.75 2.25-5 5-5h30.69c2.75 0 5 2.25 5 5v214.78c0 2.75-2.25 5-5 5H247c-2.75 0-5-2.25-5-5z" fill="#000000" opacity="1" data-original="#000000" class=""></path><path d="M242 148.61c0-2.75 2.25-5 5-5h30.69c2.75 0 5 2.25 5 5v214.78c0 2.75-2.25 5-5 5H247c-2.75 0-5-2.25-5-5zM300 148.61c0-2.75 2.25-5 5-5h12.69c2.75 0 5 2.25 5 5v214.78c0 2.75-2.25 5-5 5H305c-2.75 0-5-2.25-5-5z" fill="#000000" opacity="1" data-original="#000000" class=""></path><path d="M300 148.61c0-2.75 2.25-5 5-5h12.69c2.75 0 5 2.25 5 5v214.78c0 2.75-2.25 5-5 5H305c-2.75 0-5-2.25-5-5zM340 148.61c0-2.75 2.25-5 5-5h20.69c2.75 0 5 2.25 5 5v214.78c0 2.75-2.25 5-5 5H345c-2.75 0-5-2.25-5-5z" fill="#000000" opacity="1" data-original="#000000" class=""></path><path d="M340 148.61c0-2.75 2.25-5 5-5h20.69c2.75 0 5 2.25 5 5v214.78c0 2.75-2.25 5-5 5H345c-2.75 0-5-2.25-5-5zM388 148.61c0-2.75 2.25-5 5-5h9.03c2.75 0 5 2.25 5 5v214.78c0 2.75-2.25 5-5 5H393c-2.75 0-5-2.25-5-5z" fill="#000000" opacity="1" data-original="#000000" class=""></path><path d="M388 148.61c0-2.75 2.25-5 5-5h9.03c2.75 0 5 2.25 5 5v214.78c0 2.75-2.25 5-5 5H393c-2.75 0-5-2.25-5-5zM424.34 148.61c0-2.75 2.25-5 5-5h9.351c2.75 0 5 2.25 5 5v214.78c0 2.75-2.25 5-5 5h-9.351c-2.75 0-5-2.25-5-5z" fill="#000000" opacity="1" data-original="#000000" class=""></path><path d="M424.34 148.61c0-2.75 2.25-5 5-5h9.351c2.75 0 5 2.25 5 5v214.78c0 2.75-2.25 5-5 5h-9.351c-2.75 0-5-2.25-5-5zM475.36 143.61c2.75 0 5 2.25 5 5v214.78c0 2.75-2.25 5-5 5H466c-2.75 0-5-2.25-5-5V148.61c0-2.75 2.25-5 5-5z" fill="#000000" opacity="1" data-original="#000000" class=""></path><path d="M475.36 143.61c2.75 0 5 2.25 5 5v214.78c0 2.75-2.25 5-5 5H466c-2.75 0-5-2.25-5-5V148.61c0-2.75 2.25-5 5-5z" fill="#000000" opacity="1" data-original="#000000" class=""></path></g></svg>