<svg xmlns="http://www.w3.org/2000/svg" xmlns:xlink="http://www.w3.org/1999/xlink" width="512" height="512" viewBox="0 0 512 512"><defs><linearGradient id="a" x1="0.5" y1="1" x2="0.5" gradientUnits="objectBoundingBox"><stop offset="0" stop-color="#f4dd95"/><stop offset="1" stop-color="#fffad3"/></linearGradient><linearGradient id="b" x1="0.5" y1="1" x2="0.5" gradientUnits="objectBoundingBox"><stop offset="0" stop-color="#ffc800"/><stop offset="1" stop-color="#fe8c00"/></linearGradient></defs><circle cx="256" cy="256" r="256" fill="url(#a)"/><path d="M341.424,307.112a64.576,64.576,0,1,0-64-73.246,10,10,0,0,1-19.825-2.657,84.664,84.664,0,0,1,54.1-67.867c-13.851-21.927-40.249-36.742-70.541-36.742-44.656,0-80.858,32.2-80.858,71.914a54.3,54.3,0,1,0,0,108.6Zm54.8-129.039a84.674,84.674,0,0,0-64.164-19.634A92.958,92.958,0,0,0,302.087,125.2a55.061,55.061,0,0,1,94.133,52.872Z" transform="translate(0.002 48.999)" fill-rule="evenodd" fill="url(#b)"/></svg>