<svg xmlns="http://www.w3.org/2000/svg" width="47.273" height="40" viewBox="0 0 47.273 40">
  <g id="Group_1254" data-name="Group 1254" transform="translate(-3979.5 -2782.081)">
    <path id="Path_76734" data-name="Path 76734" d="M4020.409,2798.445a.909.909,0,1,1-.909.909.909.909,0,0,1,.909-.909" fill="#03566e"/>
    <path id="Path_76735" data-name="Path 76735" d="M4013.136,2805.717a.909.909,0,1,1-.909.909.909.909,0,0,1,.909-.909" fill="#03566e"/>
    <path id="Path_76736" data-name="Path 76736" d="M3987.682,2811.172a4.551,4.551,0,0,0,4.545-4.546v-.909h-1.818v2.728a.909.909,0,0,1-.909.909h-3.636a.91.91,0,0,1-.91-.909v-2.728h-1.818v.909a4.552,4.552,0,0,0,4.546,4.546" fill="#03566e"/>
    <path id="Path_76737" data-name="Path 76737" d="M4020.409,2805.717a.909.909,0,1,1-.909.909.909.909,0,0,1,.909-.909" fill="#03566e"/>
    <path id="Path_76738" data-name="Path 76738" d="M4013.136,2798.445a.909.909,0,1,1-.909.909.909.909,0,0,1,.909-.909" fill="#03566e"/>
    <path id="Path_76739" data-name="Path 76739" d="M3986.773,2787.535a.91.91,0,0,0,.909-.909v-3.636a.909.909,0,0,0-1.818,0v3.636a.909.909,0,0,0,.909.909" fill="#03566e"/>
    <path id="Path_76740" data-name="Path 76740" d="M3997.682,2787.535a.91.91,0,0,0,.909-.909v-3.636a.909.909,0,0,0-1.818,0v3.636a.909.909,0,0,0,.909.909" fill="#03566e"/>
    <path id="Path_76741" data-name="Path 76741" d="M4008.591,2787.535a.91.91,0,0,0,.909-.909v-3.636a.909.909,0,0,0-1.818,0v3.636a.909.909,0,0,0,.909.909" fill="#03566e"/>
    <path id="Path_76742" data-name="Path 76742" d="M4019.5,2787.535a.909.909,0,0,0,.909-.909v-3.636a.909.909,0,0,0-1.818,0v3.636a.91.91,0,0,0,.909.909" fill="#03566e"/>
    <path id="Path_76743" data-name="Path 76743" d="M3993.136,2815.717a.909.909,0,1,1-.909.909.909.909,0,0,1,.909-.909" fill="#03566e"/>
    <path id="Path_76744" data-name="Path 76744" d="M3986.773,2804.808v2.728h1.818v-2.728a.909.909,0,0,1,.909-.909h2.727v-1.818H3989.5a.909.909,0,0,1-.909-.909v-2.727h-1.818v2.727a.909.909,0,0,1-.909.909h-2.728v1.818h2.728a.909.909,0,0,1,.909.909" fill="#03566e"/>
    <path id="Path_76745" data-name="Path 76745" d="M4005.864,2798.445a.909.909,0,1,1-.91.909.908.908,0,0,1,.91-.909" fill="#03566e"/>
    <path id="Path_76746" data-name="Path 76746" d="M4005.864,2805.717a.909.909,0,1,1-.91.909.909.909,0,0,1,.91-.909" fill="#03566e"/>
    <path id="Path_76747" data-name="Path 76747" d="M4005.864,2812.99a.909.909,0,1,1-.91.909.909.909,0,0,1,.91-.909" fill="#03566e"/>
    <path id="Path_76748" data-name="Path 76748" d="M4026.091,2785.717h-3.864v.909a2.727,2.727,0,1,1-5.454,0v-.909h-5.455v.909a2.727,2.727,0,1,1-5.454,0v-.909h-5.455v.909a2.727,2.727,0,1,1-5.454,0v-.909H3989.5v.909a2.728,2.728,0,1,1-5.455,0v-.909h-3.863a.683.683,0,0,0-.682.682v4.773h47.273V2786.4a.684.684,0,0,0-.682-.682" fill="#03566e"/>
    <path id="Path_76749" data-name="Path 76749" d="M4013.136,2812.99a.909.909,0,1,1-.909.909.909.909,0,0,1,.909-.909" fill="#03566e"/>
    <path id="Path_76750" data-name="Path 76750" d="M4024.189,2792.99H3999.5v29.091h26.591a.683.683,0,0,0,.682-.682v-25.7a3.413,3.413,0,0,0-2.584-2.713m-18.325,23.636a2.727,2.727,0,1,1,2.727-2.727,2.727,2.727,0,0,1-2.727,2.727m0-7.272a2.728,2.728,0,1,1,2.727-2.728,2.727,2.727,0,0,1-2.727,2.728m0-7.273a2.728,2.728,0,1,1,2.727-2.727,2.727,2.727,0,0,1-2.727,2.727m7.272,14.545a2.727,2.727,0,1,1,2.728-2.727,2.727,2.727,0,0,1-2.728,2.727m0-7.272a2.728,2.728,0,1,1,2.728-2.728,2.727,2.727,0,0,1-2.728,2.728m0-7.273a2.728,2.728,0,1,1,2.728-2.727,2.727,2.727,0,0,1-2.728,2.727m7.273,7.273a2.728,2.728,0,1,1,2.727-2.728,2.727,2.727,0,0,1-2.727,2.728m0-7.273a2.728,2.728,0,1,1,2.727-2.727,2.727,2.727,0,0,1-2.727,2.727" fill="#03566e"/>
    <path id="Path_76751" data-name="Path 76751" d="M3982.081,2792.99a3.412,3.412,0,0,0-2.581,2.694V2821.4a.682.682,0,0,0,.682.682h17.5V2792.99Zm13.627,24.546a2.728,2.728,0,0,1-5.143,0h-1.52a2.276,2.276,0,0,1-2.272-2.273v-2.339a6.372,6.372,0,0,1-5.455-6.3v-5.454a.909.909,0,0,1,.909-.909h2.728v-2.728a.909.909,0,0,1,.909-.909h3.636a.909.909,0,0,1,.909.909v2.728h2.727a.91.91,0,0,1,.91.909v5.454a6.373,6.373,0,0,1-5.455,6.3v2.339a.454.454,0,0,0,.454.454h1.52a2.728,2.728,0,1,1,5.143,1.819" fill="#03566e"/>
  </g>
</svg>
