<svg xmlns="http://www.w3.org/2000/svg" width="66.062" height="66.061" viewBox="0 0 66.062 66.061">
  <g id="Group_15" data-name="Group 15" transform="translate(-288.227 -337.382)">
    <path id="Path_17" data-name="Path 17" d="M288.227,370.413a33.031,33.031,0,1,0,33.031-33.031,33.03,33.03,0,0,0-33.031,33.031" fill="#00556e"/>
    <g id="Group_14" data-name="Group 14">
      <path id="Path_18" data-name="Path 18" d="M336.1,352.413h-4.751a2.375,2.375,0,0,0-2.375,2.375,2.376,2.376,0,0,1-4.751,0,2.375,2.375,0,0,0-2.376-2.375h-5.938a2.375,2.375,0,0,0-2.375,2.375,2.376,2.376,0,0,1-4.751,0,2.375,2.375,0,0,0-2.376-2.375h-4.75a2.375,2.375,0,0,0-2.376,2.375V384.48a2.376,2.376,0,0,0,2.376,2.376h18a13.845,13.845,0,0,1,18.814-17.65V354.788a2.375,2.375,0,0,0-2.375-2.375M306.411,381.13a2.376,2.376,0,1,1,2.376-2.376,2.376,2.376,0,0,1-2.376,2.376m0-7.126a2.376,2.376,0,1,1,2.376-2.376A2.376,2.376,0,0,1,306.411,374m7.127,7.126a2.376,2.376,0,1,1,2.375-2.376,2.376,2.376,0,0,1-2.375,2.376m0-7.126a2.376,2.376,0,1,1,2.375-2.376A2.376,2.376,0,0,1,313.538,374m0-7.127a2.376,2.376,0,1,1,2.375-2.375,2.375,2.375,0,0,1-2.375,2.375m7.126,0a2.376,2.376,0,1,1,2.375-2.375,2.375,2.375,0,0,1-2.375,2.375" fill="#fff"/>
      <path id="Path_19" data-name="Path 19" d="M332.541,371.034a10.689,10.689,0,1,0,10.689,10.689,10.69,10.69,0,0,0-10.689-10.689m1.484,11.283a1.484,1.484,0,0,1-1.484,1.485H326.6a1.484,1.484,0,0,1,0-2.969h4.454v-5.642a1.484,1.484,0,1,1,2.969,0Z" fill="#fff"/>
    </g>
  </g>
</svg>
