<?xml version="1.0" encoding="iso-8859-1"?>
<!-- Generator: Adobe Illustrator 19.0.0, SVG Export Plug-In . SVG Version: 6.00 Build 0)  -->
<svg version="1.1" id="Capa_1" xmlns="http://www.w3.org/2000/svg" xmlns:xlink="http://www.w3.org/1999/xlink" x="0px" y="0px"
	 viewBox="0 0 504.994 504.994" style="enable-background:new 0 0 504.994 504.994;" xml:space="preserve">
<g>
	<g>
		<g>
			<path d="M134.386,327.995H32.917C14.862,327.995,0,344.582,0,365.01v101.793c0,20.341,14.862,36.994,32.917,36.994h101.469
				c18.055,0,32.874-16.631,32.874-36.994V365.01C167.26,344.582,152.462,327.995,134.386,327.995z"/>
			<circle cx="83.587" cy="254.417" r="63.246"/>
			<path d="M472.12,327.995H370.672c-18.033,0-32.874,16.631-32.874,37.059v101.793c0,20.341,14.841,37.015,32.874,37.015H472.12
				c18.119,0,32.874-16.631,32.874-37.015V365.053C505.015,344.582,490.239,327.995,472.12,327.995z"/>
			<path d="M421.342,317.662c35.031,0,63.289-28.301,63.289-63.246s-28.258-63.246-63.289-63.246
				c-34.902,0-63.202,28.301-63.202,63.246C358.161,289.361,386.441,317.662,421.342,317.662z"/>
			<polygon points="266.723,385.049 200.328,385.049 200.328,426.249 266.723,426.249 266.723,454.593 315.667,405.628 
				266.723,356.727 			"/>
			<path d="M312.323,144.772c-5.652-5.652-12.943-10.419-21.894-14.388c-4.638-2.028-14.172-4.875-28.689-8.585V39.485
				c9.34,1.898,16.696,5.889,22.024,11.907c5.35,5.975,8.844,14.69,10.613,25.993l29.574-4.487
				c-2.567-18.335-10.095-32.68-22.585-43.163c-9.728-8.262-22.908-13.158-39.561-14.776V1.132h-17.041v13.827
				c-19.069,1.941-33.348,7.097-43.012,15.66C187.256,43.217,180.03,59.74,180.03,80.146c0,11.476,2.459,21.743,7.399,30.803
				c4.983,9.017,12.015,16.049,21.226,21.183c12.295,6.903,24.353,11.885,36.109,14.884v90.166
				c-11.26-1.208-20.881-6.881-28.926-17.084c-5.565-7.248-9.513-18.572-11.735-34.017l-28.991,5.544
				c1.1,14.949,4.875,27.546,11.433,37.921c6.493,10.332,14.258,17.839,23.232,22.455c8.973,4.659,20.6,7.916,34.988,9.707v28.732
				v0.022h16.998v-29.185c20.104-0.971,36.498-8.089,49.117-21.398c12.705-13.266,19.025-29.897,19.025-49.807
				c0-9.038-1.488-17.451-4.53-25.216C322.289,157.111,317.996,150.424,312.323,144.772z M244.764,117.356
				c-13.05-3.343-22.304-8.305-27.783-14.862c-5.436-6.622-8.24-14.754-8.24-24.504c0-9.901,3.236-18.421,9.664-25.626
				c6.45-7.183,15.207-11.691,26.359-13.374V117.356z M289.372,222.686c-7.248,8.262-16.502,13.115-27.611,14.496v-85.787
				c15.423,3.969,25.712,9.146,30.889,15.445c5.134,6.32,7.636,14.668,7.636,25.087C300.265,204.157,296.641,214.36,289.372,222.686
				z"/>
		</g>
	</g>
	<g>
	</g>
	<g>
	</g>
	<g>
	</g>
	<g>
	</g>
	<g>
	</g>
	<g>
	</g>
	<g>
	</g>
	<g>
	</g>
	<g>
	</g>
	<g>
	</g>
	<g>
	</g>
	<g>
	</g>
	<g>
	</g>
	<g>
	</g>
	<g>
	</g>
</g>
<g>
</g>
<g>
</g>
<g>
</g>
<g>
</g>
<g>
</g>
<g>
</g>
<g>
</g>
<g>
</g>
<g>
</g>
<g>
</g>
<g>
</g>
<g>
</g>
<g>
</g>
<g>
</g>
<g>
</g>
</svg>
