<svg xmlns="http://www.w3.org/2000/svg" width="49.253" height="45" viewBox="0 0 49.253 45">
  <g id="Group_5" data-name="Group 5" transform="translate(-296.149 -167.373)">
    <g id="Group_3" data-name="Group 3">
      <path id="Path_5" data-name="Path 5" d="M320.439,206.382H299.645a3.5,3.5,0,0,1-3.5-3.5V170.87a3.5,3.5,0,0,1,3.5-3.5h5.123a3.5,3.5,0,0,1,3.5,3.5,1.625,1.625,0,1,0,3.251,0,3.5,3.5,0,0,1,3.5-3.5h6.4a3.5,3.5,0,0,1,3.5,3.5,1.626,1.626,0,1,0,3.252,0,3.5,3.5,0,0,1,3.5-3.5h5.122a3.5,3.5,0,0,1,3.5,3.5V187.9l-1.337-.635a13.88,13.88,0,0,0-6-1.366A14,14,0,0,0,319.927,205.1Zm-20.794-37.138a1.629,1.629,0,0,0-1.626,1.626v32.015a1.628,1.628,0,0,0,1.626,1.626h18.094a15.732,15.732,0,0,1-.687-4.6,15.907,15.907,0,0,1,15.889-15.889,15.677,15.677,0,0,1,5.468.981V170.87a1.629,1.629,0,0,0-1.626-1.626h-5.122a1.628,1.628,0,0,0-1.626,1.626,3.5,3.5,0,0,1-6.994,0,1.628,1.628,0,0,0-1.625-1.626h-6.4a1.629,1.629,0,0,0-1.626,1.626,3.5,3.5,0,0,1-6.993,0,1.629,1.629,0,0,0-1.626-1.626Zm12.807,30.964a3.5,3.5,0,1,1,3.5-3.5A3.5,3.5,0,0,1,312.452,200.208Zm0-5.123a1.626,1.626,0,1,0,1.625,1.626A1.627,1.627,0,0,0,312.452,195.085Zm-7.684,5.123a3.5,3.5,0,1,1,3.5-3.5A3.5,3.5,0,0,1,304.768,200.208Zm0-5.123a1.626,1.626,0,1,0,1.626,1.626A1.627,1.627,0,0,0,304.768,195.085Zm7.684-2.561a3.5,3.5,0,1,1,3.5-3.5A3.5,3.5,0,0,1,312.452,192.524Zm0-5.122a1.626,1.626,0,1,0,1.625,1.626A1.627,1.627,0,0,0,312.452,187.4Zm-7.684,5.122a3.5,3.5,0,1,1,3.5-3.5A3.5,3.5,0,0,1,304.768,192.524Zm0-5.122a1.626,1.626,0,1,0,1.626,1.626A1.627,1.627,0,0,0,304.768,187.4Zm15.367-2.562a3.5,3.5,0,1,1,3.5-3.5A3.5,3.5,0,0,1,320.135,184.84Zm0-5.122a1.626,1.626,0,1,0,1.626,1.626A1.628,1.628,0,0,0,320.135,179.718Zm-7.683,5.122a3.5,3.5,0,1,1,3.5-3.5A3.5,3.5,0,0,1,312.452,184.84Zm0-5.122a1.626,1.626,0,1,0,1.625,1.626A1.627,1.627,0,0,0,312.452,179.718Z" fill="#00556e"/>
    </g>
    <g id="Group_4" data-name="Group 4">
      <path id="Path_6" data-name="Path 6" d="M332.941,212.373a12.461,12.461,0,1,1,12.461-12.46A12.475,12.475,0,0,1,332.941,212.373Zm0-23.051a10.59,10.59,0,1,0,10.59,10.591A10.6,10.6,0,0,0,332.941,189.322Zm0,13.767h-6.4a2.536,2.536,0,0,1,0-5.072H330.4v-5.148a2.536,2.536,0,1,1,5.072,0v7.684A2.539,2.539,0,0,1,332.941,203.089Zm-6.4-3.2a.665.665,0,1,0,0,1.33h6.4a.665.665,0,0,0,.665-.665v-7.684a.665.665,0,1,0-1.33,0v7.019Z" fill="#00556e"/>
    </g>
  </g>
</svg>
