<svg xmlns="http://www.w3.org/2000/svg" width="53.795" height="60" viewBox="0 0 53.795 60">
  <g id="Group_1314" data-name="Group 1314" transform="translate(-6821.696 -4833.161)">
    <path id="Path_68316" data-name="Path 68316" d="M6829.975,4837.3h-1.035v-4.138h1.035a2.075,2.075,0,0,1,2.069,2.069,2.082,2.082,0,0,1-2.069,2.069" fill="#03566e"/>
    <path id="Path_68317" data-name="Path 68317" d="M6837.216,4835.231a2.087,2.087,0,0,1,2.069-2.07h1.035v4.139h-1.035a2.077,2.077,0,0,1-2.069-2.069" fill="#03566e"/>
    <path id="Path_68318" data-name="Path 68318" d="M6847.52,4837.91a4.176,4.176,0,0,0-.952-3.311,4.064,4.064,0,0,0-3.093-1.437h-1.086v4.138h1.086l-2.928,19.241a4.075,4.075,0,0,1-4.034,3.507h-3.765a4.076,4.076,0,0,1-4.035-3.507l-2.928-19.241h1.087v-4.138h-1.087a4.063,4.063,0,0,0-3.092,1.437,4.184,4.184,0,0,0-.952,3.321l2.927,19.241a8.152,8.152,0,0,0,8.08,7.015h3.765a8.15,8.15,0,0,0,8.079-7.015Z" fill="#03566e"/>
    <path id="Path_68319" data-name="Path 68319" d="M6832.748,4864.176a8,8,0,0,1-1.583-.156c0-.01.01-.01.01-.02l4.428.176Z" fill="#03566e"/>
    <path id="Path_68320" data-name="Path 68320" d="M6862.82,4881.958a22.969,22.969,0,0,1-5.431,6.3,17.808,17.808,0,0,1-8.752,4.271,39.516,39.516,0,0,1-6.527.63c-5.659,0-9.746-1.624-12.207-4.841-4.594-6.02-1.986-15.993.476-22.345a10.509,10.509,0,0,0,2.369.269h1.954c-2.451,6-4.986,15.042-1.51,19.573,2.193,2.865,6.559,3.465,11.09,3.124.414-.031.817-.073,1.231-.114.207-.021.424-.041.631-.073a14.935,14.935,0,0,0,5.245-1.367,22.737,22.737,0,0,0,4.486-3.406,15.214,15.214,0,0,0,3.264-3.932c1.945-3.61,2.11-7.179.445-8.741a4.5,4.5,0,0,0-3.352-.982,4.449,4.449,0,0,0-3.165,1.685,2.126,2.126,0,0,1-3.311,0,4.451,4.451,0,0,0-3.165-1.685c-.155-.011-.311-.022-.455-.022a4.377,4.377,0,0,0-2.9,1c-1.665,1.562-1.5,5.131.414,8.69a19.3,19.3,0,0,0,5.452,5.814c.01.01.02.02.03.02a19.566,19.566,0,0,1-5.006,1.21,18.561,18.561,0,0,1-4.148-5.141c-2.856-5.327-2.7-10.686.434-13.6a8.021,8.021,0,0,1,3.331-1.8,9.018,9.018,0,0,1,3.218-.279,8.615,8.615,0,0,1,4.448,1.665,8.909,8.909,0,0,1,11,.414c3.133,2.922,3.287,8.281.412,13.66" fill="#03566e"/>
    <path id="Path_68321" data-name="Path 68321" d="M6872.916,4888.32c-2.462,3.217-6.548,4.841-12.207,4.841a38.337,38.337,0,0,1-5.886-.5,20.4,20.4,0,0,0,2.587-1.852l.538-.424c.589-.455,1.147-.921,1.665-1.386,4.137.176,8.007-.549,10.014-3.187,3.321-4.355,1.169-12.8-1.169-18.754a11.043,11.043,0,0,0,3.817-1.532c2.493,6.321,5.348,16.625.641,22.79" fill="#03566e"/>
    <path id="Path_68322" data-name="Path 68322" d="M6866.182,4846.61a9.311,9.311,0,0,0,0,18.621,8.516,8.516,0,0,0,1.148-.072,9.31,9.31,0,0,0-1.148-18.549m0,14.483a5.172,5.172,0,1,1,5.173-5.173,5.173,5.173,0,0,1-5.173,5.173" fill="#03566e"/>
    <path id="Path_68323" data-name="Path 68323" d="M6869.285,4855.92a3.1,3.1,0,1,1-3.1-3.1,3.1,3.1,0,0,1,3.1,3.1" fill="#03566e"/>
  </g>
</svg>
