<svg xmlns="http://www.w3.org/2000/svg" width="512.002" height="399.049" viewBox="0 0 512.002 399.049">
  <g id="chat" transform="translate(0 -56.476)">
    <g id="Group_2818" data-name="Group 2818">
      <path id="Path_3858" data-name="Path 3858" d="M184.851,426.178a183.965,183.965,0,0,1-97.713-27.912L19.31,413.527A14.671,14.671,0,0,1,1.776,395.993l16.673-74.1A185.514,185.514,0,0,1,0,241.327C0,139.4,82.923,56.476,184.851,56.476S369.7,139.4,369.7,241.327,286.778,426.178,184.851,426.178Zm-94.914-58.25a14.669,14.669,0,0,1,8.194,2.5,154.717,154.717,0,0,0,86.72,26.407c85.749,0,155.509-69.761,155.509-155.509S270.6,85.818,184.851,85.818s-155.51,69.76-155.51,155.509A153.724,153.724,0,0,0,46.919,313.2a14.681,14.681,0,0,1,1.309,10.011l-12.736,56.6,51.224-11.525A14.608,14.608,0,0,1,89.937,367.928Z" fill="#2d527c"/>
      <path id="Path_3859" data-name="Path 3859" d="M341.82,455.525a171.722,171.722,0,0,1-29.614-2.575,14.671,14.671,0,0,1,5.073-28.9,142.276,142.276,0,0,0,24.541,2.133,140.12,140.12,0,0,0,78.538-23.916,14.681,14.681,0,0,1,11.414-2.142l44.857,10.092-11.2-49.77a14.664,14.664,0,0,1,1.309-10.013,140.933,140.933,0,0,0-73.687-196.32,14.671,14.671,0,0,1,10.68-27.33,170.285,170.285,0,0,1,91.475,232.33L510.347,426.4a14.671,14.671,0,0,1-17.534,17.534L431.337,430.1A169.342,169.342,0,0,1,341.82,455.525Z" fill="#2d527c"/>
      <path id="Path_3860" data-name="Path 3860" d="M273.854,259.9H255.272a14.671,14.671,0,1,1,0-29.342h18.582a14.671,14.671,0,0,1,0,29.342Z" fill="#2d527c"/>
      <path id="Path_3861" data-name="Path 3861" d="M194.875,259.9H176.293a14.671,14.671,0,1,1,0-29.342h18.582a14.671,14.671,0,1,1,0,29.342Z" fill="#2d527c"/>
      <path id="Path_3862" data-name="Path 3862" d="M115.9,259.9H97.317a14.671,14.671,0,0,1,0-29.342H115.9a14.671,14.671,0,1,1,0,29.342Z" fill="#2d527c"/>
    </g>
  </g>
</svg>
