<svg xmlns="http://www.w3.org/2000/svg" width="56.251" height="60" viewBox="0 0 56.251 60">
  <g id="Group_1311" data-name="Group 1311" transform="translate(-6822.54 -5093.215)">
    <path id="Path_68303" data-name="Path 68303" d="M6875.041,5096.965h-4.688v-.938a2.813,2.813,0,0,0-5.625,0v.938H6836.6v-.938a2.813,2.813,0,0,0-5.625,0v.938h-4.687a3.755,3.755,0,0,0-3.751,3.75v39.375a3.755,3.755,0,0,0,3.751,3.75H6836.6a.938.938,0,1,0,0-1.875h-10.312a1.877,1.877,0,0,1-1.875-1.875v-31.875h52.5v31.875a1.877,1.877,0,0,1-1.874,1.875h-10.313a.938.938,0,1,0,0,1.875h10.313a3.755,3.755,0,0,0,3.75-3.75v-39.375a3.755,3.755,0,0,0-3.75-3.75m-8.438-.938a.938.938,0,0,1,1.875,0v4.688a.938.938,0,0,1-1.875,0Zm-33.75,0a.938.938,0,0,1,1.875,0v4.688a.938.938,0,0,1-1.875,0Z" fill="#03566e"/>
    <path id="Path_68304" data-name="Path 68304" d="M6850.665,5117.59a11.264,11.264,0,0,0-11.25,11.25c0,8.009,3.712,13.59,11.04,16.164a.6.6,0,0,0,.391,0c7.366-2.59,11.07-8.272,11.07-16.164a11.265,11.265,0,0,0-11.251-11.25m-2.5,2.215a4.832,4.832,0,0,0-1.226,2.282,3.515,3.515,0,0,0,3.73,3.94c3.641,0,3.595-3.85,1.235-4.639a.938.938,0,1,0-.594,1.779c.353.107.869.985-.641.985a1.9,1.9,0,0,1-1.56-.653,1.387,1.387,0,0,1-.334-1.031,2.746,2.746,0,0,1,1.894-2.066.937.937,0,0,0,.936-.891h0a9.375,9.375,0,1,1-3.441.294" fill="#03566e"/>
    <path id="Path_68305" data-name="Path 68305" d="M6846.916,5129.777a.937.937,0,0,0,.937-.937v-.938a.938.938,0,0,0-1.875,0v.938a.937.937,0,0,0,.938.937" fill="#03566e"/>
    <path id="Path_68306" data-name="Path 68306" d="M6854.416,5129.777a.937.937,0,0,0,.937-.937v-.938a.938.938,0,0,0-1.875,0v.938a.937.937,0,0,0,.938.937" fill="#03566e"/>
    <path id="Path_68307" data-name="Path 68307" d="M6848.014,5134.3a3.754,3.754,0,0,0,5.3,0,.938.938,0,0,0-1.326-1.326,1.877,1.877,0,0,1-2.651,0,.938.938,0,0,0-1.326,1.326" fill="#03566e"/>
    <path id="Path_68308" data-name="Path 68308" d="M6854.65,5146.082a39.537,39.537,0,0,0,6.013.559.351.351,0,0,0,.329-.21,11.227,11.227,0,0,0,.924-4.466v-2.712a.352.352,0,0,0-.656-.175,16.685,16.685,0,0,1-6.71,6.348.351.351,0,0,0,.1.656" fill="#03566e"/>
    <path id="Path_68309" data-name="Path 68309" d="M6840.069,5139.068a.352.352,0,0,0-.654.18v2.717a11.25,11.25,0,0,0,20,7.075.352.352,0,0,0-.256-.573c-7.756-.344-15.291-2.874-19.087-9.4" fill="#03566e"/>
  </g>
</svg>
