<svg xmlns="http://www.w3.org/2000/svg" width="60" height="60" viewBox="0 0 60 60">
  <g id="Group_1347" data-name="Group 1347" transform="translate(-6819.506 -5617.811)">
    <path id="Path_68351" data-name="Path 68351" d="M6878.834,5625.572l-7.089-7.088a2.3,2.3,0,0,0-3.248,0h0a2.3,2.3,0,0,0,0,3.248l.83.83-5.7,5.7,5.429,5.429,5.7-5.7.83.83a2.3,2.3,0,0,0,3.249-3.249" fill="#03566e"/>
    <path id="Path_68352" data-name="Path 68352" d="M6872.662,5641.884l-17.228-17.228a.811.811,0,0,0-1.149,0l-3.446,3.445a.813.813,0,0,0,0,1.149l2.229,2.228-24.39,24.389a6.474,6.474,0,0,0-.479,8.6l-.789.789a1.6,1.6,0,0,0-.206,1.986l-7.1,7.1a2.03,2.03,0,1,0,2.871,2.871l7.1-7.1a1.6,1.6,0,0,0,1.986-.207l.789-.788a6.477,6.477,0,0,0,8.6-.48l24.389-24.389,2.228,2.228a.812.812,0,0,0,1.148,0l3.446-3.445a.814.814,0,0,0,0-1.149m-33.851,15.3-4.392,4.393a2.031,2.031,0,0,1-2.871-2.872l4.393-4.392a2.03,2.03,0,0,1,2.87,2.871m6.479-6.476-1.5,1.5a2.031,2.031,0,1,1-2.871-2.873l1.5-1.5a2.031,2.031,0,0,1,2.871,2.873m11.956-3.609-10.159-3.9,7.65-7.65,7.03,7.029Z" fill="#03566e"/>
  </g>
</svg>
