<svg xmlns="http://www.w3.org/2000/svg" width="395.047" height="512" viewBox="0 0 395.047 512">
  <g id="user" transform="translate(-58.477)">
    <g id="Group_2890" data-name="Group 2890">
      <path id="Path_4210" data-name="Path 4210" d="M217.79,255.951A127.976,127.976,0,1,1,345.766,127.976,128.121,128.121,0,0,1,217.79,255.951Zm0-226.856a98.881,98.881,0,1,0,98.881,98.881A98.993,98.993,0,0,0,217.79,29.095Z" fill="#2d527c"/>
      <path id="Path_4211" data-name="Path 4211" d="M217.79,204.837a56.838,56.838,0,0,1-40.317-16.673,14.549,14.549,0,0,1,20.575-20.575,27.953,27.953,0,0,0,39.486,0,14.549,14.549,0,0,1,20.575,20.575A56.854,56.854,0,0,1,217.79,204.837Z" fill="#2d527c"/>
      <path id="Path_4212" data-name="Path 4212" d="M348.008,358.272c-8.035,0,0,8.035,0,0-32.285-20.346-32.953-40.65-83.953-61.329a14.547,14.547,0,1,1,10.934-26.962c62.032,25.154,73.1,46.675,86.05,82.743C361.038,360.758,356.042,358.272,348.008,358.272Z" fill="#2d527c"/>
      <path id="Path_4213" data-name="Path 4213" d="M269.71,512H115.032a56.617,56.617,0,0,1-56.555-56.555V421.526A162.881,162.881,0,0,1,160.592,269.981a14.547,14.547,0,0,1,10.934,26.962A133.9,133.9,0,0,0,87.572,421.525v33.919a27.492,27.492,0,0,0,27.46,27.46H269.71a14.548,14.548,0,1,1,0,29.1Z" fill="#2d527c"/>
    </g>
    <path id="Path_4215" data-name="Path 4215" d="M347.549,511.59a18.134,18.134,0,0,1-9.729-2.828c-10.794-6.849-65.56-42.573-83.76-73.337a85.932,85.932,0,0,1-12.6-46.135c0-44.121,33.15-67.207,65.893-67.207,19.03,0,31.859,6.869,40.183,14.332,8.31-7.463,21.125-14.332,40.134-14.332,32.726,0,65.855,23.086,65.855,67.207A85.942,85.942,0,0,1,440.9,435.425c-18.07,30.546-72.8,66.429-83.586,73.311A18.116,18.116,0,0,1,347.549,511.59Zm-40.2-160.41c-16.976,0-36.8,9.981-36.8,38.112a56.863,56.863,0,0,0,8.547,31.321c11.219,18.966,46.827,45.463,68.433,59.77,21.605-14.377,57.191-40.944,68.328-59.77a56.869,56.869,0,0,0,8.567-31.321c0-28.129-19.8-38.112-36.76-38.112-15.5,0-22.716,7.411-26.039,13.628a15.973,15.973,0,0,1-28.152.025C330.137,358.6,322.895,351.18,307.351,351.18Z" fill="#2d527c"/>
  </g>
</svg>
