<svg xmlns="http://www.w3.org/2000/svg" width="28.414" height="43.614" viewBox="0 0 28.414 43.614"><g transform="translate(-845.747 -987.142)"><path d="M870.188,993.01h-4.852v-.462a5.405,5.405,0,1,0-10.811,0v.462h-4.851a3.924,3.924,0,0,0-3.927,3.927v29.892a3.924,3.924,0,0,0,3.927,3.927h20.56a3.924,3.924,0,0,0,3.927-3.927V996.937A3.993,3.993,0,0,0,870.188,993.01Zm-10.257-3.558a3.1,3.1,0,0,1,3.095,3.1v2.541h-6.191v-2.541A3.067,3.067,0,0,1,859.931,989.452Zm7.9,35.668h-15.8v-2.311h15.8Zm-.231-5.36H852.261a.437.437,0,0,1-.462-.462v-1.386a3.426,3.426,0,0,1,1.8-3l3-1.617a.484.484,0,0,0,.231-.416v-.97a7.12,7.12,0,0,1-1.108-2.31,1.676,1.676,0,0,1-.555-1.294v-1.34a1.894,1.894,0,0,1,.324-1.016v-.832a3.515,3.515,0,0,1,.785-2.494,5.641,5.641,0,0,1,7.3,0,3.257,3.257,0,0,1,.785,2.494v.832a1.575,1.575,0,0,1,.324,1.016v1.34a1.784,1.784,0,0,1-.878,1.525,8.184,8.184,0,0,1-.97,1.894l-.139.185v.97a.484.484,0,0,0,.231.416l3.188,1.617a3.46,3.46,0,0,1,1.894,3.1v1.293A.4.4,0,0,1,867.6,1019.76Z" fill="#31576d"/></g></svg>