<svg xmlns="http://www.w3.org/2000/svg" width="60.226" height="60" viewBox="0 0 60.226 60">
  <g id="Group_1205" data-name="Group 1205" transform="translate(-5972.456 -6600.039)">
    <path id="Path_58696" data-name="Path 58696" d="M6023.1,6629.274a22.787,22.787,0,0,0-19.6-12.643v-1.816a24.735,24.735,0,0,1,11.829,3.47l.932-1.557A26.541,26.541,0,0,0,6003.5,6613v-10.918h-1.815V6613a26.544,26.544,0,0,0-12.76,3.729l.932,1.557a24.711,24.711,0,0,1,11.828-3.471v1.816a22.786,22.786,0,0,0-19.6,12.643l-.014.028h-7.606v1.815h7.606l.014.027a22.785,22.785,0,0,0,19.6,12.644v14.55h1.815v-14.55a22.79,22.79,0,0,0,19.6-12.643l.014-.028h7.606V6629.3h-7.606Zm-20.509,13.639a12.7,12.7,0,1,1,12.7-12.7,12.7,12.7,0,0,1-12.7,12.7" fill="#03566e"/>
    <path id="Path_58697" data-name="Path 58697" d="M6002.588,6621.136a9.042,9.042,0,0,0-6.416,2.658,1.814,1.814,0,0,1,2.566,2.566,5.444,5.444,0,1,1,7.7,7.7,1.815,1.815,0,0,1,2.566,2.567,9.073,9.073,0,0,0-6.416-15.489" fill="#03566e"/>
    <path id="Path_58698" data-name="Path 58698" d="M6006.438,6636.625a1.814,1.814,0,0,1,0-2.566,5.445,5.445,0,0,1-7.7-7.7,1.814,1.814,0,0,1-2.566-2.566A9.073,9.073,0,1,0,6009,6636.625a1.814,1.814,0,0,1-2.566,0" fill="#03566e"/>
    <path id="Path_58699" data-name="Path 58699" d="M6006.437,6634.06h0Z" fill="#03566e"/>
    <path id="Path_58700" data-name="Path 58700" d="M5976.124,6631.117h-3.367a.3.3,0,0,1-.3-.3V6629.6a.3.3,0,0,1,.3-.3h3.367a.3.3,0,0,1,.3.3v1.213a.3.3,0,0,1-.3.3" fill="#03566e"/>
    <path id="Path_58701" data-name="Path 58701" d="M6001.718,6659.738v-3.367a.3.3,0,0,1,.3-.3h1.212a.3.3,0,0,1,.3.3v3.367a.3.3,0,0,1-.3.3h-1.212a.3.3,0,0,1-.3-.3" fill="#03566e"/>
    <path id="Path_58702" data-name="Path 58702" d="M6001.718,6603.708v-3.367a.3.3,0,0,1,.3-.3h1.212a.3.3,0,0,1,.3.3v3.367a.3.3,0,0,1-.3.3h-1.212a.3.3,0,0,1-.3-.3" fill="#03566e"/>
    <path id="Path_58703" data-name="Path 58703" d="M5988.464,6617.052l1.795-1.036a.3.3,0,0,1,.411.11l.606,1.05a.3.3,0,0,1-.11.411l-1.794,1.036a.3.3,0,0,1-.412-.11l-.606-1.05a.3.3,0,0,1,.11-.411" fill="#03566e"/>
    <path id="Path_58704" data-name="Path 58704" d="M6014.917,6616.049l1.861.911a.3.3,0,0,1,.138.4l-.533,1.089a.3.3,0,0,1-.4.138l-1.861-.911a.3.3,0,0,1-.138-.4l.533-1.088a.3.3,0,0,1,.4-.139" fill="#03566e"/>
    <path id="Path_58705" data-name="Path 58705" d="M6032.381,6631.117h-3.367a.3.3,0,0,1-.3-.3V6629.6a.3.3,0,0,1,.3-.3h3.367a.3.3,0,0,1,.3.3v1.213a.3.3,0,0,1-.3.3" fill="#03566e"/>
  </g>
</svg>
