<svg xmlns="http://www.w3.org/2000/svg" width="93.181" height="68.356" viewBox="0 0 93.181 68.356">
  <g id="Group_1254" data-name="Group 1254" transform="translate(-6840.669 -6778.462)">
    <path id="Path_63499" data-name="Path 63499" d="M6907.587,6786.114a1.873,1.873,0,0,1,.436.17,8.735,8.735,0,0,1,1-.173v-7.649h-3.8v7.106c.535.106,1.068.222,1.6.355Z" fill="#e76f51"/>
    <path id="Path_63500" data-name="Path 63500" d="M6889.088,6789.854h-27.532a20.911,20.911,0,0,0-20.887,20.887v28.081a8,8,0,0,0,14.649,4.436,22.693,22.693,0,0,1,14.023-9.609l18.547-4.122a7.549,7.549,0,0,0,5.947-7.414V6794.6a4.753,4.753,0,0,0-4.747-4.747m-40.824,39.875a1.9,1.9,0,0,1-3.8,0v-11.393a1.9,1.9,0,1,1,3.8,0Zm0-18.988a1.9,1.9,0,1,1-3.8,0v-1.9a1.9,1.9,0,0,1,3.8,0Z" fill="#e76f51"/>
    <path id="Path_63501" data-name="Path 63501" d="M6890.037,6786.019l2.217-.443c.524-.1,1.052-.194,1.581-.273v-6.841h-3.8Z" fill="#e76f51"/>
    <path id="Path_63502" data-name="Path 63502" d="M6933.706,6790.305a.936.936,0,0,0-.807-.451h-22.924a4.752,4.752,0,0,0-4.747,4.747v30.381a2.851,2.851,0,0,0,2.848,2.848h1.8a8.959,8.959,0,0,0,5.345-1.755,8.332,8.332,0,0,0,3.038-4.525l2.443-8.939a34.972,34.972,0,0,1,5.856-11.915l7.244-9.589a.937.937,0,0,0-.093-.8" fill="#e76f51"/>
    <path id="Path_63503" data-name="Path 63503" d="M6890.037,6832.854v13.963h3.8v-14.751c-.51-.089-1.018-.187-1.523-.3a11.321,11.321,0,0,1-2.275,1.088" fill="#e76f51"/>
    <path id="Path_63504" data-name="Path 63504" d="M6907.468,6831.6q-1.111.274-2.24.468v14.752h3.8v-15.191h-.949c-.205,0-.407-.01-.608-.029" fill="#e76f51"/>
    <path id="Path_63505" data-name="Path 63505" d="M6903.44,6789.1a29.708,29.708,0,0,0-7.979-.187,8.5,8.5,0,0,1,2.171,5.683v27.512a11.374,11.374,0,0,1-1.942,6.4,29.623,29.623,0,0,0,6.821.1,6.606,6.606,0,0,1-1.081-3.626V6794.6a8.506,8.506,0,0,1,2.01-5.5" fill="#e76f51"/>
  </g>
</svg>
