<svg xmlns="http://www.w3.org/2000/svg" width="72.633" height="80.001" viewBox="0 0 72.633 80.001">
  <path id="Path_63515" data-name="Path 63515" d="M6920.879,6998.615c-9.184-21.193-21.193-13.422-24.019-12.716s-9.183,5.652-10.6-1.413c0,0-2.119-9.183,0-12.009a37.483,37.483,0,0,0-4.635-.733c-.912,12.311,1.984,19.463,5.252,22.249,5.817,4.96,7.757,6.378,11.634,9.919s3.211,9.186,2.554,12.007c-.427,1.828-1.538,4.74-2.644,4.736-.814,0-1.474-.373-1.47-1.26a61.743,61.743,0,0,0,2.178-6.306c1.97-7.757-10.328-12.738-16.138-19.814-4.688-5.709-3.872-17.366-3.382-21.661a22.3,22.3,0,0,0-3.945.157,42.319,42.319,0,0,0,6.357,30.376c5.652,10.6,4.946,24.019-10.6,25.431-8.477-2.826-19.073,0-20.486,9.184V7051.6h9.89v-8.477s.706-9.89,9.183-2.826,19.78,11.3,31.789,4.945,28.257-25.431,19.074-46.624m-41.679,40.266c-1.561,0-2.826-.633-2.826-1.413s1.265-1.412,2.826-1.412,2.825.632,2.825,1.412-1.265,1.413-2.825,1.413m.706-7.064c-1.56,0-2.825-.633-2.825-1.413s1.265-1.413,2.825-1.413,2.826.633,2.826,1.413-1.265,1.413-2.826,1.413m6.358,9.89c-1.561,0-2.826-.633-2.826-1.413s1.265-1.413,2.826-1.413,2.826.633,2.826,1.413-1.265,1.413-2.826,1.413m0-6.358c-1.561,0-2.826-.632-2.826-1.413s1.265-1.413,2.826-1.413,2.826.633,2.826,1.413-1.265,1.413-2.826,1.413m6.358,3.532c-1.561,0-2.826-.633-2.826-1.413s1.265-1.412,2.826-1.412,2.826.632,2.826,1.412-1.265,1.413-2.826,1.413m1.413-4.945c-1.561,0-2.826-.632-2.826-1.413s1.265-1.413,2.826-1.413,2.825.633,2.825,1.413-1.265,1.413-2.825,1.413m-4.255-9.821s4.5-3.616,6.323-4.77a1.625,1.625,0,0,0-.153.681,1.854,1.854,0,0,0,1.928,1.768,2.05,2.05,0,0,0,1.112-.321l-1.161,7.755Zm11.319,14.06c-1.56,0-2.826-.633-2.826-1.413s1.266-1.413,2.826-1.413,2.826.633,2.826,1.413-1.265,1.413-2.826,1.413" transform="translate(-6850.943 -6971.596)" fill="#03566e"/>
</svg>
