<svg xmlns="http://www.w3.org/2000/svg" width="30.814" height="35.776" viewBox="0 0 30.814 35.776"><path d="M875.361,1100.688a4.831,4.831,0,1,0-6.137,4.65v5.142a6.529,6.529,0,1,1-13.057,0v-7.334a10.461,10.461,0,0,0,9.271-10.379v-6.224a1.306,1.306,0,0,0-1.306-1.306H861.3v-.087a1.305,1.305,0,1,0-2.611,0v2.785a1.305,1.305,0,1,0,2.611,0v-.086h1.523v4.917a7.834,7.834,0,1,1-15.668,0v-4.918h1.436v.086a1.306,1.306,0,0,0,2.612,0v-2.785a1.306,1.306,0,1,0-2.612,0v.087h-2.742a1.305,1.305,0,0,0-1.3,1.306v6.224a10.46,10.46,0,0,0,9.009,10.346v7.367a9.139,9.139,0,1,0,18.279,0v-5.142a4.838,4.838,0,0,0,3.526-4.65m-4.831,2.219a2.219,2.219,0,1,1,2.219-2.219,2.222,2.222,0,0,1-2.219,2.219" transform="translate(-844.547 -1083.844)" fill="#bf4b40"/></svg>