<svg xmlns="http://www.w3.org/2000/svg" width="50.71" height="60" viewBox="0 0 50.71 60">
  <g id="Group_1206" data-name="Group 1206" transform="translate(-5977.214 -6801.598)">
    <path id="Path_58707" data-name="Path 58707" d="M6015.5,6815.72a12.348,12.348,0,0,0-7.363,2.434,18.386,18.386,0,0,1-5.438-13.479,3.077,3.077,0,0,0-6.154,0,24.549,24.549,0,0,0,7.7,18.231,12.353,12.353,0,0,0-1.171,5.24,2.073,2.073,0,0,1-2.071,2.072,12.426,12.426,0,0,0,0,24.852,26.953,26.953,0,0,0,26.923-26.924,12.426,12.426,0,0,0-12.426-12.426m.263,27.569a21.554,21.554,0,0,1-2.6,2.163,1.923,1.923,0,1,1-2.216-3.143,17.671,17.671,0,0,0,2.136-1.776,1.923,1.923,0,0,1,2.684,2.756m5.152-8a1.923,1.923,0,0,1-3.619-1.3,17.236,17.236,0,0,0,1.015-5.845,2.814,2.814,0,0,0-2.811-2.811,1.923,1.923,0,0,1,0-3.846,6.664,6.664,0,0,1,6.657,6.657,21.054,21.054,0,0,1-1.242,7.146" fill="#03566e"/>
    <path id="Path_58708" data-name="Path 58708" d="M5986.818,6835.386a3.07,3.07,0,0,0-3.96-1.8,8.61,8.61,0,0,0-5.644,8.125v16.813a3.077,3.077,0,0,0,6.154,0v-16.813a2.481,2.481,0,0,1,1.647-2.362,3.076,3.076,0,0,0,1.8-3.96" fill="#03566e"/>
  </g>
</svg>
