<svg xmlns="http://www.w3.org/2000/svg" width="47.7" height="50" viewBox="0 0 47.7 50">
  <g id="Group_1208" data-name="Group 1208" transform="translate(-5978.719 -7102.989)">
    <path id="Path_58712" data-name="Path 58712" d="M6022.838,7117.984c-2.507-2.983-5.348-6.364-5.348-9.638a6.819,6.819,0,0,1,1.364-3.766,1.029,1.029,0,0,0-.863-1.591h-25.5c-4.7,0-13.393,15.551-13.393,20.536a26.163,26.163,0,0,0,.238,2.943,96.2,96.2,0,0,1,.655,12.235,62.957,62.957,0,0,1-1.25,13.2.9.9,0,0,0,.179.759.876.876,0,0,0,.692.33h3.951a.893.893,0,0,0,.892-.893v-22.321a29.411,29.411,0,0,0-.547-5.207,17.658,17.658,0,0,1-.345-2.829c0-4.524,1.753-7.143,10.714-7.143a3.874,3.874,0,0,0,3.572-1.805,2.534,2.534,0,0,0-.133-.62,2.671,2.671,0,0,1,.3-2.214,2.63,2.63,0,0,1,1.847-1.192,58.023,58.023,0,0,1,7.807-.419c7.517,0,14.285,10.927,14.285,13.393a5.125,5.125,0,0,1-5.357,5.357h-21.428c-2.238,0-5.357,2.377-5.357,6.25,0,.124,0,.256.178.3a.274.274,0,0,0,.326-.134,8.657,8.657,0,0,1,7.531-4.635h11.607c2.651,0,8.929,1.732,8.929,4.464v.208a2.845,2.845,0,0,1-1.43,2.484,2.809,2.809,0,0,1-2.827.017,16.494,16.494,0,0,0-8.243-1.816c-7.377,0-11.607,2.278-11.607,6.25,0,3.309.814,5.8,2.417,7.4a.893.893,0,0,1-.983,1.452,21.359,21.359,0,0,1-4.513-2.752,13.125,13.125,0,0,0-.125,5.715.9.9,0,0,0,.872.681h21.082c2.416,0,8.036-.435,8.036-4.465a6.144,6.144,0,0,0-1.173-3.869,2.7,2.7,0,0,1-.613-1.488c0-.8.647-1.317,1.332-1.868.631-.508,1.347-1.084,1.347-1.7a2.438,2.438,0,0,0-1.3-1.883.895.895,0,0,1,.122-1.643c.535-.181,2.069-.908,2.069-1.831a2.711,2.711,0,0,0-.353-.94,3.894,3.894,0,0,1-.54-1.739v-2.269a2.953,2.953,0,0,1,1.542-2.6,8.4,8.4,0,0,0,2.25-1.684,2.313,2.313,0,0,0,.672-1.478c0-1.279-1.821-3.445-3.581-5.54" fill="#03566e"/>
    <path id="Path_58713" data-name="Path 58713" d="M6008.3,7113.441a.893.893,0,1,0-1.263-1.262c-1.5,1.5-4.7,1.524-4.726,1.524a.893.893,0,1,0,0,1.786c.161,0,3.964-.023,5.988-2.048" fill="#03566e"/>
    <path id="Path_58714" data-name="Path 58714" d="M5997.447,7117.369a.893.893,0,0,0,.118,1.645,28.718,28.718,0,0,0,8.318.939c5.842,0,7.859-3.9,7.942-4.065a.893.893,0,1,0-1.6-.8c-.016.032-1.594,3.078-6.344,3.078a27.8,27.8,0,0,1-7.755-.847.893.893,0,0,0-.681.049" fill="#03566e"/>
    <path id="Path_58715" data-name="Path 58715" d="M5999.914,7120.891a.893.893,0,1,0-.563,1.695,25.426,25.426,0,0,0,7.425.938c7.3,0,9.351-1.837,9.56-2.047a.881.881,0,0,0,.008-1.235.9.9,0,0,0-1.252-.046c-.017.016-1.81,1.543-8.316,1.543a24.222,24.222,0,0,1-6.862-.848" fill="#03566e"/>
  </g>
</svg>
