<svg xmlns="http://www.w3.org/2000/svg" width="512" height="497.306" viewBox="0 0 512 497.306">
  <g id="calendar" transform="translate(0 -7.347)">
    <g id="Group_2815" data-name="Group 2815">
      <path id="Path_3844" data-name="Path 3844" d="M481.082,138.431H14.713A14.713,14.713,0,0,1,0,123.718V72.825a36.042,36.042,0,0,1,36-36H459.793a36.041,36.041,0,0,1,36,36v50.894A14.709,14.709,0,0,1,481.082,138.431ZM29.426,109H466.368V72.825a6.581,6.581,0,0,0-6.574-6.574H36a6.581,6.581,0,0,0-6.574,6.574Z" fill="#2d527c"/>
      <path id="Path_3845" data-name="Path 3845" d="M144.238,282.415H74.93A14.714,14.714,0,0,1,60.217,267.7V205.937A14.713,14.713,0,0,1,74.93,191.224h69.308a14.713,14.713,0,1,1,0,29.426h-54.6v32.338h54.6a14.714,14.714,0,0,1,0,29.427Z" fill="#2d527c"/>
    </g>
    <rect id="Rectangle_564" data-name="Rectangle 564" width="69.314" height="61.765" transform="translate(213.238 205.94)" fill="#cee8fa"/>
    <g id="Group_2816" data-name="Group 2816">
      <path id="Path_3846" data-name="Path 3846" d="M282.552,282.415H213.244A14.714,14.714,0,0,1,198.531,267.7V205.937a14.713,14.713,0,0,1,14.713-14.713h69.308a14.714,14.714,0,0,1,14.713,14.713V267.7A14.714,14.714,0,0,1,282.552,282.415Zm-54.6-29.427h39.882V220.65H227.957v32.338Z" fill="#2d527c"/>
      <path id="Path_3847" data-name="Path 3847" d="M144.238,406.06H74.93a14.714,14.714,0,0,1-14.713-14.713V329.582A14.713,14.713,0,0,1,74.93,314.869h69.308a14.713,14.713,0,0,1,0,29.426h-54.6v32.338h54.6a14.714,14.714,0,0,1,0,29.427Z" fill="#2d527c"/>
    </g>
    <rect id="Rectangle_565" data-name="Rectangle 565" width="69.314" height="61.765" transform="translate(213.238 329.575)" fill="#cee8fa"/>
    <path id="Path_3848" data-name="Path 3848" d="M282.552,406.06H213.244a14.714,14.714,0,0,1-14.713-14.713V329.582a14.713,14.713,0,0,1,14.713-14.713h69.308a14.714,14.714,0,0,1,14.713,14.713v61.765A14.714,14.714,0,0,1,282.552,406.06Zm-54.6-29.427h39.882V344.295H227.957v32.338Z" fill="#2d527c"/>
    <rect id="Rectangle_566" data-name="Rectangle 566" width="69.314" height="61.765" transform="translate(351.557 205.94)" fill="#cee8fa"/>
    <g id="Group_2817" data-name="Group 2817">
      <path id="Path_3849" data-name="Path 3849" d="M420.864,282.415H351.556A14.714,14.714,0,0,1,336.843,267.7V205.937a14.713,14.713,0,0,1,14.713-14.713h69.308a14.714,14.714,0,0,1,14.713,14.713V267.7A14.714,14.714,0,0,1,420.864,282.415Zm-54.6-29.427h39.882V220.65H366.269v32.338Z" fill="#2d527c"/>
      <path id="Path_3850" data-name="Path 3850" d="M99.532,92.878A14.714,14.714,0,0,1,84.819,78.165V22.06a14.713,14.713,0,1,1,29.426,0V78.166A14.712,14.712,0,0,1,99.532,92.878Z" fill="#2d527c"/>
      <path id="Path_3851" data-name="Path 3851" d="M247.9,92.878a14.714,14.714,0,0,1-14.713-14.713V22.06a14.713,14.713,0,0,1,29.426,0V78.166A14.713,14.713,0,0,1,247.9,92.878Z" fill="#2d527c"/>
      <path id="Path_3852" data-name="Path 3852" d="M396.263,92.878A14.714,14.714,0,0,1,381.55,78.165V22.06a14.713,14.713,0,0,1,29.426,0V78.166A14.712,14.712,0,0,1,396.263,92.878Z" fill="#2d527c"/>
      <path id="Path_3853" data-name="Path 3853" d="M389.88,504.653a122.12,122.12,0,1,1,94.512-199.46,14.713,14.713,0,1,1-22.764,18.648,92.7,92.7,0,1,0,20.946,58.694,14.713,14.713,0,0,1,29.426,0A122.258,122.258,0,0,1,389.88,504.653Z" fill="#2d527c"/>
      <path id="Path_3854" data-name="Path 3854" d="M228.475,490.606H36a36.042,36.042,0,0,1-36-36V72.825a36.042,36.042,0,0,1,36-36H459.793a36.041,36.041,0,0,1,36,36v164.7a14.713,14.713,0,0,1-29.426,0V72.825a6.581,6.581,0,0,0-6.574-6.574H36a6.581,6.581,0,0,0-6.574,6.574V454.606A6.581,6.581,0,0,0,36,461.18H228.474a14.713,14.713,0,0,1,0,29.426Z" fill="#2d527c"/>
    </g>
    <path id="Path_3855" data-name="Path 3855" d="M429.606,382.533H389.88V342.808" fill="#fff"/>
    <path id="Path_3856" data-name="Path 3856" d="M429.606,397.247H389.88a14.714,14.714,0,0,1-14.713-14.713V342.808a14.713,14.713,0,0,1,29.426,0V367.82h25.012a14.714,14.714,0,0,1,0,29.427Z" fill="#2d527c"/>
  </g>
</svg>
