<svg xmlns="http://www.w3.org/2000/svg" width="63.58" height="60" viewBox="0 0 63.58 60">
  <g id="Group_1345" data-name="Group 1345" transform="translate(-6816.063 -5351.963)">
    <path id="Path_68338" data-name="Path 68338" d="M6856.825,5353.518a1.1,1.1,0,0,0-1.82-1.18c-3.426,3.97-7.4,10.714-9.3,21.606a15.178,15.178,0,0,1-4.177,7.836,8.77,8.77,0,1,0,13.62,1.206,17.174,17.174,0,0,1-3.007-11.73,60.574,60.574,0,0,1,4.682-17.738" fill="#03566e"/>
    <path id="Path_68339" data-name="Path 68339" d="M6877.451,5381.269h-16.959a14.251,14.251,0,1,1-25.278,0h-16.959a2.193,2.193,0,0,0-2.192,2.193v26.309a2.193,2.193,0,0,0,2.192,2.192h59.2a2.193,2.193,0,0,0,2.192-2.192v-26.309a2.193,2.193,0,0,0-2.192-2.193m-55.907,25.213a1.1,1.1,0,1,1,1.1-1.1,1.1,1.1,0,0,1-1.1,1.1m0-8.77a1.1,1.1,0,1,1,1.1-1.1,1.1,1.1,0,0,1-1.1,1.1m0-8.77a1.1,1.1,0,1,1,1.1-1.1,1.1,1.1,0,0,1-1.1,1.1m3.288,13.155a1.1,1.1,0,1,1,1.1-1.1,1.1,1.1,0,0,1-1.1,1.1m0-8.77a1.1,1.1,0,1,1,1.1-1.1,1.1,1.1,0,0,1-1.1,1.1m3.289,13.155a1.1,1.1,0,1,1,1.1-1.1,1.1,1.1,0,0,1-1.1,1.1m0-8.77a1.1,1.1,0,1,1,1.1-1.1,1.1,1.1,0,0,1-1.1,1.1m0-8.77a1.1,1.1,0,1,1,1.1-1.1,1.1,1.1,0,0,1-1.1,1.1m3.289,13.155a1.1,1.1,0,1,1,1.1-1.1,1.1,1.1,0,0,1-1.1,1.1m3.289,4.385a1.1,1.1,0,1,1,1.1-1.1,1.1,1.1,0,0,1-1.1,1.1m6.577,0a1.1,1.1,0,1,1,1.1-1.1,1.1,1.1,0,0,1-1.1,1.1m6.577,0a1.1,1.1,0,1,1,1.1-1.1,1.1,1.1,0,0,1-1.1,1.1m6.577,0a1.1,1.1,0,1,1,1.1-1.1,1.1,1.1,0,0,1-1.1,1.1m6.578,0a1.1,1.1,0,1,1,1.1-1.1,1.1,1.1,0,0,1-1.1,1.1m3.288-4.385a1.1,1.1,0,1,1,1.1-1.1,1.1,1.1,0,0,1-1.1,1.1m3.289,4.385a1.1,1.1,0,1,1,1.1-1.1,1.1,1.1,0,0,1-1.1,1.1m0-8.77a1.1,1.1,0,1,1,1.1-1.1,1.1,1.1,0,0,1-1.1,1.1m0-8.77a1.1,1.1,0,1,1,1.1-1.1,1.1,1.1,0,0,1-1.1,1.1m3.288,13.155a1.1,1.1,0,1,1,1.1-1.1,1.1,1.1,0,0,1-1.1,1.1m0-8.77a1.1,1.1,0,1,1,1.1-1.1,1.1,1.1,0,0,1-1.1,1.1m3.289,13.155a1.1,1.1,0,1,1,1.1-1.1,1.1,1.1,0,0,1-1.1,1.1m0-8.77a1.1,1.1,0,1,1,1.1-1.1,1.1,1.1,0,0,1-1.1,1.1m0-8.77a1.1,1.1,0,1,1,1.1-1.1,1.1,1.1,0,0,1-1.1,1.1" fill="#03566e"/>
  </g>
</svg>
