<svg xmlns="http://www.w3.org/2000/svg" width="60" height="60" viewBox="0 0 60 60">
  <g id="Group_1344" data-name="Group 1344" transform="translate(-6817.853 -5486.387)">
    <path id="Path_68324" data-name="Path 68324" d="M6838.081,5511.519a9.27,9.27,0,0,0,4.094-.573c2.912-1.048,4.675-2.983,4.3-4.017a1.331,1.331,0,0,0-.837-.732,12.188,12.188,0,0,1-2.806,1.41,11.7,11.7,0,0,1-3.886.723,8.291,8.291,0,0,1-1.011-.061c-.106-.015-.207-.035-.315-.054-1.011.847-1.539,1.771-1.328,2.367.168.464.835.816,1.785.937" fill="#03566e"/>
    <path id="Path_68325" data-name="Path 68325" d="M6846.622,5515.343a11.142,11.142,0,0,1-3.862,2.258,12.458,12.458,0,0,1-2.806.661c-.79,1.017-1.1,1.985-.779,2.517.26.423.981.631,1.942.56a9.271,9.271,0,0,0,3.889-1.382,10.217,10.217,0,0,0,2.354-1.941,4.318,4.318,0,0,1-.738-2.673" fill="#03566e"/>
    <path id="Path_68326" data-name="Path 68326" d="M6838.163,5506.552a9.277,9.277,0,0,0,4.09-.573c2.913-1.047,4.675-2.984,4.3-4.015a1.9,1.9,0,0,0-1.364-.925,8.891,8.891,0,0,1-2.132,1.093,8.61,8.61,0,0,1-2.855.531c-.086,0-.166,0-.251-.009-.058.109-.111.2-.151.269a.655.655,0,0,1-.552.327h-.014a.645.645,0,0,1-.55-.3l-.188-.284c-1.678,1.086-2.353,2.309-2.123,2.952.168.467.834.819,1.786.937" fill="#03566e"/>
    <path id="Path_68327" data-name="Path 68327" d="M6846.48,5511.96a1.46,1.46,0,0,0-.971-.757,12.4,12.4,0,0,1-2.749,1.372,11.733,11.733,0,0,1-3.89.723,7.793,7.793,0,0,1-1-.061c-.067-.008-.126-.024-.189-.032-1.042.855-1.6,1.8-1.381,2.407.169.468.836.817,1.786.937a9.3,9.3,0,0,0,4.093-.574c2.912-1.046,4.675-2.982,4.3-4.015" fill="#03566e"/>
    <path id="Path_68328" data-name="Path 68328" d="M6845.221,5499.352c.483-.512.7-1.023.575-1.364-.158-.439-.9-.722-1.89-.722a6.9,6.9,0,0,0-1.774.253,19.378,19.378,0,0,1-1.5,3.85,7.633,7.633,0,0,0,2-.433,6.847,6.847,0,0,0,2.585-1.584" fill="#03566e"/>
    <path id="Path_68329" data-name="Path 68329" d="M6843.9,5540.57c-.509.005-.71.574-.71.8s1.03.779,1.6,1.061c.125.06,1.024-.388,1.024-.762s-1.4-1.1-1.913-1.1" fill="#03566e"/>
    <path id="Path_68330" data-name="Path 68330" d="M6852.977,5540.565c-.629.09-1.428.869-1.428,1.236s.644.685.819.625c.569-.2,1.936-.856,1.936-1.132s-.7-.819-1.327-.729" fill="#03566e"/>
    <path id="Path_68331" data-name="Path 68331" d="M6852.788,5538.791a3.542,3.542,0,0,0,.791-2.519,1.714,1.714,0,0,0-1.34-1.32c-.6,0-.9.425-1.26.782-.661.652-.816,1.42-1.513,2.024a2.334,2.334,0,0,1-1.578.015c-.577-.146-1.4-1.394-1.912-2.218-.6-.967-1.232-.844-1.962-.3a2.153,2.153,0,0,0-.177,3.232c1.2,1.716,6.727,2.986,8.951.308" fill="#03566e"/>
    <path id="Path_68332" data-name="Path 68332" d="M6857.515,5502.6l-.228.353a.658.658,0,0,1-.553.3h-.017a.655.655,0,0,1-.551-.327c-.044-.074-.1-.175-.164-.293a9.077,9.077,0,0,1-2.19-.5,8.957,8.957,0,0,1-2.131-1.094,1.908,1.908,0,0,0-1.366.925c-.371,1.032,1.393,2.969,4.305,4.015a9.283,9.283,0,0,0,4.09.573c.953-.119,1.618-.471,1.785-.936.25-.683-.521-2.012-2.425-3.14a5.589,5.589,0,0,1-.555.119" fill="#03566e"/>
    <path id="Path_68333" data-name="Path 68333" d="M6854.241,5500.936a8.539,8.539,0,0,0,1.026.291,18.4,18.4,0,0,1-1.464-3.9,6.417,6.417,0,0,0-.834-.063c-.989,0-1.73.284-1.889.722-.12.339.095.852.576,1.362a6.853,6.853,0,0,0,2.585,1.584" fill="#03566e"/>
    <path id="Path_68334" data-name="Path 68334" d="M6870.077,5486.387h-44.448a7.8,7.8,0,0,0-7.776,7.776v44.448a7.8,7.8,0,0,0,7.776,7.776h44.448a7.8,7.8,0,0,0,7.776-7.776v-44.448a7.8,7.8,0,0,0-7.776-7.776M6832.95,5541.3c-.13.022-.241.08-.312.047-.882-.4-1.478.027-2.081.622a.877.877,0,0,1-.873-.074c-.252-.282-.666-.769-.424-1.08,1.489-2.614.876-8.741.7-11.227-.172-2.5-.533-5-.933-7.477a9.87,9.87,0,0,0-1.015-2.847c-.542-1.065-.356-1.536.808-1.707a4.638,4.638,0,0,0,1.2-.559c.349-.168.719-.506,1.041-.467a1.494,1.494,0,0,1,1.068.673,1.183,1.183,0,0,1-.466,1.066c-1.118.591-1.133,1.5-1,2.547.511,4,.955,8.006,1.531,12,.168,1.143.7,6.038,1.083,7.143.2.558.418,1.085-.333,1.345m23.926-3.24c-1.063.594-1.3,2.517-1.542,3.29-.139.463-.372,2.224-1.7,2.224h-9.8c-1.837,0-2.062-1.787-2.187-2.268a7.609,7.609,0,0,0-2.554-3.718c-.462-.294-.773-1.511-1.322-2.116-1.771-1.944-2-3.655-.641-5.859,1.7-2.756,4.763-3.3,7.17-1.223a27.041,27.041,0,0,1,2.379,2.352c1.327,1.464,2.315,1.456,3.65-.022a26.749,26.749,0,0,1,2.378-2.351,4.407,4.407,0,0,1,6.963,1.028,13.629,13.629,0,0,1,1.113,2.7c.6,2.2-2.843,5.371-3.907,5.966m10.813-18.8a9.832,9.832,0,0,0-1.011,2.847c-.4,2.481-.757,4.975-.934,7.478-.176,2.486-.765,8.612.726,11.226.238.311-.176.8-.427,1.081a.88.88,0,0,1-.873.074c-.6-.6-1.2-1.019-2.079-.623-.071.033-.18-.025-.313-.047-.75-.26-.53-.787-.333-1.344a18.543,18.543,0,0,0,1.069-3.341c.581-3.99,1.01-11.8,1.526-15.8.132-1.047.116-1.956-1-2.547a1.2,1.2,0,0,1-.469-1.066,1.5,1.5,0,0,1,1.069-.673c.322-.039.692.3,1.043.467a4.616,4.616,0,0,0,1.2.559c1.163.171,1.346.642.8,1.707m.5-2.862a.882.882,0,0,1-.841.24c-.708-.467-1.374-.765-2.164-.205-.063.043-.181.01-.314.016-.788-.112-.673-.671-.587-1.257a18.478,18.478,0,0,0,.4-3.484c-.209-4.024-.554-8.042-.828-12.063-.074-1.054-.264-1.945-1.472-2.307a1.312,1.312,0,0,1-.633-.706l-1.5,1.693-.665,1.035a2.155,2.155,0,0,1,.173,1.73,2.009,2.009,0,0,1-.145.312c2.08,1.444,3.065,3.271,2.522,4.788a2.727,2.727,0,0,1-1.076,1.338,3.6,3.6,0,0,1,1.156,3.628,2.786,2.786,0,0,1-1.163,1.4,3.136,3.136,0,0,1-2.035,5.7.107.107,0,0,0-.024,0,3.392,3.392,0,0,1,.189,3.411,3.344,3.344,0,0,1-3.043,1.406c-.164,0-.331,0-.5-.019a10.227,10.227,0,0,1-3.715-1.112,2.1,2.1,0,0,1-.636,1.125,1.906,1.906,0,0,1,.356,1.109v.318a1.922,1.922,0,0,1-.691,1.473,1.651,1.651,0,0,1,.182.746v.252a1.672,1.672,0,0,1-.7,1.362.786.786,0,0,1,.078.334v.725a1.389,1.389,0,0,1-1.387,1.389h-1.352a.794.794,0,0,1,0-1.588h1.151v-.525a.109.109,0,0,0,0-.016h-1.489a.793.793,0,0,1,0-1.587h2.019a.09.09,0,0,0,.09-.093v-.251a.092.092,0,0,0-.09-.093h-2.019l-.02,0c-.022,0-.042.007-.065.007a.9.9,0,1,1,0-1.808c.021,0,.04,0,.06.006h2.312a.327.327,0,0,0,.326-.329v-.318a.328.328,0,0,0-.326-.329h-2.56c-.018,0-.036,0-.054,0l-.019,0a.9.9,0,0,1-.868-1.179.339.339,0,0,1,.01-.034c.01-.027.019-.053.03-.079a.744.744,0,0,1,.062-.115l.018-.026a.864.864,0,0,1,.073-.089c.018-.02.036-.039.055-.057l.037-.031a.908.908,0,0,1,.418-.2.863.863,0,0,1,.166-.017l2.8,0a.476.476,0,0,0,.476-.476s0-.232,0-.385a.429.429,0,0,0-.433-.449l-2.935,0c-.01,0-.022,0-.032,0a12.538,12.538,0,0,1-1.05.72,10.9,10.9,0,0,1-4.662,1.631c-.172.014-.337.02-.5.02a3.344,3.344,0,0,1-3.043-1.407,3.4,3.4,0,0,1,.188-3.411.075.075,0,0,0-.021,0c-1.66-.21-2.794-.946-3.2-2.071a3.61,3.61,0,0,1,1.162-3.631,2.763,2.763,0,0,1-1.162-1.4,3.6,3.6,0,0,1,1.155-3.629,2.705,2.705,0,0,1-1.074-1.337c-.545-1.518.44-3.344,2.52-4.788a2.446,2.446,0,0,1-.146-.312,1.923,1.923,0,0,1-.1-.751l-1.291-2.015-1.749-1.968a.233.233,0,0,1,.009.026,1.2,1.2,0,0,1-.668.957c-1.21.362-1.4,1.254-1.472,2.306-.275,4.022-.619,8.039-.828,12.064a18.6,18.6,0,0,0,.4,3.485c.086.587.2,1.142-.588,1.256-.132,0-.25.029-.316-.016-.787-.56-1.451-.262-2.159.205a.888.888,0,0,1-.843-.24c-.193-.327-.506-.887-.207-1.144,1.967-2.275,1.832-4.668,2.142-7.144s.448-5,.538-7.514a9.753,9.753,0,0,0-.441-2.991c-.324-1.151-.05-1.578,1.125-1.518a4.6,4.6,0,0,0,1.287-.315c.378-.1.8-.356,1.115-.253a1.423,1.423,0,0,1,.3.149.83.83,0,0,1-.067-.133,2.931,2.931,0,0,1,.092-2.769,3.262,3.262,0,0,1,2.691-1.11c.224,0,.37.013.37.013.025,0,.055.009.084.015.468.109,4.6,1.117,5.582,3.239a2.787,2.787,0,0,1,.2,1.24,7.826,7.826,0,0,1,1.575-.175,4.579,4.579,0,0,1,1.9.359v-.595a1.787,1.787,0,0,1,1.165-1.675.8.8,0,0,1,.746-.531h1.149v-.524l0-.016h-1.487a.794.794,0,0,1,0-1.589h2.019a.089.089,0,0,0,.091-.09v-.491a.091.091,0,0,0-.091-.09,13.226,13.226,0,0,1-2.625-.052.794.794,0,0,1,.337-1.511h2.559c1.512.114,1.409,1.621,1.409,1.893v.251a1.676,1.676,0,0,1-.7,1.362.761.761,0,0,1,.08.333v.726a1.359,1.359,0,0,1-.147.607,1.785,1.785,0,0,1,.676,1.4v.63a4.453,4.453,0,0,1,1.985-.4c.219,0,.441.011.672.031a2.6,2.6,0,0,1,.205-1.1c.982-2.123,5.113-3.129,5.58-3.24.027-.006.056-.01.085-.014,0,0,.145-.014.371-.014a3.252,3.252,0,0,1,2.687,1.111,2.921,2.921,0,0,1,.106,2.744c.3-.071.712.168,1.075.262a4.58,4.58,0,0,0,1.285.314c1.175-.059,1.448.367,1.122,1.518a9.96,9.96,0,0,0-.439,2.991c.088,2.509.222,5.025.539,7.514.305,2.473.165,4.868,2.137,7.142.3.258-.018.817-.209,1.144" fill="#03566e"/>
    <path id="Path_68335" data-name="Path 68335" d="M6859.252,5508.215c-.108.019-.21.039-.319.054a8.035,8.035,0,0,1-1.009.061,11.729,11.729,0,0,1-3.888-.723,12.328,12.328,0,0,1-2.8-1.409,1.346,1.346,0,0,0-.84.731c-.367,1.033,1.393,2.969,4.309,4.016a9.271,9.271,0,0,0,4.09.574c.95-.121,1.619-.473,1.786-.938.214-.6-.312-1.519-1.325-2.366" fill="#03566e"/>
    <path id="Path_68336" data-name="Path 68336" d="M6854.119,5517.6a11.183,11.183,0,0,1-3.866-2.258,4.292,4.292,0,0,1-.738,2.673,10.368,10.368,0,0,0,2.356,1.941,9.277,9.277,0,0,0,3.892,1.382c.957.071,1.678-.137,1.938-.56.321-.531.014-1.5-.778-2.517a12.406,12.406,0,0,1-2.8-.661" fill="#03566e"/>
    <path id="Path_68337" data-name="Path 68337" d="M6859.2,5513.2c-.064.008-.123.024-.188.032a8.013,8.013,0,0,1-1.006.06,11.749,11.749,0,0,1-3.887-.722,12.3,12.3,0,0,1-2.747-1.372,1.476,1.476,0,0,0-.977.757c-.368,1.033,1.394,2.969,4.308,4.014a9.267,9.267,0,0,0,4.09.574c.952-.119,1.62-.469,1.785-.936.22-.61-.337-1.553-1.378-2.407" fill="#03566e"/>
  </g>
</svg>
