<svg xmlns="http://www.w3.org/2000/svg" width="31.995" height="32" viewBox="0 0 31.995 32"><g transform="translate(-1562.64 -2133.184)"><path d="M1594.635,2148.433a1.779,1.779,0,0,1-.394.658,1.249,1.249,0,0,1-2.1-.814,3.3,3.3,0,0,1-.007-.344q0-3.561,0-7.123a2.486,2.486,0,0,0-1.893-2.541,9.894,9.894,0,0,0-2.116-.085c-.163-.006-.112.118-.113.2,0,.343.005.687,0,1.031a1.248,1.248,0,1,1-2.5,0c-.008-.323-.012-.646,0-.969.008-.191-.03-.264-.247-.263q-2.594.015-5.186,0c-.232,0-.273.073-.262.28.017.322.011.646,0,.968a1.248,1.248,0,1,1-2.495,0c-.009-.343-.007-.687,0-1.031,0-.146-.013-.219-.2-.218q-2.623.012-5.248,0c-.158,0-.189.055-.185.2q.014.516,0,1.031a1.248,1.248,0,1,1-2.5.007c-.008-.354,0-.708,0-1.062,0-.08.024-.175-.113-.17a9.572,9.572,0,0,0-2.054.086,2.486,2.486,0,0,0-1.892,2.415c-.009.27,0,.541,0,.812q0,9.262,0,18.526a2.5,2.5,0,0,0,1.862,2.566,2.956,2.956,0,0,0,.834.094q3.921,0,7.841,0a1.328,1.328,0,0,1,1.068.414,1.189,1.189,0,0,1,.245,1.279,1.216,1.216,0,0,1-1.03.8,1.694,1.694,0,0,1-.249.01c-2.676,0-5.353.009-8.029,0a4.986,4.986,0,0,1-4.937-4,5.131,5.131,0,0,1-.106-1.085q0-9.654,0-19.307a5,5,0,0,1,4.042-5,9.869,9.869,0,0,1,2.18-.086c.3.006.37-.09.341-.36-.02-.2.009-.4-.006-.593a1.377,1.377,0,0,1,1-1.556h.5a1.217,1.217,0,0,1,1.091,1.317c.007.239,0,.478,0,.717.007.342.032.371.38.371q1.995,0,3.99,0c.249,0,.5-.007.748,0,.223.007.323-.085.319-.312-.005-.28-.007-.561,0-.841a1.393,1.393,0,0,1,.462-1.021,1.215,1.215,0,0,1,.628-.234h.5a1.217,1.217,0,0,1,1.091,1.317c.006.239,0,.478,0,.717.006.341.033.371.38.371q1.885,0,3.771,0c.343,0,.686-.006,1.029,0,.223,0,.324-.085.319-.312-.005-.259-.006-.519,0-.779a1.217,1.217,0,0,1,1.091-1.317h.5a1.218,1.218,0,0,1,1.083,1.293c.008.281.006.562,0,.843,0,.2.083.281.28.279.437,0,.874,0,1.31,0a5.139,5.139,0,0,1,4.771,3.487,8.162,8.162,0,0,1,.178,1.035Z" fill="#f4c34a"/><path d="M1571.7,2146.319a1.248,1.248,0,1,1-1.236-1.259A1.255,1.255,0,0,1,1571.7,2146.319Z" fill="#f4c34a"/><path d="M1575.9,2147.556a1.248,1.248,0,1,1,1.237-1.26A1.255,1.255,0,0,1,1575.9,2147.556Z" fill="#f4c34a"/><path d="M1582.573,2146.315a1.248,1.248,0,1,1-1.24-1.255A1.255,1.255,0,0,1,1582.573,2146.315Z" fill="#f4c34a"/><path d="M1571.7,2151.743a1.248,1.248,0,1,1-1.249-1.246A1.255,1.255,0,0,1,1571.7,2151.743Z" fill="#f4c34a"/><path d="M1575.887,2152.993a1.248,1.248,0,1,1,1.25-1.246A1.255,1.255,0,0,1,1575.887,2152.993Z" fill="#f4c34a"/><path d="M1570.439,2155.934a1.248,1.248,0,1,1-1.235,1.261A1.255,1.255,0,0,1,1570.439,2155.934Z" fill="#f4c34a"/><path d="M1575.891,2155.934a1.248,1.248,0,1,1-1.25,1.245A1.255,1.255,0,0,1,1575.891,2155.934Z" fill="#f4c34a"/><path d="M1593.733,2158.966a1.4,1.4,0,0,1-.882-1.2c-.031-.362-.017-.728-.023-1.092a9.721,9.721,0,0,0-.114-2.052,5.569,5.569,0,0,0-3.984-4.3c-.174-.055-.234-.121-.222-.3a5.322,5.322,0,0,0,0-.656,1.244,1.244,0,0,0-2.453-.227,2.68,2.68,0,0,0-.035.808c.01.224-.055.312-.284.373a5.63,5.63,0,0,0-4.044,4.639,18.008,18.008,0,0,0-.05,2.434,1.635,1.635,0,0,1-1.047,1.647,1.171,1.171,0,0,0-.758,1.149,3.6,3.6,0,0,0,3.571,3.742c.792-.006,1.583,0,2.375,0,.156,0,.222.02.255.2a1.241,1.241,0,0,0,2.453-.01c.031-.166.087-.193.233-.192.739.006,1.479,0,2.218,0a3.477,3.477,0,0,0,3.571-2.825c.026-.1.012-.229.124-.3v-.812A1.489,1.489,0,0,0,1593.733,2158.966Zm-1.924,2.142a.98.98,0,0,1-.809.324q-1.889,0-3.778,0c-1.249,0-2.5,0-3.747,0a.985.985,0,0,1-.891-.412c-.081-.118-.1-.2.039-.308a4,4,0,0,0,1.512-3.4c-.012-.582-.011-1.166.005-1.748a3.146,3.146,0,0,1,2.464-2.892,3.1,3.1,0,0,1,3.308,1.519,3.319,3.319,0,0,1,.419,1.639c0,.707-.034,1.416.024,2.122a3.76,3.76,0,0,0,1.426,2.706C1591.993,2160.833,1591.951,2160.942,1591.809,2161.108Z" fill="#f4c34a"/></g></svg>