<svg xmlns="http://www.w3.org/2000/svg" width="74.215" height="85.632" viewBox="0 0 74.215 85.632">
  <g id="Group_1253" data-name="Group 1253" transform="translate(-6850.152 -6575.699)">
    <path id="Path_63492" data-name="Path 63492" d="M6863,6642.777a7.136,7.136,0,0,0,7.136-7.136v-11.417h-14.272v11.417a7.136,7.136,0,0,0,7.136,7.136" fill="#2a9d8f"/>
    <path id="Path_63493" data-name="Path 63493" d="M6911.522,6642.777a7.136,7.136,0,0,0,7.136-7.136v-11.417h-14.272v11.417a7.136,7.136,0,0,0,7.136,7.136" fill="#2a9d8f"/>
    <path id="Path_63494" data-name="Path 63494" d="M6904.386,6612.806h-52.807a1.427,1.427,0,0,0-1.427,1.427v5.709a1.427,1.427,0,0,0,1.427,1.427h71.361a1.427,1.427,0,0,0,1.427-1.427v-5.709a1.427,1.427,0,0,0-1.427-1.427Z" fill="#2a9d8f"/>
    <path id="Path_63495" data-name="Path 63495" d="M6914.376,6649.913h-21.408v-25.689H6881.55v25.689h-21.407a10.015,10.015,0,0,0-9.991,9.991,1.427,1.427,0,0,0,1.427,1.427h71.361a1.427,1.427,0,0,0,1.427-1.427,10,10,0,0,0-9.991-9.991" fill="#2a9d8f"/>
    <path id="Path_63496" data-name="Path 63496" d="M6892.968,6609.952v-32.826a1.427,1.427,0,0,0-1.427-1.427h-8.563a1.427,1.427,0,0,0-1.427,1.427v32.826Z" fill="#2a9d8f"/>
    <path id="Path_63497" data-name="Path 63497" d="M6902.959,6595.68h1.427v14.272h14.272V6595.68h1.427a1.428,1.428,0,0,0,1.427-1.428v-5.709a1.427,1.427,0,0,0-1.427-1.427h-17.126a1.426,1.426,0,0,0-1.427,1.427v5.709a1.427,1.427,0,0,0,1.427,1.428m4.281,0h8.564v5.708h-8.564Z" fill="#2a9d8f"/>
    <path id="Path_63498" data-name="Path 63498" d="M6854.434,6595.68h1.427v14.272h14.272V6595.68h1.427a1.427,1.427,0,0,0,1.427-1.428v-5.709a1.427,1.427,0,0,0-1.427-1.427h-17.126a1.427,1.427,0,0,0-1.427,1.427v5.709a1.428,1.428,0,0,0,1.427,1.428m4.281,0h8.564v5.708h-8.564Z" fill="#2a9d8f"/>
  </g>
</svg>
