<svg xmlns="http://www.w3.org/2000/svg" width="43.478" height="50" viewBox="0 0 43.478 50">
  <path id="Path_58695" data-name="Path 58695" d="M6024.145,6511.232a11.789,11.789,0,0,0-19.007-7.22,4.056,4.056,0,0,1-5.137,0,11.793,11.793,0,0,0-17.049,15.95,11.957,11.957,0,0,1,1.7,10.457c-.036.117-.072.234-.108.351-2.891,9.588-.649,18.743,5.007,20.448l.055.017a4.4,4.4,0,0,0,5.648-4.216v-4.9a7.167,7.167,0,0,1,6.281-7.231,6.966,6.966,0,0,1,7.649,6.932v4.951a4.545,4.545,0,0,0,3.6,4.5,6.4,6.4,0,0,0,3.084-.134c5.5-1.658,7.626-10.731,4.751-20.265-.045-.15-.091-.3-.138-.448a11.283,11.283,0,0,1,1.492-10.166,11.773,11.773,0,0,0,2.17-9.021M5991.78,6525.1a2.083,2.083,0,1,1,2.083-2.082,2.082,2.082,0,0,1-2.083,2.082m4.84-15.531a1.74,1.74,0,0,1-2.312.846,3.1,3.1,0,0,0-3.305,5.169,1.742,1.742,0,0,1-2.254,2.656,6.579,6.579,0,0,1,7.024-10.984,1.742,1.742,0,0,1,.847,2.313" transform="translate(-5980.831 -6501.419)" fill="#03566e"/>
</svg>
