<svg xmlns="http://www.w3.org/2000/svg" width="370.305" height="512" viewBox="0 0 370.305 512">
  <g id="medical-result_1_" data-name="medical-result (1)" transform="translate(-70.848)">
    <g id="Group_2887" data-name="Group 2887">
      <path id="Path_4197" data-name="Path 4197" d="M354.789,439.231H157.212a13.564,13.564,0,0,1,0-27.128H354.788a13.564,13.564,0,0,1,0,27.128Z" fill="#2d527c"/>
      <path id="Path_4198" data-name="Path 4198" d="M355.7,512H156.3a85.551,85.551,0,0,1-85.454-85.454V158.274A13.564,13.564,0,0,1,84.412,144.71H427.586a13.564,13.564,0,0,1,13.564,13.564V426.546A85.549,85.549,0,0,1,355.7,512ZM97.977,171.838V426.546A58.393,58.393,0,0,0,156.3,484.872H355.7a58.393,58.393,0,0,0,58.326-58.326V171.838Z" fill="#2d527c"/>
    </g>
    <path id="Path_4200" data-name="Path 4200" d="M427.587,174.09H84.413a13.564,13.564,0,0,1-13.564-13.564V145.364A85.551,85.551,0,0,1,156.3,59.91H355.7a85.551,85.551,0,0,1,85.454,85.454v15.162A13.565,13.565,0,0,1,427.587,174.09ZM97.977,146.962H414.023v-1.6A58.393,58.393,0,0,0,355.7,87.038H156.3a58.393,58.393,0,0,0-58.326,58.326S97.976,146.962,97.977,146.962Z" fill="#2d527c"/>
    <g id="Group_2888" data-name="Group 2888">
      <path id="Path_4202" data-name="Path 4202" d="M313.648,119.816H198.35A27.386,27.386,0,0,1,171,92.461V60.812A27.386,27.386,0,0,1,198.35,33.457h12.62a47.03,47.03,0,0,1,90.058,0h12.62A27.386,27.386,0,0,1,341,60.814V92.463A27.384,27.384,0,0,1,313.648,119.816ZM198.35,60.587a.227.227,0,0,0-.227.227V92.463a.227.227,0,0,0,.227.227h115.3a.227.227,0,0,0,.227-.227V60.813a.227.227,0,0,0-.227-.227h-24.19a13.564,13.564,0,0,1-13.564-13.564,19.894,19.894,0,0,0-39.788,0,13.564,13.564,0,0,1-13.564,13.564H198.35Z" fill="#2d527c"/>
      <path id="Path_4203" data-name="Path 4203" d="M256,332.527a13.564,13.564,0,0,1-13.564-13.564v-52.9a13.564,13.564,0,1,1,27.128,0v52.9A13.563,13.563,0,0,1,256,332.527Z" fill="#2d527c"/>
      <path id="Path_4204" data-name="Path 4204" d="M282.45,306.077h-52.9a13.564,13.564,0,1,1,0-27.128h52.9a13.564,13.564,0,1,1,0,27.128Z" fill="#2d527c"/>
      <path id="Path_4205" data-name="Path 4205" d="M256,386.331a93.819,93.819,0,1,1,36.889-180.1,13.564,13.564,0,0,1-10.675,24.939A66.585,66.585,0,1,0,320.1,274.019a13.564,13.564,0,1,1,26.07-7.5A93.888,93.888,0,0,1,256,386.331Z" fill="#2d527c"/>
    </g>
  </g>
</svg>
