<svg xmlns="http://www.w3.org/2000/svg" width="56.889" height="50.148" viewBox="0 0 56.889 50.148"><g transform="translate(-4358.722 -1808.791)"><path d="M4358.722,1825.441c5.369,0,10.738.006,16.107-.012.454,0,.585.094.572.563-.036,1.385-.031,2.772,0,4.157a2.146,2.146,0,0,1-.7,1.674c-.784.759-1.539,1.548-2.324,2.305a.966.966,0,0,0-.324.769c.012,2.863.009,5.727.007,8.591a1.709,1.709,0,0,1-1.91,1.915c-.458,0-1.061-.146-1.335.085s-.092.867-.082,1.321a31.467,31.467,0,0,0,.1,4.481,4.983,4.983,0,0,0,9.884-.744c.038-3.751.023-7.5,0-11.253,0-.478.134-.556.579-.555q18.16.019,36.323.01v5.434a1.692,1.692,0,0,1-1.913,1.382c-3.5.008-7,0-10.5,0-.861,0-.866.008-.867.863,0,.517.013,1.035,0,1.552-.014.433.179.587.6.584q2.028-.012,4.055,0a1.854,1.854,0,0,1,1.7.859,1.807,1.807,0,0,1-1.366,2.779,3.348,3.348,0,0,1-.388.016h-19.608a1.913,1.913,0,0,1-1.769-.839,1.8,1.8,0,0,1,1.546-2.808c1.277-.042,2.555-.009,3.832-.011,1.07,0,1.07,0,1.07-1.053,0-.443-.017-.887,0-1.33s-.169-.621-.62-.618c-1.722.012-3.444.005-5.166.005-1.11,0-2.221-.006-3.332,0-.6,0-.661.062-.664.675-.006,1.386.027,2.773-.007,4.158a8.2,8.2,0,0,1-4.85,7.624,7.98,7.98,0,0,1-8.793-.922,8.148,8.148,0,0,1-3.349-6.753c0-1.293,0-2.587,0-3.88,0-.9,0-.9-.879-.905-.148,0-.3,0-.444,0a1.877,1.877,0,0,1-2.006-2.025c-.014-2.531-.052-5.064.019-7.594a2.7,2.7,0,0,0-1.022-2.411c-.473-.381-.861-.865-1.307-1.281a2.568,2.568,0,0,1-.862-1.38Z" fill="#5e9b8d"/><path d="M4358.947,1822.1a8.273,8.273,0,0,1,16.216,0Z" fill="#5e9b8d"/><path d="M4413.388,1808.791q-16.325.038-32.649.016c-1.408,0-2.017.612-2.017,2.026q0,11.97-.013,23.941c0,.515.091.663.643.662q18.129-.029,36.259-.015v-25.4A2.128,2.128,0,0,0,4413.388,1808.791Zm-5.673,18.969a15.1,15.1,0,0,1-21.159.044,1.679,1.679,0,0,1-.222-2.5q3.524-4.631,7.057-9.253a1.784,1.784,0,0,1,1.885-.744,10.844,10.844,0,0,0,3.812-.005,1.708,1.708,0,0,1,1.8.687q3.531,4.694,7.054,9.394A1.656,1.656,0,0,1,4407.715,1827.76Z" fill="#5e9b8d"/><path d="M4397.086,1828.691a11.912,11.912,0,0,1-6.9-2.146c-.333-.232-.372-.371-.11-.708q2.621-3.365,5.191-6.768a.739.739,0,0,1,.785-.334,9.472,9.472,0,0,0,2.325-.007.565.565,0,0,1,.6.25q2.6,3.484,5.222,6.95c.194.255.172.365-.085.55A11.792,11.792,0,0,1,4397.086,1828.691Z" fill="#5e9b8d"/></g></svg>