<svg xmlns="http://www.w3.org/2000/svg" width="45.747" height="50.387" viewBox="0 0 45.747 50.387"><path d="M4408.341,1929.166c-5.784-13.348-13.348-8.454-15.128-8.009s-5.784,3.56-6.674-.89c0,0-1.334-5.784,0-7.564a23.486,23.486,0,0,0-2.919-.461c-.574,7.754,1.249,12.258,3.308,14.013,3.664,3.124,4.886,4.017,7.328,6.247s2.022,5.786,1.608,7.562c-.269,1.152-.968,2.986-1.665,2.983-.513,0-.928-.234-.926-.793a39.206,39.206,0,0,0,1.372-3.972c1.241-4.885-6.5-8.023-10.165-12.48-2.952-3.595-2.438-10.937-2.13-13.642a14.151,14.151,0,0,0-2.484.1,26.65,26.65,0,0,0,4,19.132c3.559,6.675,3.114,15.128-6.674,16.018-5.339-1.78-12.013,0-12.9,5.784v9.344h6.229v-5.34s.445-6.229,5.784-1.779,12.458,7.119,20.022,3.114,17.8-16.017,12.013-29.365m-26.251,25.361c-.983,0-1.779-.4-1.779-.89s.8-.89,1.779-.89,1.78.4,1.78.89-.8.89-1.78.89m.445-4.449c-.983,0-1.78-.4-1.78-.89s.8-.89,1.78-.89,1.78.4,1.78.89-.8.89-1.78.89m4,6.229c-.982,0-1.779-.4-1.779-.89s.8-.89,1.779-.89,1.78.4,1.78.89-.8.89-1.78.89m0-4.005c-.982,0-1.779-.4-1.779-.89s.8-.889,1.779-.889,1.78.4,1.78.889-.8.89-1.78.89m4,2.225c-.983,0-1.78-.4-1.78-.89s.8-.89,1.78-.89,1.78.4,1.78.89-.8.89-1.78.89m.89-3.115c-.983,0-1.78-.4-1.78-.889s.8-.89,1.78-.89,1.779.4,1.779.89-.8.889-1.779.889m-2.68-6.185s2.831-2.278,3.983-3.005a1.021,1.021,0,0,0-.1.43,1.168,1.168,0,0,0,1.214,1.113,1.3,1.3,0,0,0,.7-.2l-.731,4.884Zm7.129,8.855c-.983,0-1.78-.4-1.78-.89s.8-.89,1.78-.89,1.78.4,1.78.89-.8.89-1.78.89" transform="translate(-4364.293 -1912.149)" fill="#31576d"/></svg>