<svg xmlns="http://www.w3.org/2000/svg" width="43.451" height="43.451" viewBox="0 0 43.451 43.451"><g transform="translate(-47.691 -806.079)"><circle cx="21.725" cy="21.725" r="21.725" transform="translate(47.691 806.079)" fill="#cb4040" opacity="0.3"/><path d="M79.7,837.757l-2.734-5.031a1.729,1.729,0,0,0-2.346-.693l-2.024,1.1a.916.916,0,0,1-.994-.072,14.019,14.019,0,0,1-4.724-8.691.919.919,0,0,1,.48-.874l2.024-1.1a1.73,1.73,0,0,0,.694-2.346l-2.734-5.031A1.731,1.731,0,0,0,65,814.324l-3.185,1.731a3.831,3.831,0,0,0-1.973,3.857A35.129,35.129,0,0,0,63.377,831.9a35.118,35.118,0,0,0,8.139,9.489,3.83,3.83,0,0,0,4.309.442L79.01,840.1A1.729,1.729,0,0,0,79.7,837.757Z" fill="#cb4040"/></g></svg>