<svg xmlns="http://www.w3.org/2000/svg" width="51.68" height="60" viewBox="0 0 51.68 60">
  <path id="Path_58706" data-name="Path 58706" d="M6028.409,6734.943a8.1,8.1,0,1,0-10.293,7.8v8.625a10.949,10.949,0,0,1-21.9,0v-12.3a17.542,17.542,0,0,0,15.548-17.406V6711.22a2.19,2.19,0,0,0-2.19-2.189h-4.745v-.146a2.189,2.189,0,1,0-4.379,0v4.671a2.189,2.189,0,1,0,4.379,0v-.146h2.555v8.248a13.139,13.139,0,0,1-26.277,0v-8.249h2.409v.146a2.189,2.189,0,1,0,4.379,0v-4.671a2.189,2.189,0,1,0-4.379,0v.146h-4.6a2.19,2.19,0,0,0-2.19,2.189v10.439a17.543,17.543,0,0,0,15.109,17.351v12.357a15.329,15.329,0,0,0,30.657,0v-8.625a8.117,8.117,0,0,0,5.914-7.8m-8.1,3.723a3.722,3.722,0,1,1,3.722-3.723,3.728,3.728,0,0,1-3.722,3.723" transform="translate(-5976.729 -6706.695)" fill="#03566e"/>
</svg>
