<svg xmlns="http://www.w3.org/2000/svg" width="60.009" height="60" viewBox="0 0 60.009 60">
  <g id="Group_1313" data-name="Group 1313" transform="translate(-6820.661 -4959.639)">
    <rect id="Rectangle_1453" data-name="Rectangle 1453" width="5.246" height="2.321" transform="translate(6869.71 4968.943) rotate(-45)" fill="#03566e"/>
    <rect id="Rectangle_1454" data-name="Rectangle 1454" width="5.246" height="2.32" transform="translate(6866.607 4965.838) rotate(-45)" fill="#03566e"/>
    <rect id="Rectangle_1455" data-name="Rectangle 1455" width="5.246" height="2.321" transform="translate(6872.814 4972.048) rotate(-45)" fill="#03566e"/>
    <g id="Group_1312" data-name="Group 1312">
      <path id="Path_68310" data-name="Path 68310" d="M6856.871,4995.685l-6.962,10.832a8.246,8.246,0,0,0-1.315,4.476v.368a8.277,8.277,0,1,0,16.555,0v-.368a8.253,8.253,0,0,0-1.315-4.476Zm0,21.885v-2.07a4.143,4.143,0,0,0,4.139-4.139h2.07a6.215,6.215,0,0,1-6.209,6.209" fill="#03566e"/>
      <path id="Path_68311" data-name="Path 68311" d="M6865.149,4964.37l3.71-3.71-.606-.606a1.5,1.5,0,0,0-2.069,0l-1.641,1.641a1.465,1.465,0,0,0,0,2.069Z" fill="#03566e"/>
      <path id="Path_68312" data-name="Path 68312" d="M6832.038,5004.725l24.4-24.405a1.465,1.465,0,0,0,0-2.07l-4.745-4.745-1.641,1.641,3.407,3.407-1.463,1.463-3.408-3.407-1.641,1.641,2.373,2.373-1.463,1.463-2.373-2.373-1.641,1.641,3.408,3.408-1.463,1.463-3.408-3.408-1.641,1.641,2.373,2.373-1.463,1.463-2.373-2.372-1.641,1.641,3.407,3.407-1.463,1.463-3.407-3.407-1.641,1.641,2.372,2.373-1.463,1.463-2.373-2.373-1.64,1.641,3.407,3.407-1.463,1.464-3.408-3.408-1.641,1.641,2.373,2.373-1.463,1.463-2.373-2.373-1.641,1.641,4.745,4.746a1.5,1.5,0,0,0,2.07,0" fill="#03566e"/>
      <path id="Path_68313" data-name="Path 68313" d="M6858.847,4967.379l14.068,14.069,1.418-4.966-10.52-10.521Z" fill="#03566e"/>
      <path id="Path_68314" data-name="Path 68314" d="M6853.161,4972.042l4.745,4.745a3.533,3.533,0,0,1,0,5l-24.4,24.4a3.534,3.534,0,0,1-5,0l-4.745-4.746-3.1,3.1a15.543,15.543,0,0,0,15.092,15.092l11.087-11.086a10.264,10.264,0,0,1,1.328-3.151l8.7-13.539,2.606,4.053,12.487-12.486-15.093-15.093Zm-18.223,45.48-.5-.065a13.352,13.352,0,0,1-7.223-3.321l1.38-1.541a11.326,11.326,0,0,0,5.615,2.736l5.735-5.735,1.463,1.463Zm7.5-7.5-1.463-1.463,2.069-2.069,1.463,1.463Zm24.4-27.331,1.463,1.463-1.39,1.39-1.463-1.463Zm-2.854,2.853,1.463,1.463-1.463,1.463-1.463-1.463Zm-2.926,2.927,1.463,1.463-1.463,1.464-1.463-1.464Z" fill="#03566e"/>
    </g>
    <path id="Path_68315" data-name="Path 68315" d="M6880.242,4972.042l-.607-.607-3.71,3.711.606.606a1.5,1.5,0,0,0,2.07,0l1.641-1.641a1.465,1.465,0,0,0,0-2.069" fill="#03566e"/>
  </g>
</svg>
