<svg xmlns="http://www.w3.org/2000/svg" width="107.984" height="115.183" viewBox="0 0 107.984 115.183"><g transform="translate(-1)"><path d="M98.186,14.4h-3.6V10.8a10.8,10.8,0,1,0-21.6,0v3.6h-7.2V10.8a10.8,10.8,0,1,0-21.6,0v3.6h-7.2V10.8a10.8,10.8,0,1,0-21.6,0v3.6H11.8A10.8,10.8,0,0,0,1,25.2v79.188a10.8,10.8,0,0,0,10.8,10.8H98.186a10.8,10.8,0,0,0,10.8-10.8V25.2a10.8,10.8,0,0,0-10.8-10.8Zm-18-3.6a3.6,3.6,0,1,1,7.2,0v3.6h-7.2Zm-28.8,0a3.6,3.6,0,0,1,7.2,0v3.6h-7.2Zm-28.8,0a3.6,3.6,0,0,1,7.2,0v3.6H22.6ZM8.2,25.2a3.6,3.6,0,0,1,3.6-3.6h3.6v3.6a3.6,3.6,0,1,0,7.2,0V21.6h21.6v3.6a3.6,3.6,0,1,0,7.2,0V21.6h21.6v3.6a3.6,3.6,0,1,0,7.2,0V21.6h18a3.6,3.6,0,0,1,3.6,3.6v10.8H8.2Zm93.586,79.188a3.6,3.6,0,0,1-3.6,3.6H11.8a3.6,3.6,0,0,1-3.6-3.6V43.194h93.586Z" fill="#fff"/><path d="M41.4,64.393H27a3.6,3.6,0,0,1-3.6-3.6v-10.8H12.6A3.6,3.6,0,0,1,9,46.4V32a3.6,3.6,0,0,1,3.6-3.6H23.4V17.6A3.6,3.6,0,0,1,27,14H41.4a3.6,3.6,0,0,1,3.6,3.6V28.4h10.8a3.6,3.6,0,0,1,3.6,3.6V46.4a3.6,3.6,0,0,1-3.6,3.6h-10.8v10.8A3.6,3.6,0,0,1,41.4,64.393Zm-10.8-7.2h7.2V46.4a3.6,3.6,0,0,1,3.6-3.6h10.8V35.6H41.4A3.6,3.6,0,0,1,37.8,32V21.2H30.6V32A3.6,3.6,0,0,1,27,35.6H16.2v7.2H27a3.6,3.6,0,0,1,3.6,3.6Z" transform="translate(20.796 36.393)" fill="#fff"/></g></svg>