<svg xmlns="http://www.w3.org/2000/svg" width="107.185" height="55.379" viewBox="0 0 107.185 55.379">
  <g id="Group_1255" data-name="Group 1255" transform="translate(-6833.667 -6408.118)">
    <rect id="Rectangle_1431" data-name="Rectangle 1431" width="16.078" height="3.573" transform="translate(6876.541 6447.419)" fill="#f4a261"/>
    <path id="Path_63506" data-name="Path 63506" d="M6873.966,6454.379a1.783,1.783,0,0,1-1-1.6v-7.145a1.787,1.787,0,0,1,1.786-1.787h2.748a7.126,7.126,0,0,1,.479-7.869c-1.455-8.943-7.229-15.354-13.945-15.354-7.88,0-14.291,8.815-14.291,19.65s6.411,19.651,14.291,19.651c3.756,0,7.274-1.991,9.93-5.545M6862.25,6424.2a1.787,1.787,0,1,1-1.787,1.786,1.786,1.786,0,0,1,1.787-1.786m1.786,25.009c-3.94,0-7.145-4.006-7.145-8.932s3.205-8.932,7.145-8.932,7.146,4.007,7.146,8.932-3.206,8.932-7.146,8.932" fill="#f4a261"/>
    <path id="Path_63507" data-name="Path 63507" d="M6892.619,6440.274h-1.787a7.107,7.107,0,0,1-.961,3.572h2.748Z" fill="#f4a261"/>
    <path id="Path_63508" data-name="Path 63508" d="M6883.687,6436.7a3.573,3.573,0,1,1-3.573,3.572,3.571,3.571,0,0,1,3.573-3.572" fill="#f4a261"/>
    <path id="Path_63509" data-name="Path 63509" d="M6899.764,6419.149v.369a2.919,2.919,0,0,0,.3,1.293,2.876,2.876,0,0,0,2.586,1.6.682.682,0,0,0,.682-.682v-6.451a3.892,3.892,0,0,0-3.573,3.873" fill="#f4a261"/>
    <path id="Path_63510" data-name="Path 63510" d="M6864.036,6434.914c1.973,0,3.573,2.4,3.573,5.36s-1.6,5.359-3.573,5.359-3.573-2.4-3.573-5.359,1.6-5.36,3.573-5.36" fill="#f4a261"/>
    <path id="Path_63511" data-name="Path 63511" d="M6896.191,6440.274v10.718h16.078v-8.932a1.788,1.788,0,0,0-1.786-1.786Z" fill="#f4a261"/>
    <path id="Path_63512" data-name="Path 63512" d="M6906.91,6415.276v6.451a.682.682,0,0,0,.682.682,2.892,2.892,0,0,0,2.891-2.89v-.37a3.893,3.893,0,0,0-3.573-3.873" fill="#f4a261"/>
    <path id="Path_63513" data-name="Path 63513" d="M6939.065,6459.924h-35.151l2.144-5.359h-3.3l-1.072,2.679-1.072,2.68h-3.848l2.144-5.359h-3.3l-2.143,5.359h-38.992a19.86,19.86,0,0,1-3.242-3.42,28.534,28.534,0,0,1,0-32.46,19.862,19.862,0,0,1,3.241-3.421h-2.948c-7.88,0-14.291,8.815-14.291,19.651s6.411,19.65,14.291,19.65h-16.078a1.787,1.787,0,0,0,0,3.573h103.612a1.787,1.787,0,1,0,0-3.573" fill="#f4a261"/>
    <path id="Path_63514" data-name="Path 63514" d="M6922.988,6429.555a1.787,1.787,0,0,1,1.786,1.786v14.292a1.788,1.788,0,0,1-1.786,1.786h-7.146v3.573h7.146a5.366,5.366,0,0,0,5.359-5.359V6424.2a5.366,5.366,0,0,0-5.359-5.36h-5.36v-10.718h-25.009v21.437Zm0-7.146a1.789,1.789,0,0,1,1.786,1.787v2.093a5.352,5.352,0,0,0-1.786-.307h-5.36v-3.573Zm-8.932-2.89a6.5,6.5,0,0,1-.683,2.89,6.425,6.425,0,0,1-5.781,3.573,4.226,4.226,0,0,0-4.937,0,6.463,6.463,0,0,1-6.463-6.463v-.37a7.467,7.467,0,0,1,7.458-7.458,3.228,3.228,0,0,0,2.947,0,7.469,7.469,0,0,1,7.459,7.458Z" fill="#f4a261"/>
  </g>
</svg>
