<svg xmlns="http://www.w3.org/2000/svg" width="45" height="36.269" viewBox="0 0 45 36.269"><path d="M4407.542,766.934h-1.722V745.155H4404.3v1.512h-1.225v-3.586h-.454v-8.09h.213l.4-1.292h-9.868l.4,1.292h.329v8.09h-.454v3.586h-1.766v-3.586h-.4v-8.09h.219l.4-1.292h-9.867l.4,1.292h.33v8.09h-.512v3.586h-1.518v-3.586h-.409v-8.09h.213l.4-1.292h-9.868l.4,1.292h.329v8.09h-.5v3.586h-1.567v-1.512h-1.524v21.779H4366.8l-2.132,3.034h45Zm-12.512-31.729h6.666v9.689h-5.619v18.07a3.309,3.309,0,0,1-1.047-2.421Zm-11.135,0h6.667v9.689h-5.618v18.07a3.307,3.307,0,0,1-1.049-2.421Zm-10.959,0h6.66v9.689h-5.612v18.07a3.31,3.31,0,0,1-1.048-2.421Zm-3,12.982h1.567v3.425h.5v8.931a4.24,4.24,0,0,0,1.978,3.593,4.192,4.192,0,0,0,2.279.667,4.258,4.258,0,0,0,4.263-4.26v-8.931h.409v-3.425h1.518v3.425h.512v8.931a4.255,4.255,0,0,0,1.979,3.593,4.194,4.194,0,0,0,2.284.667,4.262,4.262,0,0,0,4.257-4.26v-8.931h.4v-3.425h1.766v3.425h.454v8.931a4.258,4.258,0,0,0,1.977,3.593,4.2,4.2,0,0,0,2.286.667,4.257,4.257,0,0,0,4.256-4.26v-8.931h.454v-3.425h1.225v18.747h-34.357Z" transform="translate(-4364.666 -733.699)" fill="#cc6f53"/></svg>