<svg xmlns="http://www.w3.org/2000/svg" width="55.893" height="50" viewBox="0 0 55.893 50">
  <g id="Group_1204" data-name="Group 1204" transform="translate(-5974.623 -7208.536)">
    <path id="Path_58693" data-name="Path 58693" d="M6024.9,7221.561a16.089,16.089,0,0,0-6.844-4.064c-5.542-1.323-9.276,2.774-6.462,8.444,1.033,2.081,1.827,3.718,2.346,5.094h-3.276a2.008,2.008,0,0,1-2.006-2.005v-17.99a2.5,2.5,0,0,0-5.008,0v18.122a6.857,6.857,0,0,1,0,8.748v18.123a2.5,2.5,0,0,0,5.008,0v-17.99a2.009,2.009,0,0,1,2.006-2.006h3.659a9.631,9.631,0,0,1-1.748,2.759c-4.594,5.457-.6,16.242,9.405,12.3,10.191-4.02,11.379-21.389,2.92-29.533m-7.586,7.775a4.461,4.461,0,0,0,.3-1.656.874.874,0,0,1,1.745-.09,6.114,6.114,0,0,1-.4,2.331,4.288,4.288,0,0,1-2.748,2.647c-.01-.044-.308-1.192-.479-1.684a2.531,2.531,0,0,0,1.579-1.548m-10.4,8.707v17.99a.757.757,0,0,1-1.514,0V7237.91a5.058,5.058,0,0,1,1.1-3.176,6.857,6.857,0,0,0,1.4.78,3.734,3.734,0,0,0-.983,2.529m1.842-4.071a5.134,5.134,0,0,1-3.356-4.81V7211.04a.757.757,0,0,1,1.514,0v17.99a3.757,3.757,0,0,0,3.754,3.752h3.808a6.725,6.725,0,0,1,.176,1.5c-4.2,0-4.771.1-5.9-.315m10.135,5.958a.873.873,0,0,1-.868-.784c-.207-2.008-1.2-2.719-1.9-2.971a6.579,6.579,0,0,0,.274-1.746c1.352.375,3.058,1.594,3.362,4.538a.875.875,0,0,1-.87.963m2.511-5.826h-2.312a.874.874,0,0,1,0-1.747h2.312a.874.874,0,0,1,0,1.747" fill="#03566e"/>
    <path id="Path_58694" data-name="Path 58694" d="M5998.986,7208.536a2.508,2.508,0,0,0-2.5,2.5v17.99a2.008,2.008,0,0,1-2.006,2.006c-.322,0,1.137,0-3.277,0,.52-1.377,1.314-3.015,2.347-5.1,3.9-7.854-4.736-12.63-13.306-4.38-8.47,8.155-7.255,25.519,2.921,29.533,10,3.943,14-6.837,9.4-12.3a9.647,9.647,0,0,1-1.749-2.759h3.659a2.009,2.009,0,0,1,2.007,2.006v17.99a2.5,2.5,0,0,0,5.007,0V7237.91a6.857,6.857,0,0,1,0-8.748V7211.04a2.507,2.507,0,0,0-2.5-2.5m-.757,20.494v-17.99a.757.757,0,0,1,1.514,0v18.122a5.068,5.068,0,0,1-1.1,3.177,6.9,6.9,0,0,0-1.4-.78,3.739,3.739,0,0,0,.983-2.529m-12.448-1.44a.873.873,0,0,1,1.744.09,4.47,4.47,0,0,0,.3,1.656,2.533,2.533,0,0,0,1.58,1.548,12.859,12.859,0,0,0-.478,1.684,4.286,4.286,0,0,1-2.749-2.647,6.109,6.109,0,0,1-.4-2.331m-2.913,5.64a.873.873,0,0,1,.874-.873h2.311a.874.874,0,0,1,0,1.747h-2.311a.873.873,0,0,1-.874-.874m4.252,5.916a.873.873,0,0,1-1.737-.179c.3-2.944,2.01-4.163,3.361-4.538a6.56,6.56,0,0,0,.275,1.746c-.7.252-1.692.963-1.9,2.971m12.623,16.887a.757.757,0,0,1-1.514,0v-17.99a3.758,3.758,0,0,0-3.753-3.753h-3.985a6.672,6.672,0,0,1,.176-1.5c3.962.01,4.577-.109,5.72.315a5.134,5.134,0,0,1,3.357,4.81Z" fill="#03566e"/>
  </g>
</svg>
