<svg xmlns="http://www.w3.org/2000/svg" width="213.233" height="174.309" viewBox="0 0 213.233 174.309">
  <g id="Group_7862" data-name="Group 7862" transform="translate(-274.726 -53.106)">
    <path id="Path_26" data-name="Path 26" d="M481.748,94.894,452.325,76.408A13.776,13.776,0,0,0,429.66,62.167L423,57.983a13.279,13.279,0,0,0-18.311,4.181l-1.4,2.23a14.76,14.76,0,0,0-5.71-7.6,14,14,0,0,0-9.659-3.688c-7.233,0-14.85,4.9-19.93,12.793-.048.067-.1.157-.153.235l-.851-2.94a12.793,12.793,0,0,0-6.085-7.626c-.085-.047-.17-.092-.256-.135l-.369-.184a12.867,12.867,0,0,0-5.6-1.29c-.286,0-.573.009-.857.028-10.714.713-37.886,3.714-58.741,16.144A12.941,12.941,0,0,0,289,78.695c-.057.274-.1.527-.131.8a12.516,12.516,0,0,0,.268,4.811l5.26,21.028a13.771,13.771,0,1,0-6.215,26.55,28.867,28.867,0,0,0-11.036,13.806c-.086.186-.162.371-.229.558-2.769,7.18-2.919,14.875-.4,20.609a14.927,14.927,0,0,0,7.879,8.054,14.525,14.525,0,0,0,2.281,1.137,13.8,13.8,0,0,0,3.885.886c-.016.06-.044.114-.058.174a7.284,7.284,0,0,0,4.525,8.518,7.246,7.246,0,0,0,1.019,4.633h-3.7a12.639,12.639,0,0,0-12.624,12.623v5.736a12.638,12.638,0,0,0,12.624,12.622h27.938a10.223,10.223,0,0,0,7.009,5.118c.736.144,1.644.29,2.8.462a71.061,71.061,0,0,0,9.444.592,98.613,98.613,0,0,0,11.919-.76,133.627,133.627,0,0,0,17.977-3.5c.18-.034.362-.077.541-.128l1.182-.335c.13-.036.26-.078.386-.122q1.294-.37,2.585-.765A13.44,13.44,0,0,0,396,212.887c.328-.175.652-.352.975-.53l7.873,4.945a13.275,13.275,0,0,0,18.31-4.18l23.083-36.745a7.32,7.32,0,0,0,1.508-.956,7.27,7.27,0,0,0,9.962-10.448,7.291,7.291,0,0,0,.589-7.791L485.929,113.2A13.3,13.3,0,0,0,481.748,94.894Z" fill="#fff"/>
    <g id="Group_59" data-name="Group 59">
      <g id="Group_36" data-name="Group 36">
        <g id="Group_35" data-name="Group 35">
          <g id="Group_24" data-name="Group 24">
            <path id="Path_27" data-name="Path 27" d="M478.343,101.4a6.879,6.879,0,0,1,2.165,9.484l-18.091,28.8-7.2,11.453-37.481,59.663a6.88,6.88,0,0,1-9.485,2.166L349.5,176.066a6.879,6.879,0,0,1-2.167-9.485l36.153-57.557L391.494,96.3l18.617-29.638a6.879,6.879,0,0,1,9.485-2.166Z" fill="#03566e"/>
            <path id="Path_28" data-name="Path 28" d="M381.581,191.926h0a2.962,2.962,0,0,1-.93-4.072l62.116-98.873a2.962,2.962,0,0,1,4.072-.93h0a2.963,2.963,0,0,1,.93,4.072L385.653,191A2.962,2.962,0,0,1,381.581,191.926Z" fill="none" stroke="#faeddc" stroke-miterlimit="10" stroke-width="0.445"/>
          </g>
          <g id="Group_29" data-name="Group 29">
            <g id="Group_25" data-name="Group 25">
              <path id="Path_29" data-name="Path 29" d="M426.813,94.518A8.935,8.935,0,1,1,424,82.2,8.935,8.935,0,0,1,426.813,94.518Z" fill="#ad8b96"/>
              <path id="Path_30" data-name="Path 30" d="M426.588,93.169a8.935,8.935,0,1,1-2.813-12.319A8.936,8.936,0,0,1,426.588,93.169Z" fill="#e7d8dd" stroke="#e7d8dd" stroke-miterlimit="10" stroke-width="1.067"/>
            </g>
            <g id="Group_26" data-name="Group 26">
              <path id="Path_31" data-name="Path 31" d="M412.311,117.6a8.935,8.935,0,1,1-2.812-12.32A8.934,8.934,0,0,1,412.311,117.6Z" fill="#ad8b96"/>
              <path id="Path_32" data-name="Path 32" d="M412.086,116.252a8.935,8.935,0,1,1-2.813-12.319A8.935,8.935,0,0,1,412.086,116.252Z" fill="#e7d8dd" stroke="#e7d8dd" stroke-miterlimit="10" stroke-width="1.067"/>
            </g>
            <g id="Group_27" data-name="Group 27">
              <path id="Path_33" data-name="Path 33" d="M397.447,141.262a8.935,8.935,0,1,1-2.813-12.32A8.935,8.935,0,0,1,397.447,141.262Z" fill="#ad8b96"/>
              <path id="Path_34" data-name="Path 34" d="M397.221,139.913a8.935,8.935,0,1,1-2.812-12.32A8.935,8.935,0,0,1,397.221,139.913Z" fill="#e7d8dd" stroke="#e7d8dd" stroke-miterlimit="10" stroke-width="1.067"/>
            </g>
            <g id="Group_28" data-name="Group 28">
              <path id="Path_35" data-name="Path 35" d="M381.495,166.654a8.935,8.935,0,1,1-2.813-12.32A8.935,8.935,0,0,1,381.495,166.654Z" fill="#ad8b96"/>
              <path id="Path_36" data-name="Path 36" d="M381.269,165.3a8.935,8.935,0,1,1-2.812-12.32A8.934,8.934,0,0,1,381.269,165.3Z" fill="#e7d8dd" stroke="#e7d8dd" stroke-miterlimit="10" stroke-width="1.067"/>
            </g>
          </g>
          <g id="Group_34" data-name="Group 34">
            <g id="Group_30" data-name="Group 30">
              <path id="Path_37" data-name="Path 37" d="M464.708,118.325a8.935,8.935,0,1,1-2.813-12.319A8.934,8.934,0,0,1,464.708,118.325Z" fill="#ad8b96"/>
              <path id="Path_38" data-name="Path 38" d="M464.483,116.976a8.935,8.935,0,1,1-2.813-12.319A8.936,8.936,0,0,1,464.483,116.976Z" fill="#e7d8dd" stroke="#e7d8dd" stroke-miterlimit="10" stroke-width="1.067"/>
            </g>
            <g id="Group_31" data-name="Group 31">
              <path id="Path_39" data-name="Path 39" d="M450.206,141.409a8.935,8.935,0,1,1-2.812-12.32A8.934,8.934,0,0,1,450.206,141.409Z" fill="#ad8b96"/>
              <path id="Path_40" data-name="Path 40" d="M449.981,140.06a8.936,8.936,0,1,1-2.813-12.32A8.937,8.937,0,0,1,449.981,140.06Z" fill="#e7d8dd" stroke="#e7d8dd" stroke-miterlimit="10" stroke-width="1.067"/>
            </g>
            <g id="Group_32" data-name="Group 32">
              <path id="Path_41" data-name="Path 41" d="M435.342,165.069a8.935,8.935,0,1,1-2.813-12.319A8.935,8.935,0,0,1,435.342,165.069Z" fill="#ad8b96"/>
              <path id="Path_42" data-name="Path 42" d="M435.117,163.72A8.936,8.936,0,1,1,432.3,151.4,8.936,8.936,0,0,1,435.117,163.72Z" fill="#e7d8dd" stroke="#e7d8dd" stroke-miterlimit="10" stroke-width="1.067"/>
            </g>
            <g id="Group_33" data-name="Group 33">
              <path id="Path_43" data-name="Path 43" d="M419.39,190.461a8.935,8.935,0,1,1-2.813-12.32A8.935,8.935,0,0,1,419.39,190.461Z" fill="#ad8b96"/>
              <path id="Path_44" data-name="Path 44" d="M419.164,189.112a8.935,8.935,0,1,1-2.812-12.32A8.936,8.936,0,0,1,419.164,189.112Z" fill="#e7d8dd" stroke="#e7d8dd" stroke-miterlimit="10" stroke-width="1.067"/>
            </g>
          </g>
        </g>
      </g>
      <g id="Group_50" data-name="Group 50">
        <g id="Group_39" data-name="Group 39">
          <path id="Path_45" data-name="Path 45" d="M405.182,200.087c-3.78,3.381-14.476,11.493-35.765,17.522v.013l-1.183.335-.012-.013a127.139,127.139,0,0,1-17.523,3.445,77.911,77.911,0,0,1-19.746.18c-.952-.141-1.761-.27-2.417-.4a3.858,3.858,0,0,1-2.893-2.5c-.925-2.571-2.661-7.494-4.833-13.781-.039-.116-.078-.231-.116-.36-5.464-15.787-13.524-39.788-17.87-56.1-1.208-4.551-2.146-8.511-2.635-11.506-.051-.219-.077-.437-.116-.643-3.008-19.6,8.228-25.75,8.228-25.75l-.527-1.9-2.083-7.6,10.5-5.606,17.947-3.766,29.234-6.492,2.61,9.5s11.107-.411,18.628,14.386c.565,1.079,1.092,2.262,1.607,3.522.732,1.813,1.529,4.1,2.352,6.775,4.423,14.231,9.925,38.966,13.717,57,.167.759.322,1.517.476,2.25,1.7,8.164,3.008,14.72,3.638,17.87A3.876,3.876,0,0,1,405.182,200.087Z" fill="#ffa255"/>
          <path id="Path_46" data-name="Path 46" d="M402.289,176.355c-5.785,6.184-10.5,9.886-26.007,16.16-17.535,7.1-36.613,10.5-55.588,12.02-5.464-15.787-13.524-39.788-17.87-56.1-1.208-4.551-2.146-8.511-2.635-11.506a177.989,177.989,0,0,0,84.424-27.871c.565,1.079,1.092,2.262,1.607,3.522.732,1.813,1.529,4.1,2.352,6.775C392.995,133.584,398.5,158.319,402.289,176.355Z" fill="#faeddc"/>
          <g id="Group_37" data-name="Group 37">
            <rect id="Rectangle_15" data-name="Rectangle 15" width="7.154" height="40.894" transform="matrix(0.951, -0.309, 0.309, 0.951, 346.485, 143.462)" fill="#fe6963"/>
            <rect id="Rectangle_16" data-name="Rectangle 16" width="8.258" height="35.427" transform="matrix(0.308, 0.951, -0.951, 0.308, 371.781, 152.425)" fill="#fe6963"/>
          </g>
          <g id="Group_38" data-name="Group 38">
            <path id="Path_47" data-name="Path 47" d="M369.254,110.581a9.291,9.291,0,0,0,4.253,5.589,5.1,5.1,0,0,0,2.83.822,4.427,4.427,0,0,0,3.771-3.747,8.41,8.41,0,0,0-1.242-5.482,9.709,9.709,0,0,0-1.895-2.471C372.119,100.907,367.787,104.918,369.254,110.581Z" fill="#fff"/>
            <path id="Path_48" data-name="Path 48" d="M379.67,131.164a7.365,7.365,0,0,0,2.614,2.764,3.956,3.956,0,0,0,3.687.2c1.669-.87,2.213-3.007,2.189-4.889-.044-3.369-2.2-10.845-6.743-10.379C375.912,119.429,377.908,128.185,379.67,131.164Z" fill="#fff"/>
          </g>
          <path id="Path_49" data-name="Path 49" d="M330.953,221.569c-.952-.141-1.761-.27-2.417-.4a3.858,3.858,0,0,1-2.893-2.5c-.925-2.571-2.661-7.494-4.833-13.781-.039-.116-.078-.231-.116-.36-5.464-15.787-13.524-39.788-17.87-56.1-1.208-4.551-2.146-8.511-2.635-11.506-.051-.219-.077-.437-.116-.643-3.008-19.6,8.228-25.75,8.228-25.75l-.527-1.9a3.474,3.474,0,0,1,2.622,3.549c-.012,1.966-1.131,4.126-1.491,6.08a44.976,44.976,0,0,0-.72,7.315,97.768,97.768,0,0,0,1.4,16.88q3.084,20.362,8.034,40.4C320.9,196.14,324.833,209.343,330.953,221.569Z" fill="#3d2929" opacity="0.2"/>
        </g>
        <g id="Group_49" data-name="Group 49">
          <g id="Group_40" data-name="Group 40">
            <path id="Path_50" data-name="Path 50" d="M366.216,84.63s-1.067,1.941-4.9,4.936c-.09.077-.18.155-.27.219a60.464,60.464,0,0,1-7.071,4.628c-.09.039-.18.1-.282.154-2.379,1.324-5.207,2.738-8.524,4.2-.09.039-.193.077-.295.129-2.276.989-4.783,2-7.547,3.021-.6.218-1.2.437-1.774.63a2.662,2.662,0,0,1-.3.1h-.012a87.541,87.541,0,0,1-10.542,2.983,2.847,2.847,0,0,1-.321.064,64.689,64.689,0,0,1-9.167,1.324,3.11,3.11,0,0,1-.334.026,45.825,45.825,0,0,1-8.446-.167,2.723,2.723,0,0,1-.334-.051,21.607,21.607,0,0,1-5.31-1.2l-5.451-21.79a6.23,6.23,0,0,1-.128-2.43,2.929,2.929,0,0,1,.051-.334,6.5,6.5,0,0,1,3.086-4.359c19.476-11.608,45.072-14.539,55.9-15.259a6.374,6.374,0,0,1,3.227.629l.309.155a6.449,6.449,0,0,1,3.059,3.831Z" fill="#faeddc"/>
          </g>
          <g id="Group_41" data-name="Group 41">
            <path id="Path_51" data-name="Path 51" d="M357.783,62.248A53.463,53.463,0,0,1,352,66.58c-.09.052-.18.116-.27.18a70.391,70.391,0,0,1-7.971,4.345c-.1.052-.193.09-.3.142-2.622,1.221-5.27,2.288-7.906,3.252v.013a3.008,3.008,0,0,0-.308.1v.013c-2.212.8-4.41,1.53-6.544,2.211-.591.193-1.2.373-1.813.553-.1.038-.205.064-.321.1-2.751.8-5.657,1.5-8.755,2.134-.1.025-.218.038-.321.064-1.967.386-4.011.746-6.145,1.08-1.08.167-2.1.321-3.06.463l-.321.038a56.8,56.8,0,0,1-7.752.682c-.219,0-.425,0-.63-.013a2.751,2.751,0,0,1-.334-.013,19.423,19.423,0,0,1-4.037-.514,2.929,2.929,0,0,1,.051-.334c4.2,1,8.691.514,16.044-.618A115.308,115.308,0,0,0,328.6,76.531c7.508-2.392,15.71-5.413,22.986-10.079l.013-.013.026-.013a51.26,51.26,0,0,0,5.849-4.333Z" fill="#b0d8e4"/>
          </g>
          <g id="Group_42" data-name="Group 42">
            <path id="Path_52" data-name="Path 52" d="M306.437,106.883a2.723,2.723,0,0,1-.334-.051l-6.852-24.9-.013-.026.308-.09.039.129Z" fill="#b0d8e4"/>
          </g>
          <g id="Group_43" data-name="Group 43">
            <path id="Path_53" data-name="Path 53" d="M315.217,107.024a3.11,3.11,0,0,1-.334.026q-1.581-5.921-3.2-11.93c-1.247-4.641-2.494-9.282-3.715-13.846-.013-.038-.013-.064-.026-.1l.309-.078c.012.052.025.09.038.142,1.221,4.538,2.456,9.179,3.7,13.794C313.07,99.054,314.15,103.065,315.217,107.024Z" fill="#b0d8e4"/>
          </g>
          <g id="Group_44" data-name="Group 44">
            <path id="Path_54" data-name="Path 54" d="M324.7,105.636a2.847,2.847,0,0,1-.321.064c-2.34-8.652-4.654-17.407-6.891-26.007a.939.939,0,0,1-.052-.18l.322-.077c.013.064.038.129.051.193C320.038,88.242,322.352,96.984,324.7,105.636Z" fill="#b0d8e4"/>
          </g>
          <g id="Group_45" data-name="Group 45">
            <path id="Path_55" data-name="Path 55" d="M335.555,102.551a2.662,2.662,0,0,1-.3.1h-.012c-2.79-8.394-5.708-16.841-8.678-25.158a1.18,1.18,0,0,0-.064-.193l.308-.116c.026.065.052.142.077.206C329.847,85.709,332.753,94.169,335.555,102.551Z" fill="#b0d8e4"/>
          </g>
          <g id="Group_46" data-name="Group 46">
            <path id="Path_56" data-name="Path 56" d="M345.171,98.771c-.09.039-.193.077-.295.129l-9.629-24.272-.116-.283.308-.116.116.283Z" fill="#b0d8e4"/>
          </g>
          <g id="Group_47" data-name="Group 47">
            <path id="Path_57" data-name="Path 57" d="M353.977,94.413c-.09.039-.18.1-.282.154-3.587-7.675-7.02-15.5-10.234-23.32-.012-.026-.012-.039-.025-.065l.295-.128c.013.013.013.038.026.051C346.958,78.922,350.391,86.751,353.977,94.413Z" fill="#b0d8e4"/>
          </g>
          <g id="Group_48" data-name="Group 48">
            <path id="Path_58" data-name="Path 58" d="M361.318,89.566c-.09.077-.18.155-.27.219-2.8-7.778-5.926-15.5-9.32-23.025-.052-.1-.09-.205-.142-.308l.013-.013.283-.116c.038.09.077.167.116.257C355.379,74.075,358.515,81.788,361.318,89.566Z" fill="#b0d8e4"/>
          </g>
        </g>
      </g>
      <g id="Group_51" data-name="Group 51">
        <path id="Path_59" data-name="Path 59" d="M289,171.175a7.791,7.791,0,0,1-1.674-.906c-4.481-3.261-5.637-11.52-2.458-19.716.018-.034.03-.086.047-.12,3.5-8.911,10.882-14.366,16.648-12.4l.281.1c5.426,2.1,7.4,10.276,4.775,18.755-.192.624-.394,1.243-.643,1.867C302.431,167.884,294.828,173.44,289,171.175Z" fill="#e7d8dd"/>
        <path id="Path_60" data-name="Path 60" d="M287.322,170.269c-.086-.029-.184-.065-.269-.1-5.833-2.265-7.69-11.492-4.132-20.621a1.1,1.1,0,0,1,.083-.189c3.567-9.008,11.1-14.473,16.882-12.231a7.848,7.848,0,0,1,1.673.9c4.293,3.121,5.541,10.864,2.844,18.715-.119.343-.244.669-.374,1.007C300.536,166.734,293.117,172.27,287.322,170.269Z" fill="#faeddc"/>
        <path id="Path_61" data-name="Path 61" d="M304.4,156.753a37.992,37.992,0,0,1-5.907-1.278,68.816,68.816,0,0,1-13.585-5.042c-.651-.335-1.279-.687-1.907-1.069,3.567-9.008,11.1-14.473,16.882-12.231a7.848,7.848,0,0,1,1.673.9C305.852,141.159,307.1,148.9,304.4,156.753Z" fill="#03566e"/>
      </g>
      <g id="Group_52" data-name="Group 52">
        <path id="Path_62" data-name="Path 62" d="M375.087,93.162a7.864,7.864,0,0,1-1.475-1.2c-3.794-4.04-3.389-12.369,1.262-19.829.024-.03.045-.079.069-.109,5.1-8.1,13.37-12.085,18.668-9.073.078.045.167.1.256.152,4.939,3.074,5.359,11.476,1.194,19.316-.3.578-.619,1.147-.98,1.714C388.9,92.435,380.395,96.475,375.087,93.162Z" fill="#e7d8dd"/>
        <path id="Path_63" data-name="Path 63" d="M373.612,91.961c-.079-.046-.168-.1-.247-.144-5.307-3.313-5.411-12.725-.213-21.03a1.085,1.085,0,0,1,.116-.17c5.185-8.184,13.6-12.15,18.867-8.868a7.9,7.9,0,0,1,1.476,1.2c3.635,3.867,3.417,11.706-.7,18.917-.181.315-.364.612-.556.92C387.253,90.952,378.932,95.007,373.612,91.961Z" fill="#faeddc"/>
        <path id="Path_64" data-name="Path 64" d="M392.914,81.867a37.965,37.965,0,0,1-5.565-2.357,68.865,68.865,0,0,1-12.406-7.487c-.578-.451-1.129-.914-1.675-1.406,5.185-8.184,13.6-12.15,18.867-8.868a7.9,7.9,0,0,1,1.476,1.2C397.246,66.817,397.028,74.656,392.914,81.867Z" fill="#ff988c"/>
      </g>
      <g id="Group_55" data-name="Group 55">
        <rect id="Rectangle_17" data-name="Rectangle 17" width="63.896" height="18.18" rx="6.222" transform="translate(286.129 197.752)" fill="#e7d8dd"/>
        <rect id="Rectangle_18" data-name="Rectangle 18" width="20.98" height="14.297" transform="translate(306.086 199.694)" fill="none" stroke="#ad8b96" stroke-miterlimit="10" stroke-width="0.228"/>
        <g id="Group_53" data-name="Group 53">
          <path id="Path_65" data-name="Path 65" d="M293.807,201.845a1.026,1.026,0,1,1-1.026-1.026A1.026,1.026,0,0,1,293.807,201.845Z" fill="#ad8b96"/>
          <path id="Path_66" data-name="Path 66" d="M298.374,206.346a1.026,1.026,0,1,1-1.026-1.026A1.026,1.026,0,0,1,298.374,206.346Z" fill="#ad8b96"/>
          <path id="Path_67" data-name="Path 67" d="M293.972,210.748a1.026,1.026,0,1,1-1.026-1.026A1.026,1.026,0,0,1,293.972,210.748Z" fill="#ad8b96"/>
        </g>
        <g id="Group_54" data-name="Group 54">
          <path id="Path_68" data-name="Path 68" d="M340.736,201.845a1.026,1.026,0,1,0,1.026-1.026A1.026,1.026,0,0,0,340.736,201.845Z" fill="#ad8b96"/>
          <path id="Path_69" data-name="Path 69" d="M336.169,206.346a1.025,1.025,0,1,0,1.026-1.026A1.026,1.026,0,0,0,336.169,206.346Z" fill="#ad8b96"/>
          <path id="Path_70" data-name="Path 70" d="M340.57,210.748a1.026,1.026,0,1,0,1.026-1.026A1.027,1.027,0,0,0,340.57,210.748Z" fill="#ad8b96"/>
        </g>
      </g>
      <circle id="Ellipse_8" data-name="Ellipse 8" cx="7.057" cy="7.057" r="7.057" transform="translate(375.572 205.42)" fill="#faeddc"/>
      <g id="Group_58" data-name="Group 58">
        <circle id="Ellipse_9" data-name="Ellipse 9" cx="7.057" cy="7.057" r="7.057" transform="translate(282.354 112.202)" fill="none" stroke="#3d2929" stroke-linecap="round" stroke-linejoin="round" stroke-width="0.643"/>
        <path id="Path_71" data-name="Path 71" d="M446.306,73.143a7.057,7.057,0,1,1-7.057-7.057A7.058,7.058,0,0,1,446.306,73.143Z" fill="none" stroke="#3d2929" stroke-linecap="round" stroke-linejoin="round" stroke-width="0.643"/>
        <g id="Group_56" data-name="Group 56">
          <line id="Line_16" data-name="Line 16" x1="12.349" y1="2.992" transform="translate(297.569 179.908)" fill="none" stroke="#3d2929" stroke-linecap="round" stroke-linejoin="round" stroke-width="1.736"/>
          <line id="Line_17" data-name="Line 17" x1="2.992" y2="12.349" transform="translate(302.248 175.23)" fill="none" stroke="#3d2929" stroke-linecap="round" stroke-linejoin="round" stroke-width="1.736"/>
        </g>
        <g id="Group_57" data-name="Group 57">
          <line id="Line_18" data-name="Line 18" x1="8.768" y2="9.197" transform="translate(443.125 161.707)" fill="none" stroke="#3d2929" stroke-linecap="round" stroke-linejoin="round" stroke-width="1.736"/>
          <line id="Line_19" data-name="Line 19" x2="9.197" y2="8.768" transform="translate(442.911 161.922)" fill="none" stroke="#3d2929" stroke-linecap="round" stroke-linejoin="round" stroke-width="1.736"/>
        </g>
      </g>
    </g>
  </g>
</svg>
