<?xml version="1.0" encoding="iso-8859-1"?>
<!-- Generator: Adobe Illustrator 19.0.0, SVG Export Plug-In . SVG Version: 6.00 Build 0)  -->
<svg version="1.1" id="Layer_1" xmlns="http://www.w3.org/2000/svg" xmlns:xlink="http://www.w3.org/1999/xlink" x="0px" y="0px"
	 viewBox="0 0 512 512" style="enable-background:new 0 0 512 512;" xml:space="preserve">
<g>
	<g>
		<path d="M449.644,136.494h-34.189V17.967c0-5.632-4.567-10.199-10.199-10.199H204.398c-5.632,0-10.199,4.567-10.199,10.199
			v118.527h-67.48c-19.698,0-35.723,16.025-35.723,35.723v16.433H61.801c-19.392,0-35.167,15.777-35.167,35.168v62.052h-0.126
			C11.891,285.871,0,297.762,0,312.379v68.127c0,14.615,11.891,26.507,26.507,26.507h0.126v62.053
			c0,19.392,15.776,35.167,35.167,35.167h440.001c5.632,0,10.199-4.567,10.199-10.199V198.85
			C512,164.468,484.028,136.494,449.644,136.494z M415.454,156.893h34.19c19.619,0,36.137,13.535,40.704,31.758h-74.894V156.893z
			 M214.597,28.167h180.46v160.484h-50.623V86.769c0-5.632-4.567-10.199-10.199-10.199s-10.199,4.567-10.199,10.199v101.882h-37.307
			V86.769c0-5.632-4.567-10.199-10.199-10.199s-10.199,4.567-10.199,10.199v101.882h-51.733V28.167z M111.394,172.218
			L111.394,172.218c0.001-8.45,6.875-15.324,15.325-15.324h67.48v31.758h-82.805V172.218z M26.507,386.615
			c-3.368,0-6.108-2.741-6.108-6.109v-68.127c0-3.369,2.74-6.109,6.108-6.109h51.722c22.152,0,40.173,18.021,40.173,40.173
			c0,22.152-18.021,40.173-40.173,40.173H26.507z M491.602,483.834H61.801c-8.143,0-14.768-6.625-14.768-14.768v-62.053H78.23
			c33.398,0,60.571-27.173,60.571-60.571s-27.173-60.571-60.571-60.571H47.032v-62.052c0-8.144,6.625-14.769,14.768-14.769h429.802
			V483.834z"/>
	</g>
</g>
<g>
	<g>
		<path d="M79.001,319.598c-14.801,0-26.844,12.043-26.844,26.844c0,14.801,12.043,26.844,26.844,26.844
			s26.844-12.042,26.844-26.844C105.845,331.64,93.802,319.598,79.001,319.598z M79.001,352.888c-3.554,0-6.446-2.891-6.446-6.446
			c0-3.554,2.891-6.446,6.446-6.446c3.554,0,6.446,2.891,6.446,6.446C85.447,349.996,82.555,352.888,79.001,352.888z"/>
	</g>
</g>
<g>
	<g>
		<path d="M280.968,446.104h-6.658c-5.632,0-10.199,4.567-10.199,10.199s4.567,10.199,10.199,10.199h6.658
			c5.632,0,10.199-4.567,10.199-10.199S286.601,446.104,280.968,446.104z"/>
	</g>
</g>
<g>
	<g>
		<path d="M459.632,446.104H319.808c-5.633,0-10.199,4.566-10.199,10.199c0,5.632,4.567,10.199,10.199,10.199h139.824
			c5.632,0,10.199-4.567,10.199-10.199S465.264,446.104,459.632,446.104z"/>
	</g>
</g>
<g>
</g>
<g>
</g>
<g>
</g>
<g>
</g>
<g>
</g>
<g>
</g>
<g>
</g>
<g>
</g>
<g>
</g>
<g>
</g>
<g>
</g>
<g>
</g>
<g>
</g>
<g>
</g>
<g>
</g>
</svg>
