<svg viewBox="0 0 67.63 67.13" xmlns="http://www.w3.org/2000/svg"><g fill="#03566e"><path d="m39.69 56.76h-36.07a1.2 1.2 0 0 1 -1.2-1.2v-51.94a1.2 1.2 0 0 1 1.2-1.2h51.94a1.2 1.2 0 0 1 1.2 1.2v38.55a7.85 7.85 0 0 1 2.3-1.27v-38.61a2.28 2.28 0 0 0 -2.28-2.29h-54.49a2.28 2.28 0 0 0 -2.29 2.29v54.49a2.28 2.28 0 0 0 2.29 2.28h39.71l-2.15-2.15-.14-.15z"/><path d="m54.35 4.83h-49.52v27.64h7.17l2.49-6.23a1.2 1.2 0 0 1 1.51-.67 1.23 1.23 0 0 1 .71.78l3.13 10.74 7.16-20.58a1.21 1.21 0 0 1 2.29 0l5.31 15.94h19.75z"/><path d="m45.32 40.46a7.74 7.74 0 0 1 5.49 2.28l2.66 2.66.88-.88v-9.64h-20.63a1.2 1.2 0 0 1 -1.14-.82l-4.47-13.4-7.22 20.8a1.2 1.2 0 0 1 -1.14.81 1.2 1.2 0 0 1 -1.13-.87l-3.21-11-1.49 3.73a1.22 1.22 0 0 1 -1.13.76h-7.96v19.46h33.17a10 10 0 0 1 1.86-11.61 7.74 7.74 0 0 1 5.49-2.28z"/><path d="m65.41 44.45a5.4 5.4 0 0 0 -4.84-1.45h-.09a5.31 5.31 0 0 0 -2.64 1.45l-3.51 3.55a1.21 1.21 0 0 1 -1.71 0l-3.51-3.51a5.35 5.35 0 0 0 -7.57 0 7.6 7.6 0 0 0 0 10.75l11.93 11.89 11.94-11.93a7.62 7.62 0 0 0 0-10.75zm-7.69 13.36-3.39 3.4a1.21 1.21 0 1 1 -1.71-1.71l3.38-3.4a1.21 1.21 0 1 1 1.7 1.71zm5.1-5.09-1.21 1.2a1.21 1.21 0 0 1 -1.7-1.71l1.2-1.2a1.21 1.21 0 1 1 1.71 1.71z"/></g></svg>