<?xml version="1.0" encoding="iso-8859-1"?>
<!-- Generator: Adobe Illustrator 19.0.0, SVG Export Plug-In . SVG Version: 6.00 Build 0)  -->
<svg version="1.1" id="Layer_1" xmlns="http://www.w3.org/2000/svg" xmlns:xlink="http://www.w3.org/1999/xlink" x="0px" y="0px"
	 viewBox="0 0 511.999 511.999" style="enable-background:new 0 0 511.999 511.999;" xml:space="preserve">
<g>
	<g>
		<path d="M316.516,173.579L209.125,66.188c-3.984-3.983-10.44-3.983-14.425,0L2.987,257.9C1.075,259.814,0,262.408,0,265.114
			s1.075,5.3,2.987,7.212l107.391,107.391c1.992,1.991,4.602,2.987,7.212,2.987s5.22-0.997,7.212-2.987l191.713-191.712
			c1.912-1.913,2.987-4.507,2.987-7.213C319.503,178.086,318.428,175.491,316.516,173.579z M117.591,358.08l-92.966-92.967
			L201.913,87.825l92.966,92.967L117.591,358.08z"/>
	</g>
</g>
<g>
	<g>
		<path d="M200.689,180.702c-5.54-1.053-10.874,2.58-11.926,8.113l-1.446,7.597l-38.69,7.275c-4.132,0.776-7.363,4.008-8.139,8.138
			l-7.274,38.69l-38.825,7.391c-5.534,1.054-9.165,6.394-8.112,11.927c0.93,4.89,5.207,8.294,10.009,8.294
			c0.631,0,1.274-0.059,1.919-0.182l45.657-8.691c4.121-0.785,7.341-4.013,8.117-8.135l7.271-38.674l38.674-7.272
			c4.123-0.775,7.351-3.995,8.135-8.117l2.746-14.428C209.854,187.096,206.222,181.755,200.689,180.702z"/>
	</g>
</g>
<g>
	<g>
		<path d="M206.634,149.474c-5.539-1.053-10.874,2.58-11.927,8.113l-0.502,2.637c-1.054,5.533,2.577,10.874,8.112,11.927
			c0.645,0.122,1.286,0.182,1.919,0.182c4.801,0,9.078-3.405,10.009-8.294l0.502-2.637
			C215.8,155.868,212.169,150.528,206.634,149.474z"/>
	</g>
</g>
<g>
	<g>
		<path d="M498.921,81.752c-17.441-17.44-45.817-17.441-63.258,0l-86.92,86.92c-3.52,3.52-3.924,8.971-1.222,12.94L167.74,361.395
			c0,0-0.005,0.012-0.013,0.035c-0.758,0.763-1.411,1.639-1.902,2.626l-28.159,56.482c-1.332,2.672-1.397,5.719-0.326,8.371
			l-2.479,2.479c-3.983,3.983-3.983,10.441,0,14.424c1.992,1.992,4.602,2.987,7.212,2.987s5.221-0.996,7.212-2.987l2.476-2.477
			c1.217,0.492,2.515,0.745,3.824,0.745c1.545,0,3.102-0.351,4.548-1.072l56.481-28.159c0.975-0.485,1.841-1.129,2.597-1.875
			c0.04-0.026,0.064-0.041,0.064-0.041L399.057,233.15c1.724,1.174,3.725,1.766,5.728,1.766c2.611,0,5.22-0.995,7.212-2.987
			l86.921-86.921C516.359,127.567,516.359,99.191,498.921,81.752z M160.782,419.889l16.976-34.051l17.075,17.075L160.782,419.889z
			 M212.065,391.294l-22.687-22.687l172.438-172.439l4.131,4.131l-20.134,20.133c-3.983,3.983-3.983,10.441,0,14.425
			c1.992,1.992,4.602,2.987,7.212,2.987c2.61,0,5.221-0.997,7.212-2.987l20.134-20.133l4.132,4.131L212.065,391.294z
			 M484.497,130.582l-79.708,79.708l-9.992-9.992l77.429-77.428c3.983-3.983,3.983-10.441,0-14.424
			c-3.982-3.983-10.44-3.983-14.425,0l-77.429,77.428l-9.991-9.991l79.707-79.708c9.487-9.487,24.922-9.486,34.407,0
			C493.981,105.662,493.981,121.097,484.497,130.582z"/>
	</g>
</g>
<g>
</g>
<g>
</g>
<g>
</g>
<g>
</g>
<g>
</g>
<g>
</g>
<g>
</g>
<g>
</g>
<g>
</g>
<g>
</g>
<g>
</g>
<g>
</g>
<g>
</g>
<g>
</g>
<g>
</g>
</svg>
