<svg xmlns="http://www.w3.org/2000/svg" width="463.5" height="444" viewBox="0 0 463.5 444"><g transform="translate(-3.25 48)"><g transform="translate(-21 -82)"><path d="M485.75,245.875c0-32.977-15.895-59.6-39.56-67.977a84.582,84.582,0,0,0,1.935-18.086c0-38.847-26.133-70.482-58.34-70.748C383.6,58.765,358.049,36,328.75,36c-32.359,0-62.5,28.948-62.5,68.125v303.75c0,39.181,30.143,68.125,62.5,68.125,29.6,0,57.224-24.154,61.83-58.14,31.84-.776,57.545-32.209,57.545-70.735a82.415,82.415,0,0,0-6.285-31.966C467.551,308.638,485.75,281.022,485.75,245.875Zm-55.8,50.75c-.023,0-.047.005-.07.005s-.055,0-.083,0c-1.452.021-36.346.373-38.573-31.206a10,10,0,0,0-19.952,1.408c1.479,20.954,12.4,36.274,31.586,44.3a72.377,72.377,0,0,0,16.909,4.65,60.382,60.382,0,0,1,8.355,31.343c0,27.983-17.383,50.75-38.75,50.75-.762,0-1.533-.042-2.309-.105-4.227-6.865-12.348-17.608-23.411-21.08a24.449,24.449,0,0,0-19.849,2.243,10,10,0,0,0,9.887,17.385,4.491,4.491,0,0,1,3.959-.55c4.8,1.494,10.391,8.763,13.542,14.445C370.042,437.7,348.713,456,328.75,456c-20.524,0-42.5-19.338-42.5-48.125V104.125C286.25,75.338,308.226,56,328.75,56c18.814,0,39.757,15.877,42.236,42.444.034.366.087.725.151,1.08a10.106,10.106,0,0,0,.155,2.263,180.555,180.555,0,0,1,2.4,20.73c.767,14.336-1.161,20.637-2.245,22.373a10,10,0,0,0,2.57,19.819,18.261,18.261,0,0,0,13.169-7.465c8.34-11.015,7.31-33.339,5.486-47.985,19.826,2.2,35.448,24.027,35.448,50.553a63.526,63.526,0,0,1-3.108,19.82,12.243,12.243,0,0,0,9.691,15.89c18.277,2.978,31.042,23.684,31.042,50.353C465.75,274.808,450.381,296.625,429.952,296.625Z" fill="#2d527c" stroke="#2d527c" stroke-width="4"/><path d="M246.25,36h-6.191a32.481,32.481,0,0,0-32.445,32.444V78.451a12.543,12.543,0,0,1-9.066,11.972,171.5,171.5,0,0,0-35.528,14.722,12.467,12.467,0,0,1-14.982-2L140.95,96.06a32.425,32.425,0,0,0-45.883,0l-8.757,8.756a32.484,32.484,0,0,0,0,45.884l7.089,7.088a12.464,12.464,0,0,1,2,14.982A171.529,171.529,0,0,0,80.675,208.3,12.542,12.542,0,0,1,68.7,217.365H58.694A32.48,32.48,0,0,0,26.25,249.809v12.383a32.481,32.481,0,0,0,32.444,32.445H68.7A12.542,12.542,0,0,1,80.673,303.7a171.622,171.622,0,0,0,14.721,35.528,12.463,12.463,0,0,1-2,14.979l-7.091,7.09a32.484,32.484,0,0,0,0,45.884l8.756,8.755a32.424,32.424,0,0,0,45.883,0l7.089-7.088a12.465,12.465,0,0,1,14.982-2,171.589,171.589,0,0,0,35.528,14.723,12.54,12.54,0,0,1,9.066,11.97v10.008A32.48,32.48,0,0,0,240.057,476h6.191a10,10,0,0,0,10-10V46a10,10,0,0,0-10-10Zm-10,314.475a95,95,0,0,1,0-188.949Zm-8.637,93.082V433.549a32.632,32.632,0,0,0-23.535-31.19,151.512,151.512,0,0,1-31.38-13,32.713,32.713,0,0,0-38.8,5.357l-7.089,7.089a12.438,12.438,0,0,1-17.6,0l-8.756-8.755a12.461,12.461,0,0,1,0-17.6l7.091-7.089a32.713,32.713,0,0,0,5.356-38.8,151.512,151.512,0,0,1-13-31.38A32.633,32.633,0,0,0,68.7,274.636H58.694A12.458,12.458,0,0,1,46.25,262.191V249.808a12.458,12.458,0,0,1,12.444-12.444H68.7a32.635,32.635,0,0,0,31.192-23.537,151.533,151.533,0,0,1,13-31.379,32.714,32.714,0,0,0-5.355-38.805l-7.089-7.088a12.459,12.459,0,0,1,0-17.6l8.757-8.756a12.436,12.436,0,0,1,17.6,0l7.088,7.087a32.714,32.714,0,0,0,38.8,5.357,151.477,151.477,0,0,1,31.38-13A32.633,32.633,0,0,0,227.614,78.45V68.444A12.463,12.463,0,0,1,236.251,56.6v84.838a115,115,0,0,0,0,229.121V455.4a12.461,12.461,0,0,1-8.638-11.841Z" fill="#2d527c" stroke="#2d527c" stroke-width="4"/></g></g></svg>