<svg xmlns="http://www.w3.org/2000/svg" xmlns:xlink="http://www.w3.org/1999/xlink" width="512" height="512" viewBox="0 0 512 512"><defs><clipPath id="a"><rect width="512" height="512"/></clipPath></defs><g clip-path="url(#a)"><path d="M6686.022,730.275c-22.191,0-40.245,9.543-48.225,34.03s14.574,49.441,16.308,63.919,7.811,51.355-9.2,68.954-44.18,16.466-32.452,23.33c5.677,3.322,21.822,11.516,38.383,12.129a168.746,168.746,0,0,0,41.05-4.01c11.848-2.98,36.082-14.561,40.75-49.856,6.929-52.377,0-111.118,0-111.118S6708.215,730.275,6686.022,730.275Z" transform="translate(-6565 -619)" fill="#4d4d4d"/><circle cx="127" cy="127" r="127" transform="translate(129 24)" fill="#4d4d4d"/><circle cx="60" cy="60" r="60" transform="translate(80 341)" fill="#263238"/><rect width="68" height="111" transform="translate(80 401)" fill="#263238"/><circle cx="60" cy="60" r="60" transform="translate(313 341)" fill="#263238"/><rect width="70" height="111" transform="translate(363 401)" fill="#263238"/><path d="M0,0H233V171H0Z" transform="translate(140 341)" fill="#263238"/><path d="M0,0H21l95,110H0Z" transform="translate(140 341)" fill="#03566e"/><rect width="233" height="61" transform="translate(140 451)" fill="#03566e"/><path d="M0,0H22V110H-95Z" transform="translate(351 341)" fill="#03566e"/><rect width="54" height="147" rx="27" transform="translate(229 245)" fill="#f4ab90"/><rect width="33" height="76" rx="16.5" transform="translate(140 164)" fill="#f4ab90"/><rect width="33" height="76" rx="16.5" transform="translate(340 166)" fill="#f4ab90"/><rect width="200" height="258" rx="100" transform="translate(156 61)" fill="#ffc8b4"/><rect width="33" height="91" rx="16.5" transform="translate(240 151)" fill="#f4ab90"/><path d="M34.457,6.428C51.707,6.428,69,7.387,69,16.5s-15.489-1.7-34.543-1.7S0,25.613,0,16.5,17.207,6.428,34.457,6.428Z" transform="translate(221 254)" fill="#fff"/><circle cx="18.861" cy="18.861" r="18.861" transform="translate(185 151)" fill="#7591aa"/><path d="M12.825,0c3.372,0,1.6,5.93,4.232,8.385,2.18,2.014,8.593.728,8.593,4.44A12.825,12.825,0,1,1,12.825,0Z" transform="translate(191.036 157.035)" fill="#1b3141"/><g transform="translate(-2)"><path d="M18.861,0A18.861,18.861,0,1,1,0,18.861,18.861,18.861,0,0,1,18.861,0Z" transform="translate(291.79 151)" fill="#7591aa"/><path d="M12.825,0c3.372,0,1.6,5.93,4.232,8.385,2.18,2.014,8.593.728,8.593,4.44A12.825,12.825,0,1,1,12.825,0Z" transform="translate(297.826 157.035)" fill="#1b3141"/></g><path d="M131.953,0C61.812,0,0,45.793,0,117.232c0,5.727.278,14.558,2.313,20.35,1.6,4.551,22.008,43.253,62.639,5.746s95.269-7.179,108.37-19.077C196.387,103.3,194.312,87.3,194.312,87.3s-5.51,29.265,3.48,47.031,31.777,14.339,33.667,29.659c19.54-4.684,27.494-23.744,27.494-34.634a130.813,130.813,0,0,0-15.065-61.161c-1.579-3-3.272-5.929-5.227-9.024A126.223,126.223,0,0,0,131.953,0Z" transform="translate(125)" fill="#4d4d4d"/></g></svg>