<svg xmlns="http://www.w3.org/2000/svg" width="78.525" height="83.139" viewBox="0 0 78.525 83.139"><g transform="translate(-248.992 -91.679)"><circle cx="14" cy="14" r="14" transform="translate(277.514 91.679)" fill="#e8ebec"/><circle cx="12" cy="12" r="12" transform="translate(303.517 126.767)" fill="#e8ebec"/><circle cx="20" cy="20" r="20" transform="translate(248.992 134.817)" fill="#e8ebec"/><path d="M315.255,108.155h-52a.75.75,0,0,1,0-1.5h52a.75.75,0,0,1,0,1.5Z" fill="#00556e"/><rect width="60" height="20" transform="translate(259.255 144.405)" fill="#bdc3d8"/><rect width="48" height="37" transform="translate(265.255 107.405)" fill="#bdc3d8"/><path d="M0,0H52a0,0,0,0,1,0,0V15a1,1,0,0,1-1,1H0a0,0,0,0,1,0,0V0A0,0,0,0,1,0,0Z" transform="translate(259.255 144.405)" fill="#fff"/><rect width="39.999" height="29" transform="translate(265.255 107.405)" fill="#fff"/><path d="M319.255,165.156h-60a.75.75,0,0,1-.75-.75v-20a.75.75,0,0,1,.75-.75h60a.75.75,0,0,1,.75.75v20A.75.75,0,0,1,319.255,165.156Zm-59.25-1.5h58.5v-18.5h-58.5Z" fill="#00556e"/><path d="M313.255,145.156h-48a.75.75,0,0,1-.75-.75v-37a.75.75,0,0,1,.75-.75h48a.75.75,0,0,1,.75.75v37A.75.75,0,0,1,313.255,145.156Zm-47.25-1.5h46.5v-35.5h-46.5Z" fill="#00556e"/><rect width="14" height="14" rx="2" transform="translate(282.255 100.405)" fill="#bdc3d8"/><path d="M2,0H12a0,0,0,0,1,0,0V7a5,5,0,0,1-5,5H0a0,0,0,0,1,0,0V2A2,2,0,0,1,2,0Z" transform="translate(282.255 100.405)" fill="#fff"/><path d="M294.255,115.155h-10a2.752,2.752,0,0,1-2.75-2.75v-10a2.754,2.754,0,0,1,2.75-2.75h10a2.754,2.754,0,0,1,2.75,2.75v10A2.752,2.752,0,0,1,294.255,115.155Zm-10-14a1.251,1.251,0,0,0-1.25,1.25v10a1.25,1.25,0,0,0,1.25,1.25h10a1.251,1.251,0,0,0,1.25-1.25v-10a1.252,1.252,0,0,0-1.25-1.25Z" fill="#00556e"/><rect width="6" height="7" rx="1" transform="translate(280.754 131.906)" fill="#bdc3d8"/><rect width="6" height="7" rx="1" transform="translate(269.753 131.906)" fill="#bdc3d8"/><rect width="6" height="7" rx="1" transform="translate(269.753 119.905)" fill="#bdc3d8"/><rect width="6" height="7" rx="1" transform="translate(291.755 131.906)" fill="#bdc3d8"/><rect width="6" height="7" rx="1" transform="translate(291.755 119.905)" fill="#bdc3d8"/><rect width="6" height="7" rx="1" transform="translate(302.757 131.906)" fill="#bdc3d8"/><rect width="6" height="7" rx="1" transform="translate(302.757 119.905)" fill="#bdc3d8"/><rect width="6" height="7" rx="1" transform="translate(280.754 119.905)" fill="#bdc3d8"/><rect width="4" height="5.047" rx="1" transform="translate(280.754 131.859)" fill="#fff"/><rect width="4" height="5" rx="1" transform="translate(280.754 119.905)" fill="#fff"/><rect width="4.167" height="5.047" rx="1" transform="translate(269.586 131.859)" fill="#fff"/><rect width="4.167" height="5" rx="1" transform="translate(269.586 119.905)" fill="#fff"/><rect width="3.964" height="5.047" rx="1" transform="translate(291.791 131.859)" fill="#fff"/><rect width="3.964" height="5" rx="1" transform="translate(291.791 119.905)" fill="#fff"/><rect width="3.999" height="5.047" rx="1" transform="translate(302.757 131.859)" fill="#fff"/><path d="M0,0H5.5a1,1,0,0,1,1,1V7a1,1,0,0,1-1,1H0A0,0,0,0,1,0,8V0A0,0,0,0,1,0,0Z" transform="translate(270.755 149.408)" fill="#bdc3d8"/><path d="M1,0H6.5a0,0,0,0,1,0,0V8a0,0,0,0,1,0,0H1A1,1,0,0,1,0,7V1A1,1,0,0,1,1,0Z" transform="translate(264.255 149.408)" fill="#bdc3d8"/><path d="M0,0H5.5a1,1,0,0,1,1,1V7a1,1,0,0,1-1,1H0A0,0,0,0,1,0,8V0A0,0,0,0,1,0,0Z" transform="translate(307.754 149.408)" fill="#bdc3d8"/><path d="M1,0H6.5a0,0,0,0,1,0,0V8a0,0,0,0,1,0,0H1A1,1,0,0,1,0,7V1A1,1,0,0,1,1,0Z" transform="translate(301.254 149.408)" fill="#bdc3d8"/><path d="M0,0H4.5a0,0,0,0,1,0,0V5a1,1,0,0,1-1,1H0A0,0,0,0,1,0,6V0A0,0,0,0,1,0,0Z" transform="translate(270.755 149.408)" fill="#fff"/><path d="M1,0H4.5a0,0,0,0,1,0,0V5a1,1,0,0,1-1,1H0A0,0,0,0,1,0,6V1A1,1,0,0,1,1,0Z" transform="translate(264.255 149.408)" fill="#fff"/><path d="M0,0H4.5a0,0,0,0,1,0,0V5a1,1,0,0,1-1,1H0A0,0,0,0,1,0,6V0A0,0,0,0,1,0,0Z" transform="translate(307.754 149.408)" fill="#fff"/><path d="M1,0H4.5a0,0,0,0,1,0,0V5a1,1,0,0,1-1,1H0A0,0,0,0,1,0,6V1A1,1,0,0,1,1,0Z" transform="translate(301.254 149.408)" fill="#fff"/><path d="M0,0H6A1,1,0,0,1,7,1V15a0,0,0,0,1,0,0H0a0,0,0,0,1,0,0V0A0,0,0,0,1,0,0Z" transform="translate(289.255 149.408)" fill="#bdc3d8"/><path d="M1,0H7A0,0,0,0,1,7,0V15a0,0,0,0,1,0,0H0a0,0,0,0,1,0,0V1A1,1,0,0,1,1,0Z" transform="translate(282.255 149.408)" fill="#bdc3d8"/><path d="M0,0H4A0,0,0,0,1,4,0V11a1,1,0,0,1-1,1H0a0,0,0,0,1,0,0V0A0,0,0,0,1,0,0Z" transform="translate(289.255 149.408)" fill="#fff"/><path d="M1,0H4A0,0,0,0,1,4,0V11a1,1,0,0,1-1,1H0a0,0,0,0,1,0,0V1A1,1,0,0,1,1,0Z" transform="translate(282.255 149.408)" fill="#fff"/><rect width="3.999" height="5" rx="1" transform="translate(302.757 119.905)" fill="#fff"/><path d="M285.755,139.657h-4a1.752,1.752,0,0,1-1.75-1.75v-5a1.752,1.752,0,0,1,1.75-1.75h4a1.752,1.752,0,0,1,1.75,1.75v5A1.752,1.752,0,0,1,285.755,139.657Zm-4-7a.25.25,0,0,0-.25.25v5a.251.251,0,0,0,.25.25h4a.251.251,0,0,0,.25-.25v-5a.25.25,0,0,0-.25-.25Z" fill="#00556e"/><path d="M285.755,127.655h-4a1.752,1.752,0,0,1-1.75-1.75v-5a1.752,1.752,0,0,1,1.75-1.75h4a1.752,1.752,0,0,1,1.75,1.75v5A1.752,1.752,0,0,1,285.755,127.655Zm-4-7a.25.25,0,0,0-.25.25v5a.25.25,0,0,0,.25.25h4a.25.25,0,0,0,.25-.25v-5a.25.25,0,0,0-.25-.25Z" fill="#00556e"/><path d="M274.754,139.657h-4a1.752,1.752,0,0,1-1.75-1.75v-5a1.752,1.752,0,0,1,1.75-1.75h4a1.752,1.752,0,0,1,1.75,1.75v5A1.752,1.752,0,0,1,274.754,139.657Zm-4-7a.25.25,0,0,0-.25.25v5a.251.251,0,0,0,.25.25h4a.251.251,0,0,0,.25-.25v-5a.25.25,0,0,0-.25-.25Z" fill="#00556e"/><path d="M274.754,127.655h-4A1.752,1.752,0,0,1,269,125.9v-5a1.752,1.752,0,0,1,1.75-1.75h4a1.752,1.752,0,0,1,1.75,1.75v5A1.752,1.752,0,0,1,274.754,127.655Zm-4-7a.25.25,0,0,0-.25.25v5a.25.25,0,0,0,.25.25h4a.25.25,0,0,0,.25-.25v-5a.25.25,0,0,0-.25-.25Z" fill="#00556e"/><path d="M296.756,139.657h-4a1.752,1.752,0,0,1-1.75-1.75v-5a1.752,1.752,0,0,1,1.75-1.75h4a1.752,1.752,0,0,1,1.75,1.75v5A1.752,1.752,0,0,1,296.756,139.657Zm-4-7a.25.25,0,0,0-.25.25v5a.251.251,0,0,0,.25.25h4a.251.251,0,0,0,.25-.25v-5a.25.25,0,0,0-.25-.25Z" fill="#00556e"/><path d="M296.756,127.655h-4a1.752,1.752,0,0,1-1.75-1.75v-5a1.752,1.752,0,0,1,1.75-1.75h4a1.752,1.752,0,0,1,1.75,1.75v5A1.752,1.752,0,0,1,296.756,127.655Zm-4-7a.25.25,0,0,0-.25.25v5a.25.25,0,0,0,.25.25h4a.25.25,0,0,0,.25-.25v-5a.25.25,0,0,0-.25-.25Z" fill="#00556e"/><path d="M307.757,139.657h-4a1.752,1.752,0,0,1-1.75-1.75v-5a1.752,1.752,0,0,1,1.75-1.75h4a1.752,1.752,0,0,1,1.75,1.75v5A1.752,1.752,0,0,1,307.757,139.657Zm-4-7a.25.25,0,0,0-.25.25v5a.251.251,0,0,0,.25.25h4a.251.251,0,0,0,.25-.25v-5a.25.25,0,0,0-.25-.25Z" fill="#00556e"/><path d="M276.256,158.158h-5.5a.75.75,0,0,1-.75-.75v-8a.75.75,0,0,1,.75-.75h5.5a1.752,1.752,0,0,1,1.75,1.75v6A1.752,1.752,0,0,1,276.256,158.158Zm-4.75-1.5h4.75a.25.25,0,0,0,.25-.25v-6a.25.25,0,0,0-.25-.25h-4.75Z" fill="#00556e"/><path d="M270.756,158.158h-5.5a1.752,1.752,0,0,1-1.75-1.75v-6a1.752,1.752,0,0,1,1.75-1.75h5.5a.75.75,0,0,1,.75.75v8A.75.75,0,0,1,270.756,158.158Zm-5.5-8a.25.25,0,0,0-.25.25v6a.25.25,0,0,0,.25.25h4.75v-6.5Z" fill="#00556e"/><path d="M313.254,158.158h-5.5a.75.75,0,0,1-.75-.75v-8a.75.75,0,0,1,.75-.75h5.5a1.752,1.752,0,0,1,1.75,1.75v6A1.752,1.752,0,0,1,313.254,158.158Zm-4.75-1.5h4.75a.25.25,0,0,0,.25-.25v-6a.25.25,0,0,0-.25-.25H308.5Z" fill="#00556e"/><path d="M307.754,158.158h-5.5a1.752,1.752,0,0,1-1.75-1.75v-6a1.752,1.752,0,0,1,1.75-1.75h5.5a.75.75,0,0,1,.75.75v8A.75.75,0,0,1,307.754,158.158Zm-5.5-8a.25.25,0,0,0-.25.25v6a.25.25,0,0,0,.25.25H307v-6.5Z" fill="#00556e"/><path d="M296.255,165.156h-7a.75.75,0,0,1-.75-.75v-15a.75.75,0,0,1,.75-.75h6a1.752,1.752,0,0,1,1.75,1.75v14A.75.75,0,0,1,296.255,165.156Zm-6.25-1.5h5.5V150.408a.25.25,0,0,0-.25-.25h-5.25Z" fill="#00556e"/><path d="M289.255,165.156h-7a.75.75,0,0,1-.75-.75v-14a1.752,1.752,0,0,1,1.75-1.75h6a.75.75,0,0,1,.75.75v15A.75.75,0,0,1,289.255,165.156Zm-6.25-1.5h5.5v-13.5h-5.25a.25.25,0,0,0-.25.25Z" fill="#00556e"/><path d="M307.757,127.655h-4a1.752,1.752,0,0,1-1.75-1.75v-5a1.752,1.752,0,0,1,1.75-1.75h4a1.752,1.752,0,0,1,1.75,1.75v5A1.752,1.752,0,0,1,307.757,127.655Zm-4-7a.25.25,0,0,0-.25.25v5a.25.25,0,0,0,.25.25h4a.25.25,0,0,0,.25-.25v-5a.25.25,0,0,0-.25-.25Z" fill="#00556e"/><path d="M321.255,165.156h-64a.75.75,0,0,1,0-1.5h64a.75.75,0,0,1,0,1.5Z" fill="#00556e"/><path d="M292.255,108.155h-6a.75.75,0,0,1,0-1.5h6a.75.75,0,0,1,0,1.5Z" fill="#00556e"/><path d="M289.255,111.155a.75.75,0,0,1-.75-.75v-6a.75.75,0,1,1,1.5,0v6A.75.75,0,0,1,289.255,111.155Z" fill="#00556e"/><path d="M321.255,139.153h-4a.75.75,0,0,1,0-1.5h4a.75.75,0,0,1,0,1.5Z" fill="#00556e"/><path d="M319.255,141.153a.75.75,0,0,1-.75-.75v-4a.75.75,0,0,1,1.5,0v4A.75.75,0,0,1,319.255,141.153Z" fill="#00556e"/><circle cx="0.75" cy="0.75" r="0.75" transform="translate(318.505 131.653)" fill="#00556e"/><circle cx="0.75" cy="0.75" r="0.75" transform="translate(318.505 128.653)" fill="#00556e"/><circle cx="0.75" cy="0.75" r="0.75" transform="translate(318.505 124.652)" fill="#00556e"/><circle cx="0.75" cy="0.75" r="0.75" transform="translate(318.505 118.651)" fill="#00556e"/><path d="M261.255,104.155h-4a.75.75,0,0,1,0-1.5h4a.75.75,0,0,1,0,1.5Z" fill="#00556e"/><path d="M259.255,106.155a.75.75,0,0,1-.75-.75v-4a.75.75,0,1,1,1.5,0v4A.75.75,0,0,1,259.255,106.155Z" fill="#00556e"/><circle cx="0.75" cy="0.75" r="0.75" transform="translate(258.504 108.655)" fill="#00556e"/><circle cx="0.75" cy="0.75" r="0.75" transform="translate(258.504 112.655)" fill="#00556e"/><circle cx="0.75" cy="0.75" r="0.75" transform="translate(258.504 117.656)" fill="#00556e"/><circle cx="0.75" cy="0.75" r="0.75" transform="translate(258.504 125.657)" fill="#00556e"/></g></svg>