<svg xmlns="http://www.w3.org/2000/svg" width="40" height="40" viewBox="0 0 40 40">
  <g id="Group_1251" data-name="Group 1251" transform="translate(-3983.136 -2505.01)">
    <path id="Path_76752" data-name="Path 76752" d="M4014.933,2532.9a4.492,4.492,0,1,1,4.492-4.492A4.5,4.5,0,0,1,4014.933,2532.9Z" fill="#03566e"/>
    <path id="Path_76753" data-name="Path 76753" d="M3991.339,2532.9a4.492,4.492,0,1,1,4.493-4.492A4.5,4.5,0,0,1,3991.339,2532.9Z" fill="#03566e"/>
    <path id="Path_76754" data-name="Path 76754" d="M4010.949,2508.135a3.865,3.865,0,0,1-3.475-2.147l-.164-.33a1.172,1.172,0,0,0-1.049-.648h-6.25a1.171,1.171,0,0,0-1.048.648l-.165.329a3.862,3.862,0,0,1-3.474,2.148,1.172,1.172,0,0,0-1.172,1.172v6.687a12.135,12.135,0,0,0,8.648,11.623,1.178,1.178,0,0,0,.673,0,12.136,12.136,0,0,0,8.648-11.623v-6.687a1.172,1.172,0,0,0-1.172-1.172Zm-3.669,6.822-4.42,4.419a1.172,1.172,0,0,1-1.657,0l-2.21-2.21a1.172,1.172,0,0,1,1.658-1.657l1.381,1.381,3.59-3.591a1.172,1.172,0,0,1,1.658,1.658Z" fill="#03566e"/>
    <g id="Group_1104" data-name="Group 1104">
      <g id="Group_1103" data-name="Group 1103">
        <path id="Path_76755" data-name="Path 76755" d="M4019.725,2533.278a6.823,6.823,0,0,1-9.59-.006,8.18,8.18,0,0,0-1.729,1.682l.644.564a8.987,8.987,0,0,1,3.071,6.757v2.735h9.843a1.172,1.172,0,0,0,1.172-1.172v-3.906a8.2,8.2,0,0,0-3.411-6.654Z" fill="#03566e"/>
        <path id="Path_76756" data-name="Path 76756" d="M3986.547,2533.278a8.2,8.2,0,0,0-3.411,6.654v3.906a1.172,1.172,0,0,0,1.172,1.172h9.844v-2.735a8.984,8.984,0,0,1,3.071-6.757l.644-.564a8.2,8.2,0,0,0-1.729-1.682,6.824,6.824,0,0,1-9.591.006Z" fill="#03566e"/>
      </g>
      <path id="Path_76757" data-name="Path 76757" d="M4007.5,2537.281a6.041,6.041,0,0,1-8.738,0,6.626,6.626,0,0,0-2.271,4.994v2.735h13.281v-2.735A6.624,6.624,0,0,0,4007.5,2537.281Z" fill="#03566e"/>
    </g>
    <path id="Path_76758" data-name="Path 76758" d="M4003.136,2536.807a3.711,3.711,0,1,1,3.711-3.711A3.715,3.715,0,0,1,4003.136,2536.807Z" fill="#03566e"/>
  </g>
</svg>
