<svg xmlns="http://www.w3.org/2000/svg" width="498.835" height="519.348" viewBox="0 0 498.835 519.348"><g transform="translate(-10.111 -0.001)"><g transform="translate(10.111 0.001)"><path d="M481.917,268.3a15.816,15.816,0,0,1,0-17.242L500.883,221.9a49.707,49.707,0,0,0-23.892-73.531l-32.479-12.436a15.82,15.82,0,0,1-10.135-13.951l-1.79-34.731a49.709,49.709,0,0,0-62.552-45.445l-33.584,9.03a15.822,15.822,0,0,1-16.4-5.329L298.187,18.46a49.709,49.709,0,0,0-77.316,0L199.006,45.509a15.821,15.821,0,0,1-16.4,5.329l-33.586-9.03A49.71,49.71,0,0,0,86.469,87.253l-1.79,34.731a15.822,15.822,0,0,1-10.135,13.95L42.066,148.37A49.707,49.707,0,0,0,18.172,221.9l18.967,29.151a15.82,15.82,0,0,1,0,17.242L18.175,297.447a49.707,49.707,0,0,0,23.892,73.532l32.479,12.436a15.822,15.822,0,0,1,10.135,13.951l1.79,34.731a49.709,49.709,0,0,0,62.552,45.445l33.584-9.03a15.826,15.826,0,0,1,16.4,5.329l21.864,27.047a49.707,49.707,0,0,0,77.316,0l21.864-27.047a15.831,15.831,0,0,1,16.4-5.329l33.586,9.03A49.71,49.71,0,0,0,432.589,432.1l1.79-34.731a15.822,15.822,0,0,1,10.135-13.95l32.477-12.436a49.71,49.71,0,0,0,23.895-73.533ZM464.87,339.32,432.39,351.756a49.744,49.744,0,0,0-31.869,43.863l-1.79,34.731A15.809,15.809,0,0,1,378.838,444.8l-33.586-9.03a49.739,49.739,0,0,0-51.565,16.755l-21.862,27.047a15.81,15.81,0,0,1-24.59,0l-21.862-27.047a49.718,49.718,0,0,0-51.567-16.755l-33.586,9.03a15.81,15.81,0,0,1-19.893-14.453l-1.79-34.731a49.744,49.744,0,0,0-31.869-43.863L54.187,339.319a15.807,15.807,0,0,1-7.6-23.384l18.966-29.151a49.745,49.745,0,0,0,0-54.219L46.59,203.414a15.807,15.807,0,0,1,7.6-23.385l32.479-12.436a49.744,49.744,0,0,0,31.869-43.863L120.327,89A15.809,15.809,0,0,1,140.22,74.545l33.586,9.03A49.742,49.742,0,0,0,225.371,66.82l21.864-27.048a15.81,15.81,0,0,1,24.589,0l21.864,27.049a49.739,49.739,0,0,0,51.565,16.754l33.586-9.03A15.81,15.81,0,0,1,398.733,89l1.788,34.731a49.744,49.744,0,0,0,31.869,43.863l32.48,12.437a15.807,15.807,0,0,1,7.6,23.384L453.5,232.564a49.741,49.741,0,0,0,0,54.22l18.966,29.15A15.809,15.809,0,0,1,464.87,339.32Z" transform="translate(-10.111 -0.001)" fill="#2d527c"/></g><g transform="translate(157.072 168.332)"><path d="M342.132,170.915a16.951,16.951,0,0,0-23.971,0l-158.2,158.2a16.95,16.95,0,1,0,23.972,23.971l158.2-158.2A16.948,16.948,0,0,0,342.132,170.915Z" transform="translate(-154.993 -165.951)" fill="#2d527c"/></g><g transform="translate(157.071 168.331)"><path d="M188.893,165.95a33.9,33.9,0,1,0,33.9,33.9A33.939,33.939,0,0,0,188.893,165.95Z" transform="translate(-154.993 -165.95)" fill="#2d527c"/></g><g transform="translate(281.375 292.634)"><path d="M311.438,288.495a33.9,33.9,0,1,0,33.9,33.9A33.939,33.939,0,0,0,311.438,288.495Z" transform="translate(-277.538 -288.495)" fill="#2d527c"/></g></g></svg>