<svg xmlns="http://www.w3.org/2000/svg" width="512" height="512" viewBox="0 0 512 512"><path d="M158.074,431l-66,66L81.821,430.178,15,419.925l61-61" fill="none" stroke="#2d527c" stroke-linecap="round" stroke-linejoin="round" stroke-miterlimit="22.926" stroke-width="30" fill-rule="evenodd"/><path d="M354.925,432l65,65,10.253-66.822L497,419.925l-62-62" fill="none" stroke="#2d527c" stroke-linecap="round" stroke-linejoin="round" stroke-miterlimit="22.926" stroke-width="30" fill-rule="evenodd"/><path d="M256,15c19.086-.061,33.232,19.738,51.668,24.678,18.845,5.049,41.4-4.9,58.332,4.8,16.56,9.49,18.91,33.71,32.407,47.206,13.8,13.795,38.31,16.455,48.119,33.319,9.6,16.5-.478,38.649,4.462,57.085C456.037,200.93,475.937,215.49,476,235c.061,19.087-19.738,33.232-24.678,51.668-5.049,18.844,4.9,41.4-4.8,58.332-9.49,16.56-33.71,18.91-47.206,32.406-13.8,13.8-16.455,38.31-33.319,48.119-16.5,9.6-38.649-.478-57.085,4.462-18.845,5.049-33.4,24.95-52.915,25.012-19.087.061-33.232-19.738-51.668-24.678-18.844-5.049-41.4,4.9-58.332-4.8-16.56-9.49-18.911-33.71-32.407-47.206C99.8,364.523,75.283,361.864,65.475,345c-9.6-16.5.478-38.649-4.462-57.085C55.963,269.07,36.062,254.509,36,235c-.061-19.087,19.738-33.232,24.678-51.668,5.049-18.844-4.9-41.4,4.8-58.332,9.49-16.56,33.71-18.91,47.206-32.407C126.475,78.8,129.135,54.283,146,44.474c16.5-9.6,38.649.478,57.085-4.462C221.93,34.963,236.49,15.062,256,15Z" fill="none" stroke="#2d527c" stroke-linecap="round" stroke-linejoin="round" stroke-miterlimit="22.926" stroke-width="30" fill-rule="evenodd"/><circle cx="144.232" cy="144.232" r="144.232" transform="translate(52.024 235) rotate(-45)" fill="none" stroke="#2d527c" stroke-linecap="round" stroke-linejoin="round" stroke-miterlimit="22.926" stroke-width="30"/><path d="M170,342.5v-9.231a60.173,60.173,0,0,1,60-60H282a60.175,60.175,0,0,1,60,60v8.447" fill="none" stroke="#2d527c" stroke-linecap="round" stroke-linejoin="round" stroke-miterlimit="22.926" stroke-width="30" fill-rule="evenodd"/><circle cx="54.917" cy="54.917" r="54.917" transform="translate(201.083 163.512)" fill="none" stroke="#2d527c" stroke-linecap="round" stroke-linejoin="round" stroke-miterlimit="22.926" stroke-width="30"/><line x2="96.181" transform="translate(210.904 210.623)" fill="none" stroke="#2d527c" stroke-linecap="round" stroke-linejoin="round" stroke-miterlimit="22.926" stroke-width="30"/><line y2="38.832" transform="translate(256 284.925)" fill="none" stroke="#2d527c" stroke-linecap="round" stroke-linejoin="round" stroke-miterlimit="22.926" stroke-width="30"/></svg>