<svg xmlns="http://www.w3.org/2000/svg" width="75.87" height="80.831" viewBox="0 0 75.87 80.831"><g transform="translate(-488.595 -92.909)"><circle cx="14" cy="14" r="14" transform="translate(518.168 92.909)" fill="#e8ebec"/><circle cx="12" cy="12" r="12" transform="translate(540.465 136.229)" fill="#e8ebec"/><circle cx="20" cy="20" r="20" transform="translate(488.595 133.74)" fill="#e8ebec"/><rect width="54" height="64" rx="2" transform="translate(496.118 100.356)" fill="#bdc3d8"/><path d="M2,0H46a0,0,0,0,1,0,0V36A21,21,0,0,1,25,57H0a0,0,0,0,1,0,0V2A2,2,0,0,1,2,0Z" transform="translate(496.118 100.356)" fill="#fff"/><path d="M548.118,165.107h-50a2.753,2.753,0,0,1-2.75-2.75v-60a2.754,2.754,0,0,1,2.75-2.75h50a2.753,2.753,0,0,1,2.75,2.75v60A2.752,2.752,0,0,1,548.118,165.107Zm-50-64a1.252,1.252,0,0,0-1.25,1.25v60a1.251,1.251,0,0,0,1.25,1.25h50a1.25,1.25,0,0,0,1.25-1.25v-60a1.251,1.251,0,0,0-1.25-1.25Z" fill="#00556e"/><path d="M534.118,109.107h-22a3.754,3.754,0,0,1-3.75-3.75v-5a.75.75,0,0,1,.75-.75h28a.75.75,0,0,1,.75.75v5A3.754,3.754,0,0,1,534.118,109.107Zm-24.25-8v4.25a2.251,2.251,0,0,0,2.25,2.25h22a2.251,2.251,0,0,0,2.25-2.25v-4.25Z" fill="#00556e"/><circle cx="17" cy="17" r="17" transform="translate(526.117 118.356)" fill="#fff"/><path d="M551.746,120.726a16.976,16.976,0,0,1-23.258,23.258,16.988,16.988,0,1,0,23.258-23.258Z" fill="#bdc3d8"/><path d="M543.117,153.106a17.75,17.75,0,1,1,17.75-17.75A17.77,17.77,0,0,1,543.117,153.106Zm0-34a16.25,16.25,0,1,0,16.25,16.25A16.268,16.268,0,0,0,543.117,119.106Z" fill="#00556e"/><path d="M554.117,131.856h-7.5v-7.5h-7v7.5h-7.5v7h7.5v7.5h7v-7.5h7.5Z" fill="#fff"/><path d="M551.117,131.856v3a1,1,0,0,1-1,1h-5.5a1,1,0,0,0-1,1v5.5a1,1,0,0,1-1,1h-3v3h7v-7.5h7.5v-7Z" fill="#bdc3d8"/><path d="M546.617,147.106h-7a.751.751,0,0,1-.75-.75v-6.75h-6.75a.751.751,0,0,1-.75-.75v-7a.75.75,0,0,1,.75-.75h6.75v-6.75a.75.75,0,0,1,.75-.75h7a.75.75,0,0,1,.75.75v6.75h6.75a.75.75,0,0,1,.75.75v7a.751.751,0,0,1-.75.75h-6.75v6.75A.751.751,0,0,1,546.617,147.106Zm-6.25-1.5h5.5v-6.75a.75.75,0,0,1,.75-.75h6.75v-5.5h-6.75a.751.751,0,0,1-.75-.75v-6.75h-5.5v6.75a.751.751,0,0,1-.75.75h-6.75v5.5h6.75a.75.75,0,0,1,.75.75Z" fill="#00556e"/><path d="M522.117,116.107h-6a.75.75,0,0,1,0-1.5h6a.75.75,0,0,1,0,1.5Z" fill="#00556e"/><path d="M512.117,116.107h-9a.75.75,0,0,1,0-1.5h9a.75.75,0,0,1,0,1.5Z" fill="#00556e"/><path d="M514.116,122.108h-11a.75.75,0,0,1,0-1.5h11a.75.75,0,0,1,0,1.5Z" fill="#00556e"/><path d="M506.115,128.108h-3a.75.75,0,0,1,0-1.5h3a.75.75,0,0,1,0,1.5Z" fill="#00556e"/><path d="M524.117,128.108h-14a.75.75,0,0,1,0-1.5h14a.75.75,0,0,1,0,1.5Z" fill="#00556e"/><path d="M506.115,134.11h-3a.75.75,0,0,1,0-1.5h3a.75.75,0,0,1,0,1.5Z" fill="#00556e"/><path d="M522.51,134.11H510.118a.75.75,0,0,1,0-1.5H522.51a.75.75,0,0,1,0,1.5Z" fill="#00556e"/><path d="M506.115,140.11h-3a.75.75,0,0,1,0-1.5h3a.75.75,0,0,1,0,1.5Z" fill="#00556e"/><path d="M523.117,140.11h-13a.75.75,0,0,1,0-1.5h13a.75.75,0,0,1,0,1.5Z" fill="#00556e"/><path d="M524.767,159.61a.537.537,0,0,1-.07,0,.749.749,0,0,1-.662-.581l-2.763-12.248-1.74,5.666a.747.747,0,0,1-.717.531h-2.244l-2.254,5.215a.758.758,0,0,1-.714.452.748.748,0,0,1-.682-.5l-2.416-6.891-2.078,4.46a.747.747,0,0,1-.647.432.736.736,0,0,1-.682-.373l-1.614-2.794h-2.367a.75.75,0,0,1,0-1.5h2.8a.748.748,0,0,1,.649.375l1.11,1.92,2.247-4.824a.751.751,0,0,1,1.388.069l2.391,6.819,1.688-3.906a.749.749,0,0,1,.688-.453h2.183l2.406-7.835a.75.75,0,0,1,1.448.055l2.875,12.749,1.944-4.515a.748.748,0,0,1,.689-.454h3a.75.75,0,0,1,0,1.5h-2.5l-2.661,6.182A.75.75,0,0,1,524.767,159.61Z" fill="#00556e"/><path d="M559.117,117.858h-4a.75.75,0,0,1,0-1.5h4a.75.75,0,0,1,0,1.5Z" fill="#00556e"/><path d="M557.117,119.858a.75.75,0,0,1-.75-.75v-4a.75.75,0,1,1,1.5,0v4A.75.75,0,0,1,557.117,119.858Z" fill="#00556e"/><circle cx="0.75" cy="0.75" r="0.75" transform="translate(556.367 110.358)" fill="#00556e"/><circle cx="0.75" cy="0.75" r="0.75" transform="translate(556.367 106.357)" fill="#00556e"/><circle cx="0.75" cy="0.75" r="0.75" transform="translate(556.367 100.356)" fill="#00556e"/><path d="M559.117,163.107h-4a.75.75,0,0,1,0-1.5h4a.75.75,0,0,1,0,1.5Z" fill="#00556e"/><path d="M557.117,165.107a.75.75,0,0,1-.75-.75v-4a.75.75,0,0,1,1.5,0v4A.75.75,0,0,1,557.117,165.107Z" fill="#00556e"/><circle cx="0.75" cy="0.75" r="0.75" transform="translate(556.367 155.606)" fill="#00556e"/><circle cx="0.75" cy="0.75" r="0.75" transform="translate(556.367 150.606)" fill="#00556e"/></g></svg>