<svg xmlns="http://www.w3.org/2000/svg" width="463.287" height="516.73" viewBox="0 0 463.287 516.73"><g transform="translate(-24.234 2.5)"><path d="M397.228,315.36V248.868a10,10,0,0,0-20,0v66.489c-88.029,9.3-120.245,122.83-49.415,176.369H46.734V61.993h51.6V82.074a29.652,29.652,0,0,0,29.618,29.619H296.015a29.652,29.652,0,0,0,29.618-29.619V61.993h51.6V160.9c.48,13.228,19.5,13.268,20,0V51.993a10,10,0,0,0-10-10l-123.943,0c-11.773-56.006-90.856-55.967-102.607,0l-123.944,0a10,10,0,0,0-10,10V501.726a10,10,0,0,0,10,10c.019.04,350.465-.03,350.494,0,124.31-3.748,132.749-180.329,10-196.367ZM118.331,61.99h51.387a10,10,0,0,0,10-10c1.624-42.746,62.913-42.728,64.527,0a10,10,0,0,0,10,10h51.386V82.066a9.632,9.632,0,0,1-9.621,9.622H127.953a9.632,9.632,0,0,1-9.622-9.622Zm268.91,429.736c-104-5.2-103.883-151.745.032-156.87C491.172,338.865,491.065,487.8,387.241,491.726Z" fill="#2d527c" stroke="#2d527c" stroke-width="5"/><path d="M323.635,151.559H213.047c-13.254.492-13.244,19.513,0,20H323.635C336.889,171.067,336.879,152.046,323.635,151.559Z" fill="#2d527c" stroke="#2d527c" stroke-width="5"/><path d="M323.635,194.885H213.047c-13.254.492-13.244,19.513,0,20H323.635C336.889,214.393,336.879,195.372,323.635,194.885Z" fill="#2d527c" stroke="#2d527c" stroke-width="5"/><path d="M333.635,277.357a10,10,0,0,0-10-10H213.047c-13.254.492-13.244,19.513,0,20H323.635A10,10,0,0,0,333.635,277.357Z" fill="#2d527c" stroke="#2d527c" stroke-width="5"/><path d="M303.989,320.682a10,10,0,0,0-10-10H213.047c-13.254.492-13.244,19.513,0,20h80.942A10,10,0,0,0,303.989,320.682Z" fill="#2d527c" stroke="#2d527c" stroke-width="5"/><path d="M172.3,152.982a10,10,0,0,0-10-10H99.136a10,10,0,0,0-10,10v61.165a10,10,0,0,0,10,10H162.3a10,10,0,0,0,10-10Zm-20,51.164H109.136V162.981H152.3Z" fill="#2d527c" stroke="#2d527c" stroke-width="5"/><path d="M172.3,268.438a10,10,0,0,0-10-10H99.136a10,10,0,0,0-10,10V329.6a10,10,0,0,0,10,10H162.3a10,10,0,0,0,10-10Zm-20,51.164H109.136V278.438H152.3Z" fill="#2d527c" stroke="#2d527c" stroke-width="5"/><path d="M162.3,374.393H99.136a10,10,0,0,0-10,10v60.164a10,10,0,0,0,10,10H162.3a10,10,0,0,0,10-10V384.393A10,10,0,0,0,162.3,374.393Zm-10,60.164H109.136V394.393H152.3Z" fill="#2d527c" stroke="#2d527c" stroke-width="5"/><path d="M257.8,383.313H213.047c-13.254.492-13.244,19.513,0,20H257.8C271.055,402.821,271.045,383.8,257.8,383.313Z" fill="#2d527c" stroke="#2d527c" stroke-width="5"/><path d="M257.8,426.638H213.047c-13.254.492-13.244,19.513,0,20H257.8C271.055,446.146,271.045,427.126,257.8,426.638Z" fill="#2d527c" stroke="#2d527c" stroke-width="5"/><path d="M202.749,57.406a10.091,10.091,0,0,0,13.06,5.41c11.989-5.655,4.823-22.946-7.65-18.47a10.082,10.082,0,0,0-5.41,13.06Z" fill="#2d527c" stroke="#2d527c" stroke-width="5"/><path d="M396.459,200.176a10.092,10.092,0,0,0-13.06-5.41c-11.988,5.656-4.823,22.946,7.65,18.47A10.088,10.088,0,0,0,396.459,200.176Z" fill="#2d527c" stroke="#2d527c" stroke-width="5"/><path d="M398.63,403.543q-1.709-.6-3.34-1.169c-6.251-2.177-12.715-4.428-14.72-6.619-3.817-4.172-1.254-10.309,3.51-12.253a10.237,10.237,0,0,1,11.246,2.237c9.178,9.441,23.285-3.274,14.831-13.381l.022-.02a30.9,30.9,0,0,0-13.446-8.384v-4.56c-.491-13.251-19.512-13.246-20,0v5.51c-.071.028-.14.052-.211.081a28.089,28.089,0,0,0-17.15,19.965,27.187,27.187,0,0,0,6.443,24.306c5.413,5.916,13.515,8.737,22.9,12,5.412,1.887,10.585,4.489,9.471,11.112a11.6,11.6,0,0,1-11.516,9.786c-7.52.048-9.479-.258-15.07-3.917-11.331-6.866-21.773,9.113-10.949,16.736,6.307,4.127,11.053,5.959,16.581,6.712v5.866c.491,13.251,19.512,13.246,20,0v-7.173a32.13,32.13,0,0,0,20.678-24.7C420.31,421.387,412.563,408.468,398.63,403.543Z" fill="#2d527c" stroke="#2d527c" stroke-width="5"/></g></svg>