<svg height="37.326" viewBox="0 0 58.734 37.326" width="58.734" xmlns="http://www.w3.org/2000/svg"><g transform="translate(-4039.82 -1244.459)"><path d="m4039.831 1263.146a18.651 18.651 0 0 0 12.581 17.641c6.949 2.334 15.493.588 20.117-5.363 3.376-4.17 4.143-9.729 3.778-14.923-5.951-.053-11.9-.036-17.845-.027-.01 2.12 0 4.232.009 6.352 3.563.1 7.127.054 10.691.125a10.311 10.311 0 0 1 -6.059 7.065c-6 2.646-13.666-.811-15.555-7.11a11.809 11.809 0 0 1 7.617-15.065c3.822-1.345 7.76.169 11.03 2.156 1.657-1.551 3.208-3.208 4.731-4.882a18.662 18.662 0 0 0 -13.4-4.6c-9.626.118-18.06 9.009-17.695 18.631z" fill="#dc4e41"/><path d="m4087.889 1255.127c-.018 1.773-.036 3.555-.045 5.328-1.782.018-3.555.026-5.328.035v5.31c1.773.009 3.555.018 5.328.037.018 1.773.018 3.545.035 5.327 1.765 0 3.538-.009 5.31 0 .01-1.782.018-3.554.037-5.336l5.327-.027v-5.31c-1.772-.009-3.554-.018-5.327-.035-.01-1.774-.027-3.556-.037-5.328z" fill="#dc4e41"/><g fill="#fff"><path d="m4039.831 1263.146c-.365-9.622 8.063-18.513 17.694-18.629a18.66 18.66 0 0 1 13.4 4.6c-1.524 1.675-3.074 3.332-4.73 4.882-3.271-1.987-7.209-3.5-11.031-2.156a11.809 11.809 0 0 0 -7.617 15.065c1.889 6.3 9.551 9.756 15.555 7.11a10.313 10.313 0 0 0 6.059-7.064c-3.563-.071-7.128-.027-10.691-.125-.009-2.12-.018-4.233-.009-6.353 5.943-.008 11.894-.026 17.845.027.366 5.195-.4 10.754-3.778 14.923-4.624 5.951-13.167 7.7-20.117 5.363a18.65 18.65 0 0 1 -12.58-17.643z"/><path d="m4087.889 1255.127h5.3c.01 1.773.027 3.555.037 5.328 1.772.018 3.554.026 5.327.035v5.31l-5.327.027c-.018 1.782-.027 3.554-.037 5.336-1.772-.009-3.546 0-5.31 0-.017-1.782-.017-3.554-.035-5.327-1.773-.019-3.555-.027-5.328-.037v-5.309c1.773-.009 3.547-.018 5.328-.036.009-1.772.026-3.554.045-5.327z"/></g></g></svg>