<svg xmlns="http://www.w3.org/2000/svg" width="77.821" height="70" viewBox="0 0 77.821 70">
  <g id="Group_1499" data-name="Group 1499" transform="translate(-4553.673 -5464.019)">
    <path id="Path_82807" data-name="Path 82807" d="M4631.366,5530.858l-3.556-10.666a2.363,2.363,0,0,1,.157-1.832,27.812,27.812,0,0,0-15.811-39.069,33.169,33.169,0,0,1,1.955,18.844,32.6,32.6,0,0,1-26.181,25.924,34.016,34.016,0,0,1-5.147.5,27.79,27.79,0,0,0,33.021,5.915,2.358,2.358,0,0,1,1.822-.151l10.707,3.569a2.4,2.4,0,0,0,3.033-3.034" fill="#fff"/>
    <path id="Path_82808" data-name="Path 82808" d="M4576.606,5464.516a27.8,27.8,0,0,0-19.407,40.016,2.357,2.357,0,0,1,.157,1.832l-3.556,10.666a2.4,2.4,0,0,0,3.034,3.033l10.706-3.568a2.358,2.358,0,0,1,1.822.151,27.83,27.83,0,1,0,7.244-52.13m16.977,30.588a.987.987,0,0,1-.987.988h-6.915v6.914a.989.989,0,0,1-.987.988h-7.9a.988.988,0,0,1-.988-.988v-6.914h-6.914a.988.988,0,0,1-.988-.988v-7.9a.989.989,0,0,1,.988-.987h6.914V5479.3a.987.987,0,0,1,.988-.987h7.9a.987.987,0,0,1,.987.987v6.915h6.915a.987.987,0,0,1,.987.987Z" fill="#fff"/>
  </g>
</svg>
