<svg xmlns="http://www.w3.org/2000/svg" width="37.864" height="31.468" viewBox="0 0 37.864 31.468">
  <path id="Path_2739" data-name="Path 2739" d="M698.726,223.269a10.648,10.648,0,0,0-15.056,0l-.758.758-.758-.758a10.637,10.637,0,1,0-14.586,15.466l13.985,12.37a2.05,2.05,0,0,0,2.718,0l13.985-12.37a10.551,10.551,0,0,0,.47-15.465Zm-3.254,12.094h-3.98l-1.44,5.011a.967.967,0,0,1-.93.7h-.028a.968.968,0,0,1-.917-.754l-1.92-8.472-1.124,4.158a.968.968,0,0,1-.935.716h-1.784a.967.967,0,0,1-.909-.637l-.44-1.207-.939,3.08a.968.968,0,0,1-1.873-.08l-1.119-5.236-.96,2.4a.968.968,0,0,1-.9.608h-4.923a.968.968,0,1,1,0-1.936h4.268l1.9-4.741a.968.968,0,0,1,1.846.157l1,4.688.693-2.272a.968.968,0,0,1,.9-.685h.026a.967.967,0,0,1,.909.637l1.2,3.29h.365l1.947-7.205a.968.968,0,0,1,1.879.038l1.949,8.6.6-2.089a.969.969,0,0,1,.931-.7h4.709a.968.968,0,1,1,0,1.936Z" transform="translate(-663.98 -220.151)" fill="#fff"/>
</svg>
