<svg xmlns="http://www.w3.org/2000/svg" width="36.364" height="40" viewBox="0 0 36.364 40">
  <g id="Group_1253" data-name="Group 1253" transform="translate(-3984.954 -2689.724)">
    <path id="Path_76762" data-name="Path 76762" d="M4018.943,2695.178h-19.636l1.09-3.091a1.818,1.818,0,0,0-1.818-2.363h-8.909a1.805,1.805,0,0,0-1.818,1.273l-2.364,7.818h28.364a1.717,1.717,0,0,1,1.818,1.818v29.091l5.091-32.364a1.918,1.918,0,0,0-1.818-2.182" fill="#03566e"/>
    <path id="Path_76763" data-name="Path 76763" d="M4019.5,2700.633h-32.727a1.718,1.718,0,0,0-1.819,1.818v27.273h36.364v-27.273a1.717,1.717,0,0,0-1.818-1.818m-16.364,23.636a9.091,9.091,0,1,1,9.091-9.091,9,9,0,0,1-9.091,9.091" fill="#03566e"/>
    <path id="Path_76764" data-name="Path 76764" d="M4004.955,2713.36v-3.636h-3.636v3.636h-3.636V2717h3.636v3.636h3.636V2717h3.636v-3.636Z" fill="#03566e"/>
  </g>
</svg>
