<svg xmlns="http://www.w3.org/2000/svg" width="79.249" height="80.679" viewBox="0 0 79.249 80.679">
  <g id="Group_2247" data-name="Group 2247" transform="translate(-195.578 -2728.544)">
    <g id="Group_1957" data-name="Group 1957" opacity="0.3">
      <circle id="Ellipse_501" data-name="Ellipse 501" cx="14" cy="14" r="14" transform="translate(195.578 2770.793)" fill="#e8ebec"/>
    </g>
    <g id="Group_1958" data-name="Group 1958" opacity="0.3">
      <circle id="Ellipse_502" data-name="Ellipse 502" cx="12" cy="12" r="12" transform="translate(224.578 2728.544)" fill="#e8ebec"/>
    </g>
    <g id="Group_1959" data-name="Group 1959" opacity="0.3">
      <circle id="Ellipse_503" data-name="Ellipse 503" cx="20" cy="20" r="20" transform="translate(234.827 2769.222)" fill="#e8ebec"/>
    </g>
    <g id="Group_1987" data-name="Group 1987">
      <g id="Group_1960" data-name="Group 1960">
        <path id="Path_2488" data-name="Path 2488" d="M247.878,2788.051a63.968,63.968,0,0,1-36.919-50.329h-4.38a3.981,3.981,0,0,0-3.993,4.2,64.093,64.093,0,0,0,59.781,59.791,3.994,3.994,0,0,0,4.211-4.006v-4.366A63.757,63.757,0,0,1,247.878,2788.051Z" fill="#fff"/>
      </g>
      <g id="Group_1961" data-name="Group 1961">
        <path id="Path_2489" data-name="Path 2489" d="M247.878,2788.051a63.968,63.968,0,0,1-36.919-50.329h-4.346a68.964,68.964,0,0,0,59.965,59.965v-4.345A63.757,63.757,0,0,1,247.878,2788.051Z" fill="#bdc3d8"/>
      </g>
      <g id="Group_1962" data-name="Group 1962">
        <path id="Path_2490" data-name="Path 2490" d="M262.626,2802.472c-.1,0-.205,0-.308-.01a64.956,64.956,0,0,1-60.481-60.492,4.623,4.623,0,0,1,1.259-3.488,4.792,4.792,0,0,1,3.483-1.509h4.379a.752.752,0,0,1,.745.658A63.217,63.217,0,0,0,266.67,2792.6a.751.751,0,0,1,.658.745v4.367a4.805,4.805,0,0,1-1.514,3.493A4.63,4.63,0,0,1,262.626,2802.472Zm-56.047-64a3.285,3.285,0,0,0-2.389,1.036,3.136,3.136,0,0,0-.856,2.366,63.454,63.454,0,0,0,59.081,59.091,3.153,3.153,0,0,0,2.373-.859,3.3,3.3,0,0,0,1.04-2.4V2794a64.421,64.421,0,0,1-18.262-5.269h0a64.716,64.716,0,0,1-37.267-50.259Z" fill="#00556e"/>
      </g>
      <g id="Group_1963" data-name="Group 1963">
        <path id="Path_2491" data-name="Path 2491" d="M219.929,2756.427a2.676,2.676,0,0,0,2.383-3.878,63.646,63.646,0,0,1-4.4-11.852,3.986,3.986,0,0,0-3.859-2.975h-3.089a63.721,63.721,0,0,0,5.293,18.705Z" fill="#fff"/>
      </g>
      <g id="Group_1964" data-name="Group 1964">
        <path id="Path_2492" data-name="Path 2492" d="M222.312,2752.549a63.646,63.646,0,0,1-4.4-11.852,3.986,3.986,0,0,0-3.859-2.975h-.272c.045.123.1.242.131.371a63.658,63.658,0,0,0,5.449,13.891,1.241,1.241,0,0,1-1.082,1.839h-3.137c.354.877.722,1.747,1.115,2.6h3.677A2.676,2.676,0,0,0,222.312,2752.549Z" fill="#bdc3d8"/>
      </g>
      <g id="Group_1965" data-name="Group 1965">
        <path id="Path_2493" data-name="Path 2493" d="M219.929,2757.177h-3.677a.748.748,0,0,1-.682-.437,64.488,64.488,0,0,1-5.356-18.924.751.751,0,0,1,.744-.843h3.09a4.741,4.741,0,0,1,4.584,3.534,63.066,63.066,0,0,0,4.354,11.712,3.445,3.445,0,0,1-.166,3.358A3.384,3.384,0,0,1,219.929,2757.177Zm-3.194-1.5h3.194a1.871,1.871,0,0,0,1.619-.894,1.951,1.951,0,0,0,.09-1.9,64.709,64.709,0,0,1-4.457-11.993,3.239,3.239,0,0,0-3.133-2.414h-2.235A62.942,62.942,0,0,0,216.735,2755.677Z" fill="#00556e"/>
      </g>
      <g id="Group_1966" data-name="Group 1966">
        <path id="Path_2494" data-name="Path 2494" d="M251.215,2789.446a63.815,63.815,0,0,0,15.363,3.892v-3.082a4,4,0,0,0-2.994-3.868,63.679,63.679,0,0,1-11.878-4.422,2.667,2.667,0,0,0-3.828,2.41v3.675a63.757,63.757,0,0,0,18.7,5.291v0A63.815,63.815,0,0,1,251.215,2789.446Z" fill="#fff"/>
      </g>
      <g id="Group_1967" data-name="Group 1967">
        <path id="Path_2495" data-name="Path 2495" d="M263.584,2786.388a63.679,63.679,0,0,1-11.878-4.422,2.66,2.66,0,0,0-3.744,1.77,2.58,2.58,0,0,1,.744.231,63.711,63.711,0,0,0,13.165,4.745,2.2,2.2,0,0,1,1.706,2.134v2.038c.3.052.606.109.911.157s.587.085.88.127c.4.057.8.119,1.21.17v-3.082A4,4,0,0,0,263.584,2786.388Z" fill="#bdc3d8"/>
      </g>
      <g id="Group_1968" data-name="Group 1968">
        <path id="Path_2496" data-name="Path 2496" d="M266.576,2794.092a.681.681,0,0,1-.091-.006,64.43,64.43,0,0,1-18.919-5.354.749.749,0,0,1-.438-.681v-3.675a3.411,3.411,0,0,1,1.619-2.913,3.372,3.372,0,0,1,3.289-.169,63.159,63.159,0,0,0,11.738,4.369,4.757,4.757,0,0,1,3.554,4.594v3.087a.755.755,0,0,1-.752.748Zm-15.242-5.386a.669.669,0,0,1,.154.042,63.1,63.1,0,0,0,14.34,3.735v-2.226a3.256,3.256,0,0,0-2.434-3.143,64.639,64.639,0,0,1-12.019-4.474,1.859,1.859,0,0,0-1.835.1,1.922,1.922,0,0,0-.912,1.64v3.191Q249.967,2788.169,251.334,2788.706Z" fill="#00556e"/>
      </g>
      <g id="Group_1969" data-name="Group 1969">
        <path id="Path_2497" data-name="Path 2497" d="M236.578,2771.722h18l12,8v-38a4,4,0,0,0-4-4h-26a4,4,0,0,0-4,4v26A4,4,0,0,0,236.578,2771.722Z" fill="#bdc3d8"/>
      </g>
      <g id="Group_1970" data-name="Group 1970">
        <path id="Path_2498" data-name="Path 2498" d="M235.578,2767.722h19.039a3,3,0,0,1,1.744.559l5.426,3.877a.5.5,0,0,0,.79-.407v-31.029a3,3,0,0,0-3-3h-23a4,4,0,0,0-4,4v23A3,3,0,0,0,235.578,2767.722Z" fill="#fff"/>
      </g>
      <g id="Group_1971" data-name="Group 1971">
        <path id="Path_2499" data-name="Path 2499" d="M266.578,2780.474a.745.745,0,0,1-.416-.126l-11.811-7.875H236.578a4.754,4.754,0,0,1-4.75-4.75v-26a4.755,4.755,0,0,1,4.75-4.75h26a4.756,4.756,0,0,1,4.75,4.75v38a.751.751,0,0,1-.75.75Zm-30-42a3.254,3.254,0,0,0-3.25,3.25v26a3.254,3.254,0,0,0,3.25,3.25h18a.751.751,0,0,1,.416.126l10.834,7.224v-36.6a3.254,3.254,0,0,0-3.25-3.25Z" fill="#00556e"/>
      </g>
      <g id="Group_1972" data-name="Group 1972">
        <path id="Path_2500" data-name="Path 2500" d="M259.661,2751.056h-6.417v-6.416a.918.918,0,0,0-.917-.917h-5.5a.917.917,0,0,0-.916.917v6.416h-6.417a.918.918,0,0,0-.917.917v5.5a.917.917,0,0,0,.917.917h6.417v6.416a.916.916,0,0,0,.916.917h5.5a.917.917,0,0,0,.917-.917v-6.416h6.417a.917.917,0,0,0,.916-.917v-5.5A.917.917,0,0,0,259.661,2751.056Z" fill="#bdc3d8"/>
      </g>
      <g id="Group_1973" data-name="Group 1973">
        <path id="Path_2501" data-name="Path 2501" d="M257.827,2751.056h-4.583v-6.416a.918.918,0,0,0-.917-.917h-5.5a.917.917,0,0,0-.916.917v6.416h-6.417a.917.917,0,0,0-.917.917v5.5a.917.917,0,0,0,.917.917h6.417v4.583h3.666a.918.918,0,0,0,.917-.917v-4.583a1.834,1.834,0,0,1,1.833-1.834h4.583a.916.916,0,0,0,.917-.916Z" fill="#fff"/>
      </g>
      <g id="Group_1974" data-name="Group 1974">
        <path id="Path_2502" data-name="Path 2502" d="M252.327,2766.473h-5.5a1.668,1.668,0,0,1-1.667-1.666v-5.667h-5.666a1.669,1.669,0,0,1-1.667-1.667v-5.5a1.668,1.668,0,0,1,1.667-1.666h5.666v-5.667a1.669,1.669,0,0,1,1.667-1.667h5.5a1.669,1.669,0,0,1,1.667,1.667v5.667h5.666a1.668,1.668,0,0,1,1.667,1.666v5.5a1.669,1.669,0,0,1-1.667,1.667h-5.666v5.667A1.668,1.668,0,0,1,252.327,2766.473Zm-12.833-14.666a.167.167,0,0,0-.167.166v5.5a.167.167,0,0,0,.167.167h6.416a.75.75,0,0,1,.75.75v6.417a.166.166,0,0,0,.167.166h5.5a.166.166,0,0,0,.167-.166v-6.417a.75.75,0,0,1,.75-.75h6.416a.167.167,0,0,0,.167-.167v-5.5a.167.167,0,0,0-.167-.166h-6.416a.75.75,0,0,1-.75-.75v-6.417a.168.168,0,0,0-.167-.167h-5.5a.168.168,0,0,0-.167.167v6.417a.75.75,0,0,1-.75.75Z" fill="#00556e"/>
      </g>
      <g id="Group_1975" data-name="Group 1975">
        <path id="Path_2503" data-name="Path 2503" d="M219.964,2799.472H218.58a.75.75,0,0,1,0-1.5h1.384a.75.75,0,0,1,0,1.5Z" fill="#00556e"/>
      </g>
      <g id="Group_1976" data-name="Group 1976">
        <path id="Path_2504" data-name="Path 2504" d="M224.58,2799.472H223.2a.75.75,0,1,1,0-1.5h1.385a.75.75,0,0,1,0,1.5Z" fill="#00556e"/>
      </g>
      <g id="Group_1977" data-name="Group 1977">
        <path id="Path_2505" data-name="Path 2505" d="M221.58,2802.472a.75.75,0,0,1-.75-.75v-1.384a.75.75,0,0,1,1.5,0v1.384A.75.75,0,0,1,221.58,2802.472Z" fill="#00556e"/>
      </g>
      <g id="Group_1978" data-name="Group 1978">
        <path id="Path_2506" data-name="Path 2506" d="M221.58,2797.856a.75.75,0,0,1-.75-.75v-1.384a.75.75,0,0,1,1.5,0v1.384A.75.75,0,0,1,221.58,2797.856Z" fill="#00556e"/>
      </g>
      <g id="Group_1979" data-name="Group 1979">
        <path id="Path_2507" data-name="Path 2507" d="M206.962,2779.47h-1.384a.75.75,0,0,1,0-1.5h1.384a.75.75,0,0,1,0,1.5Z" fill="#00556e"/>
      </g>
      <g id="Group_1980" data-name="Group 1980">
        <path id="Path_2508" data-name="Path 2508" d="M211.578,2779.47h-1.385a.75.75,0,0,1,0-1.5h1.385a.75.75,0,0,1,0,1.5Z" fill="#00556e"/>
      </g>
      <g id="Group_1981" data-name="Group 1981">
        <path id="Path_2509" data-name="Path 2509" d="M208.578,2782.47a.75.75,0,0,1-.75-.75v-1.384a.75.75,0,0,1,1.5,0v1.384A.75.75,0,0,1,208.578,2782.47Z" fill="#00556e"/>
      </g>
      <g id="Group_1982" data-name="Group 1982">
        <path id="Path_2510" data-name="Path 2510" d="M208.578,2777.854a.75.75,0,0,1-.75-.75v-1.384a.75.75,0,0,1,1.5,0v1.384A.75.75,0,0,1,208.578,2777.854Z" fill="#00556e"/>
      </g>
      <g id="Group_1983" data-name="Group 1983">
        <path id="Path_2511" data-name="Path 2511" d="M203.962,2791.471h-1.384a.75.75,0,0,1,0-1.5h1.384a.75.75,0,0,1,0,1.5Z" fill="#00556e"/>
      </g>
      <g id="Group_1984" data-name="Group 1984">
        <path id="Path_2512" data-name="Path 2512" d="M208.578,2791.471h-1.385a.75.75,0,0,1,0-1.5h1.385a.75.75,0,0,1,0,1.5Z" fill="#00556e"/>
      </g>
      <g id="Group_1985" data-name="Group 1985">
        <path id="Path_2513" data-name="Path 2513" d="M205.578,2794.471a.75.75,0,0,1-.75-.75v-1.384a.75.75,0,0,1,1.5,0v1.384A.75.75,0,0,1,205.578,2794.471Z" fill="#00556e"/>
      </g>
      <g id="Group_1986" data-name="Group 1986">
        <path id="Path_2514" data-name="Path 2514" d="M205.578,2789.856a.75.75,0,0,1-.75-.75v-1.385a.75.75,0,0,1,1.5,0v1.385A.75.75,0,0,1,205.578,2789.856Z" fill="#00556e"/>
      </g>
    </g>
  </g>
</svg>
