<svg height="48.648" viewBox="0 0 54.083 48.648" width="54.083" xmlns="http://www.w3.org/2000/svg"><g fill="#ed4e07" transform="translate(-617.702 -1204.675)"><path d="m671.7 1251.127-2.471-7.413a1.638 1.638 0 0 1 .109-1.273 19.329 19.329 0 0 0 -10.988-27.152 23.052 23.052 0 0 1 1.358 13.1 22.661 22.661 0 0 1 -18.2 18.016 23.508 23.508 0 0 1 -3.577.347 19.313 19.313 0 0 0 22.949 4.112 1.638 1.638 0 0 1 1.266-.106l7.441 2.481a1.667 1.667 0 0 0 2.108-2.108"/><path d="m633.639 1205.02a19.324 19.324 0 0 0 -13.487 27.811 1.637 1.637 0 0 1 .109 1.273l-2.471 7.412a1.666 1.666 0 0 0 2.108 2.108l7.441-2.48a1.637 1.637 0 0 1 1.266.106 19.342 19.342 0 1 0 5.034-36.23m11.8 21.258a.687.687 0 0 1 -.687.687h-4.8v4.805a.686.686 0 0 1 -.686.686h-5.492a.686.686 0 0 1 -.686-.686v-4.805h-4.8a.687.687 0 0 1 -.687-.687v-5.491a.688.688 0 0 1 .687-.687h4.8v-4.8a.686.686 0 0 1 .686-.686h5.492a.686.686 0 0 1 .686.686v4.8h4.8a.688.688 0 0 1 .687.687z"/></g></svg>