<svg xmlns="http://www.w3.org/2000/svg" width="54.211" height="55" viewBox="0 0 54.211 55">
  <g id="Group_2244" data-name="Group 2244" transform="translate(-336.388 -1454.742)">
    <g id="Group_2093" data-name="Group 2093" opacity="0.33">
      <circle id="Ellipse_528" data-name="Ellipse 528" cx="10.334" cy="10.334" r="10.334" transform="translate(340.151 1489.075)" fill="#fdb933"/>
    </g>
    <g id="Group_2094" data-name="Group 2094" opacity="0.33">
      <circle id="Ellipse_529" data-name="Ellipse 529" cx="8.857" cy="8.857" r="8.857" transform="translate(336.388 1461.683)" fill="#fdb933"/>
    </g>
    <g id="Group_2095" data-name="Group 2095" opacity="0.33">
      <circle id="Ellipse_530" data-name="Ellipse 530" cx="14.762" cy="14.762" r="14.762" transform="translate(361.075 1454.742)" fill="#fdb933"/>
    </g>
    <g id="Group_2129" data-name="Group 2129">
      <g id="Group_2096" data-name="Group 2096">
        <circle id="Ellipse_531" data-name="Ellipse 531" cx="22.881" cy="22.881" r="22.881" transform="translate(340.017 1459.56)" fill="#fff"/>
      </g>
      <g id="Group_2097" data-name="Group 2097">
        <path id="Path_2587" data-name="Path 2587" d="M362.9,1459.56a23.01,23.01,0,0,0-2.6.152,22.879,22.879,0,0,1-5.874,43.984,22.881,22.881,0,1,0,8.474-44.136Z" fill="#bdc3d8"/>
      </g>
      <g id="Group_2098" data-name="Group 2098">
        <path id="Path_2588" data-name="Path 2588" d="M362.9,1505.877a23.435,23.435,0,1,1,23.435-23.435A23.462,23.462,0,0,1,362.9,1505.877Zm0-45.763a22.328,22.328,0,1,0,22.328,22.328A22.353,22.353,0,0,0,362.9,1460.114Z" fill="#00556e"/>
      </g>
      <g id="Group_2099" data-name="Group 2099">
        <path id="Path_2589" data-name="Path 2589" d="M344.653,1488.958a.553.553,0,0,1-.526-.381A19.82,19.82,0,0,1,345,1474.1a.553.553,0,0,1,1,.468,18.713,18.713,0,0,0-.822,13.664.554.554,0,0,1-.354.7A.578.578,0,0,1,344.653,1488.958Z" fill="#00556e"/>
      </g>
      <g id="Group_2100" data-name="Group 2100">
        <path id="Path_2590" data-name="Path 2590" d="M347.3,1471.821a.553.553,0,0,1-.45-.875,19.827,19.827,0,0,1,1.58-1.934.554.554,0,0,1,.812.754,18.553,18.553,0,0,0-1.492,1.825A.552.552,0,0,1,347.3,1471.821Z" fill="#00556e"/>
      </g>
      <g id="Group_2101" data-name="Group 2101">
        <path id="Path_2591" data-name="Path 2591" d="M369.828,1463.018l-5.163,5.163a80.341,80.341,0,0,0-11.5,14.519l-9.859,15.925,3.407,3.407,15.926-9.858a80.3,80.3,0,0,0,14.518-11.5l5.164-5.163Z" fill="#fff"/>
      </g>
      <g id="Group_2102" data-name="Group 2102">
        <path id="Path_2592" data-name="Path 2592" d="M377.9,1476.985a80.3,80.3,0,0,1-14.518,11.5l-14.932,9.243a1.478,1.478,0,0,1-1.821-.211L345,1495.89l-1.694,2.735,3.407,3.407,15.926-9.858a80.3,80.3,0,0,0,14.518-11.5l5.164-5.163-1.477-1.476Z" fill="#bdc3d8"/>
      </g>
      <g id="Group_2103" data-name="Group 2103">
        <path id="Path_2593" data-name="Path 2593" d="M346.715,1502.586a.55.55,0,0,1-.391-.163l-3.406-3.405a.554.554,0,0,1-.08-.683l9.859-15.927a80.927,80.927,0,0,1,11.578-14.618l5.163-5.164a.569.569,0,0,1,.783,0l12.493,12.495a.551.551,0,0,1,0,.782l-5.163,5.164a80.952,80.952,0,0,1-14.619,11.578l-15.926,9.858A.56.56,0,0,1,346.715,1502.586Zm-2.7-4.042,2.785,2.787,15.554-9.627a79.85,79.85,0,0,0,14.418-11.42l4.772-4.772L369.829,1463.8l-4.772,4.772a79.79,79.79,0,0,0-11.419,14.418Z" fill="#00556e"/>
      </g>
      <g id="Group_2104" data-name="Group 2104">
        <path id="Path_2594" data-name="Path 2594" d="M343.308,1498.625l-4.122,4.122a2.2,2.2,0,0,0,0,3.115l.293.292a2.2,2.2,0,0,0,3.114,0l4.123-4.121Z" fill="#fff"/>
      </g>
      <g id="Group_2105" data-name="Group 2105">
        <path id="Path_2595" data-name="Path 2595" d="M342.593,1503.2a2.2,2.2,0,0,1-3.114,0l-.293-.293c-.025-.025-.042-.055-.066-.081a2.2,2.2,0,0,0,.066,3.034l.293.292a2.2,2.2,0,0,0,3.114,0l4.123-4.121-1.477-1.476Z" fill="#bdc3d8"/>
      </g>
      <g id="Group_2106" data-name="Group 2106">
        <path id="Path_2596" data-name="Path 2596" d="M341.036,1507.352a2.748,2.748,0,0,1-1.948-.806l-.292-.291a2.761,2.761,0,0,1,0-3.9l4.122-4.123a.556.556,0,0,1,.783,0l3.407,3.408a.553.553,0,0,1,0,.782l-4.121,4.123A2.752,2.752,0,0,1,341.036,1507.352Zm2.272-7.944-3.73,3.731a1.649,1.649,0,0,0,0,2.331l.292.292a1.652,1.652,0,0,0,2.333,0l3.73-3.731Z" fill="#00556e"/>
      </g>
      <g id="Group_2107" data-name="Group 2107">
        <path id="Path_2597" data-name="Path 2597" d="M384.49,1467.116l-6.265-6.265a4.4,4.4,0,0,0-6.229,0l-2.167,2.166,12.494,12.494,2.167-2.167A4.4,4.4,0,0,0,384.49,1467.116Z" fill="#fff"/>
      </g>
      <g id="Group_2108" data-name="Group 2108">
        <path id="Path_2598" data-name="Path 2598" d="M384.49,1469.654l-1.123,1.123a1.476,1.476,0,0,1-2.088,0l-9.6-9.6-1.846,1.845,12.494,12.494,2.167-2.167a4.391,4.391,0,0,0,.868-4.959A4.372,4.372,0,0,1,384.49,1469.654Z" fill="#bdc3d8"/>
      </g>
      <g id="Group_2109" data-name="Group 2109">
        <path id="Path_2599" data-name="Path 2599" d="M382.323,1476.066a.551.551,0,0,1-.391-.163l-12.494-12.494a.55.55,0,0,1-.162-.391.556.556,0,0,1,.162-.392l2.167-2.167a4.959,4.959,0,0,1,7.012,0l6.265,6.266h0a4.964,4.964,0,0,1,0,7.012l-2.168,2.166A.551.551,0,0,1,382.323,1476.066Zm-11.711-13.048,11.711,11.71,1.776-1.775a3.854,3.854,0,0,0,0-5.446l-6.265-6.265a3.851,3.851,0,0,0-5.446,0Z" fill="#00556e"/>
      </g>
      <g id="Group_2110" data-name="Group 2110">
        <path id="Path_2600" data-name="Path 2600" d="M358.373,1486.969a2.03,2.03,0,1,1-2.871,0A2.029,2.029,0,0,1,358.373,1486.969Z" fill="#fff"/>
      </g>
      <g id="Group_2111" data-name="Group 2111">
        <path id="Path_2601" data-name="Path 2601" d="M358.373,1486.969a2.044,2.044,0,0,0-.224-.184,2.022,2.022,0,0,1-3.24,1.6,2.029,2.029,0,1,0,3.464-1.42Z" fill="#bdc3d8"/>
      </g>
      <g id="Group_2112" data-name="Group 2112">
        <path id="Path_2602" data-name="Path 2602" d="M356.938,1490.987a2.583,2.583,0,0,1-1.827-4.41,2.646,2.646,0,0,1,3.653,0h0a2.584,2.584,0,0,1-1.826,4.41Zm0-4.06a1.476,1.476,0,0,0-1.044,2.52,1.51,1.51,0,0,0,2.087,0,1.475,1.475,0,0,0,0-2.088h0A1.464,1.464,0,0,0,356.938,1486.927Z" fill="#00556e"/>
      </g>
      <g id="Group_2113" data-name="Group 2113">
        <path id="Rectangle_474" data-name="Rectangle 474" d="M2.215,0h13.24a2.214,2.214,0,0,1,2.214,2.214v2a2.215,2.215,0,0,1-2.215,2.215H2.214A2.214,2.214,0,0,1,0,4.211v-2A2.215,2.215,0,0,1,2.215,0Z" transform="matrix(0.707, -0.707, 0.707, 0.707, 358.64, 1482.157)" fill="#fff"/>
      </g>
      <g id="Group_2114" data-name="Group 2114">
        <path id="Path_2603" data-name="Path 2603" d="M374.112,1473.558l-8.334,8.334a3.668,3.668,0,0,1-5.188,0l-.384-.384a2.171,2.171,0,0,1-.342-.458,2.209,2.209,0,0,0,.342,2.673l1.412,1.412a2.213,2.213,0,0,0,3.131,0l9.363-9.363a2.209,2.209,0,0,0,.342-2.673A2.178,2.178,0,0,1,374.112,1473.558Z" fill="#bdc3d8"/>
      </g>
      <g id="Group_2115" data-name="Group 2115">
        <path id="Path_2604" data-name="Path 2604" d="M363.183,1486.335a2.763,2.763,0,0,1-1.957-.809l-1.411-1.412a2.765,2.765,0,0,1,0-3.913l9.362-9.363a2.77,2.77,0,0,1,3.915,0l1.411,1.411a2.772,2.772,0,0,1,0,3.915l-9.362,9.362A2.762,2.762,0,0,1,363.183,1486.335Zm7.951-15.2a1.655,1.655,0,0,0-1.174.485l-9.362,9.363a1.66,1.66,0,0,0,0,2.349l1.411,1.411a1.663,1.663,0,0,0,2.349,0l9.362-9.361a1.665,1.665,0,0,0,0-2.35l-1.411-1.412A1.657,1.657,0,0,0,371.134,1471.135Z" fill="#00556e"/>
      </g>
      <g id="Group_2116" data-name="Group 2116">
        <path id="Path_2605" data-name="Path 2605" d="M364.02,1482.056a.74.74,0,1,1,.524-1.263.748.748,0,0,1,.214.525.724.724,0,0,1-.214.525A.752.752,0,0,1,364.02,1482.056Z" fill="#00556e"/>
      </g>
      <g id="Group_2117" data-name="Group 2117">
        <path id="Path_2606" data-name="Path 2606" d="M366.64,1478.706a.746.746,0,0,1,0-1.05h0a.739.739,0,0,1,1.041,0h0a.746.746,0,0,1,0,1.05h0a.743.743,0,0,1-.524.213h0A.74.74,0,0,1,366.64,1478.706Z" fill="#00556e"/>
      </g>
      <g id="Group_2118" data-name="Group 2118">
        <path id="Path_2607" data-name="Path 2607" d="M370.294,1475.782a.714.714,0,0,1-.517-.213.734.734,0,0,1,0-1.05.768.768,0,0,1,1.041,0,.751.751,0,0,1,0,1.05A.73.73,0,0,1,370.294,1475.782Z" fill="#00556e"/>
      </g>
      <g id="Group_2119" data-name="Group 2119">
        <path id="Path_2608" data-name="Path 2608" d="M381.988,1487.817h-2.953a.554.554,0,0,1,0-1.107h2.953a.554.554,0,0,1,0,1.107Z" fill="#00556e"/>
      </g>
      <g id="Group_2120" data-name="Group 2120">
        <path id="Path_2609" data-name="Path 2609" d="M380.512,1489.293a.554.554,0,0,1-.554-.553v-2.953a.553.553,0,0,1,1.107,0v2.953A.553.553,0,0,1,380.512,1489.293Z" fill="#00556e"/>
      </g>
      <g id="Group_2121" data-name="Group 2121">
        <path id="Path_2610" data-name="Path 2610" d="M375.284,1496.951h-2.953a.554.554,0,0,1,0-1.107h2.953a.554.554,0,0,1,0,1.107Z" fill="#00556e"/>
      </g>
      <g id="Group_2122" data-name="Group 2122">
        <path id="Path_2611" data-name="Path 2611" d="M373.807,1498.427a.554.554,0,0,1-.553-.553v-2.953a.553.553,0,0,1,1.107,0v2.953A.554.554,0,0,1,373.807,1498.427Z" fill="#00556e"/>
      </g>
      <g id="Group_2123" data-name="Group 2123">
        <path id="Path_2612" data-name="Path 2612" d="M361.92,1499.165h-2.953a.554.554,0,0,1,0-1.107h2.953a.554.554,0,0,1,0,1.107Z" fill="#00556e"/>
      </g>
      <g id="Group_2124" data-name="Group 2124">
        <path id="Path_2613" data-name="Path 2613" d="M360.444,1500.642a.554.554,0,0,1-.554-.554v-2.952a.553.553,0,1,1,1.107,0v2.952A.554.554,0,0,1,360.444,1500.642Z" fill="#00556e"/>
      </g>
      <g id="Group_2125" data-name="Group 2125">
        <path id="Path_2614" data-name="Path 2614" d="M352.771,1476.364h-2.952a.554.554,0,1,1,0-1.107h2.952a.554.554,0,1,1,0,1.107Z" fill="#00556e"/>
      </g>
      <g id="Group_2126" data-name="Group 2126">
        <path id="Path_2615" data-name="Path 2615" d="M351.3,1477.84a.554.554,0,0,1-.554-.553v-2.953a.554.554,0,0,1,1.108,0v2.953A.554.554,0,0,1,351.3,1477.84Z" fill="#00556e"/>
      </g>
      <g id="Group_2127" data-name="Group 2127">
        <path id="Path_2616" data-name="Path 2616" d="M357.217,1467.317h-2.952a.554.554,0,1,1,0-1.107h2.952a.554.554,0,1,1,0,1.107Z" fill="#00556e"/>
      </g>
      <g id="Group_2128" data-name="Group 2128">
        <path id="Path_2617" data-name="Path 2617" d="M355.741,1468.793a.553.553,0,0,1-.554-.553v-2.953a.554.554,0,0,1,1.108,0v2.953A.553.553,0,0,1,355.741,1468.793Z" fill="#00556e"/>
      </g>
    </g>
  </g>
</svg>
