<svg xmlns="http://www.w3.org/2000/svg" width="61.58" height="59" viewBox="0 0 61.58 59">
  <g id="Group_2246" data-name="Group 2246" transform="translate(-637.957 -1452.742)">
    <g id="Group_2049" data-name="Group 2049" opacity="0.33">
      <circle id="Ellipse_520" data-name="Ellipse 520" cx="11.201" cy="11.201" r="11.201" transform="translate(663.295 1452.742)" fill="#fdb933"/>
    </g>
    <g id="Group_2050" data-name="Group 2050" opacity="0.33">
      <circle id="Ellipse_521" data-name="Ellipse 521" cx="16.002" cy="16.002" r="16.002" transform="translate(639.586 1479.127)" fill="#fdb933"/>
    </g>
    <g id="Group_2054" data-name="Group 2054">
      <g id="Group_2051" data-name="Group 2051">
        <circle id="Ellipse_522" data-name="Ellipse 522" cx="16.988" cy="16.988" r="16.988" transform="translate(638.355 1471.827)" fill="#fff"/>
      </g>
      <g id="Group_2052" data-name="Group 2052">
        <path id="Path_2555" data-name="Path 2555" d="M668.788,1478.438a16.987,16.987,0,0,1-30.076,13.853,16.988,16.988,0,1,0,30.076-13.853Z" fill="#bdc3d8"/>
      </g>
      <g id="Group_2053" data-name="Group 2053">
        <path id="Path_2556" data-name="Path 2556" d="M655.343,1506.2a17.387,17.387,0,1,1,17.386-17.386A17.406,17.406,0,0,1,655.343,1506.2Zm0-33.976a16.59,16.59,0,1,0,16.59,16.59A16.609,16.609,0,0,0,655.343,1472.226Z" fill="#00556e"/>
      </g>
    </g>
    <g id="Group_2055" data-name="Group 2055">
      <circle id="Ellipse_523" data-name="Ellipse 523" cx="9.601" cy="9.601" r="9.601" transform="translate(680.334 1489.002)" fill="#fdb933" opacity="0.33"/>
    </g>
    <g id="Group_2090" data-name="Group 2090">
      <g id="Group_2056" data-name="Group 2056">
        <path id="Path_2557" data-name="Path 2557" d="M686.369,1511.742a4.207,4.207,0,0,1-4.2-4.2v-22.4a3,3,0,1,0-6,0v17.6a9.012,9.012,0,0,1-9,9h-3.2a9.012,9.012,0,0,1-9-9v-6.8a.6.6,0,0,1,1.2,0v6.8a7.81,7.81,0,0,0,7.8,7.8h3.2a7.811,7.811,0,0,0,7.8-7.8v-17.6a4.2,4.2,0,1,1,8.4,0v22.4a3,3,0,0,0,6,0v-39.6a.6.6,0,0,1,1.2,0v39.6A4.205,4.205,0,0,1,686.369,1511.742Z" fill="#00556e"/>
      </g>
      <g id="Group_2057" data-name="Group 2057">
        <circle id="Ellipse_524" data-name="Ellipse 524" cx="4" cy="4" r="4" transform="translate(685.969 1459.935)" fill="#fff"/>
      </g>
      <g id="Group_2058" data-name="Group 2058">
        <path id="Path_2558" data-name="Path 2558" d="M691.869,1460.436a3.952,3.952,0,0,1,.5,1.9,3.971,3.971,0,0,1-5.9,3.5,3.988,3.988,0,1,0,5.4-5.4Z" fill="#bdc3d8"/>
      </g>
      <g id="Group_2059" data-name="Group 2059">
        <path id="Path_2559" data-name="Path 2559" d="M689.969,1468.536a4.6,4.6,0,1,1,4.6-4.6A4.605,4.605,0,0,1,689.969,1468.536Zm0-8a3.4,3.4,0,1,0,3.4,3.4A3.4,3.4,0,0,0,689.969,1460.535Z" fill="#00556e"/>
      </g>
      <g id="Group_2060" data-name="Group 2060">
        <circle id="Ellipse_525" data-name="Ellipse 525" cx="0.8" cy="0.8" r="0.8" transform="translate(689.169 1463.135)" fill="#00556e"/>
      </g>
      <g id="Group_2061" data-name="Group 2061">
        <path id="Path_2560" data-name="Path 2560" d="M643.064,1487.3a11.2,11.2,0,0,0,10.895,8.637h3.2a11.2,11.2,0,0,0,10.894-8.637C660.927,1491.339,650.191,1491.339,643.064,1487.3Z" fill="#fff"/>
      </g>
      <g id="Group_2062" data-name="Group 2062">
        <path id="Path_2561" data-name="Path 2561" d="M662.487,1489.48a11.182,11.182,0,0,1-9.328,6.425c.265.019.53.034.8.034h3.2a11.2,11.2,0,0,0,10.894-8.637A22.459,22.459,0,0,1,662.487,1489.48Z" fill="#bdc3d8"/>
      </g>
      <g id="Group_2063" data-name="Group 2063">
        <path id="Path_2562" data-name="Path 2562" d="M657.16,1496.539h-3.2a11.746,11.746,0,0,1-11.479-9.1.6.6,0,0,1,.88-.659c6.955,3.938,17.444,3.938,24.4,0a.6.6,0,0,1,.879.659A11.743,11.743,0,0,1,657.16,1496.539Zm-13.11-8.048a10.546,10.546,0,0,0,9.909,6.848h3.2a10.544,10.544,0,0,0,9.908-6.848A28.465,28.465,0,0,1,644.05,1488.491Z" fill="#00556e"/>
      </g>
      <g id="Group_2064" data-name="Group 2064">
        <path id="Path_2563" data-name="Path 2563" d="M655.56,1490.922a26.349,26.349,0,0,1-12.791-3.1.6.6,0,0,1-.289-.385,11.853,11.853,0,0,1-.322-2.7v-17.6a5.407,5.407,0,0,1,5.4-5.4.6.6,0,0,1,0,1.2,4.206,4.206,0,0,0-4.2,4.2v17.6a10.628,10.628,0,0,0,.233,2.171c6.878,3.766,17.06,3.766,23.936,0a10.543,10.543,0,0,0,.234-2.171v-17.6a4.206,4.206,0,0,0-4.2-4.2.6.6,0,0,1,0-1.2,5.407,5.407,0,0,1,5.4,5.4v17.6a11.8,11.8,0,0,1-.323,2.7.6.6,0,0,1-.288.384A26.348,26.348,0,0,1,655.56,1490.922Z" fill="#00556e"/>
      </g>
      <g id="Group_2065" data-name="Group 2065">
        <path id="Path_2564" data-name="Path 2564" d="M656.087,1499.94h-1.053a2.4,2.4,0,0,1-2.328-1.819l-.773-3.091a1.2,1.2,0,0,1,1.164-1.491h4.927a1.2,1.2,0,0,1,1.165,1.491l-.774,3.091A2.4,2.4,0,0,1,656.087,1499.94Z" fill="#fff"/>
      </g>
      <g id="Group_2066" data-name="Group 2066">
        <path id="Path_2565" data-name="Path 2565" d="M658.024,1493.539h-.463l-.746,2.982a2.4,2.4,0,0,1-2.329,1.819h-1.052a2.4,2.4,0,0,1-.69-.108,2.394,2.394,0,0,0,2.29,1.708h1.053a2.4,2.4,0,0,0,2.328-1.819l.774-3.091A1.2,1.2,0,0,0,658.024,1493.539Z" fill="#bdc3d8"/>
      </g>
      <g id="Group_2067" data-name="Group 2067">
        <path id="Path_2566" data-name="Path 2566" d="M656.087,1500.54h-1.053a3,3,0,0,1-2.91-2.273l-.773-3.091a1.8,1.8,0,0,1,1.747-2.237h4.926a1.8,1.8,0,0,1,1.747,2.237l-.773,3.091A3,3,0,0,1,656.087,1500.54Zm-2.989-6.4a.6.6,0,0,0-.583.746l.773,3.091a1.8,1.8,0,0,0,1.746,1.364h1.053a1.8,1.8,0,0,0,1.747-1.364l.772-3.091a.6.6,0,0,0-.582-.746Z" fill="#00556e"/>
      </g>
      <g id="Group_2068" data-name="Group 2068">
        <circle id="Ellipse_526" data-name="Ellipse 526" cx="2.4" cy="2.4" r="2.4" transform="translate(645.96 1459.935)" fill="#fff"/>
      </g>
      <g id="Group_2069" data-name="Group 2069">
        <path id="Path_2567" data-name="Path 2567" d="M649.941,1460.542c.005.065.019.127.019.193a2.39,2.39,0,0,1-3.981,1.793,2.394,2.394,0,1,0,3.962-1.986Z" fill="#bdc3d8"/>
      </g>
      <g id="Group_2070" data-name="Group 2070">
        <path id="Path_2568" data-name="Path 2568" d="M648.36,1465.336a3,3,0,1,1,3-3A3,3,0,0,1,648.36,1465.336Zm0-4.8a1.8,1.8,0,1,0,1.8,1.8A1.8,1.8,0,0,0,648.36,1460.535Z" fill="#00556e"/>
      </g>
      <g id="Group_2071" data-name="Group 2071">
        <circle id="Ellipse_527" data-name="Ellipse 527" cx="2.4" cy="2.4" r="2.4" transform="translate(660.363 1459.935)" fill="#fff"/>
      </g>
      <g id="Group_2072" data-name="Group 2072">
        <path id="Path_2569" data-name="Path 2569" d="M664.344,1460.542c.005.065.019.127.019.193a2.39,2.39,0,0,1-3.981,1.793,2.394,2.394,0,1,0,3.962-1.986Z" fill="#bdc3d8"/>
      </g>
      <g id="Group_2073" data-name="Group 2073">
        <path id="Path_2570" data-name="Path 2570" d="M662.763,1465.336a3,3,0,1,1,3-3A3,3,0,0,1,662.763,1465.336Zm0-4.8a1.8,1.8,0,1,0,1.8,1.8A1.8,1.8,0,0,0,662.763,1460.535Z" fill="#00556e"/>
      </g>
      <g id="Group_2074" data-name="Group 2074">
        <path id="Path_2571" data-name="Path 2571" d="M645.959,1484.219a.6.6,0,0,1-.6-.6v-8.629a.6.6,0,0,1,1.2,0v8.629A.6.6,0,0,1,645.959,1484.219Z" fill="#00556e"/>
      </g>
      <g id="Group_2075" data-name="Group 2075">
        <path id="Path_2572" data-name="Path 2572" d="M645.959,1472.39a.6.6,0,0,1-.6-.6v-1.772a.6.6,0,0,1,1.2,0v1.772A.6.6,0,0,1,645.959,1472.39Z" fill="#00556e"/>
      </g>
      <g id="Group_2076" data-name="Group 2076">
        <path id="Path_2573" data-name="Path 2573" d="M693.17,1500.223a.6.6,0,0,1-.6-.6v-11.829a.6.6,0,0,1,1.2,0v11.829A.6.6,0,0,1,693.17,1500.223Z" fill="#00556e"/>
      </g>
      <g id="Group_2077" data-name="Group 2077">
        <path id="Path_2574" data-name="Path 2574" d="M693.17,1485.192a.6.6,0,0,1-.6-.6v-1.772a.6.6,0,0,1,1.2,0v1.772A.6.6,0,0,1,693.17,1485.192Z" fill="#00556e"/>
      </g>
      <g id="Group_2078" data-name="Group 2078">
        <path id="Path_2575" data-name="Path 2575" d="M660.007,1469.759H658.9a.6.6,0,0,1,0-1.2h1.108a.6.6,0,0,1,0,1.2Z" fill="#00556e"/>
      </g>
      <g id="Group_2079" data-name="Group 2079">
        <path id="Path_2576" data-name="Path 2576" d="M663.7,1469.759h-1.108a.6.6,0,0,1,0-1.2H663.7a.6.6,0,0,1,0,1.2Z" fill="#00556e"/>
      </g>
      <g id="Group_2080" data-name="Group 2080">
        <path id="Path_2577" data-name="Path 2577" d="M661.3,1472.16a.6.6,0,0,1-.6-.6v-1.108a.6.6,0,0,1,1.2,0v1.108A.6.6,0,0,1,661.3,1472.16Z" fill="#00556e"/>
      </g>
      <g id="Group_2081" data-name="Group 2081">
        <path id="Path_2578" data-name="Path 2578" d="M661.3,1468.466a.6.6,0,0,1-.6-.6v-1.107a.6.6,0,0,1,1.2,0v1.107A.6.6,0,0,1,661.3,1468.466Z" fill="#00556e"/>
      </g>
      <g id="Group_2082" data-name="Group 2082">
        <path id="Path_2579" data-name="Path 2579" d="M679.112,1465.336H678a.6.6,0,0,1,0-1.2h1.108a.6.6,0,0,1,0,1.2Z" fill="#00556e"/>
      </g>
      <g id="Group_2083" data-name="Group 2083">
        <path id="Path_2580" data-name="Path 2580" d="M682.8,1465.336H681.7a.6.6,0,0,1,0-1.2H682.8a.6.6,0,0,1,0,1.2Z" fill="#00556e"/>
      </g>
      <g id="Group_2084" data-name="Group 2084">
        <path id="Path_2581" data-name="Path 2581" d="M680.405,1467.736a.6.6,0,0,1-.6-.6v-1.107a.6.6,0,1,1,1.2,0v1.107A.6.6,0,0,1,680.405,1467.736Z" fill="#00556e"/>
      </g>
      <g id="Group_2085" data-name="Group 2085">
        <path id="Path_2582" data-name="Path 2582" d="M680.405,1464.043a.6.6,0,0,1-.6-.6v-1.108a.6.6,0,0,1,1.2,0v1.108A.6.6,0,0,1,680.405,1464.043Z" fill="#00556e"/>
      </g>
      <g id="Group_2086" data-name="Group 2086">
        <path id="Path_2583" data-name="Path 2583" d="M652.2,1485.019H651.1a.6.6,0,1,1,0-1.2H652.2a.6.6,0,1,1,0,1.2Z" fill="#00556e"/>
      </g>
      <g id="Group_2087" data-name="Group 2087">
        <path id="Path_2584" data-name="Path 2584" d="M655.9,1485.019h-1.108a.6.6,0,0,1,0-1.2H655.9a.6.6,0,1,1,0,1.2Z" fill="#00556e"/>
      </g>
      <g id="Group_2088" data-name="Group 2088">
        <path id="Path_2585" data-name="Path 2585" d="M653.5,1487.419a.6.6,0,0,1-.6-.6v-1.108a.6.6,0,1,1,1.2,0v1.108A.6.6,0,0,1,653.5,1487.419Z" fill="#00556e"/>
      </g>
      <g id="Group_2089" data-name="Group 2089">
        <path id="Path_2586" data-name="Path 2586" d="M653.5,1483.726a.6.6,0,0,1-.6-.6v-1.107a.6.6,0,1,1,1.2,0v1.107A.6.6,0,0,1,653.5,1483.726Z" fill="#00556e"/>
      </g>
    </g>
  </g>
</svg>
