<svg xmlns="http://www.w3.org/2000/svg" width="67.927" height="80" viewBox="0 0 67.927 80">
  <g id="Group_1498" data-name="Group 1498" transform="translate(-4552.016 -5629.387)">
    <path id="Path_82800" data-name="Path 82800" d="M4570.852,5697.958a4.337,4.337,0,0,0,.52-2.043,4.219,4.219,0,0,0-1.009-2.751,4.285,4.285,0,0,0-6.03-.527l-4.182,3.51,3.639,3.638a7.085,7.085,0,0,1,4.725-1.827Z" fill="#fff"/>
    <path id="Path_82801" data-name="Path 82801" d="M4582.8,5700.816h-5.714v8.571h5.714a4.286,4.286,0,0,0,0-8.571" fill="#fff"/>
    <path id="Path_82802" data-name="Path 82802" d="M4557.956,5697.991l-4.572,3.833a4.286,4.286,0,0,0,5.508,6.554l2.586-2.175a6.49,6.49,0,0,1,.572-4.109Z" fill="#fff"/>
    <path id="Path_82803" data-name="Path 82803" d="M4578.851,5643.672h36.469a1.767,1.767,0,0,0,1.765-1.765v-7.561a4.965,4.965,0,0,0-4.959-4.959h-30.08a4.966,4.966,0,0,0-4.96,4.959v7.561a1.767,1.767,0,0,0,1.765,1.765m31.092-8.571a1.428,1.428,0,1,1,2.857,0v4.286a1.428,1.428,0,1,1-2.857,0Zm-5.715,0a1.429,1.429,0,1,1,2.858,0v4.286a1.429,1.429,0,0,1-2.858,0Zm-5.713,0a1.428,1.428,0,1,1,2.857,0v4.286a1.428,1.428,0,1,1-2.857,0Zm-5.715,0a1.429,1.429,0,1,1,2.857,0v4.286a1.429,1.429,0,1,1-2.857,0Zm-5.715,0a1.429,1.429,0,1,1,2.858,0v4.286a1.429,1.429,0,0,1-2.858,0Zm-5.713,0a1.428,1.428,0,1,1,2.857,0v4.286a1.428,1.428,0,1,1-2.857,0Z" fill="#fff"/>
    <path id="Path_82804" data-name="Path 82804" d="M4564.229,5705.1a4.286,4.286,0,0,0,4.286,4.286h5.713v-8.571h-5.713a4.285,4.285,0,0,0-4.286,4.285" fill="#fff"/>
    <path id="Path_82805" data-name="Path 82805" d="M4612.8,5667.958h-31.428a1.429,1.429,0,0,0-1.429,1.429v17.143a1.429,1.429,0,0,0,1.429,1.428H4612.8a1.429,1.429,0,0,0,1.429-1.428v-17.143a1.429,1.429,0,0,0-1.429-1.429m-28.572,2.857h2.857a1.428,1.428,0,1,1,0,2.857h-2.857a1.428,1.428,0,0,1,0-2.857m0,5.715h17.144a1.429,1.429,0,0,1,0,2.857h-17.144a1.429,1.429,0,0,1,0-2.857m2.857,8.571h-2.857a1.428,1.428,0,0,1,0-2.857h2.857a1.428,1.428,0,1,1,0,2.857m22.858,0H4592.8a1.428,1.428,0,0,1,0-2.857h17.143a1.428,1.428,0,1,1,0,2.857m0-5.714h-2.858a1.429,1.429,0,0,1,0-2.857h2.858a1.429,1.429,0,1,1,0,2.857m0-5.715H4592.8a1.428,1.428,0,0,1,0-2.857h17.143a1.428,1.428,0,1,1,0,2.857" fill="#fff"/>
    <path id="Path_82806" data-name="Path 82806" d="M4618.683,5653.489a4.3,4.3,0,0,0-3.026-1.245,7.157,7.157,0,0,1-7-5.714h-23.143a7.127,7.127,0,0,1-7,5.714,4.287,4.287,0,0,0-4.287,4.286v39.385a7.1,7.1,0,0,1-.317,2.043h8.889a7.152,7.152,0,0,1,7.143,7.143,7.067,7.067,0,0,1-1.466,4.286h27.18a4.286,4.286,0,0,0,4.286-4.286V5656.53a4.315,4.315,0,0,0-1.26-3.041m-1.6,33.041a4.285,4.285,0,0,1-4.285,4.286h-31.428a4.286,4.286,0,0,1-4.286-4.286v-17.143a4.285,4.285,0,0,1,4.286-4.286H4612.8a4.285,4.285,0,0,1,4.285,4.286Z" fill="#fff"/>
  </g>
</svg>
