<svg xmlns="http://www.w3.org/2000/svg" width="55.811" height="55" viewBox="0 0 55.811 55">
  <g id="Group_2245" data-name="Group 2245" transform="translate(-483.305 -1454.742)">
    <g id="Group_2132" data-name="Group 2132" opacity="0.33">
      <circle id="Ellipse_532" data-name="Ellipse 532" cx="10.805" cy="10.805" r="10.805" transform="translate(517.293 1488.133)" fill="#fdb933"/>
    </g>
    <g id="Group_2133" data-name="Group 2133" opacity="0.33">
      <circle id="Ellipse_533" data-name="Ellipse 533" cx="9.261" cy="9.261" r="9.261" transform="translate(483.305 1486.01)" fill="#fdb933"/>
    </g>
    <g id="Group_2134" data-name="Group 2134" opacity="0.33">
      <circle id="Ellipse_534" data-name="Ellipse 534" cx="15.435" cy="15.435" r="15.435" transform="translate(508.246 1454.742)" fill="#fdb933"/>
    </g>
    <g id="Group_2159" data-name="Group 2159">
      <g id="Group_2135" data-name="Group 2135">
        <circle id="Ellipse_535" data-name="Ellipse 535" cx="24.696" cy="24.696" r="24.696" transform="translate(487.935 1459.578)" fill="#fff"/>
      </g>
      <g id="Group_2136" data-name="Group 2136">
        <path id="Path_2618" data-name="Path 2618" d="M532.177,1469.188a24.694,24.694,0,0,1-43.723,20.139,24.7,24.7,0,1,0,43.723-20.139Z" fill="#bdc3d8"/>
      </g>
      <g id="Group_2137" data-name="Group 2137">
        <path id="Path_2619" data-name="Path 2619" d="M512.631,1509.55a25.275,25.275,0,1,1,25.275-25.275A25.3,25.3,0,0,1,512.631,1509.55Zm0-49.392a24.117,24.117,0,1,0,24.117,24.117A24.143,24.143,0,0,0,512.631,1460.158Z" fill="#00556e"/>
      </g>
      <g id="Group_2138" data-name="Group 2138">
        <path id="Path_2620" data-name="Path 2620" d="M520.115,1501.076c1.41,0,5.206-.169,5.547-1.958a23.48,23.48,0,0,0-.057-5.8,26.905,26.905,0,0,0,3.264-1.552c1.486-.86.533-2.2.174-2.63-2.881-3.413-3.343-5.635-3.343-5.635a15.384,15.384,0,1,0-28.73,7.657v0c1.3,2.248,2.876,4.762,3.818,6.491,1.59,2.916,1.642,6.723,1.484,9.043a24.672,24.672,0,0,0,15.833,1.662V1503A1.823,1.823,0,0,1,520.115,1501.076Z" fill="#fff"/>
      </g>
      <g id="Group_2139" data-name="Group 2139">
        <path id="Path_2621" data-name="Path 2621" d="M529.043,1489.138c-2.881-3.413-3.343-5.635-3.343-5.635a15.375,15.375,0,0,0-12.869-15.161,15.372,15.372,0,0,1,8.238,13.618s.463,2.221,3.343,5.634c.358.425,1.312,1.77-.174,2.631a27.011,27.011,0,0,1-3.264,1.551,23.488,23.488,0,0,1,.057,5.8c-.341,1.788-4.137,1.957-5.547,1.957a1.823,1.823,0,0,0-2.011,1.924v7.49a24.786,24.786,0,0,0,4.631-.592V1503a1.823,1.823,0,0,1,2.011-1.924c1.41,0,5.206-.169,5.547-1.958a23.48,23.48,0,0,0-.057-5.8,26.905,26.905,0,0,0,3.264-1.552C530.355,1490.908,529.4,1489.563,529.043,1489.138Z" fill="#bdc3d8"/>
      </g>
      <g id="Group_2140" data-name="Group 2140">
        <path id="Path_2622" data-name="Path 2622" d="M512.631,1509.55a25.074,25.074,0,0,1-10.6-2.332.581.581,0,0,1-.334-.565c.138-2.036.138-5.878-1.415-8.726-.536-.985-1.282-2.227-2.072-3.544-.576-.961-1.172-1.954-1.719-2.9a.333.333,0,0,1-.02-.032,15.964,15.964,0,1,1,29.811-8.017,15.1,15.1,0,0,0,3.206,5.331,2.756,2.756,0,0,1,.743,2.115,2.006,2.006,0,0,1-1.069,1.391,26.377,26.377,0,0,1-2.927,1.421,22.025,22.025,0,0,1,0,5.537c-.4,2.112-4,2.427-6.115,2.427a1.268,1.268,0,0,0-1.433,1.345v5.354a.579.579,0,0,1-.451.565A25.429,25.429,0,0,1,512.631,1509.55Zm-9.758-3.22a23.9,23.9,0,0,0,9.758,2.062,24.265,24.265,0,0,0,4.894-.5V1503a2.387,2.387,0,0,1,2.59-2.5c2.337,0,4.782-.459,4.978-1.487a22.993,22.993,0,0,0-.062-5.614.578.578,0,0,1,.365-.615,26.648,26.648,0,0,0,3.183-1.513c.452-.262.494-.507.508-.588a1.757,1.757,0,0,0-.487-1.169c-2.941-3.485-3.446-5.793-3.467-5.89a.583.583,0,0,1-.012-.118,14.805,14.805,0,1,0-27.669,7.336l.019.03c.549.951,1.149,1.952,1.729,2.919.8,1.326,1.547,2.579,2.1,3.584C502.824,1500.177,503.012,1503.719,502.873,1506.33Zm15.231,2.024h0Z" fill="#00556e"/>
      </g>
      <g id="Group_2141" data-name="Group 2141">
        <circle id="Ellipse_536" data-name="Ellipse 536" cx="13.12" cy="13.12" r="13.12" transform="translate(487.935 1459.579)" fill="#fff"/>
      </g>
      <g id="Group_2142" data-name="Group 2142">
        <path id="Path_2623" data-name="Path 2623" d="M507.714,1461.408a13.1,13.1,0,0,1-17.949,17.949,13.111,13.111,0,1,0,17.949-17.949Z" fill="#bdc3d8"/>
      </g>
      <g id="Group_2143" data-name="Group 2143">
        <path id="Path_2624" data-name="Path 2624" d="M501.055,1486.4a13.7,13.7,0,1,1,13.7-13.7A13.714,13.714,0,0,1,501.055,1486.4Zm0-26.239A12.541,12.541,0,1,0,513.6,1472.7,12.555,12.555,0,0,0,501.055,1460.158Z" fill="#00556e"/>
      </g>
      <g id="Group_2144" data-name="Group 2144">
        <path id="Path_2625" data-name="Path 2625" d="M509.544,1470h-5.788v-5.788h-5.4V1470h-5.788v5.4h5.788v5.788h5.4V1475.4h5.788Z" fill="#fff"/>
      </g>
      <g id="Group_2145" data-name="Group 2145">
        <path id="Path_2626" data-name="Path 2626" d="M507.229,1470v2.315a.772.772,0,0,1-.772.772h-4.245a.772.772,0,0,0-.772.771v4.245a.771.771,0,0,1-.771.772h-2.315v2.316h5.4V1475.4h5.788V1470Z" fill="#bdc3d8"/>
      </g>
      <g id="Group_2146" data-name="Group 2146">
        <path id="Path_2627" data-name="Path 2627" d="M503.756,1481.767h-5.4a.579.579,0,0,1-.579-.579v-5.209h-5.209a.579.579,0,0,1-.579-.579V1470a.579.579,0,0,1,.579-.578h5.209v-5.21a.579.579,0,0,1,.579-.578h5.4a.579.579,0,0,1,.579.578v5.21h5.209a.578.578,0,0,1,.579.578v5.4a.579.579,0,0,1-.579.579h-5.209v5.209A.579.579,0,0,1,503.756,1481.767Zm-4.823-1.158h4.244V1475.4a.579.579,0,0,1,.579-.579h5.209v-4.245h-5.209a.579.579,0,0,1-.579-.579v-5.209h-4.244V1470a.579.579,0,0,1-.579.579h-5.209v4.245h5.209a.579.579,0,0,1,.579.579Z" fill="#00556e"/>
      </g>
      <g id="Group_2147" data-name="Group 2147">
        <circle id="Ellipse_537" data-name="Ellipse 537" cx="1.543" cy="1.543" r="1.543" transform="translate(518.161 1463.686)" fill="#fff"/>
      </g>
      <g id="Group_2148" data-name="Group 2148">
        <path id="Path_2628" data-name="Path 2628" d="M519.705,1467.353a2.122,2.122,0,1,1,2.122-2.122A2.125,2.125,0,0,1,519.705,1467.353Zm0-3.087a.964.964,0,1,0,.964.965A.966.966,0,0,0,519.705,1464.266Z" fill="#00556e"/>
      </g>
      <g id="Group_2149" data-name="Group 2149">
        <circle id="Ellipse_538" data-name="Ellipse 538" cx="1.544" cy="1.544" r="1.544" transform="translate(526.554 1471.155)" fill="#fff"/>
      </g>
      <g id="Group_2150" data-name="Group 2150">
        <path id="Path_2629" data-name="Path 2629" d="M528.1,1474.821a2.122,2.122,0,1,1,2.122-2.122A2.125,2.125,0,0,1,528.1,1474.821Zm0-3.087a.964.964,0,1,0,.964.965A.965.965,0,0,0,528.1,1471.734Z" fill="#00556e"/>
      </g>
      <g id="Group_2151" data-name="Group 2151">
        <circle id="Ellipse_539" data-name="Ellipse 539" cx="1.544" cy="1.544" r="1.544" transform="translate(530.316 1481.187)" fill="#fff"/>
      </g>
      <g id="Group_2152" data-name="Group 2152">
        <path id="Path_2630" data-name="Path 2630" d="M531.86,1484.854a2.122,2.122,0,1,1,2.122-2.123A2.124,2.124,0,0,1,531.86,1484.854Zm0-3.087a.965.965,0,1,0,.965.964A.965.965,0,0,0,531.86,1481.767Z" fill="#00556e"/>
      </g>
      <g id="Group_2153" data-name="Group 2153">
        <circle id="Ellipse_540" data-name="Ellipse 540" cx="1.544" cy="1.544" r="1.544" transform="translate(501.762 1489.387)" fill="#fff"/>
      </g>
      <g id="Group_2154" data-name="Group 2154">
        <path id="Path_2631" data-name="Path 2631" d="M503.3,1493.054a2.122,2.122,0,1,1,2.122-2.123A2.125,2.125,0,0,1,503.3,1493.054Zm0-3.087a.964.964,0,1,0,.964.964A.965.965,0,0,0,503.3,1489.967Z" fill="#00556e"/>
      </g>
      <g id="Group_2155" data-name="Group 2155">
        <circle id="Ellipse_541" data-name="Ellipse 541" cx="1.544" cy="1.544" r="1.544" transform="translate(508.973 1493.053)" fill="#fff"/>
      </g>
      <g id="Group_2156" data-name="Group 2156">
        <path id="Path_2632" data-name="Path 2632" d="M510.516,1496.719a2.122,2.122,0,1,1,2.122-2.122A2.125,2.125,0,0,1,510.516,1496.719Zm0-3.087a.965.965,0,1,0,.964.965A.966.966,0,0,0,510.516,1493.632Z" fill="#00556e"/>
      </g>
      <g id="Group_2157" data-name="Group 2157">
        <circle id="Ellipse_542" data-name="Ellipse 542" cx="1.544" cy="1.544" r="1.544" transform="translate(513.403 1483.214)" fill="#fff"/>
      </g>
      <g id="Group_2158" data-name="Group 2158">
        <path id="Path_2633" data-name="Path 2633" d="M514.946,1486.88a2.122,2.122,0,1,1,2.122-2.123A2.125,2.125,0,0,1,514.946,1486.88Zm0-3.087a.965.965,0,1,0,.965.964A.965.965,0,0,0,514.946,1483.793Z" fill="#00556e"/>
      </g>
    </g>
  </g>
</svg>
