<svg xmlns="http://www.w3.org/2000/svg" width="17.659" height="17.614" viewBox="0 0 17.659 17.614">
  <path id="Path_2740" data-name="Path 2740" d="M2094.354,1128.707a4.891,4.891,0,1,0-4.874-4.89,4.883,4.883,0,0,0,4.874,4.89m4.855,1.483h-1.735a1.184,1.184,0,0,0-.97.507l-1.213,1.742a1.18,1.18,0,0,1-1.948-.013l-1.161-1.716a1.183,1.183,0,0,0-.979-.52h-1.7a3.98,3.98,0,0,0-3.974,3.987v1.77a.592.592,0,0,0,.591.593h16.476a.593.593,0,0,0,.592-.593v-1.77a3.981,3.981,0,0,0-3.975-3.987m1.918,3.84a.254.254,0,0,1-.254.254h-.929v.932a.254.254,0,0,1-.253.255h-.762a.254.254,0,0,1-.253-.255v-.932h-.929a.254.254,0,0,1-.254-.254v-.764a.254.254,0,0,1,.254-.254h.929v-.932a.254.254,0,0,1,.253-.255h.762a.254.254,0,0,1,.253.255v.932h.929a.254.254,0,0,1,.254.254Z" transform="translate(-2085.525 -1118.926)" fill="#00556e"/>
</svg>
