<svg xmlns="http://www.w3.org/2000/svg" width="83.052" height="86.379" viewBox="0 0 83.052 86.379">
  <g id="Group_2248" data-name="Group 2248" transform="translate(-471.291 -2724.598)">
    <g id="Group_1989" data-name="Group 1989" opacity="0.3">
      <circle id="Ellipse_504" data-name="Ellipse 504" cx="12" cy="12" r="12" transform="translate(490.094 2782.848)" fill="#e8ebec"/>
    </g>
    <g id="Group_1990" data-name="Group 1990" opacity="0.3">
      <circle id="Ellipse_505" data-name="Ellipse 505" cx="20" cy="20" r="20" transform="translate(471.291 2724.598)" fill="#e8ebec"/>
    </g>
    <path id="Path_2515" data-name="Path 2515" d="M539.584,2732.939h-7.8a3.9,3.9,0,0,0-3.9,3.9,3.9,3.9,0,1,1-7.8,0,3.9,3.9,0,0,0-3.9-3.9h-9.748a3.9,3.9,0,0,0-3.9,3.9,3.9,3.9,0,1,1-7.8,0,3.9,3.9,0,0,0-3.9-3.9h-7.8a3.9,3.9,0,0,0-3.9,3.9v48.74a3.9,3.9,0,0,0,3.9,3.9H512.6a22.727,22.727,0,0,1,30.883-28.973v-23.667a3.9,3.9,0,0,0-3.9-3.9m-48.74,47.139a3.9,3.9,0,1,1,3.9-3.9,3.9,3.9,0,0,1-3.9,3.9m0-11.7a3.9,3.9,0,1,1,3.9-3.9,3.9,3.9,0,0,1-3.9,3.9m11.7,11.7a3.9,3.9,0,1,1,3.9-3.9,3.9,3.9,0,0,1-3.9,3.9m0-11.7a3.9,3.9,0,1,1,3.9-3.9,3.9,3.9,0,0,1-3.9,3.9m0-11.7a3.9,3.9,0,1,1,3.9-3.9,3.9,3.9,0,0,1-3.9,3.9m11.7,0a3.9,3.9,0,1,1,3.9-3.9,3.9,3.9,0,0,1-3.9,3.9" fill="#fff"/>
    <g id="Group_1991" data-name="Group 1991" opacity="0.3">
      <circle id="Ellipse_506" data-name="Ellipse 506" cx="14" cy="14" r="14" transform="translate(526.343 2753.77)" fill="#e8ebec"/>
    </g>
    <g id="Group_1992" data-name="Group 1992">
      <path id="Rectangle_468" data-name="Rectangle 468" d="M0,0H61.1a0,0,0,0,1,0,0V41.628a4,4,0,0,1-4,4H0a0,0,0,0,1,0,0V0A0,0,0,0,1,0,0Z" transform="translate(483.134 2744.598)" fill="#fff"/>
    </g>
    <g id="Group_1993" data-name="Group 1993">
      <path id="Path_2516" data-name="Path 2516" d="M533.735,2763.506a17.547,17.547,0,1,0,17.547,17.547,17.547,17.547,0,0,0-17.547-17.547m2.437,18.522a2.437,2.437,0,0,1-2.437,2.437h-9.748a2.437,2.437,0,0,1,0-4.874H531.3v-9.261a2.437,2.437,0,0,1,4.874,0Z" fill="#fff"/>
      <path id="Path_2517" data-name="Path 2517" d="M533.735,2799.349a18.3,18.3,0,1,1,18.3-18.3A18.317,18.317,0,0,1,533.735,2799.349Zm0-35.093a16.8,16.8,0,1,0,16.8,16.8A16.816,16.816,0,0,0,533.735,2764.256Zm0,20.959h-9.748a3.187,3.187,0,0,1,0-6.374h6.561v-8.511a3.187,3.187,0,0,1,6.374,0v11.7A3.191,3.191,0,0,1,533.735,2785.215Zm-9.748-4.874a1.687,1.687,0,0,0,0,3.374h9.748a1.689,1.689,0,0,0,1.687-1.687v-11.7a1.687,1.687,0,0,0-3.374,0v10.011Z" fill="#00556e"/>
    </g>
    <g id="Group_1997" data-name="Group 1997">
      <g id="Group_1994" data-name="Group 1994">
        <path id="Path_2518" data-name="Path 2518" d="M527.388,2790.227l-20,6.862,9.092,4.046,4.046,9.092Z" fill="#bdc3d8"/>
      </g>
      <g id="Group_1995" data-name="Group 1995">
        <path id="Path_2519" data-name="Path 2519" d="M527.388,2790.227l-10.908,10.908,4.046,9.092Z" fill="#fff"/>
      </g>
      <g id="Group_1996" data-name="Group 1996">
        <path id="Path_2520" data-name="Path 2520" d="M519.84,2810.531l-3.928-8.828-8.829-3.927a.75.75,0,0,1,.061-1.395l20-6.863a.749.749,0,0,1,.953.952l-6.862,20a.751.751,0,0,1-.676.506h-.033A.751.751,0,0,1,519.84,2810.531Zm-10.4-13.351,7.348,3.269a.752.752,0,0,1,.381.381l3.27,7.349,5.746-16.745Z" fill="#00556e"/>
      </g>
    </g>
    <g id="Group_1998" data-name="Group 1998">
      <path id="Path_2521" data-name="Path 2521" d="M551.281,2742.017h-4a.75.75,0,0,1,0-1.5h4a.75.75,0,0,1,0,1.5Z" fill="#00556e"/>
    </g>
    <g id="Group_1999" data-name="Group 1999">
      <path id="Path_2522" data-name="Path 2522" d="M549.281,2744.017a.75.75,0,0,1-.75-.75v-4a.75.75,0,0,1,1.5,0v4A.75.75,0,0,1,549.281,2744.017Z" fill="#00556e"/>
    </g>
    <g id="Group_2000" data-name="Group 2000">
      <circle id="Ellipse_507" data-name="Ellipse 507" cx="0.75" cy="0.75" r="0.75" transform="translate(548.531 2746.517)" fill="#00556e"/>
    </g>
    <g id="Group_2001" data-name="Group 2001">
      <circle id="Ellipse_508" data-name="Ellipse 508" cx="0.75" cy="0.75" r="0.75" transform="translate(548.531 2749.518)" fill="#00556e"/>
    </g>
    <g id="Group_2002" data-name="Group 2002">
      <circle id="Ellipse_509" data-name="Ellipse 509" cx="0.75" cy="0.75" r="0.75" transform="translate(548.531 2754.518)" fill="#00556e"/>
    </g>
    <g id="Group_2003" data-name="Group 2003">
      <circle id="Ellipse_510" data-name="Ellipse 510" cx="0.75" cy="0.75" r="0.75" transform="translate(548.531 2760.519)" fill="#00556e"/>
    </g>
    <g id="Group_2004" data-name="Group 2004">
      <path id="Path_2523" data-name="Path 2523" d="M476.041,2780.771h-4a.75.75,0,0,1,0-1.5h4a.75.75,0,0,1,0,1.5Z" fill="#00556e"/>
    </g>
    <g id="Group_2005" data-name="Group 2005">
      <path id="Path_2524" data-name="Path 2524" d="M474.041,2782.771a.75.75,0,0,1-.75-.75v-4a.75.75,0,0,1,1.5,0v4A.75.75,0,0,1,474.041,2782.771Z" fill="#00556e"/>
    </g>
    <g id="Group_2006" data-name="Group 2006">
      <circle id="Ellipse_511" data-name="Ellipse 511" cx="0.75" cy="0.75" r="0.75" transform="translate(473.291 2773.27)" fill="#00556e"/>
    </g>
    <g id="Group_2007" data-name="Group 2007">
      <circle id="Ellipse_512" data-name="Ellipse 512" cx="0.75" cy="0.75" r="0.75" transform="translate(473.291 2770.27)" fill="#00556e"/>
    </g>
    <g id="Group_2008" data-name="Group 2008">
      <circle id="Ellipse_513" data-name="Ellipse 513" cx="0.75" cy="0.75" r="0.75" transform="translate(473.291 2765.27)" fill="#00556e"/>
    </g>
    <g id="Group_2009" data-name="Group 2009">
      <circle id="Ellipse_514" data-name="Ellipse 514" cx="0.75" cy="0.75" r="0.75" transform="translate(473.291 2759.269)" fill="#00556e"/>
    </g>
    <path id="Path_2525" data-name="Path 2525" d="M541.217,2766.02s10.112,26.5-12.356,31.079c7.241,2.094,15.69-.731,19.395-7.621a16.782,16.782,0,0,0-.159-17.128A17.105,17.105,0,0,0,541.217,2766.02Z" fill="#bdc3d8"/>
    <path id="Path_2526" data-name="Path 2526" d="M532.911,2733.689h7.657s2.915.08,2.165,5.17v20.49s-11.471-6.2-26.294,6.956a33.268,33.268,0,0,0-5.148,16.466s-2.667-15,4.148-22a33.228,33.228,0,0,1,20.983-9.2l-.25-12.711S535.85,2734.821,532.911,2733.689Z" fill="#bdc3d8"/>
    <path id="Path_2527" data-name="Path 2527" d="M513.706,2790.228H483.045a4.655,4.655,0,0,1-4.649-4.65v-48.74a4.655,4.655,0,0,1,4.649-4.649h7.8a4.655,4.655,0,0,1,4.649,4.649,3.149,3.149,0,1,0,6.3,0,4.655,4.655,0,0,1,4.65-4.649h9.748a4.655,4.655,0,0,1,4.649,4.649,3.15,3.15,0,1,0,6.3,0,4.654,4.654,0,0,1,4.648-4.649h7.8a4.654,4.654,0,0,1,4.649,4.649v24.854l-1.072-.509a21.791,21.791,0,0,0-9.426-2.145A21.99,21.99,0,0,0,513.3,2789.2Zm-30.661-56.539a3.153,3.153,0,0,0-3.149,3.149v48.74a3.153,3.153,0,0,0,3.149,3.15H511.52a23.475,23.475,0,0,1,31.213-29.379v-22.511a3.153,3.153,0,0,0-3.149-3.149h-7.8a3.152,3.152,0,0,0-3.148,3.149,4.65,4.65,0,1,1-9.3,0,3.153,3.153,0,0,0-3.149-3.149h-9.748a3.153,3.153,0,0,0-3.15,3.149,4.649,4.649,0,1,1-9.3,0,3.153,3.153,0,0,0-3.149-3.149Zm19.5,47.139a4.649,4.649,0,1,1,4.65-4.649A4.654,4.654,0,0,1,502.541,2780.828Zm0-7.8a3.149,3.149,0,1,0,3.15,3.149A3.152,3.152,0,0,0,502.541,2773.03Zm-11.7,7.8a4.649,4.649,0,1,1,4.649-4.649A4.655,4.655,0,0,1,490.844,2780.828Zm0-7.8a3.149,3.149,0,1,0,3.149,3.149A3.154,3.154,0,0,0,490.844,2773.03Zm11.7-3.9a4.65,4.65,0,1,1,4.65-4.649A4.654,4.654,0,0,1,502.541,2769.131Zm0-7.8a3.15,3.15,0,1,0,3.15,3.15A3.152,3.152,0,0,0,502.541,2761.332Zm-11.7,7.8a4.65,4.65,0,1,1,4.649-4.649A4.655,4.655,0,0,1,490.844,2769.131Zm0-7.8a3.15,3.15,0,1,0,3.149,3.15A3.154,3.154,0,0,0,490.844,2761.332Zm23.4-3.9a4.65,4.65,0,1,1,4.649-4.65A4.655,4.655,0,0,1,514.239,2757.433Zm0-7.8a3.15,3.15,0,1,0,3.149,3.149A3.153,3.153,0,0,0,514.239,2749.634Zm-11.7,7.8a4.65,4.65,0,1,1,4.65-4.65A4.654,4.654,0,0,1,502.541,2757.433Zm0-7.8a3.15,3.15,0,1,0,3.15,3.149A3.152,3.152,0,0,0,502.541,2749.634Z" fill="#00556e"/>
  </g>
</svg>
