<svg xmlns="http://www.w3.org/2000/svg" width="66.062" height="66.061" viewBox="0 0 66.062 66.061">
  <g id="Group_11" data-name="Group 11" transform="translate(-61.098 -337.382)">
    <path id="Path_12" data-name="Path 12" d="M61.1,370.413a33.031,33.031,0,1,0,33.031-33.031A33.03,33.03,0,0,0,61.1,370.413" fill="#00556e"/>
    <path id="Path_13" data-name="Path 13" d="M113.052,367.811l0,0L96.733,351.491a3.684,3.684,0,0,0-5.208,0L75.217,367.8l-.016.017a3.681,3.681,0,0,0,2.45,6.274c.037,0,.075.005.113.005h.651V386.1a4.316,4.316,0,0,0,4.309,4.311h6.384a1.173,1.173,0,0,0,1.172-1.172v-9.415a1.969,1.969,0,0,1,1.967-1.967h3.764a1.969,1.969,0,0,1,1.967,1.967v9.415a1.172,1.172,0,0,0,1.171,1.172h6.384a4.316,4.316,0,0,0,4.31-4.311V374.1h.6a3.682,3.682,0,0,0,2.606-6.284" fill="#fff"/>
  </g>
</svg>
