<svg xmlns="http://www.w3.org/2000/svg" width="80" height="72.819" viewBox="0 0 80 72.819">
  <g id="Group_1497" data-name="Group 1497" transform="translate(-4552.8 -5117.869)">
    <path id="Path_82798" data-name="Path 82798" d="M4619.827,5117.869h-8.649a4.324,4.324,0,0,0-4.324,4.325,4.324,4.324,0,0,1-8.649,0,4.324,4.324,0,0,0-4.324-4.325H4583.07a4.324,4.324,0,0,0-4.324,4.325,4.324,4.324,0,0,1-8.649,0,4.324,4.324,0,0,0-4.324-4.325h-8.649a4.324,4.324,0,0,0-4.324,4.325v54.053a4.325,4.325,0,0,0,4.324,4.325H4589.9a25.205,25.205,0,0,1,34.25-32.132v-26.246a4.324,4.324,0,0,0-4.324-4.325m-54.054,52.278a4.324,4.324,0,1,1,4.324-4.324,4.324,4.324,0,0,1-4.324,4.324m0-12.972a4.324,4.324,0,1,1,4.324-4.325,4.325,4.325,0,0,1-4.324,4.325m12.973,12.972a4.324,4.324,0,1,1,4.324-4.324,4.324,4.324,0,0,1-4.324,4.324m0-12.972a4.324,4.324,0,1,1,4.324-4.325,4.325,4.325,0,0,1-4.324,4.325m0-12.973a4.324,4.324,0,1,1,4.324-4.325,4.324,4.324,0,0,1-4.324,4.325m12.973,0a4.324,4.324,0,1,1,4.324-4.325,4.325,4.325,0,0,1-4.324,4.325" fill="#fff"/>
    <path id="Path_82799" data-name="Path 82799" d="M4613.34,5151.769a19.459,19.459,0,1,0,19.46,19.459,19.459,19.459,0,0,0-19.46-19.459m2.7,20.541a2.7,2.7,0,0,1-2.7,2.7h-10.81a2.7,2.7,0,1,1,0-5.405h8.108v-10.27a2.7,2.7,0,1,1,5.4,0Z" fill="#fff"/>
  </g>
</svg>
