<svg xmlns="http://www.w3.org/2000/svg" width="52.828" height="53.794" viewBox="0 0 52.828 53.794">
  <g id="Group_2243" data-name="Group 2243" transform="translate(-182.545 -1455.345)">
    <g id="Group_2012" data-name="Group 2012">
      <circle id="Ellipse_515" data-name="Ellipse 515" cx="10.405" cy="10.405" r="10.405" transform="translate(190.33 1488.329)" fill="#fdb933" opacity="0.33"/>
    </g>
    <g id="Group_2013" data-name="Group 2013" opacity="0.33">
      <circle id="Ellipse_516" data-name="Ellipse 516" cx="8.919" cy="8.919" r="8.919" transform="translate(182.545 1457.312)" fill="#fdb933"/>
    </g>
    <g id="Group_2014" data-name="Group 2014" opacity="0.33">
      <circle id="Ellipse_517" data-name="Ellipse 517" cx="14.864" cy="14.864" r="14.864" transform="translate(205.644 1456.751)" fill="#fdb933"/>
    </g>
    <g id="Group_2046" data-name="Group 2046">
      <g id="Group_2015" data-name="Group 2015">
        <circle id="Ellipse_518" data-name="Ellipse 518" cx="15.608" cy="15.608" r="15.608" transform="translate(191.316 1464.078)" fill="#fff"/>
      </g>
      <g id="Group_2016" data-name="Group 2016">
        <path id="Path_2528" data-name="Path 2528" d="M216.652,1467.492a15.6,15.6,0,0,1-21.921,21.922,15.6,15.6,0,1,0,21.921-21.922Z" fill="#bdc3d8"/>
      </g>
      <g id="Group_2017" data-name="Group 2017">
        <path id="Path_2529" data-name="Path 2529" d="M206.924,1495.85a16.165,16.165,0,1,1,16.165-16.165A16.183,16.183,0,0,1,206.924,1495.85Zm0-31.215a15.05,15.05,0,1,0,15.05,15.05A15.067,15.067,0,0,0,206.924,1464.635Z" fill="#00556e"/>
      </g>
      <g id="Group_2018" data-name="Group 2018">
        <path id="Path_2530" data-name="Path 2530" d="M216.586,1476.442a5.067,5.067,0,0,0-5.193-4.932,5.241,5.241,0,0,0-4.469,2.43,5.242,5.242,0,0,0-4.47-2.43,5.067,5.067,0,0,0-5.192,4.932c0,5.812,9.662,11.419,9.662,11.419S216.586,1482.254,216.586,1476.442Z" fill="#fff"/>
      </g>
      <g id="Group_2019" data-name="Group 2019">
        <path id="Path_2531" data-name="Path 2531" d="M211.393,1471.51a5.345,5.345,0,0,0-2.414.577,5.934,5.934,0,0,1,2.775,4.977c0,3.677-3.171,7.285-6.223,9.908.839.566,1.393.889,1.393.889s9.662-5.607,9.662-11.419A5.067,5.067,0,0,0,211.393,1471.51Z" fill="#bdc3d8"/>
      </g>
      <g id="Group_2020" data-name="Group 2020">
        <path id="Path_2532" data-name="Path 2532" d="M206.924,1488.418a.563.563,0,0,1-.28-.075c-.4-.236-9.94-5.837-9.94-11.9a5.632,5.632,0,0,1,5.751-5.49,5.884,5.884,0,0,1,4.469,2.045,5.884,5.884,0,0,1,4.469-2.045,5.631,5.631,0,0,1,5.75,5.49c0,6.063-9.533,11.665-9.939,11.9A.558.558,0,0,1,206.924,1488.418Zm-4.469-16.351a4.517,4.517,0,0,0-4.636,4.375c0,4.886,7.545,9.8,9.1,10.767,1.561-.965,9.1-5.881,9.1-10.767a4.516,4.516,0,0,0-4.635-4.375,4.715,4.715,0,0,0-4,2.167.578.578,0,0,1-.946,0A4.715,4.715,0,0,0,202.455,1472.067Z" fill="#00556e"/>
      </g>
      <g id="Group_2021" data-name="Group 2021">
        <path id="Path_2533" data-name="Path 2533" d="M228.017,1492.333h0a3.433,3.433,0,0,1-2.168,2.688l-9.324,3.571a3.406,3.406,0,0,1-4.5-2.261h0a2.73,2.73,0,0,1,1.8-3.336l1.843-.589c5.184-1.1,8.26-3.044,10.193-3.068C227.645,1489.317,228.366,1490.864,228.017,1492.333Z" fill="#fff"/>
      </g>
      <g id="Group_2022" data-name="Group 2022">
        <path id="Path_2534" data-name="Path 2534" d="M226.518,1489.415a3.434,3.434,0,0,1-2.155,2.634l-9.325,3.57a3.377,3.377,0,0,1-3.09-.357,2.725,2.725,0,0,0,.08,1.069,3.406,3.406,0,0,0,4.5,2.261l9.324-3.571a3.433,3.433,0,0,0,2.168-2.688A2.278,2.278,0,0,0,226.518,1489.415Z" fill="#bdc3d8"/>
      </g>
      <g id="Group_2023" data-name="Group 2023">
        <path id="Path_2535" data-name="Path 2535" d="M215.308,1499.374a3.965,3.965,0,0,1-3.817-2.892,3.276,3.276,0,0,1,2.165-4.018l1.842-.589a42.609,42.609,0,0,0,6.525-2.018,12.744,12.744,0,0,1,3.831-1.076,2.681,2.681,0,0,1,2.19.965,3.178,3.178,0,0,1,.52,2.693,4,4,0,0,1-2.515,3.1l-9.325,3.569A3.927,3.927,0,0,1,215.308,1499.374ZM225.9,1489.9h-.032a12.261,12.261,0,0,0-3.45,1,43.328,43.328,0,0,1-6.634,2.051l-1.789.575a2.164,2.164,0,0,0-1.43,2.655,2.846,2.846,0,0,0,3.761,1.89l9.324-3.569a2.886,2.886,0,0,0,1.816-2.253.325.325,0,0,1,.009-.045,2.073,2.073,0,0,0-.3-1.762A1.539,1.539,0,0,0,225.9,1489.9Z" fill="#00556e"/>
      </g>
      <g id="Group_2024" data-name="Group 2024">
        <path id="Path_2536" data-name="Path 2536" d="M230.049,1492.284c-1.435-1.193-5.409,2.466-15.75,4.418,1.363-.515,1.848-1.276,1.9-2.035.233-3.426-2.736-3.269-2.736-3.269-15.244.179-3.651-3.44-24.375-3.539v13.361s22.824,7.754,40.107-5.545C229.194,1495.675,231.926,1493.844,230.049,1492.284Z" fill="#fff"/>
      </g>
      <g id="Group_2025" data-name="Group 2025">
        <path id="Path_2537" data-name="Path 2537" d="M230.049,1492.284a1.289,1.289,0,0,0-1.053-.206,4.525,4.525,0,0,1-1.288,1.367c-14.659,11.28-33.3,7.416-38.621,5.982v1.793s22.824,7.754,40.107-5.545C229.194,1495.675,231.926,1493.844,230.049,1492.284Z" fill="#bdc3d8"/>
      </g>
      <g id="Group_2026" data-name="Group 2026">
        <path id="Path_2538" data-name="Path 2538" d="M204.506,1503.989a54.273,54.273,0,0,1-15.6-2.241.558.558,0,0,1-.378-.528v-13.361a.556.556,0,0,1,.557-.557h0c11.231.053,13.151,1.159,14.845,2.134,1.385.8,2.579,1.482,9.521,1.4a3.429,3.429,0,0,1,2.411.93,3.645,3.645,0,0,1,.888,2.934,2.4,2.4,0,0,1-.274.968,56.607,56.607,0,0,0,9.277-3.062c2.4-.986,3.718-1.528,4.649-.756h0a2.087,2.087,0,0,1,.857,1.742,3.932,3.932,0,0,1-1.758,2.541C221.463,1502.326,212.17,1503.989,204.506,1503.989Zm-14.861-3.179c3.029.913,23.569,6.457,39.209-5.577.347-.236,1.261-1,1.3-1.7.005-.106.021-.428-.457-.825h0c-.414-.344-1.713.189-3.512.929a56.244,56.244,0,0,1-11.778,3.608.557.557,0,0,1-.3-1.069c.977-.37,1.495-.892,1.54-1.552a2.606,2.606,0,0,0-.57-2.077,2.342,2.342,0,0,0-1.581-.6c-7.268.083-8.586-.673-10.113-1.553-1.547-.89-3.3-1.9-13.733-1.98Z" fill="#00556e"/>
      </g>
      <g id="Group_2027" data-name="Group 2027">
        <path id="Path_2539" data-name="Path 2539" d="M209.114,1497.878a50.406,50.406,0,0,1-6.494-.483.558.558,0,0,1,.146-1.106c6.355.838,9.69.4,11.37-.119a.557.557,0,1,1,.328,1.065A18.594,18.594,0,0,1,209.114,1497.878Z" fill="#00556e"/>
      </g>
      <g id="Group_2028" data-name="Group 2028">
        <rect id="Rectangle_470" data-name="Rectangle 470" width="5.946" height="13.378" transform="translate(183.141 1487.859)" fill="#bdc3d8"/>
      </g>
      <g id="Group_2029" data-name="Group 2029">
        <path id="Rectangle_471" data-name="Rectangle 471" d="M0,0H4.459a0,0,0,0,1,0,0V9.892a2,2,0,0,1-2,2H0a0,0,0,0,1,0,0V0A0,0,0,0,1,0,0Z" transform="translate(183.141 1487.859)" fill="#fff"/>
      </g>
      <g id="Group_2030" data-name="Group 2030">
        <path id="Path_2540" data-name="Path 2540" d="M189.087,1501.8h-5.946a.558.558,0,0,1-.557-.558v-13.378a.557.557,0,0,1,.557-.557h5.946a.557.557,0,0,1,.558.557v13.378A.558.558,0,0,1,189.087,1501.8Zm-5.388-1.115h4.831v-12.263H183.7Z" fill="#00556e"/>
      </g>
      <g id="Group_2031" data-name="Group 2031">
        <circle id="Ellipse_519" data-name="Ellipse 519" cx="0.743" cy="0.743" r="0.743" transform="translate(185.371 1497.521)" fill="#00556e"/>
      </g>
      <g id="Group_2032" data-name="Group 2032">
        <path id="Path_2541" data-name="Path 2541" d="M229.265,1488.418a.562.562,0,0,1-.192-.035.556.556,0,0,1-.331-.714,23.168,23.168,0,0,0,1.408-7.984c0-.512-.018-1.03-.051-1.541a.558.558,0,1,1,1.113-.073c.035.534.052,1.078.052,1.614a24.257,24.257,0,0,1-1.476,8.367A.558.558,0,0,1,229.265,1488.418Z" fill="#00556e"/>
      </g>
      <g id="Group_2033" data-name="Group 2033">
        <path id="Path_2542" data-name="Path 2542" d="M227.837,1468.906a.559.559,0,0,1-.491-.291,23.227,23.227,0,0,0-20.422-12.156.557.557,0,1,1,0-1.114,24.34,24.34,0,0,1,21.4,12.738.557.557,0,0,1-.489.823Z" fill="#00556e"/>
      </g>
      <g id="Group_2034" data-name="Group 2034">
        <path id="Path_2543" data-name="Path 2543" d="M183.141,1480.243a.558.558,0,0,1-.558-.558,24.48,24.48,0,0,1,11.861-20.9.558.558,0,0,1,.573.957,23.358,23.358,0,0,0-11.319,19.945A.558.558,0,0,1,183.141,1480.243Z" fill="#00556e"/>
      </g>
      <g id="Group_2035" data-name="Group 2035">
        <path id="Path_2544" data-name="Path 2544" d="M226.172,1484.438a.547.547,0,0,1-.119-.013.556.556,0,0,1-.426-.662,19.183,19.183,0,0,0-4.239-16.611.557.557,0,0,1,.842-.73A20.289,20.289,0,0,1,226.716,1484,.556.556,0,0,1,226.172,1484.438Z" fill="#00556e"/>
      </g>
      <g id="Group_2036" data-name="Group 2036">
        <path id="Path_2545" data-name="Path 2545" d="M191.4,1468.117a.558.558,0,0,1-.439-.9,20.288,20.288,0,0,1,21.1-7.125.558.558,0,0,1-.282,1.079,19.17,19.17,0,0,0-19.944,6.732A.557.557,0,0,1,191.4,1468.117Z" fill="#00556e"/>
      </g>
      <g id="Group_2037" data-name="Group 2037">
        <path id="Path_2546" data-name="Path 2546" d="M187.973,1485.627a.558.558,0,0,1-.536-.4,20.418,20.418,0,0,1-.385-9.466.557.557,0,0,1,1.094.215,19.3,19.3,0,0,0,.364,8.946.558.558,0,0,1-.385.689A.567.567,0,0,1,187.973,1485.627Z" fill="#00556e"/>
      </g>
      <g id="Group_2038" data-name="Group 2038">
        <path id="Path_2547" data-name="Path 2547" d="M230.707,1473.474h-2.973a.557.557,0,0,1,0-1.115h2.973a.557.557,0,0,1,0,1.115Z" fill="#00556e"/>
      </g>
      <g id="Group_2039" data-name="Group 2039">
        <path id="Path_2548" data-name="Path 2548" d="M229.221,1474.96a.557.557,0,0,1-.558-.557v-2.973a.558.558,0,1,1,1.115,0v2.973A.557.557,0,0,1,229.221,1474.96Z" fill="#00556e"/>
      </g>
      <g id="Group_2040" data-name="Group 2040">
        <path id="Path_2549" data-name="Path 2549" d="M218.814,1463.068h-2.973a.557.557,0,0,1,0-1.115h2.973a.557.557,0,0,1,0,1.115Z" fill="#00556e"/>
      </g>
      <g id="Group_2041" data-name="Group 2041">
        <path id="Path_2550" data-name="Path 2550" d="M217.327,1464.554a.557.557,0,0,1-.557-.557v-2.973a.557.557,0,0,1,1.115,0V1464A.557.557,0,0,1,217.327,1464.554Z" fill="#00556e"/>
      </g>
      <g id="Group_2042" data-name="Group 2042">
        <path id="Path_2551" data-name="Path 2551" d="M201.665,1457.946h-2.973a.557.557,0,1,1,0-1.115h2.973a.557.557,0,0,1,0,1.115Z" fill="#00556e"/>
      </g>
      <g id="Group_2043" data-name="Group 2043">
        <path id="Path_2552" data-name="Path 2552" d="M200.178,1459.432a.557.557,0,0,1-.557-.557V1455.9a.557.557,0,0,1,1.115,0v2.973A.557.557,0,0,1,200.178,1459.432Z" fill="#00556e"/>
      </g>
      <g id="Group_2044" data-name="Group 2044">
        <path id="Path_2553" data-name="Path 2553" d="M190.515,1472.069h-2.973a.557.557,0,0,1,0-1.115h2.973a.557.557,0,1,1,0,1.115Z" fill="#00556e"/>
      </g>
      <g id="Group_2045" data-name="Group 2045">
        <path id="Path_2554" data-name="Path 2554" d="M189.029,1473.555a.558.558,0,0,1-.558-.557v-2.973a.558.558,0,1,1,1.115,0V1473A.558.558,0,0,1,189.029,1473.555Z" fill="#00556e"/>
      </g>
    </g>
  </g>
</svg>
