<svg height="56.756" viewBox="0 0 35.537 56.756" width="35.537" xmlns="http://www.w3.org/2000/svg"><g fill="#ef3814" transform="translate(-449.067 -1200.621)"><path d="m462.726 1205.623h8.253a1.85 1.85 0 0 0 1.535-.816l2.712-4.186h-16.84l2.807 4.19a1.848 1.848 0 0 0 1.533.812"/><path d="m476.265 1234.988h-1.343v-1.344a.367.367 0 0 0 -.367-.367h-1.1a.367.367 0 0 0 -.367.367v1.344h-1.344a.366.366 0 0 0 -.367.366v1.1a.366.366 0 0 0 .367.366h1.344v1.344a.367.367 0 0 0 .367.367h1.1a.368.368 0 0 0 .367-.367v-1.344h1.343a.366.366 0 0 0 .367-.366v-1.1a.366.366 0 0 0 -.367-.366z"/><path d="m479.161 1200.664-3.863 5.964-.013.02a5.176 5.176 0 0 1 -4.306 2.3h-8.253a5.172 5.172 0 0 1 -4.292-2.281l-4.013-5.992a6.18 6.18 0 0 0 -5.354 6.117v44.414a6.178 6.178 0 0 0 6.172 6.171h23.193a6.178 6.178 0 0 0 6.172-6.171v-44.414a6.181 6.181 0 0 0 -5.443-6.128zm-12.326 14.014a7.052 7.052 0 1 1 -7.051 7.052 7.052 7.052 0 0 1 7.051-7.052zm1.763 17.029a.918.918 0 0 1 -.918.918h-1.468a.917.917 0 0 1 0-1.835h1.468a.918.918 0 0 1 .92.917zm-18.353-9.211a4.072 4.072 0 1 1 8.14-.225 4.1 4.1 0 0 1 -.709 2.389 1.522 1.522 0 0 0 -.188 1.337l.529 1.6-2.136-1.07a1.53 1.53 0 0 0 -.682-.161c-.247 0-.407.07-.885.07a4.1 4.1 0 0 1 -4.069-3.936zm18.592 29.339h-4a1.663 1.663 0 1 1 0-3.326h4a1.663 1.663 0 1 1 0 3.326zm10.77-12.616a.855.855 0 0 1 -.855.856h-23.833a.855.855 0 0 1 -.855-.856v-2.551a5.749 5.749 0 0 1 5.749-5.749h2.465a1.71 1.71 0 0 1 1.415.75l1.68 2.474a1.711 1.711 0 0 0 2.818.019l1.755-2.512a1.71 1.71 0 0 1 1.4-.731h2.51a5.749 5.749 0 0 1 5.749 5.749z"/><circle cx="452.503" cy="1222.589" r=".607"/><circle cx="456.125" cy="1222.589" r=".607"/><circle cx="454.368" cy="1222.589" r=".607"/></g></svg>