<svg xmlns="http://www.w3.org/2000/svg" width="44.993" height="45" viewBox="0 0 44.993 45">
  <g id="Group_18" data-name="Group 18" transform="translate(-71.632 -167.373)">
    <path id="Path_23" data-name="Path 23" d="M106.445,212.373H99.551a2.168,2.168,0,0,1-2.166-2.165V200.04a1.224,1.224,0,0,0-1.223-1.224H92.1a1.225,1.225,0,0,0-1.224,1.224v10.168a2.168,2.168,0,0,1-2.166,2.165H81.812a5.561,5.561,0,0,1-5.555-5.555V194.742h0a4.834,4.834,0,0,1-3.2-1.421,4.885,4.885,0,0,1-.008-6.886L90.68,168.8a4.874,4.874,0,0,1,6.9,0l17.728,17.731a4.877,4.877,0,0,1-3.306,8.21v12.074A5.561,5.561,0,0,1,106.445,212.373ZM92.1,197.016h4.066a3.026,3.026,0,0,1,3.023,3.024v10.168a.366.366,0,0,0,.366.365h6.894a3.759,3.759,0,0,0,3.755-3.755V192.951h1.552a3.078,3.078,0,0,0,2.177-5.252L96.3,170.075a3.149,3.149,0,0,0-4.351,0L74.34,187.687a3.076,3.076,0,0,0,2.032,5.259l1.685.005v13.867a3.759,3.759,0,0,0,3.755,3.755h6.894a.366.366,0,0,0,.366-.365V200.04A3.027,3.027,0,0,1,92.1,197.016Z" fill="#00556e"/>
  </g>
</svg>
