<svg xmlns="http://www.w3.org/2000/svg" width="30.124" height="36.423" viewBox="0 0 30.124 36.423">
  <g id="Group_2241" data-name="Group 2241" transform="translate(-604.549 -218.23)">
    <path id="Path_2637" data-name="Path 2637" d="M629.948,236.107v-4.39a10.383,10.383,0,0,0-8.86-10.219l-.588-.085v-2.294a.889.889,0,1,0-1.778,0v2.294l-.589.085a10.382,10.382,0,0,0-8.86,10.219v4.39a11.258,11.258,0,0,1-4,8.608,2.069,2.069,0,0,0,1.349,3.638H632.6a2.07,2.07,0,0,0,1.333-3.654A11.229,11.229,0,0,1,629.948,236.107Z" fill="#fff"/>
    <path id="Path_2638" data-name="Path 2638" d="M619.611,254.653a5.277,5.277,0,0,0,4.873-3.354h-9.747A5.2,5.2,0,0,0,619.611,254.653Z" fill="#fff"/>
  </g>
</svg>
