<svg xmlns="http://www.w3.org/2000/svg" width="52.323" height="83.565" viewBox="0 0 52.323 83.565">
  <g id="Group_1500" data-name="Group 1500" transform="translate(-4565.818 -5285.071)">
    <path id="Path_82809" data-name="Path 82809" d="M4585.929,5292.435h12.151a2.726,2.726,0,0,0,2.261-1.2l3.992-6.163h-24.794l4.133,6.169a2.72,2.72,0,0,0,2.257,1.195" fill="#fff"/>
    <path id="Path_82810" data-name="Path 82810" d="M4605.864,5335.671h-1.979v-1.979a.54.54,0,0,0-.54-.54h-1.621a.54.54,0,0,0-.541.54v1.979h-1.978a.541.541,0,0,0-.54.54v1.621a.541.541,0,0,0,.54.54h1.978v1.978a.54.54,0,0,0,.541.54h1.621a.54.54,0,0,0,.54-.54v-1.978h1.979a.54.54,0,0,0,.54-.54v-1.621A.54.54,0,0,0,4605.864,5335.671Z" fill="#fff"/>
    <path id="Path_82811" data-name="Path 82811" d="M4610.127,5285.134l-5.688,8.781-.019.029a7.618,7.618,0,0,1-6.34,3.387h-12.151a7.612,7.612,0,0,1-6.32-3.359l-5.908-8.821a9.1,9.1,0,0,0-7.883,9.006v65.393a9.1,9.1,0,0,0,9.088,9.086h34.147a9.1,9.1,0,0,0,9.088-9.086v-65.393A9.1,9.1,0,0,0,4610.127,5285.134Zm-18.148,20.634a10.382,10.382,0,1,1-10.381,10.382A10.382,10.382,0,0,1,4591.979,5305.768Zm2.6,25.073a1.351,1.351,0,0,1-1.351,1.351h-2.161a1.351,1.351,0,1,1,0-2.7h2.161A1.351,1.351,0,0,1,4594.574,5330.841Zm-27.022-13.563a6,6,0,1,1,11.986-.331,6.048,6.048,0,0,1-1.044,3.517,2.244,2.244,0,0,0-.278,1.969l.779,2.355-3.145-1.575a2.239,2.239,0,0,0-1-.238c-.364,0-.6.1-1.3.1A6.039,6.039,0,0,1,4567.552,5317.278Zm27.375,43.2h-5.895a2.448,2.448,0,0,1,0-4.9h5.895a2.448,2.448,0,0,1,0,4.9Zm15.857-18.575a1.26,1.26,0,0,1-1.259,1.26h-35.091a1.26,1.26,0,0,1-1.259-1.26v-3.756a8.464,8.464,0,0,1,8.464-8.465h3.63a2.519,2.519,0,0,1,2.083,1.1l2.474,3.644a2.52,2.52,0,0,0,4.149.028l2.584-3.7a2.517,2.517,0,0,1,2.065-1.077h3.7a8.464,8.464,0,0,1,8.464,8.465Z" fill="#fff"/>
    <circle id="Ellipse_231" data-name="Ellipse 231" cx="0.894" cy="0.894" r="0.894" transform="translate(4569.983 5316.522)" fill="#fff"/>
    <circle id="Ellipse_232" data-name="Ellipse 232" cx="0.894" cy="0.894" r="0.894" transform="translate(4575.317 5316.522)" fill="#fff"/>
    <circle id="Ellipse_233" data-name="Ellipse 233" cx="0.894" cy="0.894" r="0.894" transform="translate(4572.729 5316.522)" fill="#fff"/>
  </g>
</svg>
