<svg xmlns="http://www.w3.org/2000/svg" width="74.476" height="68.141" viewBox="0 0 74.476 68.141">
  <g id="Group_2243" data-name="Group 2243" transform="translate(-223.782 -1035.871)">
    <path id="Path_2455" data-name="Path 2455" d="M286.18,1035.871h-8.051a4.037,4.037,0,0,0-4.026,4.047,4.026,4.026,0,1,1-8.051,0,4.037,4.037,0,0,0-4.026-4.047H251.962a4.037,4.037,0,0,0-4.026,4.047,4.026,4.026,0,1,1-8.051,0,4.037,4.037,0,0,0-4.026-4.047h-8.051a4.037,4.037,0,0,0-4.026,4.047V1090.5a4.037,4.037,0,0,0,4.026,4.046h30.513a23.615,23.615,0,0,1,21.821-32.368,23.257,23.257,0,0,1,10.064,2.3v-24.561a4.036,4.036,0,0,0-4.026-4.047m-50.321,48.921a4.047,4.047,0,1,1,4.026-4.047,4.037,4.037,0,0,1-4.026,4.047m0-12.14a4.047,4.047,0,1,1,4.026-4.047,4.037,4.037,0,0,1-4.026,4.047m12.077,12.14a4.047,4.047,0,1,1,4.026-4.047,4.036,4.036,0,0,1-4.026,4.047m0-12.14a4.047,4.047,0,1,1,4.026-4.047,4.036,4.036,0,0,1-4.026,4.047m0-12.14a4.047,4.047,0,1,1,4.026-4.046,4.035,4.035,0,0,1-4.026,4.046m12.077,0a4.047,4.047,0,1,1,4.026-4.046,4.035,4.035,0,0,1-4.026,4.046" fill="#fff"/>
    <path id="Path_2456" data-name="Path 2456" d="M280.142,1067.594a18.209,18.209,0,1,0,18.116,18.209,18.162,18.162,0,0,0-18.116-18.209m2.516,19.221a2.523,2.523,0,0,1-2.516,2.529H270.078a2.529,2.529,0,0,1,0-5.058h7.548v-9.611a2.516,2.516,0,1,1,5.032,0Z" fill="#fff"/>
  </g>
</svg>
