<svg xmlns="http://www.w3.org/2000/svg" width="572.954" height="574.154" viewBox="0 0 572.954 574.154"><g transform="translate(-345.523 -273.923)"><path d="M364.454,293.178a20.725,20.725,0,0,0-18.931,20.662V788.706a20.716,20.716,0,0,0,17.121,20.437L579.38,847.749a20.75,20.75,0,0,0,24.39-20.416V294.676a20.73,20.73,0,0,0-22.58-20.671Zm182.5,296.2c-8.921,0-16.159-12.724-16.159-28.384,0-15.687,7.238-28.372,16.159-28.372s16.171,12.685,16.171,28.372C563.125,576.654,555.886,589.378,546.954,589.378Z" fill="#616e7d"/><path d="M918.477,549.88,749.074,424.1V489.35H617.46V609.625H749.074V674.86Z" fill="#aad4c8"/><path d="M530.795,560.994c0,15.66,7.238,28.384,16.159,28.384s16.171-12.724,16.171-28.384c0-15.687-7.239-28.372-16.171-28.372S530.795,545.307,530.795,560.994Z" fill="#fff"/><path d="M734.326,470.855V308.508a16.175,16.175,0,0,0-16.141-16.18H617.46v32.336h84.547V470.855Z" fill="#616e7d"/><path d="M617.46,797.333v32.336H718.185a16.18,16.18,0,0,0,16.141-16.177V627.137H702.007v170.2Z" fill="#616e7d"/></g></svg>