<svg xmlns="http://www.w3.org/2000/svg" width="44.975" height="45" viewBox="0 0 44.975 45">
  <g id="Group_1257" data-name="Group 1257" transform="translate(-4117.382 -3153.874)">
    <path id="Path_76723" data-name="Path 76723" d="M4140.745,3163.259a1.257,1.257,0,0,0,0,.831c-.15.164-.077.365-.077.546q-.006,16.5-.007,32.991c0,.185.06.381-.055.555-.01-.174-.028-.349-.028-.523q0-16.7,0-33.4,0-4.587,0-9.174c0-.174.018-.349.027-.524.109.144.056.311.057.466q0,3.894.006,7.788C4140.663,3162.96,4140.587,3163.135,4140.745,3163.259Z" fill="#00556e"/>
    <path id="Path_76724" data-name="Path 76724" d="M4162.269,3194.6q-4.425-16.949-8.851-33.9c-.194-.744-.509-.934-1.245-.737q-5.4,1.437-10.789,2.879a.89.89,0,0,0-.639.416.732.732,0,0,0,0,.831,1.61,1.61,0,0,0,.028.174q4.4,16.866,8.8,33.731c.209.8.514.979,1.3.769q5.312-1.414,10.62-2.833C4162.325,3195.706,4162.486,3195.428,4162.269,3194.6Zm-19.022-27.358c-.139.026-.171-.066-.2-.173-.231-.891-.459-1.781-.7-2.669-.081-.3.133-.292.312-.339l5.922-1.58c1.044-.28,2.09-.549,3.127-.85.32-.093.416-.01.487.3.192.824.412,1.642.643,2.457.063.221.025.308-.195.366q-4.635,1.229-9.267,2.465C4143.335,3167.227,4143.291,3167.233,4143.247,3167.241Zm.489,2.458c-.054-.313-.289-.682-.186-.911.11-.248.567-.22.873-.3q4.222-1.136,8.451-2.251c.084-.022.168-.048.252-.072.132-.032.193.023.207.151a.8.8,0,0,0,.036.127c.3,1.031.3,1.03-.736,1.306-2.8.745-5.608,1.484-8.407,2.246C4143.9,3170.083,4143.789,3170.011,4143.736,3169.7Zm4.9,18.494c-.149,0-.114-.2-.15-.332q-.869-3.3-1.733-6.611c-.81-3.109-1.613-6.219-2.43-9.327-.072-.275-.071-.4.254-.485q4.555-1.194,9.1-2.428c.267-.072.371-.014.441.258q2.068,7.995,4.161,15.983c.085.323,0,.386-.284.462q-4.531,1.2-9.057,2.417C4148.864,3188.149,4148.792,3188.16,4148.632,3188.193Zm1.042,4.26c-.225-.876-.454-1.75-.679-2.617-.042-.28.2-.223.321-.255,2.012-.546,4.028-1.078,6.042-1.614,1.029-.273,2.061-.536,3.083-.83.25-.071.331-.019.39.213q.3,1.188.619,2.37c.059.215.015.3-.215.365q-4.63,1.221-9.257,2.459C4149.86,3192.575,4149.728,3192.662,4149.674,3192.453Zm10.785,2.2q-4.653,1.228-9.3,2.472c-.1.027-.23.129-.28-.063-.247-.946-.491-1.892-.731-2.82-.054-.293.195-.238.311-.27,1.9-.515,3.8-1.018,5.708-1.523,1.127-.3,2.259-.586,3.381-.906.277-.079.38-.039.447.24q.305,1.277.654,2.543C4160.7,3194.537,4160.666,3194.6,4160.459,3194.654Z" fill="#00556e"/>
    <path id="Path_76725" data-name="Path 76725" d="M4124.16,3167.377c.922,0,1.843,0,2.764,0,.7.005.95.255.952.955q.009,2.785,0,5.572c0,.714-.268.967-.99.968q-2.765,0-5.529,0c-.709,0-.98-.273-.981-.985q0-2.765,0-5.529c0-.716.259-.977.976-.981C4122.288,3167.372,4123.224,3167.377,4124.16,3167.377Z" fill="#00556e"/>
    <path id="Path_76726" data-name="Path 76726" d="M4140.623,3197.658q0-17.445,0-34.891,0-3.866,0-7.729a1.731,1.731,0,0,0-.023-.481c.021-.343-.27-.479-.458-.683h-10.193c-.557.194-.652.317-.663.922-.012.629,0,1.258,0,1.887,0,.834,0,1.667,0,2.5,0,.478-.047.513-.535.525-.132,0-.263,0-.4,0h-9.479c-.205,0-.41,0-.615.011a.854.854,0,0,0-.874.655v37.962a1.076,1.076,0,0,0,1.058.535q10.564-.016,21.129-.007c.088,0,.176,0,.263,0a.72.72,0,0,0,.769-.682A2.046,2.046,0,0,0,4140.623,3197.658Zm-11.232-10.437c0,.335-.088.407-.413.405q-4.852-.019-9.706,0c-.337,0-.4-.09-.4-.41.013-3.616.008-7.233.008-10.849s.006-7.2-.009-10.8c0-.365.084-.452.45-.45q4.832.024,9.663,0c.335,0,.407.085.407.41Q4129.375,3176.373,4129.391,3187.221Zm-10.519-25.447c-.02-.324.066-.418.4-.416,2.474.016,4.948.008,7.422.008.776,0,1.552.015,2.327-.007.3-.009.373.1.363.374-.019.512-.022,1.025,0,1.537.013.291-.08.364-.367.362-1.64-.014-3.279-.007-4.919-.007-1.61,0-3.221-.011-4.831.009-.338,0-.419-.091-.4-.412A12.566,12.566,0,0,0,4118.872,3161.774Zm10.517,35.24c0,.289-.078.363-.367.362q-4.9-.015-9.795,0c-.3,0-.357-.092-.354-.368q.021-1.889,0-3.777c0-.282.064-.368.357-.365,1.625.015,3.251.007,4.876.007s3.251.01,4.876-.009c.335,0,.414.09.408.415C4129.371,3194.525,4129.374,3195.769,4129.389,3197.014Zm-.409-5.631c-1.947-.018-3.894-.009-5.841-.009-1.288,0-2.577-.013-3.865.009-.341.006-.42-.1-.4-.418a14.912,14.912,0,0,0,0-1.492c-.013-.283.064-.368.357-.365,1.625.015,3.25.007,4.875.007s3.279.008,4.918-.007c.29,0,.379.076.366.364a14.786,14.786,0,0,0,0,1.493C4129.407,3191.289,4129.317,3191.386,4128.98,3191.383Zm1.9-31.189c-.006-.234.045-.334.31-.333q3.82.015,7.64,0c.231,0,.3.072.3.3-.012.556-.018,1.113,0,1.668.01.272-.109.3-.336.3-1.258-.008-2.517,0-3.775,0s-2.517-.009-3.776.006c-.283,0-.38-.066-.366-.36C4130.9,3161.248,4130.9,3160.72,4130.881,3160.194Zm0-2.155c.021-.79.014-1.581,0-2.372,0-.219.045-.3.286-.3q3.843.014,7.686,0c.206,0,.281.047.278.266-.012.82-.016,1.64,0,2.459.006.256-.106.278-.31.277-1.274-.007-2.547,0-3.821,0-1.259,0-2.518-.007-3.777.006C4130.963,3158.374,4130.871,3158.321,4130.878,3158.039Zm.445,5.576c2.475.02,4.949.016,7.424,0,.3,0,.387.066.387.379q-.015,12.739,0,25.479c0,.344-.11.406-.425.4q-3.711-.019-7.424,0c-.34,0-.407-.1-.406-.42q.015-6.369.007-12.739,0-6.326-.009-12.651C4130.876,3163.712,4130.95,3163.613,4131.323,3163.615Zm7.811,31.166c-.024.746-.016,1.493,0,2.239,0,.244-.024.359-.322.357q-3.8-.019-7.6,0c-.285,0-.336-.092-.331-.348.016-.776.02-1.553,0-2.328-.008-.284.086-.335.346-.332,1.259.013,2.518.006,3.777.006s2.49.015,3.733-.01C4139.079,3194.359,4139.144,3194.465,4139.134,3194.781Zm-1.113-1.907h-3.069c-1.242,0-2.484-.008-3.726.006-.269,0-.344-.072-.348-.342-.016-1.164-.025-1.164,1.132-1.164,2.236,0,4.472.006,6.708-.007.313,0,.423.056.418.4C4139.119,3192.874,4139.136,3192.874,4138.021,3192.874Z" fill="#00556e"/>
  </g>
</svg>
