<svg xmlns="http://www.w3.org/2000/svg" xmlns:xlink="http://www.w3.org/1999/xlink" width="512" height="512" viewBox="0 0 512 512"><defs><linearGradient id="a" x1="0.5" y1="1" x2="0.5" gradientUnits="objectBoundingBox"><stop offset="0" stop-color="#f4dd95"/><stop offset="1" stop-color="#fffad3"/></linearGradient><linearGradient id="b" x1="0.5" y1="1" x2="0.5" gradientUnits="objectBoundingBox"><stop offset="0" stop-color="#ffc800"/><stop offset="1" stop-color="#fe8c00"/></linearGradient></defs><circle cx="256" cy="256" r="256" fill="url(#a)"/><path d="M297.23,145.572a10,10,0,0,1,20,0V166.1a10,10,0,0,1-20,0Zm-60.662,36a10,10,0,1,1,14.14-14.141l14.513,14.513a10,10,0,1,1-14.141,14.141Zm127.183-14.14a10,10,0,1,1,14.141,14.141l-14.513,14.513a10,10,0,0,1-14.141-14.141ZM396,228.093a10,10,0,0,1,0,20H375.476a10,10,0,0,1,0-20Zm-51.619,23.818a39.634,39.634,0,0,0-68.831-37.627A82.409,82.409,0,0,1,305,245.569a75.231,75.231,0,0,1,8.267-.456,74.167,74.167,0,0,1,31.111,6.8Zm-31.11,124.517a56.854,56.854,0,1,0-56.346-64.487,8.805,8.805,0,0,1-17.454-2.34A74.542,74.542,0,0,1,287.1,249.85c-12.194-19.3-35.436-32.348-62.1-32.348-39.316,0-71.189,28.347-71.189,63.314a47.806,47.806,0,1,0,0,95.612Z" fill-rule="evenodd" fill="url(#b)"/></svg>