<svg xmlns="http://www.w3.org/2000/svg" width="40" height="40" viewBox="0 0 40 40">
  <g id="Group_1252" data-name="Group 1252" transform="translate(-3983.136 -2597.367)">
    <g id="Group_1116" data-name="Group 1116">
      <path id="Path_76766" data-name="Path 76766" d="M4016.3,2597.367h-26.287a6.885,6.885,0,0,0-6.88,6.88v26.24a6.885,6.885,0,0,0,6.88,6.88h26.24a6.885,6.885,0,0,0,6.88-6.88v-26.24A6.814,6.814,0,0,0,4016.3,2597.367Zm.143,17.556a2.379,2.379,0,0,1-.427,1l-5.267,5.124,1.233,7.212a1.628,1.628,0,0,1-1.328,1.9,1.937,1.937,0,0,1-1.044-.142l-6.453-3.416-6.453,3.416a1.683,1.683,0,0,1-2.23-.664,1.363,1.363,0,0,1-.143-1.044l1.234-7.26-5.267-5.124a1.628,1.628,0,0,1,.9-2.8l7.212-1.091,3.226-6.548a1.649,1.649,0,0,1,2.183-.76,1.681,1.681,0,0,1,.759.76l3.227,6.548,7.26,1.044A1.616,1.616,0,0,1,4016.446,2614.923Z" fill="#03566e"/>
    </g>
  </g>
</svg>
