<svg xmlns="http://www.w3.org/2000/svg" width="532" height="378.4" viewBox="0 0 532 378.4"><g transform="translate(-2285 -1162)"><path d="M0,0H412a0,0,0,0,1,0,0V355a0,0,0,0,1,0,0H42A42,42,0,0,1,0,313V0A0,0,0,0,1,0,0Z" transform="translate(2295 1172)" fill="#fff"/><path d="M514,5V312.2q0,51.2-51.2,51.2t-51.2-51.2V5H2V286.6q0,76.8,76.8,76.8h384m-358.4-128H130m102.4,0h76.8M104.4,133H309.2" transform="translate(2293 1167)" fill="none" stroke="#fff" stroke-linecap="square" stroke-width="20"/><path d="M0,0H225" transform="translate(2387.5 1300.5)" fill="rgba(0,0,0,0)" stroke="#03566e" stroke-width="20"/><path d="M0,0H45.579" transform="translate(2387.5 1402.5)" fill="rgba(0,0,0,0)" stroke="#03566e" stroke-width="20"/><path d="M0,0H97" transform="translate(2515.5 1402.5)" fill="rgba(0,0,0,0)" stroke="#03566e" stroke-width="20"/></g></svg>