<svg xmlns="http://www.w3.org/2000/svg" width="33.089" height="40.002" viewBox="0 0 33.089 40.002"><g transform="translate(-6197.482 -8297.029)"><path d="M446.175,370.046v-4.821A11.4,11.4,0,0,0,436.444,354l-.646-.093v-2.52a.976.976,0,1,0-1.952,0v2.52L433.2,354a11.4,11.4,0,0,0-9.731,11.223v4.821a12.362,12.362,0,0,1-4.4,9.453,2.273,2.273,0,0,0,1.482,4H449.09a2.276,2.276,0,0,0,2.273-2.273,2.3,2.3,0,0,0-.81-1.741A12.33,12.33,0,0,1,446.175,370.046Z" transform="translate(5779.209 7946.618)" fill="#fff"/><path d="M434.822,390.413a5.8,5.8,0,0,0,5.352-3.683h-10.7a5.717,5.717,0,0,0,5.353,3.683Z" transform="translate(5779.209 7946.618)" fill="#fff"/></g></svg>