<svg viewBox="0 0 72 72" xmlns="http://www.w3.org/2000/svg"><g fill="#03566e"><path d="m18.62 57.1a3.73 3.73 0 0 0 3.72-3.72v-5.48a4.66 4.66 0 0 0 -2.08 3.1 6.56 6.56 0 0 1 -3.62 4.82l-3.64 1.8a1 1 0 0 0 -.55.87 1 1 0 0 0 .39.76 14.14 14.14 0 0 0 8.45 2.82h3.58a7.45 7.45 0 1 0 0-14.9v6.21a6.22 6.22 0 0 1 -6.21 6.21h-1.28v-2.49z"/><path d="m37.24 32.85v8.89a25.78 25.78 0 0 1 6.37 5.43h1.11a12.36 12.36 0 0 1 0-19.86h-5a7.44 7.44 0 0 1 -2.48 5.54"/><path d="m17.38 30v-3.31l-2.81-2.11a5.38 5.38 0 0 1 2.81-9.67v-.91a5.7 5.7 0 0 1 2.56-4.77 4.94 4.94 0 0 1 4.88-4.23v2.45a2.49 2.49 0 0 0 -2.48 2.48 2.48 2.48 0 0 0 2.48 2.47h3.18a4.93 4.93 0 0 1 4.27-7.4v2.45a2.49 2.49 0 0 0 -2.48 2.48 2.48 2.48 0 0 0 2.48 2.47h1.26a6.21 6.21 0 0 0 -.01-12.4h-7.26a16.32 16.32 0 0 0 -8.88 30"/><path d="m59.55 47.17h7.45v-19.86h-7.45a12.36 12.36 0 0 1 0 19.86"/><path d="m55.37 35.34a3.71 3.71 0 0 1 -3.23 1.9h-.24a3.53 3.53 0 0 1 .24 1.26 3.67 3.67 0 0 1 -1.24 2.75 3.71 3.71 0 1 0 4.47-5.89"/><path d="m52.14 27.31a9.93 9.93 0 1 0 9.93 9.93 9.94 9.94 0 0 0 -9.93-9.93m1.24 17.38a6.22 6.22 0 0 1 -5-2.48 3.73 3.73 0 0 1 0-7.45h.24a3.72 3.72 0 1 1 7.14-2 6.2 6.2 0 0 1 -2.41 11.92"/><path d="m49.59 62.07h22.41v-7.45h-24a25.4 25.4 0 0 1 1.6 7.45m15-5h2.4v2.49h-2.45zm-5 0h2.48v2.49h-2.49zm-5 0h2.5v2.49h-2.48z"/><path d="m41.26 22.34-1.54.77v1.72h29.8v24.82h-24a25.4 25.4 0 0 1 1.42 2.49h25.06v-29.8z"/><path d="m36.87 14.22a8.55 8.55 0 0 1 -3.34.67h-8.71a4.93 4.93 0 0 1 -3.5-1.45 5 5 0 0 1 -.91-1.29 3.32 3.32 0 0 0 -.55 1.8v3.43h-2.07a2.89 2.89 0 0 0 -1.73 5.21l3.8 2.86v15.3l-1 .19a23.13 23.13 0 0 0 -18.86 22.72v3.68a4.65 4.65 0 0 0 4.67 4.66h.33v-14.9h2.45v14.9h3.75a6.15 6.15 0 0 1 2.35-9.35 16.84 16.84 0 0 1 -2.24-1.41 3.44 3.44 0 0 1 .57-5.85l3.68-1.78a4.07 4.07 0 0 0 2.25-3 7.11 7.11 0 0 1 4.53-5.49v-14.12a6.21 6.21 0 0 1 6.21-6.2h8.69v-3.22l2.26-1.13a27.83 27.83 0 0 0 -2.63-6.23"/><path d="m47.17 67.73v-4.07a23.12 23.12 0 0 0 -18.85-22.72l-1-.19v-8.47h5a5 5 0 0 0 5-5h-8.77a3.73 3.73 0 0 0 -3.72 3.72v13.69a9.92 9.92 0 0 1 6.51 17.41 6.2 6.2 0 0 1 5.9 6.18 6.12 6.12 0 0 1 -1.24 3.72h3.75v-14.9h2.49v14.9h.32a4.65 4.65 0 0 0 4.64-4.27"/></g></svg>