<svg xmlns="http://www.w3.org/2000/svg" xmlns:xlink="http://www.w3.org/1999/xlink" width="512" height="512" viewBox="0 0 512 512"><defs><linearGradient id="a" x1="0.5" y1="1" x2="0.5" gradientUnits="objectBoundingBox"><stop offset="0" stop-color="#f4dd95"/><stop offset="1" stop-color="#fffad3"/></linearGradient><linearGradient id="b" x1="0.5" y1="1" x2="0.5" gradientUnits="objectBoundingBox"><stop offset="0" stop-color="#ffc800"/><stop offset="1" stop-color="#fe8c00"/></linearGradient></defs><circle cx="256" cy="256" r="256" fill="url(#a)"/><path d="M347.924,149.935a10,10,0,0,1,14.141,14.141L341.2,184.943A10,10,0,0,1,327.057,170.8ZM396,246a10,10,0,0,1,0,20H366.489a10,10,0,0,1,0-20ZM362.065,347.924a10,10,0,0,1-14.141,14.141L327.057,341.2A10,10,0,0,1,341.2,327.057ZM266,396a10,10,0,0,1-20,0V366.489a10,10,0,0,1,20,0ZM164.076,362.065a10,10,0,0,1-14.141-14.141L170.8,327.057A10,10,0,1,1,184.943,341.2ZM116,266a10,10,0,1,1,0-20h29.511a10,10,0,0,1,0,20Zm33.935-101.924a10,10,0,0,1,14.141-14.141L184.943,170.8A10,10,0,1,1,170.8,184.943ZM256,194.7A61.3,61.3,0,1,1,194.7,256,61.3,61.3,0,0,1,256,194.7ZM246,116a10,10,0,0,1,20,0v29.511a10,10,0,0,1-20,0Z" fill-rule="evenodd" fill="url(#b)"/></svg>