<svg xmlns="http://www.w3.org/2000/svg" width="66.062" height="66.061" viewBox="0 0 66.062 66.061">
  <g id="Group_10" data-name="Group 10" transform="translate(-401.791 -337.382)">
    <path id="Path_9" data-name="Path 9" d="M401.791,370.413a33.031,33.031,0,1,0,33.031-33.031,33.03,33.03,0,0,0-33.031,33.031" fill="#00556e"/>
    <g id="Group_9" data-name="Group 9">
      <path id="Path_10" data-name="Path 10" d="M446.175,370.046v-4.821A11.4,11.4,0,0,0,436.444,354l-.646-.093v-2.52a.976.976,0,1,0-1.952,0v2.52L433.2,354a11.4,11.4,0,0,0-9.731,11.223v4.821a12.362,12.362,0,0,1-4.4,9.453,2.273,2.273,0,0,0,1.482,4H449.09a2.276,2.276,0,0,0,2.273-2.273,2.3,2.3,0,0,0-.81-1.741A12.33,12.33,0,0,1,446.175,370.046Z" fill="#fff"/>
      <path id="Path_11" data-name="Path 11" d="M434.822,390.413a5.8,5.8,0,0,0,5.352-3.683H429.469A5.717,5.717,0,0,0,434.822,390.413Z" fill="#fff"/>
    </g>
  </g>
</svg>
