<svg xmlns="http://www.w3.org/2000/svg" width="37.763" height="45" viewBox="0 0 37.763 45">
  <g id="Group_1" data-name="Group 1" transform="translate(-415.493 -167.373)">
    <path id="Path_1" data-name="Path 1" d="M451.853,198.161a11.331,11.331,0,0,1-4.025-8.671v-5.044a13.439,13.439,0,0,0-10.856-13.186v-1.289a2.6,2.6,0,1,0-5.195,0v1.289a13.437,13.437,0,0,0-10.856,13.186v5.044a11.364,11.364,0,0,1-4.045,8.689,3.953,3.953,0,0,0,2.571,6.957H449.3a3.954,3.954,0,0,0,2.552-6.975Zm-15.781-25.456a11.929,11.929,0,0,1,10.18,11.741v5.044a12.9,12.9,0,0,0,4.581,9.871,2.407,2.407,0,0,1,.847,1.821,2.381,2.381,0,0,1-2.379,2.378H419.447a2.378,2.378,0,0,1-1.55-4.181,12.931,12.931,0,0,0,4.6-9.889v-5.044a11.928,11.928,0,0,1,10.18-11.741l.676-.1v-2.636a1.021,1.021,0,1,1,2.043,0v2.636Z" fill="#00556e"/>
    <path id="Path_2" data-name="Path 2" d="M426.955,206.314a7.572,7.572,0,0,0,14.839,0l.193-.945H426.763Zm13.019.631a6.065,6.065,0,0,1-5.6,3.853,5.981,5.981,0,0,1-5.6-3.853Z" fill="#00556e"/>
  </g>
</svg>
