<svg xmlns="http://www.w3.org/2000/svg" width="416" height="416" viewBox="0 0 416 416"><g transform="translate(7473 -4584)"><g transform="translate(-7521 4536)"><path d="M336,448h56a56,56,0,0,0,56-56V336" fill="none" stroke="#03566e" stroke-linecap="round" stroke-linejoin="round" stroke-width="32"/><path d="M448,176V120a56,56,0,0,0-56-56H336" fill="none" stroke="#263238" stroke-linecap="round" stroke-linejoin="round" stroke-width="32"/><path d="M176,448H120a56,56,0,0,1-56-56V336" fill="none" stroke="#263238" stroke-linecap="round" stroke-linejoin="round" stroke-width="32"/><path d="M64,176V120a56,56,0,0,1,56-56h56" fill="none" stroke="#03566e" stroke-linecap="round" stroke-linejoin="round" stroke-width="32"/></g><text transform="translate(-7368 4834)" fill="#263238" font-size="103" font-family="UTMNeoSansIntelBold, UTM Neo Sans Intel" letter-spacing="0.075em"><tspan x="0" y="0">OTP</tspan></text><g transform="translate(-7459 4598)"><path d="M336,411.769h37.885a37.885,37.885,0,0,0,37.885-37.885V336" transform="translate(-87.989 -87.989)" fill="none" stroke="rgba(38,50,56,0.7)" stroke-linecap="round" stroke-linejoin="round" stroke-width="32"/><path d="M411.769,139.769V101.885A37.885,37.885,0,0,0,373.885,64H336" transform="translate(-87.989)" fill="none" stroke="rgba(3,86,110,0.7)" stroke-linecap="round" stroke-linejoin="round" stroke-width="32"/><path d="M139.769,411.769H101.885A37.885,37.885,0,0,1,64,373.885V336" transform="translate(0 -87.989)" fill="none" stroke="rgba(3,86,110,0.7)" stroke-linecap="round" stroke-linejoin="round" stroke-width="32"/><path d="M64,139.769V101.885A37.885,37.885,0,0,1,101.885,64h37.885" fill="none" stroke="rgba(38,50,56,0.7)" stroke-linecap="round" stroke-linejoin="round" stroke-width="32"/></g></g></svg>