<svg xmlns="http://www.w3.org/2000/svg" width="512.025" height="512.025" viewBox="0 0 512.025 512.025"><path d="M337.937,139.367,294.575,96h9.44a32,32,0,0,0,32-32V32a32,32,0,0,0-32-32H48A32,32,0,0,0,16,32V64A32,32,0,0,0,48,96h9.44L14.081,139.367A48,48,0,0,0,0,173.289V464.023a48,48,0,0,0,48,48h208.01a16,16,0,0,0,0-32H48a16,16,0,0,1-16-16v-32H208.01a16,16,0,1,0,0-32H32V208.01H320.016v16a16,16,0,0,0,32,0V173.289a48,48,0,0,0-14.081-33.922ZM48,32H304.015V64H48ZM320.016,176.009H32v-2.72a16,16,0,0,1,4.64-11.361L102.565,96H249.452l65.923,65.923a16,16,0,0,1,4.64,11.361Z" fill="#03566e"/><path d="M119.006,63H87V31a16,16,0,0,0-32,0V63H23a16,16,0,0,0,0,32H55v32a16,16,0,0,0,32,0V95h32a16,16,0,0,0,0-32Z" transform="translate(105.006 225.012)" fill="#263238"/><path d="M144.006,272.013A128.006,128.006,0,1,1,272.013,144.006,128.006,128.006,0,0,1,144.006,272.013Zm0-224.011a96,96,0,1,0,96,96A96,96,0,0,0,144.006,48Z" transform="translate(240.013 240.013)" fill="#263238"/><path d="M37.088,132.006a16,16,0,0,1-11.361-27.361l27.361-27.2V36a16,16,0,0,1,32,0V84a16,16,0,0,1-4.64,11.361l-32,32A16,16,0,0,1,37.088,132.006Z" transform="translate(314.93 300.016)" fill="#03566e"/></svg>