<svg xmlns="http://www.w3.org/2000/svg" width="50" height="26.26" viewBox="0 0 50 26.26">
  <path id="Path_86557" data-name="Path 86557" d="M6664.094,2632.469h-8.7a1.789,1.789,0,0,0-1.719,1.295l-1.109,3.859-3.6-15.887a1.789,1.789,0,0,0-3.472-.071l-3.6,13.315h-.675L6639,2628.9a1.788,1.788,0,0,0-1.68-1.177h-.048a1.791,1.791,0,0,0-1.664,1.266l-1.28,4.2-1.852-8.663a1.789,1.789,0,0,0-3.411-.29l-3.506,8.761h-7.887a1.789,1.789,0,1,0,0,3.578h9.1a1.789,1.789,0,0,0,1.661-1.125l1.773-4.431,2.068,9.677a1.789,1.789,0,0,0,3.461.147l1.736-5.691.813,2.231a1.788,1.788,0,0,0,1.681,1.176h3.3a1.788,1.788,0,0,0,1.727-1.322l2.077-7.684,3.55,15.656a1.788,1.788,0,0,0,1.694,1.393h.051a1.791,1.791,0,0,0,1.719-1.3l2.661-9.26h7.355a1.789,1.789,0,0,0,0-3.578Z" transform="translate(-6615.883 -2620.343)" fill="#03566e"/>
</svg>
