<svg xmlns="http://www.w3.org/2000/svg" width="32" height="32" viewBox="0 0 32 32"><g transform="translate(-1806.16 -1319.954)"><circle cx="11.087" cy="11.087" r="11.087" transform="translate(1811.073 1324.868)" fill="none" stroke="#454545" stroke-linecap="round" stroke-linejoin="round" stroke-width="2"/><path d="M1822.16,1324.868a17.663,17.663,0,0,0,0,22.173" fill="none" stroke="#454545" stroke-linecap="round" stroke-linejoin="round" stroke-width="2"/><path d="M1822.16,1324.868a17.663,17.663,0,0,1,0,22.173" fill="none" stroke="#454545" stroke-linecap="round" stroke-linejoin="round" stroke-width="2"/><path d="M1813.682,1328.781c0,2.608,16.956,2.608,16.956,0" fill="none" stroke="#454545" stroke-linecap="round" stroke-linejoin="round" stroke-width="2"/><line x2="22.174" transform="translate(1811.073 1335.954)" fill="none" stroke="#454545" stroke-linecap="round" stroke-linejoin="round" stroke-width="2"/><path d="M1813.682,1343.128c0-2.608,16.956-2.608,16.956,0" fill="none" stroke="#454545" stroke-linecap="round" stroke-linejoin="round" stroke-width="2"/><path d="M1830.639,1323.579q.585.4,1.129.856" fill="none" stroke="#454545" stroke-linecap="round" stroke-linejoin="round" stroke-width="2"/><path d="M1834.566,1327.521a14.97,14.97,0,1,1-7.925-5.886" fill="none" stroke="#454545" stroke-linecap="round" stroke-linejoin="round" stroke-width="2"/></g></svg>