<svg xmlns="http://www.w3.org/2000/svg" width="36.833" height="50" viewBox="0 0 36.833 50">
  <g id="Group_1257" data-name="Group 1257" transform="translate(-7084.295 -2860.676)">
    <path id="Path_38338" data-name="Path 38338" d="M7107.19,2892.748h-1.428v2.477c.095,0,.255,0,.478.011s.372.011.445.011a2.832,2.832,0,0,0,1.469-.275.975.975,0,0,0,.421-.884v-.148a1.182,1.182,0,0,0-.324-.857A1.426,1.426,0,0,0,7107.19,2892.748Z" fill="#e76f51"/>
    <path id="Path_38339" data-name="Path 38339" d="M7117.295,2879.482l-14.584-18.806s-18.416,17.425-18.416,31.583a18.417,18.417,0,1,0,36.833,0C7121.128,2888.114,7119.539,2883.679,7117.295,2879.482Zm-2.784,18.713a12.888,12.888,0,1,1-.074-10.546,1.069,1.069,0,0,1-1.944.889,10.75,10.75,0,1,0,.062,8.795,1.069,1.069,0,0,1,1.956.862Zm-4.7-5.335a1.886,1.886,0,0,1,.286,1.058v.192a2.286,2.286,0,0,1-.407,1.406,2.241,2.241,0,0,1-1.167.783,6.215,6.215,0,0,1-1.843.239,11.429,11.429,0,0,1-1.95-.121.76.76,0,0,1-.415-.184.606.606,0,0,1-.123-.426v-7.086a.871.871,0,0,1,.049-.324.382.382,0,0,1,.159-.187.886.886,0,0,1,.3-.1q.281-.044.783-.076t1.1-.033a7.6,7.6,0,0,1,1.436.12,3.406,3.406,0,0,1,1.074.388,1.874,1.874,0,0,1,.706.711,2.152,2.152,0,0,1,.25,1.066v.225a2.148,2.148,0,0,1-.118.709,1.708,1.708,0,0,1-.352.59,1.638,1.638,0,0,1-.563.4A1.718,1.718,0,0,1,7109.816,2892.86Zm-7.656,3.4a.179.179,0,0,1-.058.14.206.206,0,0,1-.145.052h-1.192a.2.2,0,0,1-.135-.058.252.252,0,0,1-.08-.134l-.516-2.137h-2.587l-.517,2.137a.25.25,0,0,1-.079.134.2.2,0,0,1-.135.058h-1.192a.208.208,0,0,1-.146-.052.181.181,0,0,1-.057-.14l.008-.022a.136.136,0,0,0,0-.033l1.845-7.053a1.638,1.638,0,0,1,3.126,0l1.846,7.053.008.027A.118.118,0,0,1,7102.16,2896.258Zm12.935-2.422a1.069,1.069,0,1,1,.422-1.317A1.081,1.081,0,0,1,7115.1,2893.836Z" fill="#e76f51"/>
    <path id="Path_38340" data-name="Path 38340" d="M7108.223,2891.309a1.02,1.02,0,0,0,.308-.775v-.159a1,1,0,0,0-.187-.635,1.108,1.108,0,0,0-.615-.34,4.89,4.89,0,0,0-1.148-.107c-.151,0-.423.009-.819.027v2.28h1.428A1.483,1.483,0,0,0,7108.223,2891.309Z" fill="#e76f51"/>
    <path id="Path_38341" data-name="Path 38341" d="M7098.856,2889.356a.164.164,0,0,0-.118-.036.153.153,0,0,0-.113.036.317.317,0,0,0-.063.14l-.813,3.345h1.983l-.813-3.345A.341.341,0,0,0,7098.856,2889.356Z" fill="#e76f51"/>
  </g>
</svg>
