<svg xmlns="http://www.w3.org/2000/svg" width="50" height="41.554" viewBox="0 0 50 41.554">
  <path id="Path_86557" data-name="Path 86557" d="M6661.765,2351.156a14.062,14.062,0,0,0-19.882,0l-1,1-1-1a14.046,14.046,0,1,0-19.262,20.422l18.467,16.336a2.709,2.709,0,0,0,3.59,0l18.467-16.336a13.929,13.929,0,0,0,.62-20.421Zm-4.3,15.97h-5.256l-1.9,6.617a1.28,1.28,0,0,1-1.229.926h-.036a1.279,1.279,0,0,1-1.211-.995l-2.536-11.188-1.484,5.491a1.278,1.278,0,0,1-1.234.945h-2.356a1.279,1.279,0,0,1-1.2-.841l-.581-1.594-1.24,4.067a1.279,1.279,0,0,1-2.473-.106l-1.478-6.914-1.267,3.166a1.277,1.277,0,0,1-1.187.8h-6.5a1.278,1.278,0,1,1,0-2.557h5.635l2.506-6.26a1.278,1.278,0,0,1,2.437.208l1.323,6.19.915-3a1.279,1.279,0,0,1,1.189-.905h.034a1.279,1.279,0,0,1,1.2.84l1.583,4.345h.482l2.571-9.514a1.278,1.278,0,0,1,2.481.05l2.574,11.353.792-2.758a1.28,1.28,0,0,1,1.229-.926h6.219a1.278,1.278,0,0,1,0,2.557Z" transform="translate(-6615.883 -2347.039)" fill="#e9c46a"/>
</svg>
