<svg xmlns="http://www.w3.org/2000/svg" width="25.86" height="37.145" viewBox="0 0 25.86 37.145"><g transform="translate(-1809.23 -1226.979)"><path d="M1832.069,1246.8c.057-.094.118-.193.2-.317a.537.537,0,0,0,.029-.048c.15-.283.383-.7.394-.717a12.652,12.652,0,0,0,1.4-5.811q0-.328-.014-.65c0-.094-.011-.187-.017-.279l-.013-.185c0-.06-.006-.119-.012-.174-.006-.077-.015-.153-.024-.228l-.018-.165c-.008-.078-.016-.157-.027-.236-.008-.062-.018-.124-.029-.185l-.024-.159c-.013-.089-.027-.179-.042-.266-.013-.071-.028-.142-.042-.212l-.039-.189c-.013-.067-.027-.132-.041-.2-.022-.094-.046-.186-.07-.279l-.04-.157c-.012-.049-.024-.1-.038-.147-.029-.1-.06-.2-.091-.3l-.038-.125c-.015-.049-.029-.1-.044-.142-.033-.1-.069-.2-.1-.292l-.047-.128c-.016-.046-.032-.091-.049-.133-.041-.108-.086-.214-.132-.32l-.05-.119c-.013-.033-.027-.066-.041-.1-.064-.141-.131-.28-.2-.419l-.048-.1c-.071-.138-.145-.273-.236-.435l-.035-.065c-.083-.143-.169-.283-.269-.441l-.027-.043c-.091-.14-.185-.277-.289-.423l-.028-.041c-.1-.143-.211-.283-.316-.413l-.025-.033c-.115-.141-.233-.28-.362-.425s-.251-.272-.382-.4l0,0a11.857,11.857,0,0,0-8.625-3.323c-7.023,0-11.93,4.905-11.93,11.929a12.794,12.794,0,0,0,1.6,6.2l.179.329.021.037.3.461c.033.051.067.1.084.127l7.633,12.826h-.006l1.768,2.974a.531.531,0,0,0,.455.259h0a.529.529,0,0,0,.454-.264l1.725-2.969h0l7.443-12.81C1831.957,1246.984,1832.011,1246.9,1832.069,1246.8Zm-3.225-6.759c-.007.064-.017.125-.028.187l-.023.16c-.015.108-.03.217-.052.323-.016.08-.037.162-.06.243l-.044.172c-.019.077-.037.153-.06.227-.032.1-.068.2-.106.3l-.058.157c-.02.055-.039.11-.061.164-.051.122-.111.241-.171.36l-.052.106c-.019.041-.037.081-.059.121-.081.149-.171.293-.263.436-.034.058-.051.088-.071.117-.1.154-.217.3-.333.449l-.048.064c-.125.152-.263.306-.412.457a6.721,6.721,0,0,1-4.743,2.017l-.067,0a6.745,6.745,0,1,1,0-13.491l.07,0a6.7,6.7,0,0,1,4.72,1.995l.029.031c.152.154.283.3.4.445.017.02.03.039.044.058.121.153.235.3.339.458a1.008,1.008,0,0,1,.054.087c.109.172.2.316.281.466.021.041.04.081.059.123l.025.052c.079.156.142.281.2.412.023.054.043.111.063.168l.056.153c.038.1.075.2.106.3.023.074.042.151.06.229l.043.167c.024.083.045.165.062.249.021.1.036.211.051.321l.024.159c.01.062.021.123.027.186a6.936,6.936,0,0,1,0,1.373Z" fill="none" stroke="#4d4e50" stroke-miterlimit="10" stroke-width="2"/></g></svg>