<svg xmlns="http://www.w3.org/2000/svg" width="47.529" height="47.5" viewBox="0 0 47.529 47.5">
  <g id="Group_1256" data-name="Group 1256" transform="translate(-7354.971 -2601.04)">
    <path id="Path_38332" data-name="Path 38332" d="M7378.736,2601.04a23.759,23.759,0,0,0-22.93,29.958,1.39,1.39,0,0,0,1.343,1.028h43.173a1.39,1.39,0,0,0,1.343-1.028,23.76,23.76,0,0,0-22.929-29.958Zm-13.24,25.142h-2.625a1.392,1.392,0,0,1,0-2.784h2.625a1.392,1.392,0,0,1,0,2.784Zm2.979-7.316a1.393,1.393,0,0,1-1.9.509l-2.273-1.312a1.392,1.392,0,0,1,1.392-2.41l2.272,1.312A1.392,1.392,0,0,1,7368.475,2618.866Zm4.336-4.337a1.392,1.392,0,0,1-1.9-.509l-1.312-2.273a1.392,1.392,0,0,1,2.411-1.392l1.312,2.273A1.391,1.391,0,0,1,7372.811,2614.529Zm4.533-5.6a1.391,1.391,0,1,1,2.783,0v2.624a1.391,1.391,0,1,1-2.783,0Zm6.736,12.488-4.36,4.36a1.392,1.392,0,0,1-1.968-1.968l4.36-4.361a1.392,1.392,0,0,1,1.968,1.969Zm3.793-9.667-1.312,2.273a1.392,1.392,0,0,1-2.411-1.392l1.313-2.273a1.392,1.392,0,0,1,2.41,1.392Zm1.124,7.119a1.39,1.39,0,0,1,.509-1.9l2.273-1.312a1.391,1.391,0,1,1,1.391,2.41l-2.273,1.312A1.39,1.39,0,0,1,7389,2618.866Zm5.6,7.316h-2.624a1.392,1.392,0,1,1,0-2.784h2.624a1.392,1.392,0,0,1,0,2.784Z" fill="#2a9d8f"/>
    <path id="Path_38333" data-name="Path 38333" d="M7387.279,2635.817a1.648,1.648,0,0,0-3.193-.131l-2.031,7.125c-.01-.037-2.109-7.152-2.121-7.188a1.648,1.648,0,0,0-3.177.213l0,.016-1.978,10.961a1.392,1.392,0,0,0,2.739.5l1.125-6.237c.011.037,1.862,6.311,1.874,6.347a1.647,1.647,0,0,0,3.14-.064l1.794-6.292,1.2,6.26a1.392,1.392,0,0,0,2.734-.523c0-.016-2.1-10.966-2.1-10.982Z" fill="#2a9d8f"/>
    <path id="Path_38334" data-name="Path 38334" d="M7393.86,2634.5a1.391,1.391,0,0,0-1.391,1.392v11.256a1.391,1.391,0,1,0,2.783,0v-11.256a1.392,1.392,0,0,0-1.392-1.392Z" fill="#2a9d8f"/>
    <path id="Path_38335" data-name="Path 38335" d="M7370.214,2640.656a3.979,3.979,0,0,0-3.333-6.156h-3.27a1.391,1.391,0,0,0-1.392,1.392v11.256a1.392,1.392,0,0,0,1.392,1.392h.006c.03,0,3.017-.014,3.835-.014a4.419,4.419,0,0,0,2.762-7.87Zm-5.212-3.373h1.879a1.2,1.2,0,0,1,0,2.4c-.569,0-.644,0-1.879,0Zm2.45,8.46c-.449,0-1.543,0-2.45.008v-3.282c.86,0,.456,0,2.45,0a1.638,1.638,0,0,1,0,3.276Z" fill="#2a9d8f"/>
  </g>
</svg>
