<svg xmlns="http://www.w3.org/2000/svg" width="44.191" height="47.5" viewBox="0 0 44.191 47.5">
  <g id="Group_1255" data-name="Group 1255" transform="translate(-7080.616 -2595.674)">
    <path id="Path_38342" data-name="Path 38342" d="M7115.449,2595.674h-25.475a9.351,9.351,0,0,0-9.307,10.314l3,28.8a9.354,9.354,0,0,0,9.307,8.381h8.35v-11.181a1.392,1.392,0,0,1,2.783,0v11.181h8.35a9.352,9.352,0,0,0,9.306-8.381l3-28.8a9.352,9.352,0,0,0-9.307-10.314Zm3.049,15.232-7.583,8.708a1.393,1.393,0,0,1-1.05.477h-14.307a1.393,1.393,0,0,1-1.05-.477l-7.583-8.708a1.389,1.389,0,0,1,0-1.825,20.387,20.387,0,0,1,31.573,0,1.39,1.39,0,0,1,0,1.825Z" fill="#e9c46a"/>
    <path id="Path_38343" data-name="Path 38343" d="M7113.073,2607.836l-1.207,1.429a1.391,1.391,0,1,1-2.138-1.78l.938-1.147a17.218,17.218,0,0,0-6.563-1.906v1.712a1.392,1.392,0,0,1-2.783,0v-1.712a17.223,17.223,0,0,0-6.564,1.906l.938,1.147a1.39,1.39,0,0,1-2.137,1.78l-1.212-1.426a20.058,20.058,0,0,0-2.5,2.18l6.349,7.292h3.706l2.186-4.729a.692.692,0,0,1,1.257,0l2.185,4.729h3.706l6.35-7.292a20.177,20.177,0,0,0-2.508-2.183Z" fill="#e9c46a"/>
  </g>
</svg>
