<svg xmlns="http://www.w3.org/2000/svg" width="42.983" height="50" viewBox="0 0 42.983 50">
  <g id="Group_1252" data-name="Group 1252" transform="translate(-6343.367 -2335.666)">
    <path id="Path_62296" data-name="Path 62296" d="M6385.869,2341.225l-5.078-5.078a1.648,1.648,0,0,0-2.328,0h0a1.648,1.648,0,0,0,0,2.328l.6.594-4.081,4.081,3.889,3.889,4.081-4.081.594.595a1.646,1.646,0,1,0,2.328-2.328" fill="#f4a261"/>
    <path id="Path_62297" data-name="Path 62297" d="M6381.447,2352.911l-12.342-12.342a.582.582,0,0,0-.823,0l-2.468,2.468a.582.582,0,0,0,0,.823l1.6,1.6-17.472,17.472a4.638,4.638,0,0,0-.344,6.162l-.565.565a1.148,1.148,0,0,0-.148,1.423l-5.088,5.088a1.455,1.455,0,0,0,2.057,2.057l5.088-5.088a1.147,1.147,0,0,0,1.423-.148l.565-.565a4.639,4.639,0,0,0,6.162-.344l17.472-17.472,1.6,1.6a.581.581,0,0,0,.823,0l2.468-2.468a.582.582,0,0,0,0-.823m-24.25,10.963-3.147,3.146a1.454,1.454,0,0,1-2.056-2.056l3.146-3.147a1.454,1.454,0,0,1,2.057,2.057m4.641-4.64-1.077,1.076a1.455,1.455,0,1,1-2.056-2.058l1.076-1.076a1.455,1.455,0,0,1,2.057,2.058m8.565-2.585-7.278-2.794,5.481-5.481,5.036,5.036Z" fill="#f4a261"/>
    <path id="Path_62298" data-name="Path 62298" d="M6374.947,2360.736l-7.246,11.272a8.581,8.581,0,0,0-1.369,4.659v.383a8.615,8.615,0,1,0,17.23,0v-.383a8.594,8.594,0,0,0-1.369-4.659Zm0,22.776v-2.154a4.312,4.312,0,0,0,4.307-4.308h2.154a6.468,6.468,0,0,1-6.461,6.462" fill="#f4a261"/>
  </g>
</svg>
