<svg xmlns="http://www.w3.org/2000/svg" width="30.439" height="22.756" viewBox="0 0 30.439 22.756"><g transform="translate(-1777.247 -954.077)"><rect width="8.571" height="6.797" rx="0.443" transform="translate(1788.182 954.077)" fill="#bf4b40"/><path d="M.444,0H8.127A.444.444,0,0,1,8.57.444v5.91a.444.444,0,0,1-.444.444H.443A.443.443,0,0,1,0,6.354V.444A.444.444,0,0,1,.444,0Z" transform="translate(1799.116 970.035)" fill="#bf4b40"/><path d="M.444,0H8.127a.444.444,0,0,1,.444.444v5.91a.444.444,0,0,1-.444.444H.443A.443.443,0,0,1,0,6.354V.444A.444.444,0,0,1,.444,0Z" transform="translate(1788.182 970.035)" fill="#bf4b40"/><path d="M.444,0H8.127A.444.444,0,0,1,8.57.444v5.91a.444.444,0,0,1-.444.444H.443A.443.443,0,0,1,0,6.354V.444A.444.444,0,0,1,.444,0Z" transform="translate(1777.247 970.035)" fill="#bf4b40"/><path d="M1804.331,964.938a.443.443,0,0,0-.443-.444h-10.535v-2.438a.443.443,0,0,0-.443-.444h-.886a.444.444,0,0,0-.444.444v2.438h-10.563a.444.444,0,0,0-.444.444v.158a.526.526,0,0,0-.011.054v3.556a.445.445,0,0,0,.444.443h.887a.444.444,0,0,0,.443-.443v-2.439h9.244v2.439a.444.444,0,0,0,.444.443h.886a.443.443,0,0,0,.443-.443v-2.439h9.208v2.521a.443.443,0,0,0,.443.443h.887a.443.443,0,0,0,.443-.443v-3.721l0-.016Z" fill="#bf4b40"/></g></svg>