<svg id="Capa_1" enable-background="new 0 0 512 512" height="512" viewBox="0 0 512 512" width="512" xmlns="http://www.w3.org/2000/svg"><g id="XMLID_3028_"><path id="XMLID_2848_" d="m34 416h256v64h-256z" fill="#ffcb7c"/><path id="XMLID_1396_" d="m10 352h256v64h-256z" fill="#ffd89e"/><path id="XMLID_1400_" d="m34 288h256v64h-256z" fill="#ffcb7c"/><circle id="XMLID_2820_" cx="374" cy="352" fill="#ffcb7c" r="128"/><g id="XMLID_2988_"><circle id="XMLID_2995_" cx="138" cy="160" fill="#ffcb7c" r="128"/><g id="XMLID_145_"><path id="XMLID_1284_" d="m499.343 294.193c-2.316-5.015-8.263-7.201-13.271-4.885-5.014 2.316-7.201 8.258-4.885 13.271 7.174 15.535 10.813 32.162 10.813 49.421 0 65.065-52.935 118-118 118s-118-52.935-118-118 52.935-118 118-118c17.259 0 33.888 3.639 49.423 10.814 5.008 2.314 10.955.13 13.271-4.885 2.316-5.014.129-10.956-4.885-13.271-18.183-8.399-37.633-12.658-57.809-12.658-48.885 0-91.912 25.552-116.433 64h-48.075c39.842-24.229 66.508-68.059 66.508-118 0-76.093-61.906-138-138-138s-138 61.907-138 138c0 49.941 26.666 93.771 66.508 118h-32.508c-5.522 0-10 4.477-10 10v54h-14c-5.522 0-10 4.477-10 10v64c0 5.523 4.478 10 10 10h14v54c0 5.523 4.478 10 10 10h256c5.522 0 10-4.477 10-10v-11.567c21.399 13.649 46.792 21.567 74 21.567 76.094 0 138-61.907 138-138 0-20.176-4.259-39.625-12.657-57.807zm-479.343-134.193c0-65.065 52.935-118 118-118s118 52.935 118 118-52.935 118-118 118-118-52.935-118-118zm24 138h203.009c-5.839 13.681-9.528 28.49-10.644 44h-192.365zm-24 64h216.365c1.116 15.51 4.805 30.319 10.644 44h-227.009zm260 108h-236v-44h213.567c6.319 9.908 13.872 18.955 22.433 26.934z"/><path id="XMLID_1939_" d="m464.51 271.49c2.63 0 5.21-1.07 7.07-2.93 1.859-1.86 2.93-4.44 2.93-7.07s-1.07-5.21-2.93-7.07-4.44-2.93-7.07-2.93-5.21 1.07-7.07 2.93c-1.859 1.86-2.93 4.44-2.93 7.07s1.07 5.21 2.93 7.07 4.44 2.93 7.07 2.93z"/><path id="XMLID_1998_" d="m374 442.681c5.522 0 10-4.477 10-10v-9.651c18.72-4.589 30.725-20.507 33.363-36.204 3.414-20.309-7.202-37.963-27.045-44.978-2.079-.735-4.198-1.499-6.318-2.288v-39.276c5.306 1.756 8.796 4.233 8.98 4.366 4.401 3.29 10.637 2.415 13.96-1.97 3.335-4.402 2.47-10.674-1.932-14.009-.532-.403-8.803-6.537-21.009-9.06v-8.293c0-5.523-4.478-10-10-10s-10 4.477-10 10v8.225c-1.327.276-2.667.605-4.024 1.013-13.112 3.939-22.911 15.143-25.573 29.237-2.436 12.899 1.718 25.355 10.839 32.51 4.754 3.729 10.661 7.136 18.759 10.731v51.087c-6.749-.543-11.118-2.25-18.493-7.075-4.623-3.024-10.819-1.727-13.843 2.894-3.023 4.622-1.729 10.82 2.894 13.843 11.492 7.518 19.353 9.792 29.442 10.383v8.514c0 5.524 4.478 10.001 10 10.001zm23.64-59.17c-1.197 7.124-5.824 14.657-13.64 18.41v-41.083c15.237 5.593 14.3 18.748 13.64 22.673zm-40.056-56.945c-3.172-2.488-4.557-7.615-3.528-13.062.91-4.822 4-10.571 9.944-13.148v30.388c-2.402-1.343-4.577-2.735-6.416-4.178z"/><path id="XMLID_2006_" d="m154.318 149.849c-2.079-.735-4.198-1.499-6.318-2.288v-39.276c5.318 1.76 8.812 4.244 8.981 4.367 4.4 3.289 10.636 2.414 13.959-1.971 3.335-4.402 2.47-10.674-1.932-14.009-.532-.403-8.803-6.538-21.009-9.06v-8.293c0-5.523-4.478-10-10-10s-10 4.477-10 10v8.225c-1.327.276-2.667.605-4.023 1.013-13.113 3.939-22.912 15.143-25.574 29.237-2.436 12.899 1.718 25.355 10.839 32.51 4.754 3.729 10.661 7.136 18.759 10.731v51.084c-6.752-.543-11.117-2.246-18.493-7.072-4.622-3.023-10.82-1.727-13.843 2.894-3.023 4.622-1.729 10.82 2.894 13.843 11.492 7.518 19.353 9.792 29.442 10.383v8.514c0 5.523 4.478 10 10 10s10-4.477 10-10v-9.651c18.72-4.589 30.725-20.507 33.363-36.204 3.414-20.308-7.202-37.963-27.045-44.977zm-32.734-15.283c-3.172-2.488-4.557-7.615-3.528-13.062.91-4.822 4-10.571 9.944-13.148v30.388c-2.402-1.343-4.577-2.735-6.416-4.178zm40.056 56.945c-1.197 7.124-5.824 14.657-13.64 18.41v-41.083c15.237 5.593 14.3 18.748 13.64 22.673z"/></g></g></g></svg>