<svg xmlns="http://www.w3.org/2000/svg" width="32.226" height="50" viewBox="0 0 32.226 50">
  <g id="Group_1254" data-name="Group 1254" transform="translate(-6624.77 -2874.128)">
    <path id="Path_62307" data-name="Path 62307" d="M6655.531,2918.269h-4.394v-3.125h1.958a1.465,1.465,0,0,0,0-2.93h-1.958v-2.929h3.911a1.465,1.465,0,1,0,0-2.93h-3.911v-2.93h1.958a1.464,1.464,0,1,0,0-2.929h-1.958v-2.93h3.911a1.465,1.465,0,1,0,0-2.93h-3.911v-2.929h1.958a1.465,1.465,0,0,0,0-2.93h-1.958v-2.93h3.911a1.465,1.465,0,1,0,0-2.93h-3.911v-2.929h1.958a1.465,1.465,0,0,0,0-2.93h-1.958v-1.465a1.465,1.465,0,1,0-2.93,0v42.676h-5.289l.623-9.961h-11.165l.622,9.961h-6.763a1.465,1.465,0,0,0-1.465,1.465v2.93a1.465,1.465,0,0,0,2.929,0V2921.2h26.368v1.465a1.465,1.465,0,0,0,2.929,0v-2.93A1.465,1.465,0,0,0,6655.531,2918.269Z" fill="#f4a261"/>
    <circle id="Ellipse_190" data-name="Ellipse 190" cx="4.395" cy="4.395" r="4.395" transform="translate(6633.568 2879.011)" fill="#f4a261"/>
    <path id="Path_62308" data-name="Path 62308" d="M6632.1,2905.378h11.714a1.464,1.464,0,0,0,1.464-1.464v-9.769a7.3,7.3,0,0,0-2.348-5.367,7.305,7.305,0,0,1-9.944,0,7.3,7.3,0,0,0-2.351,5.369v9.769a1.464,1.464,0,0,0,1.465,1.464Z" fill="#f4a261"/>
  </g>
</svg>
