<svg xmlns="http://www.w3.org/2000/svg" width="45.518" height="50" viewBox="0 0 45.518 50">
  <g id="Group_1252" data-name="Group 1252" transform="translate(-6342.1 -2601.917)">
    <path id="Path_62299" data-name="Path 62299" d="M6376.966,2631.381a.893.893,0,0,1,.893-.893h9.759c-.009-.607-.045-1.205-.107-1.786h-9.652a.892.892,0,1,1,0-1.785h9.393c-.125-.616-.277-1.206-.446-1.786h-8.054a.893.893,0,0,1,0-1.786h7.41c-1.6-3.759-4.339-6.25-7.455-6.25a5.073,5.073,0,0,0-.652.036,7.067,7.067,0,0,0-4.071,2.08l-.018.018a11.635,11.635,0,0,0-1.669,2.089c-.161.268-.322.545-.474.831-.205.383-.392.786-.571,1.2h3.929a.893.893,0,0,1,0,1.786h-4.572c-.17.58-.321,1.17-.446,1.786h4.125a.892.892,0,1,1,0,1.785H6369.9c-.063.581-.1,1.179-.107,1.786h4.491a.893.893,0,0,1,0,1.786h-4.465c.036.607.108,1.205.2,1.786h4.268a.892.892,0,0,1,0,1.785h-3.92a18.161,18.161,0,0,0,.536,1.786h4.276a.893.893,0,1,1,0,1.786h-3.509a12.384,12.384,0,0,0,2.027,2.973.773.773,0,0,1,.125.116,7.127,7.127,0,0,0,4.215,2.232c.223.018.446.036.669.036,2.857,0,5.4-2.107,7.036-5.357h-6.991a.893.893,0,1,1,0-1.786h7.768c.2-.571.375-1.169.527-1.786h-9.188a.892.892,0,1,1,0-1.785h9.536c.089-.581.161-1.179.2-1.786h-9.732a.893.893,0,0,1-.893-.893" fill="#2a9d8f"/>
    <path id="Path_62300" data-name="Path 62300" d="M6378.707,2646.56a7.492,7.492,0,0,1-.893-.063v.955a2.687,2.687,0,0,1-2.678,2.679h-16.965a2.686,2.686,0,0,1-2.678-2.679v-6.25h-1.786v6.25a4.465,4.465,0,0,0,4.464,4.465h16.965a4.465,4.465,0,0,0,4.464-4.465v-.955a7.478,7.478,0,0,1-.893.063" fill="#2a9d8f"/>
    <path id="Path_62301" data-name="Path 62301" d="M6354.6,2636.738a7.073,7.073,0,0,1-2.679-.527v2.313a.893.893,0,0,0,.893.893h3.572a.893.893,0,0,0,.893-.893v-2.313a7.047,7.047,0,0,1-2.679.527" fill="#2a9d8f"/>
    <path id="Path_62302" data-name="Path 62302" d="M6369.181,2623.828a17.988,17.988,0,0,1,1.017-2.349c.161-.3.322-.6.5-.893a14.052,14.052,0,0,1,1.758-2.312v-4.75a2.687,2.687,0,0,0-2.678-2.679H6342.1v29.464a2.687,2.687,0,0,0,2.679,2.679h7.142v-1.946a2.689,2.689,0,0,1-1.785-2.518v-3.357a7.133,7.133,0,0,1-.6-10.608c.008,0,.008-.008.008-.017s.018,0,.018-.009a7.136,7.136,0,0,1,10.072,0c0,.009.009.009.017.009s0,.017.01.017a7.135,7.135,0,0,1-.6,10.608v3.357a2.687,2.687,0,0,1-1.786,2.518v1.946h14.286a1.033,1.033,0,0,0,.286-.053,15.831,15.831,0,0,1-2.3-3.947.685.685,0,0,1-.107-.259,20.837,20.837,0,0,1-1.428-7.3c0-.018-.009-.027-.009-.045s.009-.018.009-.027c-.009-.143-.018-.277-.018-.419a21.441,21.441,0,0,1,1.107-6.876.7.7,0,0,1,.081-.231" fill="#2a9d8f"/>
    <path id="Path_62303" data-name="Path 62303" d="M6359.064,2629.595a.878.878,0,0,1,.813-.875,5.264,5.264,0,0,0-.929-2.241.843.843,0,0,1-.562.223.887.887,0,0,1-.67-1.455,5.245,5.245,0,0,0-2.241-.928.878.878,0,0,1-1.75,0,5.247,5.247,0,0,0-2.241.928.887.887,0,0,1-.67,1.455.837.837,0,0,1-.562-.223,5.264,5.264,0,0,0-.929,2.241.878.878,0,0,1,0,1.75,5.347,5.347,0,0,0,10.554,0,.877.877,0,0,1-.813-.875m-3.571,2.679a.893.893,0,0,1-1.786,0v-4.464a.893.893,0,0,1,1.786,0Z" fill="#2a9d8f"/>
    <path id="Path_62304" data-name="Path 62304" d="M6376.921,2601.917h-32.142a2.686,2.686,0,0,0-2.679,2.678v4.465h1.786v-4.465a.893.893,0,0,1,.893-.893h32.142a.893.893,0,0,1,.893.893v10.777a6.437,6.437,0,0,1,1.786,0v-10.777a2.687,2.687,0,0,0-2.679-2.678" fill="#2a9d8f"/>
  </g>
</svg>
