<svg xmlns="http://www.w3.org/2000/svg" width="392.663" height="392.663" viewBox="0 0 392.663 392.663"><path d="M66.909,37.236H57.471a10.925,10.925,0,1,0,0,21.85h9.374a10.925,10.925,0,0,0,.064-21.85Z" fill="#194f82"/><path d="M212.04,37.236h-9.374a10.925,10.925,0,1,0,0,21.85h9.374a10.925,10.925,0,1,0,0-21.85Z" fill="#194f82"/><path d="M63.16,110.093h-9.7a10.925,10.925,0,0,0,0,21.85h9.7a10.925,10.925,0,0,0,0-21.85Z" fill="#194f82"/><path d="M114.166,110.093H104.4a10.925,10.925,0,0,0,0,21.85h9.762a10.925,10.925,0,1,0,0-21.85Z" fill="#194f82"/><path d="M155.345,131.879h9.762a10.925,10.925,0,1,0,0-21.85h-9.762a10.925,10.925,0,1,0,0,21.85Z" fill="#194f82"/><path d="M206.287,131.879h9.762a10.925,10.925,0,1,0,0-21.85h-9.762a10.925,10.925,0,1,0,0,21.85Z" fill="#194f82"/><path d="M63.16,153.729h-9.7a10.925,10.925,0,0,0,0,21.85h9.7a10.925,10.925,0,0,0,0-21.85Z" fill="#194f82"/><path d="M114.166,153.729H104.4a10.925,10.925,0,0,0,0,21.85h9.762a10.925,10.925,0,1,0,0-21.85Z" fill="#194f82"/><path d="M155.345,175.515h9.762a10.925,10.925,0,1,0,0-21.85h-9.762a10.925,10.925,0,1,0,0,21.85Z" fill="#194f82"/><path d="M206.287,175.515h9.762a10.925,10.925,0,1,0,0-21.85h-9.762a10.925,10.925,0,1,0,0,21.85Z" fill="#194f82"/><path d="M63.16,197.43h-9.7a10.925,10.925,0,0,0,0,21.85h9.7a10.925,10.925,0,0,0,0-21.85Z" fill="#194f82"/><path d="M114.166,197.43H104.4a10.925,10.925,0,1,0,0,21.85h9.762a10.925,10.925,0,0,0,0-21.85Z" fill="#194f82"/><path d="M176.032,208.291a10.911,10.911,0,0,0-10.925-10.925h-9.762a10.925,10.925,0,1,0,0,21.85h9.762A10.911,10.911,0,0,0,176.032,208.291Z" fill="#194f82"/><path d="M315.281,237.964a69.454,69.454,0,0,0-12.671,1.164c-.065-20.234-6.982-37.172-21.01-46.933a49.1,49.1,0,0,0-12.024-5.818V10.925A10.912,10.912,0,0,0,258.651,0H10.925A10.912,10.912,0,0,0,0,10.925V247.919a10.911,10.911,0,0,0,10.925,10.925H158.513c-22.432,42.99-20.945,86.626,5.495,104.792,21.657,14.869,53.269,7.822,81.584-15.127a77.294,77.294,0,1,0,69.689-110.545ZM269.253,210.23c17.713,12.154,15,48.614-5.042,82.941l-70.529-48.356C218.505,213.786,251.6,198.077,269.253,210.23ZM21.851,21.851h225.81V74.344H21.851Zm0,215.208V96.129h225.81v88.889c-25.083,3.168-53.463,21.915-75.507,51.976H21.851ZM176.291,345.6c-17.713-12.154-15-48.614,5.042-82.941l70.529,48.356C227.168,342.044,194.069,357.754,176.291,345.6Zm86.174-13.188A171.99,171.99,0,0,0,276.3,314.893a.227.227,0,0,0,.065-.129h0c11.96-17.455,19.846-35.685,23.661-52.752a54.59,54.59,0,0,1,15.192-2.133,55.394,55.394,0,0,1,30.772,9.374l-76.865,76.735A56.313,56.313,0,0,1,262.465,332.412Zm52.816,38.4a55.822,55.822,0,0,1-30.707-9.374l76.865-76.865a55.4,55.4,0,0,1-46.158,86.239Z" fill="#194f82"/></svg>