<svg xmlns="http://www.w3.org/2000/svg" width="32" height="34.29" viewBox="0 0 32 34.29"><g transform="translate(-1806.16 -1417.327)"><ellipse cx="15" cy="16.145" rx="15" ry="16.145" transform="translate(1807.16 1418.327)" fill="none" stroke="#454545" stroke-linecap="round" stroke-linejoin="round" stroke-width="2"/><path d="M1813.682,1442.9v-2.808c0-2.47,4.565-4.211,8.478-4.211s8.251,1.776,8.479,4.247v2.772" fill="none" stroke="#454545" stroke-linecap="round" stroke-linejoin="round" stroke-width="2"/><path d="M1822.921,1435.876H1821.4a3.725,3.725,0,0,1-3.267-1.971,3.873,3.873,0,0,1-.538-1.978v-4.738a3.827,3.827,0,0,1,3.805-3.949h1.521a3.827,3.827,0,0,1,3.8,3.949v4.738a3.871,3.871,0,0,1-.533,1.969A3.725,3.725,0,0,1,1822.921,1435.876Z" fill="none" stroke="#454545" stroke-linecap="round" stroke-linejoin="round" stroke-width="2"/><path d="M1817.693,1436.578l4.467,4.212,4.448-4.191" fill="none" stroke="#454545" stroke-linecap="round" stroke-linejoin="round" stroke-width="2"/><path d="M1817.595,1427.452a3.466,3.466,0,0,1,3.913,0c1.957,1.4,5.218.7,5.218.7" fill="none" stroke="#454545" stroke-linecap="round" stroke-linejoin="round" stroke-width="2"/></g></svg>