<svg xmlns="http://www.w3.org/2000/svg" width="33.366" height="43.75" viewBox="0 0 33.366 43.75">
  <g id="Group_1253" data-name="Group 1253" transform="translate(-6348.176 -2871.293)">
    <path id="Path_62305" data-name="Path 62305" d="M6364.38,2897.3v-19.776a6.232,6.232,0,0,0-12.465,0V2897.3a9.974,9.974,0,1,0,12.465.005M6358,2911h-.052a5.936,5.936,0,0,1-5.734-6.126,1.481,1.481,0,0,1,1.569-1.468,1.518,1.518,0,0,1,1.468,1.567,2.9,2.9,0,0,0,2.8,2.991A1.519,1.519,0,0,1,6358,2911m2.731-20.266h-5.173v-13.212a2.586,2.586,0,0,1,5.173,0Z" fill="#e76f51"/>
    <path id="Path_62306" data-name="Path 62306" d="M6380.023,2879.8a1.519,1.519,0,0,0-1.519,1.519,1.215,1.215,0,0,1-2.431,0v-5.469a1.215,1.215,0,0,1,2.431,0,1.519,1.519,0,0,0,3.038,0,4.253,4.253,0,0,0-8.507,0v5.469a4.253,4.253,0,0,0,8.507,0,1.519,1.519,0,0,0-1.519-1.519m-10.938-8.2a2.431,2.431,0,1,0,2.431,2.43,2.43,2.43,0,0,0-2.431-2.43" fill="#e76f51"/>
  </g>
</svg>
