<svg xmlns="http://www.w3.org/2000/svg" width="47.5" height="44.967" viewBox="0 0 47.5 44.967">
  <g id="Group_1258" data-name="Group 1258" transform="translate(-7354.985 -2867.962)">
    <path id="Path_38336" data-name="Path 38336" d="M7383.123,2884.651c-3.616-6.731-10.047-14.083-12.13-16.39a.9.9,0,0,0-1.343,0c-2.956,3.273-14.665,16.7-14.665,24.1a15.344,15.344,0,0,0,21.339,14.116,12.547,12.547,0,0,1-1.615-6.171c0-1.5.787-5.11,6.057-12.5C7381.545,2886.715,7382.343,2885.653,7383.123,2884.651Zm-7.509,5.351a.543.543,0,0,1-.543.543h-3.121a.272.272,0,0,0-.272.272v3.121a.543.543,0,0,1-.543.543h-1.628a.543.543,0,0,1-.543-.543v-3.121a.272.272,0,0,0-.271-.272h-3.122a.543.543,0,0,1-.543-.543v-1.628a.543.543,0,0,1,.543-.543h3.122a.272.272,0,0,0,.271-.272v-3.121a.543.543,0,0,1,.543-.543h1.628a.543.543,0,0,1,.543.543v3.121a.272.272,0,0,0,.272.272h3.121a.543.543,0,0,1,.543.543Z" fill="#03566e"/>
    <path id="Path_38337" data-name="Path 38337" d="M7396.428,2887.808c-2.2-3.09-4.557-5.94-6.222-7.871h0a.452.452,0,0,0-.684,0c-1.665,1.931-4.019,4.781-6.222,7.871-5.271,7.39-6.057,11-6.057,12.5a12.621,12.621,0,0,0,25.242,0C7402.485,2898.812,7401.7,2895.2,7396.428,2887.808Zm-1.271,11.82a.724.724,0,0,1-.724.723h-9.138a.724.724,0,0,1-.724-.723v-1.117a.724.724,0,0,1,.724-.724h9.138a.724.724,0,0,1,.724.724Z" fill="#03566e"/>
  </g>
</svg>
