<svg xmlns="http://www.w3.org/2000/svg" width="258.75" height="338.554" viewBox="0 0 258.75 338.554">
  <path id="Subtraction_5" data-name="Subtraction 5" d="M252.47,353.554H36.282A21.306,21.306,0,0,1,15,332.273V53.627A21.116,21.116,0,0,1,18.941,41.3,21.387,21.387,0,0,1,29,33.628l6.5-1.268c.26-.009.522-.014.78-.014H80.626V49.693h127.5V32.347H252.47A21.305,21.305,0,0,1,273.75,53.628V332.273A21.305,21.305,0,0,1,252.47,353.554ZM39.584,308.443v15H208.958v-15Zm0-36.666v15h84.687v-15ZM121.6,156.744a3.952,3.952,0,0,1,4.088,3.164l9.066,35.742a18.991,18.991,0,0,0,16.826,14.393c.609.058,1.233.087,1.857.087a18.951,18.951,0,0,0,17.337-11.123l4.166-8.982a4.127,4.127,0,0,1,3.458-2.416c.11-.008.224-.013.337-.013a4.11,4.11,0,0,1,3.473,1.825l.217.317a19.18,19.18,0,0,0,15.837,8.355h.175a19.158,19.158,0,0,0,15.861-8.64l7.8-11.849a4.183,4.183,0,0,1,3.5-1.888h23.563v-15H225.6a19.148,19.148,0,0,0-16.03,8.643l-7.8,11.848A4.16,4.16,0,0,1,198.3,183.1H198.3a4.135,4.135,0,0,1-3.495-1.826l-.217-.317a18.961,18.961,0,0,0-15.785-8.358c-.545,0-1.1.023-1.646.068a18.983,18.983,0,0,0-15.825,11.053l-4.166,8.982a3.978,3.978,0,0,1-3.762,2.432c-.146,0-.291-.007-.432-.02a4.027,4.027,0,0,1-3.676-3.146l-9.067-35.742a18.936,18.936,0,0,0-18.6-14.475h-.107a18.923,18.923,0,0,0-18.554,14.667l-8.178,33.7a4.015,4.015,0,0,1-3.716,3.19c-.131.011-.265.017-.4.017a3.974,3.974,0,0,1-3.81-2.523l-8.061-18.541a19.188,19.188,0,0,0-17.6-11.542H39.584v15H61.2a4.193,4.193,0,0,1,3.847,2.523l8.062,18.541a18.882,18.882,0,0,0,17.517,11.545c.574,0,1.159-.025,1.736-.075a18.936,18.936,0,0,0,17-14.6l8.178-33.7A3.976,3.976,0,0,1,121.6,156.744ZM193.126,34.693h-97.5V15h97.5V34.692Z" transform="translate(-15 -15)" fill="#fff"/>
</svg>
