<svg xmlns="http://www.w3.org/2000/svg" width="288.75" height="368.555" viewBox="0 0 288.75 368.555">
  <g id="experiment-results-svgrepo-com" transform="translate(-39.902)">
    <path id="Path_7939" data-name="Path 7939" d="M292.371,17.347H248.027V0h-127.5V17.347H76.183A36.322,36.322,0,0,0,39.9,53.628V332.274a36.322,36.322,0,0,0,36.281,36.281H292.371a36.322,36.322,0,0,0,36.281-36.281V53.627A36.322,36.322,0,0,0,292.371,17.347ZM135.527,15h97.5V34.693h-97.5ZM313.652,332.273a21.3,21.3,0,0,1-21.281,21.281H76.183A21.3,21.3,0,0,1,54.9,332.273V53.627A21.3,21.3,0,0,1,76.183,32.346h44.344V49.693h127.5V32.347h44.344a21.3,21.3,0,0,1,21.281,21.281Z" fill="#03566e"/>
    <path id="Path_7940" data-name="Path 7940" d="M249.473,169.358l-7.8,11.849a4.2,4.2,0,0,1-6.967.062l-.217-.317a19.195,19.195,0,0,0-33.255,2.763l-4.166,8.982a4.194,4.194,0,0,1-7.871-.734l-9.067-35.742a18.923,18.923,0,0,0-18.6-14.475h-.107a18.925,18.925,0,0,0-18.554,14.668l-8.178,33.7a4.2,4.2,0,0,1-7.924.683l-8.062-18.541a19.187,19.187,0,0,0-17.6-11.542H79.485v15H101.1a4.192,4.192,0,0,1,3.847,2.523l8.062,18.541a19.194,19.194,0,0,0,36.256-3.128l8.178-33.7a4.195,4.195,0,0,1,8.143-.042l9.066,35.742a18.99,18.99,0,0,0,16.825,14.393q.936.089,1.857.087a18.961,18.961,0,0,0,17.337-11.123l4.166-8.982a4.194,4.194,0,0,1,7.267-.6l.217.317a19.161,19.161,0,0,0,15.84,8.355h.173a19.162,19.162,0,0,0,15.861-8.64L262,177.6a4.183,4.183,0,0,1,3.5-1.888h23.563v-15H265.5A19.147,19.147,0,0,0,249.473,169.358Z" fill="#03566e"/>
    <rect id="Rectangle_3275" data-name="Rectangle 3275" width="84.688" height="15" transform="translate(79.485 271.777)" fill="#03566e"/>
    <rect id="Rectangle_3276" data-name="Rectangle 3276" width="169.375" height="15" transform="translate(79.485 308.443)" fill="#03566e"/>
  </g>
</svg>
