<svg xmlns="http://www.w3.org/2000/svg" width="36.999" height="40" viewBox="0 0 36.999 40">
  <g id="Group_1252" data-name="Group 1252" transform="translate(-4031.32 -3577.043)">
    <path id="Path_23978" data-name="Path 23978" d="M4064.512,3604.367h-.762v-7.122a14.014,14.014,0,0,0-10.3-13.572,4.406,4.406,0,0,0,.672-2.285v-.044a4.3,4.3,0,1,0-8.6,0v.044a4.524,4.524,0,0,0,.672,2.285,14.066,14.066,0,0,0-10.3,13.572v7.122h-.761a3.807,3.807,0,1,0,0,7.615h8.51a6.376,6.376,0,0,0,6.182,5.061,6.3,6.3,0,0,0,6.181-5.061h8.511a3.807,3.807,0,0,0,0-7.615Zm-21.546-3.583a1.254,1.254,0,1,1-2.508,0v-6.092a1.254,1.254,0,0,1,2.508,0Z" fill="#03566e"/>
  </g>
</svg>
