<svg xmlns="http://www.w3.org/2000/svg" width="37.213" height="40" viewBox="0 0 37.213 40">
  <g id="Group_1254" data-name="Group 1254" transform="translate(-4030.816 -3767.426)">
    <path id="Path_23952" data-name="Path 23952" d="M4060.149,3767.426H4038.7a7.874,7.874,0,0,0-7.837,8.685l2.523,24.257a7.877,7.877,0,0,0,7.837,7.058h7.032v-9.416a1.172,1.172,0,0,1,2.343,0v9.416h7.032a7.877,7.877,0,0,0,7.837-7.058l2.523-24.257a7.874,7.874,0,0,0-7.837-8.685Zm2.567,12.826-6.385,7.333a1.175,1.175,0,0,1-.884.4H4043.4a1.171,1.171,0,0,1-.884-.4l-6.385-7.333a1.168,1.168,0,0,1,0-1.536,17.166,17.166,0,0,1,26.587,0,1.168,1.168,0,0,1,0,1.536Z" fill="#03566e"/>
    <path id="Path_23953" data-name="Path 23953" d="M4058.148,3777.667l-1.016,1.2a1.172,1.172,0,0,1-1.8-1.5l.791-.965a14.5,14.5,0,0,0-5.528-1.606v1.442a1.172,1.172,0,0,1-2.343,0V3774.8a14.5,14.5,0,0,0-5.528,1.606l.791.965a1.172,1.172,0,0,1-1.8,1.5l-1.02-1.2a16.767,16.767,0,0,0-2.108,1.836l5.347,6.14h3.121l1.84-3.983a.583.583,0,0,1,1.059,0l1.84,3.983h3.121l5.347-6.14a16.894,16.894,0,0,0-2.112-1.839Z" fill="#03566e"/>
  </g>
</svg>
