<svg xmlns="http://www.w3.org/2000/svg" width="39.511" height="40" viewBox="0 0 39.511 40">
  <g id="Group_1255" data-name="Group 1255" transform="translate(-3983.381 -2874.438)">
    <g id="Group_1106" data-name="Group 1106">
      <path id="Path_76759" data-name="Path 76759" d="M4020.59,2883.691a18.173,18.173,0,0,0-15.813-9.253h-3.33a18.1,18.1,0,0,0-15.765,9.253,17.678,17.678,0,0,0-2.3,8.813v11.212a10.934,10.934,0,0,0,10.722,10.673,1.673,1.673,0,0,0,1.714-1.714v-19.094a1.673,1.673,0,0,0-1.714-1.713,10.46,10.46,0,0,0-7.344,3.084v-2.5a14.7,14.7,0,0,1,14.737-14.688h3.329a14.7,14.7,0,0,1,14.688,14.688v2.5a10.369,10.369,0,0,0-7.344-3.084,1.673,1.673,0,0,0-1.713,1.713v19.143a1.673,1.673,0,0,0,1.713,1.714,11.012,11.012,0,0,0,10.723-10.722V2892.5A17.939,17.939,0,0,0,4020.59,2883.691Z" fill="#03566e"/>
    </g>
  </g>
</svg>
