<svg xmlns="http://www.w3.org/2000/svg" width="512.001" height="388.415" viewBox="0 0 512.001 388.415"><g transform="translate(0 -61.792)"><path d="M35.31,317.794a8.829,8.829,0,0,1,8.828-8.828h8.828l29.5-29.5A194.187,194.187,0,0,1,90.525,61.794H26.483A26.482,26.482,0,0,0,0,88.276V361.931l35.31-35.31Z" fill="#03566e"/><path d="M485.517,61.794h-81.7a193.292,193.292,0,0,1,37.559,114.759,195.586,195.586,0,0,1-2.734,32.576L512,282.483V88.276A26.482,26.482,0,0,0,485.517,61.794Z" fill="#03566e"/><path d="M233.931,313.38l13.241-13.241a123.873,123.873,0,0,1-30.208-3.725Z" fill="#d2f5f0"/><path d="M82.463,279.469l33.811-33.811a35.155,35.155,0,0,1,22.215-10.226,123.56,123.56,0,0,1,63-173.639H90.525a194.188,194.188,0,0,0-8.062,217.676Z" fill="#d2f5f0"/><path d="M370.759,176.552c0,.573-.014,1.141-.022,1.711a35.321,35.321,0,0,1,42.645,5.6l25.262,25.262a195.372,195.372,0,0,0,2.734-32.576A193.294,193.294,0,0,0,403.819,61.792H292.862A123.55,123.55,0,0,1,370.759,176.552Z" fill="#d2f5f0"/><path d="M123.586,176.552a123.033,123.033,0,0,0,14.9,58.88,35.226,35.226,0,0,1,27.722,10.226l50.754,50.754a123.8,123.8,0,0,0,30.209,3.726L363.446,183.864a35.342,35.342,0,0,1,7.292-5.6c.008-.57.022-1.139.022-1.711a123.547,123.547,0,0,0-77.9-114.759h-91.38A123.55,123.55,0,0,0,123.586,176.552Zm123.586-70.62a70.621,70.621,0,1,1-70.621,70.621A70.622,70.622,0,0,1,247.172,105.932Z" fill="#fcffdc"/><path d="M247.172,247.173a70.621,70.621,0,1,0-70.621-70.621A70.622,70.622,0,0,0,247.172,247.173Zm0-105.931a35.31,35.31,0,1,1-35.31,35.31A35.31,35.31,0,0,1,247.172,141.242Z" fill="#fff5a5"/><circle cx="35.31" cy="35.31" r="35.31" transform="translate(211.862 141.242)" fill="#ffdc69"/><path d="M413.382,183.865a35.3,35.3,0,0,0-49.937,0L247.172,300.138l-13.241,13.241L370.759,450.207H485.518A26.483,26.483,0,0,0,512,423.724V282.483l-73.355-73.355Z" fill="#b4ebbe"/><path d="M233.931,313.38l-16.967-16.967L166.21,245.659a35.332,35.332,0,0,0-49.937,0L82.463,279.47l-29.5,29.5H185.38a8.829,8.829,0,0,1,8.828,8.828v17.655a8.829,8.829,0,0,1-8.828,8.828H44.138a8.829,8.829,0,0,1-8.828-8.828v-8.828L0,361.932v61.793a26.379,26.379,0,0,0,3.2,12.623c.407.75.851,1.479,1.326,2.184a26.631,26.631,0,0,0,7.153,7.153q1.056.714,2.184,1.326a26.219,26.219,0,0,0,6.005,2.362,26.492,26.492,0,0,0,6.618.834H370.757ZM123.586,406.07a8.829,8.829,0,0,1-8.828,8.828H44.138a8.829,8.829,0,0,1-8.828-8.828h0a8.829,8.829,0,0,1,8.828-8.828h70.621a8.827,8.827,0,0,1,8.827,8.828Zm61.793-26.483H44.138a8.828,8.828,0,0,1,0-17.656H185.379a8.828,8.828,0,0,1,0,17.656Z" fill="#a0d778"/><path d="M35.31,317.794V335.45a8.829,8.829,0,0,0,8.828,8.828H185.379a8.829,8.829,0,0,0,8.828-8.828V317.8a8.829,8.829,0,0,0-8.828-8.828H44.138A8.827,8.827,0,0,0,35.31,317.794Z" fill="#fff5a5"/><path d="M185.379,361.932H44.138a8.828,8.828,0,0,0,0,17.656H185.379a8.828,8.828,0,0,0,0-17.656Z" fill="#73b96e"/><path d="M114.759,397.242H44.138a8.829,8.829,0,0,0-8.828,8.828h0a8.829,8.829,0,0,0,8.828,8.828h70.621a8.829,8.829,0,0,0,8.828-8.828h0A8.829,8.829,0,0,0,114.759,397.242Z" fill="#73b96e"/></g></svg>