<svg xmlns="http://www.w3.org/2000/svg" width="39.994" height="40" viewBox="0 0 39.994 40">
  <g id="Group_1253" data-name="Group 1253" transform="translate(-4029.425 -3672.443)">
    <path id="Path_23947" data-name="Path 23947" d="M4052.16,3703.89q-1.047-8.419-2.089-16.839c-.455-3.7-.961-7.4-1.358-11.112-.173-1.611-1.381-3.487-3.25-3.5h-12.876a4.5,4.5,0,0,0-1.1.222,3.331,3.331,0,0,0-2.061,3.174q-.007,13.071,0,26.141a3.287,3.287,0,0,0,.773,2.193,3.725,3.725,0,0,0,3,1.319h17.635c.117,0,.234,0,.351-.007a.721.721,0,0,0,.51-.249A1.578,1.578,0,0,0,4052.16,3703.89Zm-8.461-9.057a1.184,1.184,0,0,1-1.274-1.01q-.282-1.373-.547-2.747c-.176-.918-.171-.919-1.1-.919-.714,0-1.429.005-2.144,0-.185,0-.26.043-.3.243-.212,1.121-.445,2.239-.671,3.357a1.176,1.176,0,1,1-2.288-.462q1.136-5.684,2.274-11.368a1.227,1.227,0,0,1,1.378-1.13c.689,0,1.378,0,2.067,0a1.216,1.216,0,0,1,1.329,1.1q1.155,5.739,2.3,11.481c.018.089.026.18.031.218A1.2,1.2,0,0,1,4043.7,3694.833Z" fill="#03566e"/>
    <path id="Path_23948" data-name="Path 23948" d="M4069.238,3681.718a3.59,3.59,0,0,0-3.388-2.28c-4.655-.025-9.309-.011-13.964-.007-.549,0-.628.1-.56.659.216,1.754.443,3.507.655,5.262.5,4.1,1.022,8.2,1.531,12.3.248,2,.524,4,.736,6a3.583,3.583,0,0,1-.861,2.864q-1.723,1.962-3.44,3.931c-.47.539-.96,1.06-1.4,1.625-.07.089-.166.194-.1.314.05.085.166.044.252.044q8.679,0,17.357,0a3.314,3.314,0,0,0,3.134-2.06,4.39,4.39,0,0,0,.224-1.1v-26.531A4.992,4.992,0,0,0,4069.238,3681.718Zm-2.48,10.4a1.078,1.078,0,0,1-.866.372.324.324,0,0,0-.389.262,14.2,14.2,0,0,1-2.537,4.607c-.17.209-.15.311.051.482.782.666,1.611,1.271,2.415,1.909a1.167,1.167,0,0,1-.424,2.071,1.165,1.165,0,0,1-1.055-.26c-.85-.664-1.731-1.289-2.524-2.022-.223-.206-.36-.186-.571.007-.777.711-1.6,1.368-2.434,2.009a1.167,1.167,0,0,1-1.918-.591,1.15,1.15,0,0,1,.46-1.237c.784-.642,1.563-1.29,2.352-1.926.163-.132.191-.217.048-.394a14.607,14.607,0,0,1-2.5-4.669c-.067-.2-.165-.243-.359-.249a1.168,1.168,0,1,1,.03-2.334c.52-.007,1.04,0,1.56,0s1.015-.016,1.521.006c.275.012.4-.038.367-.35a5.341,5.341,0,0,1,0-.857,1.167,1.167,0,0,1,2.333.015,7.28,7.28,0,0,1,0,.9c-.02.252.071.3.3.294,1.092-.012,2.184-.01,3.276,0a1.125,1.125,0,0,1,1.095.732A1.1,1.1,0,0,1,4066.758,3692.121Z" fill="#03566e"/>
    <path id="Path_23949" data-name="Path 23949" d="M4049.3,3707.715c-1.173,1.291-2.287,2.521-3.4,3.748-.6.66-.61.665-1.3.081a3.432,3.432,0,0,1-1.241-2.226c-.059-.45-.1-.905-.178-1.351-.04-.225.027-.256.224-.256C4045.332,3707.717,4047.269,3707.715,4049.3,3707.715Z" fill="#03566e"/>
    <path id="Path_23950" data-name="Path 23950" d="M4038.85,3687.816c.3-1.512.6-2.97.888-4.431.035-.181.083-.258.286-.26s.281.063.32.268q.4,2.078.832,4.149c.044.214.013.286-.227.28C4040.264,3687.8,4039.577,3687.816,4038.85,3687.816Z" fill="#03566e"/>
    <path id="Path_23951" data-name="Path 23951" d="M4059.244,3692.5h3.872a8.522,8.522,0,0,1-.81,1.72,12.21,12.21,0,0,1-1.015,1.473c-.062.078-.1.238-.247.053A12.1,12.1,0,0,1,4059.244,3692.5Z" fill="#03566e"/>
  </g>
</svg>
