<svg xmlns="http://www.w3.org/2000/svg" width="33.664" height="39.999" viewBox="0 0 33.664 39.999">
  <g id="Group_1255" data-name="Group 1255" transform="translate(-4032.59 -3862.409)">
    <g id="Group_230" data-name="Group 230">
      <path id="Path_23954" data-name="Path 23954" d="M4066.212,3872.7c-.047-1.052-.047-2.057-.047-3.061a1.41,1.41,0,0,0-1.435-1.435c-5.979,0-10.524-1.722-14.3-5.405a1.476,1.476,0,0,0-2.009,0c-3.779,3.683-8.323,5.405-14.3,5.405a1.41,1.41,0,0,0-1.435,1.435c0,1,0,2.009-.048,3.061-.191,10.045-.478,23.821,16.311,29.608l.478.1.479-.1C4066.643,3896.525,4066.4,3882.8,4066.212,3872.7Zm-17.937,13.919a1.539,1.539,0,0,1-1,.383h-.048a1.348,1.348,0,0,1-1-.478l-4.448-4.927,2.152-1.913,3.492,3.874,7.749-7.366,1.961,2.1Z" fill="#03566e"/>
    </g>
  </g>
</svg>
