<svg xmlns="http://www.w3.org/2000/svg" width="40" height="40" viewBox="0 0 40 40">
  <g id="Group_1256" data-name="Group 1256" transform="translate(-3983.136 -2966.795)">
    <g id="Group_1114" data-name="Group 1114">
      <path id="Path_76765" data-name="Path 76765" d="M4021.926,2982.824l-2.809-.484a14.781,14.781,0,0,0-1.55-3.729l1.647-2.324a1.413,1.413,0,0,0-.145-1.889l-3.584-3.584a1.413,1.413,0,0,0-1.889-.145l-2.324,1.647a17.27,17.27,0,0,0-3.68-1.5l-.485-2.808a1.42,1.42,0,0,0-1.452-1.211h-5.037a1.421,1.421,0,0,0-1.453,1.211l-.484,2.808a14.837,14.837,0,0,0-3.729,1.55l-2.324-1.646a1.411,1.411,0,0,0-1.889.145l-3.583,3.583a1.412,1.412,0,0,0-.146,1.889l1.647,2.324a17.3,17.3,0,0,0-1.5,3.681l-2.809.484a1.422,1.422,0,0,0-1.211,1.453v5.036a1.421,1.421,0,0,0,1.211,1.453l2.809.484a14.8,14.8,0,0,0,1.549,3.729l-1.646,2.325a1.41,1.41,0,0,0,.145,1.888l3.584,3.584a1.411,1.411,0,0,0,1.888.145l2.325-1.647a17.255,17.255,0,0,0,3.68,1.5l.484,2.808a1.421,1.421,0,0,0,1.453,1.211h5.037a1.42,1.42,0,0,0,1.452-1.211l.485-2.808a14.805,14.805,0,0,0,3.728-1.55l2.325,1.647a1.411,1.411,0,0,0,1.888-.146l3.584-3.583a1.412,1.412,0,0,0,.145-1.889l-1.646-2.324a17.32,17.32,0,0,0,1.5-3.681l2.809-.484a1.42,1.42,0,0,0,1.21-1.453v-5.036A1.421,1.421,0,0,0,4021.926,2982.824Zm-18.79,11.961a7.99,7.99,0,1,1,7.991-7.99A8,8,0,0,1,4003.136,2994.785Z" fill="#03566e"/>
    </g>
  </g>
</svg>
