<svg xmlns="http://www.w3.org/2000/svg" width="43.039" height="43" viewBox="0 0 43.039 43">
  <g id="Group_1256" data-name="Group 1256" transform="translate(-4027.903 -3955.89)">
    <g id="Group_251" data-name="Group 251">
      <g id="Group_232" data-name="Group 232">
        <path id="Path_23955" data-name="Path 23955" d="M4054.707,3961.243q.671.218,1.323.485l.108.045c-.242-.1-.05-.021,0,0l.32.143c.212.1.422.2.63.3a17.815,17.815,0,0,1,2.286,1.384c.033.024.519.372.513.38l-.092-.071.092.072.136.109c.09.072.18.146.269.221q.512.429.99.9c.326.318.641.649.942.991.147.168.292.338.433.512l.183.227.036.046-.035-.045c.046.019.111.146.141.187a17.912,17.912,0,0,1,1.45,2.284c.214.4.414.815.6,1.233a.8.8,0,0,1,.071.165l-.045-.107.046.111c.038.093.076.186.112.279q.132.338.25.68a24.72,24.72,0,0,1,.809,3.1q.192.935.343,1.878c.047.292.089.585.131.877.038.266-.023-.188.011.078l.02.16c.024.185.046.371.067.557a40.69,40.69,0,0,1,.1,8.236.912.912,0,0,0,.907.908.931.931,0,0,0,.907-.908,40.6,40.6,0,0,0-.02-7.519c-.125-1.31-.308-2.616-.548-3.91a29.472,29.472,0,0,0-.8-3.42,18.979,18.979,0,0,0-6.581-9.393,18.68,18.68,0,0,0-5.613-2.925.914.914,0,0,0-1.116.634.928.928,0,0,0,.634,1.116Z" fill="#03566e"/>
      </g>
      <g id="Group_233" data-name="Group 233">
        <path id="Path_23956" data-name="Path 23956" d="M4031.5,3987.02a6.237,6.237,0,0,0,1.432-2.736,6.023,6.023,0,0,0,.112-2c-.091-.758-.3-1.493-.422-2.245l-.039-.248c-.005-.037-.043-.289-.023-.163s-.017-.134-.02-.163c-.011-.094-.021-.189-.031-.283q-.051-.5-.073-.992a17.962,17.962,0,0,1,.024-2.048c.024-.339.061-.677.1-1.015.012-.108-.01.063-.01.066a.636.636,0,0,1,.02-.139c.012-.081.025-.162.038-.243.027-.174.058-.347.091-.52a17.873,17.873,0,0,1,.488-1.947c.1-.326.214-.65.334-.97q.087-.233.182-.462c.017-.043.033-.09.054-.132,0,.007-.064.148-.022.053l.114-.261a18.311,18.311,0,0,1,.959-1.846q.468-.786,1.013-1.524c.043-.059.087-.118.131-.176.137-.181-.071.088.03-.039s.194-.245.293-.366q.288-.348.592-.681a17.882,17.882,0,0,1,1.276-1.262q.322-.288.658-.559l.193-.154.073-.057-.062.048c.129-.081.247-.187.371-.276a17.723,17.723,0,0,1,3.1-1.794c.122-.056.248-.106.37-.162-.233.108.021-.008.071-.028l.232-.092q.408-.159.824-.3a17.966,17.966,0,0,1,1.826-.505q.564-.126,1.135-.213c.092-.015.184-.03.276-.041l.114-.013c.2-.023.4-.044.594-.06a17.939,17.939,0,0,1,2.271-.048q.575.024,1.147.084a.911.911,0,0,0,.908-.908.932.932,0,0,0-.908-.907,18.855,18.855,0,0,0-14.97,5.162,19.222,19.222,0,0,0-4.423,6.6,18.421,18.421,0,0,0-1.289,8.224,20.1,20.1,0,0,0,.289,2.224c.067.359.154.712.23,1.069.016.073.03.147.044.222a.881.881,0,0,1,.023.145c0-.006-.019-.168-.008-.062.017.172.034.344.038.518,0,.152,0,.3-.008.457-.005.084-.013.167-.022.251,0,.026-.016.135,0,0,.021-.156-.008.042-.011.058a4.889,4.889,0,0,1-.206.8c-.02.059-.042.118-.064.176l-.03.073c-.04.109.083-.175.031-.073s-.1.226-.164.337a5.643,5.643,0,0,1-.346.564c-.028.04-.057.08-.086.119-.016.022-.034.043-.049.065s.142-.175.081-.106-.116.144-.177.213a.907.907,0,0,0,1.283,1.283Z" fill="#03566e"/>
      </g>
      <g id="Group_234" data-name="Group 234">
        <path id="Path_23957" data-name="Path 23957" d="M4035.528,3975.461c-.031.237,0-.009.009-.048.009-.06.018-.12.028-.18q.033-.2.07-.394.077-.395.173-.784a14.954,14.954,0,0,1,.474-1.538c.043-.115.086-.229.132-.343.018-.045.037-.091.055-.136.09-.231-.078.171.022-.055.109-.249.222-.495.343-.738a15.094,15.094,0,0,1,.785-1.39,8.371,8.371,0,0,1,.759-1.085c-.162.181-.019.024.012-.015l.117-.146q.1-.121.2-.24.222-.261.455-.512.465-.5.975-.954c.153-.137.31-.271.469-.4l.241-.193c.169-.134-.161.12.012-.009.049-.037.1-.075.148-.111a14.733,14.733,0,0,1,2.3-1.394c.2-.095.394-.187.593-.274.037-.016.076-.035.115-.049-.236.084-.033.015.013,0q.174-.071.35-.137c.431-.162.871-.305,1.316-.427a14.951,14.951,0,0,1,1.51-.334l.236-.038s.257-.036.117-.017.12-.015.117-.014l.239-.027q.437-.045.876-.063c.477-.021.955-.018,1.431.007q.306.015.61.044c.1.009.192.018.288.029.057.007.115.013.172.021s.237.063-.012,0c.19.051.4.061.6.1.216.039.43.082.644.131q.58.132,1.149.309c.394.123.783.263,1.165.418.021.009.191.086.047.019s.025.011.046.02c.086.037.171.075.256.114.2.089.387.182.578.279a14.823,14.823,0,0,1,2.059,1.269,2.092,2.092,0,0,0,.222.167c-.19-.1-.088-.068-.03-.023l.109.087c.159.127.315.258.469.391q.461.4.888.841t.819.913c.059.072.118.144.175.217a.656.656,0,0,0,.07.088c-.167-.143-.056-.072-.006-.006q.186.246.362.5a14.838,14.838,0,0,1,1.23,2.129c.045.095.088.19.131.286.029.064.149.358.045.1.079.2.159.391.233.589.148.4.279.807.393,1.218a32.335,32.335,0,0,1,.688,3.229q.067.4.126.8c.012.08.024.16.035.239,0,0,.036.258.017.119s.016.122.015.118c.012.093.024.186.035.279q.1.854.17,1.71.13,1.7.106,3.406c-.016,1.143-.085,2.286-.208,3.423-.029.274-.063.548-.1.822-.032.253.018-.123,0,.032-.01.065-.019.13-.028.2-.022.156-.046.312-.07.468q-.135.859-.309,1.712-.166.817-.37,1.626a.908.908,0,1,0,1.75.483,38.293,38.293,0,0,0,.84-14.157c-.163-1.26-.373-2.512-.647-3.752a18.269,18.269,0,0,0-.774-2.666,16.214,16.214,0,0,0-2.732-4.615,15.74,15.74,0,0,0-8.694-5.191,15.829,15.829,0,0,0-18.749,11.778,17.544,17.544,0,0,0-.311,1.747.9.9,0,0,0,.266.641.907.907,0,0,0,1.283,0,1.07,1.07,0,0,0,.266-.641Z" fill="#03566e"/>
      </g>
      <g id="Group_235" data-name="Group 235">
        <path id="Path_23958" data-name="Path 23958" d="M4033.083,3989.738c.323-.386.673-.745.982-1.141a9.915,9.915,0,0,0,.869-1.3,9.2,9.2,0,0,0,1.119-3.864,9.614,9.614,0,0,0-.265-2.786.915.915,0,0,0-1.116-.633.926.926,0,0,0-.634,1.116c.045.192.086.384.119.578a.853.853,0,0,1,.045.282c0-.013-.025-.217-.006-.033.006.057.013.114.018.172a8.425,8.425,0,0,1,.036,1.053c0,.166-.016.332-.031.5-.007.081-.017.161-.026.241-.011.1.014-.1.013-.093-.012.057-.018.118-.027.175a8.122,8.122,0,0,1-.2.884c-.08.279-.176.552-.283.822-.079.2.067-.149,0-.009-.027.06-.053.119-.081.179-.056.122-.116.242-.178.361a8.7,8.7,0,0,1-.718,1.142l-.043.057c-.088.12.124-.157.068-.087-.032.039-.062.079-.094.118-.058.071-.117.142-.177.211-.224.259-.459.508-.679.771a.929.929,0,0,0,0,1.284.919.919,0,0,0,1.283,0Z" fill="#03566e"/>
      </g>
      <g id="Group_236" data-name="Group 236">
        <path id="Path_23959" data-name="Path 23959" d="M4043.689,3965.914a12.835,12.835,0,0,0-7.07,12.513,14.121,14.121,0,0,0,.234,1.622,13.434,13.434,0,0,1,.306,1.536c-.017-.2-.007-.06,0-.018.009.074.018.147.026.221.012.121.023.242.031.363.017.236.027.471.029.707s0,.487-.017.73c-.008.13-.018.259-.03.389q-.011.114-.024.228c-.006.053-.01.277-.006.059a3.99,3.99,0,0,1-.129.724c-.051.236-.109.472-.176.7s-.134.446-.212.666c-.038.106-.077.212-.118.317-.02.052-.041.1-.062.154-.09.222.052-.113-.023.055a11.991,11.991,0,0,1-1.306,2.253l-.056.076c-.093.124-.025.03.03-.038-.055.068-.107.137-.162.2q-.142.174-.291.343c-.375.424-.741.847-1.083,1.3a.913.913,0,0,0-.092.7.908.908,0,0,0,1.659.217c.154-.2-.115.14.046-.06l.1-.121c.082-.1.164-.2.249-.3.125-.145.257-.285.384-.428.227-.255.439-.523.647-.794a11.832,11.832,0,0,0,1.149-1.814,11.986,11.986,0,0,0,1.335-5.882,13.661,13.661,0,0,0-.175-1.665c-.081-.5-.212-.991-.307-1.489-.022-.117-.043-.235-.062-.353-.007-.047-.014-.095-.022-.142-.038-.24.022.2-.006-.042s-.051-.472-.066-.709a11.841,11.841,0,0,1,0-1.448c.014-.223.033-.445.059-.667,0-.043.023-.281,0-.038,0-.046.013-.094.02-.139q.031-.209.071-.416a12.021,12.021,0,0,1,.344-1.366c.072-.225.149-.448.234-.668.042-.11.085-.221.132-.329-.012.027-.077.173-.007.02l.087-.2a12.29,12.29,0,0,1,.715-1.328c.139-.223.285-.442.437-.655q.053-.074.1-.144c.027-.037.184-.25.051-.072.07-.094.146-.185.222-.276a11.955,11.955,0,0,1,1.112-1.173q.3-.275.618-.53c.039-.03.166-.139.017-.015.055-.046.116-.088.174-.13.117-.087.236-.171.356-.252a12.088,12.088,0,0,1,1.447-.841.914.914,0,0,0,.326-1.242.931.931,0,0,0-1.242-.325Z" fill="#03566e"/>
      </g>
      <g id="Group_237" data-name="Group 237">
        <path id="Path_23960" data-name="Path 23960" d="M4060.55,3970.983a12.856,12.856,0,0,0-14.154-6.055.916.916,0,0,0-.634,1.116.927.927,0,0,0,1.116.634c.267-.063.535-.119.805-.164l.193-.031s.253-.034.111-.016l.113-.013c.077-.009.155-.016.233-.024a12.025,12.025,0,0,1,1.575-.04q.36.014.718.05c.112.011.225.025.337.038.143.017-.227-.036-.006,0l.2.031a12.089,12.089,0,0,1,1.371.311q.334.1.663.214c.1.036.207.075.309.114l.154.061c.1.04.165.058.027.009a7.735,7.735,0,0,1,1.233.615,11.814,11.814,0,0,1,1.175.77c.043.032.089.063.13.1-.162-.139-.046-.035,0,0q.127.1.252.206c.191.161.377.327.558.5a12.838,12.838,0,0,1,1.108,1.216c.145.177-.076-.1.009.01.049.067.1.132.147.2.083.115.164.23.243.347.158.235.308.477.45.722a.908.908,0,1,0,1.567-.916Z" fill="#03566e"/>
      </g>
      <g id="Group_238" data-name="Group 238">
        <path id="Path_23961" data-name="Path 23961" d="M4060.672,3995.465a35.859,35.859,0,0,0,2-8.117,34.5,34.5,0,0,0,.065-8.138,39.462,39.462,0,0,0-.835-4.826.915.915,0,0,0-1.116-.633.926.926,0,0,0-.634,1.116c.161.676.306,1.356.43,2.04q.093.509.171,1.019c.024.156.047.313.069.47.01.067.037.234.01.071.017.1.027.209.04.313a35.167,35.167,0,0,1,.259,4.013,34.121,34.121,0,0,1-.21,4.017c-.018.167-.038.333-.059.5-.009.072-.028.23-.008.066-.011.09-.025.179-.037.268-.048.333-.1.664-.159.995q-.172.995-.4,1.979a35.373,35.373,0,0,1-1.334,4.366.911.911,0,0,0,.634,1.116.933.933,0,0,0,1.116-.634Z" fill="#03566e"/>
      </g>
      <g id="Group_239" data-name="Group 239">
        <path id="Path_23962" data-name="Path 23962" d="M4057.125,3990.832a31.943,31.943,0,0,1-.988,3.079q-.133.356-.276.708c-.052.127-.1.255-.158.381.05-.115.025-.06-.01.022l-.073.17q-.3.7-.64,1.377a.908.908,0,1,0,1.567.916,33.764,33.764,0,0,0,2.328-6.171.908.908,0,1,0-1.75-.482Z" fill="#03566e"/>
      </g>
      <g id="Group_240" data-name="Group 240">
        <path id="Path_23963" data-name="Path 23963" d="M4037.351,3993.981c.042-.06.084-.119.127-.178,0,0,.143-.193.06-.082s.063-.079.064-.081c.046-.057.093-.113.14-.169.113-.132.231-.26.348-.389q.21-.233.409-.476a16.789,16.789,0,0,0,1.06-1.429,15.37,15.37,0,0,0,1.83-3.859,14.534,14.534,0,0,0,.625-5.291c-.038-.566-.109-1.13-.2-1.689-.087-.518-.222-1.024-.318-1.539-.024-.128-.053-.259-.064-.389.017.206.009.074.005.028-.007-.071-.016-.141-.023-.212q-.036-.389-.038-.779,0-.371.026-.74c.01-.129.024-.257.039-.386.005-.051,0-.168,0,.032a1.861,1.861,0,0,1,.045-.277,8.906,8.906,0,0,1,.382-1.429c.044-.123.092-.243.139-.365s-.091.2.006-.012l.089-.2q.168-.357.367-.7c.11-.19.228-.376.351-.558q.1-.144.2-.282c.03-.042.06-.087.094-.126-.163.187,0,.005.032-.037a9.133,9.133,0,0,1,.918-.966c.076-.069.154-.137.232-.2.047-.04.095-.079.143-.118.012-.01.17-.14.053-.044s.043-.031.056-.041l.149-.109q.152-.107.306-.207a8.824,8.824,0,0,1,1.137-.625.865.865,0,0,1,.17-.076c-.168.031-.111.045-.044.019.116-.046.232-.092.349-.135q.326-.117.659-.209c.228-.063.457-.117.689-.162.128-.025.257-.046.385-.066.257-.042-.19.016.069-.009.078-.007.156-.017.234-.023a8.9,8.9,0,0,1,1.479-.008q.144.012.288.027a1.4,1.4,0,0,0,.172.02c-.214,0-.139-.019-.071-.008.225.036.449.075.672.126a8.971,8.971,0,0,1,1.133.337c.087.033.174.068.26.1.188.074-.194-.088-.011-.005l.127.057c.194.089.385.184.572.287a8.951,8.951,0,0,1,.982.622.9.9,0,0,0,.133.1c-.172-.077-.1-.079-.03-.023s.158.127.235.193c.154.131.305.268.45.41s.26.263.384.4c.069.075.136.152.2.23l.088.107c.019.023.157.213.068.082s.017.024.031.042q.049.066.1.135c.054.076.107.152.159.23.115.171.224.345.327.524s.191.347.278.524c.046.094.091.188.133.284.016.034.029.07.046.1-.122-.247,0-.009.018.048a9.221,9.221,0,0,1,.37,1.16c.142.573.263,1.152.373,1.732q.073.4.14.8c.021.132.042.265.062.4l.036.239c.007.053.015.106.022.159.013.093.015.106.006.038-.019-.139.015.121.015.118.01.08.019.159.029.238q.024.2.045.4c.031.291.058.581.081.872.046.579.077,1.16.091,1.74a31.212,31.212,0,0,1-.1,3.379q-.033.391-.075.781c-.014.131-.029.26-.045.39-.01.078-.02.156-.029.234-.033.261.026-.19-.01.07a1,1,0,0,0,.092.7.907.907,0,0,0,1.658-.216,32.7,32.7,0,0,0,.224-7.156,35.682,35.682,0,0,0-.495-3.658,15.619,15.619,0,0,0-.764-2.946,10.07,10.07,0,0,0-3.3-4.321,9.867,9.867,0,0,0-14.829,3.8,10.177,10.177,0,0,0-.877,3.347,10.843,10.843,0,0,0,.3,3.323c.053.239.1.479.144.719.025.141.048.282.069.424.007.046.015.093.02.139-.026-.255.006.058.011.106a14.4,14.4,0,0,1,.094,1.472c.005.463-.013.926-.054,1.387-.01.111-.021.222-.034.333-.005.05-.012.1-.017.15-.025.212.031-.215,0,0s-.066.425-.106.637a13.882,13.882,0,0,1-.667,2.337c-.033.087-.068.175-.1.262-.016.039-.033.078-.048.117-.046.114.1-.22.023-.055-.079.18-.159.359-.244.536q-.222.46-.475.905a14.869,14.869,0,0,1-.979,1.5l-.108.144c-.042.055-.139.171.056-.073l-.063.081c-.074.095-.15.188-.226.281-.135.162-.273.322-.415.478a12.551,12.551,0,0,0-.987,1.227.912.912,0,0,0,.325,1.241.932.932,0,0,0,1.242-.325Z" fill="#03566e"/>
      </g>
      <g id="Group_241" data-name="Group 241">
        <path id="Path_23964" data-name="Path 23964" d="M4043,3980.311q.024.145.047.291c0,.038.035.291.025.168s0,0,0,.023c.006.048.012.095.018.143.012.106.024.212.035.319.036.358.062.716.076,1.076a16.634,16.634,0,0,1-.04,2.007c-.012.147-.025.293-.041.44-.009.082-.018.165-.028.248l-.012.092c-.026.208.022-.149,0-.027-.048.308-.1.616-.158.922a16.5,16.5,0,0,1-.435,1.7q-.127.405-.274.8c-.043.117-.087.233-.133.349l-.078.2-.03.072c-.055.135-.009.013.021-.049-.225.463-.424.935-.667,1.39a17.949,17.949,0,0,1-1.4,2.215c-.062.084-.126.168-.189.252s.139-.179.075-.1l-.054.07-.087.109q-.172.218-.353.429c-.368.432-.754.841-1.084,1.3a.911.911,0,0,0,.326,1.242.931.931,0,0,0,1.241-.326c.024-.034.193-.285.078-.111a2.117,2.117,0,0,1,.165-.2c.076-.087.154-.171.231-.256q.15-.167.3-.336c.27-.315.526-.641.777-.971a17.781,17.781,0,0,0,3.4-13.968.911.911,0,0,0-1.116-.634.933.933,0,0,0-.634,1.116Z" fill="#03566e"/>
      </g>
      <g id="Group_242" data-name="Group 242">
        <path id="Path_23965" data-name="Path 23965" d="M4046.087,3971.4a6.984,6.984,0,0,0-3.527,5.573.911.911,0,0,0,.907.907.93.93,0,0,0,.908-.907c0-.06.009-.12.016-.18,0-.036.007-.072.012-.108l-.013.1a1.046,1.046,0,0,1,.063-.355,6.017,6.017,0,0,1,.205-.732c.02-.058.041-.114.063-.171.009-.023.089-.211.037-.094s.033-.07.043-.092c.027-.056.054-.111.081-.165a6.335,6.335,0,0,1,.38-.645c.011-.016.187-.276.194-.271s-.124.154,0,0c.035-.043.07-.085.106-.127a6,6,0,0,1,.458-.471c.08-.074.162-.146.246-.215.041-.033.175-.179.022-.02a.889.889,0,0,1,.132-.1,6.045,6.045,0,0,1,.581-.364.908.908,0,1,0-.916-1.567Z" fill="#03566e"/>
      </g>
      <g id="Group_243" data-name="Group 243">
        <path id="Path_23966" data-name="Path 23966" d="M4056.978,3983a29.256,29.256,0,0,0-.232-3.634,27.645,27.645,0,0,0-.689-3.755,6.894,6.894,0,0,0-3.433-4.286,7.042,7.042,0,0,0-3.2-.786.908.908,0,1,0,0,1.815,6.227,6.227,0,0,1,.64.034.74.74,0,0,0,.115.013c-.219.021-.109-.015-.014,0q.17.029.336.066a5.692,5.692,0,0,1,.572.159q.147.048.291.1c.034.013.069.029.1.041-.263-.095-.018-.005.038.022a6.607,6.607,0,0,1,1.024.612c.1.074-.178-.144-.03-.023l.129.1c.071.06.14.121.208.184a5.813,5.813,0,0,1,.426.438c.062.07.12.142.179.214.128.154-.121-.17-.005-.006.027.038.055.075.081.113a5.76,5.76,0,0,1,.343.549c.092.167.166.341.251.511-.127-.252.021.063.046.131.039.109.075.219.108.331.154.519.258,1.056.363,1.587.114.579.221,1.163.292,1.749-.023-.19,0-.011,0,.037.012.093.023.185.034.278.019.158.037.317.053.475q.048.474.081.95c.046.656.068,1.314.07,1.971a.907.907,0,1,0,1.814,0Z" fill="#03566e"/>
      </g>
      <g id="Group_244" data-name="Group 244">
        <path id="Path_23967" data-name="Path 23967" d="M4056.858,3985.629q.12-1.314.12-2.634a.907.907,0,1,0-1.814,0q0,1.32-.121,2.634a.909.909,0,0,0,.266.641.92.92,0,0,0,.642.266.91.91,0,0,0,.641-.266,1.021,1.021,0,0,0,.266-.641Z" fill="#03566e"/>
      </g>
      <g id="Group_245" data-name="Group 245">
        <path id="Path_23968" data-name="Path 23968" d="M4052.687,3998.331a30.042,30.042,0,0,0,3.705-9.5,31.144,31.144,0,0,0,.466-3.2.911.911,0,0,0-.907-.908.933.933,0,0,0-.908.908c-.02.209-.041.418-.065.626-.012.105-.025.209-.038.313-.006.052-.013.1-.02.156.031-.217-.007.046-.011.071q-.092.644-.214,1.283-.249,1.305-.619,2.584-.36,1.245-.83,2.456c-.072.185-.145.368-.221.551l-.056.136c-.051.124.06-.138.006-.015-.043.1-.086.2-.13.3-.162.369-.331.733-.508,1.095q-.561,1.141-1.217,2.231a.908.908,0,1,0,1.567.916Z" fill="#03566e"/>
      </g>
      <g id="Group_246" data-name="Group 246">
        <path id="Path_23969" data-name="Path 23969" d="M4045.068,3989.438c-.112.3-.227.61-.356.908.071-.164-.01.022-.038.086s-.059.132-.089.2q-.1.227-.211.452-.379.789-.825,1.545-.41.691-.869,1.353-.2.293-.418.579l-.095.126c-.016.021-.032.041-.047.062-.059.079.07-.09.064-.082-.073.089-.143.182-.215.272q-.4.5-.838.977a.908.908,0,0,0,1.284,1.283,21.682,21.682,0,0,0,3.45-5.041,23.2,23.2,0,0,0,.953-2.236.913.913,0,0,0-.634-1.116.931.931,0,0,0-1.116.634Z" fill="#03566e"/>
      </g>
      <g id="Group_247" data-name="Group 247">
        <path id="Path_23970" data-name="Path 23970" d="M4049.05,3998.448a27.412,27.412,0,0,0,3.553-7,26.312,26.312,0,0,0,1.385-8.9,28.154,28.154,0,0,0-.479-4.623,9.605,9.605,0,0,0-.568-2.174,3.774,3.774,0,0,0-1.159-1.432,3.869,3.869,0,0,0-3.662-.579,3.933,3.933,0,0,0-2.488,2.784,4.54,4.54,0,0,0,.069,2.057q.129.564.229,1.136c.031.179.06.358.087.538.007.05.048.313.016.1.015.1.026.2.037.3a19.9,19.9,0,0,1,.067,4.046c-.026.307-.061.613-.1.919a.9.9,0,0,0,.266.641.922.922,0,0,0,.642.266.909.909,0,0,0,.641-.266,1.064,1.064,0,0,0,.266-.641,19.778,19.778,0,0,0,.142-3.745,27.609,27.609,0,0,0-.638-4.221c-.026-.121.018.19.008.068,0-.029-.006-.058-.008-.087,0-.057-.007-.115-.009-.172s0-.133,0-.2c0-.044.029-.289.007-.133s.008-.037.015-.073c.013-.063.028-.127.045-.19s.03-.107.047-.159c.009-.027.018-.053.028-.079.048-.133.018-.031-.02.037.058-.1.1-.216.163-.32.028-.047.057-.094.088-.14s.043-.06.063-.091c.061-.1-.117.139-.042.052s.156-.182.243-.266c.04-.039.081-.077.122-.113a.559.559,0,0,0,.086-.072c-.005.025-.16.116-.05.04a3.345,3.345,0,0,1,.311-.194c.059-.032.119-.06.179-.09.134-.066-.17.063.024-.006a3.077,3.077,0,0,1,.368-.106c.043-.009.259-.043.111-.024s.07,0,.11-.008a2.98,2.98,0,0,1,.4,0l.084.008c.1,0-.106-.016-.1-.015.07.02.147.025.219.042a3.008,3.008,0,0,1,.347.1.564.564,0,0,0,.077.029s-.177-.081-.089-.038c.066.033.133.063.2.1.106.057.205.122.305.189.136.09-.132-.114-.008-.008.057.048.113.1.166.147.088.083.165.175.246.265.063.069-.056-.071-.056-.074a.552.552,0,0,0,.066.091c.037.055.072.11.106.167.063.106.108.222.169.329-.011-.018-.076-.2-.027-.055.009.027.019.055.029.082.022.065.041.131.059.2.094.357.167.72.24,1.082s.136.707.193,1.062q.041.255.078.511c.009.067.036.235.01.072.017.1.027.209.039.314q.124,1.05.165,2.109a26.6,26.6,0,0,1-.19,4.212c-.013.107.006-.039.007-.049-.005.038-.011.076-.016.114-.013.09-.026.179-.04.268-.027.178-.056.357-.087.534q-.09.516-.2,1.027-.227,1.047-.541,2.073-.3.985-.68,1.944c-.059.148-.12.3-.18.443-.039.1.018-.04.021-.048-.013.033-.028.066-.043.1-.038.088-.076.176-.115.264q-.193.437-.4.866a26.644,26.644,0,0,1-1.76,3.078c-.147.221-.3.441-.45.658a.91.91,0,0,0,.325,1.241.932.932,0,0,0,1.242-.325Z" fill="#03566e"/>
      </g>
      <g id="Group_248" data-name="Group 248">
        <path id="Path_23971" data-name="Path 23971" d="M4048.547,3977.652a20.333,20.333,0,0,1,.46,2.444c0-.008-.021-.166-.008-.06,0,.049.012.1.018.145.011.1.023.193.033.289.022.2.042.407.059.61q.048.565.067,1.132.039,1.131-.034,2.263-.035.531-.094,1.061c-.01.088-.02.175-.031.262-.005.043-.014.088-.017.13,0-.024.03-.211.007-.046-.027.183-.054.365-.084.547a22.676,22.676,0,0,1-1.023,3.944c-.112.312-.23.623-.356.93-.026.065-.053.129-.079.194-.047.113.07-.165.021-.052l-.047.109q-.1.231-.2.459-.395.857-.854,1.681-.5.89-1.072,1.736-.275.405-.564.8c-.053.072-.106.143-.16.214l-.064.085c-.1.127.1-.125.028-.037-.1.13-.205.261-.309.39a.977.977,0,0,0-.266.642.907.907,0,0,0,1.549.641,25.083,25.083,0,0,0,3.937-6.795,23.356,23.356,0,0,0,1.544-8.6,25.366,25.366,0,0,0-.707-5.6.916.916,0,0,0-1.116-.634.928.928,0,0,0-.634,1.117Z" fill="#03566e"/>
      </g>
      <g id="Group_249" data-name="Group 249">
        <path id="Path_23972" data-name="Path 23972" d="M4033.114,3966.344q.339-.5.706-.982c.095-.126-.021.023-.032.04a1.249,1.249,0,0,1,.112-.142c.056-.071.113-.142.17-.212.134-.164.27-.325.408-.485a20.542,20.542,0,0,1,1.638-1.687q.444-.408.911-.791c.07-.057.141-.114.212-.17.047-.038.274-.231.077-.063.153-.13.323-.244.485-.362a20.646,20.646,0,0,1,2.041-1.3q.519-.29,1.052-.549c.174-.084.349-.166.526-.246l.251-.111a1.275,1.275,0,0,1,.141-.06c-.232.071-.042.017.009,0a20.266,20.266,0,0,1,2.3-.79,20.514,20.514,0,0,1,2.415-.518l.281-.041c.138-.02-.233.029-.021,0l.126-.015q.331-.04.665-.07.624-.055,1.25-.072a20.846,20.846,0,0,1,2.847.114l.328.039c.246.028-.2-.03.049.006l.144.021c.241.035.48.075.719.118.473.087.944.191,1.41.311a20.355,20.355,0,0,1,2.638.874c.035.014.258.1.045.017.044.018.087.038.13.056.108.047.216.095.323.143.214.1.426.2.637.3q.662.328,1.3.7t1.236.788q.3.21.6.43c.074.055.146.111.22.166.106.08-.176-.138-.015-.011.049.037.1.075.144.113a20.761,20.761,0,0,1,3.4,3.411c.026.032.05.065.076.1-.145-.172-.046-.059-.012-.014.056.073.111.147.165.22.128.172.253.347.375.523q.339.49.652,1a20.437,20.437,0,0,1,1.141,2.146c.082.177.17.355.238.537-.093-.247.027.07.05.127.039.1.077.193.114.289q.225.582.413,1.176a20.528,20.528,0,0,1,.6,2.381q.059.313.108.627c.015.095.03.19.043.285.009.06.044.211,0-.019.013.062.017.128.024.191.051.416.09.835.115,1.254s.038.849.039,1.274a.907.907,0,1,0,1.815,0,21.512,21.512,0,0,0-38.69-12.964q-.366.482-.7.982a.912.912,0,0,0,.325,1.241.93.93,0,0,0,1.242-.325Z" fill="#03566e"/>
      </g>
      <g id="Group_250" data-name="Group 250">
        <path id="Path_23973" data-name="Path 23973" d="M4030.53,3983.029a22.115,22.115,0,0,1-.634-2.9c-.038-.247.015.127,0-.026-.008-.064-.017-.128-.025-.192-.014-.116-.026-.231-.038-.347-.029-.271-.051-.543-.069-.815q-.048-.744-.042-1.49t.062-1.471c.019-.236.041-.471.068-.706.012-.111.026-.222.04-.333.018-.15-.033.223,0-.016.011-.073.021-.146.032-.219a20.485,20.485,0,0,1,.626-2.783q.228-.761.514-1.5c.044-.112.088-.223.133-.334.022-.056.045-.111.068-.166s.018-.045-.022.051l.043-.1c.109-.251.223-.5.342-.748a.907.907,0,0,0-1.567-.916,21.6,21.6,0,0,0-2,11.971,22.281,22.281,0,0,0,.718,3.525.908.908,0,0,0,1.75-.483Z" fill="#03566e"/>
      </g>
    </g>
  </g>
</svg>
