<svg xmlns="http://www.w3.org/2000/svg" width="343.867" height="243.261" viewBox="0 0 343.867 243.261">
  <g id="Group_7865" data-name="Group 7865" transform="translate(0 15.396)">
    <path id="Path_7943" data-name="Path 7943" d="M0,0H343.867V212.467H0Z" fill="none"/>
    <g id="Group_137" data-name="Group 137" transform="translate(31.2 -15.397)">
      <g id="Group_112" data-name="Group 112" transform="translate(0 4.956)" opacity="0.8">
        <path id="Path_102" data-name="Path 102" d="M1052.287,140.954c-9.045-16.958-25.016-24.842-45.119-20.118-18.908,4.443-35.781,15.572-50.06,27.465a7.58,7.58,0,0,1-9.782,0c-10.683-8.108-20.545-18.479-33.754-23.139a39.635,39.635,0,0,0-37.328,5.619c-18.17,13.764-25.585,39.251-24,60.163,1.659,21.943,17.061,39.873,32.655,55.393,23.569,23.458,48.5,45.576,74.258,66.878a303.334,303.334,0,0,0,56.4-45.691C1047.436,234.429,1075.773,184.986,1052.287,140.954Z" transform="translate(-829.2 -98.311)" fill="#03566e" style="mix-blend-mode: multiply;isolation: isolate"/>
        <path id="Path_103" data-name="Path 103" d="M1073.227,124.473c-11.022-20.664-30.484-30.271-54.981-24.515-23.041,5.415-43.6,18.976-61,33.468-3.652,3.042-8.267,2.773-11.92,0-13.018-9.88-25.036-22.518-41.133-28.2a48.3,48.3,0,0,0-45.486,6.846c-22.143,16.773-31.178,47.832-29.252,73.314,2.022,26.74,20.791,48.589,39.794,67.5,28.72,28.585,59.1,55.538,90.489,81.5a369.576,369.576,0,0,0,68.735-55.678C1067.316,238.381,1101.846,178.13,1073.227,124.473Z" transform="translate(-829.2 -98.311)" fill="#03566e" style="mix-blend-mode: multiply;isolation: isolate"/>
      </g>
      <g id="Group_124" data-name="Group 124" transform="translate(28.639 58.653)">
        <g id="Group_116" data-name="Group 116" transform="translate(0 25.232)">
          <g id="Group_113" data-name="Group 113">
            <path id="Path_104" data-name="Path 104" d="M888.588,252.55c-10.49-3.929-15.191-4.515-25.788-8.146a4.415,4.415,0,0,0-2.879-.072c-4.049,1.421-1.457,7.146,1.548,9.891,17.322,15.827,38.607,30.47,62.022,28.936,7.376-.483,15.067-2.884,19.778-8.58,6.759-8.172,5.4-20.26,2.337-30.414-4.21-13.969-13.405-33.4-23.184-47.4a2.39,2.39,0,0,0-4.263,2.023c2.543,8.719,6.038,18.873,8.176,24.544-8.482-11.552-23.246-50.285-33.028-45.719-2.5,1.069,11.33,32.479,15.8,45.55q-10.19-13.7-20.381-27.4c-2.791-3.752-6.4-8.326-10.6-10.52-8.525-4.446-3.858,9.428-2.2,12.68A141.833,141.833,0,0,0,886.979,216.1c2.074,2.895,4.336,5.622,6.529,8.424a12.6,12.6,0,0,1,1.634,3.718c.032.128-.314,1.166-1.371.511-11.968-7.414-16.322-18.611-27.3-27.548a3.983,3.983,0,0,0-4.889-.189c-2.029,1.556-1.207,4.161-.2,6.139,10.219,20.035,19.646,32.506,27.84,44.748" transform="translate(-857.839 -177.24)" fill="#ffaa8d"/>
          </g>
          <g id="Group_114" data-name="Group 114" transform="translate(38.193 0.147)" opacity="0.47" style="mix-blend-mode: multiply;isolation: isolate">
            <path id="Path_105" data-name="Path 105" d="M945.606,244.165c-4.209-13.969-13.405-33.4-23.184-47.4a2.391,2.391,0,0,0-4.264,2.023c2.544,8.719,6.039,18.873,8.177,24.544-7.727-10.524-20.665-43.588-30.3-45.944,22.216,27.758,36.124,75.312,18.536,105.589a52.732,52.732,0,0,0,8.923.183c7.376-.483,15.067-2.884,19.778-8.58C950.028,266.407,948.667,254.319,945.606,244.165Z" transform="translate(-896.032 -177.387)" fill="#ffaa8d"/>
          </g>
          <g id="Group_115" data-name="Group 115" transform="translate(32.295 72.071)">
            <path id="Path_106" data-name="Path 106" d="M890.134,252.731a31.653,31.653,0,0,1,6.456-2.32,37.186,37.186,0,0,1,6.751-1.042,29.436,29.436,0,0,1,6.893.367,18.742,18.742,0,0,1,6.529,2.36c-2.339.139-4.528.192-6.712.3l-6.513.358c-2.176.125-4.368.245-6.6.291A42.327,42.327,0,0,1,890.134,252.731Z" transform="translate(-890.134 -249.311)" fill="#d17252"/>
          </g>
        </g>
        <g id="Group_120" data-name="Group 120" transform="translate(110.64 27.173)">
          <g id="Group_117" data-name="Group 117">
            <path id="Path_107" data-name="Path 107" d="M1028.02,254.491c10.489-3.929,15.191-4.515,25.787-8.146a4.418,4.418,0,0,1,2.88-.072c4.049,1.421,1.457,7.145-1.548,9.891-17.322,15.827-38.607,30.47-62.022,28.936-7.376-.483-15.067-2.884-19.778-8.58-6.759-8.172-5.4-20.26-2.338-30.414,4.21-13.969,13.406-33.4,23.185-47.4a2.39,2.39,0,0,1,4.263,2.023c-2.543,8.719-6.038,18.873-8.177,24.544,8.483-11.552,23.247-50.285,33.029-45.719,2.5,1.069-11.33,32.48-15.8,45.55l20.382-27.4c2.791-3.752,6.4-8.326,10.6-10.52,8.525-4.446,3.858,9.427,2.2,12.68a141.845,141.845,0,0,1-11.058,18.171c-2.074,2.9-4.336,5.622-6.529,8.424a12.6,12.6,0,0,0-1.634,3.718c-.032.128.314,1.166,1.371.511,11.968-7.414,16.322-18.611,27.3-27.548a3.983,3.983,0,0,1,4.889-.189c2.029,1.556,1.207,4.161.2,6.139-10.219,20.035-19.646,32.506-27.84,44.748" transform="translate(-968.479 -179.181)" fill="#ffaa8d"/>
          </g>
          <g id="Group_118" data-name="Group 118" transform="translate(0 0.147)" opacity="0.47" style="mix-blend-mode: multiply;isolation: isolate">
            <path id="Path_108" data-name="Path 108" d="M971,246.106c4.21-13.969,13.406-33.4,23.185-47.4a2.39,2.39,0,0,1,4.263,2.022c-2.543,8.72-6.038,18.874-8.177,24.545,7.728-10.524,20.666-43.588,30.3-45.944-22.216,27.758-36.124,75.312-18.536,105.589a52.627,52.627,0,0,1-8.923.183c-7.376-.483-15.067-2.884-19.778-8.58C966.58,268.348,967.941,256.26,971,246.106Z" transform="translate(-968.479 -179.328)" fill="#ffaa8d"/>
          </g>
          <g id="Group_119" data-name="Group 119" transform="translate(31.366 72.071)">
            <path id="Path_109" data-name="Path 109" d="M1026.474,254.673a42.439,42.439,0,0,1-6.808.317c-2.228-.046-4.42-.166-6.6-.29l-6.513-.359c-2.184-.112-4.374-.165-6.712-.3a18.741,18.741,0,0,1,6.529-2.36,29.435,29.435,0,0,1,6.893-.367,37.275,37.275,0,0,1,6.751,1.042A31.6,31.6,0,0,1,1026.474,254.673Z" transform="translate(-999.845 -251.252)" fill="#d17252"/>
          </g>
        </g>
        <g id="Group_123" data-name="Group 123" transform="translate(37.11)">
          <g id="Group_121" data-name="Group 121">
            <path id="Path_110" data-name="Path 110" d="M956.675,266.194c-13.51-11-27.1-22.081-38.376-35.363s-20.213-29.039-22.866-46.257c-1.631-10.588.608-23.718,10.484-27.872,4.552-1.915,9.763-1.407,14.554-.213a55.318,55.318,0,0,1,34.545,26.506c4.513-8.644,9.2-17.516,16.642-23.821s18.384-9.495,27.136-5.2c10.149,4.984,13.752,17.817,13.44,29.119-.479,17.361-7.573,34.107-17.877,48.087s-23.7,25.409-37.827,35.514" transform="translate(-894.948 -152.008)" fill="#ec5a65"/>
          </g>
          <g id="Group_122" data-name="Group 122" transform="translate(60.655)" style="mix-blend-mode: multiply;isolation: isolate">
            <path id="Path_111" data-name="Path 111" d="M998.794,153.977c-8.752-4.3-19.7-1.108-27.136,5.2-7.118,6.034-11.717,14.418-16.055,22.7.318,28.172.939,56.34,1.35,84.51,13.969-10.029,27.2-21.363,37.4-35.2,10.3-13.98,17.4-30.726,17.877-48.087C1012.546,171.794,1008.943,158.961,998.794,153.977Z" transform="translate(-955.603 -152.008)" fill="#ec5a65"/>
          </g>
        </g>
      </g>
      <g id="Group_135" data-name="Group 135" transform="translate(30.508 19.981)">
        <g id="Group_126" data-name="Group 126" transform="translate(132.153)">
          <g id="Group_125" data-name="Group 125">
            <path id="Path_112" data-name="Path 112" d="M995.725,143.571c.842-8.472,1.17-17.011,1.623-25.511q.076-1.432.15-2.866c.127-2.481-3.73-2.474-3.857,0-.379,7.383-.783,14.767-1.284,22.143-.142,2.079-.283,4.16-.49,6.234A1.943,1.943,0,0,0,993.8,145.5a1.972,1.972,0,0,0,1.929-1.929Z" transform="translate(-991.86 -113.336)" fill="#f3fefa"/>
          </g>
        </g>
        <g id="Group_128" data-name="Group 128" transform="translate(146.736 18.385)">
          <g id="Group_127" data-name="Group 127">
            <path id="Path_113" data-name="Path 113" d="M1009.791,150.921l15.753-14,2.205-1.959c1.859-1.653-.877-4.373-2.728-2.728l-15.752,14-2.2,1.96c-1.859,1.653.877,4.373,2.727,2.728Z" transform="translate(-1006.444 -131.721)" fill="#f3fefa"/>
          </g>
        </g>
        <g id="Group_130" data-name="Group 130" transform="translate(22.618 29.305)">
          <g id="Group_129" data-name="Group 129">
            <path id="Path_114" data-name="Path 114" d="M953.351,163.911a63.313,63.313,0,0,0-33.931-20.233c-6.315-1.37-13.031-1.552-19.226.489a25.794,25.794,0,0,0-17.59,28.35,1.94,1.94,0,0,0,2.372,1.347,1.978,1.978,0,0,0,1.347-2.372c-1.461-9.882,4.808-19.949,14.1-23.331,11.294-4.109,24.06-.14,34.113,5.473a58.539,58.539,0,0,1,16.083,13.005c1.612,1.892,4.33-.848,2.727-2.728Z" transform="translate(-882.326 -142.641)" fill="#f3fefa"/>
          </g>
        </g>
        <g id="Group_132" data-name="Group 132" transform="translate(0 151.999)">
          <g id="Group_131" data-name="Group 131">
            <path id="Path_115" data-name="Path 115" d="M860.268,268.6c9.49,7.663,19.317,14.953,30.047,20.8,9.366,5.106,19.7,8.914,30.553,7.7a29.863,29.863,0,0,0,15.866-6.473,1.944,1.944,0,0,0,0-2.727,1.969,1.969,0,0,0-2.727,0c-7.508,6.148-17.963,6.544-27.019,4.3a60.086,60.086,0,0,1-13.961-5.715,154.408,154.408,0,0,1-14.2-8.689c-5.453-3.736-10.69-7.772-15.831-11.923a1.991,1.991,0,0,0-2.728,0,1.941,1.941,0,0,0,0,2.727Z" transform="translate(-859.708 -265.335)" fill="#f3fefa"/>
          </g>
        </g>
        <g id="Group_134" data-name="Group 134" transform="translate(107.617 154.098)">
          <g id="Group_133" data-name="Group 133">
            <path id="Path_116" data-name="Path 116" d="M967.859,287.075c8.321,8.9,20.755,12.475,32.681,11.965,13.511-.576,25.967-6.4,37.04-13.83,6.643-4.458,12.885-9.48,19.106-14.5a1.942,1.942,0,0,0,0-2.727,1.972,1.972,0,0,0-2.727,0c-18.811,15.177-41.676,32.729-67.431,25.732a33.68,33.68,0,0,1-15.941-9.368c-1.7-1.817-4.422.915-2.728,2.728Z" transform="translate(-967.324 -267.434)" fill="#f3fefa"/>
          </g>
        </g>
      </g>
      <g id="Group_136" data-name="Group 136" transform="translate(13.61)">
        <circle id="Ellipse_6" data-name="Ellipse 6" cx="7.279" cy="7.279" r="7.279" transform="translate(89.658 10.294) rotate(-45)" fill="#03566e" opacity="0.67" style="mix-blend-mode: multiply;isolation: isolate"/>
        <circle id="Ellipse_7" data-name="Ellipse 7" cx="7.279" cy="7.279" r="7.279" transform="translate(0 212.299) rotate(-8.155)" fill="#03566e" opacity="0.67" style="mix-blend-mode: multiply;isolation: isolate"/>
        <circle id="Ellipse_8" data-name="Ellipse 8" cx="10.19" cy="10.19" r="10.19" transform="translate(210.552 223.141) rotate(-9.188)" fill="#03566e" opacity="0.67" style="mix-blend-mode: multiply;isolation: isolate"/>
        <circle id="Ellipse_9" data-name="Ellipse 9" cx="7.279" cy="7.279" r="7.279" transform="translate(249.795 39.41) rotate(-45)" fill="#03566e" opacity="0.67" style="mix-blend-mode: multiply;isolation: isolate"/>
      </g>
    </g>
  </g>
</svg>
