<svg xmlns="http://www.w3.org/2000/svg" width="38.313" height="45" viewBox="0 0 38.313 45">
  <g id="Group_2" data-name="Group 2" transform="translate(-529.23 -167.373)">
    <path id="Path_3" data-name="Path 3" d="M548.386,187.072a9.85,9.85,0,1,0-9.85-9.849A9.862,9.862,0,0,0,548.386,187.072Zm0-18.123a8.273,8.273,0,1,1-8.274,8.274A8.284,8.284,0,0,1,548.386,168.949Z" fill="#00556e"/>
    <path id="Path_4" data-name="Path 4" d="M548.386,190.1A19.177,19.177,0,0,0,529.23,209.25a3.127,3.127,0,0,0,3.123,3.123H564.42a3.127,3.127,0,0,0,3.123-3.123A19.178,19.178,0,0,0,548.386,190.1Zm17.581,19.155a1.55,1.55,0,0,1-1.547,1.548H532.353a1.55,1.55,0,0,1-1.547-1.548,17.58,17.58,0,0,1,35.161,0Z" fill="#00556e"/>
  </g>
</svg>
