<svg xmlns="http://www.w3.org/2000/svg" width="35.805" height="40" viewBox="0 0 35.805 40">
  <g id="Group_1249" data-name="Group 1249" transform="translate(-3985.234 -2412.653)">
    <g id="Group_1109" data-name="Group 1109">
      <g id="Group_1108" data-name="Group 1108">
        <path id="Path_76760" data-name="Path 76760" d="M4003.139,2412.653a10.385,10.385,0,1,0,10.386,10.385A10.413,10.413,0,0,0,4003.139,2412.653Z" fill="#03566e"/>
      </g>
    </g>
    <g id="Group_1111" data-name="Group 1111">
      <g id="Group_1110" data-name="Group 1110">
        <path id="Path_76761" data-name="Path 76761" d="M4020.962,2441.723a9.7,9.7,0,0,0-1.043-1.9,12.9,12.9,0,0,0-8.934-5.623,1.908,1.908,0,0,0-1.315.317,11.067,11.067,0,0,1-13.061,0,1.7,1.7,0,0,0-1.316-.317,12.812,12.812,0,0,0-8.934,5.623,11.177,11.177,0,0,0-1.043,1.9.965.965,0,0,0,.045.862,18.119,18.119,0,0,0,1.225,1.814,17.292,17.292,0,0,0,2.086,2.358,27.353,27.353,0,0,0,2.086,1.814,20.679,20.679,0,0,0,24.671,0,19.864,19.864,0,0,0,2.087-1.814,21.106,21.106,0,0,0,2.086-2.358,15.861,15.861,0,0,0,1.224-1.814A.774.774,0,0,0,4020.962,2441.723Z" fill="#03566e"/>
      </g>
    </g>
  </g>
</svg>
