<svg xmlns="http://www.w3.org/2000/svg" width="66.062" height="66.061" viewBox="0 0 66.062 66.061">
  <g id="Group_17" data-name="Group 17" transform="translate(-515.356 -337.382)">
    <path id="Path_20" data-name="Path 20" d="M515.356,370.413a33.031,33.031,0,1,0,33.031-33.031,33.03,33.03,0,0,0-33.031,33.031" fill="#03566e"/>
    <g id="Group_16" data-name="Group 16">
      <path id="Path_21" data-name="Path 21" d="M548.386,367.923a8.755,8.755,0,1,0-8.755-8.756A8.765,8.765,0,0,0,548.386,367.923Z" fill="#fff"/>
      <path id="Path_22" data-name="Path 22" d="M548.386,370.609a17.047,17.047,0,0,0-17.027,17.027,2.78,2.78,0,0,0,2.776,2.777h28.5a2.78,2.78,0,0,0,2.777-2.777A17.048,17.048,0,0,0,548.386,370.609Z" fill="#fff"/>
    </g>
  </g>
</svg>
