<svg clip-rule="evenodd" fill-rule="evenodd" height="173.397mm" image-rendering="optimizeQuality" shape-rendering="geometricPrecision" text-rendering="geometricPrecision" viewBox="0 0 173.397 173.397" width="173.397mm" xmlns="http://www.w3.org/2000/svg" id="fi_11480915"><g id="Layer_x0020_1"><g id="_533697592"><path id="_533697400" d="m30.3466 23.6109v5.0862l8.1838-.0002c.9842 0 1.7821.7984 1.7821 1.7822 0 .9837-.7979 1.7819-1.7821 1.7818h-8.1838v5.083l3.2009-.0001c.9842 0 1.7819.7985 1.7819 1.7822.0001.9868-.7977 1.782-1.7819 1.7818h-3.2009v5.0864l8.1838-.0001c.9842 0 1.7821.7983 1.7821 1.7821 0 .9835-.7979 1.782-1.7821 1.7819h-8.1838v5.0862l3.2009-.0001c.9842 0 1.7819.7983 1.7819 1.7821.0001.9837-.7977 1.782-1.7819 1.7819h-3.2009v5.0861l8.1838-.0002c.9842 0 1.7821.7955 1.7821 1.7823 0 .9837-.7979 1.782-1.7821 1.7817h-8.1838v5.0834l3.2009-.0001c.9842 0 1.7819.7982 1.7819 1.7821.0001.9866-.7977 1.782-1.7819 1.7819h-3.2009v5.0861l8.1838-.0001c.9842 0 1.7821.7984 1.7821 1.7821 0 .9838-.7979 1.782-1.7821 1.7819h-8.1838v5.0862l3.2009-.0003c.9842 0 1.7819.7986 1.7819 1.7824.0001.9836-.7977 1.782-1.7819 1.782h-3.2009v5.0861h8.1838c.9842 0 1.7821.7982 1.7821 1.782s-.7979 1.782-1.7821 1.782h-8.1838v5.0829l3.2009-.0001c.9842 0 1.7819.7984 1.7819 1.7822.0001.9869-.7977 1.782-1.7819 1.7818h-3.2009v5.0863h8.1838c.9842 0 1.7821.7983 1.7821 1.782 0 .9836-.7979 1.782-1.7821 1.782h-8.1838v5.0862l3.2009-.0001c.9842 0 1.7819.7983 1.7819 1.7821.0001.9837-.7977 1.7819-1.7819 1.7819h-3.2009v5.0861l8.1838-.0002c.9842 0 1.7821.7984 1.7821 1.7823 0 .9837-.7979 1.782-1.7821 1.7817h-8.1838v5.0833h3.2009c.9842 0 1.7819.7982 1.7819 1.782.0001.9867-.7977 1.782-1.7819 1.782h-3.2009v5.0861l8.1838-.0001c.9842 0 1.7821.7984 1.7821 1.7821 0 .9838-.7979 1.7821-1.7821 1.7819h-8.1838v7.6013h26.7952v-148.506h-26.7952v7.6014h3.2009c.9842 0 1.7819.7982 1.7819 1.782.0001.9836-.7977 1.782-1.7819 1.782h-3.2009zm17.9084 112.944v-99.7118c0-.9836.7979-1.7817 1.782-1.7817.9841-.0003 1.782.7982 1.782 1.782v99.7112c0 .984-.7979 1.7823-1.782 1.782-.984 0-1.782-.7979-1.782-1.7817z"></path><path id="_533697304" d="m108.965 151.476v.0172c.0001-.0059.0001-.0117 0-.0172zm-27.2501-101.382c-5.7338 0-10.3987 4.6654-10.3987 10.3981l.0001 48.5378c0 3.1894 2.5949 5.7853 5.7847 5.7853 3.1896-.0002 5.7846-2.5956 5.7846-5.7853v-41.3387c0-.9838.7979-1.782 1.782-1.782s1.782.7983 1.782 1.782v41.3387 42.4459c0 5.2256 4.2509 9.4765 9.4759 9.4765 5.225-.0002 9.4758-4.2508 9.4758-9.4761 0 .9868.7976 1.7816 1.7821 1.7816.9778.0004 1.7715-.7848 1.7816-1.7631 0-.0004 0-.0009 0-.0013.0094 5.2173 4.2569 9.4589 9.4759 9.4589 5.225-.0002 9.4758-4.2508 9.4758-9.4761v-42.4463-41.3387c0-.9838.7979-1.782 1.782-1.782s1.782.7983 1.782 1.782v41.3387c0 3.1894 2.5947 5.7853 5.7844 5.7853 3.19-.0002 5.785-2.5956 5.785-5.7853v-48.5379c0-5.7328-4.6648-10.398-10.3984-10.398h-25.4683z"></path><path id="_533697472" d="m90.1413 29.489c0 9.3956 7.6453 17.0404 17.0425 17.0404 9.397 0 17.0422-7.6446 17.0422-17.0404.0001-9.399-7.6452-17.0435-17.0421-17.0435-9.3973 0-17.0426 7.6447-17.0426 17.0435z"></path></g></g></svg>