<svg viewBox="0 0 72 72" xmlns="http://www.w3.org/2000/svg"><g fill="#03566e"><path d="m24.27 30.16a11.08 11.08 0 0 0 4.92-.69c3.49-1.26 5.61-3.58 5.16-4.82a1.58 1.58 0 0 0 -1-.88 14.35 14.35 0 0 1 -3.35 1.69 13.84 13.84 0 0 1 -4.66.87 9.65 9.65 0 0 1 -1.22-.07l-.38-.07c-1.21 1-1.84 2.13-1.59 2.84.2.56 1 1 2.14 1.13"/><path d="m34.52 34.75a13.3 13.3 0 0 1 -4.63 2.71 15.2 15.2 0 0 1 -3.37.79c-.95 1.22-1.32 2.38-.93 3s1.17.76 2.33.67a11 11 0 0 0 4.66-1.66 12 12 0 0 0 2.83-2.26 5.17 5.17 0 0 1 -.89-3.2"/><path d="m24.37 24.2a11 11 0 0 0 4.91-.69c3.5-1.26 5.61-3.58 5.17-4.82a2.31 2.31 0 0 0 -1.64-1.11 10.81 10.81 0 0 1 -2.56 1.31 10.25 10.25 0 0 1 -3.43.64h-.3l-.18.32a.77.77 0 0 1 -.66.4.77.77 0 0 1 -.66-.37l-.22-.34c-2 1.3-2.83 2.77-2.55 3.54.2.56 1 1 2.14 1.13"/><path d="m34.35 30.69a1.74 1.74 0 0 0 -1.16-.91 14.74 14.74 0 0 1 -3.3 1.65 14.08 14.08 0 0 1 -4.67.86 9.33 9.33 0 0 1 -1.2-.07h-.23c-1.25 1-1.92 2.16-1.66 2.89.21.56 1 1 2.15 1.12a11.18 11.18 0 0 0 4.91-.68c3.49-1.26 5.61-3.58 5.16-4.82"/><path d="m32.84 15.56c.58-.62.84-1.23.69-1.64s-1.08-.86-2.27-.86a8.22 8.22 0 0 0 -2.13.3 23 23 0 0 1 -1.79 4.64 9.51 9.51 0 0 0 2.4-.52 8.18 8.18 0 0 0 3.1-1.9"/><path d="m31.26 65c-.61 0-.85.69-.85 1s1.23.94 1.91 1.28c.15.07 1.23-.47 1.23-.92s-1.68-1.36-2.29-1.36"/><path d="m42.15 65c-.76.11-1.71 1-1.71 1.49s.77.82 1 .75c.68-.25 2.32-1 2.32-1.36s-.84-1-1.59-.88"/><path d="m41.92 62.88a4.24 4.24 0 0 0 .95-3 2.06 2.06 0 0 0 -1.61-1.58c-.71 0-1.08.51-1.51.94-.79.78-1 1.7-1.81 2.43a2.86 2.86 0 0 1 -1.9 0c-.69-.17-1.68-1.67-2.29-2.66-.72-1.16-1.48-1-2.36-.36a2.59 2.59 0 0 0 -.21 3.88c1.45 2.06 8.07 3.58 10.74.36"/><path d="m47.59 19.45-.27.42a.78.78 0 0 1 -.66.37.77.77 0 0 1 -.66-.4c-.06-.08-.12-.21-.2-.35a11 11 0 0 1 -2.63-.59 10.83 10.83 0 0 1 -2.56-1.32 2.31 2.31 0 0 0 -1.61 1.11c-.44 1.24 1.68 3.57 5.17 4.82a11 11 0 0 0 4.83.69c1.14-.14 1.94-.57 2.14-1.12.3-.82-.62-2.42-2.91-3.77a6.6 6.6 0 0 1 -.67.14"/><path d="m43.67 17.46a9.46 9.46 0 0 0 1.23.35 22.52 22.52 0 0 1 -1.76-4.68 8.7 8.7 0 0 0 -1-.07c-1.19 0-2.08.34-2.27.86s.12 1 .69 1.64a8.31 8.31 0 0 0 3.11 1.9"/><path d="m62.67 0h-53.34a9.36 9.36 0 0 0 -9.33 9.33v53.34a9.36 9.36 0 0 0 9.33 9.33h53.34a9.36 9.36 0 0 0 9.33-9.33v-53.34a9.36 9.36 0 0 0 -9.33-9.33m-44.55 65.9c-.16 0-.29.1-.38.06-1.06-.48-1.77 0-2.49.74a1 1 0 0 1 -1.05-.09c-.3-.33-.8-.92-.51-1.29 1.79-3.14 1.05-10.49.84-13.47s-.64-6-1.12-9a11.8 11.8 0 0 0 -1.22-3.41c-.65-1.28-.43-1.85 1-2.05a5.85 5.85 0 0 0 1.44-.67c.42-.2.86-.61 1.25-.56a1.79 1.79 0 0 1 1.28.8 1.4 1.4 0 0 1 -.56 1.28c-1.34.71-1.36 1.8-1.19 3.06.61 4.8 1.15 9.61 1.84 14.4.2 1.37.84 7.24 1.3 8.57.23.67.5 1.3-.4 1.61m28.68-3.88c-1.28.72-1.56 3-1.85 3.95-.17.56-.45 2.67-2 2.67h-11.8c-2.21 0-2.48-2.15-2.63-2.72a9.12 9.12 0 0 0 -3.06-4.46c-.56-.36-.93-1.82-1.59-2.54-2.12-2.34-2.39-4.39-.77-7 2-3.31 5.72-4 8.61-1.47a33 33 0 0 1 2.85 2.82c1.59 1.75 2.78 1.75 4.41-.05a33.11 33.11 0 0 1 2.86-2.82c2.77-2.4 6.29-1.92 8.35 1.24a16.51 16.51 0 0 1 1.34 3.23c.71 2.64-3.42 6.45-4.69 7.16m13-22.55a12.08 12.08 0 0 0 -1.21 3.41c-.48 3-.91 6-1.12 9s-.92 10.33.87 13.47c.29.37-.21 1-.51 1.3a1 1 0 0 1 -1 .08c-.73-.71-1.44-1.22-2.49-.74-.09 0-.22 0-.38-.06-.9-.31-.64-.94-.4-1.61a22 22 0 0 0 1.28-4c.7-4.79 1.22-14.16 1.83-19 .16-1.26.14-2.35-1.19-3.06a1.43 1.43 0 0 1 -.68-1.25 1.83 1.83 0 0 1 1.29-.8c.38 0 .83.36 1.25.56a5.85 5.85 0 0 0 1.44.67c1.39.2 1.62.77 1 2.05m.56-3.48a1 1 0 0 1 -1 .29c-.85-.56-1.65-.92-2.59-.25-.08.06-.22 0-.38 0-1-.13-.81-.8-.7-1.5a22.23 22.23 0 0 0 .47-4.19c-.25-4.82-.66-9.65-1-14.47-.09-1.27-.32-2.34-1.77-2.77a1.57 1.57 0 0 1 -.76-.85l-1.8 2-.8 1.25a2.54 2.54 0 0 1 .21 2.07 2.64 2.64 0 0 1 -.18.38c2.5 1.73 3.68 3.92 3 5.74a3.3 3.3 0 0 1 -1.29 1.61c1.36 1.44 1.87 3 1.39 4.35a3.35 3.35 0 0 1 -1.4 1.68c1.35 1.43 1.88 3 1.4 4.36s-1.82 2.3-3.81 2.55a4.09 4.09 0 0 1 .23 4.1 4 4 0 0 1 -3.68 1.65c-.2 0-.4 0-.61 0a12.19 12.19 0 0 1 -4.45-1.33 2.59 2.59 0 0 1 -.77 1.33 2.25 2.25 0 0 1 .43 1.33v.38a2.34 2.34 0 0 1 -.83 1.77 1.92 1.92 0 0 1 .22.89v.3a2 2 0 0 1 -.84 1.64 1.06 1.06 0 0 1 .09.4v.87a1.66 1.66 0 0 1 -1.66 1.67h-1.62a1 1 0 1 1 0-1.91h1.38v-.65h-1.79a1 1 0 1 1 0-1.9h2.43a.1.1 0 0 0 .1-.11v-.28a.1.1 0 0 0 -.1-.11h-2.53a1.09 1.09 0 0 1 0-2.17h2.85a.4.4 0 0 0 .39-.4v-.38a.4.4 0 0 0 -.39-.4h-3.16a1.09 1.09 0 0 1 -1.08-1.07.83.83 0 0 1 .06-.32s0 0 0 0v-.1a1 1 0 0 1 .08-.14l.09-.11.06-.06h.05a1.11 1.11 0 0 1 .5-.24h.2 3.36a.57.57 0 0 0 .6-.7v-.46a.52.52 0 0 0 -.52-.54h-3.55a14.05 14.05 0 0 1 -1.26.87 13.2 13.2 0 0 1 -5.6 2h-.6a4 4 0 0 1 -3.65-1.69 4.09 4.09 0 0 1 .18-4.12c-2-.26-3.35-1.14-3.84-2.49s0-2.92 1.4-4.36a3.29 3.29 0 0 1 -1.4-1.67c-.48-1.36 0-2.92 1.39-4.36a3.18 3.18 0 0 1 -1.29-1.6c-.66-1.82.53-4 3-5.75a2.48 2.48 0 0 1 -.17-.37 2.16 2.16 0 0 1 -.12-.9l-1.55-2.42-2.06-2.34a1.45 1.45 0 0 1 -.8 1.15c-1.46.43-1.68 1.5-1.77 2.76-.33 4.83-.74 9.65-1 14.48a23 23 0 0 0 .47 4.18c.11.71.25 1.37-.7 1.51-.16 0-.3 0-.38 0-.94-.67-1.74-.31-2.59.25a1.08 1.08 0 0 1 -1-.29c-.23-.39-.61-1.07-.25-1.37 2.36-2.73 2.2-5.61 2.57-8.58s.54-6 .64-9a11.52 11.52 0 0 0 -.55-3.61c-.39-1.38-.06-1.9 1.35-1.82a6 6 0 0 0 1.54-.38c.45-.12 1-.43 1.34-.31a1.51 1.51 0 0 1 .36.18.8.8 0 0 1 -.08-.16 3.55 3.55 0 0 1 .11-3.32 3.91 3.91 0 0 1 3.23-1.33h.45.1c.56.13 5.52 1.34 6.7 3.89a3.32 3.32 0 0 1 .24 1.49 9 9 0 0 1 1.89-.21 5.47 5.47 0 0 1 2.27.43v-.72a2.16 2.16 0 0 1 1.4-2 .94.94 0 0 1 .9-.63h1.38v-.59h-1.75a1 1 0 0 1 0-1.91h2.43a.11.11 0 0 0 .14-.15v-.59a.11.11 0 0 0 -.11-.1 15.32 15.32 0 0 1 -3.15-.07.94.94 0 0 1 -.55-.86 1 1 0 0 1 1-1h3.07c1.82.14 1.69 2 1.69 2.27v.3a2 2 0 0 1 -.95 1.69.91.91 0 0 1 .1.4v.87a1.64 1.64 0 0 1 -.18.73 2.13 2.13 0 0 1 .81 1.68v.74a5.42 5.42 0 0 1 2.38-.48h.81a3 3 0 0 1 .25-1.31c1.17-2.55 6.13-3.76 6.69-3.89h.1s.18 0 .45 0a3.89 3.89 0 0 1 3.22 1.34 3.49 3.49 0 0 1 .16 3.34c.37-.08.86.2 1.29.32a5.57 5.57 0 0 0 1.54.37c1.41-.07 1.74.44 1.35 1.82a11.92 11.92 0 0 0 -.53 3.59c.11 3 .27 6 .65 9s.2 5.84 2.56 8.57c.36.31 0 1-.25 1.37"/><path d="m49.68 26.19-.38.07a9.65 9.65 0 0 1 -1.22.07 13.88 13.88 0 0 1 -4.66-.87 14.08 14.08 0 0 1 -3.36-1.69 1.65 1.65 0 0 0 -1 .88c-.44 1.24 1.67 3.56 5.17 4.82a11.16 11.16 0 0 0 4.91.69c1.14-.15 1.94-.57 2.14-1.13.26-.71-.38-1.82-1.59-2.84"/><path d="m43.52 37.46a13.51 13.51 0 0 1 -4.64-2.71 5.16 5.16 0 0 1 -.88 3.25 12.17 12.17 0 0 0 2.82 2.33 11 11 0 0 0 4.67 1.66c1.15.09 2-.16 2.33-.67s0-1.8-.94-3a15.12 15.12 0 0 1 -3.36-.79"/><path d="m49.62 32.18h-.23a9.49 9.49 0 0 1 -1.21.07 14 14 0 0 1 -4.66-.87 14.31 14.31 0 0 1 -3.3-1.64 1.78 1.78 0 0 0 -1.17.91c-.44 1.24 1.67 3.56 5.17 4.81a11 11 0 0 0 4.91.69c1.14-.14 1.94-.56 2.14-1.12.26-.73-.41-1.86-1.65-2.89"/></g></svg>