<svg height="26.062" viewBox="0 0 65.422 26.062" width="65.422" xmlns="http://www.w3.org/2000/svg"><g fill="#fff" transform="translate(-4036.476 -1063.39)"><path d="m4043.787 1083.854c3.246 0 6.3-.021 9.33 0 1.7.022 2.622.731 2.794 2.085a2.409 2.409 0 0 1 -2.644 2.859c-3.482.043-6.943.022-10.425.022-1.011 0-2 .043-3.01-.022-1.247-.064-2.472-.322-3.074-1.612a3.211 3.211 0 0 1 .645-3.5c3.311-4.213 6.642-8.448 9.974-12.661.194-.258.387-.516.581-.752-.215-.366-.516-.194-.774-.215-2.322-.022-4.665 0-6.986-.022a7.8 7.8 0 0 1 -1.591-.172 2.253 2.253 0 0 1 -.043-4.385 6.574 6.574 0 0 1 1.591-.193c3.826-.022 7.674-.022 11.5 0a7.1 7.1 0 0 1 2.02.236 2.345 2.345 0 0 1 1.5 3.268 15.23 15.23 0 0 1 -2.149 3.331q-4.224 5.385-8.448 10.705c-.237.28-.452.559-.8 1.032z"/><path d="m4068.723 1072.547a3.3 3.3 0 0 1 1.934-1.461 2.64 2.64 0 0 1 3.311 2.472c.064 4.3.043 8.6 0 12.9a2.541 2.541 0 0 1 -1.785 2.429 2.612 2.612 0 0 1 -3.009-.838c-.365-.452-.516-.538-1.032-.129a6.581 6.581 0 0 1 -6.556 1.1c-3.826-1.247-5.4-4.235-5.825-7.867-.452-3.934.859-7.287 4.385-9.351a6.809 6.809 0 0 1 8.577.752zm-7.61 7.846a4.688 4.688 0 0 0 .9 2.6 3.55 3.55 0 0 0 4.944.71 3.687 3.687 0 0 0 .709-.71 5.358 5.358 0 0 0 0-5.954 3.228 3.228 0 0 0 -2.558-1.354c-2.361-.15-4.016 1.677-3.995 4.708zm22.506.129c-.172-5.524 3.461-9.651 8.62-9.8 5.481-.172 9.48 3.5 9.652 8.878.172 5.438-3.16 9.286-8.3 9.8a8.771 8.771 0 0 1 -9.974-8.878zm5.4-.516a4.76 4.76 0 0 0 .924 3.01 3.507 3.507 0 0 0 4.944.645 4.135 4.135 0 0 0 .623-.6 5.349 5.349 0 0 0 .022-6.019 3.29 3.29 0 0 0 -2.558-1.354c-2.326-.131-3.959 1.631-3.959 4.318zm-7.287-3.761c0 3.331.021 6.663 0 9.995a2.8 2.8 0 0 1 -2.709 2.838 3.355 3.355 0 0 1 -.795-.086 2.787 2.787 0 0 1 -1.892-2.773v-17.09c0-1.01-.021-2 0-3.009a2.7 2.7 0 1 1 5.4.043c.013 3.353-.008 6.728-.008 10.082z"/></g></svg>