<?xml version="1.0" encoding="UTF-8"?>
<svg id="Capa_1" xmlns="http://www.w3.org/2000/svg" version="1.1" viewBox="0 0 512 512">
  <!-- Generator: Adobe Illustrator 29.1.0, SVG Export Plug-In . SVG Version: 2.1.0 Build 142)  -->
  <defs>
    <style>
      .st0 {
        fill: #1a0664;
      }

      .st1 {
        fill: #0285ff;
      }

      .st2 {
        fill: #005570;
      }

      .st3 {
        fill: #ff9907;
      }

      .st4 {
        fill: #ffe702;
      }

      .st5 {
        fill: #00657c;
      }

      .st6 {
        fill: #0067d8;
      }

      .st7 {
        fill: #f28a00;
      }

      .st8 {
        fill: #fff2a6;
      }

      .st9 {
        fill: #ffbf03;
      }

      .st10 {
        fill: #0070ff;
      }

      .st11 {
        fill: #00adff;
      }
    </style>
  </defs>
  <g>
    <path class="st5" d="M512,256c0,105.5-63.8,196-154.9,235.2h-202.2C63.8,452,0,361.5,0,256s11.9-88.4,32.8-125.6c0,0,0-.1.1-.2.2-.4.4-.7.6-1.1,0,0,0,0,0,0C77.7,52,160.8,0,256,0s178.8,52.3,222.8,129.8c0,0,0,.1.1.2,0,0,0,0,0,0,21,37.2,33.1,80.2,33.1,125.9Z"/>
    <path class="st2" d="M512,256c0,105.5-63.8,196-154.9,235.2h-202.2C63.8,452,0,361.5,0,256s11.9-88.4,32.8-125.6c0,0,0-.1.1-.2.2-.3.4-.6.6-1,0-.1,0-.2.2-.3,25.4,44.4,63.7,80.4,109.8,103,5.2,2.6,10.6,5,16,7.2,29,11.8,60.7,18.5,93.9,18.8h5.1c33.2-.3,64.9-7,93.9-18.8,5.4-2.2,10.8-4.6,16-7.2,46.1-22.6,84.4-58.6,109.8-103,0,0,.1.1.1.3.1.2.2.4.3.5,0,0,0,.1.1.2,0,0,0,0,0,0,21,37.2,33.1,80.1,33.1,125.9h0Z"/>
    <path class="st0" d="M271.3,176.7c.8-4.1,1.3-6.4,1.3-6.4,1.3,2.4.8,4.5-1.3,6.4Z"/>
    <path class="st4" d="M454.1,235.8c0,65.7-53.5,119.2-119.2,119.2h-70.9v-29.4h70.9c3.9,0,7.8-.3,11.6-.8,44-5.7,78.1-43.5,78.1-89s-18.7-47-43.2-51.1c-2.8-.5-5.7-.7-8.7-.7h-67.9v-29.4h67.9c3.9,0,7.8.3,11.5.8,39.4,5.6,69.8,39.6,69.8,80.5h0Z"/>
    <path class="st9" d="M372.9,154.5h-67.9v29.4h67.9c3,0,5.9.2,8.7.7l2.8-29.3c-3.8-.5-7.6-.8-11.5-.8h0ZM335,325.6h-70.9v29.4h43.5c15-7.2,28.3-17.5,39-30.2-3.8.5-7.7.8-11.6.8Z"/>
    <path class="st4" d="M247.9,325.6v29.4h-70.9c-65.7,0-119.2-53.5-119.2-119.2s30.4-74.9,69.8-80.5c3.8-.5,7.6-.8,11.5-.8h67.9v29.4h-67.9c-3,0-5.9.2-8.7.7-24.5,4.1-43.2,25.5-43.2,51.1,0,45.6,34.1,83.3,78.1,89,3.8.5,7.7.8,11.6.8h70.9,0Z"/>
    <path class="st9" d="M165.4,324.8c10.7,12.6,24.1,22.9,39,30.2h43.5v-29.4h-70.9c-3.9,0-7.8-.3-11.6-.8h0Z"/>
    <path class="st9" d="M139.1,154.5c-3.9,0-7.8.3-11.5.8l2.8,29.3c2.8-.5,5.7-.7,8.7-.7h67.9v-29.4h-67.9Z"/>
    <path class="st1" d="M229.7,475.2l-23.3,32c-17.9-3.5-35.2-8.9-51.6-16v-20.5l55.2-25.1,4.1-1.9,15.6,31.5Z"/>
    <path class="st10" d="M298.9,476.6l-42.9,35.4c-16.9,0-33.5-1.6-49.5-4.8v-36.5l7.7-27,41.9-19.1,42.9,52Z"/>
    <path class="st6" d="M357.1,470.7v20.5c-16.4,7-33.6,12.4-51.6,16-16,3.1-32.6,4.8-49.5,4.8v-87.3l45.9,20.9,55.2,25.1Z"/>
    <path class="st4" d="M244.4,378.8c-.7,4.2-2.8,7.9-5.8,10.5s-7,4.1-11.2,4.1l-3.4,15.3-21.9-15.3c6.6,0,12.8-2.3,17.6-6.3,4.8-4,8.3-9.5,9.6-16,2.6-12.7-3.9-25.4-15.7-30.8-32-14.7-55.3-45.6-58.8-82.7l-12.2-126.6-2.1-22.3h54.3l48.4,212.9c3.8,18.8,4.2,38.2,1.3,57.1h0Z"/>
    <path class="st9" d="M291.7,241.7l-35.7,189.2-28.6-37.6c3.5,0,6.8-2.3,9.4-6.3,2.6-4,4.4-9.5,5.1-16,1.4-12.7-2.1-25.4-8.3-30.8-17-14.7-29.3-45.6-31.2-82.7l-6.5-126.6-1.1-22.3h61.3l35.7,133Z"/>
    <path class="st3" d="M371.6,108.7l-2.1,22.3-12.2,126.6c-3.6,37.1-26.8,68-58.8,82.7-10,4.6-16.2,14.6-16.2,25.3s.2,3.7.5,5.5c2.6,13,14,22.3,27.3,22.3l-54,37.6V108.7h115.6Z"/>
    <path class="st9" d="M236.5,237.5l-30.1,50.4c-10.4-11.7-16.8-27.2-16.8-44.1s3.7-25.1,10.2-35.3l36.7,29Z"/>
    <path class="st3" d="M300.8,244.9l-44.8,65.3c-19.7,0-37.4-8.6-49.6-22.2-2.1-9.4-3.6-19.6-4.1-30.4l-2.5-49c11.7-18.7,32.5-31.1,56.2-31.1l44.8,67.4Z"/>
    <path class="st7" d="M322.4,243.8c0,36.7-29.7,66.4-66.4,66.4v-132.7c36.7,0,66.4,29.7,66.4,66.4Z"/>
    <path class="st4" d="M276.7,243.6l-20.7,36.3-29.1,8.8.4-29.7-18.4-25.7,29.4-8.1,17.8-26.1,20.7,44.6Z"/>
    <path class="st9" d="M284.8,259l.4,29.7-29.1-8.8v-80.9l17.8,26.1,29.4,8.1-18.4,25.7Z"/>
    <path class="st11" d="M238.9,430.9l-32.5,39.8h-51.6l22.7-77.3h40l21.4,37.6Z"/>
    <path class="st1" d="M297.7,431.6l-41.8,39.1h-49.5l3.6-25.1,7.5-52.2h38.4l41.8,38.2Z"/>
    <path class="st10" d="M357.1,470.7h-101.1v-77.3h78.4l22.7,77.3Z"/>
    <path class="st8" d="M226.6,113.6l-30.8,17.3h-60.9l-3.4-35.7h61.9l33.3,18.3Z"/>
    <path class="st4" d="M282.4,113.6l-26.4,17.3h-60.2l-2.5-35.7h62.7l26.4,18.3Z"/>
    <path class="st4" d="M302.9,445.6l.5.2c-.3,0-.5,0-.5-.2Z"/>
    <path class="st9" d="M380.6,95.3l-3.4,35.7h-121.1v-35.7h21.4l34.8,29.9,34.8-29.9h33.5Z"/>
  </g>
  <rect class="st9" x="277.4" y="95.3" width="72.6" height="31"/>
</svg>