<svg enable-background="new 0 0 32 32" height="512" viewBox="0 0 32 32" width="512" xmlns="http://www.w3.org/2000/svg"><g id="BG"><path d="m26 32h-20c-3.314 0-6-2.686-6-6v-20c0-3.314 2.686-6 6-6h20c3.314 0 6 2.686 6 6v20c0 3.314-2.686 6-6 6z" fill="#e3f8fa"/></g><g id="bold"><g fill="#26c6da"><path d="m12.667 8h-1.5c-.644 0-1.167.523-1.167 1.167v4.333c0 .643.523 1.167 1.167 1.167h1.5z"/><path d="m13.667 8h4.667v6.667h-4.667z"/><path d="m20.833 8h-1.5v6.667h1.5c.643 0 1.167-.523 1.167-1.167v-4.333c0-.644-.523-1.167-1.167-1.167z"/></g><path d="m20.64 18.172c-.06-.178-.215-.307-.4-.334l-2.617-.39-1.183-2.495c-.083-.174-.259-.286-.452-.286h-.002c-.194.001-.37.113-.451.289l-1.166 2.503-2.614.408c-.185.029-.339.159-.397.337-.059.178-.013.374.118.507l1.913 1.946-.442 2.764c-.03.189.05.379.207.488.086.06.186.09.287.09.084 0 .167-.021.243-.063l2.329-1.296 2.338 1.28c.168.092.373.08.53-.031.156-.111.235-.301.204-.49l-.461-2.761 1.9-1.959c.132-.133.177-.33.116-.507z" fill="#8ce1eb"/></g></svg>