<svg xmlns="http://www.w3.org/2000/svg" width="139.176" height="203.583" viewBox="0 0 139.176 203.583"><g transform="translate(-643.295 -77.218)"><path d="M727.6,134.728a11.877,11.877,0,1,1,11.3-8.186h0A11.9,11.9,0,0,1,727.6,134.728Zm0-19.293a7.414,7.414,0,1,0,7.053,9.719h0a7.411,7.411,0,0,0-4.742-9.348A7.452,7.452,0,0,0,727.6,115.435Z" fill="#03566e"/><path d="M732.532,124.46a5.178,5.178,0,1,1-3.313-6.532A5.178,5.178,0,0,1,732.532,124.46Z" fill="#03566e"/><path d="M731.925,97.746a2.215,2.215,0,0,1-.694-.113l-12.511-4.09a2.232,2.232,0,0,1-1.427-2.816l3.446-10.545a4.308,4.308,0,0,1,5.424-2.753l8.581,2.807a4.3,4.3,0,0,1,2.751,5.425l-3.448,10.545A2.235,2.235,0,0,1,731.925,97.746Zm-9.7-7.753,8.266,2.7,2.7-8.268-8.268-2.705Z" fill="#03566e"/><path d="M707.1,182.492a4.838,4.838,0,0,1-1.511-.244l-16.168-5.284a4.883,4.883,0,0,1-3.119-6.145l1.259-3.853a2.407,2.407,0,0,1,3.032-1.538l20.863,6.82A2.4,2.4,0,0,1,713,175.28l-1.258,3.851A4.885,4.885,0,0,1,707.1,182.492Zm-15.715-11.746-.512,1.566,16.211,5.367a.091.091,0,0,0,.016,0,.074.074,0,0,0,.067-.046l.51-1.564Z" fill="#03566e"/><path d="M704.7,202.5a3.522,3.522,0,0,1-.967-.136l-57.857-16.343a3.532,3.532,0,0,1-2.44-4.362l.656-2.319a3.534,3.534,0,0,1,4.362-2.438L706.3,193.243a3.533,3.533,0,0,1,2.441,4.362l-.653,2.316a3.54,3.54,0,0,1-3.4,2.576ZM647.515,180.2l-.78,2.39,57.927,16.465h0a.126.126,0,0,0,.123-.07l.652-2.316Z" fill="#03566e"/><path d="M754.835,266.6H721.9a2.4,2.4,0,0,1-2.405-2.4V233.827a18.872,18.872,0,0,1,37.745,0V264.2A2.4,2.4,0,0,1,754.835,266.6Zm-30.53-4.81h14.063c0-7.754,7.755,0,0,0s0-7.754,0,0Z" fill="#03566e"/><path d="M710.712,176.941a2.467,2.467,0,0,1-.748-.119L689.1,170a2.4,2.4,0,0,1-1.538-3.032l18.9-57.806a2.407,2.407,0,0,1,3.032-1.539c1.263.412,11.647,7.512,11.234,8.773l-.842,9.731,4.448,7.2L713,165.191l-3.823,6.313,12.48-38.175c-2.044-1.155-2.175,7.906-3.262,5.764-1.455-2.871-2.176-8.306-1.176-11.365,1.809-5.531,6.212-17.473,11.777-16.848l3.547-10.848a1.7,1.7,0,0,0-1.089-2.145l-13.059-4.27c-.889-.29,18.057,4.227,17.767,5.117l-4.708,14.471c-.413,1.261-11.788,3.6-13.059,3.19s-12.344-5.974-11.931-7.237l5.215-15.947a6.524,6.524,0,0,1,8.21-4.166l13.06,4.27a6.518,6.518,0,0,1,4.165,8.211l-4.219,12.906a2.4,2.4,0,0,1-3.032,1.538,7.24,7.24,0,0,0-4.5,13.762,2.4,2.4,0,0,1,1.539,3.032L713,175.282a2.406,2.406,0,0,1-2.286,1.659Z" fill="#03566e"/><path d="M754.166,231.436a2.235,2.235,0,0,1-2.143-1.605,14.242,14.242,0,0,0-3.983-6.425,2.23,2.23,0,0,1,.317-3.516,48.9,48.9,0,0,0-13.978-88.617,2.233,2.233,0,0,1-1.136-3.614,7.323,7.323,0,0,0,1.412-2.5,6.234,6.234,0,0,0,.188-.872,2.411,2.411,0,0,1,1.015-1.581,2.311,2.311,0,0,1,1.8-.351,60.514,60.514,0,0,1,17.753,108.708A2.235,2.235,0,0,1,754.166,231.436Zm5.567-5.705c.882,1.1-2.717-7.108-2.1-5.841,14.215-10.579,20.206-21.358,20.206-39.158a56.167,56.167,0,0,0-39.207-53.444c-.069.172,1.818-1.41,1.742-1.244,21.985,7.04,39.569,31.385,39.569,54.688C779.938,198.149,773.892,215.687,759.733,225.731ZM737.07,124.506l2.2.388Z" fill="#03566e"/><path d="M746.108,234.712a7.74,7.74,0,1,1-7.74-7.741A7.74,7.74,0,0,1,746.108,234.712Z" fill="#03566e"/><path d="M721.749,241.28A60.131,60.131,0,0,1,670.256,212.4a2.234,2.234,0,0,1,2.242-3.378,7.745,7.745,0,0,0,2.839-.02,8.786,8.786,0,0,0,4.055-1.845,2.234,2.234,0,0,1,3.217.4A49.141,49.141,0,0,0,722.034,227.6c.057,0,.324-.019.349-.019a2.131,2.131,0,0,1,1.781.847,2.231,2.231,0,0,1,.414,1.927,14.4,14.4,0,0,0-.446,3.471v5.212a2.23,2.23,0,0,1-2.158,2.231C721.95,241.272,721.774,241.28,721.749,241.28ZM681.088,210c10.138,14.185,23.25,19.722,40.661,20.356l-2.081,3.471a17.96,17.96,0,0,1,.094-1.813,53.654,53.654,0,0,1-39.446-20.1C679.06,212.618,682.517,209.737,681.088,210Z" fill="#03566e"/><path d="M673.848,213.611a13.216,13.216,0,0,1-7.4-24.163,2.23,2.23,0,0,1,1.86-.3l8.84,2.5h0l7.283,2.058a2.23,2.23,0,0,1,1.424,1.22,13.171,13.171,0,0,1-12,18.688Zm-5.687-19.865c-1.934,1.655,3.805-4.676,3.805-2.1,0,1.891,1.3,1.449,4,2.058,3.424.779,5.529,4,8.463,4,4.825,0-1.829,7.521-1.829,2.7a8.5,8.5,0,0,0-.445-2.7Z" fill="#03566e"/><path d="M770.135,261.79H693.281c-1.328,0-30.615,14.886-30.615,16.214,0,1.017,22.278-1.075,59.813,0,8.79.252,24.029.121,40.2,0,4.035-.031,8.917-2.483,13.116-2.013,4.19,0,1.93-5.951,1.865-1.747-.015.984-2.421,0-3.4,0l-111.589-3.4c-.983,0,.016,4.381,0,3.4-.065-4.205,8.995,1.745,13.186,1.745,24.418,0,18.758-14.2,17.429-14.2H670.192a12.35,12.35,0,0,0-12.335,12.495,6.651,6.651,0,0,0,6.673,6.516H775.795a6.653,6.653,0,0,0,6.675-6.517A12.35,12.35,0,0,0,770.135,261.79Z" fill="#03566e"/></g></svg>