<svg viewBox="0 0 62.4 72" xmlns="http://www.w3.org/2000/svg"><g fill="#03566e"><path d="m10.8 56.4a6 6 0 0 0 6-6v-9.6h-12v9.6a6 6 0 0 0 6 6"/><path d="m51.6 56.4a6 6 0 0 0 6-6v-9.6h-12v9.6a6 6 0 0 0 6 6"/><path d="m45.6 31.2h-44.4a1.2 1.2 0 0 0 -1.2 1.2v4.8a1.2 1.2 0 0 0 1.2 1.2h60a1.2 1.2 0 0 0 1.2-1.2v-4.8a1.2 1.2 0 0 0 -1.2-1.2z"/><path d="m54 62.4h-18v-21.6h-9.6v21.6h-18a8.42 8.42 0 0 0 -8.4 8.4 1.2 1.2 0 0 0 1.2 1.2h60a1.2 1.2 0 0 0 1.2-1.2 8.41 8.41 0 0 0 -8.4-8.4"/><path d="m36 28.8v-27.6a1.2 1.2 0 0 0 -1.2-1.2h-7.2a1.2 1.2 0 0 0 -1.2 1.2v27.6z"/><path d="m44.4 16.8h1.2v12h12v-12h1.2a1.2 1.2 0 0 0 1.2-1.2v-4.8a1.2 1.2 0 0 0 -1.2-1.2h-14.4a1.2 1.2 0 0 0 -1.2 1.2v4.8a1.2 1.2 0 0 0 1.2 1.2m3.6 0h7.2v4.8h-7.2z"/><path d="m3.6 16.8h1.2v12h12v-12h1.2a1.2 1.2 0 0 0 1.2-1.2v-4.8a1.2 1.2 0 0 0 -1.2-1.2h-14.4a1.2 1.2 0 0 0 -1.2 1.2v4.8a1.2 1.2 0 0 0 1.2 1.2m3.6 0h7.2v4.8h-7.2z"/></g></svg>