<svg xmlns="http://www.w3.org/2000/svg" width="224.578" height="44.605" viewBox="0 0 224.578 44.605"><g transform="translate(-241.898 -1552.282)"><path d="M241.961,1569.229h7.667c8.348,0,13.733,4.119,13.733,13.417s-5.385,13.669-13.384,13.669H241.9Zm7.35,22.176c4.642,0,7.778-2.249,7.778-8.727s-3.168-8.491-7.778-8.491H248.14v17.187Z" fill="#03566e"/><path d="M264.755,1586c0-6.843,4.864-10.8,10.122-10.8s10.138,3.96,10.138,10.8-4.88,10.739-10.138,10.739-10.122-3.96-10.122-10.8m13.939,0c0-3.564-1.267-5.876-3.817-5.876s-3.818,2.312-3.818,5.876,1.267,5.877,3.818,5.877,3.817-2.3,3.817-5.877" fill="#03566e"/><path d="M286.345,1586a10.422,10.422,0,0,1,10.028-10.8c.258-.01.517-.01.775,0a9.1,9.1,0,0,1,6.083,2.218l-2.916,3.928a4.226,4.226,0,0,0-2.818-1.22c-2.963,0-4.879,2.313-4.879,5.877s1.995,5.876,4.752,5.876a6.332,6.332,0,0,0,3.753-1.583l2.361,4.055a10.454,10.454,0,0,1-6.859,2.391c-5.813,0-10.28-3.96-10.28-10.8" fill="#03566e"/><path d="M306.921,1588.823v-8.332h-2.835v-4.561l3.167-.238.729-5.48h5.084v5.48h4.991v4.752h-4.991v8.379c0,2.33,1.078,3.279,2.693,3.279a6.31,6.31,0,0,0,1.981-.4l.981,4.436a14.884,14.884,0,0,1-4.624.745c-5.149,0-7.192-3.169-7.192-7.921" fill="#03566e"/><path d="M319.133,1586c0-6.843,4.864-10.8,10.138-10.8s10.122,3.96,10.122,10.8-4.863,10.739-10.122,10.739-10.138-3.96-10.138-10.8m13.94,0c0-3.564-1.267-5.876-3.8-5.876s-3.817,2.312-3.817,5.876,1.268,5.877,3.817,5.877,3.8-2.3,3.8-5.877" fill="#03566e"/><path d="M340.9,1575.692h5.021l.444,3.612h.158a7.014,7.014,0,0,1,5.908-4.1,5.7,5.7,0,0,1,2.472.411l-1.015,5.29a8.225,8.225,0,0,0-2.249-.332c-1.584,0-3.468,1-4.578,3.8v11.959H340.9Z" fill="#03566e"/><path d="M363.675,1582.931c0-9,5.987-14.255,12.893-14.255a11.574,11.574,0,0,1,8.222,3.516l-3.247,3.959a6.909,6.909,0,0,0-4.831-2.154c-3.754,0-6.7,3.279-6.7,8.712s2.614,8.791,6.607,8.791a7.233,7.233,0,0,0,5.337-2.519l3.264,3.835a11.3,11.3,0,0,1-8.871,3.928c-6.938,0-12.672-4.752-12.672-13.876" fill="#03566e"/><path d="M387.435,1567.2h6.178v7.112l-.286,3.723a9.509,9.509,0,0,1,6.432-2.836c4.514,0,6.446,3.168,6.446,8.316v12.8h-6.162v-12.022c0-2.962-.806-3.9-2.582-3.9a5.257,5.257,0,0,0-3.9,2.09v13.907h-6.13Z" fill="#03566e"/><path d="M407.774,1586c0-6.685,4.752-10.8,9.8-10.8,5.925,0,8.87,4.262,8.87,9.884a12.988,12.988,0,0,1-.269,2.71H413.745a4.99,4.99,0,0,0,5.37,4.355,8.728,8.728,0,0,0,4.5-1.346l2.043,3.69a13.671,13.671,0,0,1-7.366,2.25c-5.924,0-10.517-3.977-10.517-10.8m13.4-2.249c0-2.264-1-3.9-3.452-3.9a4.118,4.118,0,0,0-4.056,3.9Z" fill="#03566e"/><path d="M427.811,1586a10.438,10.438,0,0,1,10.06-10.8q.387-.013.774,0a9.1,9.1,0,0,1,6.083,2.218l-2.914,3.928a4.2,4.2,0,0,0-2.82-1.22c-2.962,0-4.862,2.313-4.862,5.877s1.979,5.876,4.655,5.876a6.241,6.241,0,0,0,3.755-1.583l2.408,3.992a10.4,10.4,0,0,1-6.827,2.454c-5.8,0-10.28-3.96-10.28-10.8" fill="#03566e"/><path d="M446.455,1567.2h6.019v16.679h.158l6.59-8.189h6.7l-7.286,8.506,7.841,12.117h-6.684l-4.673-8.046-2.646,2.962v5.084h-6.019Z" fill="#03566e"/><path d="M247.744,1555.931a.17.17,0,0,1-.062.142.236.236,0,0,1-.15.05h-1.856v6.442a.2.2,0,0,1-.062.153.21.21,0,0,1-.151.06h-1.052a.212.212,0,0,1-.145-.062.2.2,0,0,1-.067-.151v-6.442h-1.856a.23.23,0,0,1-.15-.052.169.169,0,0,1-.062-.14v-.839a.193.193,0,0,1,.06-.143.2.2,0,0,1,.152-.06h5.189a.216.216,0,0,1,.152.055.19.19,0,0,1,.06.148Z" fill="#03566e"/><path d="M251.044,1557.916l-.2-.008c-.066,0-.157,0-.275,0a5.124,5.124,0,0,0-1.042.114v4.534a.227.227,0,0,1-.058.158.2.2,0,0,1-.154.066h-.974a.2.2,0,0,1-.153-.07.239.239,0,0,1-.06-.154v-5.307c0-.1.07-.174.213-.211a8.771,8.771,0,0,1,1.138-.231,8.185,8.185,0,0,1,1.132-.087,3.369,3.369,0,0,1,.435.022c.142.013.213.081.213.2v.762a.188.188,0,0,1-.213.212" fill="#03566e"/><path d="M251.919,1557.015a.232.232,0,0,1,.06-.154.19.19,0,0,1,.152-.069h.974a.2.2,0,0,1,.154.065.218.218,0,0,1,.059.158v3.5a2.218,2.218,0,0,0,.052.523.831.831,0,0,0,.174.353.7.7,0,0,0,.324.2,1.718,1.718,0,0,0,.513.064,4.658,4.658,0,0,0,1.041-.119v-4.529a.232.232,0,0,1,.06-.154.188.188,0,0,1,.148-.069h.979a.2.2,0,0,1,.148.069.223.223,0,0,1,.064.154v5.307c0,.1-.07.175-.212.212a9.048,9.048,0,0,1-1.159.236,8.3,8.3,0,0,1-1.11.08,3.828,3.828,0,0,1-1.081-.132,1.834,1.834,0,0,1-.747-.417,1.712,1.712,0,0,1-.448-.721,3.336,3.336,0,0,1-.145-1.052Z" fill="#03566e"/><path d="M262.651,1562.555a.222.222,0,0,1-.064.153.2.2,0,0,1-.148.069h-.98a.189.189,0,0,1-.148-.069.235.235,0,0,1-.059-.153v-3.505a1.835,1.835,0,0,0-.1-.666.655.655,0,0,0-.329-.364,1.455,1.455,0,0,0-.635-.113,5.181,5.181,0,0,0-1.042.113v4.535a.224.224,0,0,1-.06.158.2.2,0,0,1-.152.064h-.974a.193.193,0,0,1-.154-.069.23.23,0,0,1-.059-.153v-5.307c0-.1.07-.175.213-.213a8.811,8.811,0,0,1,1.136-.23,8.045,8.045,0,0,1,1.133-.086,2.609,2.609,0,0,1,1.835.551,2.338,2.338,0,0,1,.585,1.771Z" fill="#03566e"/><path d="M265.941,1563.777a1.906,1.906,0,0,0,.643-.082.479.479,0,0,0,.293-.277,1.7,1.7,0,0,0,.076-.588v-.084c-.081.014-.249.038-.505.068s-.43.047-.517.047a2.86,2.86,0,0,1-1.409-.316,1.976,1.976,0,0,1-.844-.918,3.342,3.342,0,0,1-.281-1.431v-.813a3.344,3.344,0,0,1,.281-1.43,1.974,1.974,0,0,1,.844-.917,2.848,2.848,0,0,1,1.409-.318c.191,0,.376.007.557.02s.345.027.488.046.334.051.572.1.412.083.519.114a.468.468,0,0,1,.227.1.253.253,0,0,1,.058.183v5.479a2.519,2.519,0,0,1-.262,1.223,1.559,1.559,0,0,1-.8.7,3.552,3.552,0,0,1-1.351.223,4.351,4.351,0,0,1-1.067-.133,5.3,5.3,0,0,1-.881-.292,1.327,1.327,0,0,1-.124-.076.194.194,0,0,1-.078-.085.287.287,0,0,1-.021-.118v-.541c0-.156.075-.212.223-.17q.426.1.966.2a5.772,5.772,0,0,0,.982.093m1.012-2.145v-3.674a4.426,4.426,0,0,0-.453-.069c-.172-.016-.361-.025-.569-.025a.959.959,0,0,0-.888.4,2.134,2.134,0,0,0-.247,1.119v.813a3.3,3.3,0,0,0,.052.608,1.38,1.38,0,0,0,.181.486.859.859,0,0,0,.353.317,1.271,1.271,0,0,0,.549.108c.126,0,.289-.009.493-.025s.38-.036.529-.058" fill="#03566e"/><path d="M276.918,1555.931a.17.17,0,0,1-.062.142.237.237,0,0,1-.151.05H274.85v6.442a.2.2,0,0,1-.063.153.206.206,0,0,1-.15.06h-1.052a.214.214,0,0,1-.146-.062.2.2,0,0,1-.066-.151v-6.442h-1.856a.23.23,0,0,1-.15-.052.169.169,0,0,1-.062-.14v-.839a.2.2,0,0,1,.059-.143.207.207,0,0,1,.153-.06H276.7a.221.221,0,0,1,.153.055.194.194,0,0,1,.06.148Z" fill="#03566e"/><path d="M279.617,1557.885a5.539,5.539,0,0,0-1.7.275c-.148.041-.222-.015-.222-.171v-.648a.252.252,0,0,1,.05-.161.422.422,0,0,1,.172-.113,4.462,4.462,0,0,1,.807-.244,4.915,4.915,0,0,1,1.05-.1,2.8,2.8,0,0,1,1.169.222,1.614,1.614,0,0,1,.746.685,2.24,2.24,0,0,1,.261,1.119v3.617a.353.353,0,0,1-.026.162.192.192,0,0,1-.125.072,8.066,8.066,0,0,1-.912.2,7.273,7.273,0,0,1-1.082.068,4.68,4.68,0,0,1-1.423-.181,1.529,1.529,0,0,1-.817-.573,1.816,1.816,0,0,1-.263-1.028v-.052a2.169,2.169,0,0,1,.132-.8,1.285,1.285,0,0,1,.427-.559,1.956,1.956,0,0,1,.77-.34,5.186,5.186,0,0,1,1.174-.112h.746v-.467a.85.85,0,0,0-.221-.679,1.133,1.133,0,0,0-.717-.181m2.124-1.835c0,.048-.033.073-.1.073h-.881a.248.248,0,0,1-.1-.016.218.218,0,0,1-.075-.052l-.073-.072-.751-.86-.756.86a.788.788,0,0,1-.12.111.242.242,0,0,1-.134.029h-.882c-.062,0-.094-.025-.094-.073a.148.148,0,0,1,.042-.108l.974-1.276a.877.877,0,0,1,.138-.13.317.317,0,0,1,.143-.024h1.378a.306.306,0,0,1,.146.027.723.723,0,0,1,.129.127l.969,1.276a.144.144,0,0,1,.041.108m-1.186,5.665v-1.571h-.746a2.162,2.162,0,0,0-.713.087.491.491,0,0,0-.307.263,1.357,1.357,0,0,0-.074.5v.062a.88.88,0,0,0,.1.458.529.529,0,0,0,.324.224,3.374,3.374,0,0,0,1.42-.024" fill="#03566e"/><path d="M287.39,1562.555a.224.224,0,0,1-.06.158.2.2,0,0,1-.152.064H286.2a.194.194,0,0,1-.154-.069.235.235,0,0,1-.059-.153v-3.505a2.061,2.061,0,0,0-.088-.672.632.632,0,0,0-.308-.358,1.387,1.387,0,0,0-.625-.113,2.638,2.638,0,0,0-.69.1v4.545a.224.224,0,0,1-.06.158.2.2,0,0,1-.152.064h-.974a.194.194,0,0,1-.154-.069.235.235,0,0,1-.059-.153v-5.307c0-.093.07-.165.213-.213a5.736,5.736,0,0,1,.964-.228,6.337,6.337,0,0,1,.974-.088,2.729,2.729,0,0,1,1.637.409,5.461,5.461,0,0,1,.872-.293,3.812,3.812,0,0,1,.922-.116,1.964,1.964,0,0,1,1.523.559,2.549,2.549,0,0,1,.513,1.763v3.514a.223.223,0,0,1-.059.158.2.2,0,0,1-.153.064h-.974a.191.191,0,0,1-.153-.069.237.237,0,0,1-.06-.153v-3.505a2.256,2.256,0,0,0-.08-.67.624.624,0,0,0-.275-.36,1.061,1.061,0,0,0-.535-.113,2.439,2.439,0,0,0-.924.2,4.078,4.078,0,0,1,.1.933Z" fill="#03566e"/><path d="M299.863,1562.353a.427.427,0,0,1-.425.425h-1.073a.927.927,0,0,1-.388-.068.585.585,0,0,1-.259-.317l-2.354-5.166c-.027-.056-.06-.083-.1-.083s-.051.027-.051.083v5.337a.208.208,0,0,1-.06.154.2.2,0,0,1-.142.06h-.9a.218.218,0,0,1-.144-.062.2.2,0,0,1-.068-.152v-7.251a.425.425,0,0,1,.426-.423h1.145a.462.462,0,0,1,.277.072.668.668,0,0,1,.19.269l2.471,5.457c.028.057.058.085.089.085s.051-.034.051-.1v-5.581a.192.192,0,0,1,.058-.146.2.2,0,0,1,.144-.056h.912a.2.2,0,0,1,.146.056.2.2,0,0,1,.057.146Z" fill="#03566e"/><path d="M305.785,1560.217a3.094,3.094,0,0,1-.292,1.363,2.159,2.159,0,0,1-.863.943,3,3,0,0,1-2.763,0,2.133,2.133,0,0,1-.864-.943,3.094,3.094,0,0,1-.291-1.363v-.856A3.093,3.093,0,0,1,301,1558a2.145,2.145,0,0,1,.864-.944,3.008,3.008,0,0,1,2.763,0,2.172,2.172,0,0,1,.863.944,3.093,3.093,0,0,1,.292,1.362Zm-.574-4.167c0,.049-.034.073-.1.073h-.882a.293.293,0,0,1-.1-.015.223.223,0,0,1-.075-.052l-.073-.074-.751-.86-.756.86a.817.817,0,0,1-.12.112.248.248,0,0,1-.134.029h-.882c-.062,0-.093-.024-.093-.073a.149.149,0,0,1,.041-.108l.975-1.276a.78.78,0,0,1,.137-.129.285.285,0,0,1,.142-.026h1.379a.286.286,0,0,1,.145.028.719.719,0,0,1,.13.127l.969,1.276a.146.146,0,0,1,.042.108m-.825,4.167v-.856a1.694,1.694,0,0,0-.292-1.048,1.116,1.116,0,0,0-1.69,0,1.694,1.694,0,0,0-.293,1.048v.856a1.694,1.694,0,0,0,.3,1.05,1.112,1.112,0,0,0,1.685,0,1.687,1.687,0,0,0,.295-1.05m-.533,4.535a.2.2,0,0,1-.07.154.235.235,0,0,1-.153.058h-.763a.234.234,0,0,1-.152-.058.2.2,0,0,1-.07-.154v-.932a.2.2,0,0,1,.07-.148.224.224,0,0,1,.152-.066h.763a.225.225,0,0,1,.153.066.2.2,0,0,1,.07.148Z" fill="#03566e"/><path d="M308.014,1555.781a.207.207,0,0,1-.213.212h-1.026a.237.237,0,0,1-.154-.058.2.2,0,0,1-.07-.154v-.932a.2.2,0,0,1,.07-.148.227.227,0,0,1,.154-.066H307.8a.205.205,0,0,1,.15.063.208.208,0,0,1,.063.151Zm-.032,6.774a.224.224,0,0,1-.06.158.2.2,0,0,1-.153.064H306.8a.191.191,0,0,1-.153-.069.23.23,0,0,1-.059-.153V1557a.207.207,0,0,1,.212-.213h.974a.211.211,0,0,1,.156.058.207.207,0,0,1,.057.155Z" fill="#03566e"/><path d="M313.428,1561.6a1.529,1.529,0,0,0,.968-.236.883.883,0,0,0,.286-.723.783.783,0,0,0-.178-.518,2.872,2.872,0,0,0-.7-.518l-1.4-.84a3.481,3.481,0,0,1-.758-.593,1.736,1.736,0,0,1-.387-.635,2.239,2.239,0,0,1-.11-.716,1.861,1.861,0,0,1,.614-1.476,2.942,2.942,0,0,1,1.967-.54,4.1,4.1,0,0,1,1.037.131,3.4,3.4,0,0,1,.787.284.82.82,0,0,1,.177.128.216.216,0,0,1,.057.157v.721q0,.258-.264.161a5.46,5.46,0,0,0-.826-.213,5.125,5.125,0,0,0-.958-.1q-1.113,0-1.114.742a.591.591,0,0,0,.174.434,3.778,3.778,0,0,0,.692.488l1.275.756a3.977,3.977,0,0,1,.873.667,2,2,0,0,1,.439.684,2.4,2.4,0,0,1,.124.8,2.26,2.26,0,0,1-.268,1.086,1.985,1.985,0,0,1-.878.817,3.466,3.466,0,0,1-1.586.315,4.464,4.464,0,0,1-1.2-.15,3.417,3.417,0,0,1-.753-.275.915.915,0,0,1-.2-.136.214.214,0,0,1-.043-.148v-.72c0-.163.089-.217.269-.162a6.151,6.151,0,0,0,1.876.332" fill="#03566e"/><path d="M321.89,1560.217a3.08,3.08,0,0,1-.293,1.363,2.16,2.16,0,0,1-.862.944,3,3,0,0,1-2.763,0,2.151,2.151,0,0,1-.866-.944,3.121,3.121,0,0,1-.289-1.363v-.855a3.124,3.124,0,0,1,.289-1.363,2.15,2.15,0,0,1,.866-.944,3,3,0,0,1,2.763,0,2.159,2.159,0,0,1,.862.944,3.084,3.084,0,0,1,.293,1.363Zm-1.4,0v-.855a1.7,1.7,0,0,0-.293-1.05,1.119,1.119,0,0,0-1.689,0,1.7,1.7,0,0,0-.293,1.05v.855a1.687,1.687,0,0,0,.295,1.05,1.11,1.11,0,0,0,1.685,0,1.694,1.694,0,0,0,.295-1.05" fill="#03566e"/><path d="M324.118,1555.781a.205.205,0,0,1-.212.212h-1.027a.233.233,0,0,1-.153-.058.2.2,0,0,1-.07-.154v-.932a.194.194,0,0,1,.07-.148.222.222,0,0,1,.153-.066h1.027a.209.209,0,0,1,.15.063.211.211,0,0,1,.062.151Zm-.032,6.774a.224.224,0,0,1-.06.158.2.2,0,0,1-.152.064H322.9a.194.194,0,0,1-.154-.069.235.235,0,0,1-.059-.153V1557a.207.207,0,0,1,.213-.213h.974a.215.215,0,0,1,.156.058.21.21,0,0,1,.056.155Z" fill="#03566e"/><path d="M334.045,1562.658a.105.105,0,0,1-.118.12H332.74a.254.254,0,0,1-.182-.083l-.394-.416a3.435,3.435,0,0,1-2.015.581,3.734,3.734,0,0,1-2.028-.5,1.694,1.694,0,0,1-.787-1.537v-.1a1.792,1.792,0,0,1,.168-.789,2.128,2.128,0,0,1,.48-.635,5.3,5.3,0,0,1,.808-.593l-.078-.088a7.578,7.578,0,0,1-.655-.858,2.413,2.413,0,0,1-.283-.588,1.931,1.931,0,0,1-.067-.518v-.093a1.594,1.594,0,0,1,.272-.928,1.73,1.73,0,0,1,.819-.609,3.629,3.629,0,0,1,1.329-.216,3.288,3.288,0,0,1,.948.126,2.155,2.155,0,0,1,.716.349,1.535,1.535,0,0,1,.456.549,1.607,1.607,0,0,1,.161.729v.093a1.751,1.751,0,0,1-.419,1.174,4.91,4.91,0,0,1-1.152.94l-.253.162,1.591,1.694a3.755,3.755,0,0,0,.275-1.519v-.123a.231.231,0,0,1,.046-.156.163.163,0,0,1,.134-.058h.778a.173.173,0,0,1,.14.062.228.228,0,0,1,.052.152v.123a4.147,4.147,0,0,1-.637,2.348l1.036,1.1a.126.126,0,0,1,.046.1m-2.611-1.155-1.862-1.975a1.865,1.865,0,0,0-.621.538,1.21,1.21,0,0,0-.161.655v.1a.844.844,0,0,0,.379.747,1.736,1.736,0,0,0,.98.253,2.434,2.434,0,0,0,1.285-.321m-.291-4.851v-.093a.717.717,0,0,0-.114-.413.7.7,0,0,0-.345-.256,1.555,1.555,0,0,0-.557-.088,1.6,1.6,0,0,0-.855.2.627.627,0,0,0-.311.561v.093a1.48,1.48,0,0,0,.042.372,1.377,1.377,0,0,0,.21.4,4.49,4.49,0,0,0,.489.565l.094.1.321-.192a3.478,3.478,0,0,0,.814-.614.94.94,0,0,0,.212-.63" fill="#03566e"/><path d="M339.884,1562.86a3.566,3.566,0,0,1-1.026-.15,2.609,2.609,0,0,1-.943-.515,2.554,2.554,0,0,1-.7-1,4.125,4.125,0,0,1-.264-1.575v-1.56a3.882,3.882,0,0,1,.432-1.991,2.319,2.319,0,0,1,1.081-.99,3.692,3.692,0,0,1,1.42-.269,3.607,3.607,0,0,1,.77.081,4.566,4.566,0,0,1,.641.184,2.064,2.064,0,0,1,.335.15q.234.129.234.285v.721q0,.259-.264.16a4.666,4.666,0,0,0-.479-.144c-.2-.052-.4-.093-.589-.126a3.64,3.64,0,0,0-.554-.046,1.789,1.789,0,0,0-.867.186,1.163,1.163,0,0,0-.5.623,3.325,3.325,0,0,0-.169,1.176v1.56a3.265,3.265,0,0,0,.169,1.158,1.183,1.183,0,0,0,.508.633,1.722,1.722,0,0,0,.863.2,3.933,3.933,0,0,0,.849-.1,6.1,6.1,0,0,0,.773-.222c.176-.067.264-.013.264.159v.721c0,.1-.078.2-.234.29a3.47,3.47,0,0,1-.7.267,3.7,3.7,0,0,1-1.042.142" fill="#03566e"/><path d="M347.512,1562.555a.22.22,0,0,1-.066.153.193.193,0,0,1-.147.069h-.979a.186.186,0,0,1-.148-.069.235.235,0,0,1-.059-.153v-3.493a2.713,2.713,0,0,0-.071-.723.519.519,0,0,0-.255-.334,1.194,1.194,0,0,0-.546-.1,2.723,2.723,0,0,0-1.233.361v4.287a.224.224,0,0,1-.06.158.2.2,0,0,1-.152.064h-.975a.191.191,0,0,1-.153-.069.23.23,0,0,1-.059-.153v-7.645a.206.206,0,0,1,.062-.145.2.2,0,0,1,.15-.067h.975a.212.212,0,0,1,.212.212v2.2a3.045,3.045,0,0,1,1.6-.389q1.9,0,1.9,2.343Z" fill="#03566e"/><path d="M350.569,1557.886a5.538,5.538,0,0,0-1.694.274c-.15.041-.223-.015-.223-.171v-.648a.25.25,0,0,1,.048-.16.41.41,0,0,1,.175-.114,4.513,4.513,0,0,1,.8-.245,4.969,4.969,0,0,1,1.049-.1,2.781,2.781,0,0,1,1.17.224,1.61,1.61,0,0,1,.745.684,2.232,2.232,0,0,1,.262,1.119v3.617a.4.4,0,0,1-.025.162.2.2,0,0,1-.126.072,8.046,8.046,0,0,1-.912.2,7.307,7.307,0,0,1-1.082.067,4.713,4.713,0,0,1-1.423-.18,1.525,1.525,0,0,1-.817-.573,1.82,1.82,0,0,1-.264-1.029v-.052a2.191,2.191,0,0,1,.132-.8,1.3,1.3,0,0,1,.428-.56,1.986,1.986,0,0,1,.769-.34,5.317,5.317,0,0,1,1.175-.112h.745v-.466a.846.846,0,0,0-.219-.678,1.13,1.13,0,0,0-.718-.181m2.125-1.835c0,.047-.034.072-.1.072h-.881a.27.27,0,0,1-.1-.016.206.206,0,0,1-.075-.052l-.073-.072-.751-.86-.756.86a.946.946,0,0,1-.12.112.249.249,0,0,1-.134.028h-.882c-.062,0-.093-.025-.093-.072a.147.147,0,0,1,.041-.109l.974-1.276a.8.8,0,0,1,.138-.129.285.285,0,0,1,.142-.026h1.379a.274.274,0,0,1,.145.029.667.667,0,0,1,.13.126l.969,1.276a.144.144,0,0,1,.042.109m-1.188,5.664v-1.57h-.745a2.171,2.171,0,0,0-.713.086.494.494,0,0,0-.307.263,1.36,1.36,0,0,0-.074.5v.062a.878.878,0,0,0,.1.458.524.524,0,0,0,.323.223,2.607,2.607,0,0,0,.675.065,2.641,2.641,0,0,0,.745-.088m1.035-8.748a2.034,2.034,0,0,0-.506.134.242.242,0,0,1-.23,0c-.057-.037-.086-.076-.086-.113v-.322a.193.193,0,0,1,.037-.1.583.583,0,0,1,.227-.142,1.717,1.717,0,0,1,.4-.12,3.013,3.013,0,0,1,.539-.02,1,1,0,0,1,.58.2.742.742,0,0,1,.254.632v.025a.918.918,0,0,1-.062.335,1.628,1.628,0,0,1-.28.423l-.29.336a.63.63,0,0,1-.073.088c-.034.039-.06.072-.077.1a.317.317,0,0,0-.042.091.381.381,0,0,0-.016.1v.182q0,.036-.06.09a.23.23,0,0,1-.162.054h-.4a.234.234,0,0,1-.165-.051.141.141,0,0,1-.052-.093v-.182a.974.974,0,0,1,.057-.365,1.282,1.282,0,0,1,.228-.34l.3-.347a.879.879,0,0,0,.134-.231.3.3,0,0,0,.026-.222.209.209,0,0,0-.09-.12.411.411,0,0,0-.2-.028" fill="#03566e"/><path d="M358.736,1562.555a.223.223,0,0,1-.065.153.2.2,0,0,1-.147.069h-.98a.186.186,0,0,1-.148-.069.23.23,0,0,1-.059-.153v-3.505a1.855,1.855,0,0,0-.1-.666.655.655,0,0,0-.329-.364,1.455,1.455,0,0,0-.635-.113,5.181,5.181,0,0,0-1.042.113v4.535a.223.223,0,0,1-.059.158.2.2,0,0,1-.154.064h-.973a.188.188,0,0,1-.153-.069.231.231,0,0,1-.06-.153v-5.307q0-.156.213-.213a8.812,8.812,0,0,1,1.136-.23,8.034,8.034,0,0,1,1.133-.086,2.607,2.607,0,0,1,1.835.551,2.339,2.339,0,0,1,.586,1.771Z" fill="#03566e"/><path d="M367.948,1559.616a3.965,3.965,0,0,1-.223,1.391,2.687,2.687,0,0,1-.648,1.017,2.75,2.75,0,0,1-1.043.624,4.386,4.386,0,0,1-1.418.212q-.279,0-.6-.013t-.609-.031c-.193-.012-.368-.026-.524-.038s-.277-.028-.356-.042a.379.379,0,0,1-.205-.1.328.328,0,0,1-.07-.233v-3.09h-.617a.19.19,0,0,1-.144-.057.192.192,0,0,1-.058-.144v-.794a.18.18,0,0,1,.058-.14.207.207,0,0,1,.144-.052h.617v-2.866a.319.319,0,0,1,.07-.231.392.392,0,0,1,.205-.095c.079-.013.2-.028.356-.044s.331-.029.524-.042.4-.021.609-.03.414-.014.6-.014a4.355,4.355,0,0,1,1.418.213,2.751,2.751,0,0,1,1.043.625,2.667,2.667,0,0,1,.648,1.018,3.994,3.994,0,0,1,.223,1.394Zm-1.461-1.56a2.9,2.9,0,0,0-.143-.985,1.508,1.508,0,0,0-.394-.616,1.359,1.359,0,0,0-.593-.316,2.942,2.942,0,0,0-.741-.089q-.3,0-.51.011c-.144.006-.272.013-.381.02v2.047h.757a.213.213,0,0,1,.145.052.182.182,0,0,1,.056.14v.794a.193.193,0,0,1-.2.2h-.757v2.276c.109.007.237.014.381.021s.313.01.51.01a2.9,2.9,0,0,0,.741-.091,1.424,1.424,0,0,0,.593-.316,1.5,1.5,0,0,0,.394-.614,2.9,2.9,0,0,0,.143-.985Z" fill="#03566e"/><path d="M373.694,1560.217a3.081,3.081,0,0,1-.293,1.363,2.16,2.16,0,0,1-.862.944,3,3,0,0,1-2.763,0,2.157,2.157,0,0,1-.866-.944,3.122,3.122,0,0,1-.29-1.363v-.855a3.125,3.125,0,0,1,.29-1.363,2.156,2.156,0,0,1,.866-.944,3,3,0,0,1,2.763,0,2.159,2.159,0,0,1,.862.944,3.084,3.084,0,0,1,.293,1.363Zm-1.4,0v-.855a1.7,1.7,0,0,0-.293-1.05,1.119,1.119,0,0,0-1.689,0,1.7,1.7,0,0,0-.294,1.05v.855a1.687,1.687,0,0,0,.3,1.05,1.109,1.109,0,0,0,1.684,0,1.681,1.681,0,0,0,.3-1.05" fill="#03566e"/><path d="M376.592,1557.886a5.548,5.548,0,0,0-1.694.274c-.15.041-.224-.016-.224-.17v-.649a.257.257,0,0,1,.048-.161.463.463,0,0,1,.176-.114,4.414,4.414,0,0,1,.8-.244,4.964,4.964,0,0,1,1.049-.1,2.784,2.784,0,0,1,1.17.223,1.622,1.622,0,0,1,.746.684,2.243,2.243,0,0,1,.261,1.12v3.617a.37.37,0,0,1-.025.16.2.2,0,0,1-.126.074,8.083,8.083,0,0,1-.912.2,7.177,7.177,0,0,1-1.082.067,4.641,4.641,0,0,1-1.423-.181,1.514,1.514,0,0,1-.817-.573,1.813,1.813,0,0,1-.263-1.028v-.052a2.2,2.2,0,0,1,.131-.8,1.3,1.3,0,0,1,.428-.56,2,2,0,0,1,.77-.34,5.307,5.307,0,0,1,1.174-.111h.746v-.466a.849.849,0,0,0-.221-.68,1.138,1.138,0,0,0-.717-.18m.938,3.829v-1.57h-.746a2.2,2.2,0,0,0-.713.085.5.5,0,0,0-.307.264,1.362,1.362,0,0,0-.074.5v.062a.879.879,0,0,0,.1.457.518.518,0,0,0,.323.223,2.6,2.6,0,0,0,.675.066,2.649,2.649,0,0,0,.746-.089m.933-7.132a.121.121,0,0,1-.042.083l-1.25,1.316a.872.872,0,0,1-.115.108.255.255,0,0,1-.143.033H376c-.063,0-.094-.024-.094-.073a.146.146,0,0,1,.042-.108l1.011-1.276a.62.62,0,0,1,.127-.127.3.3,0,0,1,.148-.027h1.113c.077,0,.115.023.115.071" fill="#03566e"/><path d="M384.759,1562.555a.228.228,0,0,1-.065.153.2.2,0,0,1-.147.069h-.98a.185.185,0,0,1-.148-.069.23.23,0,0,1-.059-.153v-3.505a1.855,1.855,0,0,0-.1-.666.655.655,0,0,0-.329-.364,1.455,1.455,0,0,0-.635-.113,5.181,5.181,0,0,0-1.042.113v4.535a.228.228,0,0,1-.059.158.2.2,0,0,1-.154.064h-.973a.188.188,0,0,1-.153-.069.232.232,0,0,1-.06-.153v-5.307q0-.156.213-.213a8.811,8.811,0,0,1,1.136-.23,8.034,8.034,0,0,1,1.133-.086,2.608,2.608,0,0,1,1.835.551,2.339,2.339,0,0,1,.586,1.771Z" fill="#03566e"/><path d="M393.728,1560.57a2.164,2.164,0,0,1-.383,1.327,2.128,2.128,0,0,1-1.1.739,5.862,5.862,0,0,1-1.738.225,10.713,10.713,0,0,1-1.841-.115.709.709,0,0,1-.391-.174.561.561,0,0,1-.117-.4v-6.686a.811.811,0,0,1,.047-.307.358.358,0,0,1,.151-.175.811.811,0,0,1,.279-.094q.266-.042.738-.073c.317-.019.661-.031,1.034-.031a7.026,7.026,0,0,1,1.355.116,3.139,3.139,0,0,1,1.015.365,1.78,1.78,0,0,1,.666.671,2.03,2.03,0,0,1,.235,1.005v.212a2.022,2.022,0,0,1-.111.668,1.64,1.64,0,0,1-.332.558,1.531,1.531,0,0,1-.531.376,1.611,1.611,0,0,1,.756.614,1.788,1.788,0,0,1,.27,1Zm-1.482-3.375v-.15a.94.94,0,0,0-.176-.6,1.053,1.053,0,0,0-.581-.322,4.622,4.622,0,0,0-1.084-.1c-.141,0-.4.009-.772.026v2.15h1.349a1.4,1.4,0,0,0,.974-.274.963.963,0,0,0,.29-.732m.041,3.354v-.14a1.117,1.117,0,0,0-.306-.809,1.348,1.348,0,0,0-1-.315h-1.349v2.337c.09,0,.24,0,.451.01s.351.011.421.011a2.686,2.686,0,0,0,1.385-.259.923.923,0,0,0,.4-.835" fill="#03566e"/><path d="M397.058,1562.86a3.373,3.373,0,0,1-1.279-.246,2.225,2.225,0,0,1-1.019-.842,2.738,2.738,0,0,1-.407-1.575v-.784a3.23,3.23,0,0,1,.3-1.429,2.065,2.065,0,0,1,.873-.94,2.741,2.741,0,0,1,1.373-.325,2.618,2.618,0,0,1,1.371.342,2.185,2.185,0,0,1,.865.948,3.186,3.186,0,0,1,.293,1.4v.593c0,.178-.07.269-.211.269h-3.464v.03a1.5,1.5,0,0,0,.3.975,1.372,1.372,0,0,0,1.114.373,5.656,5.656,0,0,0,.964-.09,7.373,7.373,0,0,0,.85-.195c.148-.045.222.011.222.165v.628a.226.226,0,0,1-.054.161.6.6,0,0,1-.168.113,3.822,3.822,0,0,1-.85.3,4.574,4.574,0,0,1-1.074.126m1.8-6.81c0,.049-.033.073-.1.073h-.881a.291.291,0,0,1-.1-.015.2.2,0,0,1-.074-.052l-.074-.074-.751-.86-.758.86a.889.889,0,0,1-.118.112.257.257,0,0,1-.135.029H395c-.062,0-.094-.024-.094-.073a.15.15,0,0,1,.042-.108l.975-1.276a.746.746,0,0,1,.137-.129.285.285,0,0,1,.142-.026h1.379a.289.289,0,0,1,.145.028.719.719,0,0,1,.13.127l.969,1.276a.149.149,0,0,1,.041.108m-.844,3.223v-.04a1.408,1.408,0,0,0-.3-.975,1.053,1.053,0,0,0-.819-.332,1.2,1.2,0,0,0-.589.143.98.98,0,0,0-.4.434,1.633,1.633,0,0,0-.145.73v.04Zm-.607,5.479a.2.2,0,0,1-.07.154.233.233,0,0,1-.153.058h-.762a.235.235,0,0,1-.153-.058.191.191,0,0,1-.069-.154v-.932a.194.194,0,0,1,.069-.148.225.225,0,0,1,.153-.066h.762a.223.223,0,0,1,.153.066.2.2,0,0,1,.07.148Z" fill="#03566e"/><path d="M405.1,1562.555a.223.223,0,0,1-.065.153.2.2,0,0,1-.147.069h-.98a.186.186,0,0,1-.148-.069.235.235,0,0,1-.059-.153v-3.505a1.855,1.855,0,0,0-.1-.666.655.655,0,0,0-.329-.364,1.455,1.455,0,0,0-.635-.113,5.2,5.2,0,0,0-1.042.113v4.535a.223.223,0,0,1-.059.158.2.2,0,0,1-.153.064h-.973a.189.189,0,0,1-.154-.069.231.231,0,0,1-.06-.153v-5.307c0-.1.071-.175.214-.213a8.8,8.8,0,0,1,1.135-.23,8.048,8.048,0,0,1,1.134-.086,2.6,2.6,0,0,1,1.834.551,2.338,2.338,0,0,1,.586,1.771Z" fill="#03566e"/><path d="M410.927,1562.555a.225.225,0,0,1-.066.153.2.2,0,0,1-.147.069h-.98a.188.188,0,0,1-.148-.069.234.234,0,0,1-.058-.153v-3.493a2.663,2.663,0,0,0-.072-.723.516.516,0,0,0-.255-.334,1.181,1.181,0,0,0-.545-.1,2.734,2.734,0,0,0-1.234.361v4.287a.223.223,0,0,1-.059.158.2.2,0,0,1-.153.064h-.973a.19.19,0,0,1-.154-.069.237.237,0,0,1-.06-.153v-7.645a.215.215,0,0,1,.062-.145.2.2,0,0,1,.152-.067h.973a.2.2,0,0,1,.151.062.207.207,0,0,1,.061.15v2.2a3.051,3.051,0,0,1,1.6-.389q1.9,0,1.9,2.343Z" fill="#03566e"/><path d="M418.791,1562.493a.227.227,0,0,1-.046.156.32.32,0,0,1-.165.067,6.052,6.052,0,0,1-.833.1c-.4.03-.72.044-.971.044a4.155,4.155,0,0,1-1.294-.178,1.587,1.587,0,0,1-.848-.658,2.457,2.457,0,0,1-.31-1.336V1555.1a.229.229,0,0,1,.212-.213h1.052a.231.231,0,0,1,.213.213v5.586a1.082,1.082,0,0,0,.179.717.851.851,0,0,0,.645.2h1.955a.209.209,0,0,1,.154.058.207.207,0,0,1,.057.155Z" fill="#03566e"/><path d="M424.358,1556.972a.121.121,0,0,1-.015.064l-1.773,6.2a3.674,3.674,0,0,1-.406.975,1.345,1.345,0,0,1-.639.522,2.939,2.939,0,0,1-1.117.172,4.956,4.956,0,0,1-.6-.04,3.727,3.727,0,0,1-.525-.1c-.148-.038-.224-.1-.224-.182v-.679a.173.173,0,0,1,.063-.134.211.211,0,0,1,.15-.058h.021c.092,0,.29.016.593.036s.5.032.6.032a1.166,1.166,0,0,0,.392-.057.558.558,0,0,0,.264-.2,1.386,1.386,0,0,0,.183-.423l.083-.315h-.154a1.061,1.061,0,0,1-.348-.058.711.711,0,0,1-.319-.25,1.747,1.747,0,0,1-.262-.573l-1.389-4.861a.24.24,0,0,1-.01-.074c0-.113.068-.17.2-.17h1.073a.182.182,0,0,1,.13.057.262.262,0,0,1,.072.135l1.072,4.317c.036.155.084.232.146.232h.1l1.144-4.561a.2.2,0,0,1,.214-.18h1.083a.2.2,0,0,1,.133.054.167.167,0,0,1,.059.126m-.83-2.389a.118.118,0,0,1-.04.083l-1.25,1.316a.813.813,0,0,1-.118.108.25.25,0,0,1-.142.033h-.911c-.063,0-.094-.024-.094-.073a.146.146,0,0,1,.042-.108l1.01-1.276a.6.6,0,0,1,.128-.127.3.3,0,0,1,.147-.027h1.114c.077,0,.114.023.114.071" fill="#03566e"/><path d="M432.559,1555.931a.165.165,0,0,1-.062.142.235.235,0,0,1-.149.05h-1.856v6.442a.2.2,0,0,1-.063.153.209.209,0,0,1-.151.06h-1.051a.212.212,0,0,1-.145-.062.2.2,0,0,1-.068-.151v-6.442h-1.855a.23.23,0,0,1-.15-.052.17.17,0,0,1-.063-.14v-.839a.193.193,0,0,1,.06-.143.206.206,0,0,1,.153-.06h5.189a.216.216,0,0,1,.151.055.19.19,0,0,1,.06.148Z" fill="#03566e"/><path d="M434.212,1555.781a.2.2,0,0,1-.061.154.213.213,0,0,1-.151.058h-1.026a.235.235,0,0,1-.153-.058.2.2,0,0,1-.07-.154v-.932a.194.194,0,0,1,.07-.148.224.224,0,0,1,.153-.066H434a.209.209,0,0,1,.151.063.2.2,0,0,1,.061.151Zm-.031,6.774a.224.224,0,0,1-.06.158.2.2,0,0,1-.151.064h-.975a.193.193,0,0,1-.154-.069.23.23,0,0,1-.059-.153V1557a.207.207,0,0,1,.213-.213h.975a.214.214,0,0,1,.155.058.21.21,0,0,1,.056.155Z" fill="#03566e"/><path d="M437.683,1562.861a3.375,3.375,0,0,1-1.28-.247,2.22,2.22,0,0,1-1.019-.842,2.747,2.747,0,0,1-.407-1.576v-.782a3.273,3.273,0,0,1,.3-1.431,2.1,2.1,0,0,1,.874-.94,2.754,2.754,0,0,1,1.373-.324,2.629,2.629,0,0,1,1.371.342,2.194,2.194,0,0,1,.866.948,3.2,3.2,0,0,1,.292,1.4v.591c0,.18-.07.27-.211.27h-3.464v.03a1.5,1.5,0,0,0,.3.975,1.372,1.372,0,0,0,1.114.373,5.565,5.565,0,0,0,.964-.091,7.172,7.172,0,0,0,.85-.193c.148-.046.223.009.223.165v.627a.223.223,0,0,1-.055.161.631.631,0,0,1-.168.114,3.934,3.934,0,0,1-.85.3,4.516,4.516,0,0,1-1.073.127m1.8-6.811c0,.048-.033.073-.1.073h-.88a.268.268,0,0,1-.1-.016.2.2,0,0,1-.075-.052l-.073-.072-.751-.86-.757.86a.941.941,0,0,1-.119.112.255.255,0,0,1-.136.028h-.88c-.062,0-.094-.025-.094-.073a.148.148,0,0,1,.042-.108l.975-1.276a.66.66,0,0,1,.137-.128.277.277,0,0,1,.143-.027H438.2a.284.284,0,0,1,.145.029.616.616,0,0,1,.13.126l.97,1.276a.147.147,0,0,1,.04.108m-.844,3.224v-.041a1.4,1.4,0,0,0-.3-.974,1.044,1.044,0,0,0-.818-.332,1.2,1.2,0,0,0-.589.142.994.994,0,0,0-.4.433,1.638,1.638,0,0,0-.145.731v.041Z" fill="#03566e"/><path d="M440.818,1557.015a.237.237,0,0,1,.06-.154.194.194,0,0,1,.153-.069h.974a.2.2,0,0,1,.154.065.222.222,0,0,1,.058.158v3.5a2.27,2.27,0,0,0,.052.523.83.83,0,0,0,.173.353.713.713,0,0,0,.326.2,1.713,1.713,0,0,0,.513.064,4.667,4.667,0,0,0,1.042-.119v-4.529a.231.231,0,0,1,.059-.154.185.185,0,0,1,.148-.069h.978a.2.2,0,0,1,.148.069.225.225,0,0,1,.066.154v5.307c0,.1-.073.175-.214.212a9.052,9.052,0,0,1-1.157.236,8.351,8.351,0,0,1-1.112.08,3.821,3.821,0,0,1-1.08-.132,1.834,1.834,0,0,1-.747-.417,1.7,1.7,0,0,1-.448-.721,3.334,3.334,0,0,1-.146-1.052Z" fill="#03566e"/><path d="M455.085,1562.565a.2.2,0,0,1-.064.153.2.2,0,0,1-.149.059H453.82a.213.213,0,0,1-.146-.061.2.2,0,0,1-.068-.151v-3.249H450.6v3.249a.2.2,0,0,1-.067.151.213.213,0,0,1-.146.061h-1.052a.211.211,0,0,1-.145-.061.2.2,0,0,1-.067-.151v-7.473a.187.187,0,0,1,.064-.143.212.212,0,0,1,.148-.06h1.052a.209.209,0,0,1,.148.06.188.188,0,0,1,.065.143v2.929h3.01v-2.929a.189.189,0,0,1,.066-.143.213.213,0,0,1,.148-.06h1.052a.222.222,0,0,1,.153.055.194.194,0,0,1,.06.148Z" fill="#03566e"/><path d="M461.007,1560.217a3.08,3.08,0,0,1-.293,1.363,2.165,2.165,0,0,1-.863.943,3,3,0,0,1-2.762,0,2.133,2.133,0,0,1-.867-.943,3.135,3.135,0,0,1-.289-1.363v-.854a3.137,3.137,0,0,1,.289-1.364,2.138,2.138,0,0,1,.867-.943,3,3,0,0,1,2.762,0,2.17,2.17,0,0,1,.863.943,3.082,3.082,0,0,1,.293,1.364Zm-1.4,0v-.854a1.7,1.7,0,0,0-.293-1.05,1.115,1.115,0,0,0-1.689,0,1.69,1.69,0,0,0-.294,1.05v.854a1.686,1.686,0,0,0,.3,1.05,1.111,1.111,0,0,0,1.684,0,1.686,1.686,0,0,0,.3-1.05m.5-5.634a.121.121,0,0,1-.042.083l-1.249,1.316a.814.814,0,0,1-.116.108.254.254,0,0,1-.142.033h-.914c-.061,0-.092-.024-.092-.073a.149.149,0,0,1,.04-.108l1.012-1.276a.649.649,0,0,1,.126-.127.31.31,0,0,1,.149-.027h1.114c.075,0,.114.023.114.071" fill="#03566e"/><path d="M463.9,1557.885a5.517,5.517,0,0,0-1.694.275c-.15.041-.223-.015-.223-.171v-.648a.245.245,0,0,1,.049-.161.417.417,0,0,1,.174-.113,4.388,4.388,0,0,1,.805-.244,4.908,4.908,0,0,1,1.05-.1,2.792,2.792,0,0,1,1.169.222,1.614,1.614,0,0,1,.746.685,2.24,2.24,0,0,1,.261,1.119v3.617a.386.386,0,0,1-.025.162.2.2,0,0,1-.126.072,8.02,8.02,0,0,1-.912.2,7.283,7.283,0,0,1-1.082.068,4.675,4.675,0,0,1-1.423-.181,1.529,1.529,0,0,1-.817-.573,1.816,1.816,0,0,1-.263-1.028v-.052a2.19,2.19,0,0,1,.131-.8,1.279,1.279,0,0,1,.428-.559,1.956,1.956,0,0,1,.77-.34,5.186,5.186,0,0,1,1.174-.112h.746v-.467a.85.85,0,0,0-.22-.679,1.137,1.137,0,0,0-.718-.181m.938,3.83v-1.571H464.1a2.166,2.166,0,0,0-.713.087.491.491,0,0,0-.307.263,1.379,1.379,0,0,0-.074.5v.062a.88.88,0,0,0,.1.458.529.529,0,0,0,.323.224,3.379,3.379,0,0,0,1.421-.024" fill="#03566e"/></g></svg>