<svg height="165.887" viewBox="0 0 206.638 165.887" width="206.638" xmlns="http://www.w3.org/2000/svg"><g transform="translate(-4032.618 -348.372)"><g><path d="m4147.334 425.718a26.652 26.652 0 1 1 0-48.116 5.3 5.3 0 0 0 5.959-1.09l11.765-11.785a5.316 5.316 0 0 0 -.9-8.269 53.265 53.265 0 1 0 0 90.367 5.316 5.316 0 0 0 .9-8.27l-11.746-11.8a5.283 5.283 0 0 0 -5.978-1.072" fill="#f7b536"/><path d="m4164.382 380.5-4.85 4.906a2.78 2.78 0 0 0 -.394 3.082 26.672 26.672 0 0 1 0 26.314 2.781 2.781 0 0 0 .451 3.139l4.848 4.849a2.575 2.575 0 0 0 4.136-.433 38.608 38.608 0 0 0 0-41.349 2.581 2.581 0 0 0 -4.136-.433" fill="#00556e"/><path d="m4174.926 369.953-4.718 4.736a2.781 2.781 0 0 0 -.358 3.439 41.35 41.35 0 0 1 0 46.988 2.784 2.784 0 0 0 .358 3.515l4.718 4.737a2.593 2.593 0 0 0 3.665.126 2.549 2.549 0 0 0 .394-.465 53.282 53.282 0 0 0 0-62.719 2.593 2.593 0 0 0 -3.594-.733 2.626 2.626 0 0 0 -.465.394" fill="#00556e"/><path d="m4149.233 401.66a13.326 13.326 0 1 1 -13.326-13.326h.019a13.307 13.307 0 0 1 13.307 13.307z" fill="#f7b536"/></g><g fill="#00556e"><path d="m4032.618 472.316h7.11c7.683 0 12.632 3.787 12.632 12.357s-4.949 12.573-12.313 12.573h-7.429zm6.764 20.394c4.267 0 7.15-2.072 7.15-8.037s-2.883-7.819-7.15-7.819h-1.082v15.856z"/><path d="m4053.585 487.765c0-6.31 4.479-9.955 9.323-9.955s9.328 3.645 9.328 9.955-4.482 9.942-9.328 9.942-9.323-3.645-9.323-9.942m12.838 0c0-3.284-1.167-5.415-3.515-5.415s-3.51 2.131-3.51 5.415 1.164 5.4 3.51 5.4 3.515-2.12 3.515-5.4"/><path d="m4073.461 487.765c0-6.31 4.684-9.955 9.975-9.955a8.368 8.368 0 0 1 5.594 2.044l-2.678 3.615a3.888 3.888 0 0 0 -2.6-1.119c-2.728 0-4.482 2.131-4.482 5.415s1.826 5.4 4.289 5.4a5.784 5.784 0 0 0 3.457-1.4l2.219 3.679a9.621 9.621 0 0 1 -6.312 2.259c-5.343 0-9.464-3.645-9.464-9.942"/><path d="m4092.407 490.347v-7.666h-2.615v-4.2l2.934-.216.662-5.041h4.693v5.041h4.587v4.411h-4.587v7.6c0 2.152.984 3.014 2.477 3.014a5.811 5.811 0 0 0 1.823-.359l.891 4.082a13.617 13.617 0 0 1 -4.255.688c-4.731 0-6.61-2.961-6.61-7.358"/><path d="m4103.641 487.765c0-6.31 4.48-9.955 9.327-9.955s9.323 3.645 9.323 9.955-4.478 9.942-9.323 9.942-9.327-3.645-9.327-9.942m12.839 0c0-3.284-1.167-5.415-3.512-5.415s-3.514 2.131-3.514 5.415 1.167 5.4 3.514 5.4 3.512-2.12 3.512-5.4"/><path d="m4123.669 478.269h4.629l.407 3.316h.142c1.394-2.533 3.488-3.774 5.439-3.774a5.352 5.352 0 0 1 2.285.383l-.946 4.852a7.931 7.931 0 0 0 -2.066-.306c-1.445 0-3.2.921-4.217 3.509v11h-5.673z"/><path d="m4144.64 484.926c0-8.271 5.516-13.07 11.872-13.07a10.654 10.654 0 0 1 7.565 3.236l-3 3.617a6.344 6.344 0 0 0 -4.439-1.985c-3.449 0-6.175 3.015-6.175 8.014 0 5.124 2.407 8.1 6.086 8.1a6.656 6.656 0 0 0 4.918-2.329l3 3.537a10.4 10.4 0 0 1 -8.126 3.659c-6.377 0-11.7-4.383-11.7-12.78"/><path d="m4166.473 470.449h5.673v6.551l-.255 3.435a8.673 8.673 0 0 1 5.912-2.621c4.163 0 5.939 2.912 5.939 7.654v11.782h-5.674v-11.066c0-2.729-.74-3.583-2.379-3.583-1.425 0-2.295.657-3.543 1.844v12.8h-5.673z"/><path d="m4185.227 487.766c0-6.157 4.432-9.955 9.032-9.955 5.456 0 8.154 3.928 8.154 9.109a12.3 12.3 0 0 1 -.238 2.484h-11.451a4.609 4.609 0 0 0 4.966 4.016 8.047 8.047 0 0 0 4.141-1.242l1.875 3.39a12.553 12.553 0 0 1 -6.795 2.138c-5.454 0-9.684-3.66-9.684-9.94m12.34-2.081c0-2.086-.916-3.588-3.183-3.588-1.792 0-3.337 1.191-3.724 3.588z"/><path d="m4203.677 487.765c0-6.31 4.684-9.955 9.974-9.955a8.359 8.359 0 0 1 5.593 2.044l-2.678 3.615a3.878 3.878 0 0 0 -2.6-1.119c-2.729 0-4.482 2.131-4.482 5.415s1.826 5.4 4.291 5.4a5.775 5.775 0 0 0 3.454-1.4l2.219 3.679a9.62 9.62 0 0 1 -6.312 2.259c-5.344 0-9.463-3.645-9.463-9.942"/><path d="m4220.829 470.449h5.547v15.351h.14l6.074-7.53h6.158l-6.706 7.822 7.213 11.156h-6.145l-4.308-7.4-2.427 2.728v4.673h-5.547z"/><path d="m4039.1 504.03c0 .126-.075.188-.221.188h-2.279v7.523a.248.248 0 0 1 -.058.167.186.186 0 0 1 -.152.067h-.639a.19.19 0 0 1 -.151-.067.234.234 0 0 1 -.06-.167v-7.523h-2.277c-.157 0-.234-.062-.234-.188v-.513a.189.189 0 0 1 .072-.145.231.231 0 0 1 .162-.065h5.61a.23.23 0 0 1 .156.06.2.2 0 0 1 .065.15z"/><path d="m4046.076 511.531a.227.227 0 0 1 -.177.255 6.919 6.919 0 0 1 -.92.2 7.182 7.182 0 0 1 -1.051.069 3.244 3.244 0 0 1 -1.955-.458 1.736 1.736 0 0 1 -.6-1.467v-.1a1.9 1.9 0 0 1 .277-1.071 1.644 1.644 0 0 1 .893-.618 5.38 5.38 0 0 1 1.638-.2h.866v-.469a1.428 1.428 0 0 0 -.28-1.01 1.342 1.342 0 0 0 -.969-.28 5.145 5.145 0 0 0 -.907.069 8.657 8.657 0 0 0 -.873.22.234.234 0 0 1 -.2-.006.156.156 0 0 1 -.077-.143v-.454a.224.224 0 0 1 .164-.212 5.234 5.234 0 0 1 .8-.248 4.729 4.729 0 0 1 1.1-.128q2.274 0 2.274 2.192zm-.3-6.9c0 .052-.035.079-.108.079h-.6a.2.2 0 0 1 -.125-.031 1.371 1.371 0 0 1 -.143-.145l-.956-1.128-.968 1.128a1.059 1.059 0 0 1 -.143.144.216.216 0 0 1 -.125.032h-.61c-.069 0-.1-.027-.1-.079a.165.165 0 0 1 .047-.12l1.122-1.446a.724.724 0 0 1 .136-.143.3.3 0 0 1 .143-.028h.99a.389.389 0 0 1 .291.171l1.111 1.446a.164.164 0 0 1 .045.12m-.723 6.521v-2.267h-.866a5.3 5.3 0 0 0 -.883.059 1.381 1.381 0 0 0 -.527.2.771.771 0 0 0 -.279.344 1.51 1.51 0 0 0 -.082.534v.1a1.459 1.459 0 0 0 .127.658.774.774 0 0 0 .463.362 2.993 2.993 0 0 0 .924.114c.157 0 .306-.005.45-.016s.274-.02.39-.036a2.686 2.686 0 0 0 .283-.051m1.144-7.78c0 .053-.033.08-.1.08h-.634a.235.235 0 0 1 -.1-.017.285.285 0 0 1 -.074-.051c-.024-.023-.054-.059-.1-.108l-1.317-1.469a.14.14 0 0 1 -.045-.092c0-.053.042-.079.125-.079h.768a.382.382 0 0 1 .29.171l1.135 1.446a.156.156 0 0 1 .045.119"/><path d="m4048.856 511.741v-5.62a.253.253 0 0 1 .212-.28 13.237 13.237 0 0 1 1.312-.278 6.649 6.649 0 0 1 1.028-.086 2.5 2.5 0 0 1 .771.116 1.267 1.267 0 0 1 .573.35 4.544 4.544 0 0 1 1.936-.478 2.192 2.192 0 0 1 .977.205 1.476 1.476 0 0 1 .663.684 2.782 2.782 0 0 1 .246 1.258v4.129a.231.231 0 0 1 -.234.234h-.558a.223.223 0 0 1 -.159-.069.209.209 0 0 1 -.075-.165v-4.129a1.35 1.35 0 0 0 -.28-.967 1.049 1.049 0 0 0 -.78-.281 3.919 3.919 0 0 0 -1.365.313 3.6 3.6 0 0 1 .107.912v4.152a.247.247 0 0 1 -.059.162.2.2 0 0 1 -.153.072h-.619a.175.175 0 0 1 -.143-.069.249.249 0 0 1 -.057-.165v-4.152a2.363 2.363 0 0 0 -.1-.759.624.624 0 0 0 -.288-.368 1.146 1.146 0 0 0 -.509-.1 5.506 5.506 0 0 0 -1.425.2v5.177a.251.251 0 0 1 -.057.168.186.186 0 0 1 -.152.066h-.622a.166.166 0 0 1 -.137-.069.249.249 0 0 1 -.057-.165"/><path d="m4065.522 511.183q1.269 0 1.269-.888a.655.655 0 0 0 -.182-.468 2.719 2.719 0 0 0 -.689-.455l-1.179-.6a2.589 2.589 0 0 1 -.886-.716 1.629 1.629 0 0 1 -.3-.986 1.4 1.4 0 0 1 .313-.955 1.681 1.681 0 0 1 .81-.492 3.993 3.993 0 0 1 1.1-.142 4.339 4.339 0 0 1 .941.1 2.626 2.626 0 0 1 .693.227.735.735 0 0 1 .126.084.17.17 0 0 1 .033.122v.478a.168.168 0 0 1 -.072.152.212.212 0 0 1 -.194 0 4.234 4.234 0 0 0 -.755-.209 4.074 4.074 0 0 0 -.772-.083 2.325 2.325 0 0 0 -.875.137.55.55 0 0 0 -.326.564.732.732 0 0 0 .187.505 2.267 2.267 0 0 0 .615.43l1.156.592a3.393 3.393 0 0 1 .77.507 1.528 1.528 0 0 1 .4.535 1.6 1.6 0 0 1 .116.625 1.66 1.66 0 0 1 -.295 1.006 1.74 1.74 0 0 1 -.816.6 3.311 3.311 0 0 1 -1.183.2 4.25 4.25 0 0 1 -.995-.117 3.6 3.6 0 0 1 -.754-.253c-.109-.057-.164-.127-.164-.211v-.479a.174.174 0 0 1 .072-.153.191.191 0 0 1 .194 0 4.542 4.542 0 0 0 1.647.341"/><path d="m4075.433 509.212a3.05 3.05 0 0 1 -.67 2.077 2.8 2.8 0 0 1 -3.849 0 3.045 3.045 0 0 1 -.669-2.077v-.887a3.048 3.048 0 0 1 .669-2.082 2.8 2.8 0 0 1 3.849 0 3.053 3.053 0 0 1 .67 2.082zm-1.026 0v-.887a2.933 2.933 0 0 0 -.167-1.046 1.37 1.37 0 0 0 -.519-.668 1.557 1.557 0 0 0 -.885-.234 1.387 1.387 0 0 0 -1.18.509 2.339 2.339 0 0 0 -.386 1.439v.887q0 1.948 1.566 1.949a1.4 1.4 0 0 0 1.18-.508 2.32 2.32 0 0 0 .391-1.441"/><path d="m4082.545 511.53a.228.228 0 0 1 -.176.257 7.528 7.528 0 0 1 -.919.2 7.374 7.374 0 0 1 -1.051.067 3.247 3.247 0 0 1 -1.957-.459 1.738 1.738 0 0 1 -.594-1.466v-.1a1.908 1.908 0 0 1 .275-1.072 1.635 1.635 0 0 1 .9-.616 5.375 5.375 0 0 1 1.638-.2h.864v-.467a1.425 1.425 0 0 0 -.279-1.011 1.332 1.332 0 0 0 -.968-.281 5.254 5.254 0 0 0 -.908.07c-.252.047-.544.122-.874.219a.232.232 0 0 1 -.2 0 .152.152 0 0 1 -.075-.142v-.456a.224.224 0 0 1 .164-.21 4.834 4.834 0 0 1 .795-.248 4.6 4.6 0 0 1 1.1-.128q2.273 0 2.272 2.192zm-1.025-.382v-2.265h-.864a5.207 5.207 0 0 0 -.884.059 1.32 1.32 0 0 0 -.526.2.765.765 0 0 0 -.28.345 1.457 1.457 0 0 0 -.082.532v.1a1.44 1.44 0 0 0 .128.659.772.772 0 0 0 .461.361 3.034 3.034 0 0 0 .926.114c.156 0 .306 0 .449-.015s.275-.022.39-.036a2.553 2.553 0 0 0 .282-.053m.57-8.177a.124.124 0 0 1 -.045.09l-1.321 1.47a1.574 1.574 0 0 1 -.143.146.2.2 0 0 1 -.126.03h-.632c-.069 0-.1-.026-.1-.079a.164.164 0 0 1 .045-.119l1.144-1.448a.784.784 0 0 1 .138-.141.277.277 0 0 1 .142-.03h.769c.089 0 .131.028.131.081"/><path d="m4088.823 511.8c0 .114-.07.18-.212.2a5.025 5.025 0 0 1 -.756.058 1.828 1.828 0 0 1 -1.219-.322 1.631 1.631 0 0 1 -.365-1.24v-4.072l-1.133-.124c-.148-.011-.222-.081-.222-.211v-.319c0-.136.074-.2.222-.2h1.133v-1.144a.223.223 0 0 1 .206-.235l.61-.091h.033a.172.172 0 0 1 .129.055.2.2 0 0 1 .048.14v1.275h1.258a.227.227 0 0 1 .166.069.221.221 0 0 1 .069.164v.393a.221.221 0 0 1 -.075.166.235.235 0 0 1 -.16.067h-1.255v4.072a.935.935 0 0 0 .131.6.7.7 0 0 0 .5.132h.655c.163 0 .244.056.244.167z"/><path d="m4100.5 509.173a3.228 3.228 0 0 1 -.631 2.118 2.344 2.344 0 0 1 -1.914.764 11.446 11.446 0 0 1 -2.142-.194.353.353 0 0 1 -.2-.089.3.3 0 0 1 -.044-.184v-8.161a.249.249 0 0 1 .054-.155.192.192 0 0 1 .157-.069h.593a.222.222 0 0 1 .221.224v2.173a5.526 5.526 0 0 1 .653-.092c.237-.017.474-.028.709-.028a3.014 3.014 0 0 1 1.12.192 2.1 2.1 0 0 1 .794.549 2.354 2.354 0 0 1 .476.889 4.408 4.408 0 0 1 .155 1.23zm-1.024 0v-.837a2.552 2.552 0 0 0 -.347-1.476 1.346 1.346 0 0 0 -1.174-.484 8.43 8.43 0 0 0 -1.362.081v4.628c.57.051 1.025.075 1.362.075a1.335 1.335 0 0 0 1.176-.492 2.631 2.631 0 0 0 .345-1.495"/><path d="m4105.574 511.161a3.839 3.839 0 0 0 .759-.075 5.555 5.555 0 0 0 .73-.2c.237-.08.428-.15.573-.207a.189.189 0 0 1 .195-.008.173.173 0 0 1 .072.156v.479q0 .119-.159.21a4.583 4.583 0 0 1 -2.17.535 3.307 3.307 0 0 1 -1.325-.258 2.061 2.061 0 0 1 -.959-.884 3.249 3.249 0 0 1 -.364-1.655v-1.054a2.818 2.818 0 0 1 .68-2 2.486 2.486 0 0 1 1.912-.73 2.775 2.775 0 0 1 1.4.331 2.1 2.1 0 0 1 .869.954 3.377 3.377 0 0 1 .291 1.442v.632c0 .17-.073.256-.223.256h-3.907v.164a2.168 2.168 0 0 0 .4 1.459 1.56 1.56 0 0 0 1.227.445m1.89-6.362c0 .053-.035.079-.108.079h-.6a.192.192 0 0 1 -.124-.031 1.581 1.581 0 0 1 -.142-.145l-.959-1.127-.967 1.127a1.261 1.261 0 0 1 -.142.142.2.2 0 0 1 -.125.034h-.609c-.069 0-.1-.026-.1-.079a.164.164 0 0 1 .046-.12l1.121-1.448a.864.864 0 0 1 .137-.14.273.273 0 0 1 .144-.029h.989a.394.394 0 0 1 .292.169l1.109 1.448a.155.155 0 0 1 .046.12m-.421 3.514v-.105a2.813 2.813 0 0 0 -.168-1.054 1.118 1.118 0 0 0 -.5-.591 1.771 1.771 0 0 0 -.853-.183q-1.566 0-1.568 1.828v.108zm-1.309 5.336a.208.208 0 0 1 -.069.159.232.232 0 0 1 -.165.063h-.457a.239.239 0 0 1 -.159-.063.2.2 0 0 1 -.073-.159v-.941a.23.23 0 0 1 .073-.16.223.223 0 0 1 .159-.074h.457a.216.216 0 0 1 .165.074.237.237 0 0 1 .069.16z"/><path d="m4115.616 507.914v3.827a.214.214 0 0 1 -.075.165.227.227 0 0 1 -.158.068h-.559a.233.233 0 0 1 -.233-.233v-3.827a2.5 2.5 0 0 0 -.14-.923.9.9 0 0 0 -.439-.49 1.778 1.778 0 0 0 -.777-.146 5.826 5.826 0 0 0 -1.5.209v5.177a.225.225 0 0 1 -.07.162.22.22 0 0 1 -.162.071h-.571a.211.211 0 0 1 -.153-.068.218.218 0 0 1 -.068-.165v-5.62a.267.267 0 0 1 .21-.28 9.956 9.956 0 0 1 2.41-.364 3.334 3.334 0 0 1 1.106.161 1.578 1.578 0 0 1 .707.471 1.861 1.861 0 0 1 .365.748 4.389 4.389 0 0 1 .111 1.057"/><path d="m4123.3 511.741a.216.216 0 0 1 -.075.165.225.225 0 0 1 -.159.069h-.558a.221.221 0 0 1 -.165-.069.227.227 0 0 1 -.068-.165v-3.841a1.708 1.708 0 0 0 -.323-1.184 1.211 1.211 0 0 0 -.93-.344 4.657 4.657 0 0 0 -.792.084 3.286 3.286 0 0 0 -.815.242v5.04a.222.222 0 0 1 -.071.162.216.216 0 0 1 -.161.072h-.571a.205.205 0 0 1 -.153-.069.22.22 0 0 1 -.069-.165v-8.3a.235.235 0 0 1 .063-.168.2.2 0 0 1 .159-.066h.582a.205.205 0 0 1 .162.066.246.246 0 0 1 .059.168v2.4a4 4 0 0 1 .886-.272 4.731 4.731 0 0 1 .9-.092 2.281 2.281 0 0 1 1.1.254 1.709 1.709 0 0 1 .735.8 3.168 3.168 0 0 1 .263 1.369z"/><path d="m4135.2 511.588a.336.336 0 0 1 -.042.179.3.3 0 0 1 -.2.094q-.546.1-1.079.149c-.354.028-.71.045-1.067.045a2.861 2.861 0 0 1 -1.128-.2 2.059 2.059 0 0 1 -.792-.577 2.465 2.465 0 0 1 -.467-.909 4.3 4.3 0 0 1 -.155-1.194v-.836a4.343 4.343 0 0 1 .158-1.222 2.345 2.345 0 0 1 .473-.9 1.972 1.972 0 0 1 .794-.552 3.032 3.032 0 0 1 1.117-.188c.09 0 .19 0 .3.005s.226.01.344.021.242.02.365.036.242.036.356.057v-.855h-1.868a.223.223 0 0 1 -.166-.068.226.226 0 0 1 -.067-.165v-.392a.23.23 0 0 1 .067-.166.227.227 0 0 1 .166-.069h1.868v-.455a.224.224 0 0 1 .062-.157.209.209 0 0 1 .16-.064h.593a.2.2 0 0 1 .15.061.227.227 0 0 1 .059.16v.455h.411a.228.228 0 0 1 .166.069.234.234 0 0 1 .069.166v.392a.23.23 0 0 1 -.069.165.223.223 0 0 1 -.166.068h-.411zm-1.024-5.132c-.1-.016-.207-.029-.325-.039s-.237-.02-.362-.027-.244-.009-.361-.011h-.318a1.764 1.764 0 0 0 -.719.131 1.151 1.151 0 0 0 -.467.382 1.62 1.62 0 0 0 -.253.616 4.067 4.067 0 0 0 -.077.831v.836a4.29 4.29 0 0 0 .074.849 1.627 1.627 0 0 0 .251.624 1.117 1.117 0 0 0 .466.384 1.771 1.771 0 0 0 .725.132c.1 0 .206 0 .323-.006s.238-.01.359-.017.24-.017.359-.027l.325-.024z"/><path d="m4140.6 511.16a3.854 3.854 0 0 0 .76-.073 6.119 6.119 0 0 0 .73-.2c.237-.082.428-.152.571-.208a.2.2 0 0 1 .2-.009.18.18 0 0 1 .071.157v.478c0 .081-.052.149-.159.21a4.544 4.544 0 0 1 -2.17.537 3.292 3.292 0 0 1 -1.325-.26 2.047 2.047 0 0 1 -.959-.883 3.262 3.262 0 0 1 -.364-1.653v-1.056a2.815 2.815 0 0 1 .68-1.995 2.48 2.48 0 0 1 1.911-.733 2.753 2.753 0 0 1 1.4.334 2.087 2.087 0 0 1 .869.954 3.34 3.34 0 0 1 .291 1.44v.633c0 .171-.074.256-.222.256h-3.907v.166a2.174 2.174 0 0 0 .4 1.458 1.563 1.563 0 0 0 1.227.443m1.89-6.361c0 .052-.034.08-.107.08h-.6a.19.19 0 0 1 -.125-.033 1.256 1.256 0 0 1 -.143-.143l-.957-1.129-.967 1.129a1.215 1.215 0 0 1 -.143.141.2.2 0 0 1 -.126.035h-.609c-.067 0-.1-.028-.1-.08a.175.175 0 0 1 .045-.12l1.123-1.446a.716.716 0 0 1 .138-.143.283.283 0 0 1 .14-.028h.992a.393.393 0 0 1 .291.171l1.11 1.446a.162.162 0 0 1 .045.12m-.421 3.514v-.109a2.812 2.812 0 0 0 -.167-1.054 1.136 1.136 0 0 0 -.5-.592 1.778 1.778 0 0 0 -.854-.182q-1.566 0-1.566 1.828v.109zm.194-7.153a2.187 2.187 0 0 0 -.416.036 4.218 4.218 0 0 0 -.439.123c-.215.073-.325.016-.325-.171v-.233a.16.16 0 0 1 .056-.126.419.419 0 0 1 .11-.068 2.333 2.333 0 0 1 .416-.131 2.379 2.379 0 0 1 .547-.064 1.476 1.476 0 0 1 .826.207.716.716 0 0 1 .313.648v.058a.891.891 0 0 1 -.039.256 1.073 1.073 0 0 1 -.144.274c-.068.1-.165.22-.29.365l-.217.244c-.086.1-.138.167-.156.191a.461.461 0 0 0 -.048.1.381.381 0 0 0 -.023.145v.24a.194.194 0 0 1 -.075.147.277.277 0 0 1 -.193.069h-.21a.26.26 0 0 1 -.192-.072.211.211 0 0 1 -.071-.144v-.24a1.144 1.144 0 0 1 .032-.294.893.893 0 0 1 .108-.242 2 2 0 0 1 .209-.261l.221-.245a1.6 1.6 0 0 0 .216-.293.524.524 0 0 0 .052-.237v-.058a.237.237 0 0 0 -.268-.221"/><path d="m4155.019 511.741a.214.214 0 0 1 -.075.165.222.222 0 0 1 -.159.069h-.558a.218.218 0 0 1 -.164-.069.228.228 0 0 1 -.069-.165v-3.841a1.71 1.71 0 0 0 -.322-1.184 1.209 1.209 0 0 0 -.93-.344 4.643 4.643 0 0 0 -.792.084 3.259 3.259 0 0 0 -.815.242v5.04a.225.225 0 0 1 -.072.162.219.219 0 0 1 -.161.072h-.571a.2.2 0 0 1 -.152-.069.219.219 0 0 1 -.069-.165v-8.3a.231.231 0 0 1 .063-.168.2.2 0 0 1 .158-.066h.583a.2.2 0 0 1 .161.066.241.241 0 0 1 .06.168v2.4a3.983 3.983 0 0 1 .885-.272 4.742 4.742 0 0 1 .9-.092 2.287 2.287 0 0 1 1.1.254 1.707 1.707 0 0 1 .734.8 3.146 3.146 0 0 1 .263 1.369z"/><path d="m4162.3 511.53a.228.228 0 0 1 -.176.257 6.725 6.725 0 0 1 -1.971.267 3.251 3.251 0 0 1 -1.955-.457 1.735 1.735 0 0 1 -.6-1.468v-.1a1.9 1.9 0 0 1 .277-1.072 1.638 1.638 0 0 1 .893-.618 5.4 5.4 0 0 1 1.637-.2h.867v-.469a1.432 1.432 0 0 0 -.279-1.01 1.346 1.346 0 0 0 -.97-.281 4.928 4.928 0 0 0 -.907.072 8.532 8.532 0 0 0 -.874.218.232.232 0 0 1 -.2-.006.154.154 0 0 1 -.077-.142v-.456a.227.227 0 0 1 .166-.212 5.2 5.2 0 0 1 .795-.247 4.685 4.685 0 0 1 1.094-.126q2.274 0 2.273 2.19zm-1.024-.381v-2.267h-.867a5.263 5.263 0 0 0 -.882.059 1.361 1.361 0 0 0 -.527.2.764.764 0 0 0 -.279.346 1.419 1.419 0 0 0 -.083.531v.1a1.448 1.448 0 0 0 .128.657.757.757 0 0 0 .462.362 2.971 2.971 0 0 0 .925.114c.156 0 .306 0 .45-.014s.274-.022.391-.037a2.406 2.406 0 0 0 .282-.051m-.855 2.5a.2.2 0 0 1 -.069.159.23.23 0 0 1 -.165.063h-.456a.234.234 0 0 1 -.158-.063.2.2 0 0 1 -.075-.159v-.949a.223.223 0 0 1 .075-.16.218.218 0 0 1 .158-.074h.456a.214.214 0 0 1 .165.074.233.233 0 0 1 .069.16z"/><path d="m4169.993 507.914v3.827a.214.214 0 0 1 -.075.165.227.227 0 0 1 -.158.068h-.559a.223.223 0 0 1 -.165-.068.226.226 0 0 1 -.068-.165v-3.827a2.5 2.5 0 0 0 -.14-.923.906.906 0 0 0 -.439-.49 1.778 1.778 0 0 0 -.777-.146 5.813 5.813 0 0 0 -1.5.209v5.177a.226.226 0 0 1 -.071.162.22.22 0 0 1 -.162.071h-.57a.209.209 0 0 1 -.154-.068.219.219 0 0 1 -.069-.165v-5.62a.267.267 0 0 1 .211-.28 9.959 9.959 0 0 1 2.409-.364 3.336 3.336 0 0 1 1.107.161 1.578 1.578 0 0 1 .707.471 1.847 1.847 0 0 1 .364.748 4.336 4.336 0 0 1 .112 1.057"/><path d="m4177.677 511.741a.216.216 0 0 1 -.075.165.223.223 0 0 1 -.159.069h-.558a.215.215 0 0 1 -.164-.069.222.222 0 0 1 -.069-.165v-3.841a1.713 1.713 0 0 0 -.322-1.184 1.211 1.211 0 0 0 -.93-.344 4.667 4.667 0 0 0 -.793.084 3.278 3.278 0 0 0 -.814.242v5.04a.227.227 0 0 1 -.071.162.221.221 0 0 1 -.162.072h-.57a.2.2 0 0 1 -.153-.069.22.22 0 0 1 -.069-.165v-8.3a.235.235 0 0 1 .063-.168.2.2 0 0 1 .159-.066h.581a.2.2 0 0 1 .162.066.242.242 0 0 1 .06.168v2.4a3.975 3.975 0 0 1 .885-.272 4.722 4.722 0 0 1 .9-.092 2.278 2.278 0 0 1 1.1.254 1.706 1.706 0 0 1 .735.8 3.153 3.153 0 0 1 .263 1.369z"/><path d="m4189.757 509.2a3.117 3.117 0 0 1 -.643 2.118 2.39 2.39 0 0 1 -1.9.736 7.809 7.809 0 0 1 -1.362-.126v2.107a.211.211 0 0 1 -.064.157.216.216 0 0 1 -.157.066h-.593a.2.2 0 0 1 -.154-.063.232.232 0 0 1 -.057-.16v-8.025a.265.265 0 0 1 .051-.176.39.39 0 0 1 .194-.09c.193-.05.417-.1.669-.138s.5-.074.746-.1.488-.035.727-.035a2.657 2.657 0 0 1 1.419.351 2.138 2.138 0 0 1 .848 1 3.85 3.85 0 0 1 .278 1.533zm-1.024 0v-.842a3.527 3.527 0 0 0 -.143-1.082 1.311 1.311 0 0 0 -.481-.69 1.5 1.5 0 0 0 -.9-.244 7.871 7.871 0 0 0 -1.362.113v4.619a7.149 7.149 0 0 0 1.362.119 1.325 1.325 0 0 0 1.171-.5 2.6 2.6 0 0 0 .35-1.491"/><path d="m4197.271 511.741a.214.214 0 0 1 -.075.165.223.223 0 0 1 -.158.069h-.559a.22.22 0 0 1 -.165-.069.227.227 0 0 1 -.068-.165v-3.841a1.7 1.7 0 0 0 -.323-1.184 1.2 1.2 0 0 0 -.929-.344 4.653 4.653 0 0 0 -.792.084 3.274 3.274 0 0 0 -.815.242v5.04a.228.228 0 0 1 -.071.162.221.221 0 0 1 -.162.072h-.57a.208.208 0 0 1 -.154-.069.218.218 0 0 1 -.068-.165v-8.3a.231.231 0 0 1 .063-.168.206.206 0 0 1 .159-.066h.581a.205.205 0 0 1 .162.066.242.242 0 0 1 .06.168v2.4a4 4 0 0 1 .885-.272 4.734 4.734 0 0 1 .9-.092 2.278 2.278 0 0 1 1.1.254 1.71 1.71 0 0 1 .736.8 3.161 3.161 0 0 1 .262 1.369z"/><path d="m4200.044 509.618v-3.818a.23.23 0 0 1 .066-.165.225.225 0 0 1 .168-.069h.558a.225.225 0 0 1 .164.069.222.222 0 0 1 .069.165v3.823a1.819 1.819 0 0 0 .317 1.213 1.325 1.325 0 0 0 1.033.352 5.756 5.756 0 0 0 .723-.063 6.6 6.6 0 0 0 .786-.148v-5.177a.23.23 0 0 1 .066-.162.221.221 0 0 1 .168-.072h.569a.208.208 0 0 1 .159.069.236.236 0 0 1 .063.165v5.621a.265.265 0 0 1 -.21.279 9.924 9.924 0 0 1 -2.415.359 2.791 2.791 0 0 1 -1.367-.285 1.564 1.564 0 0 1 -.711-.816 3.74 3.74 0 0 1 -.206-1.335m4.266-6.647a.133.133 0 0 1 -.045.09l-1.321 1.47a1.483 1.483 0 0 1 -.143.146.2.2 0 0 1 -.126.03h-.632c-.069 0-.1-.026-.1-.079a.165.165 0 0 1 .045-.119l1.144-1.448a.776.776 0 0 1 .138-.141.273.273 0 0 1 .142-.03h.769c.087 0 .131.028.131.081"/><path d="m4210.035 512.055a2.767 2.767 0 0 1 -1.067-.2 2.03 2.03 0 0 1 -.791-.565 2.424 2.424 0 0 1 -.472-.884 4.139 4.139 0 0 1 -.153-1.183v-.912a3.792 3.792 0 0 1 .276-1.518 2.084 2.084 0 0 1 .838-.976 2.572 2.572 0 0 1 1.369-.343 3.349 3.349 0 0 1 .9.117 2.9 2.9 0 0 1 .626.235.475.475 0 0 1 .135.1.263.263 0 0 1 .03.145v.417c0 .164-.089.214-.266.153a4.311 4.311 0 0 0 -1.425-.268q-1.46 0-1.458 1.937v.912a2.359 2.359 0 0 0 .373 1.449 1.286 1.286 0 0 0 1.085.486 4.311 4.311 0 0 0 1.425-.268c.177-.064.266-.015.266.149v.421a.255.255 0 0 1 -.033.148.42.42 0 0 1 -.132.1 3.287 3.287 0 0 1 -.635.233 3.368 3.368 0 0 1 -.891.114"/><path d="m4223.568 511.741a.216.216 0 0 1 -.075.165.224.224 0 0 1 -.159.069h-.557a.219.219 0 0 1 -.165-.069.227.227 0 0 1 -.068-.165v-3.841a1.713 1.713 0 0 0 -.323-1.184 1.211 1.211 0 0 0 -.93-.344 4.648 4.648 0 0 0 -.792.084 3.274 3.274 0 0 0 -.815.242v5.04a.226.226 0 0 1 -.071.162.218.218 0 0 1 -.162.072h-.57a.2.2 0 0 1 -.153-.069.22.22 0 0 1 -.069-.165v-8.3a.235.235 0 0 1 .063-.168.2.2 0 0 1 .159-.066h.582a.205.205 0 0 1 .162.066.246.246 0 0 1 .059.168v2.4a3.971 3.971 0 0 1 .886-.272 4.73 4.73 0 0 1 .9-.092 2.282 2.282 0 0 1 1.1.254 1.714 1.714 0 0 1 .735.8 3.168 3.168 0 0 1 .262 1.369z"/><path d="m4231.355 509.213a3.055 3.055 0 0 1 -.669 2.076 2.8 2.8 0 0 1 -3.85 0 3.045 3.045 0 0 1 -.669-2.076v-.889a3.048 3.048 0 0 1 .669-2.081 2.8 2.8 0 0 1 3.85 0 3.058 3.058 0 0 1 .669 2.081zm-1.025 0v-.889a2.909 2.909 0 0 0 -.169-1.045 1.368 1.368 0 0 0 -.517-.669 1.573 1.573 0 0 0 -.887-.233 1.382 1.382 0 0 0 -1.178.509 2.336 2.336 0 0 0 -.388 1.438v.889c0 1.3.524 1.947 1.566 1.947a1.4 1.4 0 0 0 1.183-.507 2.316 2.316 0 0 0 .39-1.44m1.674-3.532q.182 1.961-1.419 2.164l-.068-.8c.426-.175.645-.422.662-.74v-.6c-.005-.084.061-.129.192-.137h.474a.146.146 0 0 1 .159.114"/><path d="m4238.867 507.914v3.827a.214.214 0 0 1 -.075.165.227.227 0 0 1 -.158.068h-.559a.223.223 0 0 1 -.165-.068.226.226 0 0 1 -.068-.165v-3.827a2.5 2.5 0 0 0 -.14-.923.906.906 0 0 0 -.439-.49 1.778 1.778 0 0 0 -.777-.146 5.826 5.826 0 0 0 -1.5.209v5.177a.222.222 0 0 1 -.071.162.216.216 0 0 1 -.161.071h-.571a.208.208 0 0 1 -.153-.068.219.219 0 0 1 -.069-.165v-5.62a.267.267 0 0 1 .211-.28 9.955 9.955 0 0 1 2.409-.364 3.336 3.336 0 0 1 1.107.161 1.584 1.584 0 0 1 .707.471 1.847 1.847 0 0 1 .364.748 4.336 4.336 0 0 1 .112 1.057"/></g></g></svg>