<svg height="106.535" viewBox="0 0 106.507 106.535" width="106.507" xmlns="http://www.w3.org/2000/svg"><g transform="translate(-4082.684 -348.372)"><path d="m4147.334 425.718a26.652 26.652 0 1 1 0-48.116 5.3 5.3 0 0 0 5.959-1.09l11.765-11.785a5.316 5.316 0 0 0 -.9-8.269 53.265 53.265 0 1 0 0 90.367 5.316 5.316 0 0 0 .9-8.27l-11.746-11.8a5.283 5.283 0 0 0 -5.978-1.072" fill="#f7b536"/><path d="m4164.382 380.5-4.85 4.906a2.78 2.78 0 0 0 -.394 3.082 26.672 26.672 0 0 1 0 26.314 2.781 2.781 0 0 0 .451 3.139l4.848 4.849a2.575 2.575 0 0 0 4.136-.433 38.608 38.608 0 0 0 0-41.349 2.581 2.581 0 0 0 -4.136-.433" fill="#00556e"/><path d="m4174.926 369.953-4.718 4.736a2.781 2.781 0 0 0 -.358 3.439 41.35 41.35 0 0 1 0 46.988 2.784 2.784 0 0 0 .358 3.515l4.718 4.737a2.593 2.593 0 0 0 3.665.126 2.549 2.549 0 0 0 .394-.465 53.282 53.282 0 0 0 0-62.719 2.593 2.593 0 0 0 -3.594-.733 2.626 2.626 0 0 0 -.465.394" fill="#00556e"/><path d="m4149.233 401.66a13.326 13.326 0 1 1 -13.326-13.326h.019a13.307 13.307 0 0 1 13.307 13.307z" fill="#f7b536"/></g></svg>