<svg xmlns="http://www.w3.org/2000/svg" width="60" height="60" viewBox="0 0 60 60">
  <g id="Group_1310" data-name="Group 1310" transform="translate(-6818.419 -5221.455)">
    <path id="Path_68292" data-name="Path 68292" d="M6833.936,5269.041a3.108,3.108,0,0,0,3.1-3.1v-4.563a3.841,3.841,0,0,0-1.737,2.609,5.473,5.473,0,0,1-3.017,4.015l-3.07,1.476a.8.8,0,0,0-.133,1.357,11.8,11.8,0,0,0,7.041,2.348h2.984a6.207,6.207,0,0,0,0-12.414v5.172a5.178,5.178,0,0,1-5.172,5.173H6832.9v-2.069Z" fill="#03566e"/>
    <path id="Path_68293" data-name="Path 68293" d="M6849.453,5248.827v7.411a21.337,21.337,0,0,1,5.307,4.527h.927a10.305,10.305,0,0,1,0-16.552h-4.165a6.188,6.188,0,0,1-2.069,4.614" fill="#03566e"/>
    <path id="Path_68294" data-name="Path 68294" d="M6844.281,5275.248h-12.414a3.1,3.1,0,0,0,0,6.207h12.414a3.1,3.1,0,0,0,0-6.207m-1.035,4.138H6832.9v-2.069h10.344Z" fill="#03566e"/>
    <path id="Path_68295" data-name="Path 68295" d="M6832.9,5246.467V5243.7l-2.346-1.758a4.484,4.484,0,0,1,2.346-8.057v-.8a4.74,4.74,0,0,1,2.132-3.972,4.126,4.126,0,0,1,4.07-3.512l0,2.069h0a2.065,2.065,0,0,0,0,4.13h2.647a4.081,4.081,0,0,1-.571-2.064,4.139,4.139,0,0,1,4.134-4.134v2.069a2.065,2.065,0,0,0-1.458,3.528,2.045,2.045,0,0,0,1.455.6h1.055a5.169,5.169,0,0,0-.01-10.339H6840.3a13.6,13.6,0,0,0-7.4,25.012" fill="#03566e"/>
    <path id="Path_68296" data-name="Path 68296" d="M6868.047,5260.765h6.234v-16.552h-6.234a10.305,10.305,0,0,1,0,16.552" fill="#03566e"/>
    <path id="Path_68297" data-name="Path 68297" d="M6864.558,5250.9a3.092,3.092,0,0,1-2.691,1.587c-.067,0-.13-.015-.2-.02a3.027,3.027,0,0,1-.832,3.346,3.093,3.093,0,1,0,3.719-4.913" fill="#03566e"/>
    <path id="Path_68298" data-name="Path 68298" d="M6861.867,5244.213a8.276,8.276,0,1,0,8.276,8.276,8.286,8.286,0,0,0-8.276-8.276m1.035,14.483a5.177,5.177,0,0,1-4.137-2.069h0a3.1,3.1,0,1,1,0-6.207c.067,0,.13.016.2.02a3.074,3.074,0,0,1-.2-1.054,3.1,3.1,0,0,1,6.143-.622,5.167,5.167,0,0,1-2.005,9.932" fill="#03566e"/>
    <path id="Path_68299" data-name="Path 68299" d="M6859.741,5273.179h18.678v-6.207h-20.008a21.225,21.225,0,0,1,1.33,6.207m12.471-4.138h2.069v2.069h-2.069Zm-4.138,0h2.069v2.069h-2.069Zm-4.138,0H6866v2.069h-2.069Z" fill="#03566e"/>
    <path id="Path_68300" data-name="Path 68300" d="M6852.8,5240.075l-1.279.64v1.429h24.828v20.69h-20.04a21.6,21.6,0,0,1,1.184,2.069h20.925v-24.828Z" fill="#03566e"/>
    <path id="Path_68301" data-name="Path 68301" d="M6849.147,5233.308a7.224,7.224,0,0,1-2.785.554h-.007c-2.91,0-5.981,0-7.246,0h-.009a4.037,4.037,0,0,1-3.671-2.277,2.7,2.7,0,0,0-.459,1.5v2.859h-1.724a2.414,2.414,0,0,0-1.447,4.345l3.171,2.38v12.755l-.842.157a19.268,19.268,0,0,0-15.709,18.927l.014,3.074a3.88,3.88,0,0,0,3.88,3.88h.244v-12.414h2.069v12.414h3.13a5.121,5.121,0,0,1,1.955-7.79,13.628,13.628,0,0,1-1.869-1.177,2.869,2.869,0,0,1,.476-4.879l3.071-1.477a3.4,3.4,0,0,0,1.875-2.494,5.91,5.91,0,0,1,3.775-4.574v-11.747a5.179,5.179,0,0,1,5.173-5.173h7.241v-2.708l1.885-.942a23.444,23.444,0,0,0-2.191-5.186" fill="#03566e"/>
    <path id="Path_68302" data-name="Path 68302" d="M6857.729,5277.9v-3.4a19.268,19.268,0,0,0-15.709-18.927l-.843-.157v-7.066h4.138a4.142,4.142,0,0,0,4.138-4.138h-7.241a3.108,3.108,0,0,0-3.1,3.1V5258.7a8.266,8.266,0,0,1,5.428,14.509,5.13,5.13,0,0,1,3.856,8.25h3.13v-12.414h2.069v12.414h.273a3.879,3.879,0,0,0,3.865-3.558" fill="#03566e"/>
  </g>
</svg>
