<svg viewBox="0 0 56.11 72" xmlns="http://www.w3.org/2000/svg"><g fill="#03566e"><path d="m43.93 1.25-4.14 2.25a1.89 1.89 0 0 1 -1.79 0l-6-3.27a1.84 1.84 0 0 0 -1.79 0l-6 3.27a1.89 1.89 0 0 1 -1.79 0l-6-3.27a1.84 1.84 0 0 0 -1.79 0l-6 3.27a1.89 1.89 0 0 1 -1.79 0l-4.08-2.25a1.87 1.87 0 0 0 -2.76 1.64v59.85a1.87 1.87 0 0 0 2.76 1.64l4.14-2.26a1.89 1.89 0 0 1 1.79 0l6 3.28a1.89 1.89 0 0 0 1.79 0l3.17-1.73a21.48 21.48 0 0 1 19.81-29.76 21.14 21.14 0 0 1 7.23 1.28v-32.3a1.87 1.87 0 0 0 -2.76-1.64m-31.79 45.35h-2.8a2.34 2.34 0 1 1 0-4.67h2.8a2.34 2.34 0 0 1 0 4.67m5.47-9.33h-8.27a2.34 2.34 0 1 1 0-4.67h8.27a2.34 2.34 0 0 1 0 4.67m19.29-9.34h-27.56a2.34 2.34 0 1 1 0-4.67h27.56a2.34 2.34 0 0 1 0 4.67m0-9.34h-27.56a2.34 2.34 0 1 1 0-4.67h27.56a2.34 2.34 0 0 1 0 4.67"/><path d="m39.38 38.55a16.73 16.73 0 1 0 16.73 16.73 16.73 16.73 0 0 0 -16.73-16.73m8.38 19.3a.65.65 0 0 1 -.65.65h-4.51v4.5a.64.64 0 0 1 -.64.65h-5.15a.65.65 0 0 1 -.65-.65v-4.5h-4.5a.65.65 0 0 1 -.65-.65v-5.15a.65.65 0 0 1 .65-.65h4.5v-4.5a.65.65 0 0 1 .65-.65h5.19a.64.64 0 0 1 .64.65v4.5h4.51a.65.65 0 0 1 .65.65z"/></g></svg>