<svg viewBox="0 0 73.43 72" xmlns="http://www.w3.org/2000/svg"><g fill="#03566e"><path d="m59.64 0h-45.64a5.74 5.74 0 0 0 -5.71 5.74v36.43a5.73 5.73 0 0 0 5.71 5.73h45.64a5.72 5.72 0 0 0 5.73-5.73v-36.43a5.73 5.73 0 0 0 -5.73-5.74zm0 40.73a1.43 1.43 0 0 1 -1.44 1.44h-42.74a1.43 1.43 0 0 1 -1.46-1.44v-33.56a1.43 1.43 0 0 1 1.43-1.43h42.77a1.43 1.43 0 0 1 1.44 1.43z"/><path d="m42.44 54.79h-11.22a4 4 0 0 0 -4 4v1.75h19.22v-1.76a4 4 0 0 0 -4-3.99z"/><path d="m42.71 13.73a12.56 12.56 0 0 1 -12 0l-11.05 14.06a24.13 24.13 0 0 0 34.12 0z"/><path d="m68.13 61.39h-15.06a3.66 3.66 0 0 0 -3.66 3.61v.22h-44a2.52 2.52 0 1 1 0-5h11a1.44 1.44 0 0 0 0-2.87h-11a5.39 5.39 0 0 0 0 10.78h44v.21a3.66 3.66 0 0 0 3.66 3.66h15.06a5.31 5.31 0 0 0 0-10.61zm-15.85 7v-3.39a.79.79 0 0 1 .79-.79h11.18v4.88h-11.18a.79.79 0 0 1 -.79-.75zm15.85.79h-1v-4.93h1a2.44 2.44 0 0 1 0 4.88z"/><path d="m21.6 57.77a1.42 1.42 0 0 0 0 2 1.43 1.43 0 1 0 0-2z"/><path d="m19.65 12.91h5.07a1.44 1.44 0 0 0 0-2.87h-5.07a1.44 1.44 0 0 0 0 2.87z"/><path d="m19.65 18.36a1.41 1.41 0 0 0 1-.42 1.44 1.44 0 0 0 0-2 1.42 1.42 0 0 0 -2 0 1.44 1.44 0 0 0 0 2 1.41 1.41 0 0 0 1 .42z"/><path d="m32.53 44.68h8.61v12.67h-8.61z"/></g></svg>