<svg xmlns="http://www.w3.org/2000/svg" width="58.927" height="60" viewBox="0 0 58.927 60">
  <g id="Group_1346" data-name="Group 1346" transform="translate(-6824.898 -5751.035)">
    <path id="Path_68340" data-name="Path 68340" d="M6835.776,5803.045c-2.147,0-3.885,1.4-3.885,3.126v1.868h27.965v-1.868c0-1.728-1.738-3.126-3.885-3.126Z" fill="#03566e"/>
    <path id="Path_68341" data-name="Path 68341" d="M6855.591,5791.06a11.985,11.985,0,0,1-19.915-13.253,6,6,0,0,1-3.785-3.406c-7.66,11.026.1,26.646,13.872,26.646a16.978,16.978,0,0,0,15.581-9.987Z" fill="#03566e"/>
    <path id="Path_68342" data-name="Path 68342" d="M6852.864,5788.064a1,1,0,0,0,1,1h11.985a1,1,0,1,0,0-2h-11.985a1,1,0,0,0-1,1" fill="#03566e"/>
    <path id="Path_68343" data-name="Path 68343" d="M6865.848,5811.035a1,1,0,0,0,0-2H6825.9a1,1,0,0,0,0,2Z" fill="#03566e"/>
    <path id="Path_68344" data-name="Path 68344" d="M6870.842,5751.11a12.984,12.984,0,1,0,12.983,12.984,12.984,12.984,0,0,0-12.983-12.984m2,4a1,1,0,1,1-1,1,1,1,0,0,1,1-1m-4.993,1a1,1,0,1,1-1,1,1,1,0,0,1,1-1m-5.993,5.992a1,1,0,1,1,1,1,1,1,0,0,1-1-1m2,6.992a1,1,0,1,1,1-1,1,1,0,0,1-1,1m4-3a2,2,0,1,1,2-2,2,2,0,0,1-2,2m3,7.99a1,1,0,1,1,1-1,1,1,0,0,1-1,1m2-5.992a1,1,0,1,1,1-1,1,1,0,0,1-1,1m3-4.994a2,2,0,1,1,2-2,2,2,0,0,1-2,2m3,3.995a1,1,0,1,1,1-1,1,1,0,0,1-1,1" fill="#03566e"/>
    <path id="Path_68345" data-name="Path 68345" d="M6863.711,5777.267l-3.576,7.8h2.2l3.185-6.991a15.576,15.576,0,0,1-1.807-.809" fill="#03566e"/>
    <path id="Path_68346" data-name="Path 68346" d="M6829.184,5762.286l4.874,4.874a5.9,5.9,0,0,1,3.406-1.069,5.994,5.994,0,0,1,4.924,9.4l1.628,1.588,7.061-6.992-14.822-14.861a1,1,0,0,0-1.418,0l-5.653,5.653a1,1,0,0,0,0,1.408" fill="#03566e"/>
    <path id="Path_68347" data-name="Path 68347" d="M6828.725,5759.1l4.235-4.234-3.526-3.536a1,1,0,0,0-1.418,0l-2.827,2.826a1,1,0,0,0,0,1.409Z" fill="#03566e"/>
    <path id="Path_68348" data-name="Path 68348" d="M6845.671,5778.439l7.06-7.061a1,1,0,0,1,1.413,0l1.412,1.412a1,1,0,0,1,0,1.413l-7.061,7.061a1,1,0,0,1-1.412,0l-1.412-1.412a1,1,0,0,1,0-1.413" fill="#03566e"/>
    <path id="Path_68349" data-name="Path 68349" d="M6855.741,5777.078l-4.235,4.234,2.817,2.827a1,1,0,0,0,1.418,0l2.826-2.827a1,1,0,0,0,0-1.408Z" fill="#03566e"/>
    <path id="Path_68350" data-name="Path 68350" d="M6837.464,5768.089a4,4,0,1,1-3.995,4,3.995,3.995,0,0,1,3.995-4" fill="#03566e"/>
  </g>
</svg>
