<svg clip-rule="evenodd" fill-rule="evenodd" height="512" stroke-linejoin="round" stroke-miterlimit="2" viewBox="0 0 32 32" width="512" xmlns="http://www.w3.org/2000/svg"><path d="m20.276 17.211c-1.749-.874-4.378-2.189-6-3-.62-.31-1.356-.277-1.946.088-.589.364-.948 1.008-.948 1.701v6c0 .693.359 1.337.948 1.701.59.365 1.326.398 1.946.088 1.622-.811 4.251-2.126 6-3 .678-.339 1.106-1.031 1.106-1.789s-.428-1.45-1.106-1.789zm-6.894-1.211v6s6-3 6-3z"/><path d="m31 10c0-.552-.448-1-1-1h-28c-.552 0-1 .448-1 1v16c0 .796.316 1.559.879 2.121.562.563 1.325.879 2.121.879h24c.796 0 1.559-.316 2.121-.879.563-.562.879-1.325.879-2.121 0-4.69 0-16 0-16zm-2 1h-26v15c0 .265.105.52.293.707.187.188.442.293.707.293h24c.265 0 .52-.105.707-.293.188-.187.293-.442.293-.707z"/><path d="m31 6c0-1.657-1.343-3-3-3-5.154 0-18.846 0-24 0-1.657 0-3 1.343-3 3v4c0 .552.448 1 1 1h28c.552 0 1-.448 1-1zm-2 0c0-.552-.448-1-1-1-5.154 0-18.846 0-24 0-.552 0-1 .448-1 1v3h26z"/><path d="m25.606 3.553-3 6c-.247.493-.047 1.095.447 1.341.493.247 1.095.047 1.341-.447l3-6c.247-.493.047-1.095-.447-1.341-.493-.247-1.095-.047-1.341.447z"/><path d="m19.606 3.553-3 6c-.247.493-.047 1.095.447 1.341.493.247 1.095.047 1.341-.447l3-6c.247-.493.047-1.095-.447-1.341-.493-.247-1.095-.047-1.341.447z"/><path d="m13.606 3.553-3 6c-.247.493-.047 1.095.447 1.341.493.247 1.095.047 1.341-.447l3-6c.247-.493.047-1.095-.447-1.341-.493-.247-1.095-.047-1.341.447z"/><path d="m7.606 3.553-3 6c-.247.493-.047 1.095.447 1.341.493.247 1.095.047 1.341-.447l3-6c.247-.493.047-1.095-.447-1.341-.493-.247-1.095-.047-1.341.447z"/></svg>